G04 Layer_Physical_Order=1*
G04 Layer_Color=255*
%FSLAX24Y24*%
%MOIN*%
G70*
G01*
G75*
%ADD10C,0.0050*%
%ADD11C,0.0200*%
%ADD12C,0.0100*%
%ADD13C,0.0300*%
%ADD14C,0.0050*%
%ADD15C,0.0150*%
%ADD16R,0.0283X0.0283*%
%ADD17R,0.0256X0.0256*%
%ADD18R,0.0291X0.0591*%
%ADD19R,0.0283X0.0283*%
%ADD20R,0.1181X0.1968*%
%ADD21C,0.0134*%
%ADD22R,0.0787X0.0787*%
%ADD23R,0.0291X0.0287*%
%ADD24R,0.0287X0.0291*%
%ADD25R,0.0276X0.0197*%
%ADD26R,0.0394X0.0197*%
G04:AMPARAMS|DCode=27|XSize=47.2mil|YSize=43.3mil|CornerRadius=0mil|HoleSize=0mil|Usage=FLASHONLY|Rotation=135.000|XOffset=0mil|YOffset=0mil|HoleType=Round|Shape=Rectangle|*
%AMROTATEDRECTD27*
4,1,4,0.0320,-0.0014,0.0014,-0.0320,-0.0320,0.0014,-0.0014,0.0320,0.0320,-0.0014,0.0*
%
%ADD27ROTATEDRECTD27*%

%ADD28R,0.0315X0.0315*%
%ADD29R,0.0394X0.0630*%
%ADD30R,0.0276X0.0118*%
%ADD31R,0.0217X0.0217*%
%ADD32R,0.0217X0.0217*%
%ADD33R,0.0205X0.0220*%
%ADD34R,0.0220X0.0205*%
%ADD35C,0.0083*%
%ADD36C,0.0197*%
%ADD37C,0.0250*%
%ADD38C,0.0220*%
G36*
X3948Y5381D02*
X3953Y5379D01*
X3959Y5378D01*
X3968Y5376D01*
X3989Y5374D01*
X4035Y5373D01*
X4053Y5373D01*
Y5323D01*
X4035Y5322D01*
X3959Y5317D01*
X3953Y5316D01*
X3948Y5314D01*
X3945Y5312D01*
Y5383D01*
X3948Y5381D01*
D02*
G37*
G36*
X4162Y5315D02*
X4160Y5317D01*
X4157Y5318D01*
X4153Y5319D01*
X4148Y5320D01*
X4143Y5321D01*
X4130Y5322D01*
X4114Y5322D01*
X4105Y5323D01*
Y5373D01*
X4114Y5373D01*
X4148Y5375D01*
X4153Y5376D01*
X4157Y5377D01*
X4160Y5378D01*
X4162Y5380D01*
Y5315D01*
D02*
G37*
G36*
X8827Y5229D02*
X8673D01*
X8673Y5230D01*
X8674Y5232D01*
X8674Y5235D01*
X8675Y5263D01*
X8675Y5296D01*
X8825D01*
X8827Y5229D01*
D02*
G37*
G36*
X3462Y5424D02*
X3466Y5419D01*
X3472Y5414D01*
X3478Y5409D01*
X3485Y5406D01*
X3494Y5403D01*
X3503Y5401D01*
X3512Y5399D01*
X3523Y5398D01*
X3535Y5398D01*
X3499Y5298D01*
X3487Y5297D01*
X3456Y5295D01*
X3447Y5294D01*
X3431Y5291D01*
X3424Y5288D01*
X3418Y5286D01*
X3412Y5283D01*
X3458Y5430D01*
X3462Y5424D01*
D02*
G37*
G36*
X5264Y5315D02*
X5262Y5317D01*
X5259Y5318D01*
X5255Y5319D01*
X5251Y5320D01*
X5245Y5321D01*
X5232Y5322D01*
X5216Y5322D01*
X5211Y5323D01*
X5206Y5322D01*
X5172Y5320D01*
X5167Y5319D01*
X5163Y5318D01*
X5160Y5317D01*
X5158Y5315D01*
Y5380D01*
X5160Y5378D01*
X5163Y5377D01*
X5167Y5376D01*
X5172Y5375D01*
X5177Y5374D01*
X5190Y5373D01*
X5206Y5373D01*
X5211Y5373D01*
X5216Y5373D01*
X5251Y5375D01*
X5255Y5376D01*
X5259Y5377D01*
X5262Y5378D01*
X5264Y5380D01*
Y5315D01*
D02*
G37*
G36*
X5629Y5428D02*
X5619Y5438D01*
X5600Y5455D01*
X5590Y5461D01*
X5580Y5467D01*
X5571Y5472D01*
X5562Y5475D01*
X5553Y5478D01*
X5544Y5480D01*
X5535Y5480D01*
Y5530D01*
X5544Y5531D01*
X5553Y5532D01*
X5562Y5535D01*
X5571Y5538D01*
X5580Y5543D01*
X5590Y5549D01*
X5600Y5556D01*
X5609Y5563D01*
X5619Y5572D01*
X5629Y5582D01*
Y5428D01*
D02*
G37*
G36*
X5318Y5378D02*
X5321Y5377D01*
X5325Y5376D01*
X5329Y5375D01*
X5335Y5374D01*
X5348Y5373D01*
X5364Y5373D01*
X5373Y5373D01*
Y5323D01*
X5364Y5322D01*
X5329Y5320D01*
X5325Y5319D01*
X5321Y5318D01*
X5318Y5317D01*
X5316Y5315D01*
Y5380D01*
X5318Y5378D01*
D02*
G37*
G36*
X4533Y5477D02*
X4532Y5474D01*
X4531Y5470D01*
X4530Y5466D01*
X4529Y5460D01*
X4528Y5447D01*
X4528Y5431D01*
X4528Y5426D01*
X4528Y5421D01*
X4530Y5387D01*
X4531Y5382D01*
X4532Y5379D01*
X4533Y5376D01*
X4535Y5373D01*
X4477D01*
Y5315D01*
X4475Y5317D01*
X4472Y5318D01*
X4468Y5319D01*
X4463Y5320D01*
X4458Y5321D01*
X4445Y5322D01*
X4429Y5322D01*
X4424Y5323D01*
X4419Y5322D01*
X4384Y5320D01*
X4380Y5319D01*
X4376Y5318D01*
X4373Y5317D01*
X4371Y5315D01*
Y5380D01*
X4373Y5378D01*
X4376Y5377D01*
X4380Y5376D01*
X4384Y5375D01*
X4390Y5374D01*
X4403Y5373D01*
X4419Y5373D01*
X4424Y5373D01*
X4429Y5373D01*
X4463Y5375D01*
X4468Y5376D01*
X4472Y5377D01*
X4472Y5378D01*
X4473Y5379D01*
X4474Y5382D01*
X4475Y5387D01*
X4476Y5392D01*
X4477Y5405D01*
X4477Y5421D01*
X4477Y5426D01*
X4477Y5431D01*
X4475Y5466D01*
X4474Y5470D01*
X4473Y5474D01*
X4472Y5477D01*
X4470Y5479D01*
X4535D01*
X4533Y5477D01*
D02*
G37*
G36*
X5160Y5221D02*
X5163Y5220D01*
X5167Y5219D01*
X5172Y5218D01*
X5177Y5217D01*
X5190Y5216D01*
X5206Y5215D01*
X5215Y5215D01*
Y5165D01*
X5206Y5165D01*
X5172Y5162D01*
X5167Y5161D01*
X5163Y5160D01*
X5160Y5159D01*
X5158Y5158D01*
Y5222D01*
X5160Y5221D01*
D02*
G37*
G36*
X7440Y5080D02*
X7440Y5085D01*
X7438Y5089D01*
X7435Y5093D01*
X7432Y5096D01*
X7427Y5099D01*
X7422Y5101D01*
X7415Y5103D01*
X7407Y5104D01*
X7399Y5105D01*
X7389Y5105D01*
Y5155D01*
X7399Y5155D01*
X7407Y5156D01*
X7415Y5157D01*
X7422Y5159D01*
X7427Y5161D01*
X7432Y5164D01*
X7435Y5167D01*
X7438Y5171D01*
X7440Y5175D01*
X7440Y5180D01*
Y5080D01*
D02*
G37*
G36*
X2131Y5103D02*
X2130Y5103D01*
X2128Y5104D01*
X2125Y5104D01*
X2101Y5105D01*
X2070Y5105D01*
Y5255D01*
X2131Y5257D01*
Y5103D01*
D02*
G37*
G36*
X4162Y5000D02*
X4160Y5002D01*
X4157Y5003D01*
X4153Y5004D01*
X4148Y5005D01*
X4143Y5006D01*
X4130Y5007D01*
X4114Y5008D01*
X4105Y5008D01*
Y5058D01*
X4114Y5058D01*
X4148Y5060D01*
X4153Y5061D01*
X4157Y5062D01*
X4160Y5064D01*
X4162Y5065D01*
Y5000D01*
D02*
G37*
G36*
X7643Y5233D02*
X7647Y5227D01*
X7655Y5222D01*
X7665Y5218D01*
X7679Y5214D01*
X7695Y5211D01*
X7715Y5208D01*
X7763Y5206D01*
X7791Y5205D01*
Y5055D01*
X7763Y5055D01*
X7695Y5050D01*
X7679Y5047D01*
X7665Y5043D01*
X7655Y5039D01*
X7647Y5034D01*
X7643Y5028D01*
X7641Y5021D01*
Y5239D01*
X7643Y5233D01*
D02*
G37*
G36*
X4505Y5149D02*
X4501Y5148D01*
X4498Y5147D01*
X4494Y5145D01*
X4489Y5143D01*
X4484Y5140D01*
X4479Y5136D01*
X4468Y5127D01*
X4456Y5115D01*
X4426Y5156D01*
X4432Y5162D01*
X4460Y5193D01*
X4461Y5195D01*
X4462Y5197D01*
X4505Y5149D01*
D02*
G37*
G36*
X4162Y5158D02*
X4160Y5159D01*
X4157Y5160D01*
X4153Y5161D01*
X4148Y5162D01*
X4143Y5163D01*
X4130Y5164D01*
X4114Y5165D01*
X4105Y5165D01*
Y5215D01*
X4114Y5215D01*
X4148Y5218D01*
X4153Y5219D01*
X4157Y5220D01*
X4160Y5221D01*
X4162Y5222D01*
Y5158D01*
D02*
G37*
G36*
X4691Y5162D02*
X4690Y5159D01*
X4689Y5155D01*
X4688Y5151D01*
X4687Y5145D01*
X4686Y5132D01*
X4685Y5116D01*
X4685Y5107D01*
X4635D01*
X4635Y5116D01*
X4632Y5151D01*
X4631Y5155D01*
X4630Y5159D01*
X4629Y5162D01*
X4628Y5164D01*
X4692D01*
X4691Y5162D01*
D02*
G37*
G36*
X2287Y5259D02*
X2294Y5255D01*
X2301Y5252D01*
X2309Y5249D01*
X2317Y5246D01*
X2326Y5244D01*
X2336Y5242D01*
X2346Y5241D01*
X2368Y5240D01*
X2378Y5140D01*
X2367Y5140D01*
X2356Y5139D01*
X2346Y5137D01*
X2337Y5135D01*
X2328Y5133D01*
X2320Y5129D01*
X2313Y5126D01*
X2306Y5121D01*
X2300Y5116D01*
X2295Y5110D01*
X2281Y5264D01*
X2287Y5259D01*
D02*
G37*
G36*
X7132Y5759D02*
X7130Y5759D01*
X7126Y5759D01*
X7042Y5760D01*
X7037Y5748D01*
X7031Y5730D01*
X7026Y5708D01*
X7022Y5684D01*
X7017Y5631D01*
X7017Y5631D01*
X7019Y5624D01*
X7021Y5617D01*
X7024Y5612D01*
X7027Y5606D01*
X7031Y5602D01*
X7035Y5598D01*
X7040Y5595D01*
X7015D01*
X7015Y5562D01*
X6965D01*
X6965Y5595D01*
X6940D01*
X6945Y5598D01*
X6949Y5602D01*
X6953Y5606D01*
X6956Y5612D01*
X6959Y5617D01*
X6961Y5624D01*
X6962Y5628D01*
X6958Y5684D01*
X6954Y5708D01*
X6949Y5730D01*
X6943Y5748D01*
X6936Y5764D01*
X6928Y5777D01*
X6919Y5788D01*
X6990D01*
Y5960D01*
X7132Y5961D01*
Y5759D01*
D02*
G37*
G36*
X4162Y5788D02*
X4160Y5789D01*
X4157Y5790D01*
X4153Y5791D01*
X4148Y5792D01*
X4143Y5793D01*
X4130Y5794D01*
X4114Y5795D01*
X4105Y5795D01*
Y5845D01*
X4114Y5845D01*
X4148Y5848D01*
X4153Y5849D01*
X4157Y5850D01*
X4160Y5851D01*
X4162Y5852D01*
Y5788D01*
D02*
G37*
G36*
X5006Y5792D02*
X5005Y5789D01*
X5004Y5785D01*
X5003Y5781D01*
X5002Y5775D01*
X5001Y5762D01*
X5000Y5746D01*
X5000Y5741D01*
X5000Y5736D01*
X5003Y5702D01*
X5004Y5697D01*
X5005Y5694D01*
X5006Y5691D01*
X5007Y5688D01*
X4943D01*
X4944Y5691D01*
X4945Y5694D01*
X4946Y5697D01*
X4947Y5702D01*
X4948Y5707D01*
X4949Y5720D01*
X4950Y5736D01*
X4950Y5741D01*
X4950Y5746D01*
X4947Y5781D01*
X4946Y5785D01*
X4945Y5789D01*
X4944Y5792D01*
X4943Y5794D01*
X5007D01*
X5006Y5792D01*
D02*
G37*
G36*
X2954Y5902D02*
X2960Y5897D01*
X2967Y5893D01*
X2975Y5890D01*
X2983Y5887D01*
X2992Y5884D01*
X3002Y5882D01*
X3012Y5881D01*
X3023Y5880D01*
X3034Y5880D01*
Y5780D01*
X3023Y5780D01*
X3002Y5778D01*
X2992Y5776D01*
X2983Y5773D01*
X2975Y5770D01*
X2967Y5767D01*
X2960Y5763D01*
X2954Y5758D01*
X2949Y5753D01*
Y5907D01*
X2954Y5902D01*
D02*
G37*
G36*
X5006Y5949D02*
X5005Y5946D01*
X5004Y5943D01*
X5003Y5938D01*
X5002Y5933D01*
X5001Y5920D01*
X5000Y5904D01*
X5000Y5899D01*
X5000Y5894D01*
X5003Y5859D01*
X5004Y5855D01*
X5005Y5851D01*
X5006Y5848D01*
X5007Y5846D01*
X4943D01*
X4944Y5848D01*
X4945Y5851D01*
X4946Y5855D01*
X4947Y5859D01*
X4948Y5865D01*
X4949Y5878D01*
X4950Y5894D01*
X4950Y5899D01*
X4950Y5904D01*
X4947Y5938D01*
X4946Y5943D01*
X4945Y5946D01*
X4944Y5949D01*
X4943Y5952D01*
X5007D01*
X5006Y5949D01*
D02*
G37*
G36*
X4162Y5945D02*
X4160Y5947D01*
X4157Y5948D01*
X4153Y5949D01*
X4148Y5950D01*
X4143Y5951D01*
X4130Y5952D01*
X4114Y5952D01*
X4105Y5952D01*
Y6002D01*
X4114Y6003D01*
X4148Y6005D01*
X4153Y6006D01*
X4157Y6007D01*
X4160Y6008D01*
X4162Y6010D01*
Y5945D01*
D02*
G37*
G36*
X3860Y5883D02*
X3865Y5875D01*
X3871Y5868D01*
X3877Y5862D01*
X3884Y5857D01*
X3891Y5853D01*
X3899Y5850D01*
X3908Y5847D01*
X3917Y5846D01*
X3926Y5845D01*
X3893Y5798D01*
X3823Y5821D01*
X3856Y5891D01*
X3860Y5883D01*
D02*
G37*
G36*
X4533Y5949D02*
X4532Y5946D01*
X4531Y5943D01*
X4530Y5938D01*
X4529Y5933D01*
X4528Y5920D01*
X4528Y5904D01*
X4528Y5899D01*
X4528Y5894D01*
X4530Y5859D01*
X4531Y5855D01*
X4532Y5851D01*
X4533Y5848D01*
X4535Y5846D01*
X4477D01*
Y5794D01*
X4535D01*
X4533Y5792D01*
X4532Y5789D01*
X4531Y5785D01*
X4530Y5781D01*
X4529Y5775D01*
X4528Y5762D01*
X4528Y5746D01*
X4528Y5741D01*
X4528Y5736D01*
X4530Y5702D01*
X4531Y5697D01*
X4532Y5694D01*
X4533Y5691D01*
X4535Y5688D01*
X4470D01*
X4472Y5691D01*
X4473Y5694D01*
X4474Y5697D01*
X4475Y5702D01*
X4476Y5707D01*
X4477Y5720D01*
X4477Y5736D01*
X4477Y5741D01*
X4477Y5746D01*
X4475Y5781D01*
X4474Y5785D01*
X4473Y5789D01*
X4472Y5790D01*
X4472Y5790D01*
X4468Y5791D01*
X4463Y5792D01*
X4458Y5793D01*
X4445Y5794D01*
X4429Y5795D01*
X4424Y5795D01*
X4419Y5795D01*
X4384Y5792D01*
X4380Y5791D01*
X4376Y5790D01*
X4373Y5789D01*
X4371Y5788D01*
Y5852D01*
X4373Y5851D01*
X4376Y5850D01*
X4380Y5849D01*
X4384Y5848D01*
X4390Y5847D01*
X4403Y5846D01*
X4419Y5845D01*
X4424Y5845D01*
X4429Y5845D01*
X4463Y5848D01*
X4468Y5849D01*
X4472Y5850D01*
X4472Y5850D01*
X4473Y5851D01*
X4474Y5855D01*
X4475Y5859D01*
X4476Y5865D01*
X4477Y5878D01*
X4477Y5894D01*
X4477Y5899D01*
X4477Y5904D01*
X4475Y5938D01*
X4474Y5943D01*
X4473Y5946D01*
X4472Y5949D01*
X4470Y5952D01*
X4535D01*
X4533Y5949D01*
D02*
G37*
G36*
X8331Y5854D02*
X8326Y5849D01*
X8321Y5842D01*
X8317Y5831D01*
X8313Y5818D01*
X8310Y5801D01*
X8308Y5782D01*
X8305Y5735D01*
X8307Y5679D01*
X8153D01*
X8153Y5680D01*
X8154Y5682D01*
X8154Y5685D01*
X8155Y5713D01*
X8155Y5719D01*
X8155Y5734D01*
X8150Y5801D01*
X8147Y5818D01*
X8143Y5831D01*
X8139Y5842D01*
X8134Y5849D01*
X8129Y5854D01*
X8123Y5855D01*
X8337D01*
X8331Y5854D01*
D02*
G37*
G36*
X5006Y5635D02*
X5005Y5632D01*
X5004Y5628D01*
X5003Y5623D01*
X5002Y5618D01*
X5001Y5605D01*
X5000Y5589D01*
X5000Y5584D01*
X5000Y5579D01*
X5003Y5544D01*
X5004Y5540D01*
X5005Y5536D01*
X5005Y5535D01*
X5006Y5535D01*
X5010Y5534D01*
X5014Y5533D01*
X5020Y5532D01*
X5033Y5531D01*
X5049Y5530D01*
X5054Y5530D01*
X5059Y5530D01*
X5093Y5533D01*
X5098Y5534D01*
X5101Y5535D01*
X5104Y5536D01*
X5107Y5537D01*
Y5473D01*
X5104Y5474D01*
X5101Y5475D01*
X5098Y5476D01*
X5093Y5477D01*
X5088Y5478D01*
X5075Y5479D01*
X5059Y5480D01*
X5054Y5480D01*
X5049Y5480D01*
X5014Y5477D01*
X5010Y5476D01*
X5006Y5475D01*
X5005Y5475D01*
X5005Y5474D01*
X5004Y5470D01*
X5003Y5466D01*
X5002Y5460D01*
X5001Y5447D01*
X5000Y5431D01*
X5000Y5426D01*
X5000Y5421D01*
X5003Y5387D01*
X5004Y5382D01*
X5005Y5379D01*
X5005Y5378D01*
X5006Y5377D01*
X5010Y5376D01*
X5014Y5375D01*
X5020Y5374D01*
X5033Y5373D01*
X5049Y5373D01*
X5054Y5373D01*
X5059Y5373D01*
X5093Y5375D01*
X5098Y5376D01*
X5101Y5377D01*
X5104Y5378D01*
X5107Y5380D01*
Y5315D01*
X5104Y5317D01*
X5101Y5318D01*
X5098Y5319D01*
X5093Y5320D01*
X5088Y5321D01*
X5075Y5322D01*
X5059Y5322D01*
X5054Y5323D01*
X5049Y5322D01*
X5014Y5320D01*
X5010Y5319D01*
X5006Y5318D01*
X5005Y5317D01*
X5005Y5317D01*
X5004Y5313D01*
X5003Y5308D01*
X5002Y5303D01*
X5001Y5290D01*
X5000Y5274D01*
X5000Y5269D01*
X5000Y5264D01*
X5003Y5229D01*
X5004Y5225D01*
X5005Y5221D01*
X5006Y5218D01*
X5007Y5216D01*
X4943D01*
X4944Y5218D01*
X4945Y5221D01*
X4946Y5225D01*
X4947Y5229D01*
X4948Y5235D01*
X4949Y5248D01*
X4950Y5264D01*
X4950Y5269D01*
X4950Y5274D01*
X4947Y5308D01*
X4946Y5313D01*
X4945Y5317D01*
X4945Y5317D01*
X4944Y5318D01*
X4940Y5319D01*
X4936Y5320D01*
X4930Y5321D01*
X4917Y5322D01*
X4901Y5322D01*
X4896Y5323D01*
X4891Y5322D01*
X4857Y5320D01*
X4852Y5319D01*
X4848Y5318D01*
X4848Y5317D01*
X4847Y5317D01*
X4846Y5313D01*
X4845Y5308D01*
X4844Y5303D01*
X4843Y5290D01*
X4843Y5274D01*
X4843Y5269D01*
X4843Y5264D01*
X4845Y5229D01*
X4846Y5225D01*
X4847Y5221D01*
X4848Y5218D01*
X4850Y5216D01*
X4785D01*
X4787Y5218D01*
X4788Y5221D01*
X4789Y5225D01*
X4790Y5229D01*
X4791Y5235D01*
X4792Y5248D01*
X4792Y5264D01*
X4792Y5269D01*
X4792Y5274D01*
X4790Y5308D01*
X4789Y5313D01*
X4788Y5317D01*
X4787Y5317D01*
X4786Y5318D01*
X4783Y5319D01*
X4778Y5320D01*
X4773Y5321D01*
X4760Y5322D01*
X4744Y5322D01*
X4739Y5323D01*
X4734Y5322D01*
X4699Y5320D01*
X4695Y5319D01*
X4691Y5318D01*
X4688Y5317D01*
X4686Y5315D01*
Y5380D01*
X4688Y5378D01*
X4691Y5377D01*
X4695Y5376D01*
X4699Y5375D01*
X4705Y5374D01*
X4718Y5373D01*
X4734Y5373D01*
X4739Y5373D01*
X4744Y5373D01*
X4778Y5375D01*
X4783Y5376D01*
X4786Y5377D01*
X4789Y5378D01*
X4792Y5380D01*
Y5322D01*
X4843D01*
Y5380D01*
X4845Y5378D01*
X4848Y5377D01*
X4852Y5376D01*
X4857Y5375D01*
X4862Y5374D01*
X4875Y5373D01*
X4891Y5373D01*
X4896Y5373D01*
X4901Y5373D01*
X4936Y5375D01*
X4940Y5376D01*
X4944Y5377D01*
X4945Y5378D01*
X4945Y5379D01*
X4946Y5382D01*
X4947Y5387D01*
X4948Y5392D01*
X4949Y5405D01*
X4950Y5421D01*
X4950Y5426D01*
X4950Y5431D01*
X4947Y5466D01*
X4946Y5470D01*
X4945Y5474D01*
X4944Y5477D01*
X4943Y5479D01*
X5001D01*
Y5531D01*
X4943D01*
X4944Y5533D01*
X4945Y5536D01*
X4946Y5540D01*
X4947Y5544D01*
X4948Y5550D01*
X4949Y5563D01*
X4950Y5579D01*
X4950Y5584D01*
X4950Y5589D01*
X4947Y5623D01*
X4946Y5628D01*
X4945Y5632D01*
X4944Y5635D01*
X4943Y5637D01*
X5007D01*
X5006Y5635D01*
D02*
G37*
G36*
X5318Y5536D02*
X5321Y5535D01*
X5325Y5534D01*
X5329Y5533D01*
X5335Y5532D01*
X5348Y5531D01*
X5364Y5530D01*
X5373Y5530D01*
Y5480D01*
X5364Y5480D01*
X5329Y5477D01*
X5325Y5476D01*
X5321Y5475D01*
X5318Y5474D01*
X5316Y5473D01*
Y5537D01*
X5318Y5536D01*
D02*
G37*
G36*
X8307Y5520D02*
X8306Y5518D01*
X8306Y5515D01*
X8305Y5487D01*
X8305Y5454D01*
X8155D01*
X8153Y5521D01*
X8307D01*
X8307Y5520D01*
D02*
G37*
G36*
X4162Y5473D02*
X4160Y5474D01*
X4157Y5475D01*
X4153Y5476D01*
X4148Y5477D01*
X4143Y5478D01*
X4130Y5479D01*
X4114Y5480D01*
X4105Y5480D01*
Y5530D01*
X4114Y5530D01*
X4148Y5533D01*
X4153Y5534D01*
X4157Y5535D01*
X4160Y5536D01*
X4162Y5537D01*
Y5473D01*
D02*
G37*
G36*
X1483Y5739D02*
X1479Y5729D01*
X1476Y5716D01*
X1473Y5699D01*
X1469Y5659D01*
X1515D01*
X1505Y5658D01*
X1497Y5655D01*
X1489Y5650D01*
X1483Y5643D01*
X1477Y5634D01*
X1473Y5623D01*
X1469Y5609D01*
X1467Y5594D01*
X1466Y5579D01*
X1465Y5529D01*
X1365D01*
X1365Y5566D01*
X1363Y5591D01*
X1363Y5594D01*
X1360Y5609D01*
X1357Y5623D01*
X1352Y5634D01*
X1347Y5643D01*
X1340Y5650D01*
X1333Y5655D01*
X1324Y5658D01*
X1315Y5659D01*
X1359D01*
X1357Y5699D01*
X1354Y5716D01*
X1351Y5729D01*
X1347Y5739D01*
X1342Y5745D01*
X1487D01*
X1483Y5739D01*
D02*
G37*
G36*
X4533Y5635D02*
X4532Y5632D01*
X4531Y5628D01*
X4530Y5623D01*
X4529Y5618D01*
X4528Y5605D01*
X4528Y5589D01*
X4528Y5584D01*
X4528Y5579D01*
X4530Y5544D01*
X4531Y5540D01*
X4532Y5536D01*
X4533Y5533D01*
X4535Y5531D01*
X4470D01*
X4472Y5533D01*
X4473Y5536D01*
X4474Y5540D01*
X4475Y5544D01*
X4476Y5550D01*
X4477Y5563D01*
X4477Y5579D01*
X4477Y5584D01*
X4477Y5589D01*
X4475Y5623D01*
X4474Y5628D01*
X4473Y5632D01*
X4472Y5635D01*
X4470Y5637D01*
X4535D01*
X4533Y5635D01*
D02*
G37*
G36*
X8846Y5630D02*
X8842Y5625D01*
X8838Y5618D01*
X8834Y5607D01*
X8832Y5594D01*
X8829Y5577D01*
X8826Y5535D01*
X8825Y5481D01*
X8675D01*
X8675Y5510D01*
X8668Y5594D01*
X8666Y5607D01*
X8662Y5618D01*
X8658Y5625D01*
X8654Y5630D01*
X8649Y5631D01*
X8851D01*
X8846Y5630D01*
D02*
G37*
G36*
X9385Y5631D02*
X9381Y5629D01*
X9377Y5627D01*
X9374Y5623D01*
X9371Y5619D01*
X9369Y5613D01*
X9367Y5607D01*
X9366Y5599D01*
X9365Y5591D01*
X9365Y5590D01*
X9366Y5584D01*
X9367Y5575D01*
X9370Y5566D01*
X9373Y5557D01*
X9378Y5548D01*
X9384Y5538D01*
X9390Y5528D01*
X9398Y5519D01*
X9407Y5509D01*
X9417Y5499D01*
X9263D01*
X9273Y5509D01*
X9290Y5528D01*
X9296Y5538D01*
X9302Y5548D01*
X9307Y5557D01*
X9310Y5566D01*
X9313Y5575D01*
X9314Y5584D01*
X9315Y5590D01*
X9315Y5591D01*
X9314Y5599D01*
X9313Y5607D01*
X9311Y5613D01*
X9309Y5619D01*
X9306Y5623D01*
X9303Y5627D01*
X9299Y5629D01*
X9295Y5631D01*
X9290Y5631D01*
X9390D01*
X9385Y5631D01*
D02*
G37*
G36*
X8093Y4971D02*
X8110Y4946D01*
X8134Y4929D01*
X8164Y4924D01*
X8569D01*
X8598Y4929D01*
X8623Y4946D01*
X8668Y4952D01*
X8750Y4936D01*
X8832Y4952D01*
X8877Y4946D01*
X8902Y4929D01*
X8931Y4924D01*
X9688D01*
X9688Y4924D01*
X9688Y4924D01*
X9875D01*
X9898Y4905D01*
Y2250D01*
X7750D01*
Y1401D01*
X6328D01*
X6292Y1436D01*
X6292Y1492D01*
Y1847D01*
X6249D01*
Y1928D01*
X6437D01*
Y2170D01*
X6487D01*
Y2220D01*
X6729D01*
Y2412D01*
X6746Y2424D01*
X6746D01*
Y2620D01*
X6503D01*
Y2670D01*
X6453D01*
Y2916D01*
X6259D01*
X6249Y2962D01*
Y3009D01*
X6288D01*
Y3353D01*
X6288Y3393D01*
X6288Y3443D01*
Y3786D01*
X6253D01*
Y3965D01*
X6278D01*
Y4309D01*
X6278Y4321D01*
Y4359D01*
X6278Y4371D01*
Y4715D01*
X6253D01*
Y4860D01*
X6252Y4864D01*
X6242Y4941D01*
X6235Y4958D01*
X6263Y5000D01*
X6644D01*
Y4599D01*
X6638Y4598D01*
X6569Y4551D01*
X6522Y4482D01*
X6516Y4450D01*
X6924D01*
X6918Y4482D01*
X6871Y4551D01*
X6802Y4598D01*
X6796Y4599D01*
Y5000D01*
X7388D01*
Y4970D01*
X7627D01*
X7629Y4969D01*
X7635Y4970D01*
X7641Y4967D01*
X7648Y4970D01*
X7692D01*
Y4994D01*
X7702Y4996D01*
X7752Y5000D01*
X8087D01*
X8093Y4971D01*
D02*
G37*
G36*
X4219Y1089D02*
X4224Y1021D01*
X4226Y1005D01*
X4230Y991D01*
X4234Y981D01*
X4239Y973D01*
X4244Y969D01*
X4251Y967D01*
X4036D01*
X4042Y969D01*
X4048Y973D01*
X4053Y981D01*
X4057Y991D01*
X4060Y1005D01*
X4063Y1021D01*
X4066Y1041D01*
X4068Y1089D01*
X4068Y1117D01*
X4218D01*
X4219Y1089D01*
D02*
G37*
G36*
X3206Y3855D02*
X3211Y3843D01*
X3218Y3833D01*
X3224Y3825D01*
X3230Y3820D01*
X3237Y3817D01*
X3244Y3816D01*
X3251Y3818D01*
X3259Y3822D01*
X3266Y3829D01*
X2962Y3524D01*
X2968Y3534D01*
X2971Y3549D01*
X2972Y3568D01*
X2970Y3593D01*
X2965Y3623D01*
X2957Y3657D01*
X2934Y3742D01*
X2901Y3846D01*
X3200Y3870D01*
X3206Y3855D01*
D02*
G37*
G36*
X1774Y1311D02*
X1777Y1281D01*
X1779Y1268D01*
X1783Y1258D01*
X1787Y1249D01*
X1791Y1242D01*
X1797Y1238D01*
X1803Y1235D01*
X1810Y1234D01*
X1537D01*
X1544Y1235D01*
X1550Y1238D01*
X1555Y1242D01*
X1560Y1249D01*
X1564Y1258D01*
X1568Y1268D01*
X1570Y1281D01*
X1572Y1295D01*
X1573Y1311D01*
X1573Y1329D01*
X1773D01*
X1774Y1311D01*
D02*
G37*
G36*
X2899Y831D02*
X2781Y830D01*
Y830D01*
X2740Y830D01*
X2699Y830D01*
Y830D01*
X2581Y831D01*
Y1049D01*
X2583Y1045D01*
X2589Y1042D01*
X2599Y1039D01*
X2613Y1036D01*
X2631Y1034D01*
X2679Y1031D01*
X2744Y1030D01*
X2881Y1039D01*
X2891Y1042D01*
X2897Y1045D01*
X2899Y1049D01*
Y831D01*
D02*
G37*
G36*
X1810Y965D02*
X1812Y961D01*
X1814Y957D01*
X1818Y954D01*
X1822Y951D01*
X1828Y949D01*
X1834Y947D01*
X1842Y946D01*
X1850Y945D01*
X1860Y945D01*
Y895D01*
X1850Y895D01*
X1842Y894D01*
X1834Y893D01*
X1828Y891D01*
X1822Y889D01*
X1818Y886D01*
X1814Y883D01*
X1812Y879D01*
X1810Y875D01*
X1810Y870D01*
Y970D01*
X1810Y965D01*
D02*
G37*
G36*
X1527Y3697D02*
X1313D01*
X1314Y3699D01*
X1315Y3705D01*
X1317Y3715D01*
X1318Y3747D01*
X1320Y3897D01*
X1520D01*
X1527Y3697D01*
D02*
G37*
G36*
X1066Y870D02*
X1065Y875D01*
X1063Y879D01*
X1061Y883D01*
X1057Y886D01*
X1053Y889D01*
X1047Y891D01*
X1040Y893D01*
X1033Y894D01*
X1024Y895D01*
X1024Y895D01*
X1024Y895D01*
X1015Y894D01*
X1008Y893D01*
X1001Y891D01*
X996Y889D01*
X991Y886D01*
X988Y883D01*
X985Y879D01*
X984Y875D01*
X983Y870D01*
Y970D01*
X984Y965D01*
X985Y961D01*
X988Y957D01*
X991Y954D01*
X996Y951D01*
X1001Y949D01*
X1008Y947D01*
X1015Y946D01*
X1024Y945D01*
X1024Y945D01*
X1024Y945D01*
X1033Y946D01*
X1040Y947D01*
X1047Y949D01*
X1053Y951D01*
X1057Y954D01*
X1061Y957D01*
X1063Y961D01*
X1065Y965D01*
X1066Y970D01*
Y870D01*
D02*
G37*
G36*
X999Y3540D02*
X999Y3545D01*
X997Y3549D01*
X995Y3553D01*
X991Y3556D01*
X986Y3559D01*
X981Y3561D01*
X974Y3563D01*
X966Y3564D01*
X958Y3565D01*
X948Y3565D01*
Y3615D01*
X958Y3615D01*
X966Y3616D01*
X974Y3617D01*
X981Y3619D01*
X986Y3621D01*
X991Y3624D01*
X995Y3627D01*
X997Y3631D01*
X999Y3635D01*
X999Y3640D01*
Y3540D01*
D02*
G37*
G36*
X4268Y1441D02*
X4258Y1437D01*
X4249Y1429D01*
X4241Y1419D01*
X4234Y1405D01*
X4228Y1389D01*
X4224Y1369D01*
X4221Y1347D01*
X4219Y1321D01*
X4218Y1293D01*
X4068D01*
X4068Y1321D01*
X4063Y1369D01*
X4059Y1389D01*
X4053Y1405D01*
X4046Y1419D01*
X4038Y1429D01*
X4029Y1437D01*
X4019Y1441D01*
X4007Y1443D01*
X4280D01*
X4268Y1441D01*
D02*
G37*
G36*
X1527Y2496D02*
X1533Y2495D01*
X1543Y2493D01*
X1575Y2492D01*
X1725Y2490D01*
Y2290D01*
X1525Y2283D01*
Y2497D01*
X1527Y2496D01*
D02*
G37*
G36*
X3744Y2744D02*
X3729Y2756D01*
X3712Y2764D01*
X3695Y2767D01*
X3675Y2767D01*
X3655Y2762D01*
X3633Y2752D01*
X3609Y2739D01*
X3585Y2721D01*
X3558Y2699D01*
X3531Y2673D01*
X3389Y2814D01*
X3415Y2842D01*
X3438Y2868D01*
X3455Y2893D01*
X3469Y2916D01*
X3478Y2938D01*
X3483Y2959D01*
X3484Y2978D01*
X3480Y2996D01*
X3473Y3012D01*
X3461Y3027D01*
X3744Y2744D01*
D02*
G37*
G36*
X1524Y2891D02*
X1523Y2885D01*
X1522Y2875D01*
X1520Y2731D01*
X1520Y2697D01*
X1525Y2497D01*
X1310D01*
X1312Y2499D01*
X1314Y2505D01*
X1315Y2515D01*
X1317Y2529D01*
X1320Y2625D01*
X1320Y2693D01*
X1310Y2893D01*
X1525D01*
X1524Y2891D01*
D02*
G37*
G36*
X4048Y2998D02*
X4041Y2982D01*
X4037Y2964D01*
X4038Y2945D01*
X4043Y2924D01*
X4052Y2902D01*
X4066Y2879D01*
X4083Y2854D01*
X4106Y2828D01*
X4132Y2800D01*
X3990Y2659D01*
X3963Y2685D01*
X3936Y2707D01*
X3911Y2725D01*
X3888Y2738D01*
X3866Y2748D01*
X3845Y2753D01*
X3826Y2754D01*
X3809Y2750D01*
X3792Y2742D01*
X3777Y2730D01*
X4060Y3013D01*
X4048Y2998D01*
D02*
G37*
G36*
X1526Y3481D02*
X1525Y3475D01*
X1523Y3465D01*
X1522Y3433D01*
X1520Y3299D01*
X1525Y3107D01*
X1310D01*
X1312Y3109D01*
X1314Y3115D01*
X1315Y3125D01*
X1317Y3139D01*
X1320Y3235D01*
X1320Y3286D01*
X1313Y3483D01*
X1527D01*
X1526Y3481D01*
D02*
G37*
G36*
X4637Y1834D02*
X4636Y1832D01*
X4636Y1828D01*
X4635Y1801D01*
X4635Y1783D01*
X4636Y1759D01*
X4641Y1711D01*
X4645Y1691D01*
X4650Y1675D01*
X4657Y1661D01*
X4665Y1651D01*
X4674Y1643D01*
X4685Y1639D01*
X4697Y1637D01*
X4423D01*
X4435Y1639D01*
X4446Y1643D01*
X4455Y1651D01*
X4463Y1661D01*
X4470Y1675D01*
X4475Y1691D01*
X4479Y1711D01*
X4483Y1733D01*
X4484Y1759D01*
X4485Y1776D01*
X4483Y1835D01*
X4637D01*
X4637Y1834D01*
D02*
G37*
G36*
X1208Y2282D02*
X1206Y2279D01*
X1205Y2274D01*
X1203Y2266D01*
X1202Y2257D01*
X1200Y2217D01*
X1200Y2180D01*
X1000D01*
X995Y2283D01*
X1210D01*
X1208Y2282D01*
D02*
G37*
G36*
X995Y2893D02*
X993Y2894D01*
X987Y2895D01*
X977Y2897D01*
X945Y2898D01*
X795Y2900D01*
Y3100D01*
X995Y3107D01*
Y2893D01*
D02*
G37*
G36*
X4528Y4687D02*
X4530Y4678D01*
X4532Y4669D01*
X4536Y4660D01*
X4541Y4650D01*
X4546Y4641D01*
X4553Y4631D01*
X4561Y4621D01*
X4570Y4611D01*
X4580Y4601D01*
X4426D01*
X4435Y4611D01*
X4452Y4631D01*
X4459Y4641D01*
X4465Y4650D01*
X4469Y4660D01*
X4473Y4669D01*
X4475Y4678D01*
X4477Y4687D01*
X4478Y4696D01*
X4528D01*
X4528Y4687D01*
D02*
G37*
G36*
X5112Y4744D02*
X5119Y4739D01*
X5128Y4734D01*
X5137Y4730D01*
X5147Y4727D01*
X5157Y4724D01*
X5169Y4722D01*
X5181Y4721D01*
X5195Y4720D01*
X5209Y4720D01*
X5100Y4611D01*
X5100Y4625D01*
X5098Y4651D01*
X5096Y4663D01*
X5093Y4673D01*
X5090Y4683D01*
X5086Y4692D01*
X5081Y4701D01*
X5076Y4708D01*
X5070Y4715D01*
X5105Y4750D01*
X5112Y4744D01*
D02*
G37*
G36*
X5283Y4983D02*
X5327Y4953D01*
X5371Y4944D01*
X5378Y4941D01*
X5395Y4940D01*
X5409Y4939D01*
X5422Y4937D01*
X5435Y4934D01*
X5448Y4930D01*
X5460Y4926D01*
X5471Y4921D01*
X5482Y4914D01*
X5493Y4907D01*
X5505Y4898D01*
X5516Y4896D01*
X5541Y4879D01*
X5600Y4867D01*
X5940D01*
Y4865D01*
X5944Y4864D01*
X5945Y4860D01*
X5947D01*
Y4715D01*
X5922D01*
Y4371D01*
X5922Y4359D01*
Y4321D01*
X5922Y4309D01*
Y3965D01*
X5947D01*
Y3786D01*
X5905D01*
Y3443D01*
X5905Y3403D01*
X5905Y3353D01*
Y3009D01*
X5944D01*
Y2866D01*
X5904D01*
Y2474D01*
X5944D01*
Y2362D01*
X5901D01*
Y1978D01*
X5944D01*
Y1847D01*
X5901D01*
Y1492D01*
X5901Y1460D01*
X5901Y1410D01*
Y1054D01*
X6292D01*
Y1095D01*
X7750D01*
Y102D01*
X5095D01*
X5076Y125D01*
Y285D01*
X5076Y285D01*
X5076Y285D01*
Y354D01*
X5076Y354D01*
X5076Y354D01*
Y497D01*
X5076Y497D01*
X5076Y497D01*
Y566D01*
X5076Y566D01*
X5076Y566D01*
Y778D01*
X5076Y778D01*
X5076Y778D01*
Y991D01*
X5076Y991D01*
X5076Y991D01*
Y1133D01*
X5076Y1133D01*
X5076Y1133D01*
Y1346D01*
X5076Y1346D01*
X5076Y1346D01*
Y1558D01*
X5076Y1558D01*
X5076Y1558D01*
Y1839D01*
X5076Y1839D01*
X5076Y1839D01*
Y2500D01*
X5150D01*
Y4419D01*
X5189Y4451D01*
X5210Y4447D01*
X5272Y4459D01*
X5325Y4495D01*
X5361Y4548D01*
X5373Y4610D01*
X5361Y4672D01*
X5325Y4725D01*
X5272Y4761D01*
X5213Y4772D01*
X5210Y4774D01*
X5197Y4774D01*
X5186Y4775D01*
X5177Y4776D01*
X5169Y4777D01*
X5162Y4779D01*
X5156Y4781D01*
X5152Y4783D01*
X5150Y4784D01*
Y4943D01*
X5168Y4947D01*
X5198Y4967D01*
X5218Y4997D01*
X5219Y5000D01*
X5271D01*
X5283Y4983D01*
D02*
G37*
G36*
X6746Y4564D02*
X6747Y4555D01*
X6750Y4546D01*
X6753Y4537D01*
X6758Y4528D01*
X6764Y4518D01*
X6770Y4508D01*
X6778Y4499D01*
X6787Y4489D01*
X6797Y4479D01*
X6643D01*
X6653Y4489D01*
X6670Y4508D01*
X6676Y4518D01*
X6682Y4528D01*
X6687Y4537D01*
X6690Y4546D01*
X6693Y4555D01*
X6694Y4564D01*
X6695Y4573D01*
X6745D01*
X6746Y4564D01*
D02*
G37*
G36*
X4533Y5005D02*
X4532Y5002D01*
X4531Y4998D01*
X4530Y4993D01*
X4529Y4988D01*
X4528Y4975D01*
X4528Y4959D01*
X4528Y4950D01*
X4478D01*
X4477Y4959D01*
X4475Y4993D01*
X4474Y4998D01*
X4473Y5002D01*
X4472Y5005D01*
X4470Y5007D01*
X4535D01*
X4533Y5005D01*
D02*
G37*
G36*
X5006D02*
X5005Y5002D01*
X5004Y4998D01*
X5003Y4993D01*
X5002Y4988D01*
X5001Y4975D01*
X5000Y4959D01*
X5000Y4950D01*
X4950D01*
X4950Y4959D01*
X4947Y4993D01*
X4946Y4998D01*
X4945Y5002D01*
X4944Y5005D01*
X4943Y5007D01*
X5007D01*
X5006Y5005D01*
D02*
G37*
G36*
X1572Y5202D02*
X1576Y5189D01*
X1584Y5178D01*
X1594Y5168D01*
X1608Y5160D01*
X1624Y5153D01*
X1644Y5148D01*
X1667Y5144D01*
X1693Y5142D01*
X1721Y5141D01*
Y4991D01*
X1693Y4990D01*
X1667Y4988D01*
X1644Y4984D01*
X1624Y4979D01*
X1608Y4972D01*
X1594Y4964D01*
X1584Y4954D01*
X1576Y4943D01*
X1572Y4930D01*
X1570Y4916D01*
Y5216D01*
X1572Y5202D01*
D02*
G37*
G36*
X5538Y4942D02*
X5524Y4952D01*
X5510Y4961D01*
X5495Y4969D01*
X5480Y4976D01*
X5465Y4982D01*
X5449Y4986D01*
X5432Y4990D01*
X5415Y4993D01*
X5398Y4994D01*
X5380Y4995D01*
Y5045D01*
X5398Y5046D01*
X5415Y5047D01*
X5432Y5050D01*
X5449Y5054D01*
X5465Y5058D01*
X5480Y5064D01*
X5495Y5071D01*
X5510Y5079D01*
X5524Y5088D01*
X5538Y5098D01*
Y4942D01*
D02*
G37*
G36*
X711Y614D02*
X711Y619D01*
X709Y623D01*
X707Y627D01*
X703Y630D01*
X698Y633D01*
X693Y635D01*
X686Y637D01*
X678Y638D01*
X670Y639D01*
X660Y639D01*
Y689D01*
X670Y689D01*
X678Y690D01*
X686Y691D01*
X693Y693D01*
X698Y695D01*
X703Y698D01*
X707Y701D01*
X709Y705D01*
X711Y709D01*
X711Y714D01*
Y614D01*
D02*
G37*
G36*
X1538D02*
X1537Y619D01*
X1536Y623D01*
X1533Y627D01*
X1530Y630D01*
X1525Y633D01*
X1520Y635D01*
X1513Y637D01*
X1505Y638D01*
X1497Y639D01*
X1496Y639D01*
X1496Y639D01*
X1488Y638D01*
X1480Y637D01*
X1474Y635D01*
X1468Y633D01*
X1464Y630D01*
X1460Y627D01*
X1458Y623D01*
X1456Y619D01*
X1456Y614D01*
Y714D01*
X1456Y709D01*
X1458Y705D01*
X1460Y701D01*
X1464Y698D01*
X1468Y695D01*
X1474Y693D01*
X1480Y691D01*
X1488Y690D01*
X1496Y689D01*
X1496Y689D01*
X1497Y689D01*
X1505Y690D01*
X1513Y691D01*
X1520Y693D01*
X1525Y695D01*
X1530Y698D01*
X1533Y701D01*
X1536Y705D01*
X1537Y709D01*
X1538Y714D01*
Y614D01*
D02*
G37*
G36*
X2900D02*
X2900Y619D01*
X2898Y623D01*
X2895Y627D01*
X2892Y630D01*
X2887Y633D01*
X2882Y635D01*
X2875Y637D01*
X2867Y638D01*
X2859Y639D01*
X2849Y639D01*
Y689D01*
X2859Y689D01*
X2867Y690D01*
X2875Y691D01*
X2882Y693D01*
X2887Y695D01*
X2892Y698D01*
X2895Y701D01*
X2898Y705D01*
X2900Y709D01*
X2900Y714D01*
Y614D01*
D02*
G37*
G36*
X4605Y3693D02*
X4566Y3652D01*
X4503Y3579D01*
X4481Y3547D01*
X4463Y3517D01*
X4452Y3491D01*
X4446Y3467D01*
X4446Y3446D01*
X4451Y3428D01*
X4462Y3413D01*
X4129Y3745D01*
X4141Y3737D01*
X4156Y3735D01*
X4175Y3738D01*
X4196Y3746D01*
X4221Y3759D01*
X4249Y3778D01*
X4280Y3802D01*
X4353Y3866D01*
X4393Y3905D01*
X4605Y3693D01*
D02*
G37*
G36*
X2581Y1049D02*
X2379D01*
Y831D01*
X2179Y830D01*
Y1030D01*
X2217Y1030D01*
X2361Y1039D01*
X2371Y1042D01*
X2377Y1045D01*
X2379Y1049D01*
X2379Y1051D01*
X2379Y1057D01*
X2380Y1249D01*
X2580D01*
X2581Y1049D01*
D02*
G37*
G36*
X1810Y709D02*
X1812Y705D01*
X1814Y701D01*
X1818Y698D01*
X1822Y695D01*
X1828Y693D01*
X1834Y691D01*
X1842Y690D01*
X1850Y689D01*
X1860Y689D01*
Y639D01*
X1850Y639D01*
X1842Y638D01*
X1834Y637D01*
X1828Y635D01*
X1822Y633D01*
X1818Y630D01*
X1814Y627D01*
X1812Y623D01*
X1810Y619D01*
X1810Y614D01*
Y714D01*
X1810Y709D01*
D02*
G37*
G36*
X4059Y4098D02*
X4033Y4070D01*
X4011Y4044D01*
X3994Y4020D01*
X3980Y3996D01*
X3971Y3974D01*
X3966Y3954D01*
X3965Y3935D01*
X3969Y3917D01*
X3976Y3901D01*
X3988Y3886D01*
X3706Y4169D01*
X3721Y4157D01*
X3737Y4149D01*
X3755Y4145D01*
X3774Y4146D01*
X3794Y4151D01*
X3816Y4160D01*
X3839Y4174D01*
X3864Y4191D01*
X3890Y4213D01*
X3918Y4239D01*
X4059Y4098D01*
D02*
G37*
G36*
X2580Y709D02*
X2582Y705D01*
X2585Y701D01*
X2588Y698D01*
X2593Y695D01*
X2598Y693D01*
X2605Y691D01*
X2613Y690D01*
X2621Y689D01*
X2631Y689D01*
Y639D01*
X2621Y639D01*
X2613Y638D01*
X2605Y637D01*
X2598Y635D01*
X2593Y633D01*
X2588Y630D01*
X2585Y627D01*
X2582Y623D01*
X2580Y619D01*
X2580Y614D01*
Y714D01*
X2580Y709D01*
D02*
G37*
G36*
X2380Y614D02*
X2380Y619D01*
X2378Y623D01*
X2375Y627D01*
X2372Y630D01*
X2367Y633D01*
X2362Y635D01*
X2355Y637D01*
X2347Y638D01*
X2339Y639D01*
X2329Y639D01*
Y689D01*
X2339Y689D01*
X2347Y690D01*
X2355Y691D01*
X2362Y693D01*
X2367Y695D01*
X2372Y698D01*
X2375Y701D01*
X2378Y705D01*
X2380Y709D01*
X2380Y714D01*
Y614D01*
D02*
G37*
G36*
X3887Y5951D02*
X3872Y5967D01*
X3895Y6011D01*
X3918Y6018D01*
X3887Y5951D01*
D02*
G37*
G36*
X7704Y8322D02*
X7710Y8317D01*
X7717Y8313D01*
X7725Y8310D01*
X7733Y8307D01*
X7742Y8304D01*
X7752Y8302D01*
X7762Y8301D01*
X7773Y8300D01*
X7784Y8300D01*
Y8200D01*
X7773Y8200D01*
X7752Y8198D01*
X7742Y8196D01*
X7733Y8193D01*
X7725Y8190D01*
X7717Y8187D01*
X7710Y8183D01*
X7704Y8178D01*
X7699Y8173D01*
Y8327D01*
X7704Y8322D01*
D02*
G37*
G36*
X6565Y8220D02*
X6560Y8226D01*
X6554Y8231D01*
X6547Y8236D01*
X6540Y8239D01*
X6532Y8243D01*
X6523Y8245D01*
X6514Y8247D01*
X6504Y8249D01*
X6493Y8250D01*
X6482Y8250D01*
X6492Y8350D01*
X6503Y8350D01*
X6524Y8352D01*
X6534Y8354D01*
X6543Y8356D01*
X6551Y8359D01*
X6559Y8362D01*
X6566Y8365D01*
X6573Y8369D01*
X6579Y8374D01*
X6565Y8220D01*
D02*
G37*
G36*
X6191Y8169D02*
X6192Y8160D01*
X6194Y8152D01*
X6198Y8144D01*
X6202Y8138D01*
X6208Y8133D01*
X6215Y8129D01*
X6222Y8126D01*
X6230Y8125D01*
X6240Y8124D01*
X6040D01*
X6050Y8125D01*
X6058Y8126D01*
X6065Y8129D01*
X6072Y8133D01*
X6077Y8138D01*
X6082Y8144D01*
X6086Y8152D01*
X6088Y8160D01*
X6090Y8169D01*
X6090Y8180D01*
X6190D01*
X6191Y8169D01*
D02*
G37*
G36*
X8041Y8161D02*
X8042Y8154D01*
X8044Y8147D01*
X8048Y8141D01*
X8052Y8136D01*
X8058Y8132D01*
X8065Y8128D01*
X8072Y8126D01*
X8080Y8125D01*
X8090Y8124D01*
X7890D01*
X7900Y8125D01*
X7908Y8126D01*
X7915Y8128D01*
X7922Y8132D01*
X7928Y8136D01*
X7932Y8141D01*
X7936Y8147D01*
X7938Y8154D01*
X7940Y8161D01*
X7940Y8170D01*
X8040D01*
X8041Y8161D01*
D02*
G37*
G36*
X4831Y8999D02*
X4944D01*
X4936Y8999D01*
X4929Y8996D01*
X4923Y8992D01*
X4918Y8987D01*
X4913Y8980D01*
X4910Y8971D01*
X4907Y8961D01*
X4905Y8949D01*
X4904Y8935D01*
X4903Y8920D01*
X4891Y8901D01*
X4903D01*
X4909Y8701D01*
X4757D01*
X4703Y8620D01*
X4701Y8658D01*
X4695Y8692D01*
X4692Y8701D01*
X4691D01*
X4692Y8702D01*
X4685Y8722D01*
X4671Y8748D01*
X4653Y8770D01*
X4631Y8788D01*
X4605Y8802D01*
X4575Y8812D01*
X4541Y8818D01*
X4503Y8820D01*
Y9020D01*
X4541Y9021D01*
X4575Y9025D01*
X4605Y9031D01*
X4631Y9039D01*
X4653Y9050D01*
X4671Y9063D01*
X4685Y9079D01*
X4695Y9097D01*
X4701Y9117D01*
X4703Y9140D01*
X4831Y8999D01*
D02*
G37*
G36*
X1290Y9091D02*
X1296Y9074D01*
X1306Y9059D01*
X1320Y9046D01*
X1338Y9035D01*
X1361Y9026D01*
X1387Y9019D01*
X1417Y9014D01*
X1451Y9011D01*
X1489Y9010D01*
Y8810D01*
X1451Y8809D01*
X1417Y8806D01*
X1387Y8801D01*
X1361Y8794D01*
X1338Y8785D01*
X1320Y8774D01*
X1306Y8761D01*
X1296Y8746D01*
X1290Y8729D01*
X1288Y8710D01*
Y9110D01*
X1290Y9091D01*
D02*
G37*
G36*
X4907Y8497D02*
X4906Y8491D01*
X4904Y8481D01*
X4902Y8449D01*
X4902Y8436D01*
X4909Y8281D01*
X4691D01*
X4693Y8283D01*
X4694Y8289D01*
X4696Y8299D01*
X4698Y8331D01*
X4698Y8344D01*
X4691Y8499D01*
X4909D01*
X4907Y8497D01*
D02*
G37*
G36*
X3053Y8307D02*
X3051Y8312D01*
X3045Y8317D01*
X3035Y8321D01*
X3021Y8324D01*
X3003Y8327D01*
X2981Y8329D01*
X2891Y8333D01*
X2853Y8334D01*
Y8534D01*
X2891Y8534D01*
X3021Y8543D01*
X3035Y8547D01*
X3045Y8551D01*
X3051Y8555D01*
X3053Y8560D01*
Y8307D01*
D02*
G37*
G36*
X4869Y8105D02*
X4852Y8077D01*
X4845Y8063D01*
X4839Y8049D01*
X4834Y8035D01*
X4830Y8021D01*
X4827Y8007D01*
X4826Y7994D01*
X4825Y7980D01*
X4775D01*
X4774Y7994D01*
X4773Y8007D01*
X4770Y8021D01*
X4766Y8035D01*
X4761Y8049D01*
X4755Y8063D01*
X4748Y8077D01*
X4740Y8091D01*
X4731Y8105D01*
X4721Y8119D01*
X4879D01*
X4869Y8105D01*
D02*
G37*
G36*
X2695Y7615D02*
X2625Y7545D01*
X2619Y7550D01*
X2600Y7567D01*
X2596Y7570D01*
X2593Y7572D01*
X2590Y7573D01*
X2587Y7574D01*
X2585Y7575D01*
X2654Y7655D01*
X2695Y7615D01*
D02*
G37*
G36*
X3509Y7471D02*
X3507Y7473D01*
X3501Y7474D01*
X3491Y7476D01*
X3459Y7478D01*
X3438Y7478D01*
X3281Y7471D01*
Y7689D01*
X3283Y7687D01*
X3289Y7686D01*
X3299Y7684D01*
X3331Y7682D01*
X3352Y7682D01*
X3509Y7689D01*
Y7471D01*
D02*
G37*
G36*
X5264Y7696D02*
X5270Y7695D01*
X5280Y7693D01*
X5312Y7692D01*
X5462Y7690D01*
Y7490D01*
X5262Y7483D01*
Y7697D01*
X5264Y7696D01*
D02*
G37*
G36*
X3080Y7640D02*
X3081Y7640D01*
X3094Y7643D01*
X3103Y7647D01*
X3109Y7651D01*
Y7509D01*
X3103Y7513D01*
X3094Y7517D01*
X3081Y7520D01*
X3080Y7520D01*
Y7480D01*
X3079Y7490D01*
X3076Y7498D01*
X3071Y7505D01*
X3064Y7512D01*
X3055Y7517D01*
X3044Y7522D01*
X3030Y7526D01*
X3026Y7526D01*
X3022Y7527D01*
X2931Y7530D01*
X2893Y7530D01*
Y7630D01*
X2931Y7630D01*
X3042Y7638D01*
X3044Y7638D01*
X3055Y7642D01*
X3064Y7648D01*
X3071Y7655D01*
X3076Y7662D01*
X3079Y7671D01*
X3080Y7680D01*
Y7640D01*
D02*
G37*
G36*
X2418Y7950D02*
X2418Y7942D01*
X2419Y7935D01*
X2420Y7927D01*
X2422Y7920D01*
X2424Y7913D01*
X2427Y7906D01*
X2430Y7900D01*
X2434Y7894D01*
X2438Y7888D01*
X2443Y7882D01*
X2343Y7884D01*
X2347Y7890D01*
X2352Y7896D01*
X2356Y7902D01*
X2359Y7908D01*
X2362Y7915D01*
X2364Y7921D01*
X2366Y7928D01*
X2367Y7936D01*
X2368Y7943D01*
X2368Y7951D01*
X2418Y7950D01*
D02*
G37*
G36*
X2615D02*
X2615Y7942D01*
X2616Y7935D01*
X2617Y7927D01*
X2619Y7920D01*
X2621Y7913D01*
X2624Y7906D01*
X2627Y7900D01*
X2631Y7894D01*
X2635Y7888D01*
X2639Y7882D01*
X2539Y7884D01*
X2544Y7890D01*
X2549Y7896D01*
X2553Y7902D01*
X2556Y7908D01*
X2559Y7915D01*
X2561Y7921D01*
X2563Y7928D01*
X2564Y7936D01*
X2565Y7943D01*
X2565Y7951D01*
X2615Y7950D01*
D02*
G37*
G36*
X3302Y7911D02*
X3297Y7905D01*
X3293Y7895D01*
X3290Y7881D01*
X3287Y7863D01*
X3284Y7841D01*
X3281Y7762D01*
X3281Y7689D01*
X3079D01*
X3079Y7691D01*
X3079Y7697D01*
X3079Y7755D01*
X3070Y7881D01*
X3067Y7895D01*
X3063Y7905D01*
X3058Y7911D01*
X3053Y7913D01*
X3307D01*
X3302Y7911D01*
D02*
G37*
G36*
X7189Y7481D02*
X7187Y7483D01*
X7181Y7484D01*
X7171Y7486D01*
X7139Y7488D01*
X7013Y7490D01*
X6821Y7481D01*
Y7699D01*
X6823Y7697D01*
X6829Y7696D01*
X6839Y7694D01*
X6871Y7692D01*
X6997Y7690D01*
X7189Y7699D01*
Y7481D01*
D02*
G37*
G36*
X725Y9172D02*
X732Y9084D01*
X736Y9060D01*
X741Y9039D01*
X747Y9020D01*
X754Y9004D01*
X762Y8991D01*
X771Y8981D01*
X629D01*
X638Y8991D01*
X646Y9004D01*
X653Y9020D01*
X659Y9039D01*
X664Y9060D01*
X668Y9084D01*
X673Y9140D01*
X675Y9172D01*
X675Y9207D01*
X725D01*
X725Y9172D01*
D02*
G37*
G36*
X3115Y11108D02*
X3111Y11107D01*
X3107Y11104D01*
X3104Y11101D01*
X3101Y11096D01*
X3099Y11090D01*
X3097Y11084D01*
X3096Y11076D01*
X3095Y11067D01*
X3095Y11057D01*
X3045D01*
X3045Y11067D01*
X3044Y11076D01*
X3043Y11084D01*
X3041Y11090D01*
X3039Y11096D01*
X3036Y11101D01*
X3033Y11104D01*
X3029Y11107D01*
X3025Y11108D01*
X3020Y11109D01*
X3120D01*
X3115Y11108D01*
D02*
G37*
G36*
X4405D02*
X4401Y11107D01*
X4397Y11104D01*
X4394Y11101D01*
X4391Y11096D01*
X4389Y11090D01*
X4387Y11084D01*
X4386Y11076D01*
X4385Y11067D01*
X4385Y11057D01*
X4335D01*
X4335Y11067D01*
X4334Y11076D01*
X4333Y11084D01*
X4331Y11090D01*
X4329Y11096D01*
X4326Y11101D01*
X4323Y11104D01*
X4319Y11107D01*
X4315Y11108D01*
X4310Y11109D01*
X4410D01*
X4405Y11108D01*
D02*
G37*
G36*
X545D02*
X541Y11107D01*
X537Y11104D01*
X534Y11101D01*
X531Y11096D01*
X529Y11090D01*
X527Y11084D01*
X526Y11076D01*
X525Y11067D01*
X525Y11057D01*
X475D01*
X475Y11067D01*
X474Y11076D01*
X473Y11084D01*
X471Y11090D01*
X469Y11096D01*
X466Y11101D01*
X463Y11104D01*
X459Y11107D01*
X455Y11108D01*
X450Y11109D01*
X550D01*
X545Y11108D01*
D02*
G37*
G36*
X1815D02*
X1811Y11107D01*
X1807Y11104D01*
X1804Y11101D01*
X1801Y11096D01*
X1799Y11090D01*
X1797Y11084D01*
X1796Y11076D01*
X1795Y11067D01*
X1795Y11057D01*
X1745D01*
X1745Y11067D01*
X1744Y11076D01*
X1743Y11084D01*
X1741Y11090D01*
X1739Y11096D01*
X1736Y11101D01*
X1733Y11104D01*
X1729Y11107D01*
X1725Y11108D01*
X1720Y11109D01*
X1820D01*
X1815Y11108D01*
D02*
G37*
G36*
X8275D02*
X8271Y11107D01*
X8267Y11104D01*
X8264Y11101D01*
X8261Y11096D01*
X8259Y11090D01*
X8257Y11084D01*
X8256Y11076D01*
X8255Y11067D01*
X8255Y11057D01*
X8205D01*
X8205Y11067D01*
X8204Y11076D01*
X8203Y11084D01*
X8201Y11090D01*
X8199Y11096D01*
X8196Y11101D01*
X8193Y11104D01*
X8189Y11107D01*
X8185Y11108D01*
X8180Y11109D01*
X8280D01*
X8275Y11108D01*
D02*
G37*
G36*
X9545D02*
X9541Y11107D01*
X9537Y11104D01*
X9534Y11101D01*
X9531Y11096D01*
X9529Y11090D01*
X9527Y11084D01*
X9526Y11076D01*
X9525Y11067D01*
X9525Y11057D01*
X9475D01*
X9475Y11067D01*
X9474Y11076D01*
X9473Y11084D01*
X9471Y11090D01*
X9469Y11096D01*
X9466Y11101D01*
X9463Y11104D01*
X9459Y11107D01*
X9455Y11108D01*
X9450Y11109D01*
X9550D01*
X9545Y11108D01*
D02*
G37*
G36*
X5695D02*
X5691Y11107D01*
X5687Y11104D01*
X5684Y11101D01*
X5681Y11096D01*
X5679Y11090D01*
X5677Y11084D01*
X5676Y11076D01*
X5675Y11067D01*
X5675Y11057D01*
X5625D01*
X5625Y11067D01*
X5624Y11076D01*
X5623Y11084D01*
X5621Y11090D01*
X5619Y11096D01*
X5616Y11101D01*
X5613Y11104D01*
X5609Y11107D01*
X5605Y11108D01*
X5600Y11109D01*
X5700D01*
X5695Y11108D01*
D02*
G37*
G36*
X6995D02*
X6991Y11107D01*
X6987Y11104D01*
X6984Y11101D01*
X6981Y11096D01*
X6979Y11090D01*
X6977Y11084D01*
X6976Y11076D01*
X6975Y11067D01*
X6975Y11057D01*
X6925D01*
X6925Y11067D01*
X6924Y11076D01*
X6923Y11084D01*
X6921Y11090D01*
X6919Y11096D01*
X6916Y11101D01*
X6913Y11104D01*
X6909Y11107D01*
X6905Y11108D01*
X6900Y11109D01*
X7000D01*
X6995Y11108D01*
D02*
G37*
G36*
X9526Y10514D02*
X9527Y10505D01*
X9530Y10496D01*
X9533Y10487D01*
X9538Y10478D01*
X9544Y10468D01*
X9550Y10458D01*
X9558Y10449D01*
X9567Y10439D01*
X9577Y10429D01*
X9423D01*
X9433Y10439D01*
X9450Y10458D01*
X9456Y10468D01*
X9462Y10478D01*
X9467Y10487D01*
X9470Y10496D01*
X9473Y10505D01*
X9474Y10514D01*
X9475Y10523D01*
X9525D01*
X9526Y10514D01*
D02*
G37*
G36*
X1796D02*
X1797Y10505D01*
X1800Y10496D01*
X1803Y10487D01*
X1808Y10478D01*
X1814Y10468D01*
X1820Y10458D01*
X1828Y10449D01*
X1837Y10439D01*
X1847Y10429D01*
X1693D01*
X1703Y10439D01*
X1720Y10458D01*
X1726Y10468D01*
X1732Y10478D01*
X1737Y10487D01*
X1740Y10496D01*
X1743Y10505D01*
X1744Y10514D01*
X1745Y10523D01*
X1795D01*
X1796Y10514D01*
D02*
G37*
G36*
X3096D02*
X3097Y10505D01*
X3100Y10496D01*
X3103Y10487D01*
X3108Y10478D01*
X3114Y10468D01*
X3120Y10458D01*
X3128Y10449D01*
X3137Y10439D01*
X3147Y10429D01*
X2993D01*
X3003Y10439D01*
X3020Y10458D01*
X3026Y10468D01*
X3032Y10478D01*
X3037Y10487D01*
X3040Y10496D01*
X3043Y10505D01*
X3044Y10514D01*
X3045Y10523D01*
X3095D01*
X3096Y10514D01*
D02*
G37*
G36*
X4936Y9507D02*
X4929Y9501D01*
X4923Y9491D01*
X4918Y9477D01*
X4913Y9459D01*
X4910Y9437D01*
X4907Y9411D01*
X4906Y9402D01*
X4910Y9353D01*
X4913Y9331D01*
X4918Y9313D01*
X4923Y9299D01*
X4929Y9289D01*
X4936Y9283D01*
X4944Y9281D01*
X4663D01*
X4670Y9283D01*
X4677Y9289D01*
X4683Y9299D01*
X4689Y9313D01*
X4693Y9331D01*
X4697Y9353D01*
X4699Y9379D01*
X4700Y9388D01*
X4697Y9437D01*
X4693Y9459D01*
X4689Y9477D01*
X4683Y9491D01*
X4677Y9501D01*
X4670Y9507D01*
X4663Y9509D01*
X4944D01*
X4936Y9507D01*
D02*
G37*
G36*
X725Y9933D02*
X726Y9925D01*
X727Y9917D01*
X729Y9910D01*
X731Y9905D01*
X734Y9900D01*
X737Y9896D01*
X741Y9894D01*
X745Y9892D01*
X750Y9892D01*
X650D01*
X655Y9892D01*
X659Y9894D01*
X663Y9896D01*
X666Y9900D01*
X669Y9905D01*
X671Y9910D01*
X673Y9917D01*
X674Y9925D01*
X675Y9933D01*
X675Y9943D01*
X725D01*
X725Y9933D01*
D02*
G37*
G36*
X6976Y10514D02*
X6977Y10505D01*
X6980Y10496D01*
X6983Y10487D01*
X6988Y10478D01*
X6994Y10468D01*
X7000Y10458D01*
X7008Y10449D01*
X7017Y10439D01*
X7027Y10429D01*
X6873D01*
X6883Y10439D01*
X6900Y10458D01*
X6906Y10468D01*
X6912Y10478D01*
X6917Y10487D01*
X6920Y10496D01*
X6923Y10505D01*
X6924Y10514D01*
X6925Y10523D01*
X6975D01*
X6976Y10514D01*
D02*
G37*
G36*
X8256D02*
X8257Y10505D01*
X8260Y10496D01*
X8263Y10487D01*
X8268Y10478D01*
X8274Y10468D01*
X8280Y10458D01*
X8288Y10449D01*
X8297Y10439D01*
X8307Y10429D01*
X8153D01*
X8163Y10439D01*
X8180Y10458D01*
X8186Y10468D01*
X8192Y10478D01*
X8197Y10487D01*
X8200Y10496D01*
X8203Y10505D01*
X8204Y10514D01*
X8205Y10523D01*
X8255D01*
X8256Y10514D01*
D02*
G37*
G36*
X4386D02*
X4387Y10505D01*
X4390Y10496D01*
X4393Y10487D01*
X4398Y10478D01*
X4404Y10468D01*
X4410Y10458D01*
X4418Y10449D01*
X4427Y10439D01*
X4437Y10429D01*
X4283D01*
X4293Y10439D01*
X4310Y10458D01*
X4316Y10468D01*
X4322Y10478D01*
X4327Y10487D01*
X4330Y10496D01*
X4333Y10505D01*
X4334Y10514D01*
X4335Y10523D01*
X4385D01*
X4386Y10514D01*
D02*
G37*
G36*
X5676D02*
X5677Y10505D01*
X5680Y10496D01*
X5683Y10487D01*
X5688Y10478D01*
X5694Y10468D01*
X5700Y10458D01*
X5708Y10449D01*
X5717Y10439D01*
X5727Y10429D01*
X5573D01*
X5583Y10439D01*
X5600Y10458D01*
X5606Y10468D01*
X5612Y10478D01*
X5617Y10487D01*
X5620Y10496D01*
X5623Y10505D01*
X5624Y10514D01*
X5625Y10523D01*
X5675D01*
X5676Y10514D01*
D02*
G37*
G36*
X8255Y6425D02*
X8256Y6416D01*
X8257Y6408D01*
X8259Y6402D01*
X8261Y6396D01*
X8264Y6392D01*
X8267Y6388D01*
X8271Y6385D01*
X8275Y6384D01*
X8280Y6383D01*
X8180D01*
X8185Y6384D01*
X8189Y6385D01*
X8193Y6388D01*
X8196Y6392D01*
X8199Y6396D01*
X8201Y6402D01*
X8203Y6408D01*
X8204Y6416D01*
X8205Y6425D01*
X8205Y6435D01*
X8255D01*
X8255Y6425D01*
D02*
G37*
G36*
X889Y6687D02*
X888Y6681D01*
X887Y6671D01*
X885Y6489D01*
X685D01*
X685Y6527D01*
X674Y6687D01*
X671Y6689D01*
X889D01*
X889Y6687D01*
D02*
G37*
G36*
X4959Y6603D02*
X4942Y6582D01*
X4936Y6572D01*
X4930Y6563D01*
X4925Y6553D01*
X4922Y6544D01*
X4919Y6535D01*
X4918Y6526D01*
X4917Y6517D01*
X4867Y6516D01*
X4867Y6525D01*
X4865Y6534D01*
X4862Y6543D01*
X4859Y6553D01*
X4854Y6562D01*
X4848Y6571D01*
X4841Y6581D01*
X4833Y6590D01*
X4824Y6600D01*
X4814Y6610D01*
X4968Y6613D01*
X4959Y6603D01*
D02*
G37*
G36*
X4685Y6366D02*
X4688Y6332D01*
X4689Y6327D01*
X4690Y6323D01*
X4691Y6320D01*
X4692Y6318D01*
X4628D01*
X4629Y6320D01*
X4630Y6323D01*
X4631Y6327D01*
X4632Y6332D01*
X4633Y6337D01*
X4634Y6350D01*
X4635Y6366D01*
X4635Y6375D01*
X4685D01*
X4685Y6366D01*
D02*
G37*
G36*
X4918Y6358D02*
X4919Y6349D01*
X4922Y6342D01*
X4925Y6335D01*
X4930Y6330D01*
X4935Y6325D01*
X4942Y6322D01*
X4942Y6322D01*
X4944Y6322D01*
X4947Y6324D01*
X4950Y6325D01*
Y6319D01*
X4958Y6318D01*
X4967Y6317D01*
X4950Y6306D01*
Y6267D01*
X5007D01*
X5006Y6264D01*
X5005Y6261D01*
X5004Y6258D01*
X5003Y6253D01*
X5002Y6248D01*
X5001Y6235D01*
X5000Y6219D01*
X5000Y6214D01*
X5000Y6209D01*
X5003Y6174D01*
X5004Y6170D01*
X5005Y6166D01*
X5006Y6163D01*
X5007Y6161D01*
X4943D01*
X4944Y6163D01*
X4945Y6166D01*
X4946Y6170D01*
X4947Y6174D01*
X4948Y6180D01*
X4949Y6193D01*
X4950Y6209D01*
X4950Y6214D01*
X4950Y6219D01*
X4947Y6253D01*
X4946Y6258D01*
X4945Y6261D01*
X4945Y6262D01*
X4944Y6262D01*
X4940Y6264D01*
X4936Y6265D01*
X4930Y6266D01*
X4917Y6267D01*
X4901Y6267D01*
X4892Y6267D01*
X4885Y6267D01*
X4860Y6265D01*
X4855Y6265D01*
X4851Y6264D01*
X4848Y6262D01*
X4845Y6261D01*
X4842Y6259D01*
Y6301D01*
X4817Y6317D01*
X4827Y6318D01*
X4835Y6319D01*
X4842Y6322D01*
Y6325D01*
X4845Y6324D01*
X4846Y6324D01*
X4849Y6325D01*
X4855Y6330D01*
X4859Y6335D01*
X4863Y6342D01*
X4865Y6349D01*
X4867Y6358D01*
X4867Y6367D01*
X4917D01*
X4918Y6358D01*
D02*
G37*
G36*
X2604Y6502D02*
X2610Y6497D01*
X2617Y6493D01*
X2625Y6490D01*
X2633Y6487D01*
X2642Y6484D01*
X2652Y6482D01*
X2662Y6481D01*
X2673Y6480D01*
X2684Y6480D01*
Y6380D01*
X2673Y6380D01*
X2652Y6378D01*
X2642Y6376D01*
X2633Y6373D01*
X2625Y6370D01*
X2617Y6367D01*
X2610Y6363D01*
X2604Y6358D01*
X2599Y6353D01*
Y6507D01*
X2604Y6502D01*
D02*
G37*
G36*
X8876Y6955D02*
X8878Y6951D01*
X8880Y6947D01*
X8884Y6944D01*
X8889Y6941D01*
X8894Y6939D01*
X8901Y6937D01*
X8909Y6936D01*
X8917Y6935D01*
X8927Y6935D01*
Y6885D01*
X8917Y6885D01*
X8909Y6884D01*
X8901Y6883D01*
X8894Y6881D01*
X8889Y6879D01*
X8884Y6876D01*
X8880Y6873D01*
X8878Y6869D01*
X8876Y6865D01*
X8876Y6860D01*
Y6960D01*
X8876Y6955D01*
D02*
G37*
G36*
X9274Y6860D02*
X9274Y6865D01*
X9272Y6869D01*
X9270Y6873D01*
X9266Y6876D01*
X9261Y6879D01*
X9256Y6881D01*
X9249Y6883D01*
X9241Y6884D01*
X9233Y6885D01*
X9223Y6885D01*
Y6935D01*
X9233Y6935D01*
X9241Y6936D01*
X9249Y6937D01*
X9256Y6939D01*
X9261Y6941D01*
X9266Y6944D01*
X9270Y6947D01*
X9272Y6951D01*
X9274Y6955D01*
X9274Y6960D01*
Y6860D01*
D02*
G37*
G36*
X7789Y7007D02*
X7808Y6990D01*
X7818Y6984D01*
X7828Y6978D01*
X7837Y6973D01*
X7846Y6970D01*
X7855Y6967D01*
X7864Y6966D01*
X7873Y6965D01*
Y6915D01*
X7864Y6914D01*
X7855Y6913D01*
X7846Y6910D01*
X7837Y6907D01*
X7828Y6902D01*
X7818Y6896D01*
X7808Y6890D01*
X7799Y6882D01*
X7789Y6873D01*
X7779Y6863D01*
Y7017D01*
X7789Y7007D01*
D02*
G37*
G36*
X2844Y6812D02*
X2850Y6807D01*
X2857Y6803D01*
X2865Y6800D01*
X2873Y6797D01*
X2882Y6794D01*
X2892Y6792D01*
X2902Y6791D01*
X2913Y6790D01*
X2924Y6790D01*
Y6690D01*
X2913Y6690D01*
X2892Y6688D01*
X2882Y6686D01*
X2873Y6683D01*
X2865Y6680D01*
X2857Y6677D01*
X2850Y6673D01*
X2844Y6668D01*
X2839Y6663D01*
Y6817D01*
X2844Y6812D01*
D02*
G37*
G36*
X4467Y6861D02*
X4450Y6842D01*
X4444Y6832D01*
X4438Y6822D01*
X4433Y6813D01*
X4430Y6804D01*
X4427Y6795D01*
X4426Y6786D01*
X4425Y6777D01*
X4375D01*
X4374Y6786D01*
X4373Y6795D01*
X4370Y6804D01*
X4367Y6813D01*
X4362Y6822D01*
X4356Y6832D01*
X4350Y6842D01*
X4342Y6851D01*
X4333Y6861D01*
X4323Y6871D01*
X4477D01*
X4467Y6861D01*
D02*
G37*
G36*
X5787D02*
X5770Y6842D01*
X5764Y6832D01*
X5758Y6822D01*
X5753Y6813D01*
X5750Y6804D01*
X5747Y6795D01*
X5746Y6786D01*
X5745Y6777D01*
X5695D01*
X5694Y6786D01*
X5693Y6795D01*
X5690Y6804D01*
X5687Y6813D01*
X5682Y6822D01*
X5676Y6832D01*
X5670Y6842D01*
X5662Y6851D01*
X5653Y6861D01*
X5643Y6871D01*
X5797D01*
X5787Y6861D01*
D02*
G37*
G36*
X5006Y6107D02*
X5005Y6104D01*
X5004Y6100D01*
X5003Y6096D01*
X5002Y6090D01*
X5001Y6077D01*
X5000Y6061D01*
X5000Y6056D01*
X5000Y6051D01*
X5003Y6017D01*
X5004Y6012D01*
X5005Y6008D01*
X5006Y6005D01*
X5007Y6003D01*
X4943D01*
X4944Y6005D01*
X4945Y6008D01*
X4946Y6012D01*
X4947Y6017D01*
X4948Y6022D01*
X4949Y6035D01*
X4950Y6051D01*
X4950Y6056D01*
X4950Y6061D01*
X4947Y6096D01*
X4946Y6100D01*
X4945Y6104D01*
X4944Y6107D01*
X4943Y6109D01*
X5007D01*
X5006Y6107D01*
D02*
G37*
G36*
X3190Y6235D02*
X3194Y6230D01*
X3200Y6226D01*
X3207Y6221D01*
X3214Y6217D01*
X3232Y6208D01*
X3242Y6204D01*
X3265Y6195D01*
X3256Y6091D01*
X3246Y6095D01*
X3236Y6098D01*
X3227Y6100D01*
X3218Y6101D01*
X3209Y6101D01*
X3201Y6100D01*
X3193Y6098D01*
X3185Y6095D01*
X3178Y6091D01*
X3171Y6086D01*
X3186Y6239D01*
X3190Y6235D01*
D02*
G37*
G36*
X4162Y6103D02*
X4160Y6104D01*
X4157Y6105D01*
X4153Y6106D01*
X4148Y6107D01*
X4143Y6108D01*
X4130Y6109D01*
X4114Y6110D01*
X4105Y6110D01*
Y6160D01*
X4114Y6160D01*
X4148Y6163D01*
X4153Y6164D01*
X4157Y6165D01*
X4160Y6166D01*
X4162Y6167D01*
Y6103D01*
D02*
G37*
G36*
X886Y6132D02*
X890Y6068D01*
X894Y6042D01*
X899Y6020D01*
X905Y6002D01*
X913Y5988D01*
X921Y5978D01*
X931Y5972D01*
X941Y5970D01*
X629D01*
X639Y5972D01*
X649Y5978D01*
X657Y5988D01*
X665Y6002D01*
X671Y6020D01*
X676Y6042D01*
X680Y6068D01*
X683Y6098D01*
X685Y6170D01*
X885D01*
X886Y6132D01*
D02*
G37*
G36*
X1516D02*
X1520Y6068D01*
X1524Y6042D01*
X1529Y6020D01*
X1535Y6002D01*
X1543Y5988D01*
X1551Y5978D01*
X1561Y5972D01*
X1571Y5970D01*
X1259D01*
X1269Y5972D01*
X1279Y5978D01*
X1287Y5988D01*
X1295Y6002D01*
X1301Y6020D01*
X1306Y6042D01*
X1310Y6068D01*
X1313Y6098D01*
X1315Y6170D01*
X1515D01*
X1516Y6132D01*
D02*
G37*
G36*
X4533Y6107D02*
X4532Y6104D01*
X4531Y6100D01*
X4530Y6096D01*
X4529Y6090D01*
X4528Y6077D01*
X4528Y6061D01*
X4528Y6056D01*
X4528Y6051D01*
X4530Y6017D01*
X4531Y6012D01*
X4532Y6008D01*
X4533Y6005D01*
X4535Y6003D01*
X4470D01*
X4472Y6005D01*
X4473Y6008D01*
X4474Y6012D01*
X4475Y6017D01*
X4476Y6022D01*
X4477Y6035D01*
X4477Y6051D01*
X4477Y6056D01*
X4477Y6061D01*
X4475Y6096D01*
X4474Y6100D01*
X4473Y6104D01*
X4472Y6107D01*
X4470Y6109D01*
X4535D01*
X4533Y6107D01*
D02*
G37*
G36*
Y6264D02*
X4532Y6261D01*
X4531Y6258D01*
X4530Y6253D01*
X4529Y6248D01*
X4528Y6235D01*
X4528Y6219D01*
X4528Y6214D01*
X4528Y6209D01*
X4530Y6174D01*
X4531Y6170D01*
X4532Y6166D01*
X4533Y6163D01*
X4535Y6161D01*
X4470D01*
X4472Y6163D01*
X4473Y6166D01*
X4474Y6170D01*
X4475Y6174D01*
X4476Y6180D01*
X4477Y6193D01*
X4477Y6209D01*
X4477Y6214D01*
X4477Y6219D01*
X4475Y6253D01*
X4474Y6258D01*
X4473Y6261D01*
X4472Y6264D01*
X4470Y6267D01*
X4535D01*
X4533Y6264D01*
D02*
G37*
G36*
X5318Y6323D02*
X5321Y6322D01*
X5325Y6321D01*
X5329Y6320D01*
X5335Y6319D01*
X5348Y6318D01*
X5364Y6318D01*
X5373Y6317D01*
Y6267D01*
X5364Y6267D01*
X5329Y6265D01*
X5325Y6264D01*
X5321Y6263D01*
X5318Y6262D01*
X5316Y6260D01*
Y6325D01*
X5318Y6323D01*
D02*
G37*
G36*
X4528Y6366D02*
X4530Y6332D01*
X4531Y6327D01*
X4532Y6323D01*
X4533Y6320D01*
X4535Y6318D01*
X4470D01*
X4472Y6320D01*
X4473Y6323D01*
X4474Y6327D01*
X4475Y6332D01*
X4476Y6337D01*
X4477Y6350D01*
X4477Y6366D01*
X4478Y6375D01*
X4528D01*
X4528Y6366D01*
D02*
G37*
G36*
X8775Y6189D02*
X8776Y6180D01*
X8777Y6173D01*
X8779Y6166D01*
X8781Y6160D01*
X8784Y6156D01*
X8787Y6152D01*
X8791Y6149D01*
X8795Y6148D01*
X8800Y6147D01*
X8700D01*
X8705Y6148D01*
X8709Y6149D01*
X8713Y6152D01*
X8716Y6156D01*
X8719Y6160D01*
X8721Y6166D01*
X8723Y6173D01*
X8724Y6180D01*
X8725Y6189D01*
X8725Y6199D01*
X8775D01*
X8775Y6189D01*
D02*
G37*
G36*
X9407Y6251D02*
X9390Y6232D01*
X9384Y6222D01*
X9378Y6212D01*
X9373Y6203D01*
X9370Y6194D01*
X9367Y6185D01*
X9366Y6179D01*
X9367Y6173D01*
X9369Y6166D01*
X9371Y6160D01*
X9374Y6156D01*
X9377Y6152D01*
X9381Y6149D01*
X9385Y6148D01*
X9390Y6147D01*
X9290D01*
X9295Y6148D01*
X9299Y6149D01*
X9303Y6152D01*
X9306Y6156D01*
X9309Y6160D01*
X9311Y6166D01*
X9313Y6173D01*
X9314Y6179D01*
X9313Y6185D01*
X9310Y6194D01*
X9307Y6203D01*
X9302Y6212D01*
X9296Y6222D01*
X9290Y6232D01*
X9282Y6241D01*
X9273Y6251D01*
X9263Y6261D01*
X9417D01*
X9407Y6251D01*
D02*
G37*
G36*
X4376Y6264D02*
X4375Y6261D01*
X4374Y6258D01*
X4373Y6253D01*
X4372Y6248D01*
X4371Y6235D01*
X4370Y6219D01*
X4370Y6214D01*
X4370Y6209D01*
X4373Y6174D01*
X4374Y6170D01*
X4375Y6166D01*
X4376Y6163D01*
X4377Y6161D01*
X4313D01*
X4314Y6163D01*
X4315Y6166D01*
X4316Y6170D01*
X4317Y6174D01*
X4318Y6180D01*
X4319Y6193D01*
X4320Y6209D01*
X4320Y6214D01*
X4320Y6219D01*
X4317Y6253D01*
X4316Y6258D01*
X4315Y6261D01*
X4314Y6264D01*
X4313Y6267D01*
X4377D01*
X4376Y6264D01*
D02*
G37*
G36*
X7615Y6870D02*
X7606Y6881D01*
X7597Y6890D01*
X7588Y6898D01*
X7579Y6905D01*
X7570Y6911D01*
X7561Y6916D01*
X7552Y6920D01*
X7543Y6923D01*
X7534Y6924D01*
X7525Y6925D01*
X7530Y6975D01*
X7538Y6975D01*
X7547Y6977D01*
X7556Y6979D01*
X7566Y6983D01*
X7575Y6987D01*
X7585Y6993D01*
X7596Y6999D01*
X7617Y7015D01*
X7629Y7024D01*
X7615Y6870D01*
D02*
G37*
G36*
X4733Y7483D02*
X4731Y7482D01*
X4725Y7482D01*
X4683Y7481D01*
X4533Y7480D01*
Y7680D01*
X4571Y7680D01*
X4725Y7691D01*
X4731Y7694D01*
X4733Y7697D01*
Y7483D01*
D02*
G37*
G36*
X889Y7117D02*
X888Y7111D01*
X887Y7101D01*
X886Y7031D01*
X889Y6891D01*
X671D01*
X674Y6893D01*
X676Y6899D01*
X678Y6909D01*
X680Y6923D01*
X683Y6963D01*
X683Y6982D01*
X674Y7117D01*
X671Y7119D01*
X889D01*
X889Y7117D01*
D02*
G37*
G36*
X8795Y7372D02*
X8796Y7364D01*
X8797Y7356D01*
X8799Y7349D01*
X8801Y7344D01*
X8804Y7339D01*
X8807Y7335D01*
X8811Y7333D01*
X8815Y7331D01*
X8820Y7331D01*
X8720D01*
X8725Y7331D01*
X8729Y7333D01*
X8733Y7335D01*
X8736Y7339D01*
X8739Y7344D01*
X8741Y7349D01*
X8743Y7356D01*
X8744Y7364D01*
X8745Y7372D01*
X8745Y7382D01*
X8795D01*
X8795Y7372D01*
D02*
G37*
G36*
X7849Y7449D02*
X7847Y7457D01*
X7841Y7464D01*
X7831Y7470D01*
X7817Y7475D01*
X7799Y7480D01*
X7777Y7484D01*
X7751Y7486D01*
X7687Y7490D01*
X7649Y7490D01*
Y7690D01*
X7687Y7690D01*
X7777Y7696D01*
X7799Y7700D01*
X7817Y7705D01*
X7831Y7710D01*
X7841Y7716D01*
X7847Y7723D01*
X7849Y7731D01*
Y7449D01*
D02*
G37*
G36*
X3713Y7687D02*
X3719Y7686D01*
X3729Y7684D01*
X3761Y7682D01*
X3911Y7680D01*
Y7480D01*
X3711Y7471D01*
Y7689D01*
X3713Y7687D01*
D02*
G37*
G36*
X5999Y7449D02*
X5997Y7457D01*
X5991Y7464D01*
X5981Y7470D01*
X5967Y7475D01*
X5949Y7480D01*
X5927Y7484D01*
X5901Y7486D01*
X5837Y7490D01*
X5799Y7490D01*
Y7690D01*
X5837Y7690D01*
X5927Y7696D01*
X5949Y7700D01*
X5967Y7705D01*
X5981Y7710D01*
X5991Y7716D01*
X5997Y7723D01*
X5999Y7731D01*
Y7449D01*
D02*
G37*
G36*
X7393Y7697D02*
X7399Y7696D01*
X7409Y7694D01*
X7441Y7692D01*
X7591Y7690D01*
Y7490D01*
X7391Y7481D01*
Y7699D01*
X7393Y7697D01*
D02*
G37*
G36*
X5809Y7017D02*
X5828Y7000D01*
X5838Y6994D01*
X5848Y6988D01*
X5857Y6983D01*
X5866Y6980D01*
X5875Y6977D01*
X5884Y6976D01*
X5893Y6975D01*
Y6925D01*
X5884Y6924D01*
X5875Y6923D01*
X5866Y6920D01*
X5857Y6917D01*
X5848Y6912D01*
X5838Y6906D01*
X5828Y6900D01*
X5819Y6892D01*
X5809Y6883D01*
X5799Y6873D01*
Y7027D01*
X5809Y7017D01*
D02*
G37*
G36*
X6283Y7723D02*
X6289Y7716D01*
X6299Y7710D01*
X6313Y7705D01*
X6331Y7700D01*
X6353Y7696D01*
X6379Y7694D01*
X6436Y7691D01*
X6619Y7699D01*
Y7481D01*
X6617Y7483D01*
X6611Y7484D01*
X6601Y7486D01*
X6569Y7488D01*
X6444Y7490D01*
X6443Y7490D01*
X6353Y7484D01*
X6331Y7480D01*
X6313Y7475D01*
X6299Y7470D01*
X6289Y7464D01*
X6283Y7457D01*
X6281Y7449D01*
Y7731D01*
X6283Y7723D01*
D02*
G37*
%LPC*%
G36*
X5001Y5373D02*
X4949D01*
Y5322D01*
X5001D01*
Y5373D01*
D02*
G37*
G36*
X7370Y1884D02*
X7338Y1878D01*
X7269Y1831D01*
X7222Y1762D01*
X7216Y1730D01*
X7370D01*
Y1884D01*
D02*
G37*
G36*
X6870Y1874D02*
Y1720D01*
X7024D01*
X7018Y1752D01*
X6971Y1821D01*
X6902Y1868D01*
X6870Y1874D01*
D02*
G37*
G36*
X7624Y1630D02*
X7470D01*
Y1476D01*
X7502Y1482D01*
X7571Y1529D01*
X7618Y1598D01*
X7624Y1630D01*
D02*
G37*
G36*
X7370D02*
X7216D01*
X7222Y1598D01*
X7269Y1529D01*
X7338Y1482D01*
X7370Y1476D01*
Y1630D01*
D02*
G37*
G36*
X7024Y1620D02*
X6870D01*
Y1466D01*
X6902Y1472D01*
X6971Y1519D01*
X7018Y1588D01*
X7024Y1620D01*
D02*
G37*
G36*
X6770Y1874D02*
X6738Y1868D01*
X6669Y1821D01*
X6622Y1752D01*
X6616Y1720D01*
X6770D01*
Y1874D01*
D02*
G37*
G36*
X7470Y1884D02*
Y1730D01*
X7624D01*
X7618Y1762D01*
X7571Y1831D01*
X7502Y1878D01*
X7470Y1884D01*
D02*
G37*
G36*
X7320Y2544D02*
Y2390D01*
X7474D01*
X7468Y2422D01*
X7421Y2491D01*
X7352Y2538D01*
X7320Y2544D01*
D02*
G37*
G36*
X7220D02*
X7188Y2538D01*
X7119Y2491D01*
X7072Y2422D01*
X7066Y2390D01*
X7220D01*
Y2544D01*
D02*
G37*
G36*
X9410Y2680D02*
X9256D01*
X9262Y2648D01*
X9309Y2579D01*
X9378Y2532D01*
X9410Y2526D01*
Y2680D01*
D02*
G37*
G36*
X8694Y2570D02*
X8540D01*
Y2416D01*
X8572Y2422D01*
X8641Y2469D01*
X8688Y2538D01*
X8694Y2570D01*
D02*
G37*
G36*
X8440D02*
X8286D01*
X8292Y2538D01*
X8339Y2469D01*
X8408Y2422D01*
X8440Y2416D01*
Y2570D01*
D02*
G37*
G36*
X6729Y2120D02*
X6537D01*
Y1928D01*
X6729D01*
Y2120D01*
D02*
G37*
G36*
X7474Y2290D02*
X7320D01*
Y2136D01*
X7352Y2142D01*
X7421Y2189D01*
X7468Y2258D01*
X7474Y2290D01*
D02*
G37*
G36*
X7220D02*
X7066D01*
X7072Y2258D01*
X7119Y2189D01*
X7188Y2142D01*
X7220Y2136D01*
Y2290D01*
D02*
G37*
G36*
X6770Y1620D02*
X6616D01*
X6622Y1588D01*
X6669Y1519D01*
X6738Y1472D01*
X6770Y1466D01*
Y1620D01*
D02*
G37*
G36*
X9370Y4144D02*
X9338Y4138D01*
X9269Y4091D01*
X9222Y4022D01*
X9216Y3990D01*
X9370D01*
Y4144D01*
D02*
G37*
G36*
X9470D02*
Y3990D01*
X9624D01*
X9618Y4022D01*
X9571Y4091D01*
X9502Y4138D01*
X9470Y4144D01*
D02*
G37*
G36*
X7280Y4164D02*
X7248Y4158D01*
X7179Y4111D01*
X7132Y4042D01*
X7126Y4010D01*
X7280D01*
Y4164D01*
D02*
G37*
G36*
X7380D02*
Y4010D01*
X7534D01*
X7528Y4042D01*
X7481Y4111D01*
X7412Y4158D01*
X7380Y4164D01*
D02*
G37*
G36*
X7950Y4154D02*
X7918Y4148D01*
X7849Y4101D01*
X7802Y4032D01*
X7796Y4000D01*
X7950D01*
Y4154D01*
D02*
G37*
G36*
X8050D02*
Y4000D01*
X8204D01*
X8198Y4032D01*
X8151Y4101D01*
X8082Y4148D01*
X8050Y4154D01*
D02*
G37*
G36*
X7534Y3910D02*
X7380D01*
Y3756D01*
X7412Y3762D01*
X7481Y3809D01*
X7528Y3878D01*
X7534Y3910D01*
D02*
G37*
G36*
X8760Y3824D02*
Y3670D01*
X8914D01*
X8908Y3702D01*
X8861Y3771D01*
X8792Y3818D01*
X8760Y3824D01*
D02*
G37*
G36*
X9370Y3890D02*
X9216D01*
X9222Y3858D01*
X9269Y3789D01*
X9338Y3742D01*
X9370Y3736D01*
Y3890D01*
D02*
G37*
G36*
X8660Y3824D02*
X8628Y3818D01*
X8559Y3771D01*
X8512Y3702D01*
X8506Y3670D01*
X8660D01*
Y3824D01*
D02*
G37*
G36*
X8204Y3900D02*
X8050D01*
Y3746D01*
X8082Y3752D01*
X8151Y3799D01*
X8198Y3868D01*
X8204Y3900D01*
D02*
G37*
G36*
X7280Y3910D02*
X7126D01*
X7132Y3878D01*
X7179Y3809D01*
X7248Y3762D01*
X7280Y3756D01*
Y3910D01*
D02*
G37*
G36*
X9624Y3890D02*
X9470D01*
Y3736D01*
X9502Y3742D01*
X9571Y3789D01*
X9618Y3858D01*
X9624Y3890D01*
D02*
G37*
G36*
X7950Y3900D02*
X7796D01*
X7802Y3868D01*
X7849Y3799D01*
X7918Y3752D01*
X7950Y3746D01*
Y3900D01*
D02*
G37*
G36*
X8850Y4674D02*
Y4520D01*
X9004D01*
X8998Y4552D01*
X8951Y4621D01*
X8882Y4668D01*
X8850Y4674D01*
D02*
G37*
G36*
X9380Y4704D02*
X9348Y4698D01*
X9279Y4651D01*
X9232Y4582D01*
X9226Y4550D01*
X9380D01*
Y4704D01*
D02*
G37*
G36*
X8134Y4490D02*
X7980D01*
Y4336D01*
X8012Y4342D01*
X8081Y4389D01*
X8128Y4458D01*
X8134Y4490D01*
D02*
G37*
G36*
X8750Y4674D02*
X8718Y4668D01*
X8649Y4621D01*
X8602Y4552D01*
X8596Y4520D01*
X8750D01*
Y4674D01*
D02*
G37*
G36*
X7980Y4744D02*
Y4590D01*
X8134D01*
X8128Y4622D01*
X8081Y4691D01*
X8012Y4738D01*
X7980Y4744D01*
D02*
G37*
G36*
X9480Y4704D02*
Y4550D01*
X9634D01*
X9628Y4582D01*
X9581Y4651D01*
X9512Y4698D01*
X9480Y4704D01*
D02*
G37*
G36*
X7880Y4744D02*
X7848Y4738D01*
X7779Y4691D01*
X7732Y4622D01*
X7726Y4590D01*
X7880D01*
Y4744D01*
D02*
G37*
G36*
Y4490D02*
X7726D01*
X7732Y4458D01*
X7779Y4389D01*
X7848Y4342D01*
X7880Y4336D01*
Y4490D01*
D02*
G37*
G36*
X6670Y4350D02*
X6516D01*
X6522Y4318D01*
X6569Y4249D01*
X6638Y4202D01*
X6670Y4196D01*
Y4350D01*
D02*
G37*
G36*
X6924D02*
X6770D01*
Y4196D01*
X6802Y4202D01*
X6871Y4249D01*
X6918Y4318D01*
X6924Y4350D01*
D02*
G37*
G36*
X9380Y4450D02*
X9226D01*
X9232Y4418D01*
X9279Y4349D01*
X9348Y4302D01*
X9380Y4296D01*
Y4450D01*
D02*
G37*
G36*
X9634D02*
X9480D01*
Y4296D01*
X9512Y4302D01*
X9581Y4349D01*
X9628Y4418D01*
X9634Y4450D01*
D02*
G37*
G36*
X8750Y4420D02*
X8596D01*
X8602Y4388D01*
X8649Y4319D01*
X8718Y4272D01*
X8750Y4266D01*
Y4420D01*
D02*
G37*
G36*
X9004D02*
X8850D01*
Y4266D01*
X8882Y4272D01*
X8951Y4319D01*
X8998Y4388D01*
X9004Y4420D01*
D02*
G37*
G36*
X8154Y2950D02*
X8000D01*
Y2796D01*
X8032Y2802D01*
X8101Y2849D01*
X8148Y2918D01*
X8154Y2950D01*
D02*
G37*
G36*
X9510Y2934D02*
Y2780D01*
X9664D01*
X9658Y2812D01*
X9611Y2881D01*
X9542Y2928D01*
X9510Y2934D01*
D02*
G37*
G36*
X7900Y2950D02*
X7746D01*
X7752Y2918D01*
X7799Y2849D01*
X7868Y2802D01*
X7900Y2796D01*
Y2950D01*
D02*
G37*
G36*
X7190Y3094D02*
Y2940D01*
X7344D01*
X7338Y2972D01*
X7291Y3041D01*
X7222Y3088D01*
X7190Y3094D01*
D02*
G37*
G36*
X7900Y3204D02*
X7868Y3198D01*
X7799Y3151D01*
X7752Y3082D01*
X7746Y3050D01*
X7900D01*
Y3204D01*
D02*
G37*
G36*
X7090Y3094D02*
X7058Y3088D01*
X6989Y3041D01*
X6942Y2972D01*
X6936Y2940D01*
X7090D01*
Y3094D01*
D02*
G37*
G36*
X9410Y2934D02*
X9378Y2928D01*
X9309Y2881D01*
X9262Y2812D01*
X9256Y2780D01*
X9410D01*
Y2934D01*
D02*
G37*
G36*
X8440Y2824D02*
X8408Y2818D01*
X8339Y2771D01*
X8292Y2702D01*
X8286Y2670D01*
X8440D01*
Y2824D01*
D02*
G37*
G36*
X9664Y2680D02*
X9510D01*
Y2526D01*
X9542Y2532D01*
X9611Y2579D01*
X9658Y2648D01*
X9664Y2680D01*
D02*
G37*
G36*
X7344Y2840D02*
X7190D01*
Y2686D01*
X7222Y2692D01*
X7291Y2739D01*
X7338Y2808D01*
X7344Y2840D01*
D02*
G37*
G36*
X6553Y2916D02*
Y2720D01*
X6746D01*
Y2916D01*
X6553D01*
D02*
G37*
G36*
X8540Y2824D02*
Y2670D01*
X8694D01*
X8688Y2702D01*
X8641Y2771D01*
X8572Y2818D01*
X8540Y2824D01*
D02*
G37*
G36*
X7090Y2840D02*
X6936D01*
X6942Y2808D01*
X6989Y2739D01*
X7058Y2692D01*
X7090Y2686D01*
Y2840D01*
D02*
G37*
G36*
X8660Y3570D02*
X8506D01*
X8512Y3538D01*
X8559Y3469D01*
X8628Y3422D01*
X8660Y3416D01*
Y3570D01*
D02*
G37*
G36*
X8914D02*
X8760D01*
Y3416D01*
X8792Y3422D01*
X8861Y3469D01*
X8908Y3538D01*
X8914Y3570D01*
D02*
G37*
G36*
X9400Y3564D02*
X9368Y3558D01*
X9299Y3511D01*
X9252Y3442D01*
X9246Y3410D01*
X9400D01*
Y3564D01*
D02*
G37*
G36*
X9500D02*
Y3410D01*
X9654D01*
X9648Y3442D01*
X9601Y3511D01*
X9532Y3558D01*
X9500Y3564D01*
D02*
G37*
G36*
X7480Y3654D02*
X7448Y3648D01*
X7379Y3601D01*
X7332Y3532D01*
X7326Y3500D01*
X7480D01*
Y3654D01*
D02*
G37*
G36*
X7580D02*
Y3500D01*
X7734D01*
X7728Y3532D01*
X7681Y3601D01*
X7612Y3648D01*
X7580Y3654D01*
D02*
G37*
G36*
X6810Y3604D02*
X6778Y3598D01*
X6709Y3551D01*
X6662Y3482D01*
X6656Y3450D01*
X6810D01*
Y3604D01*
D02*
G37*
G36*
X6910D02*
Y3450D01*
X7064D01*
X7058Y3482D01*
X7011Y3551D01*
X6942Y3598D01*
X6910Y3604D01*
D02*
G37*
G36*
X9654Y3310D02*
X9500D01*
Y3156D01*
X9532Y3162D01*
X9601Y3209D01*
X9648Y3278D01*
X9654Y3310D01*
D02*
G37*
G36*
X6810Y3350D02*
X6656D01*
X6662Y3318D01*
X6709Y3249D01*
X6778Y3202D01*
X6810Y3196D01*
Y3350D01*
D02*
G37*
G36*
X8000Y3204D02*
Y3050D01*
X8154D01*
X8148Y3082D01*
X8101Y3151D01*
X8032Y3198D01*
X8000Y3204D01*
D02*
G37*
G36*
X9400Y3310D02*
X9246D01*
X9252Y3278D01*
X9299Y3209D01*
X9368Y3162D01*
X9400Y3156D01*
Y3310D01*
D02*
G37*
G36*
X7734Y3400D02*
X7580D01*
Y3246D01*
X7612Y3252D01*
X7681Y3299D01*
X7728Y3368D01*
X7734Y3400D01*
D02*
G37*
G36*
X7064Y3350D02*
X6910D01*
Y3196D01*
X6942Y3202D01*
X7011Y3249D01*
X7058Y3318D01*
X7064Y3350D01*
D02*
G37*
G36*
X7480Y3400D02*
X7326D01*
X7332Y3368D01*
X7379Y3299D01*
X7448Y3252D01*
X7480Y3246D01*
Y3400D01*
D02*
G37*
G36*
X5400Y1714D02*
X5368Y1708D01*
X5299Y1661D01*
X5252Y1592D01*
X5246Y1560D01*
X5400D01*
Y1714D01*
D02*
G37*
G36*
X6504Y320D02*
X6350D01*
Y166D01*
X6382Y172D01*
X6451Y219D01*
X6498Y288D01*
X6504Y320D01*
D02*
G37*
G36*
X5500Y1714D02*
Y1560D01*
X5654D01*
X5648Y1592D01*
X5601Y1661D01*
X5532Y1708D01*
X5500Y1714D01*
D02*
G37*
G36*
X5530Y2344D02*
Y2190D01*
X5684D01*
X5678Y2222D01*
X5631Y2291D01*
X5562Y2338D01*
X5530Y2344D01*
D02*
G37*
G36*
X5684Y2090D02*
X5530D01*
Y1936D01*
X5562Y1942D01*
X5631Y1989D01*
X5678Y2058D01*
X5684Y2090D01*
D02*
G37*
G36*
X5430D02*
X5276D01*
X5282Y2058D01*
X5329Y1989D01*
X5398Y1942D01*
X5430Y1936D01*
Y2090D01*
D02*
G37*
G36*
Y2344D02*
X5398Y2338D01*
X5329Y2291D01*
X5282Y2222D01*
X5276Y2190D01*
X5430D01*
Y2344D01*
D02*
G37*
G36*
X6980Y574D02*
Y420D01*
X7134D01*
X7128Y452D01*
X7081Y521D01*
X7012Y568D01*
X6980Y574D01*
D02*
G37*
G36*
X7490Y824D02*
Y670D01*
X7644D01*
X7638Y702D01*
X7591Y771D01*
X7522Y818D01*
X7490Y824D01*
D02*
G37*
G36*
X7390D02*
X7358Y818D01*
X7289Y771D01*
X7242Y702D01*
X7236Y670D01*
X7390D01*
Y824D01*
D02*
G37*
G36*
X5390Y860D02*
X5236D01*
X5242Y828D01*
X5289Y759D01*
X5358Y712D01*
X5390Y706D01*
Y860D01*
D02*
G37*
G36*
X6038Y958D02*
Y804D01*
X6192D01*
X6186Y836D01*
X6140Y906D01*
X6070Y952D01*
X6038Y958D01*
D02*
G37*
G36*
X5938D02*
X5906Y952D01*
X5837Y906D01*
X5790Y836D01*
X5784Y804D01*
X5938D01*
Y958D01*
D02*
G37*
G36*
X5644Y860D02*
X5490D01*
Y706D01*
X5522Y712D01*
X5591Y759D01*
X5638Y828D01*
X5644Y860D01*
D02*
G37*
G36*
X5638Y620D02*
Y466D01*
X5793D01*
X5786Y498D01*
X5740Y567D01*
X5670Y614D01*
X5638Y620D01*
D02*
G37*
G36*
X5938Y704D02*
X5784D01*
X5790Y672D01*
X5837Y603D01*
X5906Y556D01*
X5938Y550D01*
Y704D01*
D02*
G37*
G36*
X6192D02*
X6038D01*
Y550D01*
X6070Y556D01*
X6140Y603D01*
X6186Y672D01*
X6192Y704D01*
D02*
G37*
G36*
X5538Y620D02*
X5507Y614D01*
X5437Y567D01*
X5391Y498D01*
X5384Y466D01*
X5538D01*
Y620D01*
D02*
G37*
G36*
X7024Y780D02*
X6870D01*
Y626D01*
X6902Y632D01*
X6971Y679D01*
X7018Y748D01*
X7024Y780D01*
D02*
G37*
G36*
X6770D02*
X6616D01*
X6622Y748D01*
X6669Y679D01*
X6738Y632D01*
X6770Y626D01*
Y780D01*
D02*
G37*
G36*
X6250Y320D02*
X6096D01*
X6102Y288D01*
X6149Y219D01*
X6218Y172D01*
X6250Y166D01*
Y320D01*
D02*
G37*
G36*
X6880Y574D02*
X6848Y568D01*
X6779Y521D01*
X6732Y452D01*
X6726Y420D01*
X6880D01*
Y574D01*
D02*
G37*
G36*
X5538Y366D02*
X5384D01*
X5391Y334D01*
X5437Y264D01*
X5507Y218D01*
X5538Y212D01*
Y366D01*
D02*
G37*
G36*
X5793D02*
X5638D01*
Y212D01*
X5670Y218D01*
X5740Y264D01*
X5786Y334D01*
X5793Y366D01*
D02*
G37*
G36*
X5490Y1114D02*
Y960D01*
X5644D01*
X5638Y992D01*
X5591Y1061D01*
X5522Y1108D01*
X5490Y1114D01*
D02*
G37*
G36*
X7134Y320D02*
X6980D01*
Y166D01*
X7012Y172D01*
X7081Y219D01*
X7128Y288D01*
X7134Y320D01*
D02*
G37*
G36*
X5654Y1460D02*
X5500D01*
Y1306D01*
X5532Y1312D01*
X5601Y1359D01*
X5648Y1428D01*
X5654Y1460D01*
D02*
G37*
G36*
X5400D02*
X5246D01*
X5252Y1428D01*
X5299Y1359D01*
X5368Y1312D01*
X5400Y1306D01*
Y1460D01*
D02*
G37*
G36*
X6880Y320D02*
X6726D01*
X6732Y288D01*
X6779Y219D01*
X6848Y172D01*
X6880Y166D01*
Y320D01*
D02*
G37*
G36*
X7644Y570D02*
X7490D01*
Y416D01*
X7522Y422D01*
X7591Y469D01*
X7638Y538D01*
X7644Y570D01*
D02*
G37*
G36*
X6250Y574D02*
X6218Y568D01*
X6149Y521D01*
X6102Y452D01*
X6096Y420D01*
X6250D01*
Y574D01*
D02*
G37*
G36*
X6350D02*
Y420D01*
X6504D01*
X6498Y452D01*
X6451Y521D01*
X6382Y568D01*
X6350Y574D01*
D02*
G37*
G36*
X6770Y1034D02*
X6738Y1028D01*
X6669Y981D01*
X6622Y912D01*
X6616Y880D01*
X6770D01*
Y1034D01*
D02*
G37*
G36*
X5390Y1114D02*
X5358Y1108D01*
X5289Y1061D01*
X5242Y992D01*
X5236Y960D01*
X5390D01*
Y1114D01*
D02*
G37*
G36*
X7390Y570D02*
X7236D01*
X7242Y538D01*
X7289Y469D01*
X7358Y422D01*
X7390Y416D01*
Y570D01*
D02*
G37*
G36*
X6870Y1034D02*
Y880D01*
X7024D01*
X7018Y912D01*
X6971Y981D01*
X6902Y1028D01*
X6870Y1034D01*
D02*
G37*
G36*
X5440Y4080D02*
X5286D01*
X5292Y4048D01*
X5339Y3979D01*
X5408Y3932D01*
X5440Y3926D01*
Y4080D01*
D02*
G37*
G36*
X5694D02*
X5540D01*
Y3926D01*
X5572Y3932D01*
X5641Y3979D01*
X5688Y4048D01*
X5694Y4080D01*
D02*
G37*
G36*
X5520Y3684D02*
Y3530D01*
X5674D01*
X5668Y3562D01*
X5621Y3631D01*
X5552Y3678D01*
X5520Y3684D01*
D02*
G37*
G36*
X5440Y4334D02*
X5408Y4328D01*
X5339Y4281D01*
X5292Y4212D01*
X5286Y4180D01*
X5440D01*
Y4334D01*
D02*
G37*
G36*
X5540D02*
Y4180D01*
X5694D01*
X5688Y4212D01*
X5641Y4281D01*
X5572Y4328D01*
X5540Y4334D01*
D02*
G37*
G36*
X5420Y3684D02*
X5388Y3678D01*
X5319Y3631D01*
X5272Y3562D01*
X5266Y3530D01*
X5420D01*
Y3684D01*
D02*
G37*
G36*
X5430Y2954D02*
X5398Y2948D01*
X5329Y2901D01*
X5282Y2832D01*
X5276Y2800D01*
X5430D01*
Y2954D01*
D02*
G37*
G36*
X5530D02*
Y2800D01*
X5684D01*
X5678Y2832D01*
X5631Y2901D01*
X5562Y2948D01*
X5530Y2954D01*
D02*
G37*
G36*
X5684Y2700D02*
X5530D01*
Y2546D01*
X5562Y2552D01*
X5631Y2599D01*
X5678Y2668D01*
X5684Y2700D01*
D02*
G37*
G36*
X5430D02*
X5276D01*
X5282Y2668D01*
X5329Y2599D01*
X5398Y2552D01*
X5430Y2546D01*
Y2700D01*
D02*
G37*
G36*
X5674Y3430D02*
X5520D01*
Y3276D01*
X5552Y3282D01*
X5621Y3329D01*
X5668Y3398D01*
X5674Y3430D01*
D02*
G37*
G36*
X5420D02*
X5266D01*
X5272Y3398D01*
X5319Y3329D01*
X5388Y3282D01*
X5420Y3276D01*
Y3430D01*
D02*
G37*
%LPD*%
D10*
X8522Y6938D02*
G03*
X8590Y6910I68J68D01*
G01*
X8387Y7073D02*
G03*
X7960Y7250I-427J-427D01*
G01*
X5572Y6292D02*
G03*
X5720Y6440I0J148D01*
G01*
X1580Y7320D02*
G03*
X1970Y6930I390J0D01*
G01*
X1580Y7320D02*
G03*
X1430Y7470I-150J0D01*
G01*
X410D02*
G03*
X250Y7310I0J-160D01*
G01*
X290Y3550D02*
G03*
X250Y3453I97J-97D01*
G01*
X387Y3590D02*
G03*
X290Y3550I0J-137D01*
G01*
X250Y3727D02*
G03*
X387Y3590I137J0D01*
G01*
X500Y10509D02*
G03*
X570Y10340I239J0D01*
G01*
X700Y10026D02*
G03*
X570Y10340I-444J0D01*
G01*
X6302Y8580D02*
G03*
X5940Y8430I0J-512D01*
G01*
D02*
G03*
X5880Y8285I145J-145D01*
G01*
X5774Y7904D02*
G03*
X5880Y8160I-256J256D01*
G01*
X5639Y7840D02*
G03*
X5760Y7890I0J171D01*
G01*
X4800Y7980D02*
G03*
X4940Y7840I140J0D01*
G01*
X8440Y8260D02*
G03*
X8596Y7884I531J0D01*
G01*
X8440Y8430D02*
G03*
X8290Y8580I-150J0D01*
G01*
X8770Y7583D02*
G03*
X8680Y7800I-307J0D01*
G01*
X8750Y6340D02*
G03*
X8609Y6681I-483J0D01*
G01*
X5890Y5630D02*
G03*
X5697Y5710I-193J-193D01*
G01*
X6035Y5485D02*
G03*
X6240Y5400I205J205D01*
G01*
X6833Y5187D02*
G03*
X6970Y5130I137J137D01*
G01*
X6710Y5310D02*
G03*
X6493Y5400I-217J-217D01*
G01*
X6720Y5020D02*
G03*
X6470Y5270I-250J0D01*
G01*
X5277Y5833D02*
G03*
X5573Y5710I296J296D01*
G01*
X5620Y5300D02*
G03*
X5692Y5270I72J72D01*
G01*
X5620Y5300D02*
G03*
X5505Y5348I-115J-115D01*
G01*
X3810Y5870D02*
G03*
X3930Y5820I120J120D01*
G01*
X2234Y5190D02*
G03*
X2210Y5180I0J-34D01*
G01*
X4212Y4600D02*
G03*
X4260Y4620I0J68D01*
G01*
D02*
G03*
X4320Y4765I-145J145D01*
G01*
X4379Y5073D02*
G03*
X4320Y4931I142J-142D01*
G01*
X4155Y3455D02*
G03*
X4143Y3427I28J-28D01*
G01*
X4830Y4524D02*
G03*
X4720Y4790I-376J0D01*
G01*
X4660Y4935D02*
G03*
X4720Y4790I205J0D01*
G01*
X250Y782D02*
G03*
X280Y710I102J0D01*
G01*
D02*
G03*
X391Y664I111J111D01*
G01*
X3943Y6167D02*
G03*
X4020Y6135I77J77D01*
G01*
X3325Y6785D02*
G03*
X2975Y6930I-350J-350D01*
G01*
X4830Y7250D02*
G03*
X4660Y7080I0J-170D01*
G01*
X5320Y5080D02*
G03*
X5380Y5020I60J0D01*
G01*
X5320Y5150D02*
G03*
X5280Y5190I-40J0D01*
G01*
X7222Y6293D02*
G03*
X7240Y6300I0J26D01*
G01*
X3871Y5999D02*
G03*
X3923Y5977I51J51D01*
G01*
X1957Y920D02*
G03*
X1980Y930I0J33D01*
G01*
X4400Y6679D02*
G03*
X4470Y6510I239J0D01*
G01*
X4503Y6431D02*
G03*
X4470Y6510I-111J0D01*
G01*
X8230Y6770D02*
G03*
X8060Y6940I-170J0D01*
G01*
X4360Y7350D02*
G03*
X4188Y7178I0J-172D01*
G01*
X8450Y7350D02*
G03*
X8530Y7430I0J80D01*
G01*
X8214Y7076D02*
G03*
X8060Y7140I-154J-154D01*
G01*
X5402D02*
G03*
X5132Y6870I0J-270D01*
G01*
X150Y782D02*
G03*
X209Y639I202J0D01*
G01*
D02*
G03*
X391Y564I182J182D01*
G01*
X545Y250D02*
G03*
X125Y395I-235J0D01*
G01*
X509Y125D02*
G03*
X545Y250I-199J125D01*
G01*
X351Y781D02*
G03*
X391Y764I40J40D01*
G01*
X1022Y1905D02*
G03*
X1054Y1868I344J275D01*
G01*
X585Y2187D02*
G03*
X672Y1971I312J0D01*
G01*
X1204Y1719D02*
G03*
X1289Y1634I166J81D01*
G01*
X1275Y2173D02*
G03*
X1302Y2116I90J7D01*
G01*
X193Y3590D02*
G03*
X150Y3453I193J-137D01*
G01*
Y3727D02*
G03*
X193Y3590I237J0D01*
G01*
X350Y3727D02*
G03*
X387Y3690I37J0D01*
G01*
X813Y3177D02*
G03*
X585Y2940I-53J-177D01*
G01*
X850Y4435D02*
G03*
X850Y4085I-60J-175D01*
G01*
X1226Y4066D02*
G03*
X1181Y4085I-45J-45D01*
G01*
X1245Y4021D02*
G03*
X1226Y4066I-64J0D01*
G01*
X1474Y4314D02*
G03*
X1181Y4435I-293J-293D01*
G01*
X1290Y5521D02*
G03*
X1372Y5332I279J8D01*
G01*
D02*
G03*
X1414Y5298I161J161D01*
G01*
X1848Y1338D02*
G03*
X1679Y1739I-579J-8D01*
G01*
X2305Y1308D02*
G03*
X1856Y1310I-225J-68D01*
G01*
X1496Y1360D02*
G03*
X1432Y1491I-227J-31D01*
G01*
X1536Y1881D02*
G03*
X1451Y1966I-166J-81D01*
G01*
X2305Y1590D02*
G03*
X2102Y2081I-694J0D01*
G01*
X2655Y1590D02*
G03*
X2349Y2328I-1044J0D01*
G01*
X2101Y2081D02*
G03*
X1778Y2215I-324J-324D01*
G01*
X3765Y400D02*
G03*
X3765Y400I-235J0D01*
G01*
X3795Y1080D02*
G03*
X3795Y1080I-235J0D01*
G01*
X1515Y4265D02*
G03*
X1474Y4314I-334J-244D01*
G01*
X1595Y4021D02*
G03*
X1591Y4077I-414J0D01*
G01*
X1985Y4250D02*
G03*
X1515Y4265I-235J0D01*
G01*
X1591Y4077D02*
G03*
X1985Y4250I159J173D01*
G01*
X2349Y2328D02*
G03*
X1778Y2565I-571J-571D01*
G01*
X2395Y2810D02*
G03*
X2395Y2810I-235J0D01*
G01*
X3171Y2500D02*
G03*
X3549Y2500I189J140D01*
G01*
X1956Y4916D02*
G03*
X2062Y4960I0J150D01*
G01*
X1956Y4916D02*
G03*
X2062Y4960I0J150D01*
G01*
X2120Y5018D02*
G03*
X2346Y5055I90J162D01*
G01*
X2892Y5062D02*
G03*
X2966Y5000I372J372D01*
G01*
X3091Y5407D02*
G03*
X3178Y5345I221J221D01*
G01*
X3368Y5565D02*
G03*
X3178Y5345I-8J-185D01*
G01*
X960Y6407D02*
G03*
X975Y6480I-170J73D01*
G01*
X608Y6516D02*
G03*
X610Y6437I182J-36D01*
G01*
X975Y6480D02*
G03*
X962Y6548I-185J0D01*
G01*
X1226Y6563D02*
G03*
X1240Y6507I184J17D01*
G01*
X1595Y6580D02*
G03*
X1315Y6739I-185J0D01*
G01*
X1590Y6537D02*
G03*
X1595Y6580I-180J43D01*
G01*
X410Y7370D02*
G03*
X350Y7310I0J-60D01*
G01*
X410Y7570D02*
G03*
X150Y7310I0J-260D01*
G01*
X800Y10026D02*
G03*
X641Y10411I-544J0D01*
G01*
X600Y10509D02*
G03*
X641Y10411I139J0D01*
G01*
X1480Y7320D02*
G03*
X1430Y7370I-50J0D01*
G01*
X1480Y7320D02*
G03*
X1970Y6830I490J0D01*
G01*
X1680Y7320D02*
G03*
X1970Y7030I290J0D01*
G01*
X1680Y7320D02*
G03*
X1430Y7570I-250J0D01*
G01*
X1955Y10350D02*
G03*
X1906Y10475I-185J0D01*
G01*
X1634D02*
G03*
X1955Y10350I136J-125D01*
G01*
X2065Y6470D02*
G03*
X2065Y6470I-235J0D01*
G01*
X2565Y6610D02*
G03*
X2644Y6293I-45J-180D01*
G01*
X2281Y7927D02*
G03*
X2261Y7782I111J-89D01*
G01*
D02*
G03*
X2532Y7511I130J-141D01*
G01*
X2298Y8328D02*
G03*
X2293Y8297I95J-31D01*
G01*
X2305Y8454D02*
G03*
X2298Y8402I193J-52D01*
G01*
X2543Y6830D02*
G03*
X2565Y6610I217J-90D01*
G01*
X3091Y5407D02*
G03*
X2830Y5515I-261J-261D01*
G01*
X2963Y6046D02*
G03*
X3069Y5705I-93J-216D01*
G01*
X2974Y6305D02*
G03*
X2963Y6046I126J-135D01*
G01*
X3396Y6856D02*
G03*
X2975Y7030I-420J-420D01*
G01*
X3262Y5671D02*
G03*
X3180Y5705I-82J-82D01*
G01*
X2579Y7485D02*
G03*
X2660Y7455I81J95D01*
G01*
X2579Y7485D02*
G03*
X2660Y7455I81J95D01*
G01*
X2255Y8400D02*
G03*
X2255Y8400I-235J0D01*
G01*
X2635Y10030D02*
G03*
X2635Y10030I-235J0D01*
G01*
X2602Y9095D02*
G03*
X2392Y9085I-97J-175D01*
G01*
X3255Y10350D02*
G03*
X3206Y10475I-185J0D01*
G01*
X2934D02*
G03*
X3255Y10350I136J-125D01*
G01*
X3885Y10070D02*
G03*
X3885Y10070I-235J0D01*
G01*
X4715Y390D02*
G03*
X4715Y390I-235J0D01*
G01*
X3974Y2500D02*
G03*
X4366Y2500I196J130D01*
G01*
X4088Y6352D02*
G03*
X4086Y6235I100J-59D01*
G01*
X4745Y1913D02*
G03*
X4407Y1809I-185J0D01*
G01*
X4712Y1808D02*
G03*
X4745Y1913I-152J106D01*
G01*
X4792Y6457D02*
G03*
X4760Y6449I25J-164D01*
G01*
X4210Y7405D02*
G03*
X4088Y7178I150J-227D01*
G01*
X4386Y6454D02*
G03*
X4288Y6449I-41J-161D01*
G01*
X4760Y6494D02*
G03*
X4792Y6476I130J196D01*
G01*
X4300Y6679D02*
G03*
X4386Y6454I339J0D01*
G01*
X5033Y6877D02*
G03*
X4760Y6886I-143J-187D01*
G01*
X4677Y7811D02*
G03*
X4685Y7870I-227J59D01*
G01*
X4615Y8038D02*
G03*
X4245Y7755I-165J-168D01*
G01*
X4700Y7970D02*
G03*
X4770Y7811I240J10D01*
G01*
X4685Y7870D02*
G03*
X4644Y8003I-235J0D01*
G01*
X5032Y6449D02*
G03*
X4992Y6458I-57J-156D01*
G01*
Y6478D02*
G03*
X5032Y6503I-102J212D01*
G01*
X4830Y7150D02*
G03*
X4760Y7080I0J-70D01*
G01*
X5161Y7150D02*
G03*
X5033Y6877I242J-280D01*
G01*
X7754Y6763D02*
G03*
X7667Y6547I146J-184D01*
G01*
X7563Y6816D02*
G03*
X7754Y6763I137J124D01*
G01*
X8164Y5000D02*
G03*
X8316Y5094I-122J368D01*
G01*
D02*
G03*
X8380Y5248I-154J154D01*
G01*
X8382Y5494D02*
G03*
X8415Y5600I-152J106D01*
G01*
D02*
G03*
X8383Y5704I-185J0D01*
G01*
X8600Y5331D02*
G03*
X8569Y5000I150J-181D01*
G01*
X8985Y5150D02*
G03*
X8900Y5331I-235J0D01*
G01*
X8931Y5000D02*
G03*
X8985Y5150I-181J150D01*
G01*
X9575Y5420D02*
G03*
X9559Y5505I-235J0D01*
G01*
X9121D02*
G03*
X9575Y5420I219J-85D01*
G01*
X9485Y6225D02*
G03*
X9525Y6340I-145J115D01*
G01*
X8130Y6627D02*
G03*
X7822Y6801I-230J-48D01*
G01*
X8130Y6770D02*
G03*
X8060Y6840I-70J0D01*
G01*
X8330Y6770D02*
G03*
X8325Y6824I-270J0D01*
G01*
X8650Y6340D02*
G03*
X8538Y6610I-383J0D01*
G01*
X8850Y6340D02*
G03*
X8703Y6727I-583J0D01*
G01*
X8524Y7815D02*
G03*
X8430Y7474I6J-185D01*
G01*
X8340Y8260D02*
G03*
X8524Y7815I631J0D01*
G01*
X8870Y7583D02*
G03*
X8800Y7811I-407J0D01*
G01*
X9525Y6340D02*
G03*
X9195Y6225I-185J0D01*
G01*
X9613Y7358D02*
G03*
X9875Y7435I77J222D01*
G01*
X9646Y7811D02*
G03*
X9489Y7458I44J-231D01*
G01*
X9875Y7725D02*
G03*
X9735Y7811I-185J-145D01*
G01*
X4644Y8003D02*
G03*
X4615Y8038I-194J-133D01*
G01*
X4911Y7953D02*
G03*
X4940Y7940I29J27D01*
G01*
X3870Y9095D02*
G03*
X4105Y9330I0J235D01*
G01*
D02*
G03*
X3870Y9095I-235J0D01*
G01*
X5639Y7940D02*
G03*
X5689Y7961I0J71D01*
G01*
X5703Y7975D02*
G03*
X5780Y8160I-185J185D01*
G01*
X6445Y8175D02*
G03*
X6493Y8115I205J115D01*
G01*
X5836Y8462D02*
G03*
X5780Y8285I248J-177D01*
G01*
X6015Y8690D02*
G03*
X5836Y8462I-235J0D01*
G01*
X6302Y8680D02*
G03*
X5996Y8598I0J-612D01*
G01*
X5996Y8598D02*
G03*
X6015Y8690I-216J92D01*
G01*
X4224Y10475D02*
G03*
X4545Y10350I136J-125D01*
G01*
D02*
G03*
X4496Y10475I-185J0D01*
G01*
X5245Y10230D02*
G03*
X5245Y10230I-235J0D01*
G01*
X5514Y10475D02*
G03*
X5835Y10350I136J-125D01*
G01*
D02*
G03*
X5786Y10475I-185J0D01*
G01*
X6817Y8124D02*
G03*
X6885Y8290I-167J166D01*
G01*
D02*
G03*
X6788Y8480I-235J0D01*
G01*
X7517Y8039D02*
G03*
X7723Y8039I103J211D01*
G01*
X7572Y8480D02*
G03*
X7421Y8124I48J-230D01*
G01*
X7005Y9070D02*
G03*
X7005Y9070I-235J0D01*
G01*
X7655Y9880D02*
G03*
X7655Y9880I-235J0D01*
G01*
X8099Y8250D02*
G03*
X7910Y8375I-189J-80D01*
G01*
X7819D02*
G03*
X7668Y8480I-199J-125D01*
G01*
X8540Y8260D02*
G03*
X8584Y8069I431J0D01*
G01*
X8340Y8430D02*
G03*
X8290Y8480I-50J0D01*
G01*
X8540Y8430D02*
G03*
X8290Y8680I-250J0D01*
G01*
X8205Y9020D02*
G03*
X8205Y9020I-235J0D01*
G01*
X7135Y10350D02*
G03*
X7086Y10475I-185J0D01*
G01*
X6555Y10290D02*
G03*
X6555Y10290I-235J0D01*
G01*
X6814Y10475D02*
G03*
X7135Y10350I136J-125D01*
G01*
X8094Y10475D02*
G03*
X8415Y10350I136J-125D01*
G01*
D02*
G03*
X8366Y10475I-185J0D01*
G01*
X9400Y10563D02*
G03*
X9735Y10350I100J-213D01*
G01*
D02*
G03*
X9600Y10563I-235J0D01*
G01*
X8590Y6910D02*
X8770D01*
X4830Y7250D02*
X7960D01*
X8387Y7073D02*
X8522Y6938D01*
X5720Y6950D02*
X7690D01*
X5720Y6440D02*
Y6950D01*
X4890Y6690D02*
Y6738D01*
X4892Y6740D01*
X4400Y6679D02*
Y6950D01*
X7690D02*
X7700Y6940D01*
X1970Y6930D02*
X2975D01*
X410Y7470D02*
X1430D01*
X250Y3727D02*
Y7310D01*
X387Y3590D02*
X1105D01*
X500Y10509D02*
Y11500D01*
X700Y8910D02*
Y10026D01*
X6302Y8580D02*
X8290D01*
X5880Y8160D02*
Y8285D01*
X5760Y7890D02*
X5774Y7904D01*
X4940Y7840D02*
X5639D01*
X4800Y7980D02*
Y8180D01*
X8530Y7430D02*
Y7630D01*
X8440Y8260D02*
Y8430D01*
X8770Y7225D02*
Y7583D01*
X8596Y7884D02*
X8680Y7800D01*
X9340Y6040D02*
Y6340D01*
X8750Y6040D02*
Y6340D01*
X6970Y5130D02*
X7540D01*
X5890Y5630D02*
X6035Y5485D01*
X6710Y5310D02*
X6833Y5187D01*
X6240Y5400D02*
X6493D01*
X6720Y4400D02*
Y5020D01*
X5692Y5270D02*
X6470D01*
X5573Y5710D02*
X5697D01*
X5290Y5348D02*
X5505D01*
X5290Y5505D02*
X5708D01*
X4975Y6135D02*
Y6292D01*
Y5977D02*
Y6135D01*
Y5820D02*
Y5977D01*
X8238Y1248D02*
X8240Y1250D01*
X2498Y8402D02*
X2530Y8434D01*
X4975Y4845D02*
X5210Y4610D01*
X4188Y5977D02*
X4345Y6135D01*
X5132Y6135D02*
X5295Y5973D01*
X5132Y5977D02*
X5277Y5833D01*
X4503Y5505D02*
Y5663D01*
Y5820D02*
Y5977D01*
Y6135D02*
Y6292D01*
X4975Y5505D02*
Y5663D01*
Y5348D02*
X5132D01*
X9340Y5420D02*
Y5740D01*
X4975Y5348D02*
Y5505D01*
X4345Y5820D02*
X4503D01*
X4345Y5348D02*
X4503D01*
Y5977D02*
Y6135D01*
Y5663D02*
Y5820D01*
Y5348D02*
Y5505D01*
X4975Y5663D02*
Y5820D01*
X9500Y10350D02*
Y11490D01*
X8223Y11500D02*
X8230Y11493D01*
Y10350D02*
Y11493D01*
X6936Y11500D02*
X6950Y11486D01*
Y10350D02*
Y11486D01*
X5649Y11500D02*
X5650Y11499D01*
Y10350D02*
Y11499D01*
X4360Y11499D02*
X4361Y11500D01*
X4360Y10350D02*
Y11499D01*
X3070Y11496D02*
X3074Y11500D01*
X3070Y10350D02*
Y11496D01*
X1770Y11483D02*
X1787Y11500D01*
X1770Y10350D02*
Y11483D01*
X8770Y6910D02*
X9380D01*
X4338Y5505D02*
X4345D01*
X1306Y664D02*
X1673D01*
X1260Y710D02*
X1306Y664D01*
X1260Y710D02*
Y920D01*
X847D02*
X1260D01*
X4345Y6135D02*
Y6292D01*
X4975Y5505D02*
X5132D01*
X5290Y5663D01*
X4817Y5190D02*
Y5348D01*
X5132D02*
X5290D01*
X4817D02*
X4975D01*
X4660D02*
X4817D01*
X4830Y7580D02*
X4840Y7590D01*
X3392Y5348D02*
X3412D01*
X3910D02*
X4188D01*
X780Y6790D02*
X785Y6785D01*
X2590Y7838D02*
Y8310D01*
X2393Y7838D02*
Y8297D01*
X3360Y5380D02*
X3392Y5348D01*
X4163Y5680D02*
X4338Y5505D01*
X3920Y5680D02*
X4163D01*
X3930Y5820D02*
X4188D01*
X3263Y5033D02*
X4188D01*
X3313Y5190D02*
X4188D01*
X4503Y4523D02*
Y5033D01*
X4495Y5190D02*
X4503D01*
X4120Y4600D02*
X4212D01*
X4320Y4765D02*
Y4931D01*
X4379Y5073D02*
X4495Y5190D01*
X4155Y3455D02*
X4155Y3455D01*
X4830Y4500D02*
Y4524D01*
X4660Y4935D02*
Y5190D01*
X250Y782D02*
Y3453D01*
X391Y664D02*
X847D01*
X4020Y6135D02*
X4188D01*
X3325Y6785D02*
X3943Y6167D01*
X4975Y4845D02*
Y5033D01*
Y5190D02*
Y5348D01*
X4817Y6292D02*
X4892D01*
X4975D01*
X4660D02*
Y7080D01*
X5320Y5080D02*
Y5150D01*
X5132Y5190D02*
X5280D01*
X5380Y5020D02*
X5600D01*
X6990Y6293D02*
Y6580D01*
Y5510D02*
Y5859D01*
Y5860D01*
X5295Y5973D02*
X5755D01*
X5290Y6135D02*
X5675D01*
X7540Y5130D02*
Y5130D01*
X2966Y664D02*
X3000Y630D01*
X1673Y664D02*
X2966D01*
X3697Y5505D02*
X4188D01*
X3923Y5977D02*
X4188D01*
X4892Y6292D02*
Y6740D01*
X9500Y11490D02*
X9510Y11500D01*
X1673Y920D02*
X1957D01*
X4503Y6292D02*
Y6431D01*
X5290Y6292D02*
X5572D01*
X8230Y6277D02*
Y6770D01*
X7700Y6940D02*
X8060D01*
X4188Y6292D02*
Y7178D01*
X4360Y7350D02*
X8450D01*
X8214Y7076D02*
X8609Y6681D01*
X5132Y6292D02*
Y6870D01*
X5402Y7140D02*
X8060D01*
X125Y562D02*
X220Y467D01*
X125Y713D02*
X154Y742D01*
X125Y501D02*
X238Y614D01*
X125Y925D02*
X150Y950D01*
X125Y774D02*
X153Y746D01*
X125Y1350D02*
X150Y1375D01*
X125Y1562D02*
X150Y1587D01*
X125Y1411D02*
X150Y1386D01*
X125Y987D02*
X150Y962D01*
X125Y1199D02*
X150Y1174D01*
X125Y1138D02*
X150Y1163D01*
X327Y572D02*
X774Y125D01*
X321Y485D02*
X400Y564D01*
X350Y1150D02*
X672Y1472D01*
X350Y1610D02*
X650Y1310D01*
X350Y1363D02*
X672Y1684D01*
X350Y974D02*
X560Y764D01*
X350Y938D02*
X634Y1222D01*
X350Y1186D02*
X584Y952D01*
X350Y1398D02*
X634Y1114D01*
X125Y1986D02*
X150Y2011D01*
X125Y2198D02*
X150Y2223D01*
X125Y2047D02*
X150Y2022D01*
X125Y1623D02*
X150Y1598D01*
X125Y1835D02*
X150Y1810D01*
X125Y1774D02*
X150Y1799D01*
X125Y2684D02*
X150Y2659D01*
X125Y3108D02*
X150Y3083D01*
X125Y2835D02*
X150Y2860D01*
X125Y2410D02*
X150Y2435D01*
X125Y2259D02*
X150Y2234D01*
X125Y2622D02*
X150Y2647D01*
X125Y2471D02*
X150Y2446D01*
X350Y1999D02*
X585Y2234D01*
X350Y2459D02*
X585Y2224D01*
X350Y2211D02*
X585Y2446D01*
X350Y1575D02*
X672Y1896D01*
X350Y1787D02*
X615Y2052D01*
X350Y2034D02*
X672Y1713D01*
X350Y2635D02*
X585Y2870D01*
X125Y3047D02*
X150Y3072D01*
X125Y2896D02*
X150Y2871D01*
X350Y2883D02*
X585Y2648D01*
X350Y2423D02*
X585Y2658D01*
X350Y3095D02*
X585Y2860D01*
X350Y2847D02*
X608Y3105D01*
X470Y422D02*
X612Y564D01*
X470Y422D02*
X612Y564D01*
X391D02*
X634D01*
X527Y160D02*
X562Y125D01*
X634Y530D02*
Y564D01*
X388Y764D02*
X584Y960D01*
X391Y764D02*
X584D01*
Y1104D01*
X634D02*
Y1310D01*
X584Y1104D02*
X634D01*
X810Y125D02*
X1165Y480D01*
X543Y282D02*
X790Y530D01*
X597Y125D02*
X952Y480D01*
X1056D02*
X1411Y125D01*
X938Y480D02*
Y530D01*
X1022Y125D02*
X1377Y480D01*
X547Y564D02*
X987Y125D01*
X634Y530D02*
X938D01*
X794D02*
X1199Y125D01*
X672Y1310D02*
Y1971D01*
X634Y1310D02*
X672D01*
X350Y1822D02*
X672Y1501D01*
X1022Y1610D02*
X1167Y1755D01*
X1022Y1360D02*
Y1905D01*
Y1822D02*
X1061Y1861D01*
X350Y2246D02*
X672Y1925D01*
X350Y2671D02*
X585Y2436D01*
Y2187D02*
Y2940D01*
X813Y3177D02*
X919Y3181D01*
Y3183D02*
X987D01*
X919Y3181D02*
X987Y3183D01*
X1022Y1575D02*
X1237Y1360D01*
X1022Y1398D02*
X1269Y1645D01*
X1196Y1360D02*
X1379Y1543D01*
X1408Y1360D02*
X1476Y1428D01*
X1289Y1634D02*
X1431Y1491D01*
X1408Y1360D02*
X1476Y1428D01*
X1022Y1787D02*
X1449Y1360D01*
X1054Y1868D02*
X1204Y1719D01*
X997Y3183D02*
X1234D01*
X1302Y2116D02*
X1451Y1966D01*
X1309Y2109D02*
X1406Y2207D01*
X125Y3259D02*
X150Y3284D01*
X125Y3320D02*
X150Y3295D01*
X125Y3471D02*
X155Y3501D01*
X150Y782D02*
Y3453D01*
X125Y3532D02*
X155Y3502D01*
X125Y395D02*
Y7851D01*
Y3744D02*
X150Y3719D01*
X125Y3683D02*
X151Y3709D01*
X150Y3727D02*
Y7310D01*
X350Y3727D02*
Y7310D01*
Y782D02*
Y3453D01*
Y3272D02*
X568Y3490D01*
X350Y3307D02*
X588Y3069D01*
X350Y3060D02*
X780Y3490D01*
X380Y3489D02*
X696Y3174D01*
X387Y3490D02*
X922D01*
X350Y3731D02*
X391Y3690D01*
X350Y3944D02*
X604Y3690D01*
X350Y4156D02*
X816Y3690D01*
X387D02*
X922D01*
X358Y3704D02*
X737Y4083D01*
X350Y4368D02*
X945Y3773D01*
X125Y4169D02*
X150Y4144D01*
X125Y4381D02*
X150Y4356D01*
X125Y4319D02*
X150Y4344D01*
X125Y3895D02*
X150Y3920D01*
X125Y4107D02*
X150Y4132D01*
X125Y3956D02*
X150Y3931D01*
X125Y5017D02*
X150Y4992D01*
X125Y5229D02*
X150Y5204D01*
X125Y5168D02*
X150Y5193D01*
X125Y4593D02*
X150Y4568D01*
X125Y4532D02*
X150Y4557D01*
X125Y4805D02*
X150Y4780D01*
X125Y4744D02*
X150Y4769D01*
X350Y4120D02*
X1013Y4784D01*
X350Y4792D02*
X714Y4428D01*
X350Y4332D02*
X801Y4784D01*
X350Y3908D02*
X623Y4181D01*
X350Y4544D02*
X589Y4784D01*
X350Y4580D02*
X614Y4316D01*
X350Y4757D02*
X503Y4909D01*
X125Y4956D02*
X150Y4981D01*
X350Y5004D02*
X503Y4852D01*
X350Y5216D02*
X503Y5064D01*
X350Y4969D02*
X503Y5121D01*
X350Y5428D02*
X503Y5276D01*
X350Y5181D02*
X503Y5333D01*
X591Y3490D02*
X901Y3180D01*
X655Y3152D02*
X922Y3419D01*
X895Y3180D02*
X1121Y3407D01*
X922D02*
Y3490D01*
X804D02*
X1110Y3183D01*
X556Y3690D02*
X951Y4085D01*
X768Y3690D02*
X1163Y4085D01*
X922Y3690D02*
Y3773D01*
X846Y4084D02*
X1157Y3773D01*
X850Y4085D02*
X1181D01*
X1110Y3183D02*
X1242Y3315D01*
X922Y3407D02*
X1237D01*
X1099D02*
X1243Y3262D01*
X1241Y3183D02*
X1243Y3236D01*
X1239Y3407D02*
X1243Y3285D01*
X1243Y3236D02*
X1243Y3285D01*
X922Y3773D02*
X1237D01*
X1057Y4085D02*
X1244Y3898D01*
X1064Y3773D02*
X1245Y3955D01*
X1242Y3773D02*
X1244Y3898D01*
X1245Y3905D02*
Y4021D01*
X571Y4784D02*
X919Y4435D01*
X503Y4852D02*
X571Y4784D01*
X503D02*
X1068D01*
X783D02*
X1131Y4435D01*
X1013Y4784D02*
X1068Y4838D01*
X850Y4435D02*
X1181D01*
X503Y4784D02*
Y5348D01*
X1068Y4784D02*
Y5348D01*
X1182Y4834D02*
Y5298D01*
X995Y4784D02*
X1418Y4360D01*
X1068Y4838D02*
X1182Y4953D01*
X877Y4435D02*
X1275Y4834D01*
X1068Y5050D02*
X1182Y5165D01*
X1068Y5135D02*
X1182Y5020D01*
X1068Y5347D02*
X1182Y5232D01*
X1068Y5262D02*
X1293Y5488D01*
X1018Y5609D02*
X1329Y5298D01*
X1316D02*
X1361Y5343D01*
X1182Y5298D02*
X1414D01*
X1268Y480D02*
X1623Y125D01*
X938Y480D02*
X1582D01*
X1234Y125D02*
X1589Y480D01*
X1692D02*
X2047Y125D01*
X1446D02*
X1801Y480D01*
X1480Y480D02*
X1835Y125D01*
X1411Y480D02*
X1582D01*
X1936D01*
X1658Y125D02*
X2097Y564D01*
X1936Y480D02*
Y564D01*
X2082Y125D02*
X2362Y405D01*
X1904Y480D02*
X2259Y125D01*
X509D02*
X5000D01*
X2403Y405D02*
X2684Y125D01*
X2294D02*
X2575Y405D01*
X2253D02*
X2707D01*
X1870Y125D02*
X2253Y507D01*
X1936Y564D02*
X2253D01*
Y405D02*
Y564D01*
X2032D02*
X2471Y125D01*
X2305Y1308D02*
Y1590D01*
X1022Y1360D02*
X1496D01*
X1276Y2169D02*
X1989Y1456D01*
X1845Y1387D02*
X1876Y1357D01*
X1536Y1881D02*
X1679Y1739D01*
X1525Y1901D02*
X1835Y2211D01*
X1286Y2207D02*
X1523D01*
X1415Y2003D02*
X1622Y2210D01*
X1533Y2207D02*
X1601D01*
X1533D02*
X1601Y2209D01*
X1727Y2214D01*
X1733Y2215D02*
X1778D01*
X1806Y1546D02*
X2207Y1946D01*
X1729Y1681D02*
X2115Y2067D01*
X1729Y1681D02*
X2115Y2067D01*
X1847Y1374D02*
X2272Y1800D01*
X2149Y1465D02*
X2304Y1620D01*
X2272Y1375D02*
X2305Y1408D01*
X1450Y2207D02*
X2305Y1352D01*
X1627Y1791D02*
X1996Y2160D01*
X1658Y2211D02*
X2305Y1564D01*
X1877Y2204D02*
X2268Y1813D01*
X2507Y125D02*
X2787Y405D01*
X2707Y526D02*
X2773Y460D01*
X2616Y405D02*
X2896Y125D01*
X2719D02*
X2999Y405D01*
X2773Y460D02*
X2828Y405D01*
X3108Y125D01*
X2707Y405D02*
Y564D01*
X2773D01*
X2707Y538D02*
X2734Y564D01*
X2773Y405D02*
Y564D01*
X3040Y405D02*
X3320Y125D01*
X2931D02*
X3211Y405D01*
X2773D02*
X3227D01*
X3143Y125D02*
X3318Y300D01*
X3355Y125D02*
X3422Y191D01*
X3177Y1116D02*
X4169Y125D01*
X3227Y430D02*
X3299Y358D01*
X3227Y421D02*
X3331Y525D01*
X3227Y405D02*
Y876D01*
Y642D02*
X3336Y533D01*
X3405Y599D02*
X3690Y884D01*
X2698Y1106D02*
X2734Y1106D01*
X2682Y1108D02*
X2742Y1107D01*
X2823Y1112D01*
X3206Y876D02*
X3227Y854D01*
X2823Y1125D02*
X2897D01*
X3177Y904D02*
X3206Y876D01*
X2654Y1640D02*
X3169Y1125D01*
X2655Y1256D02*
Y1590D01*
Y1426D02*
X2957Y1125D01*
X2657Y1213D02*
X2761Y1108D01*
X3177Y876D02*
Y1125D01*
X2656Y1249D02*
X2657Y1125D01*
X2900D02*
X3177D01*
Y876D02*
X3227D01*
Y854D02*
X3458Y624D01*
X3227Y634D02*
X3461Y867D01*
X3227Y846D02*
X3352Y970D01*
X2657Y1124D02*
X4000Y2467D01*
X2643Y1747D02*
X3308Y2411D01*
X2609Y1897D02*
X3341Y1165D01*
X3177Y1008D02*
X3346Y1176D01*
X3373Y2405D02*
X4065Y1713D01*
X2870Y1125D02*
X4142Y2397D01*
X1596Y2697D02*
X1728Y2566D01*
X1596Y2698D02*
X1597Y2730D01*
X1596Y2698D02*
X1599Y2573D01*
X1601Y2568D02*
X1725Y2566D01*
X1597Y2730D02*
X1598Y2817D01*
X1599Y2872D01*
X1599Y3183D02*
X1601Y3120D01*
X1597Y3299D02*
X1598Y3407D01*
X1597Y3299D02*
X1599Y3183D01*
X1601Y2817D02*
Y2891D01*
Y3120D02*
Y3183D01*
Y2894D02*
Y3106D01*
Y2905D02*
X1962Y2544D01*
X1597Y3333D02*
X1975Y2955D01*
X1598Y2611D02*
X2500Y3512D01*
X1765Y2565D02*
X1937Y2737D01*
X1732Y2565D02*
X1778D01*
X1601Y3117D02*
X1926Y2792D01*
X1601Y2825D02*
X2500Y3725D01*
X1598Y3247D02*
X2500Y4149D01*
X1595Y3971D02*
X2500Y3066D01*
X1601Y3038D02*
X2500Y3937D01*
X1603Y3751D02*
X2500Y2854D01*
X1603Y3539D02*
X2104Y3038D01*
X1763Y4015D02*
X2500Y3278D01*
X1601Y3773D02*
X1603Y3706D01*
X1595Y3906D02*
Y4021D01*
X1596Y3900D02*
X1601Y3773D01*
X1603Y3407D02*
Y3482D01*
Y3706D02*
Y3773D01*
Y3484D02*
Y3696D01*
X1068Y4923D02*
X1579Y4411D01*
X1089Y4435D02*
X1488Y4834D01*
X1182D02*
X1647D01*
Y4906D01*
X1369Y4834D02*
X1720Y4483D01*
X1597Y3882D02*
X1731Y4016D01*
X1603Y3464D02*
X2500Y4361D01*
X1581Y4834D02*
X2500Y3915D01*
X1287Y4421D02*
X1782Y4916D01*
X1430Y4352D02*
X2001Y4923D01*
X1713Y4914D02*
X2500Y4127D01*
X1603Y3676D02*
X2500Y4573D01*
X1730Y4916D02*
X1956D01*
X1957Y2545D02*
X2028Y2616D01*
X2115Y2491D02*
X2203Y2579D01*
X2363Y2315D02*
X2548Y2500D01*
X2249Y2413D02*
X2500Y2664D01*
X2363Y2315D02*
X2548Y2500D01*
X2500D02*
Y5000D01*
X2391Y2767D02*
X2500Y2876D01*
X2388Y2754D02*
X2500Y2642D01*
X2540Y2067D02*
X2972Y2500D01*
X2459Y2199D02*
X2760Y2500D01*
X2500D02*
X3171D01*
X2655Y1546D02*
X3609Y2500D01*
X2602Y1918D02*
X3177Y2492D01*
X2642Y2500D02*
X3993Y1149D01*
X2142Y2576D02*
X3437Y1280D01*
X2305Y2625D02*
X3624Y1306D01*
X2655Y1334D02*
X3821Y2500D01*
X3082Y1125D02*
X4457Y2500D01*
X3066D02*
X3931Y1636D01*
X2854Y2500D02*
X3931Y1424D01*
X1923Y4916D02*
X2500Y4339D01*
X1984Y4269D02*
X2500Y4785D01*
X2233Y3033D02*
X2500Y3300D01*
X2354Y2942D02*
X2500Y3088D01*
X1917Y4415D02*
X2500Y4997D01*
X1774Y4484D02*
X2328Y5037D01*
X2077Y4975D02*
X2500Y4551D01*
X2062Y4960D02*
X2120Y5018D01*
X1911Y4079D02*
X2500Y3491D01*
X2261Y5002D02*
X2500Y4763D01*
X1983Y4220D02*
X2500Y3703D01*
X2503Y5000D02*
X2568Y5065D01*
X2500Y5000D02*
X2966D01*
X2411Y5065D02*
X2500Y4976D01*
X2623Y5065D02*
X2688Y5000D01*
X2390Y5065D02*
X2883D01*
X2715Y5000D02*
X2780Y5065D01*
X2835D02*
X2900Y5000D01*
X125Y5380D02*
X150Y5405D01*
X125Y5592D02*
X150Y5617D01*
X125Y5441D02*
X150Y5416D01*
X350Y5393D02*
X553Y5596D01*
X125Y5653D02*
X150Y5628D01*
X350Y5605D02*
X553Y5808D01*
X125Y5804D02*
X150Y5829D01*
X125Y6017D02*
X150Y6042D01*
X125Y5866D02*
X150Y5841D01*
X553Y5582D02*
Y5969D01*
X350Y6065D02*
X553Y5862D01*
X350Y5817D02*
X553Y6020D01*
X503Y5348D02*
X1068D01*
X518D02*
X751Y5582D01*
X553D02*
X1018D01*
X833D02*
X1066Y5348D01*
X621Y5582D02*
X854Y5348D01*
X730D02*
X963Y5582D01*
X350Y5641D02*
X642Y5348D01*
X350Y5853D02*
X553Y5650D01*
X350Y6029D02*
X610Y6289D01*
X553Y5972D02*
Y6047D01*
X942Y5348D02*
X1182Y5589D01*
X553Y6020D02*
X579Y6047D01*
X553D02*
X599D01*
X125Y6078D02*
X150Y6053D01*
X125Y6290D02*
X150Y6265D01*
X125Y6229D02*
X150Y6254D01*
X350Y6277D02*
X580Y6047D01*
X125Y6502D02*
X150Y6477D01*
X125Y6441D02*
X150Y6466D01*
X125Y6653D02*
X150Y6678D01*
X125Y6865D02*
X150Y6890D01*
X125Y6714D02*
X150Y6689D01*
X350Y6913D02*
X595Y6668D01*
Y6613D02*
Y6687D01*
X125Y6926D02*
X150Y6901D01*
X595Y6690D02*
Y6890D01*
X579Y6047D02*
X603Y6070D01*
X606Y6103D02*
X609Y6173D01*
X610Y6179D02*
Y6437D01*
X960Y6303D02*
X1217Y6047D01*
X960Y6178D02*
Y6407D01*
X350Y6489D02*
X610Y6229D01*
X350Y6454D02*
X595Y6699D01*
X350Y6242D02*
X606Y6497D01*
X350Y6701D02*
X609Y6442D01*
X350Y6666D02*
X595Y6911D01*
X602Y6613D02*
X608Y6524D01*
X1018Y5582D02*
Y5969D01*
Y5822D02*
X1182Y5657D01*
X1018Y5636D02*
X1182Y5801D01*
Y5582D02*
Y5969D01*
X1018Y6034D02*
X1182Y5869D01*
X1018Y5848D02*
X1182Y6013D01*
X1018Y5972D02*
Y6047D01*
X966Y6086D02*
X1005Y6047D01*
X972D02*
X1018D01*
X1182Y5972D02*
Y6047D01*
Y6013D02*
X1216Y6047D01*
X1182D02*
X1228D01*
X1288Y5563D02*
X1288Y5528D01*
X1182Y5582D02*
X1287D01*
X1258D02*
X1288Y5551D01*
X1541Y5523D02*
X1599Y5582D01*
X1541Y5528D02*
X1542Y5575D01*
X1543Y5582D02*
X1647D01*
X1640Y6047D02*
X1828Y6235D01*
X1003Y6047D02*
X1240Y6283D01*
X1601Y6047D02*
X1647D01*
Y5616D02*
X1748Y5515D01*
X1647Y5828D02*
X1961Y5515D01*
X1647Y5972D02*
Y6047D01*
Y5582D02*
Y5969D01*
X962Y6136D02*
X966Y6077D01*
X962Y6171D02*
X962Y6136D01*
X960Y6215D02*
X1240Y6495D01*
X1236Y6103D02*
X1239Y6173D01*
X974Y6502D02*
X1240Y6236D01*
Y6179D02*
Y6507D01*
X970Y6437D02*
X1095Y6563D01*
X962D02*
X1226D01*
X1125D02*
X1240Y6448D01*
X1592Y6136D02*
X1596Y6077D01*
X1591Y6171D02*
X1592Y6136D01*
X1590Y6209D02*
X1675Y6294D01*
X1595Y6093D02*
X1641Y6047D01*
X1315Y6797D02*
X1355Y6757D01*
X1491Y6746D02*
X1674Y6929D01*
X1590Y6178D02*
Y6537D01*
X1588Y6631D02*
X1813Y6856D01*
X125Y7077D02*
X150Y7102D01*
X125Y7138D02*
X150Y7113D01*
X125Y7289D02*
X150Y7314D01*
X595Y7043D02*
Y7117D01*
X125Y7351D02*
X150Y7325D01*
X350Y7090D02*
X595Y7335D01*
X125Y7563D02*
X211Y7477D01*
X125Y7775D02*
X340Y7560D01*
X125Y7501D02*
X474Y7851D01*
X350Y7302D02*
X418Y7370D01*
X350Y6878D02*
X595Y7123D01*
X355Y7333D02*
X595Y7092D01*
X350Y7126D02*
X595Y6880D01*
Y6893D02*
Y6967D01*
X604Y6931D02*
X606Y6966D01*
X602Y7043D02*
X607Y6980D01*
X410Y7370D02*
X595D01*
X406Y7570D02*
X686Y7851D01*
X410Y7570D02*
X1430D01*
X530Y7370D02*
X595Y7305D01*
Y7120D02*
Y7370D01*
X473Y7851D02*
X754Y7570D01*
X830D02*
X1111Y7851D01*
X618Y7570D02*
X899Y7851D01*
X125Y7714D02*
X262Y7851D01*
X261D02*
X542Y7570D01*
X685Y7851D02*
X966Y7570D01*
X800Y9969D02*
Y10026D01*
X798Y10072D02*
X900Y9969D01*
X600Y10509D02*
Y11031D01*
Y10946D02*
X685Y11031D01*
X600Y10734D02*
X897Y11031D01*
X603Y10478D02*
X1113Y9969D01*
X600Y11031D02*
X969D01*
X125Y7851D02*
X1366D01*
X600Y10694D02*
X1325Y9969D01*
X797Y10083D02*
X1670Y10956D01*
X898Y7851D02*
X1178Y7570D01*
X800Y9969D02*
X1366D01*
X896D02*
X1670Y10744D01*
X752Y10250D02*
X1534Y11031D01*
X600Y10522D02*
X1318Y11240D01*
X670Y10379D02*
X1321Y11031D01*
X969Y11598D02*
X1318Y11248D01*
X899Y11031D02*
X1585Y10345D01*
X969Y11810D02*
X1318Y11460D01*
X969Y11315D02*
X1318Y11665D01*
X1315Y6739D02*
Y6993D01*
Y6994D02*
X1500Y7180D01*
X1315Y7017D02*
Y7370D01*
Y7206D02*
X1465Y7356D01*
X1378Y7370D02*
X1483Y7265D01*
X1315Y7370D02*
X1430D01*
X1042Y7570D02*
X1323Y7851D01*
X1110D02*
X1390Y7570D01*
X1323Y7851D02*
X1366Y7893D01*
Y7851D02*
Y8712D01*
X1315Y7009D02*
X1676Y6648D01*
X1315Y6782D02*
X1570Y7037D01*
X1315Y7221D02*
X1831Y6705D01*
X1683Y7277D02*
X1927Y7033D01*
X1254Y7570D02*
X1889Y8205D01*
X1366Y8530D02*
X1571Y8735D01*
X1366Y7893D02*
X1797Y8325D01*
X1366Y8318D02*
X1783Y8735D01*
X1498D02*
X1789Y8444D01*
X1710Y8735D02*
X1867Y8578D01*
X1366Y9292D02*
X1573Y9085D01*
X969Y11386D02*
X1318Y11036D01*
X1325Y9969D02*
X1366Y9928D01*
X1455Y8733D02*
X1491Y8734D01*
X1366Y9108D02*
Y9969D01*
X1455Y9087D02*
X1491Y9086D01*
X969Y11031D02*
Y11875D01*
Y11527D02*
X1317Y11875D01*
X969Y11103D02*
X1318Y11453D01*
X1116Y11875D02*
X1318Y11673D01*
Y11031D02*
Y11875D01*
X969Y11739D02*
X1104Y11875D01*
X969D02*
X1318D01*
X1366Y9803D02*
X1732Y10169D01*
X1320Y9969D02*
X1609Y10258D01*
X1108Y9969D02*
X1670Y10531D01*
X1366Y9504D02*
X1785Y9085D01*
X969Y11174D02*
X1649Y10493D01*
X1318Y11031D02*
X1670D01*
X1323D02*
X1670Y10685D01*
Y10533D02*
Y11031D01*
X1870Y10533D02*
Y11031D01*
X1535D02*
X1670Y10897D01*
X1870Y10944D02*
X1958Y11031D01*
X1590Y6310D02*
X2385Y5515D01*
X1647Y5630D02*
X2358Y6340D01*
X1647Y6040D02*
X2173Y5515D01*
X2006Y6625D02*
X2211Y6830D01*
X1871Y6701D02*
X1999Y6830D01*
X1322Y7851D02*
X2143Y7030D01*
X1366Y8019D02*
X2355Y7030D01*
X1915Y6833D02*
X2336Y6412D01*
X2130Y6830D02*
X2395Y6566D01*
X2065Y6472D02*
X2423Y6830D01*
X1873Y6239D02*
X2597Y5515D01*
X1745D02*
X2479Y6250D01*
X1543Y5515D02*
X2830D01*
X2169D02*
X2959Y6305D01*
X1957Y5515D02*
X2747Y6305D01*
X2008Y6316D02*
X2809Y5515D01*
X1647Y5842D02*
X2526Y6720D01*
X1970Y6830D02*
X2543D01*
X1366Y8231D02*
X2567Y7030D01*
X2065Y6471D02*
X2644Y5893D01*
X2343Y6830D02*
X2563Y6610D01*
X1970Y7030D02*
X2975D01*
X1715Y7182D02*
X2202Y7669D01*
X1464Y7568D02*
X2066Y8170D01*
X1677Y7357D02*
X2293Y7973D01*
X1818Y7073D02*
X2253Y7508D01*
X2064Y8169D02*
X2291Y7943D01*
X1606Y7498D02*
X2293Y8185D01*
X1366Y8443D02*
X2203Y7606D01*
X1366Y8443D02*
X2203Y7606D01*
X2198Y8247D02*
X2293Y8152D01*
X1987Y7030D02*
X2407Y7450D01*
X2199Y7030D02*
X2628Y7459D01*
X2356Y7453D02*
X2779Y7030D01*
X2356Y7453D02*
X2779Y7030D01*
X2255Y8403D02*
X2298Y8359D01*
X2250Y8354D02*
X2298Y8402D01*
X2293Y7960D02*
Y8297D01*
X2298Y8328D02*
Y8402D01*
X2381Y5515D02*
X2641Y5775D01*
X2593Y5515D02*
X2724Y5646D01*
X2805Y5515D02*
X2886Y5596D01*
X2502Y6246D02*
X2730Y6019D01*
X2659Y6301D02*
X2897Y6063D01*
X2868Y6305D02*
X2930Y6243D01*
X2692Y6305D02*
X2974D01*
X2933Y5604D02*
X3176Y5360D01*
X2984Y5481D02*
X3205Y5702D01*
X3107Y5392D02*
X3324Y5609D01*
X3059Y5690D02*
X3233Y5515D01*
X3263Y5671D02*
X3368Y5565D01*
X3069Y5705D02*
X3180D01*
X3396Y6856D02*
X4014Y6237D01*
X3400Y7046D02*
X4088Y6358D01*
X2623Y7030D02*
X2953Y7359D01*
X2836Y7030D02*
X2953Y7147D01*
Y7068D02*
X2976Y7046D01*
X2953D02*
Y7453D01*
X2411Y7030D02*
X2836Y7455D01*
X2521Y7500D02*
X2953Y7068D01*
X2893Y7454D02*
X2929Y7453D01*
X2778Y7455D02*
X2953Y7281D01*
X2660Y7455D02*
X2886D01*
X3188Y7046D02*
X3300Y6934D01*
X3211Y6981D02*
X3275Y7046D01*
X2953D02*
X3383D01*
X3344Y6902D02*
X3487Y7046D01*
X3357Y7759D02*
X3433Y7762D01*
X3407Y7046D02*
X3837D01*
X3357Y7764D02*
X3361Y7835D01*
X3383Y7837D02*
Y7911D01*
Y8123D02*
X3741Y7765D01*
X3383Y8335D02*
X3963Y7755D01*
X3383Y8547D02*
X4175Y7755D01*
X3383Y7915D02*
Y8231D01*
X3383Y7911D02*
X3529Y7765D01*
X1366Y8656D02*
X2250Y7771D01*
X1498Y8735D02*
X2305D01*
X1922D02*
X2023Y8635D01*
X2095Y8623D02*
X2207Y8735D01*
X1366Y8106D02*
X1995Y8735D01*
X1366Y9716D02*
X1997Y9085D01*
X1366Y9166D02*
X2172Y9973D01*
X2135Y8735D02*
X2305Y8565D01*
X1366Y9928D02*
X2209Y9085D01*
X1497Y9085D02*
X2256Y9844D01*
X1498Y9085D02*
X2392D01*
X1709D02*
X2419Y9796D01*
X1765Y10165D02*
X2835Y9095D01*
X2305Y8454D02*
Y8735D01*
X2215Y8531D02*
X2305Y8621D01*
X2340Y9803D02*
X3047Y9095D01*
X1870Y10909D02*
X3684Y9095D01*
X600Y10906D02*
X2410Y9096D01*
X687Y11031D02*
X2623Y9095D01*
X1921Y9085D02*
X3011Y10175D01*
X2133Y9085D02*
X4079Y11031D01*
X2345Y9085D02*
X3445Y10185D01*
X1960Y11031D02*
X3636Y9355D01*
X1912Y10231D02*
X2173Y9970D01*
X1945Y10409D02*
X2200Y10154D01*
X1870Y10697D02*
X2317Y10250D01*
X1872Y10521D02*
X2606Y11255D01*
X1870Y10731D02*
X2170Y11031D01*
X1870D02*
X2256D01*
Y11875D01*
X1951Y10388D02*
X2606Y11043D01*
X2256Y11754D02*
X2377Y11875D01*
X2256Y11541D02*
X2589Y11875D01*
X1366Y9378D02*
X2970Y10983D01*
X1366Y9591D02*
X2806Y11031D01*
X2172D02*
X2888Y10315D01*
X2256Y11159D02*
X2936Y10479D01*
X2256Y11372D02*
X2970Y10657D01*
X2256Y11584D02*
X2606Y11234D01*
X2256Y11117D02*
X2606Y11467D01*
X2256Y11796D02*
X2606Y11446D01*
X2256Y11329D02*
X2606Y11679D01*
X2256Y11875D02*
X2606D01*
X2389D02*
X2606Y11658D01*
X2705Y8609D02*
X2846D01*
X2717D02*
X2853Y8745D01*
X2853Y8610D02*
X2888Y8610D01*
X2977Y8617D01*
Y8637D02*
X3051D01*
X3169D02*
X3278Y8745D01*
X2705Y8609D02*
Y8745D01*
X2524Y9830D02*
X3260Y9095D01*
X2761Y8745D02*
X2895Y8611D01*
X2934Y8614D02*
X3066Y8745D01*
X2973D02*
X3082Y8637D01*
X3357Y7764D02*
X4338Y8745D01*
X3185D02*
X3294Y8637D01*
X3055D02*
X3383D01*
Y8243D02*
Y8637D01*
X3382D02*
X3490Y8745D01*
X3383Y8426D02*
X3702Y8745D01*
X2705D02*
X4494D01*
X2620Y9947D02*
X3472Y9095D01*
X2602D02*
X3870D01*
X3383Y8002D02*
X4126Y8745D01*
X3397D02*
X4221Y7922D01*
X2991Y9095D02*
X3757Y9861D01*
X3383Y8214D02*
X3914Y8745D01*
X2578Y9106D02*
X3439Y9967D01*
X2634Y10011D02*
X2900Y10277D01*
X2586Y10174D02*
X2970Y10559D01*
X3198Y10217D02*
X3431Y9984D01*
X2457Y10258D02*
X2970Y10771D01*
X2606Y11031D02*
Y11875D01*
Y11031D02*
X2970D01*
Y10533D02*
Y11031D01*
X3170Y10533D02*
Y11031D01*
X2808D02*
X2970Y10869D01*
X3170Y10971D02*
X3231Y11031D01*
X2779Y9095D02*
X3544Y9860D01*
X3035Y10168D02*
X3705Y9498D01*
X3203Y9095D02*
X4288Y10180D01*
X3253Y10374D02*
X3444Y10183D01*
X3170Y10882D02*
X3805Y10247D01*
X3170Y11031D02*
X3543D01*
X3170Y10669D02*
X3555Y10285D01*
X3245Y10409D02*
X3893Y11057D01*
X3232Y11031D02*
X4586Y9677D01*
X3170Y10759D02*
X3443Y11031D01*
X3170Y10546D02*
X3893Y11269D01*
X3488Y169D02*
X3532Y125D01*
X3754Y328D02*
X3956Y125D01*
X3567D02*
X3629Y187D01*
X3663Y206D02*
X3744Y125D01*
X3630Y612D02*
X3960Y942D01*
X3739Y508D02*
X3960Y730D01*
Y968D02*
Y1043D01*
X3760Y957D02*
X3960Y758D01*
X4204Y125D02*
X4308Y230D01*
X3992Y125D02*
X4245Y379D01*
X3779Y125D02*
X4281Y627D01*
X4225D02*
X4692D01*
X3645Y861D02*
X4381Y125D01*
X3756Y950D02*
X3993Y1188D01*
X3743Y301D02*
X4119Y677D01*
X4225Y627D02*
Y677D01*
X4041D02*
X4256Y462D01*
X3960Y677D02*
Y966D01*
Y677D02*
X4225D01*
X3786Y1144D02*
X3960Y970D01*
X3989Y1047D02*
X3992Y1091D01*
X3987Y1357D02*
X3991Y1317D01*
X3993Y1125D02*
Y1285D01*
X3773Y1179D02*
X3960Y1367D01*
X3670Y1288D02*
X3931Y1549D01*
X3549Y2500D02*
X3974D01*
X3931Y1367D02*
Y1441D01*
Y1367D02*
X3985D01*
X3931Y1444D02*
Y1713D01*
X4020Y6235D02*
X4086D01*
X3521Y2469D02*
X4277Y1713D01*
X3931D02*
X4347D01*
X4225Y2402D02*
X4531Y2096D01*
X4293Y1273D02*
X4473Y1093D01*
X4293Y1125D02*
Y1285D01*
Y1275D02*
X4385Y1367D01*
X3464Y1294D02*
X4669Y2500D01*
X3915D02*
X4403Y2012D01*
X3703Y2500D02*
X4408Y1795D01*
X4095Y1713D02*
X4882Y2500D01*
X3983Y6268D02*
X4088Y6373D01*
X4416Y125D02*
X4448Y157D01*
X4673Y257D02*
X4805Y125D01*
X4552Y166D02*
X4593Y125D01*
X4303Y627D02*
X4347Y583D01*
X4323Y1093D02*
X4597Y1367D01*
X4692Y627D02*
Y1093D01*
X4628Y125D02*
X5000Y497D01*
X4692Y875D02*
X5000Y566D01*
X4692Y663D02*
X5000Y354D01*
X4840Y125D02*
X5000Y285D01*
X4713Y422D02*
X5000Y709D01*
X4711Y431D02*
X5000Y142D01*
X4640Y562D02*
X5000Y921D01*
X4536Y1093D02*
X5000Y1558D01*
X4624Y1367D02*
X5000Y991D01*
X4692Y1087D02*
X5000Y778D01*
Y125D02*
Y2500D01*
X4692Y1037D02*
X5000Y1346D01*
X4692Y825D02*
X5000Y1133D01*
X4295Y1093D02*
X4692D01*
X4302Y1367D02*
X4347D01*
X4356D02*
X4773D01*
X4412D02*
X4685Y1093D01*
X4356Y1713D02*
X4402D01*
X4773Y1367D02*
Y1636D01*
X4307Y1713D02*
X4405Y1812D01*
X4407Y1809D02*
X4408Y1775D01*
X4718Y1713D02*
X4773D01*
Y1639D02*
Y1713D01*
X4712Y1763D02*
X4716Y1723D01*
X4743Y1884D02*
X5000Y1627D01*
X4743Y1938D02*
X5000Y2194D01*
X4731Y1713D02*
X5000Y1982D01*
X4773Y1430D02*
X5000Y1203D01*
X4773Y1543D02*
X5000Y1770D01*
X4773Y1642D02*
X5000Y1415D01*
X4355Y2485D02*
X5000Y1839D01*
X4366Y2500D02*
X5000D01*
X4551D02*
X5000Y2051D01*
X4763Y2500D02*
X5000Y2263D01*
X4662Y2068D02*
X5000Y2406D01*
X4976Y2500D02*
X5000Y2476D01*
X3612Y7046D02*
X4088Y6570D01*
X3453Y6799D02*
X3700Y7046D01*
X3665Y6587D02*
X4088Y7009D01*
X3877Y6374D02*
X4088Y6585D01*
X3824Y7046D02*
X4088Y6782D01*
X3771Y6480D02*
X4088Y6797D01*
X3559Y6693D02*
X4092Y7226D01*
X3837Y7244D02*
X4088Y6994D01*
Y6352D02*
Y7178D01*
X3837Y7046D02*
Y7400D01*
X4288Y6573D02*
X4310Y6596D01*
X4288Y6582D02*
X4330Y6540D01*
X4760Y6449D02*
Y6494D01*
X4288Y6449D02*
Y6797D01*
X4300Y6679D02*
Y6767D01*
X4760Y6886D02*
Y7080D01*
Y6958D02*
X4808Y6910D01*
X4760Y7045D02*
X4865Y7150D01*
X3837Y7183D02*
X4059Y7405D01*
X3837Y7400D02*
X3915Y7404D01*
X3891Y7403D02*
X4089Y7205D01*
X4101Y7405D02*
X4152Y7354D01*
X3920Y7405D02*
X4210D01*
X3433Y7762D02*
X3501Y7765D01*
X3433D02*
X3501D01*
X3510D02*
X3705D01*
X4197Y7755D02*
X4230Y7788D01*
X3919Y7755D02*
X4245D01*
X3713Y7765D02*
X3787D01*
Y7758D02*
X3912Y7756D01*
X4677Y7811D02*
X4770D01*
X4678Y7811D02*
X4730Y7864D01*
X4685Y7882D02*
X4756Y7811D01*
X3985Y7755D02*
X4619Y8390D01*
X3571Y7765D02*
X4545Y8740D01*
X3783Y7765D02*
X4615Y8597D01*
X5032Y6449D02*
Y6503D01*
X4792Y7139D02*
X5033Y6897D01*
X4830Y7150D02*
X5161D01*
X4848Y6921D02*
X5077Y7150D01*
X4992D02*
X5084Y7058D01*
X7443Y6547D02*
X7657Y6760D01*
X7400Y6652D02*
X7505Y6547D01*
X7400D02*
X7667D01*
X7400D02*
Y6850D01*
X7514D01*
X7400Y6715D02*
X7530Y6846D01*
X7414Y6850D02*
X7666Y6598D01*
X7922Y6813D02*
X7949Y6840D01*
X6436Y7767D02*
X6493Y7770D01*
X6407Y7857D02*
X6493Y7771D01*
X6947Y7768D02*
X6996Y7767D01*
X6967Y7767D02*
X7063Y7863D01*
X6996Y7767D02*
X7063Y7770D01*
X6407Y7769D02*
Y8175D01*
Y7843D02*
X6493Y7929D01*
Y7770D02*
Y8115D01*
X6947Y7768D02*
Y8124D01*
X7063Y7770D02*
Y8124D01*
X6947Y7953D02*
X7063Y7838D01*
X7599Y7765D02*
X7642D01*
X7517Y7807D02*
X7557Y7767D01*
X7517Y7768D02*
X7592Y7766D01*
X7601Y7765D02*
X7723Y7887D01*
X7649Y7766D02*
X7684Y7767D01*
X7723Y7769D01*
X7517Y7768D02*
Y8039D01*
X7723Y7769D02*
Y8039D01*
X7517Y7893D02*
X7640Y8016D01*
X7517Y8019D02*
X7723Y7813D01*
X8319Y5097D02*
X8415Y5000D01*
X8442D02*
X8525Y5083D01*
X8380Y5248D02*
Y5446D01*
X8380Y5247D02*
X8519Y5109D01*
X8380Y5362D02*
X8523Y5505D01*
X8381Y5453D02*
X8382Y5486D01*
X8523Y5505D02*
Y5976D01*
X8410Y5641D02*
X8523Y5529D01*
X8164Y5000D02*
X8569D01*
X8900Y5364D02*
X9264Y5000D01*
X8230D02*
X8600Y5370D01*
X8523Y5529D02*
X8546Y5505D01*
X8381Y5458D02*
X8556Y5283D01*
X8546Y5505D02*
X8600Y5452D01*
Y5331D02*
Y5474D01*
X8523Y5505D02*
X8598D01*
X8900Y5458D02*
X8947Y5505D01*
X8382Y5734D02*
X8384Y5776D01*
X8413Y5779D02*
Y5854D01*
Y5850D02*
X8523Y5741D01*
X8415Y5609D02*
X8523Y5717D01*
X8413Y5820D02*
X8523Y5929D01*
X8569Y5976D01*
X8413Y5857D02*
Y6094D01*
X8330Y6461D02*
X8413D01*
Y6094D02*
Y6146D01*
Y6063D02*
X8523Y5953D01*
X8573Y5976D02*
Y6225D01*
X8413Y6146D02*
Y6461D01*
Y6094D02*
Y6146D01*
Y6032D02*
X8573Y6191D01*
X8523Y5976D02*
X8573D01*
Y6191D02*
X8606Y6225D01*
X8573D02*
X8650D01*
X8413Y6275D02*
X8573Y6115D01*
X8650Y6225D02*
Y6340D01*
X8606Y6225D02*
X8650Y6268D01*
X8850Y6225D02*
Y6340D01*
X8887Y6225D02*
X8927Y6185D01*
X8850Y6262D02*
X8887Y6225D01*
X8850D02*
X8927D01*
X8974Y5078D02*
X9052Y5000D01*
X8983Y5116D02*
X9149Y5283D01*
X9079Y5000D02*
X9273Y5195D01*
X9284Y5192D02*
X9476Y5000D01*
X8941Y5287D02*
X9107Y5453D01*
X8900Y5331D02*
Y5473D01*
X8947Y5505D02*
X8977Y5535D01*
X8971Y5505D02*
X9112Y5364D01*
X9113Y5505D02*
Y5976D01*
X8931Y5000D02*
X9875D01*
X9466Y5222D02*
X9688Y5000D01*
X9503D02*
X9875Y5372D01*
X9561Y5339D02*
X9875Y5025D01*
X9715Y5000D02*
X9875Y5160D01*
X9291Y5000D02*
X9875Y5584D01*
X9567Y5757D02*
X9875Y5449D01*
X9567Y5545D02*
X9875Y5237D01*
X9567Y5505D02*
Y5976D01*
X9565Y5487D02*
X9875Y5796D01*
X8902Y5505D02*
X8977D01*
Y5711D02*
X9113Y5575D01*
X8977Y5535D02*
X9113Y5670D01*
X8977Y5505D02*
Y5976D01*
Y5923D02*
X9113Y5788D01*
X8977Y5747D02*
X9113Y5882D01*
X8927Y5976D02*
Y6225D01*
Y5976D02*
X8977D01*
X8927Y6185D02*
X9137Y5976D01*
X9113D02*
X9163D01*
X8977Y5959D02*
X9163Y6145D01*
X8927Y6121D02*
X9155Y6349D01*
X9163Y5976D02*
Y6225D01*
X9517Y5976D02*
X9567D01*
Y5969D02*
X9875Y5662D01*
X9517Y6019D02*
X9561Y5976D01*
X9567Y5701D02*
X9875Y6008D01*
X9485Y6225D02*
X9517D01*
X9163D02*
X9195D01*
X9567Y5913D02*
X9875Y6221D01*
X9501Y6248D02*
X9875Y5874D01*
X9517Y5976D02*
Y6225D01*
Y6075D02*
X9875Y6433D01*
X8330Y6783D02*
X8617Y6495D01*
X8130Y6627D02*
Y6770D01*
X8330Y6585D02*
X8447Y6702D01*
X8413Y6244D02*
X8630Y6461D01*
X8330Y6461D02*
Y6770D01*
X8413Y6456D02*
X8553Y6595D01*
X8060Y6840D02*
X8130Y6770D01*
X8325Y6824D02*
X8538Y6611D01*
X8066Y6745D02*
X8122Y6802D01*
X8330Y6570D02*
X8650Y6250D01*
X8829Y6496D02*
X9163Y6162D01*
X8782Y6613D02*
X8896Y6727D01*
X8703D02*
X8953D01*
X8850Y6256D02*
X9320Y6727D01*
X8810D02*
X9159Y6378D01*
X8838Y6457D02*
X9192Y6810D01*
X8953Y6727D02*
Y6810D01*
Y6795D02*
X9248Y6501D01*
X8953Y6784D02*
X8979Y6810D01*
X8953D02*
X9197D01*
X7883Y6840D02*
X8060D01*
X8207Y7542D02*
X8299Y7450D01*
X8207D02*
X8430D01*
X8347D02*
X8398Y7501D01*
X8244Y7717D02*
X8346Y7615D01*
X8207Y7522D02*
X8348Y7663D01*
X8207Y7450D02*
Y7717D01*
X8257D01*
Y7916D02*
X8406Y7767D01*
X8257Y7717D02*
Y8250D01*
Y7784D02*
X8422Y7949D01*
X8953Y7042D02*
Y7093D01*
X8870Y7408D02*
X8953D01*
X8870Y7515D02*
X9147Y7238D01*
X8953Y7010D02*
X9147D01*
X8953Y7042D02*
Y7093D01*
Y7010D02*
Y7042D01*
X8821Y7776D02*
X9147Y7450D01*
X8800Y7811D02*
X9646D01*
X8870Y7408D02*
Y7583D01*
X8941Y7408D02*
X9344Y7811D01*
X8841Y7733D02*
X8920Y7811D01*
X8870Y7549D02*
X9132Y7811D01*
X9197Y6727D02*
Y6810D01*
Y6727D02*
X9563D01*
X9331Y6525D02*
X9533Y6727D01*
X9197Y6764D02*
X9234Y6727D01*
X9533D02*
X9563Y6757D01*
X9147Y7010D02*
Y7458D01*
X8967Y7010D02*
X9147Y7189D01*
Y7010D02*
X9197D01*
X9563Y6727D02*
Y6992D01*
X9151Y6810D02*
X9197Y6764D01*
X9563Y6970D02*
X9585Y6992D01*
X9234Y6727D02*
X9875Y6086D01*
X9480Y6461D02*
X9875Y6857D01*
X9446Y6727D02*
X9875Y6298D01*
X9517Y6287D02*
X9875Y6645D01*
X9563Y6992D02*
X9613D01*
X9563Y6822D02*
X9875Y6510D01*
X9606Y6992D02*
X9875Y6722D01*
X9585Y6992D02*
X9613Y7020D01*
X9563Y6757D02*
X9875Y7069D01*
X9613Y7196D02*
X9875Y6934D01*
Y5000D02*
Y7435D01*
X9613Y6992D02*
Y7358D01*
Y7020D02*
X9875Y7281D01*
X8953Y7220D02*
X9147Y7026D01*
X8953Y7093D02*
Y7408D01*
Y7208D02*
X9147Y7402D01*
Y7458D02*
X9489D01*
X9147Y7402D02*
X9203Y7458D01*
X8999Y7811D02*
X9351Y7458D01*
X9203D02*
X9556Y7811D01*
X9211D02*
X9455Y7566D01*
X9416Y7458D02*
X9466Y7509D01*
X9423Y7811D02*
X9507Y7727D01*
X9613Y7232D02*
X9730Y7348D01*
X9676Y7345D02*
X9875Y7146D01*
X9837Y7397D02*
X9875Y7359D01*
Y7725D02*
Y7811D01*
X9735D02*
X9875D01*
X9847D02*
X9875Y7783D01*
X4532Y8090D02*
X4615Y8173D01*
X3822Y8745D02*
X4462Y8105D01*
X4499Y8744D02*
X4532Y8742D01*
X4615Y8038D02*
Y8275D01*
Y8423D02*
Y8491D01*
Y8283D02*
Y8357D01*
X3610Y8745D02*
X4302Y8053D01*
X4052Y9095D02*
X4586Y9629D01*
X4034Y8745D02*
X4615Y8164D01*
X4476Y9095D02*
X4586Y9205D01*
X4104Y9311D02*
X4320Y9095D01*
X4264D02*
X4602Y9433D01*
X4618Y8423D02*
X4621Y8357D01*
X4644Y8003D02*
X4696D01*
X4940Y7940D02*
X5639D01*
X4911Y7953D02*
X5334D01*
X4246Y8745D02*
X4620Y8371D01*
X4458Y8745D02*
X4615Y8588D01*
Y8500D02*
Y8691D01*
Y8491D02*
X4618Y8423D01*
X4980Y8873D02*
X4982Y8827D01*
X4981Y8859D02*
X5012Y8827D01*
X4980Y8873D02*
X5464D01*
X3870Y9095D02*
X4495D01*
X3416D02*
X3635Y9315D01*
X3628Y9095D02*
X3700Y9168D01*
X4038Y9165D02*
X4108Y9095D01*
X4501Y9096D02*
X4536Y9098D01*
X3564Y9851D02*
X3851Y9564D01*
X3763Y9864D02*
X4530Y9097D01*
X4586Y9105D02*
Y9279D01*
Y9282D02*
Y9357D01*
X4620D01*
X4621Y9429D02*
X4623Y9388D01*
X4586Y9465D02*
X4618Y9433D01*
X4586D02*
X4620D01*
X4103Y9358D02*
X4586Y9842D01*
Y9433D02*
Y9508D01*
Y9867D02*
X4930D01*
X4586Y9511D02*
Y9867D01*
Y9842D02*
X4612Y9867D01*
X4930D02*
Y9917D01*
X5464D01*
X5334Y8081D02*
X5475Y7940D01*
X5334Y8293D02*
X5677Y7951D01*
X5657Y7942D02*
X5747Y8032D01*
X5334Y8044D02*
X5748Y8457D01*
X5334Y8407D02*
Y8827D01*
Y8256D02*
X5608Y8530D01*
X5334Y7953D02*
Y8373D01*
Y8407D01*
Y8373D02*
Y8407D01*
X6407Y8069D02*
X6493Y7983D01*
X6407Y8056D02*
X6479Y8128D01*
X6407Y8175D02*
X6445D01*
X5443Y7940D02*
X5780Y8277D01*
X5334Y8505D02*
X5765Y8074D01*
X5334Y8717D02*
X5780Y8272D01*
Y8160D02*
Y8285D01*
X5057Y8827D02*
X5103Y8873D01*
X4982Y8827D02*
X5334D01*
X5178Y8873D02*
X5224Y8827D01*
X5269D02*
X5315Y8873D01*
X5464Y9407D02*
Y9917D01*
Y8873D02*
Y9383D01*
X5408Y9917D02*
X5464Y9861D01*
X5334Y8468D02*
X5545Y8679D01*
X6014Y8674D02*
X6059Y8629D01*
X5390Y8873D02*
X5547Y8717D01*
X5464Y9012D02*
X5617Y8859D01*
X5464Y9224D02*
X5764Y8924D01*
X6168Y8665D02*
X6538Y9035D01*
X5464Y9437D02*
X6225Y8675D01*
X5464Y9649D02*
X6432Y8680D01*
X3865Y9975D02*
X4586Y9253D01*
X3859Y9963D02*
X4185Y10289D01*
X3827Y10225D02*
X4586Y9465D01*
X3535Y10275D02*
X4260Y11000D01*
X3445Y11031D02*
X4185Y10291D01*
X3753Y10281D02*
X4260Y10788D01*
X3860Y10176D02*
X4260Y10576D01*
X4032Y9500D02*
X4775Y10243D01*
X4301Y10175D02*
X4609Y9867D01*
X4479Y10209D02*
X4821Y9867D01*
X4612D02*
X4827Y10082D01*
X4824Y9867D02*
X4958Y10001D01*
X3885Y9565D02*
X5352Y11031D01*
X4460Y10652D02*
X4793Y10320D01*
X4460Y10864D02*
X4891Y10433D01*
X4545Y10355D02*
X4983Y9917D01*
X4530Y10422D02*
X5180Y11071D01*
X4717Y11031D02*
X5488Y10261D01*
X3543Y11132D02*
X3893Y11481D01*
X3543Y11344D02*
X3893Y11693D01*
X3543Y11569D02*
X3893Y11220D01*
X3543Y11145D02*
X4219Y10469D01*
X4081Y11031D02*
X4260Y10852D01*
X3543Y11357D02*
X4260Y10640D01*
X3543Y11781D02*
X3893Y11432D01*
X3543Y11768D02*
X3650Y11875D01*
X3543Y11556D02*
X3862Y11875D01*
X3543Y11031D02*
Y11875D01*
X3893Y11031D02*
Y11875D01*
X3543D02*
X3893D01*
X3662D02*
X3893Y11644D01*
X4260Y10533D02*
Y11031D01*
X3893D02*
X4260D01*
X4460D02*
X4830D01*
X4460Y10533D02*
Y11031D01*
Y10988D02*
X4503Y11031D01*
X4460Y10776D02*
X4715Y11031D01*
X4505D02*
X5083Y10453D01*
X4460Y10564D02*
X5180Y11284D01*
X4830Y11131D02*
X5501Y10460D01*
X4830Y11031D02*
Y11875D01*
Y11146D02*
X5180Y11496D01*
X4830Y11358D02*
X5180Y11708D01*
X4830Y11555D02*
X5180Y11205D01*
X5086Y9917D02*
X5471Y10302D01*
X5298Y9917D02*
X5566Y10185D01*
X5100Y10013D02*
X5196Y9917D01*
X5213Y10111D02*
X5408Y9917D01*
X4997Y10465D02*
X5550Y11017D01*
X5158Y10413D02*
X5550Y10805D01*
Y10533D02*
Y11031D01*
X5239Y10282D02*
X5550Y10593D01*
X5233Y10303D02*
X6551Y8986D01*
X5464Y9446D02*
X6148Y10130D01*
X5464Y9234D02*
X6287Y10057D01*
X5464Y9658D02*
X6085Y10280D01*
X5750Y10635D02*
X6085Y10300D01*
X5750Y10847D02*
X6148Y10450D01*
X5778Y11031D02*
X6287Y10523D01*
X5815Y10434D02*
X6467Y11086D01*
X4830Y11343D02*
X5550Y10623D01*
X5180Y11031D02*
X5550D01*
X5354D02*
X5550Y10835D01*
X5750Y10533D02*
Y11031D01*
Y11005D02*
X5776Y11031D01*
X5750Y10793D02*
X5988Y11031D01*
X4830Y11570D02*
X5135Y11875D01*
X4830Y11782D02*
X4923Y11875D01*
X4830D02*
X5180D01*
X4830Y11767D02*
X5180Y11417D01*
Y11031D02*
Y11875D01*
X5146D02*
X5180Y11842D01*
X4934Y11875D02*
X5180Y11629D01*
X5750Y10581D02*
X6467Y11298D01*
X5750Y11031D02*
X6117D01*
Y11160D02*
X6467Y11510D01*
X6117Y11541D02*
X6467Y11191D01*
X6117Y11753D02*
X6467Y11403D01*
X6117Y11372D02*
X6467Y11722D01*
X6117Y11031D02*
Y11875D01*
Y11797D02*
X6196Y11875D01*
X6117Y11585D02*
X6408Y11875D01*
X6207D02*
X6467Y11615D01*
Y11031D02*
Y11875D01*
X6117D02*
X6467D01*
X6419D02*
X6467Y11827D01*
X6817Y8124D02*
X6947D01*
Y7960D02*
X7063Y8075D01*
X6878Y8234D02*
X7063Y8050D01*
Y8075D02*
X7112Y8124D01*
X6607Y8680D02*
X6762Y8835D01*
X6686Y8851D02*
X6857Y8680D01*
X6844Y8480D02*
X7200Y8124D01*
X6883Y8320D02*
X7043Y8480D01*
X6884Y8865D02*
X7069Y8680D01*
X7324Y8124D02*
X7392Y8193D01*
X6900Y8124D02*
X7255Y8480D01*
X7063Y8124D02*
X7421D01*
X7112D02*
X7467Y8480D01*
X7057D02*
X7412Y8124D01*
X6788Y8480D02*
X7572D01*
X7269D02*
X7405Y8344D01*
X7481Y8480D02*
X7506Y8455D01*
X7455Y8680D02*
X7741Y8966D01*
X6395Y8680D02*
X6611Y8897D01*
X6985Y8976D02*
X7281Y8680D01*
X5464Y9861D02*
X6644Y8680D01*
X5561Y10188D02*
X6565Y9184D01*
X5334Y8680D02*
X6849Y10195D01*
X6013Y8722D02*
X7185Y9895D01*
X7043Y10190D02*
X7224Y10010D01*
X6805Y9302D02*
X7236Y9734D01*
X6302Y8680D02*
X8290D01*
X6943Y9229D02*
X7366Y9651D01*
X7371Y9650D02*
X7820Y9201D01*
X7642Y9804D02*
X8584Y8861D01*
X7550Y9684D02*
X7979Y9255D01*
X6330Y10055D02*
X7705Y8680D01*
X6480Y10118D02*
X7917Y8680D01*
X7243D02*
X8584Y10021D01*
X7819Y8375D02*
X7910D01*
X8099Y8250D02*
X8257D01*
Y8209D02*
X8340Y8292D01*
X7806Y8394D02*
X7892Y8480D01*
X7668D02*
X8290D01*
X7905D02*
X8135Y8250D01*
X7985Y8361D02*
X8104Y8480D01*
X8095Y8259D02*
X8311Y8475D01*
X8257Y8128D02*
X8406Y7979D01*
X8257Y8209D02*
X8340Y8292D01*
X8257Y7996D02*
X8361Y8100D01*
X8540Y8280D02*
X8584Y8324D01*
X8540Y8269D02*
X8584Y8225D01*
X8117Y8480D02*
X8340Y8257D01*
X8340Y8260D02*
Y8430D01*
X8584Y8069D02*
Y10029D01*
X8540Y8260D02*
Y8430D01*
X8533Y8488D02*
X8584Y8437D01*
X8019Y8790D02*
X8129Y8680D01*
X7667D02*
X7824Y8836D01*
X7880Y8680D02*
X7985Y8785D01*
X8534Y8486D02*
X8584Y8536D01*
X8151Y8870D02*
X8348Y8673D01*
X8454Y8618D02*
X8584Y8748D01*
X8092Y8680D02*
X8584Y9173D01*
X8205Y9029D02*
X8584Y8649D01*
X8205Y9005D02*
X8584Y9385D01*
X8024Y9249D02*
X8584Y9809D01*
X8154Y9166D02*
X8584Y9597D01*
X8534Y8486D02*
X8584Y8536D01*
X8304Y8680D02*
X8584Y8961D01*
X8319Y10188D02*
X8584Y9922D01*
X9229Y10029D02*
X9361Y10161D01*
X8584Y10029D02*
X9875D01*
X9441D02*
X9528Y10117D01*
X9446Y10121D02*
X9538Y10029D01*
X9627Y10152D02*
X9750Y10029D01*
X5835Y10338D02*
X7493Y8680D01*
X5760Y10201D02*
X6676Y9285D01*
X5464Y9022D02*
X6767Y10325D01*
X6553Y10257D02*
X7740Y9069D01*
X7132Y10314D02*
X7344Y10102D01*
X5791Y8925D02*
X7897Y11031D01*
X5464Y9870D02*
X6625Y11031D01*
X5990D02*
X7190Y9831D01*
X6553Y10323D02*
X6850Y10620D01*
X6819Y8680D02*
X8341Y10202D01*
X7005Y9078D02*
X8125Y10198D01*
X7050Y10608D02*
X8584Y9073D01*
X7649Y9934D02*
X8046Y10331D01*
X7566Y10064D02*
X8130Y10627D01*
X7031Y8680D02*
X9332Y10981D01*
X5940Y8862D02*
X8110Y11031D01*
X7050Y10820D02*
X8584Y9286D01*
X7263Y11031D02*
X8584Y9710D01*
X7051Y11031D02*
X8584Y9498D01*
X7404Y11102D02*
X8068Y10439D01*
X7405Y10115D02*
X8130Y10840D01*
X6480Y10462D02*
X6850Y10832D01*
X6330Y10525D02*
X6837Y11031D01*
X6467D02*
X6850D01*
X7050Y10533D02*
Y11031D01*
X6627D02*
X6850Y10808D01*
Y10533D02*
Y11031D01*
X6117Y11116D02*
X6790Y10443D01*
X6117Y11328D02*
X6850Y10596D01*
X7050Y10820D02*
X7261Y11031D01*
X7404D02*
Y11875D01*
X7050Y11031D02*
X7404D01*
Y11811D02*
X7468Y11875D01*
X7404Y11599D02*
X7681Y11875D01*
X7105Y10451D02*
X7754Y11100D01*
X7050Y10608D02*
X7754Y11312D01*
X7404Y11314D02*
X8130Y10589D01*
X7899Y11031D02*
X8130Y10801D01*
X7404Y11175D02*
X7754Y11524D01*
Y11031D02*
X8130D01*
X7404Y11526D02*
X7754Y11177D01*
X7404Y11738D02*
X7754Y11389D01*
X7404Y11387D02*
X7754Y11737D01*
X7480Y11875D02*
X7754Y11601D01*
Y11031D02*
Y11875D01*
X7404D02*
X7754D01*
X7692D02*
X7754Y11813D01*
X8330Y10601D02*
X8901Y10029D01*
X8330Y10813D02*
X9114Y10029D01*
X9017D02*
X9274Y10286D01*
X8410Y10308D02*
X8689Y10029D01*
X8378Y10239D02*
X9120Y10981D01*
X8330Y11025D02*
X9326Y10029D01*
X8130Y10533D02*
Y11031D01*
X8330Y10533D02*
Y11031D01*
X8536D02*
X9271Y10296D01*
X8382Y10455D02*
X8981Y11054D01*
X8692Y11088D02*
X9302Y10477D01*
X9653Y10029D02*
X9875Y10251D01*
X9733Y10322D02*
X9875Y10463D01*
X9721Y10270D02*
X9875Y10116D01*
X8592Y10029D02*
X9400Y10837D01*
X8805Y10029D02*
X9400Y10625D01*
X9600Y10603D02*
X9875Y10328D01*
Y10029D02*
Y10981D01*
X9689Y10489D02*
X9875Y10675D01*
X8330Y10615D02*
X8981Y11267D01*
X8330Y10827D02*
X8534Y11031D01*
X8330D02*
X8692D01*
Y11300D02*
X8981Y11010D01*
X8692Y11512D02*
X8981Y11222D01*
X8692Y11189D02*
X8981Y11479D01*
X8692Y11031D02*
Y11875D01*
Y11825D02*
X8741Y11875D01*
X8692Y11724D02*
X8981Y11434D01*
X8692Y11613D02*
X8953Y11875D01*
X8981Y10981D02*
Y11875D01*
X8692D02*
X8981D01*
X8753D02*
X8981Y11646D01*
X9010Y10981D02*
X9400Y10591D01*
X8981Y10981D02*
X9400D01*
X9222D02*
X9400Y10803D01*
X9600Y10816D02*
X9875Y10541D01*
X9400Y10563D02*
Y10981D01*
X9600Y10612D02*
X9875Y10888D01*
X8981Y11010D02*
X9010Y10981D01*
X8692Y11401D02*
X8981Y11691D01*
X9600Y10563D02*
Y10981D01*
X9646D02*
X9875Y10753D01*
X9600Y10825D02*
X9757Y10981D01*
X9600D02*
X9875D01*
D11*
X847Y1977D02*
G03*
X800Y2090I-159J0D01*
G01*
X760Y2187D02*
G03*
X800Y2090I137J0D01*
G01*
X1100Y2180D02*
G03*
X1178Y1992I266J0D01*
G01*
X1673Y1329D02*
G03*
X1555Y1615I-404J0D01*
G01*
X6100Y4860D02*
G03*
X5940Y5020I-160J0D01*
G01*
X5930Y5900D02*
G03*
X6030Y5859I100J100D01*
G01*
X6055Y6293D02*
G03*
X5880Y6220I0J-248D01*
G01*
X1420Y4021D02*
G03*
X1350Y4190I-239J0D01*
G01*
D02*
G03*
X1181Y4260I-169J-169D01*
G01*
X2225Y2205D02*
G03*
X1778Y2390I-448J-448D01*
G01*
X2480Y1590D02*
G03*
X2225Y2205I-869J0D01*
G01*
X7540Y5430D02*
X7634Y5524D01*
X7880Y5430D02*
Y5820D01*
X7840Y5860D02*
X7880Y5820D01*
X7634Y5860D02*
X7840D01*
X7900Y6326D02*
Y6579D01*
X7854Y6280D02*
X7900Y6326D01*
X7627Y6280D02*
X7854D01*
X7634Y5524D02*
Y5860D01*
X7627Y5867D02*
X7634Y5860D01*
X7627Y5867D02*
Y6280D01*
X760Y2187D02*
Y3000D01*
X847Y1240D02*
Y1977D01*
X760Y3000D02*
X1103D01*
X3720Y3900D02*
X4060Y4240D01*
X3670Y3900D02*
X3720D01*
X3360Y2640D02*
Y2643D01*
X3754Y3037D01*
X4161Y2630D02*
X4170D01*
X3754Y3037D02*
X4161Y2630D01*
X1415Y5814D02*
Y6580D01*
X785Y6785D02*
Y7215D01*
X5720Y7590D02*
X6140D01*
X5155D02*
X5720D01*
X790Y4260D02*
X1181D01*
X1420Y2390D02*
Y3590D01*
Y2390D02*
X1778D01*
X1178Y1992D02*
X1370Y1800D01*
X6097Y1248D02*
X8238D01*
X2530Y8434D02*
X3180D01*
Y7650D02*
Y8040D01*
Y7580D02*
X3610D01*
X700Y8910D02*
X2505D01*
X4803Y8920D02*
Y9140D01*
Y8603D02*
Y8920D01*
X4800Y8600D02*
X4803Y8603D01*
X4800Y8180D02*
Y8600D01*
X6720Y7590D02*
X7290D01*
X6140D02*
X6720D01*
X4803Y9140D02*
Y9650D01*
X780Y7220D02*
X785Y7215D01*
X3610Y7580D02*
X4830D01*
X7290Y7590D02*
X7990D01*
X6097Y1654D02*
Y3201D01*
X6100Y3590D02*
Y4110D01*
X2505Y8920D02*
X4803D01*
X1417Y2390D02*
X1420D01*
X1370Y1800D02*
X1555Y1615D01*
X1100Y2387D02*
X1103Y2390D01*
X1100Y2180D02*
Y2387D01*
X1673Y1220D02*
Y1329D01*
X6100Y4537D02*
Y4860D01*
X5600Y5020D02*
X5940D01*
X6499Y5859D02*
X6990D01*
X6499Y6293D02*
X6990D01*
Y5860D02*
X7240D01*
X6030Y5859D02*
X6499D01*
X6055Y6293D02*
X6499D01*
X6990D02*
X7240D01*
X1420Y3590D02*
Y4021D01*
X1980Y930D02*
X3000D01*
X2480Y940D02*
Y1590D01*
X785Y5814D02*
Y6785D01*
D12*
X6650Y8290D02*
G03*
X6640Y8300I-10J0D01*
G01*
X6260D02*
G03*
X6140Y8180I0J-120D01*
G01*
X7990Y8170D02*
G03*
X7910Y8250I-80J0D01*
G01*
X3393Y6057D02*
G03*
X3120Y6170I-273J-273D01*
G01*
X3664Y5786D02*
G03*
X3920Y5680I256J256D01*
G01*
X3377Y6303D02*
G03*
X3070Y6430I-307J-307D01*
G01*
X1415Y5529D02*
G03*
X1460Y5420I154J0D01*
G01*
D02*
G03*
X1532Y5390I72J72D01*
G01*
X3003Y5318D02*
G03*
X3313Y5190I310J310D01*
G01*
X3003Y5318D02*
G03*
X2830Y5390I-173J-173D01*
G01*
X2980Y5150D02*
G03*
X2883Y5190I-97J-97D01*
G01*
X2980Y5150D02*
G03*
X3263Y5033I283J283D01*
G01*
X5930Y5900D02*
G03*
X5755Y5973I-175J-175D01*
G01*
X5675Y6135D02*
G03*
X5880Y6220I0J290D01*
G01*
X3540Y5570D02*
G03*
X3697Y5505I157J157D01*
G01*
X3351Y5759D02*
G03*
X3180Y5830I-171J-171D01*
G01*
X3158Y6712D02*
G03*
X3090Y6740I-68J-68D01*
G01*
X2870Y5830D02*
X3180D01*
X2760Y6740D02*
X3090D01*
X3100Y6170D02*
X3120D01*
X6260Y8300D02*
X6640D01*
X6140Y7984D02*
Y8180D01*
X7620Y8250D02*
X7910D01*
X7990Y7984D02*
Y8170D01*
X2660Y7580D02*
X3180D01*
X3412Y5348D02*
X3910D01*
X2590Y7650D02*
X2660Y7580D01*
X3393Y6057D02*
X3664Y5786D01*
X2520Y6430D02*
X3070D01*
X3377Y6303D02*
X3810Y5870D01*
X1415Y5529D02*
Y5814D01*
X1532Y5390D02*
X2830D01*
X2234Y5190D02*
X2883D01*
X3351Y5759D02*
X3540Y5570D01*
X3158Y6712D02*
X3871Y5999D01*
X310Y250D02*
Y460D01*
Y250D02*
X520D01*
X609Y920D02*
X847D01*
X1260Y505D02*
Y920D01*
Y1335D01*
X528Y5066D02*
X785D01*
X1043D01*
X785Y4809D02*
Y5066D01*
Y5323D01*
X1673Y505D02*
Y664D01*
X2080Y1240D02*
Y1450D01*
X2480Y430D02*
Y640D01*
X3000Y430D02*
Y640D01*
X3320Y400D02*
X3530D01*
X3000Y640D02*
X3202D01*
X3350Y1080D02*
X3560D01*
X1750Y4040D02*
Y4250D01*
X1960D01*
X1750D02*
Y4460D01*
X2160Y2600D02*
Y2810D01*
X1950D02*
X2160D01*
Y3020D01*
Y2810D02*
X2370D01*
X1080Y6588D02*
Y6790D01*
X1290D01*
X1620Y6470D02*
X1830D01*
Y6260D02*
Y6470D01*
Y6680D01*
X1080Y7220D02*
X1290D01*
X1830Y6470D02*
X2040D01*
X2020Y8190D02*
Y8400D01*
X1810D02*
X2020D01*
X2230D01*
X2225Y7642D02*
X2392D01*
Y7475D02*
Y7642D01*
X2660Y5830D02*
X2870D01*
Y6040D01*
Y5620D02*
Y5830D01*
X2550Y6740D02*
X2760D01*
X2978Y7281D02*
X3180D01*
Y7071D02*
Y7281D01*
X2020Y8400D02*
Y8610D01*
X2400Y9820D02*
Y10030D01*
Y10240D01*
X2190Y10030D02*
X2400D01*
X2610D01*
X3440Y10070D02*
X3650D01*
X3530Y190D02*
Y400D01*
X3740D01*
X3530D02*
Y610D01*
X3560Y870D02*
Y1080D01*
X4270Y390D02*
X4480D01*
X3560Y1080D02*
Y1290D01*
Y1080D02*
X3770D01*
X4480Y390D02*
Y600D01*
Y390D02*
X4690D01*
X4480Y180D02*
Y390D01*
X4458Y652D02*
Y860D01*
Y1068D01*
Y860D02*
X4667D01*
X3610Y7071D02*
Y7281D01*
X4345Y6292D02*
Y6434D01*
X3610Y7281D02*
X3812D01*
X4240Y7870D02*
X4450D01*
X4660D01*
X4450D02*
Y8080D01*
X4817Y6292D02*
Y6434D01*
X4890Y6690D02*
Y6900D01*
X4975Y6292D02*
Y6434D01*
X7627Y6280D02*
Y6522D01*
X7690Y6579D02*
X7900D01*
Y6789D01*
X6518Y7889D02*
X6720D01*
X6922D01*
X7290D02*
Y8099D01*
X7088Y7889D02*
X7290D01*
X7492D01*
X8540Y5150D02*
X8750D01*
X8960D01*
X8548Y5740D02*
X8750D01*
X8952D01*
X9130Y5420D02*
X9340D01*
Y5210D02*
Y5420D01*
X9550D01*
X9138Y5740D02*
X9340D01*
X9542D01*
X9380Y7225D02*
Y7433D01*
X9172Y7225D02*
X9380D01*
X9300Y7836D02*
Y8920D01*
X9380Y7225D02*
X9588D01*
X9690Y7370D02*
Y7580D01*
Y7790D01*
X9480Y7580D02*
X9690D01*
X3660Y9330D02*
X3870D01*
Y9120D02*
Y9330D01*
Y9540D01*
Y9330D02*
X4080D01*
X5099Y7978D02*
Y8180D01*
X5309D01*
X6140Y7984D02*
X6382D01*
X5780Y8480D02*
Y8690D01*
X5099Y8600D02*
Y8802D01*
Y8600D02*
X5309D01*
X5197Y8898D02*
Y9140D01*
Y9650D02*
X5439D01*
X5197Y9140D02*
X5439D01*
X5197Y9650D02*
Y9892D01*
X5570Y8690D02*
X5780D01*
X5990D01*
X5780D02*
Y8900D01*
X3650Y9860D02*
Y10070D01*
Y10280D01*
Y10070D02*
X3860D01*
X4800Y10230D02*
X5010D01*
Y10020D02*
Y10230D01*
X5220D01*
X5010D02*
Y10440D01*
X6320Y10080D02*
Y10290D01*
X6530D01*
X6320D02*
Y10500D01*
X6110Y10290D02*
X6320D01*
X6650Y8290D02*
X6860D01*
X7620Y8040D02*
Y8250D01*
X7410D02*
X7620D01*
X6770Y9070D02*
Y9280D01*
X6560Y9070D02*
X6770D01*
Y8860D02*
Y9070D01*
X6980D01*
X7420Y9880D02*
X7630D01*
X7420Y9670D02*
Y9880D01*
Y10090D01*
X7210Y9880D02*
X7420D01*
X7748Y7984D02*
X7990D01*
X8232D01*
X7760Y9020D02*
X7970D01*
Y8810D02*
Y9020D01*
Y9230D01*
Y9020D02*
X8180D01*
X8609Y8920D02*
X9300D01*
Y10004D01*
X9500Y10140D02*
Y10350D01*
X9290D02*
X9500D01*
X9710D01*
X9006Y11500D02*
X9500D01*
D13*
X3141Y3649D02*
G03*
X3142Y3649I221J221D01*
G01*
X3050Y3870D02*
G03*
X3141Y3649I313J0D01*
G01*
X3150Y4130D02*
G03*
X3050Y3889I241J-241D01*
G01*
X3712Y4600D02*
G03*
X3555Y4535I0J-223D01*
G01*
X4703Y4003D02*
G03*
X4830Y4310I-307J307D01*
G01*
Y4500D01*
X3142Y3649D02*
X3280Y3510D01*
X3150Y4130D02*
X3320Y4300D01*
X3050Y3870D02*
Y3889D01*
X3320Y4300D02*
X3555Y4535D01*
X3712Y4600D02*
X4120D01*
X4155Y3455D02*
X4703Y4003D01*
D14*
X4155Y3455D02*
D03*
D15*
X8042Y5130D02*
G03*
X8210Y5200I0J238D01*
G01*
D02*
G03*
X8230Y5248I-48J48D01*
G01*
X4143Y860D02*
Y1540D01*
X4560D02*
Y1913D01*
X1956Y5066D02*
X2070Y5180D01*
X1415Y5066D02*
X1956D01*
X8750Y5150D02*
Y5740D01*
X2070Y5180D02*
X2210D01*
X8230Y5600D02*
Y5963D01*
Y5248D02*
Y5600D01*
X7540Y5130D02*
X8042D01*
D16*
X7240Y5860D02*
D03*
X7634D02*
D03*
X7233Y6280D02*
D03*
X7627D02*
D03*
X6093Y2170D02*
D03*
X6487D02*
D03*
X4803Y9140D02*
D03*
X5197D02*
D03*
X4803Y9650D02*
D03*
X5197D02*
D03*
D17*
X3180Y8040D02*
D03*
Y8434D02*
D03*
X6100Y4143D02*
D03*
Y4537D02*
D03*
D18*
X9581Y1250D02*
D03*
X8240D02*
D03*
D19*
X6097Y3595D02*
D03*
Y3201D02*
D03*
X6140Y7590D02*
D03*
Y7984D02*
D03*
X7990Y7590D02*
D03*
Y7984D02*
D03*
D20*
X700Y8910D02*
D03*
X9300Y8920D02*
D03*
D21*
X2392Y7642D02*
D03*
Y7838D02*
D03*
X2588Y7642D02*
D03*
Y7838D02*
D03*
D22*
X8223Y11500D02*
D03*
X4361D02*
D03*
X6936D02*
D03*
X5649D02*
D03*
X1787D02*
D03*
X500D02*
D03*
X9500D02*
D03*
X3074D02*
D03*
D23*
X6097Y1654D02*
D03*
Y1248D02*
D03*
D24*
X6503Y2670D02*
D03*
X6097D02*
D03*
X5200Y7590D02*
D03*
X4795D02*
D03*
D25*
X4560Y1540D02*
D03*
X4143D02*
D03*
D26*
X6499Y5859D02*
D03*
Y6293D02*
D03*
D27*
X4143Y3427D02*
D03*
X3670Y3900D02*
D03*
X3280Y3510D02*
D03*
X3754Y3037D02*
D03*
D28*
X1415Y5066D02*
D03*
Y5814D02*
D03*
X785D02*
D03*
Y5066D02*
D03*
D29*
X1260Y920D02*
D03*
D30*
X1673Y664D02*
D03*
Y920D02*
D03*
Y1176D02*
D03*
X847Y664D02*
D03*
Y920D02*
D03*
Y1176D02*
D03*
D31*
X8230Y6277D02*
D03*
Y5963D02*
D03*
X9380Y6910D02*
D03*
Y7225D02*
D03*
X8770D02*
D03*
Y6910D02*
D03*
D32*
X1105Y3590D02*
D03*
X1420D02*
D03*
X1417Y3000D02*
D03*
X1103D02*
D03*
X1417Y2390D02*
D03*
X1103D02*
D03*
X4143Y860D02*
D03*
X4458D02*
D03*
D33*
X3610Y7281D02*
D03*
Y7580D02*
D03*
X7540Y5430D02*
D03*
Y5130D02*
D03*
X3180Y7281D02*
D03*
Y7580D02*
D03*
X7290Y7889D02*
D03*
Y7590D02*
D03*
X6720Y7889D02*
D03*
Y7590D02*
D03*
X9340Y5740D02*
D03*
Y6040D02*
D03*
X3000Y640D02*
D03*
Y940D02*
D03*
X2480Y640D02*
D03*
Y940D02*
D03*
X8750Y5740D02*
D03*
Y6040D02*
D03*
D34*
X780Y6790D02*
D03*
X1080D02*
D03*
X780Y7220D02*
D03*
X1080D02*
D03*
X5099Y8180D02*
D03*
X4800D02*
D03*
X5099Y8600D02*
D03*
X4800D02*
D03*
D35*
X4503Y5190D02*
D03*
X4660D02*
D03*
X5132Y5820D02*
D03*
X4660Y6135D02*
D03*
X4817D02*
D03*
X4975D02*
D03*
X4660Y6292D02*
D03*
X4188D02*
D03*
X4345D02*
D03*
X4503D02*
D03*
X4817D02*
D03*
X4975D02*
D03*
X5132D02*
D03*
X5290D02*
D03*
X4188Y6135D02*
D03*
X4345D02*
D03*
X4503D02*
D03*
X5132D02*
D03*
X5290D02*
D03*
X4188Y5977D02*
D03*
X4345D02*
D03*
X4503D02*
D03*
X4660D02*
D03*
X4817D02*
D03*
X4975D02*
D03*
X5132D02*
D03*
X4188Y5820D02*
D03*
X4345D02*
D03*
X4503D02*
D03*
X4660D02*
D03*
X4817D02*
D03*
X4975D02*
D03*
X4345Y5663D02*
D03*
X4503D02*
D03*
X4660D02*
D03*
X4817D02*
D03*
X4975D02*
D03*
X5132D02*
D03*
X5290D02*
D03*
X4188Y5505D02*
D03*
X4345D02*
D03*
X4503D02*
D03*
X4660D02*
D03*
X4817D02*
D03*
X4975D02*
D03*
X5132D02*
D03*
X5290D02*
D03*
X4188Y5348D02*
D03*
X4345D02*
D03*
X4503D02*
D03*
X4660D02*
D03*
X4817D02*
D03*
X4975D02*
D03*
X5132D02*
D03*
X5290D02*
D03*
X4188Y5190D02*
D03*
X4817D02*
D03*
X4975D02*
D03*
X5132D02*
D03*
X4188Y5033D02*
D03*
X4503D02*
D03*
X4975D02*
D03*
X5132D02*
D03*
D36*
X6990Y6580D02*
D03*
Y5510D02*
D03*
X4703Y4003D02*
D03*
X3320Y4300D02*
D03*
D37*
X2505Y8910D02*
Y8920D01*
Y8415D02*
Y8910D01*
X2498Y8150D02*
Y8402D01*
D38*
X4450Y7870D02*
D03*
X2160Y2810D02*
D03*
X3560Y1080D02*
D03*
X3530Y400D02*
D03*
X310Y250D02*
D03*
X9690Y7580D02*
D03*
X7900Y6579D02*
D03*
X760Y3000D02*
D03*
X4060Y4240D02*
D03*
X3360Y2640D02*
D03*
X4170Y2630D02*
D03*
X2870Y5830D02*
D03*
X2760Y6740D02*
D03*
X3100Y6170D02*
D03*
X1410Y6580D02*
D03*
X5720Y7590D02*
D03*
Y6950D02*
D03*
X4890Y6690D02*
D03*
X4400Y6950D02*
D03*
X5708Y5505D02*
D03*
X8530Y7630D02*
D03*
X9340Y6340D02*
D03*
X7880Y5430D02*
D03*
X6720Y4400D02*
D03*
X4480Y390D02*
D03*
X7440Y620D02*
D03*
X6820Y830D02*
D03*
X7270Y2340D02*
D03*
X7950Y3000D02*
D03*
X9450Y3360D02*
D03*
X8490Y2620D02*
D03*
X9420Y3940D02*
D03*
X9460Y2730D02*
D03*
X8710Y3620D02*
D03*
X9430Y4500D02*
D03*
X8800Y4470D02*
D03*
X7930Y4540D02*
D03*
X7330Y3960D02*
D03*
X6860Y3400D02*
D03*
X7530Y3450D02*
D03*
X8000Y3950D02*
D03*
X7140Y2890D02*
D03*
X7420Y1680D02*
D03*
X6820Y1670D02*
D03*
X5450Y1510D02*
D03*
X5490Y4130D02*
D03*
X5470Y3480D02*
D03*
X5480Y2750D02*
D03*
Y2140D02*
D03*
X5440Y910D02*
D03*
X5988Y754D02*
D03*
X6300Y370D02*
D03*
X6930D02*
D03*
X8750Y5150D02*
D03*
X5210Y4610D02*
D03*
X790Y4260D02*
D03*
X1750Y4250D02*
D03*
X2080Y1240D02*
D03*
X1830Y6470D02*
D03*
X2020Y8400D02*
D03*
X2400Y10030D02*
D03*
X3870Y9330D02*
D03*
X3650Y10070D02*
D03*
X5010Y10230D02*
D03*
X6320Y10290D02*
D03*
X7420Y9880D02*
D03*
X5780Y8690D02*
D03*
X6770Y9070D02*
D03*
X7970Y9020D02*
D03*
X6650Y8290D02*
D03*
X7620Y8250D02*
D03*
X9340Y5420D02*
D03*
X790Y6480D02*
D03*
X4560Y1913D02*
D03*
X9500Y10350D02*
D03*
X8230D02*
D03*
X6950D02*
D03*
X5650D02*
D03*
X4360D02*
D03*
X3070D02*
D03*
X1770D02*
D03*
X2210Y5180D02*
D03*
X5588Y416D02*
D03*
X1370Y1800D02*
D03*
X3360Y5380D02*
D03*
X2520Y6430D02*
D03*
X4503Y4523D02*
D03*
X8230Y5600D02*
D03*
X7700Y6940D02*
D03*
M02*
