G04 Layer_Color=8421504*
%FSLAX25Y25*%
%MOIN*%
G70*
G01*
G75*
%ADD17R,0.02835X0.02835*%
%ADD18R,0.02835X0.02835*%
%ADD19C,0.01968*%
%ADD20R,0.07874X0.07874*%
%ADD21R,0.02913X0.02874*%
%ADD22R,0.02874X0.02913*%
%ADD23R,0.02756X0.01968*%
%ADD24R,0.01968X0.03937*%
G04:AMPARAMS|DCode=25|XSize=47.24mil|YSize=43.31mil|CornerRadius=0mil|HoleSize=0mil|Usage=FLASHONLY|Rotation=45.000|XOffset=0mil|YOffset=0mil|HoleType=Round|Shape=Rectangle|*
%AMROTATEDRECTD25*
4,1,4,-0.00139,-0.03202,-0.03202,-0.00139,0.00139,0.03202,0.03202,0.00139,-0.00139,-0.03202,0.0*
%
%ADD25ROTATEDRECTD25*%

%ADD26R,0.03150X0.03150*%
%ADD27R,0.03937X0.06299*%
%ADD28R,0.02756X0.01181*%
%ADD29R,0.02913X0.05905*%
%ADD30R,0.02559X0.02559*%
%ADD31R,0.02559X0.02559*%
%ADD33O,0.03150X0.00787*%
%ADD34O,0.00787X0.03150*%
%ADD35R,0.11811X0.19685*%
%ADD45C,0.01417*%
G36*
X63065Y46828D02*
X54798D01*
Y55095D01*
X63065D01*
Y46828D01*
D02*
G37*
G36*
X52829D02*
X44561D01*
Y55095D01*
X52829D01*
Y46828D01*
D02*
G37*
G36*
X63065Y57064D02*
X54798D01*
Y65332D01*
X63065D01*
Y57064D01*
D02*
G37*
G36*
X52829D02*
X44561D01*
Y65332D01*
X52829D01*
Y57064D01*
D02*
G37*
D17*
X47900Y28000D02*
D03*
Y24063D02*
D03*
X43500Y27900D02*
D03*
Y23963D02*
D03*
X60865Y28514D02*
D03*
Y24577D02*
D03*
X61400Y75900D02*
D03*
Y79837D02*
D03*
X79900Y75900D02*
D03*
Y79837D02*
D03*
X36100Y79737D02*
D03*
Y75800D02*
D03*
X30000Y5432D02*
D03*
Y9369D02*
D03*
X24800Y5459D02*
D03*
Y9396D02*
D03*
X26800Y41532D02*
D03*
Y45469D02*
D03*
X30300Y68437D02*
D03*
Y64500D02*
D03*
X40900Y79737D02*
D03*
Y75800D02*
D03*
X67300Y79869D02*
D03*
Y75932D02*
D03*
X73400Y79869D02*
D03*
Y75932D02*
D03*
D18*
X60831Y14268D02*
D03*
X64768D02*
D03*
X48031Y91400D02*
D03*
X51968D02*
D03*
X48031Y96500D02*
D03*
X51968D02*
D03*
X40563Y4900D02*
D03*
X44500D02*
D03*
X10869Y67400D02*
D03*
X6932D02*
D03*
X10869Y71800D02*
D03*
X6932D02*
D03*
X51868Y81900D02*
D03*
X47932D02*
D03*
X51900Y86500D02*
D03*
X47963D02*
D03*
D19*
X79300Y52700D02*
D03*
X78300Y37100D02*
D03*
X50800Y30800D02*
D03*
X40700Y30700D02*
D03*
D20*
X82228Y114900D02*
D03*
X43614D02*
D03*
X69357D02*
D03*
X56486D02*
D03*
X17871D02*
D03*
X5100D02*
D03*
X94900D02*
D03*
X30743D02*
D03*
D21*
X60865Y9104D02*
D03*
Y5049D02*
D03*
D22*
X64928Y19268D02*
D03*
X60872D02*
D03*
X52002Y75900D02*
D03*
X47947D02*
D03*
D23*
X75400Y70300D02*
D03*
X79565D02*
D03*
D24*
X47900Y34200D02*
D03*
X43560D02*
D03*
D25*
X81797Y40603D02*
D03*
X86530Y45335D02*
D03*
X82633Y49233D02*
D03*
X77900Y44500D02*
D03*
D26*
X13400Y49900D02*
D03*
Y57380D02*
D03*
X7101D02*
D03*
Y49900D02*
D03*
D27*
X12600Y9200D02*
D03*
D28*
X16734Y6641D02*
D03*
Y9200D02*
D03*
Y11759D02*
D03*
X8466Y6641D02*
D03*
Y9200D02*
D03*
Y11759D02*
D03*
D29*
X95710Y5068D02*
D03*
X82300D02*
D03*
D30*
X14300Y24000D02*
D03*
X10363D02*
D03*
X14200Y30000D02*
D03*
X10263D02*
D03*
Y35900D02*
D03*
X14200D02*
D03*
X90168Y70300D02*
D03*
X86231D02*
D03*
X44600Y9200D02*
D03*
X40663D02*
D03*
D31*
X30800Y53037D02*
D03*
Y49100D02*
D03*
X23800Y49132D02*
D03*
Y53069D02*
D03*
X31800Y81863D02*
D03*
Y85800D02*
D03*
X60900Y32131D02*
D03*
Y36068D02*
D03*
D33*
X40034Y45843D02*
D03*
Y47418D02*
D03*
Y48993D02*
D03*
Y50568D02*
D03*
Y52143D02*
D03*
Y53717D02*
D03*
Y55292D02*
D03*
Y56867D02*
D03*
Y58442D02*
D03*
Y60017D02*
D03*
Y61591D02*
D03*
Y63166D02*
D03*
Y64741D02*
D03*
Y66316D02*
D03*
X67593D02*
D03*
Y64741D02*
D03*
Y63166D02*
D03*
Y61591D02*
D03*
Y60017D02*
D03*
Y58442D02*
D03*
Y56867D02*
D03*
Y55292D02*
D03*
Y53717D02*
D03*
Y52143D02*
D03*
Y50568D02*
D03*
Y48993D02*
D03*
Y47418D02*
D03*
Y45843D02*
D03*
D34*
X64050Y42300D02*
D03*
X62475D02*
D03*
X60900D02*
D03*
X59325D02*
D03*
X57750D02*
D03*
X56176D02*
D03*
X54601D02*
D03*
X53026D02*
D03*
X51451D02*
D03*
X49876D02*
D03*
X48302D02*
D03*
X46727D02*
D03*
X45152D02*
D03*
X43577D02*
D03*
X64050Y69859D02*
D03*
X62475D02*
D03*
X60900D02*
D03*
X59325D02*
D03*
X57750D02*
D03*
X56176D02*
D03*
X54601D02*
D03*
X53026D02*
D03*
X51451D02*
D03*
X49876D02*
D03*
X48302D02*
D03*
X46727D02*
D03*
X45152D02*
D03*
X43577D02*
D03*
D35*
X92900Y89200D02*
D03*
X7100Y89100D02*
D03*
D45*
X23916Y76416D02*
D03*
Y78384D02*
D03*
X25884Y76416D02*
D03*
Y78384D02*
D03*
M02*
