G04 Layer_Color=65535*
%FSLAX25Y25*%
%MOIN*%
G70*
G01*
G75*
%ADD15C,0.01000*%
%ADD16C,0.00600*%
D15*
X79803Y-29500D02*
G03*
X79803Y-29500I-1803J0D01*
G01*
X116000Y-10000D02*
X133000D01*
Y-22500D02*
Y-10000D01*
X116000Y-22500D02*
X133000D01*
X116000D02*
Y-10000D01*
X17000D02*
X34000D01*
Y-22500D02*
Y-10000D01*
X17000Y-22500D02*
X34000D01*
X17000D02*
Y-10000D01*
X16500Y-70500D02*
X33500D01*
Y-83000D02*
Y-70500D01*
X16500Y-83000D02*
X33500D01*
X16500D02*
Y-70500D01*
X116000D02*
X133000D01*
Y-83000D02*
Y-70500D01*
X116000Y-83000D02*
X133000D01*
X116000D02*
Y-70500D01*
X63000Y-44500D02*
X78000D01*
Y-29500D01*
X63000D02*
X78000D01*
X63000Y-44500D02*
Y-29500D01*
X80000Y-67500D02*
Y-61502D01*
X82999D01*
X83999Y-62502D01*
Y-64501D01*
X82999Y-65501D01*
X80000D01*
X81999D02*
X83999Y-67500D01*
X85998D02*
X87997D01*
X86998D01*
Y-61502D01*
X85998Y-62502D01*
X80110Y-55500D02*
Y-49502D01*
X83109D01*
X84109Y-50502D01*
Y-52501D01*
X83109Y-53501D01*
X80110D01*
X82110D02*
X84109Y-55500D01*
X90107D02*
X86108D01*
X90107Y-51501D01*
Y-50502D01*
X89107Y-49502D01*
X87108D01*
X86108Y-50502D01*
X100499Y-14502D02*
X99499Y-13502D01*
X97500D01*
X96500Y-14502D01*
Y-18500D01*
X97500Y-19500D01*
X99499D01*
X100499Y-18500D01*
Y-16501D01*
X98499D01*
X102498Y-19500D02*
Y-13502D01*
X106497Y-19500D01*
Y-13502D01*
X108496D02*
Y-19500D01*
X111495D01*
X112495Y-18500D01*
Y-14502D01*
X111495Y-13502D01*
X108496D01*
X40999Y-14002D02*
X39999Y-13002D01*
X38000D01*
X37000Y-14002D01*
Y-15001D01*
X38000Y-16001D01*
X39999D01*
X40999Y-17001D01*
Y-18000D01*
X39999Y-19000D01*
X38000D01*
X37000Y-18000D01*
X42998Y-13002D02*
Y-19000D01*
X45997D01*
X46997Y-18000D01*
Y-14002D01*
X45997Y-13002D01*
X42998D01*
X48996Y-19000D02*
Y-15001D01*
X50995Y-13002D01*
X52995Y-15001D01*
Y-19000D01*
Y-16001D01*
X48996D01*
X41499Y-74502D02*
X40499Y-73502D01*
X38500D01*
X37500Y-74502D01*
Y-75501D01*
X38500Y-76501D01*
X40499D01*
X41499Y-77501D01*
Y-78500D01*
X40499Y-79500D01*
X38500D01*
X37500Y-78500D01*
X47497Y-74502D02*
X46497Y-73502D01*
X44498D01*
X43498Y-74502D01*
Y-78500D01*
X44498Y-79500D01*
X46497D01*
X47497Y-78500D01*
X49496Y-73502D02*
Y-79500D01*
X53495D01*
X95500Y-74002D02*
Y-78001D01*
X97499Y-80000D01*
X99499Y-78001D01*
Y-74002D01*
X105497Y-75002D02*
X104497Y-74002D01*
X102498D01*
X101498Y-75002D01*
Y-79000D01*
X102498Y-80000D01*
X104497D01*
X105497Y-79000D01*
X111495Y-75002D02*
X110495Y-74002D01*
X108496D01*
X107496Y-75002D01*
Y-79000D01*
X108496Y-80000D01*
X110495D01*
X111495Y-79000D01*
X63550Y-18152D02*
Y-23150D01*
X64550Y-24150D01*
X66549D01*
X67549Y-23150D01*
Y-18152D01*
X69548Y-24150D02*
X71547D01*
X70548D01*
Y-18152D01*
X69548Y-19152D01*
X92099Y-22757D02*
X91099Y-21757D01*
X89100D01*
X88100Y-22757D01*
Y-26755D01*
X89100Y-27755D01*
X91099D01*
X92099Y-26755D01*
X94098Y-27755D02*
X96097D01*
X95098D01*
Y-21757D01*
X94098Y-22757D01*
D16*
X76461Y-69134D02*
Y-60866D01*
X64650Y-69134D02*
Y-60866D01*
X73311D02*
X76461D01*
X73508Y-69134D02*
X76461D01*
X64650D02*
X67799D01*
X64650Y-60866D02*
X67799D01*
X76461Y-56634D02*
Y-48366D01*
X64650Y-56634D02*
Y-48366D01*
X73311D02*
X76461D01*
X73508Y-56634D02*
X76461D01*
X64650D02*
X67799D01*
X64650Y-48366D02*
X67799D01*
X95634Y-34244D02*
Y-31095D01*
X87366Y-34244D02*
Y-31095D01*
Y-42906D02*
Y-39953D01*
X95634Y-42906D02*
Y-39756D01*
X87366Y-31095D02*
X95634D01*
X87366Y-42906D02*
X95634D01*
M02*
