G04 Layer_Physical_Order=1*
G04 Layer_Color=255*
%FSLAX24Y24*%
%MOIN*%
G70*
G01*
G75*
%ADD10R,0.0335X0.0551*%
%ADD11R,0.0512X0.0906*%
%ADD12R,0.0512X0.0276*%
%ADD13R,0.0551X0.0335*%
%ADD14R,0.0335X0.0197*%
%ADD15R,0.0906X0.0512*%
%ADD16R,0.0512X0.0315*%
%ADD17R,0.1181X0.0827*%
%ADD18C,0.0120*%
%ADD19C,0.0050*%
%ADD20C,0.0600*%
%ADD21R,0.0600X0.0600*%
%ADD22R,0.0600X0.0600*%
%ADD23C,0.1260*%
%ADD24C,0.0945*%
D10*
X22016Y15860D02*
D03*
X22704D02*
D03*
X22016Y14660D02*
D03*
X22704D02*
D03*
X8234Y11250D02*
D03*
X7546D02*
D03*
X7456Y14420D02*
D03*
X8144D02*
D03*
X6761Y13280D02*
D03*
X7450D02*
D03*
X6786Y12210D02*
D03*
X7474D02*
D03*
X4304Y11510D02*
D03*
X3616D02*
D03*
X4454Y13040D02*
D03*
X3766D02*
D03*
X18954Y9800D02*
D03*
X18266D02*
D03*
X18954Y8770D02*
D03*
X18266D02*
D03*
X11174Y9880D02*
D03*
X10486D02*
D03*
X11180Y8800D02*
D03*
X10491D02*
D03*
X7524Y9810D02*
D03*
X6836D02*
D03*
X7534Y8780D02*
D03*
X6846D02*
D03*
X14607Y9891D02*
D03*
X13918D02*
D03*
X14617Y8831D02*
D03*
X13928D02*
D03*
D11*
X21749Y13250D02*
D03*
X22930D02*
D03*
X11820Y5860D02*
D03*
X10639D02*
D03*
X15212Y5921D02*
D03*
X14031D02*
D03*
X8190Y5830D02*
D03*
X7009D02*
D03*
D12*
X10735Y7770D02*
D03*
Y7396D02*
D03*
Y7022D02*
D03*
X11680D02*
D03*
Y7770D02*
D03*
X7098Y7714D02*
D03*
Y7340D02*
D03*
Y6966D02*
D03*
X8042D02*
D03*
Y7714D02*
D03*
X14130Y7825D02*
D03*
Y7451D02*
D03*
Y7077D02*
D03*
X15075D02*
D03*
Y7825D02*
D03*
D13*
X5520Y12674D02*
D03*
Y11986D02*
D03*
D14*
X17476Y6814D02*
D03*
Y7326D02*
D03*
X18204Y7070D02*
D03*
Y7326D02*
D03*
Y6814D02*
D03*
D15*
X19430Y7650D02*
D03*
Y6469D02*
D03*
D16*
X2730Y12150D02*
D03*
Y12642D02*
D03*
D17*
X1647Y11146D02*
D03*
Y13646D02*
D03*
D18*
X9160Y16770D02*
X10750D01*
X8144Y15754D02*
X9160Y16770D01*
X8144Y14420D02*
Y15754D01*
X9940Y15150D02*
X10720D01*
X8070Y13280D02*
X9940Y15150D01*
X7450Y13280D02*
X8070D01*
X9160Y13490D02*
X10790D01*
X7880Y12210D02*
X9160Y13490D01*
X7474Y12210D02*
X7880D01*
X12920Y3100D02*
X14910D01*
X12920D02*
Y7060D01*
X6200Y3100D02*
X12920D01*
X23020Y8300D02*
Y11520D01*
X3600Y11374D02*
Y11910D01*
X3590Y3480D02*
X4010Y3060D01*
X3360Y12150D02*
X3600Y11910D01*
X2730Y12150D02*
X3360D01*
X3590Y11364D02*
X3600Y11374D01*
X4010Y3060D02*
X4820D01*
X3590D02*
X4010D01*
X6030Y1850D02*
X17360D01*
X4820Y3060D02*
X6030Y1850D01*
X3590Y3480D02*
Y5560D01*
Y11364D01*
X4880Y4420D02*
X6200Y3100D01*
X17360Y1850D02*
X17600Y2090D01*
Y2710D01*
Y2880D02*
X23020Y8300D01*
X17600Y2710D02*
Y2880D01*
X18324Y6496D02*
X19430D01*
X21260Y11860D02*
X21700Y12300D01*
X21260Y7700D02*
Y11860D01*
X21700Y12300D02*
X22740D01*
X20029Y6469D02*
X21260Y7700D01*
X19610Y5580D02*
X22040Y8010D01*
Y11340D01*
X23020Y11520D02*
X24910Y13410D01*
X22740Y12300D02*
X22930Y12490D01*
X17090Y18510D02*
X17790Y19210D01*
X17090Y17080D02*
Y18510D01*
X12630Y12620D02*
X17090Y17080D01*
X17790Y19210D02*
X23690D01*
X11060Y12620D02*
X12630D01*
X9690Y11250D02*
X11060Y12620D01*
X8234Y11250D02*
X9690D01*
X11480Y12230D02*
X13090D01*
X9620Y10370D02*
X11480Y12230D01*
X6980Y10370D02*
X9620D01*
X6836Y10226D02*
X6980Y10370D01*
X6836Y9810D02*
Y10226D01*
X6250Y14510D02*
X6761Y13999D01*
Y13280D02*
Y13999D01*
X4460Y14510D02*
X6250D01*
X5520Y13040D02*
Y13780D01*
Y12674D02*
Y13040D01*
X4454D02*
X5520D01*
X6310Y12210D02*
X6786D01*
X6086Y11986D02*
X6310Y12210D01*
X5520Y11986D02*
X6086D01*
X13090Y12230D02*
X18000Y17140D01*
X10486Y8405D02*
Y9880D01*
X14140Y11900D02*
X19000Y16760D01*
X11810Y11900D02*
X14140D01*
X10486Y10576D02*
X11810Y11900D01*
X19000Y16760D02*
Y16910D01*
X20000Y16945D02*
Y18280D01*
X19283Y16228D02*
X20000Y16945D01*
X19278Y16228D02*
X19283D01*
X13918Y10868D02*
X19278Y16228D01*
X13918Y9891D02*
Y10868D01*
X9440Y6500D02*
Y8820D01*
X9420Y6480D02*
X9440Y6500D01*
X9420Y6480D02*
X10040Y5860D01*
X9080Y3110D02*
Y7500D01*
X8866Y7714D02*
X9080Y7500D01*
X8042Y7714D02*
X8866D01*
X18266Y13916D02*
X20980Y16630D01*
X22704Y15860D02*
Y17486D01*
Y14660D02*
Y15860D01*
X22700Y17490D02*
X22704Y17486D01*
X20560Y14660D02*
X22016D01*
Y15860D01*
X19010Y5580D02*
X19610D01*
X7534Y8780D02*
X7563Y8751D01*
Y7087D02*
Y8751D01*
Y7087D02*
X7684Y6966D01*
X22930Y12490D02*
Y13250D01*
X19430Y6469D02*
X20029D01*
X12950Y7872D02*
X13344Y7478D01*
X12210Y7770D02*
X12920Y7060D01*
X11680Y7770D02*
X12210D01*
X13344Y7478D02*
X14104D01*
X14130Y7451D01*
X12950Y7872D02*
Y11110D01*
X5870Y5830D02*
X7009D01*
X5680Y6020D02*
X5870Y5830D01*
X5680Y6020D02*
Y6520D01*
X4880Y4420D02*
Y7990D01*
X10040Y5860D02*
X10639D01*
X23040Y10320D02*
X23050Y10330D01*
X16200Y2770D02*
X19010Y5580D01*
X23690Y19210D02*
X24910Y17990D01*
Y13410D02*
Y17990D01*
X20980Y16630D02*
X21000Y16650D01*
X20980Y16590D02*
Y16630D01*
X18000Y17140D02*
Y17990D01*
X7474Y12210D02*
X7546Y12139D01*
X24000Y16100D02*
X24010Y16110D01*
X24000Y15010D02*
Y16100D01*
X17940Y18050D02*
X18000Y17990D01*
X22930Y13940D02*
X24000Y15010D01*
X22930Y13250D02*
Y13940D01*
X22016Y14056D02*
Y14660D01*
X21749Y13789D02*
X22016Y14056D01*
X21749Y13250D02*
Y13789D01*
X14910Y3100D02*
X17476Y5666D01*
Y6814D01*
X16966D02*
X17476D01*
X15955Y7825D02*
X16966Y6814D01*
X15075Y7825D02*
X15955D01*
X10486Y9880D02*
Y10576D01*
X18266Y9800D02*
Y13916D01*
X7524Y9810D02*
X7534Y9800D01*
Y8780D02*
Y9800D01*
X6836Y8790D02*
X6846Y8780D01*
X6836Y8790D02*
Y9810D01*
X14607Y7187D02*
Y9891D01*
X6846Y8184D02*
Y8780D01*
X8042Y6698D02*
Y6966D01*
X7020Y6610D02*
X7098Y6688D01*
Y6966D01*
Y7340D01*
X3766Y13816D02*
X4460Y14510D01*
X3766Y13040D02*
Y13816D01*
X7546Y11450D02*
Y12139D01*
X7456Y13286D02*
Y14420D01*
X8144D02*
X8254Y14310D01*
X5530Y11620D02*
Y11886D01*
X5420Y11510D02*
X5530Y11620D01*
X4424Y11510D02*
X5420D01*
X3766Y12750D02*
Y13040D01*
X3658Y12642D02*
X3766Y12750D01*
X2730Y12642D02*
X3658D01*
X11750Y5930D02*
X11820Y5860D01*
X11750Y5930D02*
Y6952D01*
X11680Y7022D02*
X11750Y6952D01*
X10735Y5956D02*
Y7022D01*
Y7396D01*
X10639Y5860D02*
X10735Y5956D01*
X18460Y7650D02*
X19430D01*
X18204Y7394D02*
X18460Y7650D01*
X18204Y7326D02*
Y7394D01*
X18266Y8396D02*
Y8770D01*
X17476Y7606D02*
X18266Y8396D01*
X19430Y7650D02*
Y7960D01*
X18954Y8436D02*
X19430Y7960D01*
X18954Y8436D02*
Y8770D01*
Y9800D01*
X18266Y8770D02*
Y9800D01*
X17476Y7326D02*
Y7606D01*
X18204Y6616D02*
Y6814D01*
Y6616D02*
X18324Y6496D01*
X19430Y6469D02*
Y6496D01*
X18204Y6814D02*
Y7070D01*
X11180Y8800D02*
Y9874D01*
X11174Y9880D02*
X11180Y9874D01*
Y8800D02*
X11210Y8770D01*
Y7180D02*
Y8770D01*
Y7180D02*
X11368Y7022D01*
X11680D01*
X10486Y8405D02*
X10735Y8155D01*
Y7770D02*
Y8155D01*
X7684Y6966D02*
X8042D01*
X6846Y8184D02*
X7098Y7932D01*
Y7714D02*
Y7932D01*
X8190Y5830D02*
Y6550D01*
X8042Y6698D02*
X8190Y6550D01*
X7009Y5830D02*
X7020Y5841D01*
Y6610D01*
X14716Y7077D02*
X15075D01*
X14607Y7187D02*
X14716Y7077D01*
X14130Y7825D02*
Y8144D01*
X13928Y8346D02*
X14130Y8144D01*
X13928Y8346D02*
Y8831D01*
X13918Y9891D02*
X13928Y9881D01*
Y8831D02*
Y9881D01*
X14130Y6020D02*
Y7077D01*
Y7451D01*
X14031Y5921D02*
X14130Y6020D01*
X15192Y5941D02*
X15212Y5921D01*
X15192Y5941D02*
Y6701D01*
X15075Y6819D02*
X15192Y6701D01*
X15075Y6819D02*
Y7077D01*
D19*
X0Y21000D02*
X25000D01*
X0Y0D02*
X26000D01*
X0D02*
Y21000D01*
X25000D02*
X26000Y20000D01*
Y16000D02*
Y20000D01*
Y16000D02*
X27000Y15000D01*
Y1500D02*
Y15000D01*
X26000Y500D02*
X27000Y1500D01*
X26000Y0D02*
Y500D01*
D20*
X25000Y2060D02*
D03*
X24000D02*
D03*
X23000D02*
D03*
X22000D02*
D03*
X21000D02*
D03*
X1630Y1130D02*
D03*
X2630D02*
D03*
X1640Y4680D02*
D03*
Y6680D02*
D03*
Y5680D02*
D03*
X25070Y8330D02*
D03*
Y7330D02*
D03*
Y6330D02*
D03*
Y5330D02*
D03*
Y10330D02*
D03*
Y9330D02*
D03*
X1640Y18670D02*
D03*
Y17670D02*
D03*
X22000Y20000D02*
D03*
X21000D02*
D03*
X20000D02*
D03*
X19000D02*
D03*
X18000D02*
D03*
X24000D02*
D03*
X23000D02*
D03*
X15400D02*
D03*
X14400D02*
D03*
X13400D02*
D03*
X12400D02*
D03*
X11400D02*
D03*
X10400D02*
D03*
X9400D02*
D03*
X8400D02*
D03*
X7400D02*
D03*
X15000Y1000D02*
D03*
X14000D02*
D03*
X13000D02*
D03*
X12000D02*
D03*
X11000D02*
D03*
X17000D02*
D03*
X16000D02*
D03*
X21000D02*
D03*
X22000D02*
D03*
X23000D02*
D03*
X24000D02*
D03*
X25000D02*
D03*
D21*
X20000Y2060D02*
D03*
X3630Y1130D02*
D03*
X25000Y20000D02*
D03*
X16400D02*
D03*
X18000Y1000D02*
D03*
X20000D02*
D03*
D22*
X1640Y7680D02*
D03*
X25070Y11330D02*
D03*
X1640Y16670D02*
D03*
D23*
X6000Y20000D02*
D03*
D24*
X14030Y3110D02*
D03*
X3590Y5560D02*
D03*
Y3060D02*
D03*
X17600Y2710D02*
D03*
X22040Y11340D02*
D03*
X5520Y13780D02*
D03*
X10750Y16770D02*
D03*
X9440Y8820D02*
D03*
X22700Y17490D02*
D03*
X20560Y14660D02*
D03*
X12950Y11110D02*
D03*
X5680Y6520D02*
D03*
X23040Y10320D02*
D03*
X20980Y16590D02*
D03*
X19000Y16910D02*
D03*
X24010Y16110D02*
D03*
X20000Y18280D02*
D03*
X17940Y18050D02*
D03*
X10790Y13490D02*
D03*
X10720Y15150D02*
D03*
X4880Y7990D02*
D03*
X16200Y2770D02*
D03*
M02*
