M48
;Layer_Color=9474304
;FILE_FORMAT=2:5
INCH,LZ
;TYPE=PLATED
T1F00S00C0.03000
T2F00S00C0.04724
T3F00S00C0.12598
%
T01
X00163Y00113
X00263
X00363
X011Y001
X012
X013
X014
X015
X016
X017
X018
X02
X021
X022
X023
X024
X025
Y00206
X024
X023
X022
X021
X02
X02507Y00533
Y00633
Y00733
Y00833
Y00933
Y01033
Y01133
X00164Y00768
Y00668
Y00568
Y00468
Y01667
Y01767
Y01867
X0074Y02
X0084
X0094
X0104
X0114
X0124
X0134
X0144
X0154
X0164
X018
X019
X02
X021
X022
X023
X024
X025
T02
X00359Y00306
X01403Y00311
X0162Y00277
X0176Y00271
X02304Y01032
X02204Y01134
X02056Y01466
X02098Y01659
X0227Y01749
X02401Y01611
X02Y01828
X01794Y01805
X019Y01691
X01075Y01677
X01072Y01515
X01079Y01349
X01295Y01111
X00944Y00882
X00488Y00799
X00568Y00652
X00552Y01378
X00359Y00556
T03
X006Y02
M30
