G04 Layer_Physical_Order=2*
G04 Layer_Color=16711680*
%FSLAX24Y24*%
%MOIN*%
G70*
G01*
G75*
%ADD10C,0.0050*%
%ADD11C,0.0100*%
%ADD14C,0.0200*%
%ADD16C,0.0150*%
%ADD43C,0.0220*%
%ADD44C,0.0200*%
G36*
X2597Y6350D02*
X2596Y6348D01*
X2596Y6345D01*
X2595Y6317D01*
X2595Y6284D01*
X2445D01*
X2443Y6351D01*
X2597D01*
X2597Y6350D01*
D02*
G37*
G36*
X3180Y6312D02*
X3180Y6245D01*
X3027Y6252D01*
X3027Y6253D01*
X3028Y6256D01*
X3028Y6259D01*
X3029Y6271D01*
X3030Y6321D01*
X3180Y6312D01*
D02*
G37*
G36*
X4481Y1836D02*
X4480Y1837D01*
X4478Y1837D01*
X4475Y1837D01*
X4447Y1838D01*
X4414Y1838D01*
Y1988D01*
X4481Y1990D01*
Y1836D01*
D02*
G37*
G36*
X9375Y6510D02*
X9375Y6502D01*
X9377Y6493D01*
X9379Y6484D01*
X9383Y6474D01*
X9387Y6465D01*
X9393Y6455D01*
X9399Y6444D01*
X9415Y6423D01*
X9424Y6411D01*
X9270Y6425D01*
X9281Y6434D01*
X9290Y6443D01*
X9298Y6452D01*
X9305Y6461D01*
X9311Y6470D01*
X9316Y6479D01*
X9320Y6488D01*
X9323Y6497D01*
X9324Y6506D01*
X9325Y6515D01*
X9375Y6510D01*
D02*
G37*
G36*
X7027Y10270D02*
X7026Y10268D01*
X7026Y10265D01*
X7025Y10237D01*
X7025Y10204D01*
X6875D01*
X6873Y10271D01*
X7027D01*
X7027Y10270D01*
D02*
G37*
G36*
X5735Y10214D02*
X5585Y10195D01*
X5585Y10208D01*
X5581Y10263D01*
X5580Y10265D01*
X5734Y10279D01*
X5735Y10214D01*
D02*
G37*
G36*
X8619Y7697D02*
X8638Y7680D01*
X8648Y7674D01*
X8658Y7668D01*
X8667Y7663D01*
X8676Y7660D01*
X8685Y7657D01*
X8694Y7656D01*
X8703Y7655D01*
Y7605D01*
X8694Y7604D01*
X8685Y7603D01*
X8676Y7600D01*
X8667Y7597D01*
X8658Y7592D01*
X8648Y7586D01*
X8638Y7580D01*
X8629Y7572D01*
X8619Y7563D01*
X8609Y7553D01*
Y7707D01*
X8619Y7697D01*
D02*
G37*
D10*
X8405Y10350D02*
G03*
X8115Y10218I-175J0D01*
G01*
X8345D02*
G03*
X8405Y10350I-115J132D01*
G01*
X9735D02*
G03*
X9735Y10350I-235J0D01*
G01*
X7092Y10247D02*
G03*
X7125Y10350I-142J103D01*
G01*
D02*
G03*
X6807Y10249I-175J0D01*
G01*
X7655Y9880D02*
G03*
X7655Y9880I-235J0D01*
G01*
X6929Y9551D02*
G03*
X7090Y9940I-389J389D01*
G01*
X9885Y7711D02*
G03*
X9885Y7449I-195J-131D01*
G01*
X9440Y7250D02*
G03*
X8970Y7720I-470J0D01*
G01*
X9260Y7250D02*
G03*
X8970Y7540I-290J0D01*
G01*
X8649Y7758D02*
G03*
X8649Y7502I-119J-128D01*
G01*
X8115Y9205D02*
G03*
X8115Y8835I-145J-185D01*
G01*
X7005Y9070D02*
G03*
X7005Y9070I-235J0D01*
G01*
X7855Y8250D02*
G03*
X7855Y8250I-235J0D01*
G01*
X6885Y8290D02*
G03*
X6885Y8290I-235J0D01*
G01*
X6555Y10290D02*
G03*
X6555Y10290I-235J0D01*
G01*
X5825Y10350D02*
G03*
X5517Y10237I-175J0D01*
G01*
X5800Y10261D02*
G03*
X5825Y10350I-150J89D01*
G01*
X6731Y9749D02*
G03*
X6810Y9940I-191J191D01*
G01*
X5420Y9738D02*
G03*
X5520Y9980I-243J242D01*
G01*
X5618Y9540D02*
G03*
X5800Y9980I-441J440D01*
G01*
X4535Y10350D02*
G03*
X4195Y10292I-175J0D01*
G01*
X5245Y10230D02*
G03*
X5245Y10230I-235J0D01*
G01*
X4525Y10292D02*
G03*
X4535Y10350I-165J58D01*
G01*
X6344Y9530D02*
G03*
X6631Y9649I0J406D01*
G01*
X6344Y9250D02*
G03*
X6829Y9451I0J686D01*
G01*
X5994Y9530D02*
G03*
X5491Y9413I0J-1140D01*
G01*
X5994Y9250D02*
G03*
X5386Y8998I0J-860D01*
G01*
X6015Y8690D02*
G03*
X6015Y8690I-235J0D01*
G01*
X5873Y7526D02*
G03*
X5885Y7590I-163J64D01*
G01*
D02*
G03*
X5543Y7538I-175J0D01*
G01*
X4201Y8788D02*
G03*
X4525Y9570I-782J782D01*
G01*
X3968Y9021D02*
G03*
X4195Y9570I-549J549D01*
G01*
X4105Y9330D02*
G03*
X4105Y9330I-235J0D01*
G01*
X4685Y7870D02*
G03*
X4490Y8102I-235J0D01*
G01*
X4218Y7830D02*
G03*
X4685Y7870I232J40D01*
G01*
X9515Y6340D02*
G03*
X9478Y6447I-175J0D01*
G01*
X9223Y6470D02*
G03*
X9515Y6340I117J-130D01*
G01*
X8115Y6674D02*
G03*
X8115Y6484I-215J-95D01*
G01*
X5885Y6950D02*
G03*
X5873Y7014I-175J0D01*
G01*
Y6886D02*
G03*
X5885Y6950I-163J64D01*
G01*
X9575Y5420D02*
G03*
X9575Y5420I-235J0D01*
G01*
X8405Y5600D02*
G03*
X8345Y5732I-175J0D01*
G01*
X8115Y5430D02*
G03*
X8111Y5471I-235J0D01*
G01*
X8111Y5471D02*
G03*
X8405Y5600I119J129D01*
G01*
X8985Y5150D02*
G03*
X8569Y5000I-235J0D01*
G01*
X8931D02*
G03*
X8985Y5150I-181J150D01*
G01*
X8115Y5732D02*
G03*
X8056Y5586I115J-132D01*
G01*
X8056D02*
G03*
X8115Y5430I-176J-156D01*
G01*
X5883Y5505D02*
G03*
X5873Y5563I-175J0D01*
G01*
X5650Y5340D02*
G03*
X5883Y5505I58J165D01*
G01*
X5399Y5340D02*
G03*
X5375Y5300I21J-40D01*
G01*
X5125Y6690D02*
G03*
X5092Y6810I-235J0D01*
G01*
X4688D02*
G03*
X5125Y6690I202J-120D01*
G01*
X5047Y5340D02*
G03*
X5045Y5300I373J-40D01*
G01*
X4918Y5340D02*
G03*
X4668Y5090I0J-250D01*
G01*
X4678Y4523D02*
G03*
X4668Y4581I-175J0D01*
G01*
X4918Y5670D02*
G03*
X4338Y5090I0J-580D01*
G01*
X4505Y7090D02*
G03*
X4505Y6810I-105J-140D01*
G01*
X4338Y4581D02*
G03*
X4678Y4523I165J-58D01*
G01*
X4295Y4240D02*
G03*
X4295Y4240I-235J0D01*
G01*
X4810Y1675D02*
G03*
X5000Y1772I0J235D01*
G01*
X4810Y1345D02*
G03*
X5000Y1378I0J565D01*
G01*
X4457Y1772D02*
G03*
X4735Y1913I103J142D01*
G01*
D02*
G03*
X4459Y2056I-175J0D01*
G01*
X4715Y390D02*
G03*
X4715Y390I-235J0D01*
G01*
X4405Y2630D02*
G03*
X4405Y2630I-235J0D01*
G01*
X3235Y10292D02*
G03*
X3245Y10350I-165J58D01*
G01*
X3885Y10070D02*
G03*
X3885Y10070I-235J0D01*
G01*
X3245Y10350D02*
G03*
X2905Y10292I-175J0D01*
G01*
X2660Y8644D02*
G03*
X2905Y9234I-590J590D01*
G01*
X2894Y8410D02*
G03*
X3235Y9234I-824J824D01*
G01*
X2635Y10030D02*
G03*
X2635Y10030I-235J0D01*
G01*
X3629Y7241D02*
G03*
X3505Y6942I300J-299D01*
G01*
X3299Y7617D02*
G03*
X2966Y6853I806J-806D01*
G01*
X3535Y5380D02*
G03*
X3505Y5478I-175J0D01*
G01*
X2963Y6279D02*
G03*
X3225Y6048I137J-109D01*
G01*
X2966Y6853D02*
G03*
X2574Y6596I-206J-113D01*
G01*
X2468Y7055D02*
G03*
X2375Y6830I225J-225D01*
G01*
X2668Y6524D02*
G03*
X2965Y6625I92J216D01*
G01*
X3105Y5830D02*
G03*
X2660Y5935I-235J0D01*
G01*
Y5725D02*
G03*
X3105Y5830I210J105D01*
G01*
X2695Y6430D02*
G03*
X2668Y6524I-175J0D01*
G01*
X2662Y6327D02*
G03*
X2695Y6430I-142J103D01*
G01*
X2574Y6596D02*
G03*
X2375Y6528I-54J-166D01*
G01*
X1935Y10292D02*
G03*
X1945Y10350I-165J58D01*
G01*
D02*
G03*
X1605Y10292I-175J0D01*
G01*
X1360Y8721D02*
G03*
X1605Y9312I-590J590D01*
G01*
X1594Y8488D02*
G03*
X1935Y9312I-824J824D01*
G01*
X2255Y8400D02*
G03*
X2255Y8400I-235J0D01*
G01*
X793Y8154D02*
G03*
X625Y7748I406J-406D01*
G01*
X1027Y7921D02*
G03*
X955Y7748I173J-173D01*
G01*
X2235Y7288D02*
G03*
X2045Y6830I458J-458D01*
G01*
X1676Y7193D02*
G03*
X1575Y6948I246J-245D01*
G01*
X1443Y7427D02*
G03*
X1245Y6948I479J-479D01*
G01*
X1585Y6580D02*
G03*
X1575Y6638I-175J0D01*
G01*
X2045Y6565D02*
G03*
X2045Y6375I-215J-95D01*
G01*
X1575Y6522D02*
G03*
X1585Y6580I-165J58D01*
G01*
X1245Y6638D02*
G03*
X1245Y6522I165J-58D01*
G01*
X965Y6480D02*
G03*
X955Y6538I-175J0D01*
G01*
Y6422D02*
G03*
X965Y6480I-165J58D01*
G01*
X625Y6538D02*
G03*
X625Y6422I165J-58D01*
G01*
X3225Y5491D02*
G03*
X3535Y5380I135J-111D01*
G01*
X3595Y2640D02*
G03*
X3595Y2640I-235J0D01*
G01*
X2045Y5238D02*
G03*
X2045Y5122I165J-58D01*
G01*
X2380Y2893D02*
G03*
X2380Y2727I-220J-83D01*
G01*
X1687Y2623D02*
G03*
X2375Y4285I-1662J1662D01*
G01*
X1454Y2857D02*
G03*
X2045Y4284I-1429J1428D01*
G01*
X2660Y2280D02*
G03*
X2887Y2053I227J0D01*
G01*
X3795Y1080D02*
G03*
X3795Y1080I-235J0D01*
G01*
X3765Y400D02*
G03*
X3765Y400I-235J0D01*
G01*
X2380Y2280D02*
G03*
X2887Y1773I507J0D01*
G01*
X2315Y1240D02*
G03*
X2290Y1345I-235J0D01*
G01*
X1870D02*
G03*
X2315Y1240I210J-105D01*
G01*
X1985Y4250D02*
G03*
X1575Y4407I-235J0D01*
G01*
X965Y4260D02*
G03*
X955Y4318I-175J0D01*
G01*
Y4202D02*
G03*
X965Y4260I-165J58D01*
G01*
X1555Y4119D02*
G03*
X1985Y4250I195J131D01*
G01*
X1000Y3744D02*
G03*
X1245Y4334I-590J590D01*
G01*
X1234Y3510D02*
G03*
X1555Y4119I-824J824D01*
G01*
X625Y4318D02*
G03*
X625Y4202I165J-58D01*
G01*
X453Y3787D02*
G03*
X625Y4201I-414J414D01*
G01*
X687Y3553D02*
G03*
X955Y4201I-648J648D01*
G01*
X687Y3553D02*
G03*
X615Y3380I173J-173D01*
G01*
X753Y3497D02*
G03*
X615Y3267I394J-394D01*
G01*
X453Y3787D02*
G03*
X285Y3380I406J-406D01*
G01*
X1453Y2857D02*
G03*
X1205Y2257I600J-600D01*
G01*
X1687Y2623D02*
G03*
X1535Y2257I366J-366D01*
G01*
X925Y3097D02*
G03*
X922Y3130I-165J0D01*
G01*
X935Y3000D02*
G03*
X925Y3058I-175J0D01*
G01*
X987Y3263D02*
G03*
X922Y3130I161J-161D01*
G01*
X925Y3097D02*
G03*
X922Y3130I-165J0D01*
G01*
X615Y2902D02*
G03*
X935Y3000I145J98D01*
G01*
X1545Y1800D02*
G03*
X1535Y1858I-175J0D01*
G01*
X1492Y1675D02*
G03*
X1545Y1800I-122J125D01*
G01*
X615Y2280D02*
G03*
X1220Y1675I605J0D01*
G01*
X1205Y1858D02*
G03*
X1248Y1675I165J-58D01*
G01*
X285Y2280D02*
G03*
X1220Y1345I935J0D01*
G01*
X545Y250D02*
G03*
X115Y381I-235J0D01*
G01*
X502Y115D02*
G03*
X545Y250I-192J135D01*
G01*
X9350Y7250D02*
G03*
X8970Y7630I-380J0D01*
G01*
X9340Y6340D02*
G03*
X9350Y6350I0J10D01*
G01*
X9167Y11885D02*
X9885Y11167D01*
X9803Y11885D02*
X9885Y11803D01*
X8955Y11885D02*
X9885Y10955D01*
X8743Y11885D02*
X9885Y10743D01*
X8531Y11885D02*
X9885Y10531D01*
X9689Y10489D02*
X9885Y10685D01*
X9591Y11885D02*
X9885Y11591D01*
X9733Y10322D02*
X9885Y10473D01*
X9564Y10576D02*
X9885Y10898D01*
X8318Y11885D02*
X9885Y10318D01*
X9379Y11885D02*
X9885Y11379D01*
X8239Y10525D02*
X9600Y11885D01*
X8375Y10448D02*
X9812Y11885D01*
X8106D02*
X9420Y10571D01*
X7894Y11885D02*
X9302Y10477D01*
X8345Y9994D02*
X9885Y11534D01*
X8345Y10206D02*
X9885Y11746D01*
Y7711D02*
Y11885D01*
X8345Y9782D02*
X9885Y11322D01*
X8345Y9570D02*
X9885Y11110D01*
X9627Y10152D02*
X9885Y9894D01*
X9721Y10270D02*
X9885Y10106D01*
X9446Y10121D02*
X9885Y9682D01*
X8345Y10161D02*
X9885Y8621D01*
X8345Y8509D02*
X9885Y10049D01*
X8402Y10317D02*
X9885Y8834D01*
X8345Y9358D02*
X9274Y10286D01*
X8345Y8721D02*
X9885Y10261D01*
X8345Y8933D02*
X9528Y10117D01*
X8345Y9949D02*
X9885Y8409D01*
X8115Y9205D02*
Y10218D01*
X8345Y9145D02*
X9361Y10161D01*
X6834Y11885D02*
X8197Y10522D01*
X6621Y11885D02*
X8075Y10431D01*
X6553Y10323D02*
X8115Y11885D01*
X6480Y10462D02*
X7903Y11885D01*
X6409D02*
X8115Y10179D01*
X7682Y11885D02*
X9271Y10296D01*
X7098Y10444D02*
X8539Y11885D01*
X7405Y10115D02*
X9175Y11885D01*
X6966Y10524D02*
X8327Y11885D01*
X7091Y10225D02*
X8751Y11885D01*
X6330Y10525D02*
X7691Y11885D01*
X5808Y10426D02*
X7266Y11885D01*
X5800Y10207D02*
X7478Y11885D01*
X5561D02*
X6923Y10523D01*
X5239Y10282D02*
X6842Y11885D01*
X7091Y10203D02*
X7091Y10236D01*
X7123Y10323D02*
X7344Y10102D01*
X5690Y10520D02*
X7054Y11885D01*
X7470D02*
X9885Y9470D01*
X7566Y10064D02*
X9388Y11885D01*
X7258D02*
X9885Y9258D01*
X7090Y10012D02*
X8963Y11885D01*
X7046D02*
X9885Y9046D01*
X7005Y9078D02*
X8115Y10188D01*
X6197Y11885D02*
X8115Y9967D01*
X6664Y8525D02*
X8115Y9976D01*
X5985Y11885D02*
X8115Y9755D01*
X5773Y11885D02*
X8115Y9543D01*
X7649Y9934D02*
X8055Y10341D01*
X7090Y10144D02*
X7224Y10010D01*
X7090Y9940D02*
Y10197D01*
X7090Y9932D02*
X7190Y9831D01*
X8345Y8085D02*
X9885Y9625D01*
X8345Y9737D02*
X9885Y8197D01*
X8345Y9525D02*
X9885Y7985D01*
X8345Y8297D02*
X9885Y9837D01*
X8345Y8297D02*
X9885Y9837D01*
X8483Y7799D02*
X9885Y9200D01*
X9761Y7804D02*
X9885Y7928D01*
X8829Y7720D02*
X9885Y8776D01*
X8345Y7873D02*
X9885Y9413D01*
X8345Y9313D02*
X9885Y7773D01*
X8653Y7756D02*
X9885Y8988D01*
X8345Y9101D02*
X9637Y7809D01*
X9036Y7715D02*
X9885Y8564D01*
X8024Y9249D02*
X8115Y9340D01*
X8345Y8889D02*
X9507Y7727D01*
X8345Y8040D02*
X8591Y7794D01*
X8345Y7828D02*
X8413Y7760D01*
X8711Y7720D02*
X8970D01*
X8345Y8252D02*
X8877Y7720D01*
X8345Y8464D02*
X9111Y7698D01*
X9195Y7662D02*
X9885Y8352D01*
X9315Y7569D02*
X9885Y8140D01*
X9837Y7397D02*
X9885Y7349D01*
X9676Y7345D02*
X9885Y7136D01*
X9399Y7442D02*
X9466Y7509D01*
X9440Y7270D02*
X9556Y7387D01*
X8845Y7540D02*
X9260Y7125D01*
X8345Y8676D02*
X9455Y7566D01*
X8711Y7540D02*
X8970D01*
X9078Y7519D02*
X9239Y7358D01*
X8345Y7448D02*
X8405Y7508D01*
X8345Y7236D02*
X8568Y7459D01*
X7642Y9804D02*
X8115Y9331D01*
X7550Y9684D02*
X7979Y9255D01*
X7371Y9650D02*
X7820Y9201D01*
X6983Y9614D02*
X8115Y8482D01*
X8019Y8790D02*
X8115Y8694D01*
X7677Y8478D02*
X7985Y8785D01*
X7064Y9774D02*
X7185Y9895D01*
X7057Y9752D02*
X7740Y9069D01*
X6805Y9302D02*
X7236Y9734D01*
X6943Y9229D02*
X7366Y9651D01*
X6829Y9451D02*
X6929Y9551D01*
X6773Y9400D02*
X7703Y8470D01*
X6883Y8320D02*
X8115Y9552D01*
X6812Y8461D02*
X8115Y9764D01*
X6882Y9504D02*
X8115Y8270D01*
X6686Y8851D02*
X8115Y7422D01*
X6074Y9250D02*
X8115Y7209D01*
X7840Y8333D02*
X8115Y8058D01*
X7854Y8230D02*
X8115Y8491D01*
X7825Y8136D02*
X8115Y7846D01*
X7806Y8394D02*
X8115Y8703D01*
X7714Y8035D02*
X8115Y7634D01*
X6985Y8976D02*
X7506Y8455D01*
X6884Y8865D02*
X7405Y8344D01*
X5349Y11885D02*
X6798Y10436D01*
X5158Y10413D02*
X6630Y11885D01*
X4997Y10465D02*
X6418Y11885D01*
X5136D02*
X6808Y10213D01*
X6807Y10249D02*
X6809Y10202D01*
X6553Y10257D02*
X6810Y9999D01*
X5233Y10303D02*
X5520Y10017D01*
X5800Y10261D02*
X5801Y10215D01*
X5800Y10208D02*
Y10260D01*
Y9994D02*
X6085Y10280D01*
X5517Y10237D02*
X5519Y10206D01*
X5800Y9980D02*
Y10208D01*
X6184Y9530D02*
X6810Y10156D01*
Y9940D02*
Y10196D01*
X5972Y9530D02*
X6776Y10334D01*
X5825Y10348D02*
X6572Y9600D01*
X5800Y10161D02*
X6423Y9538D01*
X6480Y10118D02*
X6780Y9817D01*
X6631Y9649D02*
X6731Y9749D01*
X6330Y10055D02*
X6684Y9702D01*
X6400Y9534D02*
X6810Y9944D01*
X5748Y9730D02*
X6148Y10130D01*
X5520Y9980D02*
Y10185D01*
X5728Y9499D02*
X6287Y10057D01*
X5213Y10111D02*
X5488Y9836D01*
X5100Y10013D02*
X5397Y9715D01*
X5764Y9772D02*
X6007Y9530D01*
X5799Y9949D02*
X6219Y9530D01*
X4413Y10517D02*
X5781Y11885D01*
X4288D02*
X5648Y10525D01*
X4076Y11885D02*
X5508Y10453D01*
X3864Y11885D02*
X5517Y10232D01*
X3860Y10176D02*
X5569Y11885D01*
X4924D02*
X6287Y10523D01*
X4712Y11885D02*
X6148Y10450D01*
X4525Y10204D02*
X6206Y11885D01*
X4523Y10414D02*
X5993Y11885D01*
X4500D02*
X6085Y10300D01*
X3753Y10281D02*
X5357Y11885D01*
X3652D02*
X5083Y10453D01*
X3535Y10275D02*
X5145Y11885D01*
X4534Y10366D02*
X5291Y9609D01*
X4525Y10163D02*
X5185Y9503D01*
X4525Y9992D02*
X4775Y10243D01*
X4499Y9329D02*
X5480Y10310D01*
X4525Y9951D02*
X5079Y9397D01*
X4525Y9780D02*
X4827Y10082D01*
X4525Y9739D02*
X4973Y9291D01*
X4525Y9568D02*
X4958Y10001D01*
X4342Y8961D02*
X5520Y10139D01*
X4195Y9570D02*
Y10292D01*
X3859Y9963D02*
X4193Y10297D01*
X4525Y9570D02*
Y10292D01*
X3827Y10225D02*
X4195Y9857D01*
X3865Y9975D02*
X4195Y9644D01*
X3885Y9565D02*
X4195Y9874D01*
X3564Y9851D02*
X3851Y9564D01*
X3763Y9864D02*
X4185Y9443D01*
X6642Y9318D02*
X6676Y9285D01*
X6013Y8722D02*
X6584Y9293D01*
X6484Y9265D02*
X6565Y9184D01*
X5994Y9250D02*
X6344D01*
X6287D02*
X6551Y8986D01*
X5994Y9530D02*
X6344D01*
X5693Y9631D02*
X5809Y9515D01*
X5595Y9517D02*
X5639Y9473D01*
X5491Y9413D02*
X5617Y9539D01*
X5791Y8925D02*
X6116Y9250D01*
X5557Y9131D02*
X5764Y8924D01*
X5940Y8862D02*
X6328Y9250D01*
X5434Y9042D02*
X5617Y8859D01*
X5871Y9241D02*
X6594Y8518D01*
X6014Y8674D02*
X6416Y8272D01*
X5701Y9199D02*
X6465Y8435D01*
X5691Y7764D02*
X6762Y8835D01*
X5873Y7310D02*
X6620Y8057D01*
X5843Y7704D02*
X6415Y8276D01*
X5873Y7522D02*
X6479Y8128D01*
X5326Y8938D02*
X5547Y8717D01*
X4902Y8514D02*
X5658Y7757D01*
X4524Y9527D02*
X4867Y9185D01*
X4501Y9339D02*
X4761Y9079D01*
X4032Y9500D02*
X4195Y9662D01*
X4452Y9175D02*
X4655Y8973D01*
X4385Y9031D02*
X4549Y8867D01*
X4301Y8902D02*
X4443Y8761D01*
X4202Y8789D02*
X4336Y8654D01*
X4096Y8683D02*
X4230Y8548D01*
X4103Y9358D02*
X4184Y9439D01*
X4104Y9311D02*
X4138Y9277D01*
X4038Y9165D02*
X4064Y9139D01*
X3895Y9096D02*
X3969Y9022D01*
X4649Y7995D02*
X5899Y9245D01*
X4532Y8090D02*
X5592Y9150D01*
X4678Y7811D02*
X5545Y8679D01*
X4490Y8102D02*
X5386Y8998D01*
X4415Y7124D02*
X5748Y8457D01*
X4796Y8408D02*
X5548Y7655D01*
X4689Y8301D02*
X5543Y7448D01*
X4583Y8195D02*
X5543Y7236D01*
X3990Y8577D02*
X4124Y8442D01*
X3884Y8471D02*
X4018Y8336D01*
X3778Y8365D02*
X3912Y8230D01*
X3672Y8258D02*
X3806Y8124D01*
X3566Y8152D02*
X3700Y8018D01*
X3629Y7241D02*
X4218Y7830D01*
X3947Y7559D02*
X4382Y7124D01*
X9418Y7391D02*
X9885Y6924D01*
X9440Y7058D02*
X9730Y7348D01*
X9440Y6846D02*
X9885Y7291D01*
X8661Y7512D02*
X9260Y6913D01*
X8504Y7457D02*
X9260Y6701D01*
X9440Y6945D02*
X9885Y6500D01*
X9440Y6634D02*
X9885Y7079D01*
X9473Y6455D02*
X9885Y6867D01*
X9440Y7157D02*
X9885Y6712D01*
X9440Y6519D02*
Y7250D01*
X8345Y6600D02*
X9187Y7442D01*
X8345Y6812D02*
X9059Y7526D01*
X8345Y7404D02*
X9250Y6498D01*
X8345Y7024D02*
X8861Y7540D01*
X8115Y6674D02*
Y8835D01*
X8066Y6745D02*
X8115Y6794D01*
X7922Y6813D02*
X8115Y7006D01*
X9260Y6524D02*
Y7250D01*
X9440Y6733D02*
X9885Y6288D01*
X8345Y6176D02*
X9260Y7091D01*
X9885Y5000D02*
Y7449D01*
X8345Y6979D02*
X9885Y5439D01*
X8345Y6767D02*
X9885Y5227D01*
X9501Y6270D02*
X9885Y6655D01*
X9440Y6521D02*
X9885Y6076D01*
X8817Y5375D02*
X9885Y6443D01*
X8345Y6388D02*
X9256Y7299D01*
X8345Y7192D02*
X9167Y6369D01*
X8345Y5732D02*
Y10218D01*
Y5963D02*
X9260Y6878D01*
X8345Y5751D02*
X9260Y6666D01*
X8345Y6555D02*
X9259Y5641D01*
X8115Y5732D02*
Y6484D01*
X5873Y6886D02*
X7824Y8836D01*
X5873Y7098D02*
X7741Y8966D01*
X5949Y8527D02*
X7732Y6744D01*
X5807Y8457D02*
X7666Y6598D01*
X5873Y6037D02*
X8115Y8279D01*
X6878Y8234D02*
X8115Y6997D01*
X6632Y8056D02*
X7875Y6813D01*
X6795Y8105D02*
X8115Y6785D01*
X5873Y6461D02*
X7476Y8064D01*
X5873Y6249D02*
X7640Y8016D01*
X4805Y7090D02*
X6611Y8897D01*
X5543Y7090D02*
Y7538D01*
X5873Y6673D02*
X7392Y8193D01*
X4593Y7090D02*
X6538Y9035D01*
X3505Y6427D02*
X5608Y8530D01*
X5873Y7014D02*
Y7526D01*
X4505Y7090D02*
X5543D01*
X5015Y6491D02*
X5543Y5963D01*
X5873Y5825D02*
X8115Y8067D01*
X5220Y8832D02*
X8115Y5937D01*
X5873Y5825D02*
X8115Y8067D01*
X5114Y8726D02*
X8111Y5728D01*
X5008Y8620D02*
X7989Y5638D01*
X5873Y5613D02*
X8115Y7855D01*
X5878Y6901D02*
X7779Y5000D01*
X5897D02*
X8115Y7218D01*
X5472Y5000D02*
X8115Y7643D01*
X5685Y5000D02*
X8115Y7430D01*
X5877Y7538D02*
X7775Y5640D01*
X5873Y7330D02*
X7669Y5534D01*
X5873Y7118D02*
X7674Y5317D01*
X5543Y5670D02*
Y6810D01*
X5873Y5563D02*
Y6886D01*
Y6694D02*
X7567Y5000D01*
X6109D02*
X7666Y6557D01*
X4832Y6462D02*
X5543Y5751D01*
X5873Y6482D02*
X7355Y5000D01*
X9477Y5611D02*
X9885Y6018D01*
X9493Y6255D02*
X9885Y5864D01*
X9565Y5487D02*
X9885Y5806D01*
X9307Y5653D02*
X9885Y6231D01*
X9369Y6167D02*
X9885Y5652D01*
X8405Y5599D02*
X9166Y6360D01*
X8345Y6343D02*
X9142Y5546D01*
X8396Y5656D02*
X8678Y5374D01*
X8345Y6131D02*
X9112Y5364D01*
X8941Y5287D02*
X9107Y5453D01*
X8358Y5481D02*
X8556Y5283D01*
X9503Y5000D02*
X9885Y5382D01*
X9561Y5339D02*
X9885Y5015D01*
X9291Y5000D02*
X9885Y5594D01*
X8230Y5000D02*
X9410Y6179D01*
X8345Y5919D02*
X9264Y5000D01*
X9466Y5222D02*
X9688Y5000D01*
X9284Y5192D02*
X9476Y5000D01*
X9715D02*
X9885Y5170D01*
X8931Y5000D02*
X9885D01*
X9079D02*
X9273Y5195D01*
X8983Y5116D02*
X9149Y5283D01*
X8200Y5428D02*
X8519Y5109D01*
X8090Y5325D02*
X8415Y5000D01*
X8974Y5078D02*
X9052Y5000D01*
X8442D02*
X8525Y5083D01*
X8008Y5627D02*
X8115Y5733D01*
X8065Y6411D02*
X8115Y6361D01*
X7919Y6345D02*
X8115Y6149D01*
X7829Y5659D02*
X8115Y5946D01*
X5506Y5670D02*
X5543Y5707D01*
X5375Y5670D02*
X5543D01*
X5082D02*
X5543Y6131D01*
X4868Y5668D02*
X5543Y6343D01*
X7594Y5000D02*
X7802Y5208D01*
X5399Y5340D02*
X5650D01*
X5375Y5115D02*
X5600Y5340D01*
X6957Y5000D02*
X8115Y6158D01*
X6745Y5000D02*
X8115Y6370D01*
X8018Y5000D02*
X9226Y6208D01*
X6321Y5000D02*
X7734Y6413D01*
X6533Y5000D02*
X7878Y6345D01*
X7806Y5000D02*
X8231Y5425D01*
X7767Y5224D02*
X7991Y5000D01*
X7984Y5219D02*
X8203Y5000D01*
X5375D02*
X8569D01*
X7382D02*
X7683Y5302D01*
X5873Y5845D02*
X6718Y5000D01*
X5873Y5633D02*
X6506Y5000D01*
X7169D02*
X7651Y5481D01*
X5873Y6269D02*
X7142Y5000D01*
X5873Y6057D02*
X6930Y5000D01*
X5747Y5335D02*
X6082Y5000D01*
X5865Y5429D02*
X6294Y5000D01*
X5375Y5282D02*
X5658Y5000D01*
X5530Y5340D02*
X5870Y5000D01*
X5229Y7090D02*
X5543Y7404D01*
X5441Y7090D02*
X5543Y7192D01*
X5092Y6810D02*
X5543D01*
X4685Y7882D02*
X5477Y7090D01*
X5017D02*
X5536Y7609D01*
X5294Y5670D02*
X5543Y5919D01*
X5332Y6810D02*
X5543Y6599D01*
X5120Y6810D02*
X5543Y6387D01*
X5110Y6608D02*
X5543Y6175D01*
X5114Y6762D02*
X5161Y6810D01*
X4633Y7722D02*
X5265Y7090D01*
X4918Y5670D02*
X5375D01*
X4918Y5340D02*
X5047D01*
X5045Y5000D02*
Y5300D01*
X4894Y5339D02*
X5045Y5188D01*
X5375Y5000D02*
Y5300D01*
X4748Y5273D02*
X5021Y5000D01*
X4668Y4831D02*
X5045Y5209D01*
X5375Y5070D02*
X5445Y5000D01*
X5000D02*
X5045D01*
X4672Y5137D02*
X5000Y4809D01*
X4672Y5137D02*
X5000Y4809D01*
X4668Y4717D02*
X5000Y4385D01*
X4668Y5044D02*
X4964Y5340D01*
X5000Y1772D02*
Y5000D01*
X4668Y4619D02*
X5000Y4952D01*
X4668Y4581D02*
Y5090D01*
X4676Y4497D02*
X5000Y4173D01*
X4668Y4619D02*
X5000Y4952D01*
X4668Y4929D02*
X5000Y4597D01*
X4502Y7641D02*
X5052Y7090D01*
X4159Y7771D02*
X4840Y7090D01*
X3735Y7347D02*
X5412Y5670D01*
X3542Y7115D02*
X4987Y5670D01*
X3629Y7241D02*
X5200Y5670D01*
X4505Y6810D02*
X4688D01*
X4492Y6801D02*
X4662Y6632D01*
X3505Y6728D02*
X4636Y5597D01*
X3534Y5395D02*
X4696Y6557D01*
X4053Y7665D02*
X4628Y7090D01*
X3841Y7453D02*
X4251Y7042D01*
X3532Y7090D02*
X4230Y7788D01*
X3505Y5880D02*
X4338Y5047D01*
X4096Y4472D02*
X4338Y4714D01*
Y4581D02*
Y5090D01*
X4234Y4398D02*
X4330Y4494D01*
X3505Y5668D02*
X4338Y4835D01*
X3526Y5434D02*
X4338Y4623D01*
X4295Y4241D02*
X5000Y3536D01*
X4590Y4371D02*
X5000Y3960D01*
X4238Y4086D02*
X5000Y3324D01*
X3507Y2823D02*
X5000Y4315D01*
X3589Y2692D02*
X5000Y4103D01*
X4333Y2800D02*
X5000Y3467D01*
X4185Y2864D02*
X5000Y3679D01*
X4403Y2658D02*
X5000Y3255D01*
X4103Y4009D02*
X5000Y3112D01*
X4011Y2053D02*
X5000Y3043D01*
X4295Y4247D02*
X4418Y4369D01*
X4295Y4247D02*
X4418Y4369D01*
X4437Y2055D02*
X5000Y2618D01*
X4654Y2061D02*
X5000Y2406D01*
X4404Y2647D02*
X5000Y2051D01*
X4223Y2053D02*
X5000Y2831D01*
X4355Y2485D02*
X5000Y1839D01*
X4956Y1726D02*
X4994Y1764D01*
X4734Y1928D02*
X5000Y2194D01*
X4693Y1675D02*
X5000Y1982D01*
X4734Y1893D02*
X4923Y1704D01*
X4225Y2402D02*
X4540Y2087D01*
X4412Y2055D02*
X4459Y2056D01*
X4481Y1675D02*
X4545Y1739D01*
X4431Y1772D02*
X4528Y1675D01*
X4651Y1764D02*
X4740Y1675D01*
X4413Y1772D02*
X4446Y1772D01*
X4269Y1675D02*
X4367Y1773D01*
X4646Y1345D02*
X5000Y991D01*
X4856Y1347D02*
X5000Y1203D01*
X4491Y625D02*
X5000Y1133D01*
X4433Y1345D02*
X5000Y778D01*
X4221Y1345D02*
X5000Y566D01*
X4711Y431D02*
X5000Y142D01*
X4713Y422D02*
X5000Y709D01*
X4830Y115D02*
X5000Y285D01*
X4640Y562D02*
X5000Y921D01*
X4618Y115D02*
X5000Y497D01*
Y115D02*
Y1378D01*
X4552Y166D02*
X4603Y115D01*
X4673Y257D02*
X4815Y115D01*
X4406D02*
X4448Y157D01*
X3593Y2610D02*
X4149Y2053D01*
X4057Y1675D02*
X4155Y1773D01*
X4005D02*
X4103Y1675D01*
X4217Y1773D02*
X4316Y1675D01*
X3587Y2053D02*
X4000Y2467D01*
X3799Y2053D02*
X4142Y2397D01*
X3793Y1773D02*
X3891Y1675D01*
X3632D02*
X3731Y1773D01*
X3844Y1675D02*
X3943Y1773D01*
X3521Y2469D02*
X3937Y2053D01*
X3581Y1773D02*
X3679Y1675D01*
X3670Y1288D02*
X3727Y1345D01*
X3773Y1179D02*
X3939Y1345D01*
X3585D02*
X3624Y1306D01*
X4009Y1345D02*
X5000Y354D01*
X3797Y1345D02*
X4521Y621D01*
X3769Y115D02*
X5000Y1346D01*
X3739Y508D02*
X4575Y1345D01*
X3743Y301D02*
X4787Y1345D01*
X3786Y1144D02*
X4347Y583D01*
X3760Y957D02*
X4256Y462D01*
X4194Y115D02*
X4308Y230D01*
X3630Y612D02*
X4363Y1345D01*
X3645Y861D02*
X4391Y115D01*
X3756Y950D02*
X4151Y1345D01*
X3754Y328D02*
X3966Y115D01*
X3982D02*
X4245Y379D01*
X3557Y115D02*
X3629Y187D01*
X3663Y206D02*
X3754Y115D01*
X3015Y11885D02*
X4376Y10524D01*
X2803Y11885D02*
X4226Y10462D01*
X2591Y11885D02*
X4195Y10281D01*
X2586Y10174D02*
X4296Y11885D01*
X2379D02*
X4195Y10069D01*
X3439Y11885D02*
X4891Y10433D01*
X3237Y10402D02*
X4721Y11885D01*
X3235Y10187D02*
X4933Y11885D01*
X3136Y10512D02*
X4509Y11885D01*
X3227D02*
X4793Y10320D01*
X3241Y10386D02*
X3444Y10183D01*
X2457Y10258D02*
X4084Y11885D01*
X3235Y10180D02*
X3431Y9984D01*
X3235Y9975D02*
X3445Y10185D01*
X2634Y10011D02*
X2905Y10281D01*
X3235Y9763D02*
X3439Y9967D01*
X3235Y9339D02*
X3757Y9861D01*
X3235Y9756D02*
X3636Y9355D01*
X3299Y7617D02*
X5420Y9738D01*
X3235Y9968D02*
X3705Y9498D01*
X3229Y9121D02*
X4195Y10087D01*
X3235Y9544D02*
X3863Y8916D01*
X3235Y9332D02*
X3757Y8810D01*
X3230Y9125D02*
X3651Y8704D01*
X3169Y8849D02*
X3635Y9315D01*
X2468Y7055D02*
X4201Y8788D01*
X3235Y9551D02*
X3544Y9860D01*
X3235Y9234D02*
Y10292D01*
X2905Y9234D02*
Y10292D01*
X2620Y9947D02*
X2905Y9662D01*
X2524Y9830D02*
X2905Y9450D01*
X3198Y8944D02*
X3545Y8598D01*
X3145Y8785D02*
X3438Y8492D01*
X1854Y10503D02*
X3236Y11885D01*
X1742D02*
X3106Y10521D01*
X1942Y10380D02*
X3448Y11885D01*
X1530D02*
X2944Y10471D01*
X1106Y11885D02*
X2905Y10086D01*
X2167Y11885D02*
X3805Y10247D01*
X1954Y11885D02*
X3555Y10285D01*
X1935Y10160D02*
X3660Y11885D01*
X115D02*
X9885D01*
X1935Y9948D02*
X3872Y11885D01*
X894D02*
X2905Y9874D01*
X1318Y11885D02*
X2902Y10301D01*
X115Y9613D02*
X2387Y11885D01*
X115Y9401D02*
X2599Y11885D01*
X1935Y9311D02*
X2419Y9796D01*
X1911Y9075D02*
X2905Y10069D01*
X2340Y9803D02*
X2905Y9237D01*
X2375Y6782D02*
X5515Y9922D01*
X115Y8976D02*
X3024Y11885D01*
X1781Y8734D02*
X2905Y9857D01*
X2235Y7288D02*
X3968Y9021D01*
X2095Y8623D02*
X2905Y9433D01*
X1594Y7061D02*
X3700Y9168D01*
X955Y7695D02*
X2905Y9645D01*
X1575Y6830D02*
X3842Y9097D01*
X1935Y9783D02*
X2830Y8888D01*
X1935Y9571D02*
X2753Y8753D01*
X1935Y9359D02*
X2655Y8639D01*
X115Y9189D02*
X2811Y11885D01*
X1935Y9995D02*
X2884Y9047D01*
X2215Y8531D02*
X2905Y9221D01*
X2250Y8354D02*
X2860Y8964D01*
X1925Y9157D02*
X2549Y8533D01*
X1887Y8982D02*
X2443Y8426D01*
X3460Y8046D02*
X3594Y7912D01*
X3354Y7940D02*
X3488Y7806D01*
X3248Y7834D02*
X3382Y7700D01*
X3074Y8644D02*
X3332Y8386D01*
X3141Y7728D02*
X3276Y7593D01*
X3505Y6639D02*
X4509Y7642D01*
X3505Y6851D02*
X4325Y7671D01*
X3505Y6215D02*
X4226Y6935D01*
X2988Y8518D02*
X3226Y8280D01*
X3035Y7622D02*
X3180Y7477D01*
X2929Y7516D02*
X3099Y7347D01*
X2889Y8405D02*
X3120Y8174D01*
X2823Y7410D02*
X3033Y7200D01*
X2925Y6907D02*
X2974Y6957D01*
X2965Y6329D02*
Y6625D01*
X2963Y6279D02*
X2964Y6322D01*
X2858Y6526D02*
X2965Y6420D01*
X2925Y6059D02*
X2949Y6082D01*
X3505Y5790D02*
X4525Y6810D01*
X3505Y6002D02*
X4305Y6803D01*
X3505Y5578D02*
X4659Y6732D01*
X3505Y6940D02*
X4790Y5656D01*
X3505Y5478D02*
Y6942D01*
Y6516D02*
X4514Y5507D01*
X3505Y6304D02*
X4420Y5389D01*
X3505Y6304D02*
X4420Y5389D01*
X3165Y6008D02*
X3225Y5948D01*
X3103Y5857D02*
X3225Y5735D01*
X3104Y5814D02*
X3225Y5935D01*
Y5491D02*
Y6048D01*
X3059Y5690D02*
X3225Y5523D01*
X2933Y5604D02*
X3188Y5348D01*
X2783Y8299D02*
X3014Y8068D01*
X2676Y8193D02*
X2908Y7961D01*
X2717Y7304D02*
X2987Y7034D01*
X2570Y8087D02*
X2802Y7855D01*
X1677Y7193D02*
X2894Y8410D01*
X2780Y6974D02*
X3051Y7246D01*
X2611Y7198D02*
X2853Y6956D01*
X2611Y7198D02*
X2853Y6956D01*
X2464Y7981D02*
X2696Y7749D01*
X2358Y7875D02*
X2590Y7643D01*
X2505Y7092D02*
X2649Y6947D01*
X2252Y7769D02*
X2484Y7537D01*
X1443Y7427D02*
X2660Y8644D01*
X2410Y6975D02*
X2546Y6838D01*
X2375Y6798D02*
X2568Y6605D01*
X2692Y6462D02*
X2736Y6506D01*
X2685Y6487D02*
X2938Y6235D01*
X2660Y6218D02*
X2965Y6523D01*
X2660Y6006D02*
X2964Y6309D01*
X2661Y6299D02*
X2897Y6063D01*
X2660Y5370D02*
X2886Y5596D01*
X2375Y6569D02*
X2526Y6720D01*
X2375Y6585D02*
X2402Y6559D01*
X2661Y6283D02*
X2661Y6316D01*
X2660Y5935D02*
Y6277D01*
Y6088D02*
X2730Y6019D01*
X2660Y5582D02*
X2724Y5646D01*
X1935Y10207D02*
X2173Y9970D01*
X1935Y9736D02*
X2172Y9973D01*
X1935Y9524D02*
X2256Y9844D01*
X682Y11885D02*
X2317Y10250D01*
X1927Y10428D02*
X2200Y10154D01*
X2255Y8403D02*
X2337Y8320D01*
X1830Y8828D02*
X2023Y8635D01*
X1935Y9312D02*
Y10292D01*
X470Y11885D02*
X1848Y10507D01*
X257Y11885D02*
X1658Y10484D01*
X1755Y8690D02*
X1867Y8578D01*
X1605Y9312D02*
Y10292D01*
X1666Y8567D02*
X1789Y8444D01*
X1563Y8458D02*
X2019Y8002D01*
X1457Y8352D02*
X1913Y7896D01*
X1457Y8352D02*
X1913Y7896D01*
X2198Y8247D02*
X2231Y8214D01*
X2064Y8169D02*
X2125Y8108D01*
X1351Y8245D02*
X1807Y7790D01*
X955Y7271D02*
X1889Y8205D01*
X955Y7059D02*
X2066Y8170D01*
X1245Y8139D02*
X1701Y7684D01*
X1027Y7921D02*
X1594Y8488D01*
X955Y7483D02*
X1797Y8325D01*
X793Y8154D02*
X1360Y8721D01*
X1139Y8033D02*
X1595Y7578D01*
X1033Y7927D02*
X1489Y7472D01*
X959Y7790D02*
X1386Y7362D01*
X115Y11603D02*
X1605Y10113D01*
X115Y11815D02*
X1596Y10335D01*
X115Y9825D02*
X2175Y11885D01*
X115Y10249D02*
X1751Y11885D01*
X115Y10037D02*
X1963Y11885D01*
X115Y10967D02*
X1605Y9477D01*
X115Y10755D02*
X1604Y9266D01*
X115Y8764D02*
X1605Y10254D01*
X115Y11391D02*
X1605Y9901D01*
X115Y11179D02*
X1605Y9689D01*
X115Y11098D02*
X902Y11885D01*
X115Y11734D02*
X266Y11885D01*
X115Y10461D02*
X1539Y11885D01*
X115Y10886D02*
X1114Y11885D01*
X115Y10673D02*
X1327Y11885D01*
X115Y10543D02*
X1573Y9084D01*
X115Y10330D02*
X1514Y8932D01*
X115Y10118D02*
X1431Y8802D01*
X115Y11522D02*
X478Y11885D01*
X115Y11310D02*
X690Y11885D01*
X115Y9694D02*
X1224Y8585D01*
X115Y9694D02*
X1224Y8585D01*
X115Y8340D02*
X1605Y9830D01*
X115Y9906D02*
X1330Y8691D01*
X115Y8552D02*
X1605Y10042D01*
X115Y7916D02*
X1605Y9406D01*
X115Y7704D02*
X1595Y9184D01*
X115Y7491D02*
X1448Y8825D01*
X115Y9482D02*
X1118Y8479D01*
X115Y8128D02*
X1605Y9618D01*
X115Y8845D02*
X800Y8161D01*
X115Y8633D02*
X706Y8042D01*
X115Y8421D02*
X644Y7893D01*
X115Y9270D02*
X1012Y8373D01*
X115Y9058D02*
X906Y8267D01*
X115Y7279D02*
X627Y7791D01*
X115Y7785D02*
X625Y7275D01*
X115Y8209D02*
X625Y7699D01*
X115Y7997D02*
X625Y7487D01*
X2146Y7663D02*
X2378Y7431D01*
X2146Y7663D02*
X2378Y7431D01*
X2040Y7557D02*
X2272Y7325D01*
X1934Y7451D02*
X2171Y7214D01*
X1828Y7345D02*
X2094Y7078D01*
X1871Y6701D02*
X2047Y6878D01*
X2375Y6528D02*
Y6830D01*
X1722Y7239D02*
X2050Y6910D01*
X1580Y6623D02*
X2171Y7214D01*
X1575Y6961D02*
X1831Y6705D01*
X1623Y7125D02*
X2045Y6703D01*
X1245Y6638D02*
Y6948D01*
X2006Y6625D02*
X2045Y6664D01*
X1575Y6638D02*
Y6948D01*
X2045Y6565D02*
Y6830D01*
X1575Y6749D02*
X1676Y6648D01*
X2008Y6316D02*
X2045Y6279D01*
X1575Y6325D02*
X2045Y5855D01*
X1575Y5769D02*
X2045Y6239D01*
X1873Y6239D02*
X2045Y6067D01*
X1575Y6113D02*
X2045Y5643D01*
X1575Y5557D02*
X2045Y6027D01*
X1575Y5901D02*
X2045Y5431D01*
X955Y6423D02*
X1245Y6712D01*
X962Y6514D02*
X1245Y6231D01*
X1575Y6406D02*
X1599Y6429D01*
X1575Y6194D02*
X1675Y6294D01*
X955Y5998D02*
X1245Y6288D01*
X1575Y5982D02*
X1828Y6235D01*
X955Y7369D02*
X1256Y7068D01*
X955Y7157D02*
X1245Y6867D01*
X955Y6847D02*
X1285Y7176D01*
X955Y7581D02*
X1306Y7230D01*
X955Y6538D02*
Y7748D01*
Y6733D02*
X1245Y6443D01*
X955Y6945D02*
X1245Y6655D01*
X955Y6634D02*
X1245Y6924D01*
X115Y7573D02*
X625Y7063D01*
X115Y7067D02*
X625Y7577D01*
Y6538D02*
Y7748D01*
X115Y6855D02*
X625Y7365D01*
X115Y7361D02*
X625Y6851D01*
X115Y6431D02*
X625Y6941D01*
X115Y6936D02*
X623Y6429D01*
X115Y6643D02*
X625Y7153D01*
X115Y7148D02*
X625Y6638D01*
X955Y6308D02*
X1245Y6018D01*
X955Y6210D02*
X1245Y6500D01*
X955Y6096D02*
X1245Y5806D01*
X115Y6512D02*
X625Y6002D01*
X955Y5672D02*
X1245Y5382D01*
X955Y5574D02*
X1245Y5864D01*
X955Y5362D02*
X1245Y5652D01*
X955Y5786D02*
X1245Y6076D01*
X955Y5884D02*
X1245Y5594D01*
X115Y5794D02*
X625Y6304D01*
X115Y6007D02*
X617Y6509D01*
X115Y6300D02*
X625Y5790D01*
X115Y6219D02*
X625Y6729D01*
X115Y6724D02*
X625Y6214D01*
X115Y5370D02*
X625Y5880D01*
X115Y5876D02*
X625Y5366D01*
X115Y5582D02*
X625Y6092D01*
X115Y6088D02*
X625Y5578D01*
X2660Y4309D02*
X4818Y6466D01*
X3505Y6092D02*
X4357Y5240D01*
X2660Y3672D02*
X5543Y6556D01*
X2660Y4097D02*
X5373Y6810D01*
X2660Y3885D02*
X5543Y6768D01*
X2660Y5240D02*
X5000Y2900D01*
X3488Y5260D02*
X5000Y3748D01*
X3347Y2875D02*
X5000Y4528D01*
X2660Y3460D02*
X4340Y5140D01*
X2660Y3248D02*
X4338Y4926D01*
X2660Y5157D02*
X3225Y5722D01*
X2660Y5664D02*
X3906Y4418D01*
X2660Y4945D02*
X3225Y5510D01*
X2660Y5452D02*
X3829Y4283D01*
X2660Y4521D02*
X3345Y5206D01*
X2660Y4733D02*
X3213Y5286D01*
X3328Y5208D02*
X4061Y4475D01*
X2660Y3036D02*
X3828Y4204D01*
X2380Y2893D02*
Y5138D01*
X2660Y2400D02*
X5000Y4740D01*
X2660Y4391D02*
X4187Y2864D01*
X2660Y4603D02*
X5000Y2263D01*
X2660Y5028D02*
X5000Y2688D01*
X2660Y4816D02*
X5000Y2476D01*
X2660Y2612D02*
X4053Y4005D01*
X2660Y4179D02*
X4025Y2815D01*
X3162Y2053D02*
X5000Y3891D01*
X2660Y2612D02*
X4053Y4005D01*
X2660Y3755D02*
X4361Y2053D01*
X2660Y3543D02*
X3330Y2873D01*
X2660Y3331D02*
X3189Y2801D01*
X2660Y3967D02*
X3942Y2685D01*
X2660Y2824D02*
X3902Y4066D01*
X2660Y2280D02*
Y5725D01*
Y3118D02*
X3125Y2653D01*
X2660Y2906D02*
X3513Y2053D01*
X2045Y5238D02*
Y6375D01*
X1575Y5345D02*
X2045Y5815D01*
X1575Y5133D02*
X2045Y5603D01*
X1575Y5476D02*
X2045Y5006D01*
X1575Y4921D02*
X2045Y5391D01*
X2359Y4007D02*
X2380Y4029D01*
X2375Y4287D02*
Y5122D01*
X2337Y3865D02*
X2380Y3823D01*
X1575Y5264D02*
X2045Y4794D01*
X1575Y5688D02*
X2040Y5223D01*
X1575Y4709D02*
X2035Y5169D01*
X2045Y4285D02*
Y5122D01*
X1575Y5052D02*
X2045Y4582D01*
X1575Y4497D02*
X2045Y4967D01*
X1984Y4269D02*
X2045Y4330D01*
X1917Y4415D02*
X2045Y4542D01*
X1983Y4220D02*
X2041Y4162D01*
X1774Y4484D02*
X2045Y4755D01*
X1575Y4840D02*
X2045Y4370D01*
X2299Y3692D02*
X2380Y3611D01*
X2313Y3750D02*
X2380Y3817D01*
X2250Y3529D02*
X2380Y3398D01*
X2219Y3444D02*
X2380Y3605D01*
X2002Y3014D02*
X2380Y3392D01*
X2233Y3033D02*
X2380Y3180D01*
X2192Y3375D02*
X2380Y3186D01*
X2125Y3230D02*
X2380Y2974D01*
X1782Y2724D02*
X2418Y2088D01*
X2050Y3092D02*
X2104Y3038D01*
X935Y3008D02*
X2037Y4111D01*
X2354Y2942D02*
X2380Y2968D01*
Y2280D02*
Y2727D01*
X3374Y2053D02*
X3936Y2615D01*
X2950Y2053D02*
X3308Y2411D01*
X3373Y2405D02*
X3725Y2053D01*
X3420Y1675D02*
X3519Y1773D01*
X3369D02*
X3467Y1675D01*
X2887Y2053D02*
X4406D01*
X2887Y1773D02*
X4407D01*
X2770Y2086D02*
X3177Y2492D01*
X2674Y2202D02*
X3125Y2653D01*
X2660Y2694D02*
X3301Y2053D01*
X2660Y2482D02*
X3089Y2053D01*
X3156Y1773D02*
X3255Y1675D01*
X2694Y1811D02*
X2831Y1675D01*
X3208D02*
X3307Y1773D01*
X2660Y2270D02*
X2876Y2054D01*
X2572Y1675D02*
X2704Y1807D01*
X3464Y1294D02*
X3514Y1345D01*
X3405Y599D02*
X3690Y884D01*
X2949Y1345D02*
X4179Y115D01*
X3488Y169D02*
X3542Y115D01*
X2709D02*
X3461Y867D01*
X3373Y1345D02*
X3437Y1280D01*
X2996Y1675D02*
X3094Y1773D01*
X3161Y1345D02*
X3341Y1165D01*
X2784Y1675D02*
X2882Y1773D01*
X2944Y1773D02*
X3043Y1675D01*
X3133Y115D02*
X3318Y300D01*
X3345Y115D02*
X3422Y191D01*
X2736Y1345D02*
X3458Y624D01*
X2921Y115D02*
X3331Y525D01*
X2305Y2625D02*
X2380Y2550D01*
X1935Y1675D02*
X2400Y2140D01*
X1591Y2491D02*
X2406Y1675D01*
X1679Y2615D02*
X2619Y1675D01*
X2290Y1345D02*
X4810D01*
X2360Y1675D02*
X2569Y1885D01*
X2312Y1203D02*
X2454Y1345D01*
X1492Y1675D02*
X4810D01*
X2147D02*
X2468Y1995D01*
X1723Y1675D02*
X2380Y2332D01*
X2142Y2576D02*
X2380Y2338D01*
X1723Y1675D02*
X2380Y2332D01*
X1535Y1911D02*
X2203Y2579D01*
X1511Y1675D02*
X2380Y2544D01*
X1540Y2329D02*
X2194Y1675D01*
X2524Y1345D02*
X3336Y533D01*
X2312Y1345D02*
X3299Y358D01*
X2284Y115D02*
X3346Y1176D01*
X1860Y115D02*
X3090Y1345D01*
X2072Y115D02*
X3302Y1345D01*
X2296Y1149D02*
X3330Y115D01*
X2197Y1036D02*
X3118Y115D01*
X2497D02*
X3352Y970D01*
X502Y115D02*
X5000D01*
X2003Y1018D02*
X2906Y115D01*
X1464Y1345D02*
X2694Y115D01*
X1436D02*
X2666Y1345D01*
X1648Y115D02*
X2878Y1345D01*
X115Y2057D02*
X2057Y115D01*
X1017Y1367D02*
X2269Y115D01*
X1224D02*
X2117Y1008D01*
X1251Y1345D02*
X2481Y115D01*
X955Y4937D02*
X1245Y5227D01*
X955Y5460D02*
X1245Y5170D01*
X1575Y4407D02*
Y6522D01*
X955Y5036D02*
X1245Y4746D01*
X955Y4725D02*
X1245Y5015D01*
X955Y4823D02*
X1245Y4533D01*
X1575Y4628D02*
X1720Y4483D01*
X1245Y4334D02*
Y6522D01*
X955Y5149D02*
X1245Y5439D01*
X955Y4318D02*
Y6422D01*
Y5248D02*
X1245Y4958D01*
X955Y4513D02*
X1245Y4803D01*
X959Y4305D02*
X1245Y4591D01*
X955Y4611D02*
X1245Y4321D01*
X955Y4399D02*
X1221Y4134D01*
X1911Y4079D02*
X2020Y3970D01*
X1535Y4031D02*
X1936Y3630D01*
X1314Y3599D02*
X1731Y4016D01*
X1763Y4015D02*
X1984Y3794D01*
X1480Y3874D02*
X1877Y3478D01*
X1408Y3734D02*
X1807Y3335D01*
X1321Y3609D02*
X1729Y3201D01*
X1221Y3497D02*
X1643Y3075D01*
X1535Y4033D02*
X1585Y4083D01*
X947Y4081D02*
X1245Y4379D01*
X955Y4187D02*
X1165Y3977D01*
X987Y3263D02*
X1234Y3510D01*
X1115Y3391D02*
X1548Y2958D01*
X932Y3998D02*
X1086Y3844D01*
X880Y3838D02*
X987Y3731D01*
X115Y5663D02*
X625Y5153D01*
X115Y5158D02*
X625Y5668D01*
Y4318D02*
Y6422D01*
X115Y4946D02*
X625Y5456D01*
X115Y5451D02*
X625Y4941D01*
X115Y5027D02*
X625Y4517D01*
X115Y4522D02*
X625Y5032D01*
X846Y3768D02*
X1223Y4145D01*
X115Y4734D02*
X625Y5244D01*
X115Y5239D02*
X625Y4729D01*
X115Y4097D02*
X625Y4607D01*
X115Y4603D02*
X616Y4101D01*
X115Y3885D02*
X625Y4395D01*
X115Y4309D02*
X625Y4819D01*
X115Y4815D02*
X622Y4308D01*
X115Y4391D02*
X564Y3941D01*
X115Y4179D02*
X479Y3814D01*
X806Y3700D02*
X881Y3625D01*
X753Y3497D02*
X1000Y3744D01*
X115Y3673D02*
X625Y4183D01*
X615Y2476D02*
X2000Y3861D01*
X713Y3581D02*
X775Y3518D01*
X627Y3455D02*
X678Y3403D01*
X615Y2264D02*
X1910Y3559D01*
X115Y3966D02*
X382Y3700D01*
X115Y381D02*
Y11885D01*
Y3754D02*
X313Y3557D01*
X115Y3461D02*
X519Y3865D01*
X615Y3267D02*
Y3380D01*
X285Y2280D02*
Y3380D01*
X115Y3542D02*
X285Y3372D01*
X115Y3249D02*
X286Y3420D01*
X1008Y3285D02*
X1445Y2848D01*
X926Y3155D02*
X1350Y2731D01*
X926Y2944D02*
X1275Y2594D01*
X648Y2084D02*
X1654Y3091D01*
X1542Y2342D02*
X1937Y2737D01*
X1878Y2840D02*
X1926Y2792D01*
X1535Y2123D02*
X2028Y2616D01*
X821Y2836D02*
X1224Y2434D01*
X925Y3058D02*
Y3097D01*
X615Y2830D02*
X1205Y2240D01*
X615Y2688D02*
X752Y2825D01*
X615Y2618D02*
X1205Y2028D01*
X615Y2280D02*
Y2902D01*
X1535Y2122D02*
X1982Y1675D01*
X1535Y1858D02*
Y2257D01*
Y1910D02*
X1770Y1675D01*
X1220Y1345D02*
X1870D01*
X1521Y1712D02*
X1558Y1675D01*
X1676Y1345D02*
X1858Y1163D01*
X800Y115D02*
X1855Y1171D01*
X1012Y115D02*
X1945Y1048D01*
X718Y1943D02*
X1228Y2452D01*
X1205Y1858D02*
Y2257D01*
X817Y1829D02*
X1205Y2218D01*
X615Y2406D02*
X1197Y1824D01*
X1099Y1687D02*
X1196Y1784D01*
X942Y1743D02*
X1205Y2005D01*
X622Y2186D02*
X1126Y1682D01*
X615Y3325D02*
X656Y3366D01*
X115Y1976D02*
X293Y2154D01*
X115Y3118D02*
X285Y2948D01*
X115Y2269D02*
X307Y2077D01*
X115Y1128D02*
X583Y1596D01*
X115Y1340D02*
X482Y1706D01*
X115Y915D02*
X702Y1502D01*
X115Y1764D02*
X334Y1982D01*
X115Y1552D02*
X398Y1835D01*
X115Y2906D02*
X285Y2736D01*
X115Y2825D02*
X285Y2995D01*
X115Y2612D02*
X285Y2782D01*
X115Y3330D02*
X285Y3160D01*
X115Y3037D02*
X285Y3207D01*
X115Y2481D02*
X285Y2311D01*
X115Y2188D02*
X285Y2358D01*
X115Y2694D02*
X285Y2524D01*
X115Y2400D02*
X285Y2570D01*
X543Y282D02*
X1605Y1345D01*
X321Y485D02*
X1182Y1346D01*
X115Y1421D02*
X1421Y115D01*
X115Y1845D02*
X1845Y115D01*
X115Y1633D02*
X1633Y115D01*
X470Y422D02*
X1393Y1345D01*
X470Y422D02*
X1393Y1345D01*
X587Y115D02*
X1817Y1345D01*
X115Y1209D02*
X1209Y115D01*
X115Y997D02*
X997Y115D01*
X115Y572D02*
X220Y467D01*
X115Y784D02*
X784Y115D01*
X115Y703D02*
X838Y1426D01*
X115Y491D02*
X996Y1372D01*
X527Y160D02*
X572Y115D01*
X9350Y6350D02*
Y7250D01*
X8530Y7630D02*
X8970D01*
D11*
X9500Y10350D02*
Y10560D01*
X9290Y10350D02*
X9500D01*
X9710D01*
X9500Y10140D02*
Y10350D01*
X7420Y9880D02*
Y10090D01*
Y9880D02*
X7630D01*
X7420Y9670D02*
Y9880D01*
X9690Y7370D02*
Y7580D01*
Y7790D01*
X9480Y7580D02*
X9690D01*
X7970Y8810D02*
Y9020D01*
Y9230D01*
X7760Y9020D02*
X7970D01*
X7210Y9880D02*
X7420D01*
X6770Y9070D02*
X6980D01*
X7620Y8250D02*
Y8460D01*
Y8250D02*
X7830D01*
X7620Y8040D02*
Y8250D01*
X6650Y8290D02*
X6860D01*
X7410Y8250D02*
X7620D01*
X6320Y10290D02*
Y10500D01*
X6110Y10290D02*
X6320D01*
X6530D01*
X6320Y10080D02*
Y10290D01*
X5010Y10230D02*
Y10440D01*
X4800Y10230D02*
X5010D01*
X5220D01*
X3650Y10070D02*
X3860D01*
X3650D02*
Y10280D01*
X5010Y10020D02*
Y10230D01*
X3650Y9860D02*
Y10070D01*
X6770Y9070D02*
Y9280D01*
X6560Y9070D02*
X6770D01*
Y8860D02*
Y9070D01*
X6650Y8290D02*
Y8500D01*
Y8080D02*
Y8290D01*
X6440D02*
X6650D01*
X5780Y8690D02*
X5990D01*
X5780D02*
Y8900D01*
Y8480D02*
Y8690D01*
X5570D02*
X5780D01*
X3870Y9330D02*
Y9540D01*
Y9330D02*
X4080D01*
X3660D02*
X3870D01*
Y9120D02*
Y9330D01*
X4450Y7870D02*
X4660D01*
X4450Y7660D02*
Y7870D01*
X7690Y6579D02*
X7900D01*
Y6789D01*
Y6369D02*
Y6579D01*
X9340Y5420D02*
X9550D01*
X9340D02*
Y5630D01*
Y5210D02*
Y5420D01*
X9130D02*
X9340D01*
X8540Y5150D02*
X8750D01*
Y5360D01*
Y5150D02*
X8960D01*
X7880Y5430D02*
X8090D01*
X7880D02*
Y5640D01*
Y5220D02*
Y5430D01*
X7670D02*
X7880D01*
X4680Y6690D02*
X4890D01*
X5100D01*
X4890Y6480D02*
Y6690D01*
X4060Y4240D02*
Y4450D01*
Y4240D02*
X4270D01*
X4170Y2630D02*
Y2840D01*
X3850Y4240D02*
X4060D01*
Y4030D02*
Y4240D01*
X4480Y390D02*
X4690D01*
X4480D02*
Y600D01*
X4270Y390D02*
X4480D01*
Y180D02*
Y390D01*
X4170Y2630D02*
X4380D01*
X4170Y2420D02*
Y2630D01*
X3960D02*
X4170D01*
X3560Y1080D02*
Y1290D01*
Y1080D02*
X3770D01*
X3560Y870D02*
Y1080D01*
X3530Y400D02*
Y610D01*
Y400D02*
X3740D01*
X3440Y10070D02*
X3650D01*
X2400Y10030D02*
X2610D01*
X2400D02*
Y10240D01*
Y9820D02*
Y10030D01*
X2190D02*
X2400D01*
X2870Y5830D02*
Y6040D01*
Y5830D02*
X3080D01*
X2870Y5620D02*
Y5830D01*
X2550Y6740D02*
X2760D01*
Y6950D01*
Y6530D02*
Y6740D01*
X2020Y8400D02*
X2230D01*
X2020D02*
Y8610D01*
X1810Y8400D02*
X2020D01*
Y8190D02*
Y8400D01*
X1830Y6260D02*
Y6470D01*
X1620D02*
X1830D01*
Y6680D01*
X3360Y2640D02*
Y2850D01*
X2160Y2810D02*
Y3020D01*
X1950Y2810D02*
X2160D01*
Y2600D02*
Y2810D01*
X3360Y2640D02*
X3570D01*
X3360Y2430D02*
Y2640D01*
X3150D02*
X3360D01*
X3350Y1080D02*
X3560D01*
X3530Y190D02*
Y400D01*
X3320D02*
X3530D01*
X2080Y1240D02*
X2290D01*
X1870D02*
X2080D01*
Y1030D02*
Y1240D01*
X1750Y4250D02*
Y4460D01*
Y4250D02*
X1960D01*
X1750Y4040D02*
Y4250D01*
X310Y250D02*
Y460D01*
Y250D02*
X520D01*
X8230Y5600D02*
Y10350D01*
D14*
X870Y3380D02*
G03*
X755Y3102I278J-278D01*
G01*
X2777Y8527D02*
G03*
X3070Y9234I-707J707D01*
G01*
X1560Y7310D02*
G03*
X1410Y6948I362J-362D01*
G01*
X1477Y8605D02*
G03*
X1770Y9312I-707J707D01*
G01*
X910Y8037D02*
G03*
X790Y7748I290J-290D01*
G01*
X2351Y7171D02*
G03*
X2210Y6830I341J-341D01*
G01*
X4084Y8904D02*
G03*
X4360Y9570I-666J666D01*
G01*
X570Y3670D02*
G03*
X790Y4201I-531J531D01*
G01*
X570Y3670D02*
G03*
X450Y3380I290J-290D01*
G01*
X1117Y3627D02*
G03*
X1410Y4334I-707J707D01*
G01*
X450Y2280D02*
G03*
X1220Y1510I770J0D01*
G01*
X1570Y2740D02*
G03*
X2210Y4285I-1545J1545D01*
G01*
X1570Y2740D02*
G03*
X1370Y2257I483J-483D01*
G01*
X4810Y1510D02*
G03*
X5210Y1910I0J400D01*
G01*
X5375Y5505D02*
G03*
X5210Y5300I45J-205D01*
G01*
X4918Y5505D02*
G03*
X4503Y5090I0J-415D01*
G01*
X5708Y6950D02*
Y7590D01*
Y5505D02*
Y6950D01*
X1370Y1800D02*
Y2257D01*
X755Y3102D02*
X760Y3097D01*
Y3000D02*
Y3097D01*
X1560Y7310D02*
X2777Y8527D01*
X1560Y7310D02*
X1560Y7310D01*
X1410Y6580D02*
Y6948D01*
X910Y8037D02*
X1477Y8605D01*
X790Y6480D02*
Y7748D01*
X1770Y9312D02*
Y10350D01*
X2351Y7171D02*
X4084Y8904D01*
X2210Y5180D02*
Y6830D01*
X450Y2280D02*
Y3380D01*
X790Y4201D02*
Y4260D01*
X870Y3380D02*
X1117Y3627D01*
X1220Y1510D02*
X4810D01*
X5210Y1910D02*
Y4610D01*
X5375Y5505D02*
X5708D01*
X4918D02*
X5375D01*
X4503Y4523D02*
Y5090D01*
X5210Y4610D02*
Y5300D01*
X4360Y9570D02*
Y10350D01*
X3070Y9234D02*
Y10350D01*
X1410Y4334D02*
Y6580D01*
X790Y4260D02*
Y6480D01*
X2210Y4285D02*
Y5180D01*
D16*
X5660Y10326D02*
G03*
X5650Y10350I-34J0D01*
G01*
X3398Y7518D02*
G03*
X3105Y6811I707J-707D01*
G01*
X5519Y9639D02*
G03*
X5660Y9980I-341J341D01*
G01*
X6830Y9650D02*
G03*
X6950Y9940I-290J290D01*
G01*
X6344Y9390D02*
G03*
X6730Y9550I0J546D01*
G01*
X5994Y9390D02*
G03*
X5287Y9097I0J-1000D01*
G01*
X3530Y7340D02*
G03*
X3365Y6942I398J-398D01*
G01*
X2520Y2280D02*
G03*
X2887Y1913I367J0D01*
G01*
X5708Y6950D02*
X5710D01*
X4400D02*
X5708D01*
X3360Y5380D02*
X3365Y5385D01*
Y6942D01*
X5660Y9980D02*
Y10326D01*
X3398Y7518D02*
X5519Y9639D01*
X3105Y6170D02*
Y6811D01*
X6730Y9550D02*
X6830Y9650D01*
X5994Y9390D02*
X6344D01*
X3530Y7340D02*
X5287Y9097D01*
X6950Y9940D02*
Y10350D01*
X2520Y2280D02*
Y6430D01*
X2887Y1913D02*
X4560D01*
D43*
X5710Y6950D02*
D03*
Y7590D02*
D03*
X4450Y7870D02*
D03*
X2160Y2810D02*
D03*
X3560Y1080D02*
D03*
X3530Y400D02*
D03*
X310Y250D02*
D03*
X9690Y7580D02*
D03*
X7900Y6579D02*
D03*
X760Y3000D02*
D03*
X4060Y4240D02*
D03*
X3360Y2640D02*
D03*
X4170Y2630D02*
D03*
X2870Y5830D02*
D03*
X2760Y6740D02*
D03*
X3100Y6170D02*
D03*
X1410Y6580D02*
D03*
X4890Y6690D02*
D03*
X4400Y6950D02*
D03*
X5708Y5505D02*
D03*
X8530Y7630D02*
D03*
X9340Y6340D02*
D03*
X7880Y5430D02*
D03*
X4480Y390D02*
D03*
X8750Y5150D02*
D03*
X5210Y4610D02*
D03*
X790Y4260D02*
D03*
X1750Y4250D02*
D03*
X2080Y1240D02*
D03*
X1830Y6470D02*
D03*
X2020Y8400D02*
D03*
X2400Y10030D02*
D03*
X3870Y9330D02*
D03*
X3650Y10070D02*
D03*
X5010Y10230D02*
D03*
X6320Y10290D02*
D03*
X7420Y9880D02*
D03*
X5780Y8690D02*
D03*
X6770Y9070D02*
D03*
X7970Y9020D02*
D03*
X6650Y8290D02*
D03*
X7620Y8250D02*
D03*
X9340Y5420D02*
D03*
X790Y6480D02*
D03*
X4560Y1913D02*
D03*
X9500Y10350D02*
D03*
X8230D02*
D03*
X6950D02*
D03*
X5650D02*
D03*
X4360D02*
D03*
X3070D02*
D03*
X1770D02*
D03*
X2210Y5180D02*
D03*
X1370Y1800D02*
D03*
X3360Y5380D02*
D03*
X2520Y6430D02*
D03*
X4503Y4523D02*
D03*
X8230Y5600D02*
D03*
D44*
X1560Y7310D02*
D03*
M02*
