M48
;Layer_Color=9474304
;FILE_FORMAT=2:5
INCH,LZ
;TYPE=PLATED
T1F00S00C0.00394
%
T01
X-0035Y-00395
Y-00315
X-0031
X-0027
X-0023
X-0019
X-0017Y-00275
Y-00235
X-0022Y-00255
Y-00275
X-0024
Y-00255
Y-00215
Y-0018
Y-0014
X-002
Y-0009
Y-00045
Y-00005
Y00035
X-0012919Y0006069
X-0011345Y0004494
X-000977
X-0005045Y0006069
X-0000321Y0002919
X-0000321Y-0001805
X-0001896
X-0003471Y-000338
X-0008195Y-000338
X-0008195Y-0004955
X-00035Y-00165
Y-00195
X0Y-00175
X00035Y-00165
X0009Y-0024
X00135
Y-0031
X00275Y-00295
X-0004Y-00305
X00185Y-0006
X-00075Y0017
X-0033Y00105
X-0042669Y-0010854
X-00075Y00235
Y00285
M30
