M48
;Layer_Color=9474304
;FILE_FORMAT=2:5
INCH,LZ
;TYPE=PLATED
T1F00S00C0.00394
T2F00S00C0.00701
%
T01
X-0035Y-00395
Y-00315
X-0031
Y-00345
X-0027Y-00355
Y-00315
X-0023
Y-00345
X-0019
Y-00315
X-0017Y-00275
Y-00235
X-0022Y-00255
X-0024
Y-00275
X-0022
X-0024Y-00215
X-0027
Y-0018
X-0024
Y-0014
X-002
Y-0009
X-0022981Y-0008839
X-0023937Y-00045
X-002
Y-00005
X-0023
X-0024435Y0003453
X-002Y00035
X-0021Y00095
Y00125
X-0012Y0017
X-00075
X0006Y0016
X001
Y0011
X0006
X0013Y00005
X00185
Y-0006
X0013
X001Y-00135
X0007Y-0015
X00035Y-00165
Y-00195
X0Y-00175
X-00035Y-00165
Y-00195
X-0006Y-0014
X-0002283Y-0011591
X00025Y-0011
X0002Y-0024
Y-0027
X00055
Y-0024
X0009
Y-0021
X00135
Y-0024
Y-0031
X00165
X0025Y-00295
X00275
X003
X0029053Y-002631
X0029496Y-0024528
X0025716Y-0024717
X0025855Y-0026424
X0025Y-0021
X00275
X003
X00185Y-00115
X-0012Y-00105
Y-00135
X-0012919Y-0000231
X-0033Y00105
X-0044159Y-001283
X-0035012Y-0027113
X-0013Y-00345
X-001
X-0004Y-0035
Y-00305
X00005Y-0032
Y-0035
X0006Y0021
X001
Y0026
X0006
Y0031
Y0035
X-00075Y00285
Y00235
X-0003666Y0023508
X-00125Y00235
X-00165
X-00125Y00285
X-0027451Y0030078
X0027Y0035
T02
X-0012919Y-0004955
X-0011344
X-000977Y-0004955
X-0008195Y-0004955
X-0008195Y-000338
X-0005045
X-0005045Y-0004955
X-0003471Y-0004955
X-0001896Y-0004955
X-0000321
X-0000321Y-0001805
X-0001896
Y-0000231
X-0001896Y0001344
X-000347Y0001344
X-0003471Y0002919
X-0001896Y0002919
X-0000321Y0002919
X-0001896Y0004494
X-0003471
X-0005045
X-0005045Y0002919
X-0008195Y0002919
X-000977Y0004494
X-0011345
Y0006069
X-0012919Y0006069
X-001292Y0004494
X-0012919Y0002919
Y0001344
Y-000338
X-0011345Y-000338
X-0003471Y-000338
X-0003471Y-0000231
Y0006069
X-0005045
X-000662Y0006069
M30
