G04 Layer_Color=8388736*
%FSLAX25Y25*%
%MOIN*%
G70*
G01*
G75*
%ADD26C,0.01968*%
%ADD29C,0.01260*%
%ADD30R,0.02323X0.01732*%
%ADD31R,0.04803X0.03622*%
%ADD32R,0.01299X0.01299*%
%ADD33R,0.02047X0.02441*%
%ADD34R,0.04803X0.03228*%
%ADD35R,0.01299X0.01299*%
%ADD36R,0.01496X0.01299*%
%ADD37R,0.03150X0.06142*%
%ADD38R,0.02756X0.04724*%
%ADD39R,0.04724X0.05118*%
%ADD40C,0.02047*%
%ADD41C,0.01417*%
%ADD42C,0.01654*%
D26*
X36614Y-11811D02*
D03*
D29*
X25197Y-20866D02*
D03*
Y-14567D02*
D03*
X20472D02*
D03*
X18898Y-12992D02*
D03*
Y-11417D02*
D03*
X22047Y-12992D02*
D03*
X17323Y-16142D02*
D03*
Y-17717D02*
D03*
X18898Y-20866D02*
D03*
X17323Y-19291D02*
D03*
X15748Y-16142D02*
D03*
Y-17717D02*
D03*
Y-19291D02*
D03*
Y-20866D02*
D03*
X17323Y-11417D02*
D03*
X22047Y-22441D02*
D03*
X23622Y-11417D02*
D03*
X20472Y-17717D02*
D03*
Y-20866D02*
D03*
Y-22441D02*
D03*
X25197Y-17717D02*
D03*
X12598Y-20866D02*
D03*
X18898Y-17717D02*
D03*
X22047Y-19291D02*
D03*
X23622Y-14567D02*
D03*
X20472Y-16142D02*
D03*
X23622D02*
D03*
Y-17717D02*
D03*
X12598Y-11417D02*
D03*
X14173D02*
D03*
X17323Y-14567D02*
D03*
X18898Y-22441D02*
D03*
X15748Y-11417D02*
D03*
Y-12992D02*
D03*
Y-22441D02*
D03*
X23622D02*
D03*
X17323D02*
D03*
X23622Y-20866D02*
D03*
X22047D02*
D03*
X17323Y-20866D02*
D03*
X14173Y-20866D02*
D03*
X23622Y-19291D02*
D03*
X18898D02*
D03*
X14173D02*
D03*
X12598D02*
D03*
X22047Y-17717D02*
D03*
X14173D02*
D03*
X22047Y-16142D02*
D03*
X18898D02*
D03*
X14173D02*
D03*
X22047Y-14567D02*
D03*
X18898D02*
D03*
X14173D02*
D03*
X12598D02*
D03*
X23622Y-12992D02*
D03*
X20472D02*
D03*
X17323D02*
D03*
X22047Y-11417D02*
D03*
X20472D02*
D03*
X25197Y-22441D02*
D03*
Y-19291D02*
D03*
Y-16142D02*
D03*
Y-12992D02*
D03*
Y-11417D02*
D03*
X20472Y-19291D02*
D03*
X12598Y-12992D02*
D03*
X14173D02*
D03*
X15748Y-14567D02*
D03*
D30*
X40453Y-11417D02*
D03*
Y-13976D02*
D03*
Y-16535D02*
D03*
X32776D02*
D03*
Y-13976D02*
D03*
Y-11417D02*
D03*
D31*
X10925Y-2067D02*
D03*
D32*
X29232Y-10433D02*
D03*
Y-12795D02*
D03*
X34941Y-3839D02*
D03*
Y-1476D02*
D03*
X41831Y-1476D02*
D03*
Y-3839D02*
D03*
X39862D02*
D03*
Y-1476D02*
D03*
X28051Y-20866D02*
D03*
Y-23228D02*
D03*
X20276Y-5020D02*
D03*
Y-7382D02*
D03*
X18307D02*
D03*
Y-5020D02*
D03*
X16339Y-7382D02*
D03*
Y-5020D02*
D03*
X14567Y-7382D02*
D03*
Y-5020D02*
D03*
X2850Y-22539D02*
D03*
Y-24902D02*
D03*
X5020Y-22539D02*
D03*
Y-24902D02*
D03*
X6890Y-22539D02*
D03*
Y-24902D02*
D03*
X8662Y-22539D02*
D03*
Y-24902D02*
D03*
X30020Y-20866D02*
D03*
Y-23228D02*
D03*
X26476Y-5020D02*
D03*
Y-7382D02*
D03*
X12697D02*
D03*
Y-5020D02*
D03*
X33071Y-1476D02*
D03*
Y-3839D02*
D03*
X29035Y-5020D02*
D03*
Y-7382D02*
D03*
X31102Y-5020D02*
D03*
Y-7382D02*
D03*
X9350Y-5126D02*
D03*
Y-7488D02*
D03*
X12402Y-33071D02*
D03*
Y-30709D02*
D03*
Y-39567D02*
D03*
Y-37205D02*
D03*
X22145Y-5020D02*
D03*
Y-7382D02*
D03*
X7509Y-7482D02*
D03*
Y-5120D02*
D03*
X5600Y-7480D02*
D03*
Y-5118D02*
D03*
D33*
X28248Y-1476D02*
D03*
X16437D02*
D03*
X19685D02*
D03*
D34*
X2854Y-1969D02*
D03*
D35*
X9646Y-35138D02*
D03*
X12008D02*
D03*
X9744Y-28740D02*
D03*
X12106D02*
D03*
X42224Y-22244D02*
D03*
X39862D02*
D03*
X8169Y-2165D02*
D03*
X5807D02*
D03*
D36*
X24311Y-7382D02*
D03*
Y-5020D02*
D03*
D37*
X41166Y-39764D02*
D03*
X27756D02*
D03*
D38*
X32776Y-22145D02*
D03*
X37116D02*
D03*
D39*
X8366Y-12124D02*
D03*
Y-18816D02*
D03*
X2854D02*
D03*
Y-12124D02*
D03*
D40*
X36614Y-16142D02*
D03*
D41*
X3543Y-7087D02*
D03*
X1575D02*
D03*
Y-5118D02*
D03*
X3543D02*
D03*
D42*
X10827Y-24902D02*
D03*
X25098Y-2067D02*
D03*
X30118Y-8563D02*
D03*
X31102Y-1476D02*
D03*
X3740Y-35138D02*
D03*
X3642Y-30217D02*
D03*
X22245Y-2854D02*
D03*
X29528Y-18996D02*
D03*
X19685Y-1476D02*
D03*
X23720Y-9350D02*
D03*
X7500Y-8900D02*
D03*
X10925Y-1870D02*
D03*
X16437Y-1476D02*
D03*
X28248D02*
D03*
X32776Y-22146D02*
D03*
X37008D02*
D03*
X33071Y-6988D02*
D03*
X41043Y-6299D02*
D03*
X35039Y-6988D02*
D03*
X29528Y-16535D02*
D03*
X26083Y-9350D02*
D03*
X11220Y-7382D02*
D03*
X2700Y-12200D02*
D03*
X2900Y-18700D02*
D03*
M02*
