G04 Layer_Physical_Order=4*
G04 Layer_Color=16711680*
%FSLAX25Y25*%
%MOIN*%
G70*
G01*
G75*
%ADD10C,0.01000*%
%ADD13R,0.01968X0.02362*%
%ADD14R,0.04724X0.03150*%
%ADD18C,0.01181*%
%ADD21R,0.03937X0.06299*%
%ADD23C,0.00787*%
%ADD24C,0.00394*%
%ADD26C,0.01968*%
%ADD27C,0.01339*%
%ADD28C,0.01575*%
D10*
X5421Y-35138D02*
G03*
X5421Y-35138I-1681J0D01*
G01*
X5323Y-30217D02*
G03*
X5323Y-30217I-1681J0D01*
G01*
X4581Y-18700D02*
G03*
X4581Y-18700I-1681J0D01*
G01*
X12692Y-20773D02*
G03*
X14267Y-22347I1481J-94D01*
G01*
X12692Y-17810D02*
G03*
X12692Y-20773I-94J-1481D01*
G01*
X16535Y-23699D02*
G03*
X18110Y-23699I787J1258D01*
G01*
X14267Y-22347D02*
G03*
X16535Y-23699I1481J-94D01*
G01*
X17416Y-19385D02*
G03*
X15842Y-20960I-94J-1481D01*
G01*
X18110Y-23699D02*
G03*
X20382Y-22441I787J1258D01*
G01*
D02*
G03*
X18804Y-20960I-1484J0D01*
G01*
X15657Y-20866D02*
G03*
X15431Y-20079I-1484J0D01*
G01*
D02*
G03*
X15657Y-19291I-1258J787D01*
G01*
X19685Y-20549D02*
G03*
X20566Y-20773I787J1258D01*
G01*
X18804D02*
G03*
X19685Y-20549I94J1481D01*
G01*
X17807Y-18284D02*
G03*
X17416Y-19385I1091J-1007D01*
G01*
X500Y-8222D02*
G03*
X2559Y-8301I1075J1135D01*
G01*
D02*
G03*
X5106Y-7087I984J1214D01*
G01*
X9181Y-8900D02*
G03*
X9181Y-8900I-1681J0D01*
G01*
X5106Y-7087D02*
G03*
X4757Y-6102I-1563J0D01*
G01*
D02*
G03*
X5106Y-5118I-1214J984D01*
G01*
X9259Y-2094D02*
G03*
X12606Y-1870I1666J224D01*
G01*
X9294Y-1465D02*
G03*
X9259Y-2094I1632J-405D01*
G01*
X9718Y-700D02*
G03*
X9294Y-1465I1207J-1170D01*
G01*
X12606Y-1870D02*
G03*
X12132Y-700I-1681J0D01*
G01*
X15657Y-19291D02*
G03*
X15431Y-18504I-1484J0D01*
G01*
X12915Y-16929D02*
G03*
X12692Y-17810I1258J-787D01*
G01*
X15431Y-18504D02*
G03*
X15657Y-17717I-1258J787D01*
G01*
D02*
G03*
X15431Y-16929I-1484J0D01*
G01*
X11340Y-13780D02*
G03*
X12692Y-16048I1258J-787D01*
G01*
D02*
G03*
X12915Y-16929I1481J-94D01*
G01*
X13386Y-11734D02*
G03*
X11340Y-13780I-787J-1258D01*
G01*
X14267Y-11511D02*
G03*
X13386Y-11734I-94J-1481D01*
G01*
X14665Y-10402D02*
G03*
X14267Y-11511I1083J-1015D01*
G01*
X15431Y-16929D02*
G03*
X15657Y-16142I-1258J787D01*
G01*
X14977Y-9760D02*
G03*
X14665Y-10402I771J-771D01*
G01*
X14977Y-9760D02*
G03*
X14665Y-10402I771J-771D01*
G01*
X15654Y-16048D02*
G03*
X17232Y-14567I94J1481D01*
G01*
X17416Y-14473D02*
G03*
X17639Y-15354I1481J-94D01*
G01*
X20566Y-17810D02*
G03*
X19988Y-17888I-94J-1481D01*
G01*
X17639Y-15354D02*
G03*
X17807Y-17149I1258J-787D01*
G01*
X17232Y-11417D02*
G03*
X17073Y-10749I-1484J0D01*
G01*
X18807Y-12992D02*
G03*
X17229Y-11511I-1484J0D01*
G01*
X19214Y-12205D02*
G03*
X18991Y-13086I1258J-787D01*
G01*
X20310Y-9942D02*
G03*
X19214Y-12205I163J-1475D01*
G01*
X22141Y-22347D02*
G03*
X22561Y-23478I1481J-94D01*
G01*
X20566Y-20773D02*
G03*
X22141Y-22347I1481J-94D01*
G01*
X23638Y-24787D02*
G03*
X24409Y-25106I771J771D01*
G01*
X23638Y-24787D02*
G03*
X24409Y-25106I771J771D01*
G01*
X22561Y-23478D02*
G03*
X22851Y-24000I1061J250D01*
G01*
X22561Y-23478D02*
G03*
X22851Y-24000I1061J250D01*
G01*
X26600Y-19776D02*
G03*
X26681Y-19291I-1403J484D01*
G01*
X34265Y-22925D02*
G03*
X34457Y-22146I-1489J779D01*
G01*
D02*
G03*
X33317Y-20554I-1681J0D01*
G01*
X36122Y-25106D02*
G03*
X36893Y-24787I0J1091D01*
G01*
X36122Y-25106D02*
G03*
X36893Y-24787I0J1091D01*
G01*
X27847Y-19055D02*
G03*
X28038Y-19776I1680J59D01*
G01*
X31017D02*
G03*
X31209Y-18996I-1489J779D01*
G01*
X32858Y-20095D02*
G03*
X32087Y-19776I-771J-771D01*
G01*
X32858Y-20095D02*
G03*
X32087Y-19776I-771J-771D01*
G01*
X24409Y-18033D02*
G03*
X23529Y-17810I-787J-1258D01*
G01*
X26681Y-19291D02*
G03*
X24409Y-18033I-1484J0D01*
G01*
X26370Y-17126D02*
G03*
X26689Y-17897I1091J0D01*
G01*
X20789Y-16929D02*
G03*
X20566Y-17810I1258J-787D01*
G01*
X19988Y-17149D02*
G03*
X20382Y-16142I-1091J1007D01*
G01*
X20644Y-15657D02*
G03*
X20789Y-16929I1403J-484D01*
G01*
X23531Y-17717D02*
G03*
X23305Y-16929I-1484J0D01*
G01*
D02*
G03*
X23531Y-16142I-1258J787D01*
G01*
X26370Y-15233D02*
G03*
X26370Y-17051I-1173J-909D01*
G01*
X31209Y-18996D02*
G03*
X29220Y-17343I-1681J0D01*
G01*
X26370Y-17126D02*
G03*
X26689Y-17897I1091J0D01*
G01*
X37779Y-23901D02*
G03*
X38044Y-23469I-771J771D01*
G01*
X37779Y-23901D02*
G03*
X38044Y-23469I-771J771D01*
G01*
X38689Y-22146D02*
G03*
X35518Y-22925I-1681J0D01*
G01*
X38044Y-23469D02*
G03*
X38689Y-22146I-1036J1324D01*
G01*
X20382Y-16142D02*
G03*
X20301Y-15657I-1484J0D01*
G01*
X23531Y-16142D02*
G03*
X23305Y-15354I-1484J0D01*
G01*
D02*
G03*
X23531Y-14567I-1258J787D01*
G01*
X23529Y-14473D02*
G03*
X24409Y-14250I94J1481D01*
G01*
X20456Y-7366D02*
G03*
X20776Y-6594I-771J771D01*
G01*
X20456Y-7366D02*
G03*
X20776Y-6594I-771J771D01*
G01*
X22441Y-8260D02*
G03*
X21673Y-8579I3J-1091D01*
G01*
X23531Y-11417D02*
G03*
X23475Y-11013I-1484J0D01*
G01*
X22441Y-8260D02*
G03*
X21673Y-8579I3J-1091D01*
G01*
X24902Y-8154D02*
G03*
X22441Y-8260I-1181J-1196D01*
G01*
X24409Y-14250D02*
G03*
X26370Y-13901I787J1258D01*
G01*
X23764Y-11031D02*
G03*
X23716Y-11511I1433J-386D01*
G01*
X27077Y-7995D02*
G03*
X24902Y-8154I-994J-1355D01*
G01*
X28696Y-9460D02*
G03*
X31799Y-8563I1422J897D01*
G01*
D02*
G03*
X29339Y-7074I-1681J0D01*
G01*
X24120Y-700D02*
G03*
X26370Y-3167I979J-1367D01*
G01*
X30126Y-2845D02*
G03*
X32783Y-1476I976J1369D01*
G01*
D02*
G03*
X32594Y-700I-1681J0D01*
G01*
X42724Y-6299D02*
G03*
X42724Y-6299I-1681J0D01*
G01*
X500Y-41270D02*
X2230Y-43000D01*
X500Y-42684D02*
X816Y-43000D01*
X500Y-39148D02*
X4352Y-43000D01*
X500Y-40562D02*
X2937Y-43000D01*
X500Y-39855D02*
X3645Y-43000D01*
X500Y-37027D02*
X6473Y-43000D01*
X500Y-38441D02*
X5059Y-43000D01*
X500Y-37734D02*
X5766Y-43000D01*
X500Y-34906D02*
X8594Y-43000D01*
X500Y-36320D02*
X7180Y-43000D01*
X500Y-35613D02*
X7887Y-43000D01*
X500Y-37018D02*
X2085Y-35432D01*
X500Y-38432D02*
X2579Y-36353D01*
X500Y-37725D02*
X2271Y-35954D01*
X500Y-32068D02*
X1998Y-30570D01*
X500Y-36310D02*
X2120Y-34691D01*
X500Y-32775D02*
X2198Y-31077D01*
X500Y-39139D02*
X2994Y-36645D01*
X500Y-40553D02*
X4348Y-36705D01*
X500Y-39846D02*
X3539Y-36807D01*
X500Y-30663D02*
X3342Y-33505D01*
X500Y-35603D02*
X4373Y-31730D01*
X500Y-34189D02*
X2943Y-31746D01*
X500Y-41977D02*
X1523Y-43000D01*
X3825Y-36817D02*
X10009Y-43000D01*
X4400Y-36684D02*
X10716Y-43000D01*
X2889Y-36587D02*
X9301Y-43000D01*
X4836Y-36413D02*
X11423Y-43000D01*
X5373Y-35536D02*
X12837Y-43000D01*
X5163Y-36033D02*
X12130Y-43000D01*
X3036Y-31785D02*
X14251Y-43000D01*
X5397Y-34853D02*
X13544Y-43000D01*
X3844Y-31885D02*
X14958Y-43000D01*
X500Y-32784D02*
X2194Y-34478D01*
X500Y-34199D02*
X2291Y-35989D01*
X500Y-33491D02*
X2061Y-35053D01*
X500Y-31370D02*
X2845Y-33715D01*
X500Y-32077D02*
X2465Y-34042D01*
X500Y-33482D02*
X2517Y-31466D01*
X2559Y-35138D02*
X3740D01*
Y-36319D02*
Y-35138D01*
X4921D01*
X500Y-34896D02*
X3504Y-31892D01*
X3740Y-35138D02*
Y-33957D01*
X3642Y-31398D02*
Y-30217D01*
X500Y-29249D02*
X2074Y-30822D01*
X500Y-31361D02*
X1998Y-29862D01*
X500Y-27127D02*
X2427Y-29054D01*
X500Y-28542D02*
X1973Y-30015D01*
X500Y-27835D02*
X2135Y-29470D01*
X500Y-25713D02*
X3348Y-28561D01*
X500Y-29956D02*
X4025Y-33481D01*
X500Y-26420D02*
X2826Y-28747D01*
X500Y-29947D02*
X11115Y-19332D01*
X500Y-30654D02*
X11248Y-19906D01*
X500Y-25006D02*
X4090Y-28596D01*
X500Y-21461D02*
X1906Y-20055D01*
X500Y-22875D02*
X2997Y-20378D01*
X500Y-22168D02*
X2372Y-20296D01*
X500Y-23583D02*
X11114Y-12968D01*
X500Y-20754D02*
X1551Y-19703D01*
X500Y-20047D02*
X1308Y-19239D01*
X500Y-25704D02*
X11185Y-15019D01*
X500Y-27825D02*
X12304Y-16022D01*
X500Y-27118D02*
X11800Y-15818D01*
X500Y-8743D02*
X11116Y-19358D01*
X500Y-24997D02*
X11127Y-14369D01*
X500Y-24290D02*
X11228Y-13562D01*
X2461Y-30217D02*
X3642D01*
Y-29035D01*
Y-30217D02*
X4823D01*
X500Y-43000D02*
Y-8222D01*
Y-29239D02*
X12876Y-16863D01*
X3293Y-33517D02*
X14267Y-22543D01*
X4557Y-33668D02*
X14717Y-23508D01*
X4035Y-33483D02*
X14418Y-23100D01*
X5155Y-30948D02*
X13801Y-22303D01*
X5317Y-30079D02*
X13318Y-22079D01*
X5171Y-29518D02*
X12963Y-21726D01*
X500Y-18642D02*
X1525Y-19667D01*
X3288Y-28573D02*
X11535Y-20326D01*
X2900Y-19881D02*
Y-18700D01*
X500Y-19340D02*
X1221Y-18619D01*
X500Y-26411D02*
X11429Y-15482D01*
X4502Y-28773D02*
X12503Y-20773D01*
X4891Y-29091D02*
X12738Y-21244D01*
X500Y-28532D02*
X12701Y-16331D01*
X3995Y-28573D02*
X11944Y-20624D01*
X4388Y-31723D02*
X15665Y-43000D01*
X4804Y-31431D02*
X16373Y-43000D01*
X500Y-23592D02*
X19908Y-43000D01*
X5112Y-31032D02*
X17080Y-43000D01*
X500Y-24299D02*
X19201Y-43000D01*
X500D02*
X42800D01*
X7246D02*
X25139Y-25106D01*
X4417Y-43000D02*
X23134Y-24283D01*
X2296Y-43000D02*
X22262Y-23034D01*
X3710Y-43000D02*
X22784Y-23926D01*
X3003Y-43000D02*
X22543Y-23460D01*
X5247Y-34392D02*
X15714Y-23925D01*
X5297Y-30510D02*
X17787Y-43000D01*
X5308Y-35746D02*
X17139Y-23914D01*
X500Y-41260D02*
X17997Y-23763D01*
X5409Y-34937D02*
X16606Y-23740D01*
X4955Y-33976D02*
X15138Y-23794D01*
X5262Y-29768D02*
X18494Y-43000D01*
X6538D02*
X24432Y-25106D01*
X5831Y-43000D02*
X23869Y-24963D01*
X500Y-42674D02*
X19307Y-23868D01*
X5124Y-43000D02*
X23488Y-24636D01*
X500Y-41967D02*
X18577Y-23890D01*
X10074Y-43000D02*
X27968Y-25106D01*
X11488Y-43000D02*
X29382Y-25106D01*
X10781Y-43000D02*
X28675Y-25106D01*
X7953Y-43000D02*
X25846Y-25106D01*
X9367Y-43000D02*
X27261Y-25106D01*
X8660Y-43000D02*
X26554Y-25106D01*
X12195Y-43000D02*
X30089Y-25106D01*
X13610Y-43000D02*
X31503Y-25106D01*
X12902Y-43000D02*
X30796Y-25106D01*
X14317Y-43000D02*
X32210Y-25106D01*
X15681Y-23924D02*
X34757Y-43000D01*
X15024D02*
X32917Y-25106D01*
X15731Y-43000D02*
X33625Y-25106D01*
X17145Y-43000D02*
X35039Y-25106D01*
X16438Y-43000D02*
X34332Y-25106D01*
X16288Y-23823D02*
X35465Y-43000D01*
X17852D02*
X35746Y-25106D01*
X17076Y-23904D02*
X36172Y-43000D01*
X19189Y-23896D02*
X38293Y-43000D01*
X18559D02*
X36534Y-25026D01*
X17743Y-23864D02*
X36879Y-43000D01*
X19694Y-23694D02*
X39000Y-43000D01*
X18438Y-23852D02*
X37586Y-43000D01*
X882D02*
X21600Y-22281D01*
X1589Y-43000D02*
X22138Y-22451D01*
X882Y-43000D02*
X21600Y-22281D01*
X2946Y-20380D02*
X25565Y-43000D01*
X1933Y-20075D02*
X24858Y-43000D01*
X3531Y-20258D02*
X26272Y-43000D01*
X4307Y-19620D02*
X27686Y-43000D01*
X3973Y-19994D02*
X26979Y-43000D01*
X500Y-9450D02*
X34050Y-43000D01*
X4564Y-18464D02*
X29100Y-43000D01*
X4525Y-19131D02*
X28393Y-43000D01*
X500Y-21471D02*
X22029Y-43000D01*
X500Y-22885D02*
X20615Y-43000D01*
X500Y-22178D02*
X21322Y-43000D01*
X500Y-19349D02*
X24151Y-43000D01*
X500Y-20764D02*
X22737Y-43000D01*
X500Y-20056D02*
X23444Y-43000D01*
X500Y-12278D02*
X31222Y-43000D01*
X500Y-13692D02*
X29808Y-43000D01*
X500Y-12985D02*
X30515Y-43000D01*
X500Y-10157D02*
X33343Y-43000D01*
X500Y-11571D02*
X31929Y-43000D01*
X500Y-10864D02*
X32636Y-43000D01*
X18898Y-23425D02*
Y-22441D01*
X19882D01*
X18898D02*
Y-21457D01*
X19326Y-21020D02*
X19755Y-20591D01*
X19795Y-21258D02*
X20289Y-20764D01*
X19266Y-43000D02*
X42800Y-19466D01*
X19974Y-43000D02*
X42800Y-20174D01*
X19484Y-20655D02*
X41829Y-43000D01*
X15506Y-20213D02*
X15868Y-20574D01*
X15610Y-20493D02*
X16161Y-19942D01*
X15620Y-19621D02*
X16070Y-20070D01*
X15604Y-18897D02*
X16406Y-19699D01*
X16399Y-19705D02*
X17736Y-18367D01*
X15550Y-19847D02*
X17807Y-17589D01*
X15586Y-18172D02*
X16868Y-19453D01*
X500Y-17228D02*
X1342Y-18069D01*
X500Y-17935D02*
X1220Y-18654D01*
X500Y-15107D02*
X2469Y-17075D01*
X500Y-16521D02*
X1606Y-17627D01*
X500Y-15814D02*
X1980Y-17293D01*
X500Y-17219D02*
X7170Y-10548D01*
X1719Y-18700D02*
X2900D01*
X500Y-14400D02*
X3136Y-17036D01*
X500Y-17926D02*
X7891Y-10535D01*
X1008Y-8543D02*
X11216Y-18751D01*
X1804Y-8633D02*
X11483Y-18312D01*
X500Y-10147D02*
X2083Y-8565D01*
X500Y-11562D02*
X3417Y-8644D01*
X500Y-9440D02*
X1313Y-8627D01*
X500Y-10854D02*
X2861Y-8493D01*
X500Y-8733D02*
X793Y-8440D01*
X500Y-15097D02*
X5980Y-9618D01*
X500Y-16511D02*
X6657Y-10354D01*
X500Y-15804D02*
X6264Y-10040D01*
X500Y-13683D02*
X5962Y-8221D01*
X500Y-14390D02*
X5827Y-9063D01*
X500Y-12269D02*
X4334Y-8435D01*
X2900Y-18700D02*
Y-17519D01*
Y-18700D02*
X4081D01*
X7273Y-10566D02*
X11122Y-14415D01*
X8425Y-10304D02*
X11114Y-12993D01*
X8798Y-9969D02*
X11235Y-12406D01*
X7937Y-10523D02*
X11287Y-13872D01*
X9061Y-9525D02*
X11514Y-11979D01*
X9181Y-8938D02*
X11916Y-11674D01*
X2332Y-8454D02*
X11874Y-17996D01*
X3196Y-8611D02*
X12405Y-17820D01*
X4396Y-8396D02*
X11319Y-15318D01*
X3543Y-7087D02*
X4606D01*
X4767Y-8059D02*
X5834Y-9127D01*
X5018Y-7604D02*
X5877Y-8462D01*
X3543Y-8150D02*
Y-7087D01*
X5103Y-6981D02*
X6096Y-7975D01*
X6319Y-8900D02*
X7500D01*
Y-10081D02*
Y-8900D01*
X8681D01*
X8856Y-7906D02*
X12464Y-11514D01*
X7500Y-8900D02*
Y-7719D01*
X4832Y-6003D02*
X6431Y-7603D01*
X5054Y-5519D02*
X6875Y-7339D01*
X5236Y-4994D02*
X7462Y-7219D01*
X5101Y-6961D02*
X7068Y-4994D01*
X500Y-12976D02*
X8482Y-4994D01*
X4891Y-7877D02*
X7775Y-4994D01*
X5943D02*
X8494Y-7544D01*
X6821Y-7362D02*
X9189Y-4994D01*
X8218Y-7380D02*
X12606Y-2991D01*
X7663Y-7227D02*
X11411Y-3480D01*
X4950Y-6405D02*
X6361Y-4994D01*
X5021Y-5626D02*
X5654Y-4994D01*
X6220Y-2306D02*
X6432Y-2094D01*
X6927Y-2306D02*
X7140Y-2094D01*
X6579D02*
X6792Y-2306D01*
X5101Y-4994D02*
X9294D01*
X6110Y-2306D02*
X9294D01*
X6110Y-2094D02*
X9259D01*
X7286D02*
X7499Y-2306D01*
X7993Y-2094D02*
X8206Y-2306D01*
X7634D02*
X7847Y-2094D01*
X8954Y-8057D02*
X12606Y-4405D01*
X9294Y-4889D02*
X10654Y-3529D01*
X9294Y-4182D02*
X10126Y-3349D01*
X9294Y-3475D02*
X9723Y-3046D01*
X9294Y-4994D02*
Y-2306D01*
X10925Y-3051D02*
Y-1870D01*
X8640Y-7664D02*
X12606Y-3698D01*
X11478Y-3458D02*
X12606Y-4586D01*
X11939Y-3211D02*
X12606Y-3878D01*
Y-4794D02*
Y-1870D01*
X12289Y-2854D02*
X12606Y-3171D01*
X8341Y-2306D02*
X8554Y-2094D01*
X8913Y-2306D02*
X9294Y-2687D01*
X8700Y-2094D02*
X8913Y-2306D01*
X9294Y-1465D02*
Y-700D01*
X9718D01*
X10925Y-1870D02*
X12106D01*
X9744D02*
X10925D01*
X12606D02*
Y-700D01*
X12256D02*
X12606Y-1050D01*
X14173Y-19291D02*
X15157D01*
X14173Y-17717D02*
X15157D01*
X13189D02*
X14173D01*
X15645Y-17524D02*
X17413Y-19292D01*
X15638Y-19051D02*
X17688Y-17001D01*
X15543Y-16714D02*
X17534Y-18705D01*
X15449Y-18533D02*
X17462Y-16520D01*
X11847Y-15847D02*
X12893Y-16893D01*
X13976Y-11521D02*
X14277Y-11220D01*
X15506Y-17062D02*
X17500Y-15067D01*
X13168Y-11621D02*
X14804Y-9986D01*
X15654Y-17621D02*
X17447Y-15828D01*
X16675Y-15726D02*
X17460Y-16510D01*
X17008Y-15351D02*
X17454Y-15797D01*
X17207Y-14843D02*
X17548Y-15184D01*
X17807Y-18284D02*
Y-17149D01*
X19988Y-17888D02*
Y-17149D01*
X16217Y-15975D02*
X17807Y-17565D01*
X19988Y-17529D02*
X20717Y-16800D01*
X18436Y-12010D02*
X18989Y-11458D01*
X17214Y-10608D02*
X19081Y-12475D01*
X17568Y-10254D02*
X19016Y-11702D01*
X17921Y-9900D02*
X19042Y-11021D01*
X18704Y-12449D02*
X19121Y-12032D01*
X18275Y-9547D02*
X19272Y-10544D01*
X18628Y-9193D02*
X19630Y-10195D01*
X18982Y-8840D02*
X20118Y-9976D01*
X3901Y-8608D02*
X12718Y-17425D01*
X6650Y-4994D02*
X13389Y-11732D01*
X500Y-18633D02*
X14339Y-4794D01*
X2819Y-17021D02*
X15046Y-4794D01*
X7358Y-4994D02*
X13898Y-11534D01*
X3439Y-17108D02*
X15753Y-4794D01*
X4578Y-18797D02*
X18595Y-4781D01*
X12574Y-11508D02*
X18595Y-5488D01*
X3903Y-17351D02*
X17703Y-3551D01*
X4496Y-18172D02*
X18595Y-4074D01*
X4256Y-17706D02*
X18410Y-3551D01*
X8065Y-4994D02*
X14279Y-11208D01*
X8772Y-4994D02*
X14459Y-10681D01*
X9294Y-4809D02*
X14703Y-10218D01*
X9135Y-9290D02*
X13632Y-4794D01*
X9148Y-8570D02*
X12925Y-4794D01*
X12132Y-700D02*
X12606D01*
X9294Y-4101D02*
X14965Y-9773D01*
X12814Y-4794D02*
X16379Y-8358D01*
X12606Y-4794D02*
X15994D01*
X9294Y-2687D02*
X15672Y-9065D01*
X9294Y-3394D02*
X15318Y-9419D01*
X10864Y-3550D02*
X16025Y-8712D01*
X13522Y-4794D02*
X16733Y-8005D01*
X14977Y-9760D02*
X18595Y-6143D01*
X14229Y-4794D02*
X17086Y-7651D01*
X14936Y-4794D02*
X17440Y-7298D01*
X15643Y-4794D02*
X17793Y-6944D01*
X15994Y-4437D02*
X18147Y-6590D01*
X17073Y-10749D02*
X20456Y-7366D01*
X19335Y-8486D02*
X20551Y-9701D01*
X19689Y-8133D02*
X20904Y-9348D01*
X17203Y-11123D02*
X24641Y-3684D01*
X18044Y-11695D02*
X26370Y-3369D01*
X17512Y-11520D02*
X25296Y-3736D01*
X15753Y-4794D02*
X15994Y-4553D01*
Y-4794D02*
Y-3551D01*
Y-3846D02*
X16289Y-3551D01*
X15994Y-4553D02*
X16996Y-3551D01*
X17807D02*
X18315D01*
X15994D02*
X17807D01*
X15994Y-3730D02*
X18500Y-6237D01*
X18595Y-6143D02*
Y-3551D01*
X17807D02*
X18595D01*
X16522Y-3551D02*
X18595Y-5624D01*
X17229Y-3551D02*
X18595Y-4917D01*
X17936Y-3551D02*
X18595Y-4210D01*
X21876Y-22340D02*
X22148Y-22612D01*
X20324Y-22850D02*
X21136Y-22038D01*
X20347Y-22120D02*
X20799Y-21669D01*
X24409Y-25106D02*
X35138D01*
X22851Y-24000D02*
X23638Y-24787D01*
X20137Y-21624D02*
X20594Y-21167D01*
X20301Y-20766D02*
X20573Y-21037D01*
X20472Y-20276D02*
Y-19291D01*
Y-18307D01*
X25197Y-19291D02*
Y-18307D01*
Y-19291D02*
X26181D01*
X26600Y-19776D02*
X28038D01*
X26679Y-19366D02*
X27089Y-19776D01*
X26569Y-18726D02*
X27044Y-18252D01*
X26934Y-19776D02*
X27751Y-18959D01*
X26681Y-19322D02*
X27398Y-18605D01*
X34265Y-22925D02*
X35138D01*
X34391D02*
X35335Y-21982D01*
X34154Y-21184D02*
X35342Y-22372D01*
X35236Y-25106D02*
X36122D01*
X33728Y-20760D02*
X36469Y-18020D01*
X35099Y-22925D02*
X35397Y-22627D01*
X33819Y-18020D02*
X36384Y-20585D01*
X27642Y-19776D02*
X27922Y-19495D01*
X31113Y-19556D02*
X31332Y-19776D01*
X31017D02*
X32087D01*
X31208Y-18945D02*
X32039Y-19776D01*
X32858Y-20095D02*
X33317Y-20554D01*
X32507Y-19860D02*
X34347Y-18020D01*
X33272Y-20509D02*
X35761Y-18020D01*
X32918Y-20156D02*
X35054Y-18020D01*
X24470Y-17997D02*
X24876Y-17591D01*
X23387Y-16781D02*
X24558Y-17952D01*
X25898Y-17983D02*
X26422Y-17459D01*
X23923Y-17838D02*
X24380Y-17381D01*
X25593Y-17572D02*
X27796Y-19776D01*
X26295Y-18293D02*
X26691Y-17898D01*
X25898Y-17983D02*
X26422Y-17459D01*
X26070Y-17342D02*
X27851Y-19123D01*
X20093Y-17022D02*
X20578Y-17507D01*
X20325Y-16547D02*
X20758Y-16980D01*
X20346Y-16464D02*
X20567Y-16244D01*
X25359Y-17816D02*
X25606Y-17568D01*
X23520Y-17533D02*
X24014Y-17039D01*
X23347Y-16999D02*
X23776Y-16570D01*
X26689Y-17897D02*
X27847Y-19055D01*
X31884Y-19776D02*
X33752Y-17908D01*
X28551Y-15581D02*
X33737Y-20767D01*
X31177Y-19776D02*
X33752Y-17201D01*
X30860Y-17971D02*
X33752Y-15079D01*
X28551Y-14874D02*
X35385Y-21707D01*
X31208Y-19037D02*
X33752Y-16494D01*
X31110Y-18428D02*
X33752Y-15787D01*
X28551Y-14166D02*
X35605Y-21220D01*
X28551Y-13459D02*
X35939Y-20848D01*
X33752Y-18020D02*
Y-9933D01*
X28551Y-16674D02*
X29220Y-17343D01*
X28551Y-16288D02*
X29579Y-17316D01*
X28551Y-16674D02*
Y-9605D01*
X30500Y-17625D02*
X33752Y-14372D01*
X30027Y-17391D02*
X33752Y-13665D01*
X28551Y-12752D02*
X33752Y-17953D01*
X29389Y-17321D02*
X33752Y-12958D01*
X28940Y-17063D02*
X33752Y-12251D01*
X28551Y-12045D02*
X33752Y-17246D01*
X28586Y-16710D02*
X33752Y-11544D01*
X28551Y-11338D02*
X33752Y-16539D01*
X31287Y-43000D02*
X42800Y-31487D01*
X31994Y-43000D02*
X42800Y-32194D01*
X24216Y-43000D02*
X42800Y-24416D01*
X29873Y-43000D02*
X42800Y-30073D01*
X24642Y-25106D02*
X42535Y-43000D01*
X27752D02*
X42800Y-27952D01*
X29166Y-43000D02*
X42800Y-29366D01*
X28459Y-43000D02*
X42800Y-28659D01*
X25631Y-43000D02*
X42800Y-25831D01*
X27045Y-43000D02*
X42800Y-27245D01*
X26338Y-43000D02*
X42800Y-26538D01*
X28177Y-25106D02*
X42800Y-39729D01*
X28884Y-25106D02*
X42800Y-39022D01*
X29591Y-25106D02*
X42800Y-38315D01*
X30299Y-25106D02*
X42800Y-37608D01*
X31006Y-25106D02*
X42800Y-36901D01*
X31713Y-25106D02*
X42800Y-36193D01*
X24923Y-43000D02*
X42800Y-25123D01*
X30580Y-43000D02*
X42800Y-30780D01*
X26763Y-25106D02*
X42800Y-41143D01*
X25349Y-25106D02*
X42800Y-42557D01*
X26056Y-25106D02*
X42800Y-41850D01*
X27470Y-25106D02*
X42800Y-40436D01*
X40480Y-43000D02*
X42800Y-40680D01*
X41894Y-43000D02*
X42800Y-42094D01*
X41187Y-43000D02*
X42800Y-41387D01*
X36237Y-43000D02*
X42800Y-36437D01*
X39773Y-43000D02*
X42800Y-39973D01*
X37651Y-43000D02*
X42800Y-37851D01*
X34823Y-43000D02*
X42800Y-35023D01*
X36944Y-43000D02*
X42800Y-37144D01*
X35530Y-43000D02*
X42800Y-35730D01*
X32702Y-43000D02*
X42800Y-32901D01*
X34116Y-43000D02*
X42800Y-34316D01*
X33409Y-43000D02*
X42800Y-33609D01*
X35248Y-25106D02*
X42800Y-32658D01*
X35955Y-25106D02*
X42800Y-31951D01*
X36568Y-25011D02*
X42800Y-31244D01*
X36972Y-24708D02*
X42800Y-30537D01*
X37325Y-24355D02*
X42800Y-29829D01*
X37679Y-24001D02*
X42800Y-29122D01*
X33834Y-25106D02*
X42800Y-34072D01*
X39066Y-43000D02*
X42800Y-39265D01*
X38358Y-43000D02*
X42800Y-38558D01*
X32420Y-25106D02*
X42800Y-35486D01*
X33127Y-25106D02*
X42800Y-34779D01*
X34541Y-25106D02*
X42800Y-33365D01*
X20065Y-23358D02*
X39707Y-43000D01*
X36893Y-24787D02*
X37779Y-23901D01*
X20310Y-22896D02*
X40414Y-43000D01*
X20681D02*
X42800Y-20881D01*
X20369Y-22248D02*
X41121Y-43000D01*
X22095D02*
X42800Y-22295D01*
X23509Y-43000D02*
X42800Y-23709D01*
X22802Y-43000D02*
X42800Y-23002D01*
X21388Y-43000D02*
X42800Y-21588D01*
X35940Y-18020D02*
X42800Y-24880D01*
X36647Y-18020D02*
X42800Y-24173D01*
X35233Y-18020D02*
X38006Y-20793D01*
X34093Y-21102D02*
X37176Y-18020D01*
X34349Y-21553D02*
X37883Y-18020D01*
X34526D02*
X36971Y-20465D01*
X34457Y-22153D02*
X38590Y-18020D01*
X36844Y-20472D02*
X39297Y-18020D01*
X33752D02*
X39476D01*
X37354D02*
X42800Y-23465D01*
X37489Y-20535D02*
X42800Y-15224D01*
X37990Y-23605D02*
X42800Y-28415D01*
X38306Y-23214D02*
X42800Y-27708D01*
X38569Y-22770D02*
X42800Y-27001D01*
Y-43000D02*
Y-700D01*
X38689Y-22183D02*
X42800Y-26294D01*
X38018Y-23542D02*
X42800Y-18759D01*
X38360Y-21147D02*
X42800Y-25587D01*
X38689Y-22163D02*
X42800Y-18052D01*
X38061Y-18020D02*
X42800Y-22758D01*
X38768Y-18020D02*
X42800Y-22051D01*
X38584Y-21561D02*
X42800Y-17345D01*
X38330Y-21108D02*
X42800Y-16638D01*
X39476Y-18020D02*
X42800Y-21344D01*
X39476Y-17313D02*
X42800Y-20637D01*
X37966Y-20765D02*
X42800Y-15931D01*
X39476Y-16606D02*
X42800Y-19930D01*
X39476Y-18020D02*
Y-9933D01*
Y-17840D02*
X42800Y-14517D01*
X39476Y-15899D02*
X42800Y-19223D01*
X39476Y-15192D02*
X42800Y-18516D01*
X39476Y-13778D02*
X42800Y-17101D01*
X39476Y-14485D02*
X42800Y-17809D01*
X39476Y-17133D02*
X42800Y-13810D01*
X20301Y-15657D02*
X20644D01*
X23622Y-12992D02*
Y-12008D01*
X23332Y-15311D02*
X23766Y-15746D01*
X23515Y-14787D02*
X23997Y-15269D01*
X23526Y-14699D02*
X23754Y-14470D01*
X23400Y-15531D02*
X24587Y-14345D01*
X23622Y-13976D02*
Y-12992D01*
X20043Y-7779D02*
X21258Y-8994D01*
X20310Y-9942D02*
X21673Y-8579D01*
X20396Y-7426D02*
X21611Y-8641D01*
X20692Y-7014D02*
X22022Y-8345D01*
X22047Y-11417D02*
X23031D01*
X20776Y-6391D02*
X22539Y-8154D01*
X23887Y-14452D02*
X24355Y-14920D01*
X25871Y-14314D02*
X26370Y-14814D01*
X25320Y-14471D02*
X25549Y-14700D01*
X24399Y-14257D02*
X24843Y-14700D01*
X25197Y-13976D02*
Y-12992D01*
X26181D01*
X25625Y-14721D02*
X26370Y-13976D01*
Y-15233D02*
Y-13901D01*
X26094Y-14959D02*
X26370Y-14683D01*
X28551Y-12502D02*
X31224Y-9829D01*
X28551Y-11795D02*
X30102Y-10244D01*
X26083Y-9350D02*
Y-8169D01*
X25502Y-7773D02*
X27158Y-6117D01*
X26840Y-7849D02*
X27158Y-7532D01*
X26299Y-7683D02*
X27158Y-6825D01*
X28551Y-11088D02*
X29509Y-10130D01*
X28551Y-10381D02*
X29061Y-9870D01*
X29339Y-5761D02*
X30504Y-6927D01*
X29339Y-6469D02*
X29785Y-6915D01*
X20776Y-4977D02*
X23485Y-7686D01*
X20776Y-5684D02*
X22949Y-7857D01*
X20737Y-6881D02*
X24158Y-3460D01*
X20776Y-6594D02*
Y-3551D01*
Y-6135D02*
X23789Y-3122D01*
X20776Y-4270D02*
X24266Y-7760D01*
X20776Y-3562D02*
X25159Y-7946D01*
X21472Y-3551D02*
X25647Y-7727D01*
X21563Y-1521D02*
X27158Y-7116D01*
X21563Y-2228D02*
X27158Y-7823D01*
X21563Y-2936D02*
X26313Y-7685D01*
X20776Y-3551D02*
X21563D01*
X20776Y-4014D02*
X21238Y-3551D01*
X21563Y-3227D01*
Y-3551D02*
Y-700D01*
Y-1812D02*
X22675Y-700D01*
X21563Y-1105D02*
X21968Y-700D01*
X20776Y-5428D02*
X23530Y-2673D01*
X20776Y-4721D02*
X23417Y-2079D01*
X21563Y-3227D02*
X23866Y-924D01*
X21563Y-700D02*
X24120D01*
X21563Y-814D02*
X23625Y-2876D01*
X21563Y-2520D02*
X23382Y-700D01*
X23465Y-7689D02*
X27158Y-3996D01*
X24631Y-7937D02*
X27158Y-5410D01*
X24139Y-7722D02*
X27158Y-4703D01*
X22145Y-8302D02*
X26895Y-3551D01*
X27158Y-7914D02*
Y-3551D01*
X24289Y-3540D02*
X27158Y-6409D01*
X25201Y-3745D02*
X27158Y-5702D01*
X25771Y-3608D02*
X27158Y-4995D01*
X26421Y-3551D02*
X27158Y-4287D01*
X29339Y-5351D02*
X31610Y-3079D01*
X29339Y-7074D02*
Y-3551D01*
Y-4643D02*
X30845Y-3138D01*
X22863Y-700D02*
X23558Y-1395D01*
X26370Y-3551D02*
X27158D01*
X26370D02*
Y-3167D01*
X22156Y-700D02*
X23420Y-1965D01*
X23570Y-700D02*
X23832Y-962D01*
X29339Y-3551D02*
X30126D01*
X29339Y-3936D02*
X29724Y-3551D01*
X30126Y-3149D01*
Y-3551D02*
Y-2845D01*
X28551Y-15330D02*
X33752Y-10130D01*
X28551Y-10631D02*
X33752Y-15832D01*
X28551Y-15330D02*
X33752Y-10130D01*
X28551Y-9924D02*
X33752Y-15125D01*
X29432Y-10098D02*
X33752Y-14417D01*
X28551Y-16037D02*
X33752Y-10837D01*
X39476Y-15012D02*
X42800Y-11688D01*
X39476Y-10949D02*
X42800Y-14273D01*
X30278Y-10237D02*
X33752Y-13710D01*
X30833Y-10084D02*
X33752Y-13003D01*
X31256Y-9800D02*
X33752Y-12296D01*
X31571Y-9408D02*
X33752Y-11589D01*
X31766Y-8896D02*
X33752Y-10882D01*
X31754Y-8177D02*
X33752Y-10175D01*
X29339Y-5054D02*
X34217Y-9933D01*
X36070D02*
X39391Y-6611D01*
X35363Y-9933D02*
X39415Y-5881D01*
X33752Y-9933D02*
X39476D01*
X39167D02*
X39476Y-10242D01*
X38898Y-9933D02*
X40861Y-7970D01*
X36777Y-9933D02*
X39581Y-7129D01*
X38191Y-9933D02*
X40312Y-7813D01*
X37484Y-9933D02*
X39893Y-7525D01*
X39476Y-12890D02*
X42800Y-9567D01*
X39476Y-13598D02*
X42800Y-10274D01*
X39476Y-10242D02*
X42800Y-13566D01*
X39476Y-10769D02*
X42800Y-7446D01*
X39476Y-12183D02*
X42800Y-8860D01*
X39476Y-11476D02*
X42800Y-8153D01*
X39476Y-15719D02*
X42800Y-12395D01*
X39476Y-16426D02*
X42800Y-13103D01*
X39476Y-13071D02*
X42800Y-16394D01*
X39476Y-14305D02*
X42800Y-10981D01*
X39476Y-12364D02*
X42800Y-15687D01*
X39476Y-11657D02*
X42800Y-14980D01*
X39476Y-10062D02*
X41686Y-7853D01*
X41918Y-7735D02*
X42800Y-8616D01*
X39862Y-6299D02*
X41043D01*
Y-5118D01*
Y-7480D02*
Y-6299D01*
X42224D01*
X40718Y-7948D02*
X42800Y-10030D01*
X41415Y-7939D02*
X42800Y-9323D01*
X42303Y-7412D02*
X42800Y-7909D01*
X42534Y-5521D02*
X42800Y-5788D01*
X42580Y-6982D02*
X42800Y-7202D01*
X42557Y-5567D02*
X42800Y-5324D01*
X29339Y-3640D02*
X35632Y-9933D01*
X29339Y-4347D02*
X34925Y-9933D01*
X29957Y-3551D02*
X36339Y-9933D01*
X30972Y-3152D02*
X37753Y-9933D01*
X30126Y-3013D02*
X37046Y-9933D01*
X31607Y-3080D02*
X38460Y-9933D01*
X32438Y-2497D02*
X42800Y-12859D01*
X32687Y-2038D02*
X42800Y-12152D01*
X28551Y-13916D02*
X41767Y-700D01*
X28551Y-14623D02*
X42474Y-700D01*
X28551Y-13209D02*
X41060Y-700D01*
X29916Y-6894D02*
X36110Y-700D01*
X31056Y-7168D02*
X37525Y-700D01*
X30573Y-6945D02*
X36818Y-700D01*
X29339Y-6765D02*
X35403Y-700D01*
X29339Y-6058D02*
X34696Y-700D01*
X32705Y-1984D02*
X33989Y-700D01*
X31425Y-7506D02*
X38232Y-700D01*
X32079Y-2845D02*
X39167Y-9933D01*
X31685Y-7954D02*
X38939Y-700D01*
X31384Y-9669D02*
X40353Y-700D01*
X31799Y-8547D02*
X39646Y-700D01*
X32594D02*
X42800D01*
X33948Y-9933D02*
X42800Y-1082D01*
X34177Y-700D02*
X39404Y-5927D01*
X33470Y-700D02*
X39394Y-6624D01*
X34884Y-700D02*
X39608Y-5424D01*
X35591Y-700D02*
X39930Y-5039D01*
X32783Y-1427D02*
X42800Y-11445D01*
X34656Y-9933D02*
X42800Y-1789D01*
X42269Y-5148D02*
X42800Y-4617D01*
X32763Y-700D02*
X42800Y-10738D01*
X33948Y-9933D02*
X42800Y-1082D01*
X38419Y-700D02*
X42800Y-5081D01*
X37712Y-700D02*
X41821Y-4809D01*
X41873Y-4837D02*
X42800Y-3910D01*
X41356Y-4647D02*
X42800Y-3203D01*
X32764Y-1218D02*
X33282Y-700D01*
X36298D02*
X40361Y-4763D01*
X37005Y-700D02*
X40927Y-4622D01*
X40625Y-4671D02*
X42800Y-2496D01*
X41248Y-700D02*
X42800Y-2252D01*
X41955Y-700D02*
X42800Y-1545D01*
X39127Y-700D02*
X42800Y-4374D01*
X39834Y-700D02*
X42800Y-3666D01*
X40541Y-700D02*
X42800Y-2959D01*
D13*
X28248Y-1476D02*
D03*
X16437D02*
D03*
X19685Y-1476D02*
D03*
D14*
X2854Y-1969D02*
D03*
D18*
X18898Y-22441D02*
D03*
X15748Y-11417D02*
D03*
Y-12992D02*
D03*
Y-22441D02*
D03*
X23622D02*
D03*
X17323D02*
D03*
X23622Y-20866D02*
D03*
X22047D02*
D03*
X17323Y-20866D02*
D03*
X14173Y-20866D02*
D03*
X23622Y-19291D02*
D03*
X18898D02*
D03*
X14173D02*
D03*
X12598D02*
D03*
X22047Y-17717D02*
D03*
X14173D02*
D03*
X22047Y-16142D02*
D03*
X18898D02*
D03*
X14173D02*
D03*
X22047Y-14567D02*
D03*
X18898D02*
D03*
X14173D02*
D03*
X12598D02*
D03*
X23622Y-12992D02*
D03*
X20472D02*
D03*
X17323D02*
D03*
X22047Y-11417D02*
D03*
X20472D02*
D03*
X25197Y-22441D02*
D03*
Y-19291D02*
D03*
Y-16142D02*
D03*
Y-12992D02*
D03*
Y-11417D02*
D03*
X20472Y-19291D02*
D03*
X12598Y-12992D02*
D03*
X14173D02*
D03*
X15748Y-14567D02*
D03*
D21*
X36614Y-13976D02*
D03*
D23*
X10925Y-1870D02*
Y-1772D01*
X8739Y-7600D02*
X10925Y-5413D01*
Y-1870D01*
X7500Y-7600D02*
X8739D01*
X7500Y-8900D02*
Y-7600D01*
D24*
X28346Y-8268D02*
X30118D01*
X23622Y-20866D02*
X32087D01*
X15748Y-11417D02*
Y-10531D01*
X19685Y-6594D01*
Y-1575D01*
X22444Y-9350D02*
X23720D01*
X20472Y-11322D02*
X22444Y-9350D01*
X20472Y-11417D02*
Y-11322D01*
X32776Y-22146D02*
Y-21555D01*
Y-22244D02*
Y-22146D01*
X23622Y-23228D02*
X24409Y-24016D01*
X23622Y-23228D02*
Y-22441D01*
X32087Y-20866D02*
X32776Y-21555D01*
X18898Y-19291D02*
Y-16142D01*
Y-14567D01*
X22047D01*
X24409Y-24016D02*
X35138D01*
X37008Y-23130D02*
Y-22146D01*
X35236Y-24016D02*
X36122D01*
X37008Y-23130D01*
X29331Y-18996D02*
X29528D01*
X27461Y-17126D02*
X29331Y-18996D01*
X27461Y-17126D02*
Y-9154D01*
X28248Y-8366D01*
Y-1476D01*
X23622Y-12992D02*
X25197D01*
X23622D02*
X23622D01*
X22047Y-11417D02*
X23622Y-12992D01*
X22047Y-14567D02*
Y-12992D01*
X20472Y-11417D02*
X22047Y-12992D01*
X3543Y-7087D02*
X4787Y-7087D01*
X1575Y-7087D02*
Y-5118D01*
Y-3248D01*
X2854Y-1969D01*
X4787Y-7087D02*
X5300Y-7600D01*
X7500D01*
D26*
X36614Y-16142D02*
D03*
Y-11811D02*
D03*
D27*
X3543Y-7087D02*
D03*
X1575D02*
D03*
Y-5118D02*
D03*
X3543D02*
D03*
D28*
X25098Y-2067D02*
D03*
X30118Y-8563D02*
D03*
X31102Y-1476D02*
D03*
X3740Y-35138D02*
D03*
X3642Y-30217D02*
D03*
X29528Y-18996D02*
D03*
X19685Y-1476D02*
D03*
X23720Y-9350D02*
D03*
X7500Y-8900D02*
D03*
X10925Y-1870D02*
D03*
X16437Y-1476D02*
D03*
X28248D02*
D03*
X32776Y-22146D02*
D03*
X37008D02*
D03*
X41043Y-6299D02*
D03*
X26083Y-9350D02*
D03*
X2900Y-18700D02*
D03*
M02*
