G04 Layer_Color=16711935*
%FSLAX25Y25*%
%MOIN*%
G70*
G01*
G75*
%ADD26C,0.01968*%
%ADD29C,0.01260*%
%ADD33R,0.02047X0.02441*%
%ADD34R,0.04803X0.03228*%
%ADD40C,0.02047*%
%ADD41C,0.01417*%
%ADD42C,0.01654*%
%ADD43R,0.04016X0.06378*%
D26*
X36614Y-11811D02*
D03*
D29*
X18898Y-22441D02*
D03*
X15748Y-11417D02*
D03*
Y-12992D02*
D03*
Y-22441D02*
D03*
X23622D02*
D03*
X17323D02*
D03*
X23622Y-20866D02*
D03*
X22047D02*
D03*
X17323Y-20866D02*
D03*
X14173Y-20866D02*
D03*
X23622Y-19291D02*
D03*
X18898D02*
D03*
X14173D02*
D03*
X12598D02*
D03*
X22047Y-17717D02*
D03*
X14173D02*
D03*
X22047Y-16142D02*
D03*
X18898D02*
D03*
X14173D02*
D03*
X22047Y-14567D02*
D03*
X18898D02*
D03*
X14173D02*
D03*
X12598D02*
D03*
X23622Y-12992D02*
D03*
X20472D02*
D03*
X17323D02*
D03*
X22047Y-11417D02*
D03*
X20472D02*
D03*
X25197Y-22441D02*
D03*
Y-19291D02*
D03*
Y-16142D02*
D03*
Y-12992D02*
D03*
Y-11417D02*
D03*
X20472Y-19291D02*
D03*
X12598Y-12992D02*
D03*
X14173D02*
D03*
X15748Y-14567D02*
D03*
D33*
X28248Y-1476D02*
D03*
X16437D02*
D03*
X19685Y-1476D02*
D03*
D34*
X2854Y-1969D02*
D03*
D40*
X36614Y-16142D02*
D03*
D41*
X3543Y-7087D02*
D03*
X1575D02*
D03*
Y-5118D02*
D03*
X3543D02*
D03*
D42*
X25098Y-2067D02*
D03*
X30118Y-8563D02*
D03*
X31102Y-1476D02*
D03*
X3740Y-35138D02*
D03*
X3642Y-30217D02*
D03*
X29528Y-18996D02*
D03*
X19685Y-1476D02*
D03*
X23720Y-9350D02*
D03*
X7500Y-8900D02*
D03*
X10925Y-1870D02*
D03*
X16437Y-1476D02*
D03*
X28248D02*
D03*
X32776Y-22146D02*
D03*
X37008D02*
D03*
X41043Y-6299D02*
D03*
X26083Y-9350D02*
D03*
X2900Y-18700D02*
D03*
D43*
X36614Y-13976D02*
D03*
M02*
