G04 Layer_Color=8388736*
%FSLAX25Y25*%
%MOIN*%
G70*
G01*
G75*
%ADD21O,0.00787X0.03150*%
%ADD22O,0.03150X0.00787*%
%ADD23R,0.22441X0.22441*%
%ADD39C,0.01417*%
%ADD40R,0.03159X0.03159*%
%ADD41R,0.03159X0.03159*%
%ADD42R,0.03435X0.03435*%
%ADD43R,0.12411X0.20285*%
%ADD44R,0.03435X0.03435*%
%ADD45R,0.03150X0.06142*%
%ADD46R,0.03474X0.03513*%
%ADD47R,0.03356X0.01781*%
%ADD48R,0.04537X0.06899*%
%ADD49R,0.03750X0.03750*%
G04:AMPARAMS|DCode=50|XSize=51.18mil|YSize=47.24mil|CornerRadius=0mil|HoleSize=0mil|Usage=FLASHONLY|Rotation=45.000|XOffset=0mil|YOffset=0mil|HoleType=Round|Shape=Rectangle|*
%AMROTATEDRECTD50*
4,1,4,-0.00139,-0.03480,-0.03480,-0.00139,0.00139,0.03480,0.03480,0.00139,-0.00139,-0.03480,0.0*
%
%ADD50ROTATEDRECTD50*%

%ADD51R,0.02756X0.04724*%
%ADD52R,0.03356X0.02568*%
%ADD53R,0.03513X0.03474*%
%ADD54R,0.08474X0.08474*%
%ADD55C,0.02568*%
%ADD56C,0.02800*%
D21*
X43577Y69859D02*
D03*
X45152D02*
D03*
X46727D02*
D03*
X48302D02*
D03*
X49876D02*
D03*
X51451D02*
D03*
X53026D02*
D03*
X54601D02*
D03*
X56176D02*
D03*
X57750D02*
D03*
X59325D02*
D03*
X60900D02*
D03*
X62475D02*
D03*
X64050D02*
D03*
X43577Y42300D02*
D03*
X45152D02*
D03*
X46727D02*
D03*
X48302D02*
D03*
X49876D02*
D03*
X51451D02*
D03*
X53026D02*
D03*
X54601D02*
D03*
X56176D02*
D03*
X57750D02*
D03*
X59325D02*
D03*
X60900D02*
D03*
X62475D02*
D03*
X64050D02*
D03*
D22*
X67593Y45843D02*
D03*
Y47418D02*
D03*
Y48993D02*
D03*
Y50568D02*
D03*
Y52143D02*
D03*
Y53717D02*
D03*
Y55292D02*
D03*
Y56867D02*
D03*
Y58442D02*
D03*
Y60017D02*
D03*
Y61591D02*
D03*
Y63166D02*
D03*
Y64741D02*
D03*
Y66316D02*
D03*
X40034D02*
D03*
Y64741D02*
D03*
Y63166D02*
D03*
Y61591D02*
D03*
Y60017D02*
D03*
Y58442D02*
D03*
Y56867D02*
D03*
Y55292D02*
D03*
Y53717D02*
D03*
Y52143D02*
D03*
Y50568D02*
D03*
Y48993D02*
D03*
Y47418D02*
D03*
Y45843D02*
D03*
D23*
X53813Y56080D02*
D03*
D39*
X25884Y78384D02*
D03*
Y76416D02*
D03*
X23916Y78384D02*
D03*
Y76416D02*
D03*
D40*
X40663Y9200D02*
D03*
X44600D02*
D03*
X86231Y70300D02*
D03*
X90168D02*
D03*
X14200Y35900D02*
D03*
X10263D02*
D03*
Y30000D02*
D03*
X14200D02*
D03*
X10363Y24000D02*
D03*
X14300D02*
D03*
D41*
X60900Y36068D02*
D03*
Y32131D02*
D03*
X31800Y85800D02*
D03*
Y81863D02*
D03*
X23800Y53069D02*
D03*
Y49132D02*
D03*
X30800Y49100D02*
D03*
Y53037D02*
D03*
D42*
X47963Y86500D02*
D03*
X51900D02*
D03*
X47932Y81900D02*
D03*
X51868D02*
D03*
X6932Y71800D02*
D03*
X10869D02*
D03*
X6932Y67400D02*
D03*
X10869D02*
D03*
X44500Y4900D02*
D03*
X40563D02*
D03*
X51968Y96500D02*
D03*
X48031D02*
D03*
X51968Y91400D02*
D03*
X48031D02*
D03*
X64768Y14268D02*
D03*
X60831D02*
D03*
D43*
X7100Y89100D02*
D03*
X92900Y89200D02*
D03*
D44*
X73400Y75932D02*
D03*
Y79869D02*
D03*
X67300Y75932D02*
D03*
Y79869D02*
D03*
X40900Y75800D02*
D03*
Y79737D02*
D03*
X30300Y64500D02*
D03*
Y68437D02*
D03*
X26800Y45469D02*
D03*
Y41532D02*
D03*
X24800Y9396D02*
D03*
Y5459D02*
D03*
X30000Y9369D02*
D03*
Y5432D02*
D03*
X36100Y75800D02*
D03*
Y79737D02*
D03*
X79900Y79837D02*
D03*
Y75900D02*
D03*
X61400Y79837D02*
D03*
Y75900D02*
D03*
X60865Y24577D02*
D03*
Y28514D02*
D03*
X43500Y23963D02*
D03*
Y27900D02*
D03*
X47900Y24063D02*
D03*
Y28000D02*
D03*
D45*
X82300Y5068D02*
D03*
X95710D02*
D03*
D46*
X47947Y75900D02*
D03*
X52002D02*
D03*
X60872Y19268D02*
D03*
X64928D02*
D03*
D47*
X8466Y11759D02*
D03*
Y9200D02*
D03*
Y6641D02*
D03*
X16734Y11759D02*
D03*
Y9200D02*
D03*
Y6641D02*
D03*
D48*
X12600Y9200D02*
D03*
D49*
X7101Y49900D02*
D03*
Y57380D02*
D03*
X13400D02*
D03*
Y49900D02*
D03*
D50*
X77900Y44500D02*
D03*
X82633Y49233D02*
D03*
X86530Y45335D02*
D03*
X81797Y40603D02*
D03*
D51*
X43560Y34200D02*
D03*
X47900D02*
D03*
D52*
X79565Y70300D02*
D03*
X75400D02*
D03*
D53*
X60865Y5049D02*
D03*
Y9104D02*
D03*
D54*
X30743Y114900D02*
D03*
X94900D02*
D03*
X5100D02*
D03*
X17871D02*
D03*
X56486D02*
D03*
X69357D02*
D03*
X43614D02*
D03*
X82228D02*
D03*
D55*
X40700Y30700D02*
D03*
X50800Y30800D02*
D03*
X78300Y37100D02*
D03*
X79300Y52700D02*
D03*
D56*
X6954Y64200D02*
D03*
X29900Y29900D02*
D03*
X87500Y65805D02*
D03*
X17900Y49900D02*
D03*
X54900Y4800D02*
D03*
X55000Y10900D02*
D03*
X54600Y16900D02*
D03*
X56100Y22100D02*
D03*
X73700Y24300D02*
D03*
X70900Y29000D02*
D03*
X67300Y25500D02*
D03*
X78400Y23600D02*
D03*
X85700Y24000D02*
D03*
X77200Y29000D02*
D03*
X85700Y29300D02*
D03*
X94100Y29100D02*
D03*
Y23200D02*
D03*
Y18300D02*
D03*
X85600Y18100D02*
D03*
X78700Y17500D02*
D03*
X72800Y19100D02*
D03*
X70700Y14000D02*
D03*
X74000Y9600D02*
D03*
X68000Y9500D02*
D03*
X54224Y49500D02*
D03*
X45000Y49400D02*
D03*
X60600Y64400D02*
D03*
X3400Y101400D02*
D03*
X75400Y86329D02*
D03*
X64100Y94900D02*
D03*
X56700Y86500D02*
D03*
X41300Y85600D02*
D03*
X35900Y69400D02*
D03*
X18100Y69500D02*
D03*
X28000Y58400D02*
D03*
X35400Y34200D02*
D03*
X4800Y39800D02*
D03*
X19500Y58100D02*
D03*
X23500Y37700D02*
D03*
X4900Y14700D02*
D03*
X25300Y24800D02*
D03*
X36000Y23100D02*
D03*
X34800Y14600D02*
D03*
X35300Y3900D02*
D03*
X90900Y42000D02*
D03*
X74800Y48000D02*
D03*
X90500Y49300D02*
D03*
X47900Y20500D02*
D03*
X56300Y38000D02*
D03*
X64700Y32000D02*
D03*
X57100D02*
D03*
X6800Y30000D02*
D03*
X67100Y38000D02*
D03*
X23800Y56300D02*
D03*
X61000Y48400D02*
D03*
X47200Y63800D02*
D03*
X48000Y9100D02*
D03*
X84716Y60900D02*
D03*
X75500Y62200D02*
D03*
Y66000D02*
D03*
X28400Y89200D02*
D03*
X13400Y61400D02*
D03*
X13700Y18000D02*
D03*
X17700Y103500D02*
D03*
X30700D02*
D03*
X43600D02*
D03*
X56500D02*
D03*
X69500D02*
D03*
X82300D02*
D03*
X95000D02*
D03*
X79700Y90200D02*
D03*
X74200Y98800D02*
D03*
X63200Y102900D02*
D03*
X50100Y102300D02*
D03*
X36500Y100700D02*
D03*
X37000Y95100D02*
D03*
X24000Y100300D02*
D03*
X20200Y84000D02*
D03*
X20000Y17300D02*
D03*
X6900Y42600D02*
D03*
X3100Y2500D02*
D03*
X44500Y78700D02*
D03*
M02*
