G04 Layer_Physical_Order=2*
G04 Layer_Color=16711680*
%FSLAX25Y25*%
%MOIN*%
G70*
G01*
G75*
%ADD10C,0.00500*%
%ADD11C,0.02000*%
%ADD13C,0.01000*%
%ADD14C,0.01500*%
%ADD15C,0.00600*%
%ADD38C,0.02200*%
G36*
X92920Y34668D02*
X93108Y34387D01*
X93389Y34199D01*
X93720Y34133D01*
X98650D01*
X98878Y33946D01*
Y14500D01*
X79508D01*
X79410Y15500D01*
X79519Y15522D01*
X80214Y15986D01*
X80678Y16681D01*
X80742Y17000D01*
X76658D01*
X76722Y16681D01*
X77186Y15986D01*
X77881Y15522D01*
X77990Y15500D01*
X77892Y14500D01*
X77500D01*
Y1122D01*
X51054D01*
X50867Y1350D01*
Y19445D01*
X50801Y19777D01*
X50718Y19901D01*
X50613Y20133D01*
Y20867D01*
X50718Y21099D01*
X50801Y21223D01*
X50867Y21555D01*
Y31535D01*
X50801Y31867D01*
X51364Y32757D01*
X51875Y33029D01*
X53113Y33405D01*
X54372Y33529D01*
X54400Y33524D01*
X54588Y33340D01*
X55063Y32524D01*
X55058Y32500D01*
X59142D01*
X59137Y32524D01*
X59602Y33324D01*
X59810Y33524D01*
X61990D01*
X62198Y33324D01*
X62663Y32524D01*
X62658Y32500D01*
X66742D01*
X66737Y32524D01*
X67203Y33324D01*
X67410Y33524D01*
X88206D01*
Y33504D01*
X90077Y33688D01*
X91876Y34234D01*
X92797Y34726D01*
X92920Y34668D01*
D02*
G37*
%LPC*%
G36*
X96142Y17800D02*
X94600D01*
Y16258D01*
X94919Y16322D01*
X95614Y16786D01*
X96078Y17481D01*
X96142Y17800D01*
D02*
G37*
G36*
X93600D02*
X92058D01*
X92122Y17481D01*
X92586Y16786D01*
X93281Y16322D01*
X93600Y16258D01*
Y17800D01*
D02*
G37*
G36*
X74842Y18600D02*
X73300D01*
Y17058D01*
X73619Y17122D01*
X74314Y17586D01*
X74778Y18281D01*
X74842Y18600D01*
D02*
G37*
G36*
X72300D02*
X70758D01*
X70822Y18281D01*
X71286Y17586D01*
X71981Y17122D01*
X72300Y17058D01*
Y18600D01*
D02*
G37*
G36*
X87642Y17600D02*
X86100D01*
Y16058D01*
X86419Y16122D01*
X87114Y16586D01*
X87578Y17281D01*
X87642Y17600D01*
D02*
G37*
G36*
X54100Y16400D02*
X52558D01*
X52622Y16081D01*
X53086Y15386D01*
X53781Y14922D01*
X54100Y14858D01*
Y16400D01*
D02*
G37*
G36*
X71200Y16042D02*
Y14500D01*
X72742D01*
X72678Y14819D01*
X72214Y15514D01*
X71519Y15978D01*
X71200Y16042D01*
D02*
G37*
G36*
X85100Y17600D02*
X83558D01*
X83622Y17281D01*
X84086Y16586D01*
X84781Y16122D01*
X85100Y16058D01*
Y17600D01*
D02*
G37*
G36*
X56642Y16400D02*
X55100D01*
Y14858D01*
X55419Y14922D01*
X56114Y15386D01*
X56578Y16081D01*
X56642Y16400D01*
D02*
G37*
G36*
X96142Y22700D02*
X92058D01*
X92122Y22381D01*
X92586Y21686D01*
X93193Y21280D01*
X93242Y20750D01*
X93193Y20220D01*
X92586Y19814D01*
X92122Y19119D01*
X92058Y18800D01*
X96142D01*
X96078Y19119D01*
X95614Y19814D01*
X95007Y20220D01*
X94958Y20750D01*
X95007Y21280D01*
X95614Y21686D01*
X96078Y22381D01*
X96142Y22700D01*
D02*
G37*
G36*
X86100Y20142D02*
Y18600D01*
X87642D01*
X87578Y18919D01*
X87114Y19614D01*
X86419Y20078D01*
X86100Y20142D01*
D02*
G37*
G36*
X73300Y21142D02*
Y19600D01*
X74842D01*
X74778Y19919D01*
X74314Y20614D01*
X73619Y21078D01*
X73300Y21142D01*
D02*
G37*
G36*
X72300D02*
X71981Y21078D01*
X71286Y20614D01*
X70822Y19919D01*
X70758Y19600D01*
X72300D01*
Y21142D01*
D02*
G37*
G36*
X85100Y20142D02*
X84781Y20078D01*
X84086Y19614D01*
X83622Y18919D01*
X83558Y18600D01*
X85100D01*
Y20142D01*
D02*
G37*
G36*
X55100Y18942D02*
Y17400D01*
X56642D01*
X56578Y17719D01*
X56114Y18414D01*
X55419Y18878D01*
X55100Y18942D01*
D02*
G37*
G36*
X54100D02*
X53781Y18878D01*
X53086Y18414D01*
X52622Y17719D01*
X52558Y17400D01*
X54100D01*
Y18942D01*
D02*
G37*
G36*
X79200Y19542D02*
Y18000D01*
X80742D01*
X80678Y18319D01*
X80214Y19014D01*
X79519Y19478D01*
X79200Y19542D01*
D02*
G37*
G36*
X78200D02*
X77881Y19478D01*
X77186Y19014D01*
X76722Y18319D01*
X76658Y18000D01*
X78200D01*
Y19542D01*
D02*
G37*
G36*
X70200Y16042D02*
X69881Y15978D01*
X69186Y15514D01*
X68722Y14819D01*
X68658Y14500D01*
X70200D01*
Y16042D01*
D02*
G37*
G36*
X73500Y9100D02*
X71958D01*
X72022Y8781D01*
X72486Y8086D01*
X73181Y7622D01*
X73500Y7558D01*
Y9100D01*
D02*
G37*
G36*
X70042Y9000D02*
X68500D01*
Y7458D01*
X68819Y7522D01*
X69514Y7986D01*
X69978Y8681D01*
X70042Y9000D01*
D02*
G37*
G36*
X54500Y10400D02*
X52958D01*
X53022Y10081D01*
X53486Y9386D01*
X54181Y8922D01*
X54500Y8858D01*
Y10400D01*
D02*
G37*
G36*
X76042Y9100D02*
X74500D01*
Y7558D01*
X74819Y7622D01*
X75514Y8086D01*
X75978Y8781D01*
X76042Y9100D01*
D02*
G37*
G36*
X67500Y9000D02*
X65958D01*
X66022Y8681D01*
X66486Y7986D01*
X67181Y7522D01*
X67500Y7458D01*
Y9000D01*
D02*
G37*
G36*
X56942Y4300D02*
X55400D01*
Y2758D01*
X55719Y2822D01*
X56414Y3286D01*
X56878Y3981D01*
X56942Y4300D01*
D02*
G37*
G36*
X54400D02*
X52858D01*
X52922Y3981D01*
X53386Y3286D01*
X54081Y2822D01*
X54400Y2758D01*
Y4300D01*
D02*
G37*
G36*
X55400Y6842D02*
Y5300D01*
X56942D01*
X56878Y5619D01*
X56414Y6314D01*
X55719Y6778D01*
X55400Y6842D01*
D02*
G37*
G36*
X54400D02*
X54081Y6778D01*
X53386Y6314D01*
X52922Y5619D01*
X52858Y5300D01*
X54400D01*
Y6842D01*
D02*
G37*
G36*
X55500Y12942D02*
Y11400D01*
X57042D01*
X56978Y11719D01*
X56514Y12414D01*
X55819Y12878D01*
X55500Y12942D01*
D02*
G37*
G36*
X54500D02*
X54181Y12878D01*
X53486Y12414D01*
X53022Y11719D01*
X52958Y11400D01*
X54500D01*
Y12942D01*
D02*
G37*
G36*
X72742Y13500D02*
X71200D01*
Y11958D01*
X71519Y12022D01*
X72214Y12486D01*
X72678Y13181D01*
X72742Y13500D01*
D02*
G37*
G36*
X70200D02*
X68658D01*
X68722Y13181D01*
X69186Y12486D01*
X69881Y12022D01*
X70200Y11958D01*
Y13500D01*
D02*
G37*
G36*
X74500Y11642D02*
Y10100D01*
X76042D01*
X75978Y10419D01*
X75514Y11114D01*
X74819Y11578D01*
X74500Y11642D01*
D02*
G37*
G36*
X67500Y11542D02*
X67181Y11478D01*
X66486Y11014D01*
X66022Y10319D01*
X65958Y10000D01*
X67500D01*
Y11542D01*
D02*
G37*
G36*
X57042Y10400D02*
X55500D01*
Y8858D01*
X55819Y8922D01*
X56514Y9386D01*
X56978Y10081D01*
X57042Y10400D01*
D02*
G37*
G36*
X73500Y11642D02*
X73181Y11578D01*
X72486Y11114D01*
X72022Y10419D01*
X71958Y10100D01*
X73500D01*
Y11642D01*
D02*
G37*
G36*
X68500Y11542D02*
Y10000D01*
X70042D01*
X69978Y10319D01*
X69514Y11014D01*
X68819Y11478D01*
X68500Y11542D01*
D02*
G37*
G36*
X55600Y21600D02*
X54058D01*
X54122Y21281D01*
X54586Y20586D01*
X55281Y20122D01*
X55600Y20058D01*
Y21600D01*
D02*
G37*
G36*
X70400Y31042D02*
X70081Y30978D01*
X69386Y30514D01*
X68922Y29819D01*
X68858Y29500D01*
X70400D01*
Y31042D01*
D02*
G37*
G36*
Y28500D02*
X68858D01*
X68922Y28181D01*
X68965Y28116D01*
X68244Y27395D01*
X68119Y27478D01*
X67800Y27542D01*
Y26000D01*
X69342D01*
X69278Y26319D01*
X69235Y26384D01*
X69956Y27105D01*
X70081Y27022D01*
X70400Y26958D01*
Y28500D01*
D02*
G37*
G36*
X76700Y31042D02*
X76381Y30978D01*
X75686Y30514D01*
X75222Y29819D01*
X75158Y29500D01*
X76700D01*
Y31042D01*
D02*
G37*
G36*
X71400D02*
Y29500D01*
X72942D01*
X72878Y29819D01*
X72414Y30514D01*
X71719Y30978D01*
X71400Y31042D01*
D02*
G37*
G36*
X87742Y28800D02*
X86200D01*
Y27258D01*
X86519Y27322D01*
X87214Y27786D01*
X87678Y28481D01*
X87742Y28800D01*
D02*
G37*
G36*
X93600Y28600D02*
X92058D01*
X92122Y28281D01*
X92586Y27586D01*
X93281Y27122D01*
X93600Y27058D01*
Y28600D01*
D02*
G37*
G36*
X79242Y28500D02*
X77700D01*
Y26958D01*
X78019Y27022D01*
X78714Y27486D01*
X79178Y28181D01*
X79242Y28500D01*
D02*
G37*
G36*
X85200Y28800D02*
X83658D01*
X83722Y28481D01*
X84186Y27786D01*
X84881Y27322D01*
X85200Y27258D01*
Y28800D01*
D02*
G37*
G36*
X96142Y28600D02*
X94600D01*
Y27058D01*
X94919Y27122D01*
X95614Y27586D01*
X96078Y28281D01*
X96142Y28600D01*
D02*
G37*
G36*
X59142Y31500D02*
X57600D01*
Y29958D01*
X57919Y30022D01*
X58614Y30486D01*
X59078Y31181D01*
X59142Y31500D01*
D02*
G37*
G36*
X56600D02*
X55058D01*
X55122Y31181D01*
X55586Y30486D01*
X56281Y30022D01*
X56600Y29958D01*
Y31500D01*
D02*
G37*
G36*
X66742D02*
X65200D01*
Y29958D01*
X65519Y30022D01*
X66214Y30486D01*
X66678Y31181D01*
X66742Y31500D01*
D02*
G37*
G36*
X64200D02*
X62658D01*
X62722Y31181D01*
X63186Y30486D01*
X63881Y30022D01*
X64200Y29958D01*
Y31500D01*
D02*
G37*
G36*
X86200Y31342D02*
Y29800D01*
X87742D01*
X87678Y30119D01*
X87214Y30814D01*
X86519Y31278D01*
X86200Y31342D01*
D02*
G37*
G36*
X93600Y31142D02*
X93281Y31078D01*
X92586Y30614D01*
X92122Y29919D01*
X92058Y29600D01*
X93600D01*
Y31142D01*
D02*
G37*
G36*
X77700Y31042D02*
Y29500D01*
X79242D01*
X79178Y29819D01*
X78714Y30514D01*
X78019Y30978D01*
X77700Y31042D01*
D02*
G37*
G36*
X85200Y31342D02*
X84881Y31278D01*
X84186Y30814D01*
X83722Y30119D01*
X83658Y29800D01*
X85200D01*
Y31342D01*
D02*
G37*
G36*
X94600Y31142D02*
Y29600D01*
X96142D01*
X96078Y29919D01*
X95614Y30614D01*
X94919Y31078D01*
X94600Y31142D01*
D02*
G37*
G36*
X76700Y28500D02*
X75158D01*
X75222Y28181D01*
X75686Y27486D01*
X76381Y27022D01*
X76700Y26958D01*
Y28500D01*
D02*
G37*
G36*
X55600Y24142D02*
X55281Y24078D01*
X54586Y23614D01*
X54122Y22919D01*
X54058Y22600D01*
X55600D01*
Y24142D01*
D02*
G37*
G36*
X73200Y23800D02*
X71658D01*
X71722Y23481D01*
X72186Y22786D01*
X72881Y22322D01*
X73200Y22258D01*
Y23800D01*
D02*
G37*
G36*
X66800Y25000D02*
X65258D01*
X65322Y24681D01*
X65786Y23986D01*
X66481Y23522D01*
X66800Y23458D01*
Y25000D01*
D02*
G37*
G36*
X56600Y24142D02*
Y22600D01*
X58142D01*
X58078Y22919D01*
X57614Y23614D01*
X56919Y24078D01*
X56600Y24142D01*
D02*
G37*
G36*
X87742Y23500D02*
X86200D01*
Y21958D01*
X86519Y22022D01*
X87214Y22486D01*
X87678Y23181D01*
X87742Y23500D01*
D02*
G37*
G36*
X74200Y26342D02*
Y24300D01*
Y22258D01*
X74519Y22322D01*
X75214Y22786D01*
X75358Y23002D01*
X76420Y22791D01*
X76422Y22781D01*
X76886Y22086D01*
X77581Y21622D01*
X77900Y21558D01*
Y23600D01*
Y25642D01*
X77581Y25578D01*
X76886Y25114D01*
X76742Y24898D01*
X75680Y25109D01*
X75678Y25119D01*
X75214Y25814D01*
X74519Y26278D01*
X74200Y26342D01*
D02*
G37*
G36*
X58142Y21600D02*
X56600D01*
Y20058D01*
X56919Y20122D01*
X57614Y20586D01*
X58078Y21281D01*
X58142Y21600D01*
D02*
G37*
G36*
X85200Y23500D02*
X83658D01*
X83722Y23181D01*
X84186Y22486D01*
X84881Y22022D01*
X85200Y21958D01*
Y23500D01*
D02*
G37*
G36*
X80442Y23100D02*
X78900D01*
Y21558D01*
X79219Y21622D01*
X79914Y22086D01*
X80378Y22781D01*
X80442Y23100D01*
D02*
G37*
G36*
X73200Y26342D02*
X72881Y26278D01*
X72186Y25814D01*
X71722Y25119D01*
X71658Y24800D01*
X73200D01*
Y26342D01*
D02*
G37*
G36*
X86200Y26042D02*
Y24500D01*
X87742D01*
X87678Y24819D01*
X87214Y25514D01*
X86519Y25978D01*
X86200Y26042D01*
D02*
G37*
G36*
X72942Y28500D02*
X71400D01*
Y26958D01*
X71719Y27022D01*
X72414Y27486D01*
X72878Y28181D01*
X72942Y28500D01*
D02*
G37*
G36*
X66800Y27542D02*
X66481Y27478D01*
X65786Y27014D01*
X65322Y26319D01*
X65258Y26000D01*
X66800D01*
Y27542D01*
D02*
G37*
G36*
X85200Y26042D02*
X84881Y25978D01*
X84186Y25514D01*
X83722Y24819D01*
X83658Y24500D01*
X85200D01*
Y26042D01*
D02*
G37*
G36*
X93600Y25242D02*
X93281Y25178D01*
X92586Y24714D01*
X92122Y24019D01*
X92058Y23700D01*
X93600D01*
Y25242D01*
D02*
G37*
G36*
X69342Y25000D02*
X67800D01*
Y23458D01*
X68119Y23522D01*
X68814Y23986D01*
X69278Y24681D01*
X69342Y25000D01*
D02*
G37*
G36*
X78900Y25642D02*
Y24100D01*
X80442D01*
X80378Y24419D01*
X79914Y25114D01*
X79219Y25578D01*
X78900Y25642D01*
D02*
G37*
G36*
X94600Y25242D02*
Y23700D01*
X96142D01*
X96078Y24019D01*
X95614Y24714D01*
X94919Y25178D01*
X94600Y25242D01*
D02*
G37*
%LPD*%
D10*
X84250Y103500D02*
G03*
X80700Y102385I-1950J0D01*
G01*
X83900D02*
G03*
X84250Y103500I-1600J1115D01*
G01*
X97350D02*
G03*
X97350Y103500I-2350J0D01*
G01*
X71450D02*
G03*
X67900Y102385I-1950J0D01*
G01*
X71100D02*
G03*
X71450Y103500I-1600J1115D01*
G01*
X76550Y98800D02*
G03*
X76550Y98800I-2350J0D01*
G01*
X92123Y86277D02*
G03*
X87700Y90700I-4423J0D01*
G01*
X88923Y86277D02*
G03*
X87700Y87500I-1223J0D01*
G01*
X83900Y94500D02*
G03*
X87700Y90700I3800J0D01*
G01*
X80700Y94500D02*
G03*
X81140Y92057I7000J0D01*
G01*
X82043Y90377D02*
G03*
X87700Y87500I5657J4123D01*
G01*
X81140Y92057D02*
G03*
X82050Y90200I-1440J-1857D01*
G01*
X77750Y86329D02*
G03*
X77750Y86329I-2350J0D01*
G01*
X71100Y78400D02*
G03*
X72300Y77200I1200J0D01*
G01*
X82300Y70309D02*
G03*
X75409Y77200I-6891J0D01*
G01*
X79100Y70309D02*
G03*
X75409Y74000I-3691J0D01*
G01*
X67900Y78400D02*
G03*
X72300Y74000I4400J0D01*
G01*
X65550Y102900D02*
G03*
X65550Y102900I-2350J0D01*
G01*
X58100Y102385D02*
G03*
X58450Y103500I-1600J1115D01*
G01*
D02*
G03*
X54900Y102385I-1950J0D01*
G01*
X66450Y94900D02*
G03*
X66450Y94900I-2350J0D01*
G01*
X45200Y102385D02*
G03*
X45550Y103500I-1600J1115D01*
G01*
X52450Y102300D02*
G03*
X52450Y102300I-2350J0D01*
G01*
X45550Y103500D02*
G03*
X42000Y102385I-1950J0D01*
G01*
X45200Y97842D02*
G03*
X47660Y91902I8400J0D01*
G01*
X42000Y97842D02*
G03*
X45398Y89640I11600J0D01*
G01*
X63200Y88000D02*
G03*
X58800Y92400I-4400J0D01*
G01*
X60000Y88000D02*
G03*
X58800Y89200I-1200J0D01*
G01*
X58100Y93100D02*
G03*
X58800Y92400I700J0D01*
G01*
X63200Y71500D02*
G03*
X67100Y67600I3900J0D01*
G01*
X54900Y93100D02*
G03*
X58800Y89200I3900J0D01*
G01*
X59050Y86500D02*
G03*
X59050Y86500I-2350J0D01*
G01*
X43650Y85600D02*
G03*
X43650Y85600I-2350J0D01*
G01*
X56100Y78658D02*
G03*
X52702Y86860I-11600J0D01*
G01*
X52900Y78658D02*
G03*
X50440Y84598I-8400J0D01*
G01*
X46850Y78700D02*
G03*
X46850Y78700I-2350J0D01*
G01*
X92123Y66908D02*
G03*
X93228Y64235I3785J0D01*
G01*
X89221Y64888D02*
G03*
X90969Y61969I6687J2019D01*
G01*
X88923Y67139D02*
G03*
X85778Y66721I-1423J-1333D01*
G01*
X96600Y56099D02*
G03*
X93231Y64231I-11501J0D01*
G01*
X93400Y56099D02*
G03*
X90969Y61969I-8301J0D01*
G01*
X84000Y53600D02*
G03*
X89100Y58700I0J5100D01*
G01*
X85778Y66721D02*
G03*
X82940Y65066I1722J-6215D01*
G01*
X82042Y64168D02*
G03*
X82300Y65783I-4925J1615D01*
G01*
X77450Y66000D02*
G03*
X74385Y67600I-1950J0D01*
G01*
X60000Y71500D02*
G03*
X67100Y64400I7100J0D01*
G01*
X75939Y64100D02*
G03*
X77450Y66000I-439J1900D01*
G01*
X74385Y64400D02*
G03*
X75061Y64100I1115J1600D01*
G01*
X77117Y63800D02*
G03*
X79100Y65783I0J1983D01*
G01*
X76615Y63800D02*
G03*
X75939Y64100I-1115J-1600D01*
G01*
X75061D02*
G03*
X74047Y60900I439J-1900D01*
G01*
X95131Y36169D02*
G03*
X96600Y39714I-3546J3546D01*
G01*
X93720Y35000D02*
G03*
X95131Y36169I-5514J8094D01*
G01*
X93250Y42000D02*
G03*
X93250Y42000I-2350J0D01*
G01*
X92871Y38434D02*
G03*
X93400Y39714I-1286J1280D01*
G01*
X88206Y36500D02*
G03*
X92865Y38428I0J6594D01*
G01*
X92850Y49300D02*
G03*
X92850Y49300I-2350J0D01*
G01*
X77150Y48000D02*
G03*
X77150Y48000I-2350J0D01*
G01*
X68346Y36500D02*
G03*
X69050Y38000I-1246J1500D01*
G01*
D02*
G03*
X65985Y39600I-1950J0D01*
G01*
X62950Y64400D02*
G03*
X62950Y64400I-2350J0D01*
G01*
X56100Y66000D02*
G03*
X61200Y60900I5100J0D01*
G01*
X63350Y48400D02*
G03*
X63350Y48400I-2350J0D01*
G01*
X57059Y58650D02*
G03*
X56200Y58900I-859J-1350D01*
G01*
X52900Y66000D02*
G03*
X57344Y58650I8300J0D01*
G01*
X49550Y63800D02*
G03*
X49550Y63800I-2350J0D01*
G01*
X56574Y49500D02*
G03*
X56574Y49500I-2350J0D01*
G01*
X47350Y49400D02*
G03*
X47350Y49400I-2350J0D01*
G01*
X57415Y39600D02*
G03*
X55185Y39600I-1115J-1600D01*
G01*
X50000Y21555D02*
G03*
X50000Y19445I-2100J-1055D01*
G01*
X49600Y11396D02*
G03*
X47431Y16631I-7404J0D01*
G01*
X49950Y9100D02*
G03*
X49600Y10215I-1950J0D01*
G01*
X46400D02*
G03*
X49950Y9100I1600J-1115D01*
G01*
X45900Y39600D02*
G03*
X41500Y35200I0J-4400D01*
G01*
X40583Y28300D02*
G03*
X43133Y29185I0J4117D01*
G01*
Y29185D02*
G03*
X41200Y24196I5471J-4989D01*
G01*
X45628Y27165D02*
G03*
X44400Y24196I2976J-2969D01*
G01*
X40583Y31500D02*
G03*
X41500Y32417I0J917D01*
G01*
X46400Y11396D02*
G03*
X45172Y14365I-4204J0D01*
G01*
X44400Y21000D02*
G03*
X45342Y18720I3228J0D01*
G01*
X41200Y21000D02*
G03*
X43083Y16454I6428J0D01*
G01*
X38850Y100700D02*
G03*
X38850Y100700I-2350J0D01*
G01*
X32300Y102385D02*
G03*
X32650Y103500I-1600J1115D01*
G01*
D02*
G03*
X29100Y102385I-1950J0D01*
G01*
X39350Y95100D02*
G03*
X39350Y95100I-2350J0D01*
G01*
X29434Y90853D02*
G03*
X32300Y95500I-2334J4647D01*
G01*
X30350Y89200D02*
G03*
X29434Y90853I-1950J0D01*
G01*
X27100Y93500D02*
G03*
X29100Y95500I0J2000D01*
G01*
X27100Y93500D02*
G03*
X22300Y88700I0J-4800D01*
G01*
X26350Y100300D02*
G03*
X26350Y100300I-2350J0D01*
G01*
X38250Y69400D02*
G03*
X38250Y69400I-2350J0D01*
G01*
X30000Y88085D02*
G03*
X30350Y89200I-1600J1115D01*
G01*
X25800Y73500D02*
G03*
X30000Y77700I0J4200D01*
G01*
X25800Y73500D02*
G03*
X25500Y73200I0J-300D01*
G01*
X36935Y58900D02*
G03*
X29769Y55931I0J-10136D01*
G01*
X30350Y58400D02*
G03*
X30350Y58400I-2350J0D01*
G01*
X22443Y74190D02*
G03*
X22346Y73769I3357J-989D01*
G01*
X19700Y73500D02*
G03*
X22443Y74190I0J5800D01*
G01*
X25400Y72643D02*
G03*
X25500Y73200I-1500J557D01*
G01*
X22346Y73769D02*
G03*
X22200Y73100I1453J-669D01*
G01*
X25400Y72643D02*
G03*
X25500Y73200I-1500J557D01*
G01*
X22346Y73769D02*
G03*
X22200Y73100I1453J-669D01*
G01*
X22300Y85055D02*
G03*
X22300Y82945I-2100J-1055D01*
G01*
X19700Y76700D02*
G03*
X22300Y79300I0J2600D01*
G01*
X25750Y56300D02*
G03*
X25400Y57415I-1950J0D01*
G01*
X19550Y102884D02*
G03*
X19650Y103500I-1850J616D01*
G01*
D02*
G03*
X15850Y102884I-1950J0D01*
G01*
X19650Y93017D02*
G03*
X19550Y93634I-1950J0D01*
G01*
X15850Y93117D02*
G03*
X15950Y92517I1850J0D01*
G01*
X15850Y93117D02*
G03*
X15950Y92517I1850J0D01*
G01*
X13565Y87815D02*
G03*
X15950Y90200I0J2385D01*
G01*
X13565Y84115D02*
G03*
X19650Y90200I0J6085D01*
G01*
X12200Y84115D02*
G03*
X8750Y80665I0J-3450D01*
G01*
X12200Y87815D02*
G03*
X5050Y80665I0J-7150D01*
G01*
X5750Y101400D02*
G03*
X1350Y102549I-2350J0D01*
G01*
Y100251D02*
G03*
X5750Y101400I2050J1149D01*
G01*
X20450Y69500D02*
G03*
X20450Y69500I-2350J0D01*
G01*
X16400Y73500D02*
G03*
X15000Y72100I0J-1400D01*
G01*
X16400Y76700D02*
G03*
X11800Y72100I0J-4600D01*
G01*
X21850Y58100D02*
G03*
X18070Y56235I-2350J0D01*
G01*
Y56235D02*
G03*
X17419Y56281I-650J-4635D01*
G01*
X15350Y61400D02*
G03*
X15000Y62515I-1950J0D01*
G01*
X14900Y60154D02*
G03*
X15350Y61400I-1500J1246D01*
G01*
X14900Y57500D02*
G03*
X16119Y56281I1219J0D01*
G01*
X8750Y63440D02*
G03*
X8904Y64200I-1796J760D01*
G01*
D02*
G03*
X8750Y64960I-1950J0D01*
G01*
X11800Y62515D02*
G03*
X11700Y60445I1600J-1115D01*
G01*
X5050Y64620D02*
G03*
X5050Y63780I1904J-420D01*
G01*
X37700Y53600D02*
G03*
X34100Y50000I0J-3600D01*
G01*
X31902Y53552D02*
G03*
X30900Y50000I5798J-3552D01*
G01*
X28444Y39506D02*
G03*
X30900Y45442I-5944J5936D01*
G01*
X37750Y34200D02*
G03*
X37750Y34200I-2350J0D01*
G01*
X30702Y37240D02*
G03*
X34100Y45442I-8202J8202D01*
G01*
X23558Y53200D02*
G03*
X29498Y55660I0J8400D01*
G01*
X23558Y50000D02*
G03*
X31760Y53398I0J11600D01*
G01*
X22200Y57415D02*
G03*
X25750Y56300I1600J-1115D01*
G01*
X19582Y55751D02*
G03*
X21850Y58100I-82J2349D01*
G01*
X21818Y53200D02*
G03*
X19582Y55751I-4399J-1600D01*
G01*
X25850Y37700D02*
G03*
X22100Y39588I-2350J0D01*
G01*
X25652Y36756D02*
G03*
X25850Y37700I-2152J944D01*
G01*
X21587Y36336D02*
G03*
X24411Y35534I1913J1364D01*
G01*
X38350Y23100D02*
G03*
X38350Y23100I-2350J0D01*
G01*
X31015Y31500D02*
G03*
X31015Y28300I-1115J-1600D01*
G01*
X37150Y14600D02*
G03*
X37150Y14600I-2350J0D01*
G01*
X37650Y3900D02*
G03*
X37650Y3900I-2350J0D01*
G01*
X27650Y24800D02*
G03*
X27650Y24800I-2350J0D01*
G01*
X22350Y17300D02*
G03*
X22350Y17300I-2350J0D01*
G01*
X18900Y51600D02*
G03*
X17419Y53081I-1481J0D01*
G01*
X18900Y51574D02*
G03*
X16300Y48785I-1000J-1674D01*
G01*
X11700Y57500D02*
G03*
X16119Y53081I4419J0D01*
G01*
X8850Y42600D02*
G03*
X8750Y43216I-1950J0D01*
G01*
X13600Y36000D02*
G03*
X18900Y39308I0J5900D01*
G01*
X13600Y39200D02*
G03*
X16300Y41900I0J2700D01*
G01*
X14400Y34600D02*
G03*
X18900Y39100I0J4500D01*
G01*
X14400Y31400D02*
G03*
X21587Y36336I0J7700D01*
G01*
X6990Y40652D02*
G03*
X8850Y42600I-90J1948D01*
G01*
X7150Y39800D02*
G03*
X6990Y40652I-2350J0D01*
G01*
X5050Y43216D02*
G03*
X5005Y42141I1850J-616D01*
G01*
X7064Y39169D02*
G03*
X7150Y39800I-2264J631D01*
G01*
X7700Y39200D02*
G03*
X7064Y39169I0J-6600D01*
G01*
X7700Y36000D02*
G03*
X4300Y32600I0J-3400D01*
G01*
X5005Y42141D02*
G03*
X3605Y37776I-205J-2341D01*
G01*
Y37776D02*
G03*
X1350Y34399I4095J-5176D01*
G01*
X16216Y22932D02*
G03*
X15300Y20720I2211J-2211D01*
G01*
X8750Y30000D02*
G03*
X8400Y31115I-1950J0D01*
G01*
X8200Y34600D02*
G03*
X5200Y31600I0J-3000D01*
G01*
X13953Y25194D02*
G03*
X12100Y20720I4474J-4474D01*
G01*
X12585Y16400D02*
G03*
X15650Y18000I1115J1600D01*
G01*
D02*
G03*
X15300Y19115I-1950J0D01*
G01*
X7250Y14700D02*
G03*
X6522Y16400I-2350J0D01*
G01*
X5149Y1350D02*
G03*
X5450Y2500I-2049J1150D01*
G01*
X5200Y31115D02*
G03*
X8750Y30000I1600J-1115D01*
G01*
X4300Y21200D02*
G03*
X5900Y19600I1600J0D01*
G01*
X1350Y19671D02*
G03*
X3911Y16832I4550J1529D01*
G01*
D02*
G03*
X7250Y14700I989J-2132D01*
G01*
X5450Y2500D02*
G03*
X1350Y4068I-2350J0D01*
G01*
X96112Y118650D02*
X98650Y116112D01*
X98234Y118650D02*
X98650Y118234D01*
X89748Y118650D02*
X98650Y109748D01*
X85506Y118650D02*
X98650Y105506D01*
X87627Y118650D02*
X98650Y107627D01*
X83384Y118650D02*
X98650Y103384D01*
X96891Y104895D02*
X98650Y106654D01*
X95637Y105762D02*
X98650Y108775D01*
X97333Y103215D02*
X98650Y104532D01*
X93991Y118650D02*
X98650Y113991D01*
X91870Y118650D02*
X98650Y111870D01*
X83893Y104625D02*
X97918Y118650D01*
X82577Y105430D02*
X95797Y118650D01*
X84069Y102679D02*
X98650Y117260D01*
X81263Y118650D02*
X94203Y105711D01*
X79142Y118650D02*
X93022Y104769D01*
X77021Y118650D02*
X92714Y102957D01*
X96269Y101522D02*
X98650Y99142D01*
X97211Y102703D02*
X98650Y101263D01*
X87003Y90764D02*
X98650Y102411D01*
X83900Y98268D02*
X98650Y113018D01*
X83900Y100389D02*
X98650Y115139D01*
X83900Y96146D02*
X98650Y110896D01*
X88896Y90535D02*
X98650Y100290D01*
X94457Y101214D02*
X98650Y97021D01*
X83900Y96921D02*
X98650Y82171D01*
X83900Y101164D02*
X98650Y86414D01*
X83900Y99043D02*
X98650Y84293D01*
X84185Y103000D02*
X98650Y88535D01*
X83900Y94500D02*
Y102385D01*
X80700Y94500D02*
Y102385D01*
X83926Y94051D02*
X92738Y102863D01*
X90321Y89840D02*
X98650Y98168D01*
X90321Y89840D02*
X98650Y98168D01*
X91361Y88758D02*
X98650Y96047D01*
X84479Y92483D02*
X93605Y101609D01*
X85511Y91394D02*
X95285Y101167D01*
X69839Y105420D02*
X83069Y118650D01*
X68535D02*
X81800Y105385D01*
X66414Y118650D02*
X80603Y104461D01*
X65527Y103229D02*
X80948Y118650D01*
X64293D02*
X80700Y102243D01*
X62171Y118650D02*
X80700Y100121D01*
X74050Y101145D02*
X91554Y118650D01*
X71191Y102530D02*
X87312Y118650D01*
X75664Y100638D02*
X93676Y118650D01*
X71122Y104582D02*
X85190Y118650D01*
X71100Y100317D02*
X89433Y118650D01*
X64799Y104622D02*
X78826Y118650D01*
X63303Y105248D02*
X76705Y118650D01*
X58224Y104411D02*
X72463Y118650D01*
X58100Y102166D02*
X74584Y118650D01*
X76487Y99340D02*
X80370Y103223D01*
X71399Y103058D02*
X73435Y101022D01*
X71100Y101236D02*
X72240Y100096D01*
X72778Y118650D02*
X98650Y92778D01*
X74899Y118650D02*
X98650Y94899D01*
X71100Y91832D02*
X80700Y101432D01*
X57929Y118650D02*
X80700Y95879D01*
X60050Y118650D02*
X80700Y98000D01*
X70657Y118650D02*
X98650Y90657D01*
X76422Y98035D02*
X80744Y93713D01*
X75496Y96840D02*
X79788Y92548D01*
X71100Y89710D02*
X80700Y99310D01*
X71100Y87589D02*
X80700Y97189D01*
X71100Y85468D02*
X80700Y95068D01*
X71100Y99115D02*
X71901Y98314D01*
X71100Y78400D02*
Y102385D01*
X73714Y96501D02*
X78203Y92012D01*
X71100Y93953D02*
X73660Y96513D01*
X71100Y96993D02*
X77402Y90691D01*
X71100Y98196D02*
X71855Y98950D01*
X71100Y96074D02*
X72362Y97336D01*
X92123Y85277D02*
X98650Y91804D01*
X92007Y87283D02*
X98650Y93926D01*
X92123Y83156D02*
X98650Y89683D01*
X83187Y89149D02*
X88923Y83413D01*
X81512Y88703D02*
X88923Y81292D01*
X92123Y81035D02*
X98650Y87562D01*
X92112Y86588D02*
X98650Y80050D01*
X86913Y87544D02*
X88923Y85535D01*
X80191Y87902D02*
X88923Y79171D01*
X83900Y94800D02*
X88011Y90689D01*
X80241Y92487D02*
X80844Y93090D01*
X82048Y90288D02*
X82349Y89986D01*
X77415Y87539D02*
X78236Y88361D01*
X77651Y85655D02*
X79851Y87855D01*
X92123Y74671D02*
X98650Y81198D01*
X92123Y82335D02*
X98650Y75807D01*
X92123Y80213D02*
X98650Y73686D01*
X92123Y84456D02*
X98650Y77929D01*
X92123Y78913D02*
X98650Y85440D01*
X92123Y76792D02*
X98650Y83319D01*
X92123Y75971D02*
X98650Y69443D01*
X92123Y70428D02*
X98650Y76955D01*
X92123Y68307D02*
X98650Y74834D01*
X92123Y72549D02*
X98650Y79076D01*
X92123Y78092D02*
X98650Y71565D01*
X80090Y75366D02*
X88923Y84198D01*
X78870Y76268D02*
X88922Y86319D01*
X81076Y74230D02*
X88923Y82077D01*
X77391Y76909D02*
X87955Y87473D01*
X77740Y86111D02*
X88923Y74928D01*
X82300Y69090D02*
X88923Y75713D01*
X82247Y71159D02*
X88923Y77835D01*
X87320Y67747D02*
X88923Y69349D01*
X81815Y72848D02*
X88923Y79956D01*
X80922Y74443D02*
X87613Y67752D01*
X76267Y88513D02*
X77413Y89659D01*
X71567Y77450D02*
X83230Y89113D01*
X71100Y94872D02*
X88923Y77049D01*
X73439Y77200D02*
X84509Y88270D01*
X75559Y77198D02*
X86056Y87696D01*
X71100Y79104D02*
X76075Y84078D01*
X71100Y82144D02*
X76077Y77168D01*
X71100Y92751D02*
X75182Y88669D01*
X71100Y90629D02*
X73738Y87991D01*
X71100Y88508D02*
X73060Y86548D01*
X71100Y80023D02*
X73923Y77200D01*
X72300D02*
X75409D01*
X71100Y83346D02*
X73216Y85462D01*
X71100Y81225D02*
X74190Y84315D01*
X77062Y84668D02*
X88923Y72807D01*
X77391Y76909D02*
X87955Y87473D01*
X75618Y83990D02*
X88923Y70685D01*
X71100Y84265D02*
X79543Y75822D01*
X71100Y86387D02*
X88923Y68564D01*
X75001Y74000D02*
X79100Y69901D01*
X76586Y67619D02*
X79100Y70133D01*
X72880Y74000D02*
X79100Y67780D01*
X74547Y67701D02*
X78742Y71896D01*
X72300Y74000D02*
X75409D01*
X64680Y68441D02*
X70586Y74347D01*
X63200Y79438D02*
X74813Y67825D01*
X63200Y75195D02*
X70795Y67600D01*
X70203D02*
X76452Y73849D01*
X68082Y67600D02*
X74482Y74000D01*
X72324Y67600D02*
X77824Y73100D01*
X66093Y67732D02*
X72360Y74000D01*
X67100Y67600D02*
X74385D01*
X57059Y105368D02*
X70341Y118650D01*
X55807D02*
X69058Y105399D01*
X53686Y118650D02*
X67830Y104506D01*
X52391Y102822D02*
X68220Y118650D01*
X51577Y104128D02*
X66099Y118650D01*
X51565D02*
X67900Y102315D01*
X64797Y101175D02*
X67900Y98072D01*
X65526Y102567D02*
X67900Y100193D01*
X63767Y97226D02*
X67900Y101359D01*
X58439Y103291D02*
X64517Y97213D01*
X58100Y97923D02*
X61478Y101301D01*
X58100Y100045D02*
X60852Y102797D01*
X58100Y101508D02*
X62770Y96838D01*
X52333Y103033D02*
X54900Y100465D01*
X52129Y101115D02*
X54900Y98344D01*
X66353Y95569D02*
X67900Y97117D01*
X65471Y96809D02*
X67900Y99238D01*
Y78400D02*
Y102385D01*
X63299Y100552D02*
X67900Y95951D01*
X58100Y93681D02*
X67580Y103161D01*
X58100Y97265D02*
X67900Y87465D01*
X66413Y95317D02*
X67900Y93829D01*
X66038Y93570D02*
X67900Y91708D01*
X62780Y89876D02*
X67900Y94996D01*
X58100Y95144D02*
X67900Y85344D01*
X58100Y95802D02*
X62871Y100573D01*
X58100Y99387D02*
X61864Y95623D01*
X58100Y93100D02*
Y102385D01*
X50995Y100127D02*
X54900Y96223D01*
Y93100D02*
Y102385D01*
X58938Y92398D02*
X61774Y95233D01*
X44288Y105325D02*
X57613Y118650D01*
X43079D02*
X56291Y105439D01*
X45380Y104296D02*
X59735Y118650D01*
X40958D02*
X54939Y104669D01*
X38837Y118650D02*
X54676Y102811D01*
X38599Y101757D02*
X55492Y118650D01*
X49974Y104647D02*
X63977Y118650D01*
X49443D02*
X62867Y105226D01*
X47322Y118650D02*
X61475Y104497D01*
X45201Y118650D02*
X60852Y102999D01*
X45200Y101994D02*
X61856Y118650D01*
X37532Y102811D02*
X53371Y118650D01*
X38591Y99628D02*
X41775Y102812D01*
X45200Y99873D02*
X47753Y102426D01*
X38268Y102248D02*
X42000Y98516D01*
X46768Y92955D02*
X54900Y101087D01*
X45986Y94295D02*
X54632Y102941D01*
X47748Y91814D02*
X54900Y98966D01*
X45200Y101680D02*
X55148Y91733D01*
X45549Y103452D02*
X54900Y94101D01*
X45200Y99559D02*
X56012Y88747D01*
X49870Y89693D02*
X54900Y94723D01*
X48809Y90754D02*
X54900Y96845D01*
X45805Y94711D02*
X54378Y86138D01*
X45210Y97427D02*
X54781Y87857D01*
X39333Y94819D02*
X52247Y81905D01*
X45200Y97752D02*
X48272Y100823D01*
X45200Y97842D02*
Y102385D01*
X45436Y95866D02*
X49578Y100009D01*
X42000Y97842D02*
Y102385D01*
X38203Y97119D02*
X42000Y100915D01*
X39181Y95975D02*
X42000Y98794D01*
X38648Y99747D02*
X42104Y96291D01*
X37633Y98641D02*
X42892Y93382D01*
X63197Y88171D02*
X67900Y92874D01*
X64823Y92664D02*
X67900Y89587D01*
X63200Y86053D02*
X67900Y90753D01*
X61903Y91120D02*
X63431Y92647D01*
X60653Y91991D02*
X62191Y93529D01*
X63200Y81810D02*
X67900Y86510D01*
X63200Y87923D02*
X67900Y83223D01*
X63200Y85801D02*
X67900Y81101D01*
X63200Y83932D02*
X67900Y88632D01*
X58105Y93018D02*
X58718Y92405D01*
X58627Y87844D02*
X59640Y88857D01*
X57433Y89448D02*
X60000Y86880D01*
X57404Y88742D02*
X57955Y89293D01*
X58947Y85812D02*
X60000Y84759D01*
X59018Y86114D02*
X60000Y87096D01*
X58056Y84581D02*
X60000Y82638D01*
X63200Y81559D02*
X68404Y76354D01*
X63200Y77568D02*
X67900Y82268D01*
X63200Y75446D02*
X67900Y80146D01*
X63200Y83680D02*
X67900Y78980D01*
X63200Y79689D02*
X67900Y84389D01*
X63200Y71500D02*
Y88000D01*
X63703Y69585D02*
X69300Y75182D01*
X63210Y71214D02*
X68386Y76390D01*
X63245Y70907D02*
X66507Y67645D01*
X63200Y73325D02*
X67915Y78040D01*
X56100Y76832D02*
X60000Y80732D01*
X56338Y84178D02*
X60000Y80516D01*
Y71500D02*
Y88000D01*
X56100Y74710D02*
X60000Y78610D01*
X56100Y78052D02*
X60000Y74152D01*
X56100Y73810D02*
X60240Y69670D01*
X56100Y70468D02*
X60000Y74368D01*
X56100Y68346D02*
X60000Y72246D01*
X56100Y72589D02*
X60000Y76489D01*
X56100Y75931D02*
X60000Y72031D01*
X51991Y87572D02*
X55477Y91058D01*
X53044Y86504D02*
X56495Y89954D01*
X50930Y88632D02*
X54928Y92630D01*
X47662Y91901D02*
X52701Y86862D01*
X45399Y89638D02*
X50438Y84599D01*
X54792Y84009D02*
X55356Y84572D01*
X55435Y82530D02*
X57086Y84182D01*
X53990Y85328D02*
X54458Y85796D01*
X43075Y87141D02*
X45486Y89552D01*
X41724Y87911D02*
X44483Y90670D01*
X43650Y85595D02*
X46546Y88491D01*
X37154Y92755D02*
X42100Y87810D01*
X42226Y83440D02*
X44620Y81047D01*
X45321Y80902D02*
X49728Y85309D01*
X55888Y80863D02*
X60000Y84974D01*
X55158Y83237D02*
X60000Y78395D01*
X43510Y86400D02*
X52900Y77010D01*
X43345Y84443D02*
X52900Y74888D01*
X55985Y80289D02*
X60000Y76274D01*
X56096Y78949D02*
X60000Y82853D01*
X46847Y78820D02*
X52900Y72767D01*
X46325Y77220D02*
X52900Y70646D01*
X45017Y76407D02*
X52900Y68524D01*
X46490Y79950D02*
X50779Y84238D01*
X46776Y78114D02*
X51680Y83018D01*
X38627Y93404D02*
X52886Y79145D01*
X37582Y71041D02*
X43250Y76710D01*
X38243Y69581D02*
X45086Y76424D01*
X92802Y64744D02*
X98650Y70591D01*
X92181Y66244D02*
X98650Y72713D01*
X93800Y63620D02*
X98650Y68470D01*
X92123Y71728D02*
X98650Y65201D01*
X92123Y73849D02*
X98650Y67322D01*
X92123Y69607D02*
X98650Y63079D01*
X95477Y61055D02*
X98650Y64227D01*
X94713Y62411D02*
X98650Y66349D01*
X96076Y59532D02*
X98650Y62106D01*
X92123Y67485D02*
X98650Y60958D01*
X92990Y64496D02*
X98650Y58837D01*
X92123Y66908D02*
Y86277D01*
X88923Y67139D02*
Y86277D01*
X89100Y58700D02*
Y64691D01*
Y58920D02*
X91529Y61349D01*
X89100Y61041D02*
X90521Y62462D01*
X89100Y62023D02*
X93196Y57926D01*
X89100Y64144D02*
X89901Y63344D01*
X89100Y63163D02*
X89681Y63743D01*
X96600Y55813D02*
X98650Y57863D01*
X96472Y57807D02*
X98650Y59985D01*
Y35000D02*
Y118650D01*
X96177Y59188D02*
X98650Y56715D01*
X96600Y54523D02*
X98650Y52473D01*
X96600Y53692D02*
X98650Y55742D01*
X96600Y51571D02*
X98650Y53621D01*
X96586Y56658D02*
X98650Y54594D01*
X96600Y39714D02*
Y56099D01*
X89029Y57851D02*
X93400Y53480D01*
X89100Y59901D02*
X93400Y55601D01*
X88486Y56273D02*
X93400Y51359D01*
X88367Y56065D02*
X92382Y60081D01*
X90307Y51642D02*
X93400Y54735D01*
X87575Y55063D02*
X91054Y51584D01*
X93400Y39714D02*
Y56099D01*
X86345Y54171D02*
X89235Y51281D01*
X84741Y53654D02*
X88292Y50103D01*
X82300Y66969D02*
X88923Y73592D01*
X82300Y68823D02*
X84773Y66350D01*
X82300Y65783D02*
Y70309D01*
X82268Y70977D02*
X86091Y67153D01*
X79100Y65783D02*
Y70309D01*
X82194Y64742D02*
X88923Y71471D01*
X82300Y66701D02*
X83465Y65537D01*
X82042Y64168D02*
X82940Y65066D01*
X77421Y66333D02*
X79100Y68012D01*
X68082Y67600D02*
X74482Y74000D01*
X70254Y74504D02*
X79096Y65662D01*
X63200Y77316D02*
X72916Y67600D01*
X63200Y73074D02*
X68673Y67600D01*
X77325Y65313D02*
X78382Y64256D01*
X67100Y64400D02*
X74385D01*
X73995D02*
X74513Y63882D01*
X77009Y63800D02*
X79100Y65891D01*
X76615Y63800D02*
X77117D01*
X76296Y64220D02*
X76716Y63800D01*
X70923Y36500D02*
X93016Y58593D01*
X82674Y53600D02*
X93400Y42873D01*
X80552Y53600D02*
X89987Y44165D01*
X74188Y53600D02*
X90769Y37019D01*
X68801Y36500D02*
X86635Y54333D01*
X73044Y36500D02*
X93368Y56824D01*
X71873Y64400D02*
X73607Y62667D01*
X69867Y60900D02*
X73367Y64400D01*
X69752D02*
X73252Y60900D01*
X65270Y64640D02*
X69010Y60900D01*
X65624D02*
X69124Y64400D01*
X71988Y60900D02*
X73571Y62482D01*
X67746Y60900D02*
X71246Y64400D01*
X61200Y60900D02*
X74047D01*
X67631Y64400D02*
X71131Y60900D01*
X96600Y49449D02*
X98650Y51499D01*
X96600Y52401D02*
X98650Y50351D01*
X96600Y47328D02*
X98650Y49378D01*
X92779Y49872D02*
X93400Y50492D01*
X91942Y51156D02*
X93400Y52613D01*
X96600Y50280D02*
X98650Y48230D01*
X96600Y43085D02*
X98650Y45135D01*
X96600Y46038D02*
X98650Y43988D01*
X96600Y43916D02*
X98650Y41866D01*
X96600Y48159D02*
X98650Y46109D01*
X96600Y45207D02*
X98650Y47257D01*
X92784Y49854D02*
X93400Y49237D01*
X92481Y48035D02*
X93400Y47116D01*
X91438Y44287D02*
X93400Y46249D01*
X91303Y47092D02*
X93400Y44995D01*
X92737Y43465D02*
X93400Y44128D01*
X96600Y41795D02*
X98650Y39745D01*
X96600Y40964D02*
X98650Y43014D01*
X96600Y39674D02*
X98650Y37624D01*
X96506Y38749D02*
X98650Y40893D01*
X94879Y35000D02*
X98650Y38771D01*
X97000Y35000D02*
X98650Y36650D01*
X96258Y37894D02*
X98650Y35502D01*
X95478Y36553D02*
X97031Y35000D01*
X93720D02*
X98650D01*
X93065Y41087D02*
X93400Y40752D01*
X92069Y39962D02*
X93181Y38850D01*
X90385Y36871D02*
X93400Y39885D01*
X94401Y35508D02*
X94910Y35000D01*
X90130Y39780D02*
X92121Y37788D01*
X78431Y53600D02*
X88862Y43169D01*
X76967Y48908D02*
X81659Y53600D01*
X76310D02*
X88680Y41230D01*
X37700Y53600D02*
X84000D01*
X72067D02*
X75393Y50274D01*
X75973Y50036D02*
X79537Y53600D01*
X74040Y50224D02*
X77416Y53600D01*
X61295Y39600D02*
X75295Y53600D01*
X69946D02*
X73554Y49992D01*
X67824Y53600D02*
X72600Y48825D01*
X57188Y39736D02*
X71052Y53600D01*
X63313Y47982D02*
X68931Y53600D01*
X59174Y39600D02*
X73173Y53600D01*
X67856Y39797D02*
X73892Y45833D01*
X63416Y39600D02*
X72576Y48760D01*
X65537Y39600D02*
X72764Y46826D01*
X79408Y36500D02*
X89929Y47021D01*
X77287Y36500D02*
X88644Y47858D01*
X81529Y36500D02*
X93400Y48371D01*
X77074Y48593D02*
X89105Y36562D01*
X76792Y46753D02*
X87046Y36500D01*
X75165D02*
X88158Y49492D01*
X85772Y36500D02*
X89435Y40163D01*
X83651Y36500D02*
X88613Y41462D01*
X87893Y36500D02*
X91048Y39655D01*
X68346Y36500D02*
X88206D01*
X75625Y45799D02*
X84924Y36500D01*
X68909Y38729D02*
X83780Y53600D01*
X65703D02*
X82803Y36500D01*
X63582Y53600D02*
X80682Y36500D01*
X59339Y53600D02*
X76439Y36500D01*
X61460Y53600D02*
X78560Y36500D01*
X69003Y37573D02*
X70075Y36500D01*
X62272Y46424D02*
X72196Y36500D01*
X63212Y47606D02*
X74318Y36500D01*
X62943Y64583D02*
X63653Y65293D01*
X60854Y66736D02*
X61393Y67276D01*
X62898Y64890D02*
X66888Y60900D01*
X56100Y71688D02*
X61090Y66698D01*
X61382Y60900D02*
X65154Y64672D01*
X62561Y63106D02*
X64767Y60900D01*
X63503D02*
X67004Y64401D01*
X61367Y62179D02*
X62646Y60900D01*
X56367Y64371D02*
X60612Y68616D01*
X56100Y66225D02*
X60113Y70238D01*
X56152Y65272D02*
X60472Y60952D01*
X56100Y69567D02*
X59306Y66361D01*
X56100Y66000D02*
Y78658D01*
Y67446D02*
X58379Y65167D01*
X59539Y61178D02*
X60417Y62057D01*
X57093Y62976D02*
X58264Y64146D01*
X58151Y61912D02*
X58958Y62719D01*
X61382Y60900D02*
X65154Y64672D01*
X61724Y50636D02*
X64688Y53600D01*
X62938Y49729D02*
X66809Y53600D01*
X57218D02*
X60206Y50612D01*
X56564Y49718D02*
X60446Y53600D01*
X55096D02*
X59024Y49672D01*
X55139Y58900D02*
X55874Y59635D01*
X55886Y51162D02*
X58324Y53600D01*
X53018Y58900D02*
X54815Y60697D01*
X54443Y51840D02*
X56203Y53600D01*
X56504Y50071D02*
X58712Y47863D01*
X52975Y53600D02*
X54795Y51780D01*
X49547Y63915D02*
X52900Y67268D01*
Y66000D02*
Y78658D01*
X48916Y65405D02*
X52900Y69389D01*
X47518Y66128D02*
X52900Y71510D01*
X38168Y58900D02*
X52900Y73632D01*
X49519Y63420D02*
X54039Y58900D01*
X48775D02*
X53307Y63432D01*
X50896Y58900D02*
X53952Y61956D01*
X46654Y58900D02*
X52940Y65186D01*
X48768Y62050D02*
X51918Y58900D01*
X38072Y68503D02*
X47675Y58900D01*
X37084Y67370D02*
X45554Y58900D01*
X47246Y61450D02*
X49796Y58900D01*
X44532D02*
X47085Y61453D01*
X40290Y58900D02*
X44872Y63482D01*
X42411Y58900D02*
X45595Y62084D01*
X48732Y53600D02*
X52019Y50313D01*
X47306Y48945D02*
X51960Y53600D01*
X48567Y39600D02*
X62567Y53600D01*
X44490D02*
X58490Y39600D01*
X44490Y53600D02*
X58490Y39600D01*
X46611Y53600D02*
X60611Y39600D01*
X50854Y53600D02*
X52968Y51486D01*
X47249Y48719D02*
X56036Y39932D01*
X37608Y35005D02*
X51884Y49281D01*
X45746Y51628D02*
X47718Y53600D01*
X42368D02*
X44319Y51649D01*
X46950Y50711D02*
X49839Y53600D01*
X40247D02*
X43085Y50762D01*
X38126Y53600D02*
X42676Y49049D01*
X56210Y48244D02*
X64854Y39600D01*
X55037Y47295D02*
X62732Y39600D01*
X50688D02*
X58764Y47676D01*
X46362Y47485D02*
X54247Y39600D01*
X52810D02*
X59671Y46462D01*
X60463Y46112D02*
X66672Y39903D01*
X57415Y39600D02*
X65985D01*
X45900D02*
X55185D01*
X54931D02*
X61418Y46088D01*
X47670Y29207D02*
X50000Y26877D01*
X48730Y30268D02*
X50000Y28998D01*
Y21555D02*
Y31535D01*
X46446Y39600D02*
X54006Y47160D01*
X45633Y27170D02*
X49896Y31434D01*
X46609Y28146D02*
X50000Y24755D01*
X48661Y22723D02*
X50000Y24063D01*
X49557Y18834D02*
X50000Y18391D01*
X45549Y27084D02*
X50000Y22634D01*
X49445Y12901D02*
X50000Y13456D01*
X48919Y14497D02*
X50000Y15577D01*
Y1350D02*
Y19445D01*
X48110Y18159D02*
X50000Y16270D01*
X48128Y15827D02*
X50000Y17699D01*
X49600Y10935D02*
X50000Y11335D01*
X49515Y12512D02*
X50000Y12027D01*
X49600Y10306D02*
X50000Y9906D01*
X48459Y7205D02*
X50000Y5663D01*
X48501Y1350D02*
X50000Y2849D01*
X49600Y10215D02*
Y11396D01*
X46061Y18002D02*
X46601Y18542D01*
X47121Y16941D02*
X48379Y18199D01*
X46400Y10215D02*
Y11396D01*
X49678Y8107D02*
X50000Y7785D01*
X46379Y1350D02*
X50000Y4971D01*
X43780Y39055D02*
X52562Y47838D01*
X44649Y47076D02*
X52126Y39600D01*
X44456Y24883D02*
X50000Y30426D01*
X44717Y25796D02*
X47673Y22839D01*
X44400Y22705D02*
X50000Y28305D01*
X44400Y23991D02*
X46234Y22157D01*
X44400Y21000D02*
Y24196D01*
X41500Y32417D02*
Y35200D01*
X40467Y31500D02*
X41500Y32533D01*
X38346Y31500D02*
X41500Y34654D01*
X37595Y35039D02*
X41022Y31612D01*
X37454Y33059D02*
X39013Y31500D01*
X41971Y28541D02*
X42351Y28161D01*
X40091Y28300D02*
X41651Y26740D01*
X38349Y23018D02*
X41456Y26125D01*
X37970Y28300D02*
X41246Y25023D01*
X37809Y24600D02*
X41650Y28441D01*
X44948Y19201D02*
X50000Y14149D01*
X45346Y18717D02*
X47430Y16633D01*
X44424Y20608D02*
X50000Y26184D01*
X37350Y5049D02*
X45823Y13522D01*
X37130Y14291D02*
X50000Y1421D01*
X42137Y1350D02*
X47938Y7151D01*
X40015Y1350D02*
X46509Y7843D01*
X44258Y1350D02*
X50000Y7092D01*
X37502Y3079D02*
X46364Y11942D01*
X37894Y1350D02*
X46105Y9561D01*
X44400Y21870D02*
X45559Y20710D01*
X41200Y21000D02*
Y24196D01*
X38250Y23777D02*
X41202Y20825D01*
X38015Y21891D02*
X41986Y17920D01*
X45026Y19089D02*
X45677Y19739D01*
X43086Y16451D02*
X45167Y14370D01*
X37031Y15337D02*
X41344Y19649D01*
X37560Y3255D02*
X39464Y1350D01*
X36715Y118650D02*
X50832Y104533D01*
X34594Y118650D02*
X48915Y104329D01*
X35347Y102748D02*
X51249Y118650D01*
X32473D02*
X47927Y103196D01*
X32530Y104173D02*
X47007Y118650D01*
X32300Y101822D02*
X49128Y118650D01*
X36310Y97346D02*
X37572Y98609D01*
X30351Y118650D02*
X43552Y105449D01*
X31510Y105274D02*
X44885Y118650D01*
X32646Y103628D02*
X34441Y101833D01*
X32300Y101852D02*
X34313Y99839D01*
X32300Y99701D02*
X34452Y101853D01*
X35639Y98514D02*
X36719Y97433D01*
X32300Y97579D02*
X34389Y99668D01*
X32300Y99731D02*
X35304Y96727D01*
X30000Y84673D02*
X42054Y96727D01*
X32300Y95488D02*
X40143Y87645D01*
X30000Y82551D02*
X42373Y94924D01*
X31219Y92326D02*
X43020Y80525D01*
X31975Y93691D02*
X39140Y86527D01*
X30142Y91282D02*
X42208Y79217D01*
X30000Y80430D02*
X42910Y93340D01*
X30000Y78309D02*
X43620Y91929D01*
X32300Y97610D02*
X34655Y95254D01*
X32300Y95500D02*
Y102385D01*
X32300Y95458D02*
X35443Y98601D01*
X29100Y95500D02*
Y102385D01*
X29655Y90692D02*
X34754Y95790D01*
X30349Y89264D02*
X34981Y93897D01*
X30000Y86794D02*
X36125Y92919D01*
X24572Y102579D02*
X40643Y118650D01*
X19745D02*
X35547Y102848D01*
X21866Y118650D02*
X38048Y102468D01*
X19550Y101800D02*
X36400Y118650D01*
X19594Y103965D02*
X34279Y118650D01*
X19550Y99679D02*
X38521Y118650D01*
X28230D02*
X42116Y104764D01*
X26109Y118650D02*
X41701Y103058D01*
X25856Y101742D02*
X42764Y118650D01*
X1350D02*
X98650D01*
X23988D02*
X42000Y100637D01*
X18688Y105181D02*
X32157Y118650D01*
X17624D02*
X30828Y105446D01*
X15502Y118650D02*
X29297Y104855D01*
X11260Y118650D02*
X29100Y100810D01*
X13381Y118650D02*
X28764Y103267D01*
X5602Y100580D02*
X23672Y118650D01*
X26342Y100107D02*
X28926Y102690D01*
X7017Y118650D02*
X23169Y102498D01*
X19650Y91293D02*
X29100Y100743D01*
X26198Y99469D02*
X29100Y96567D01*
X19543Y89065D02*
X29100Y98622D01*
X9138Y118650D02*
X29100Y98688D01*
X1350Y92085D02*
X27915Y118650D01*
X1350Y89964D02*
X30036Y118650D01*
X25241Y98304D02*
X28906Y94640D01*
X25963Y93363D02*
X29100Y96501D01*
X23395Y98029D02*
X27798Y93626D01*
X19550Y99753D02*
X25944Y93359D01*
X19550Y95436D02*
X22558Y98444D01*
X1350Y94207D02*
X25793Y118650D01*
X19616Y93380D02*
X24193Y97958D01*
X19628Y93311D02*
X22592Y90347D01*
X19650Y91168D02*
X22300Y88518D01*
X19550Y97632D02*
X24468Y92714D01*
X19550Y95510D02*
X23356Y91704D01*
X30336Y88967D02*
X52900Y66403D01*
X30000Y80818D02*
X45450Y65368D01*
X30000Y87182D02*
X53132Y64049D01*
X30000Y82939D02*
X46820Y66119D01*
X29470Y75657D02*
X38989Y85176D01*
X25400Y65223D02*
X47607Y87430D01*
X36155Y71736D02*
X42298Y77879D01*
X30000Y78696D02*
X44851Y63846D01*
X30000Y77700D02*
Y88085D01*
X29878Y76697D02*
X35003Y71572D01*
X29208Y75246D02*
X33870Y70584D01*
X28128Y74204D02*
X33668Y68664D01*
X27119Y60579D02*
X34259Y67718D01*
X25400Y71587D02*
X27843Y74030D01*
X36004Y58857D02*
X52900Y75753D01*
X30144Y59361D02*
X52372Y81589D01*
X33220Y58195D02*
X52900Y77874D01*
X30000Y85060D02*
X56160Y58900D01*
X26629Y73583D02*
X41311Y58900D01*
X29829Y56925D02*
X52807Y79903D01*
X36935Y58900D02*
X56200D01*
X35164Y67168D02*
X43432Y58900D01*
X25412Y72677D02*
X39190Y58900D01*
X25412Y72677D02*
X39190Y58900D01*
X29125Y60463D02*
X35719Y67057D01*
X30043Y59562D02*
X31992Y57613D01*
X30112Y57371D02*
X30716Y56767D01*
X29059Y56302D02*
X29604Y55758D01*
X25631Y56970D02*
X25937Y57275D01*
X22300Y79300D02*
Y82945D01*
X25400Y69466D02*
X39759Y83825D01*
X8750Y76151D02*
X22437Y89837D01*
X21984Y82470D02*
X22300Y82154D01*
X21995Y73973D02*
X22303Y73665D01*
X22300Y85055D02*
Y88700D01*
X20948Y86228D02*
X22300Y87579D01*
X20641Y81692D02*
X22300Y80032D01*
X19557Y89139D02*
X22300Y86396D01*
X17785Y76700D02*
X22300Y81215D01*
X19915Y76709D02*
X22291Y79085D01*
X20174Y70604D02*
X22200Y72630D01*
X20256Y68564D02*
X22200Y70509D01*
X18226Y73500D02*
X22200Y69526D01*
X25400Y68447D02*
X35112Y58735D01*
X25400Y60981D02*
X33564Y69145D01*
X25400Y66326D02*
X33446Y58280D01*
X25400Y63102D02*
X48667Y86370D01*
X25400Y67345D02*
X41305Y83250D01*
X25400Y70568D02*
X37068Y58900D01*
X25400Y59962D02*
X25902Y59460D01*
X25400Y58859D02*
X25821Y59281D01*
X25400Y57841D02*
X25905Y57336D01*
X25400Y62083D02*
X26971Y60513D01*
X25400Y64205D02*
X29162Y60443D01*
X18209Y67153D02*
X22200Y63162D01*
X19702Y67781D02*
X22200Y65283D01*
X25400Y57415D02*
Y72643D01*
X15346Y61533D02*
X22200Y68387D01*
X15000Y68240D02*
X22200Y61041D01*
X21549Y59251D02*
X22200Y59902D01*
X20433Y60257D02*
X22200Y62024D01*
X14900Y58966D02*
X22200Y66266D01*
X15000Y66119D02*
X22200Y58919D01*
X19598Y103948D02*
X22005Y101541D01*
X19550Y93634D02*
Y102884D01*
X4896Y118650D02*
X18148Y105398D01*
X5450Y102549D02*
X21551Y118650D01*
X19550Y101874D02*
X21729Y99695D01*
X19550Y97557D02*
X21721Y99728D01*
X19650Y90200D02*
Y93017D01*
X19037Y87538D02*
X20225Y86350D01*
X15850Y93117D02*
Y102884D01*
X5692Y100883D02*
X15950Y90625D01*
X4879Y99574D02*
X15560Y88893D01*
X9101Y87108D02*
X15850Y93857D01*
X15950Y90200D02*
Y92517D01*
X14114Y87879D02*
X15886Y89650D01*
X12200Y87815D02*
X13565D01*
X11923Y87809D02*
X15950Y91836D01*
X18198Y86255D02*
X18670Y85784D01*
X15707Y84504D02*
X22041Y78170D01*
X13962Y84128D02*
X21026Y77064D01*
X13962Y84128D02*
X21026Y77064D01*
X15592Y76628D02*
X20659Y81695D01*
X11870Y84099D02*
X19268Y76700D01*
X8750Y71908D02*
X18891Y82049D01*
X17091Y85241D02*
X17892Y84441D01*
X8750Y78272D02*
X14699Y84221D01*
X8750Y80393D02*
X12471Y84115D01*
X10302Y83545D02*
X17147Y76700D01*
X12200Y84115D02*
X13565D01*
X9258Y82467D02*
X15188Y76538D01*
X8755Y80849D02*
X13747Y75858D01*
X8750Y74029D02*
X17972Y83252D01*
X2774Y118650D02*
X16438Y104986D01*
X1350Y104813D02*
X15187Y118650D01*
X4335Y103556D02*
X19430Y118650D01*
X1350Y111177D02*
X8823Y118650D01*
X1350Y113298D02*
X6702Y118650D01*
X1350Y102692D02*
X17308Y118650D01*
X1350Y115832D02*
X15850Y101332D01*
X1350Y117953D02*
X15751Y103552D01*
X1350Y113710D02*
X15850Y99210D01*
X1350Y109056D02*
X10944Y118650D01*
X1350Y106934D02*
X13066Y118650D01*
X1350Y115420D02*
X4580Y118650D01*
X1350Y117541D02*
X2459Y118650D01*
X1350Y105225D02*
X2883Y103692D01*
X1350Y102549D02*
Y118650D01*
Y103104D02*
X1574Y102880D01*
X1350Y98449D02*
X2251Y99350D01*
X1350Y87843D02*
X15850Y102342D01*
X3279Y99053D02*
X14376Y87957D01*
X1350Y85721D02*
X15850Y100221D01*
X1350Y109468D02*
X15850Y94968D01*
X1350Y111589D02*
X15850Y97089D01*
X1350Y107346D02*
X15874Y92823D01*
X1350Y96740D02*
X10484Y87606D01*
X1350Y96740D02*
X10484Y87606D01*
X1350Y81479D02*
X15850Y95979D01*
X1350Y98861D02*
X12397Y87815D01*
X1350Y83600D02*
X15850Y98100D01*
X1350Y92497D02*
X7659Y86188D01*
X1350Y90376D02*
X6607Y85119D01*
X1350Y88254D02*
X5784Y83820D01*
X1350Y96328D02*
X4220Y99198D01*
X1350Y94618D02*
X8940Y87028D01*
X1350Y79357D02*
X5757Y83764D01*
X1350Y81890D02*
X5050Y78190D01*
X1350Y77236D02*
X5055Y80941D01*
X1350Y86133D02*
X5229Y82254D01*
X1350Y84012D02*
X5050Y80312D01*
X20314Y73533D02*
X22200Y71647D01*
X19083Y71635D02*
X21127Y73678D01*
X16753Y71425D02*
X18827Y73500D01*
X16400D02*
X19700D01*
X16400Y76700D02*
X19700D01*
X20428Y69177D02*
X22200Y67405D01*
X15000Y63309D02*
X19036Y67344D01*
X16131Y73474D02*
X17777Y71828D01*
X15042Y72441D02*
X16381Y71102D01*
X15000Y71794D02*
X16706Y73500D01*
X11800Y62515D02*
Y72100D01*
X15000Y69673D02*
X16174Y70847D01*
X15000Y70362D02*
X15753Y69609D01*
X15000Y67551D02*
X15966Y68517D01*
X15000Y65430D02*
X16996Y67426D01*
X22200Y57415D02*
Y73100D01*
X15000Y63998D02*
X18691Y60307D01*
X15346Y61531D02*
X17516Y59360D01*
X15022Y56967D02*
X22200Y64145D01*
X21704Y57285D02*
X22200Y57781D01*
X21707Y57291D02*
X21985Y57013D01*
X15000Y62515D02*
Y72100D01*
X11700Y57500D02*
Y60445D01*
X14900Y57500D02*
Y60154D01*
X16119Y56281D02*
X17419D01*
X14900Y59855D02*
X17219Y57537D01*
X16457Y56281D02*
X17343Y57167D01*
X14900Y57734D02*
X16353Y56281D01*
X8750Y78733D02*
X12679Y74804D01*
X8750Y76612D02*
X11982Y73380D01*
X8750Y64960D02*
Y80665D01*
Y74490D02*
X11800Y71441D01*
X1350Y75526D02*
X5050Y71826D01*
X8750Y69787D02*
X11872Y72908D01*
X8750Y65544D02*
X11800Y68594D01*
X8750Y70248D02*
X11800Y67198D01*
X8750Y68126D02*
X11800Y65077D01*
X8750Y72369D02*
X11800Y69319D01*
X8750Y67665D02*
X11800Y70715D01*
X1350Y75115D02*
X5050Y78815D01*
X1350Y79769D02*
X5050Y76069D01*
Y64620D02*
Y80665D01*
X1350Y72993D02*
X5050Y76693D01*
X1350Y77648D02*
X5050Y73948D01*
X1350Y70872D02*
X5050Y74572D01*
X1350Y66629D02*
X5050Y70329D01*
X1350Y71284D02*
X5050Y67584D01*
X1350Y69163D02*
X5050Y65463D01*
X1350Y73405D02*
X5050Y69705D01*
X1350Y68751D02*
X5050Y72451D01*
X8750Y61301D02*
X11800Y64351D01*
X8858Y63776D02*
X11464Y61170D01*
X8750Y63423D02*
X11800Y66473D01*
X8750Y66005D02*
X11800Y62955D01*
X8750Y59180D02*
X11533Y61963D01*
X8750Y61763D02*
X11700Y58813D01*
X8750Y57059D02*
X11700Y60009D01*
X8750Y59641D02*
X11793Y56598D01*
X1350Y62387D02*
X5050Y66087D01*
X1350Y64920D02*
X5050Y61220D01*
X1350Y64508D02*
X5050Y68208D01*
X1350Y67041D02*
X5050Y63341D01*
X1350Y60677D02*
X5050Y56977D01*
X1350Y58144D02*
X5050Y61844D01*
X1350Y56023D02*
X5050Y59723D01*
X1350Y60265D02*
X5022Y63937D01*
X1350Y62799D02*
X5050Y59099D01*
X34159Y50648D02*
X37052Y53541D01*
X34100Y46346D02*
X41354Y53600D01*
X34028Y44153D02*
X43475Y53600D01*
X34100Y48468D02*
X39232Y53600D01*
X33359Y41363D02*
X45596Y53600D01*
X36292Y53313D02*
X50005Y39600D01*
X35048Y52435D02*
X47883Y39600D01*
X34270Y51092D02*
X45764Y39598D01*
X34100Y49141D02*
X44049Y39192D01*
X34100Y47019D02*
X42798Y38321D01*
X30745Y52495D02*
X31210Y52030D01*
X29489Y51631D02*
X30903Y50216D01*
X26724Y53820D02*
X29475Y56571D01*
X26936Y56305D02*
X28461Y54779D01*
X28080Y50918D02*
X30900Y48098D01*
X34100Y45442D02*
Y50000D01*
X30900Y45442D02*
Y50000D01*
X26498Y50379D02*
X30900Y45976D01*
X25821Y38067D02*
X30433Y42679D01*
X36663Y36182D02*
X54082Y53600D01*
X34843Y36483D02*
X45455Y47094D01*
X36663Y36182D02*
X54082Y53600D01*
X34088Y44910D02*
X41921Y37077D01*
X33846Y43030D02*
X41503Y35373D01*
X33368Y41387D02*
X41500Y33255D01*
X36224Y31500D02*
X42045Y37320D01*
X32706Y39928D02*
X36239Y36395D01*
X31886Y38626D02*
X34258Y36254D01*
X30924Y37467D02*
X33248Y35144D01*
X28791Y35357D02*
X32649Y31500D01*
X29860Y36410D02*
X34770Y31500D01*
X30189Y31828D02*
X33117Y34757D01*
X27723Y34304D02*
X30201Y31827D01*
X26654Y33252D02*
X28575Y31331D01*
X25591Y55528D02*
X27124Y53995D01*
X23994Y53211D02*
X27039Y56256D01*
X22100Y44953D02*
X28054Y50907D01*
X22100Y42832D02*
X31172Y51903D01*
X24699Y50056D02*
X30772Y43983D01*
X22634Y50000D02*
X30303Y42331D01*
X23560Y40049D02*
X30900Y47389D01*
X22100Y48413D02*
X29584Y40928D01*
X22100Y40710D02*
X30900Y49510D01*
X21070Y54530D02*
X22027Y55487D01*
X24513Y54485D02*
X25557Y53441D01*
X20760Y56116D02*
X23676Y53201D01*
X22100Y50000D02*
X23558D01*
X22100Y49196D02*
X22904Y50000D01*
X22100Y47074D02*
X25133Y50108D01*
X21818Y53200D02*
X23558D01*
X21862D02*
X23130Y54469D01*
X25076Y39443D02*
X30898Y45266D01*
X22100Y46291D02*
X28660Y39731D01*
X15341Y21223D02*
X42772Y48654D01*
X22100Y44170D02*
X27597Y38673D01*
X15322Y19083D02*
X43689Y47450D01*
X25741Y38408D02*
X26529Y37620D01*
X25652Y36756D02*
X28444Y39506D01*
X18688Y25404D02*
X30694Y37231D01*
X22100Y39588D02*
Y50000D01*
Y42049D02*
X24208Y39941D01*
X21548Y36237D02*
X23323Y34462D01*
X21285Y35653D02*
X21757Y36124D01*
X20818Y34846D02*
X22254Y33409D01*
X16438Y27679D02*
X24411Y35534D01*
X7354Y19600D02*
X23133Y35379D01*
X36487Y25399D02*
X39388Y28300D01*
X36344Y32048D02*
X36891Y31500D01*
X35849Y28300D02*
X41200Y22949D01*
X31015Y28300D02*
X40583D01*
X31015Y31500D02*
X40583D01*
X33727Y28300D02*
X36677Y25350D01*
X36119Y16545D02*
X41200Y21626D01*
X34361Y16909D02*
X41200Y23748D01*
X31982Y31500D02*
X33418Y32937D01*
X31982Y31500D02*
X33418Y32937D01*
X34103Y31500D02*
X34595Y31992D01*
X26952Y26471D02*
X28783Y28302D01*
X31606Y28300D02*
X34791Y25115D01*
X29833Y27951D02*
X33816Y23968D01*
X27638Y25035D02*
X30746Y28143D01*
X27485Y23935D02*
X34491Y16930D01*
X36868Y20916D02*
X46400Y11385D01*
X36236Y6056D02*
X44859Y14679D01*
X29409Y1350D02*
X43798Y15739D01*
X27287Y1350D02*
X42750Y16813D01*
X36411Y12889D02*
X47949Y1350D01*
X36689Y2004D02*
X37343Y1350D01*
X34925Y12253D02*
X45828Y1350D01*
X35003Y1569D02*
X35221Y1350D01*
X33651D02*
X34151Y1850D01*
X35773Y1350D02*
X36121Y1698D01*
X31530Y1350D02*
X33144Y2964D01*
X25502Y27141D02*
X27972Y29611D01*
X25586Y32199D02*
X27951Y29833D01*
X26952Y26471D02*
X28783Y28302D01*
X22330Y17606D02*
X33024Y28300D01*
X24517Y31146D02*
X46105Y9559D01*
X26513Y22787D02*
X33089Y16211D01*
X24631Y22547D02*
X32453Y14725D01*
X17049Y23765D02*
X34655Y6160D01*
X22380Y29041D02*
X24435Y26985D01*
X21311Y27988D02*
X23287Y26013D01*
X20243Y26935D02*
X23047Y24131D01*
X15393Y17033D02*
X22959Y24598D01*
X20128Y19647D02*
X23629Y23147D01*
X20128Y19647D02*
X23629Y23147D01*
X21612Y19010D02*
X25065Y22462D01*
X23449Y30094D02*
X50000Y3542D01*
X19174Y25883D02*
X43707Y1350D01*
X18110Y24825D02*
X41585Y1350D01*
X10317D02*
X37267Y28300D01*
X8196Y1350D02*
X35146Y28300D01*
X12438Y1350D02*
X33701Y22613D01*
X16681Y1350D02*
X36082Y20751D01*
X23045Y1350D02*
X34063Y12369D01*
X25166Y1350D02*
X41900Y18083D01*
X5149Y1350D02*
X50000D01*
X14559D02*
X34500Y21291D01*
X22205Y16488D02*
X33404Y5289D01*
X15357Y16972D02*
X30979Y1350D01*
X11686Y16400D02*
X26736Y1350D01*
X7444Y16400D02*
X22493Y1350D01*
X9565Y16400D02*
X24615Y1350D01*
X21257Y15314D02*
X32969Y3603D01*
X20923Y1350D02*
X32855Y13281D01*
X19430Y15020D02*
X33100Y1350D01*
X14113Y16094D02*
X28857Y1350D01*
X18802D02*
X32491Y15039D01*
X19954Y55535D02*
X20315Y55896D01*
X17432Y53081D02*
X18900Y51613D01*
X16119Y53081D02*
X17419D01*
X15217Y53174D02*
X16849Y51542D01*
X8750Y53277D02*
X16300Y45727D01*
X18340Y51800D02*
X18763Y52222D01*
X16300Y41900D02*
Y48785D01*
X8750Y44331D02*
X17498Y53079D01*
X8750Y51156D02*
X16300Y43606D01*
X8750Y54937D02*
X11700Y57887D01*
X8750Y43216D02*
Y63440D01*
Y57520D02*
X15988Y50282D01*
X8750Y52816D02*
X11955Y56021D01*
X8750Y55399D02*
X16300Y47849D01*
X8750Y48573D02*
X13872Y53695D01*
X8750Y50695D02*
X12725Y54670D01*
X8824Y42284D02*
X16000Y49460D01*
X8750Y46452D02*
X15432Y53135D01*
X9983Y39200D02*
X16300Y45517D01*
X8750Y49035D02*
X16272Y41513D01*
X12104Y39200D02*
X16300Y43396D01*
X17853Y37811D02*
X18474Y37189D01*
X16676Y36866D02*
X17603Y35939D01*
X16521Y35131D02*
X18369Y36979D01*
X15200Y36221D02*
X16368Y35053D01*
X14325Y39299D02*
X16201Y41175D01*
X8850Y42571D02*
X12221Y39200D01*
X13868Y34600D02*
X15628Y36359D01*
X8750Y46913D02*
X15589Y40074D01*
X8750Y44792D02*
X14260Y39282D01*
X13299Y36000D02*
X14690Y34609D01*
X11747Y34600D02*
X13147Y36000D01*
X11178D02*
X12578Y34600D01*
X9057Y36000D02*
X10457Y34600D01*
X9626D02*
X11026Y36000D01*
X1350Y49659D02*
X5050Y53359D01*
X1350Y54313D02*
X5050Y50613D01*
X1350Y52192D02*
X5050Y48492D01*
X1350Y53901D02*
X5050Y57601D01*
X1350Y58556D02*
X5050Y54856D01*
X1350Y51780D02*
X5050Y55480D01*
X1350Y47537D02*
X5050Y51237D01*
X1350Y50071D02*
X5050Y46371D01*
X1350Y45416D02*
X5050Y49116D01*
X1350Y56435D02*
X5050Y52735D01*
Y43216D02*
Y63780D01*
X1350Y43295D02*
X5050Y46995D01*
X1350Y47949D02*
X5050Y44249D01*
X1350Y45828D02*
X4995Y42183D01*
X4416Y42118D02*
X4951Y42653D01*
X1350Y41173D02*
X5050Y44873D01*
X1350Y43707D02*
X3382Y41674D01*
X1350Y41585D02*
X2530Y40406D01*
X7862Y39200D02*
X16300Y47638D01*
X7700Y39200D02*
X13600D01*
X8175Y41124D02*
X10099Y39200D01*
X7138Y40040D02*
X7978Y39200D01*
X7700Y36000D02*
X13600D01*
X7007Y35929D02*
X8335Y34600D01*
X7394Y34490D02*
X8904Y36000D01*
X5567Y35247D02*
X6647Y34167D01*
X1350Y39052D02*
X2482Y40184D01*
X1350Y34399D02*
Y100251D01*
Y37343D02*
X2299Y36394D01*
X4483Y33700D02*
X6600Y35817D01*
X1350Y39464D02*
X3297Y37517D01*
X1350Y36931D02*
X2874Y38454D01*
X19866Y33676D02*
X21186Y32356D01*
X18705Y32716D02*
X20117Y31304D01*
X17323Y31976D02*
X19049Y30251D01*
X15672Y31506D02*
X17980Y29198D01*
X11535Y31400D02*
X15847Y27088D01*
X5335Y19703D02*
X17847Y32215D01*
X16220Y22935D02*
X18688Y25404D01*
X13953Y25194D02*
X16428Y27669D01*
X13657Y31400D02*
X16911Y28145D01*
X9414Y31400D02*
X14786Y26028D01*
X8400Y31400D02*
X14400D01*
X8649Y29381D02*
X10668Y31400D01*
X8200Y34600D02*
X14400D01*
X5200Y31115D02*
Y31600D01*
X8749Y29944D02*
X13732Y24961D01*
X11596Y19600D02*
X12100Y20104D01*
X8060Y28512D02*
X12855Y23717D01*
X6347Y28103D02*
X12271Y22179D01*
X16000Y22692D02*
X19188Y19505D01*
X15342Y21230D02*
X18014Y18557D01*
X15300Y19150D02*
X17720Y16730D01*
X7240Y14482D02*
X20372Y1350D01*
X6562Y13039D02*
X18251Y1350D01*
X5427Y2825D02*
X18291Y15687D01*
X6074Y1350D02*
X19694Y14970D01*
X15300Y19115D02*
Y20720D01*
X12100Y19600D02*
Y20720D01*
X5900Y19600D02*
X12100D01*
X9475D02*
X12348Y22472D01*
X6522Y16400D02*
X12585D01*
X7196Y15200D02*
X8396Y16400D01*
X5271Y1602D02*
X5523Y1350D01*
X4631Y34062D02*
X5599Y33094D01*
X4343Y20832D02*
X14929Y31418D01*
X4300Y25032D02*
X7419Y28151D01*
X4300Y27153D02*
X5606Y28459D01*
X4300Y22910D02*
X12790Y31400D01*
X4300Y23786D02*
X8486Y19600D01*
X4300Y21665D02*
X6365Y19600D01*
X4300Y28029D02*
X12100Y20229D01*
X4300Y25907D02*
X10607Y19600D01*
X4300Y31396D02*
X5310Y32406D01*
X4300Y32272D02*
X5200Y31372D01*
X4300Y21200D02*
Y32600D01*
Y30150D02*
X4903Y29547D01*
X4300Y29274D02*
X4857Y29831D01*
X1350Y15718D02*
X3004Y17372D01*
X1350Y16130D02*
X2560Y14919D01*
X1350Y17839D02*
X1964Y18453D01*
X1350Y18251D02*
X3239Y16362D01*
X4701Y4220D02*
X17653Y17172D01*
X3208Y4848D02*
X14667Y16307D01*
X4701Y4220D02*
X17653Y17172D01*
X1350Y7232D02*
X10518Y16400D01*
X1350Y5111D02*
X12617Y16378D01*
X1350Y14008D02*
X14008Y1350D01*
X1350Y11887D02*
X11887Y1350D01*
X5119Y12360D02*
X16130Y1350D01*
X1350Y9766D02*
X9766Y1350D01*
X1350Y7644D02*
X7644Y1350D01*
X1350Y4068D02*
Y19671D01*
Y13596D02*
X2552Y14798D01*
X1350Y11475D02*
X3084Y13209D01*
X1350Y9354D02*
X4400Y12404D01*
X1350Y5523D02*
X2201Y4671D01*
D11*
X12200Y85965D02*
G03*
X6900Y80665I0J-5300D01*
G01*
X17800Y93017D02*
G03*
X17700Y93117I-100J0D01*
G01*
X13565Y85965D02*
G03*
X17800Y90200I0J4235D01*
G01*
X6900Y42600D02*
Y64069D01*
Y64331D02*
Y80665D01*
X17700Y93117D02*
Y103500D01*
X17800Y90200D02*
Y93017D01*
X12200Y85965D02*
X13565D01*
D13*
X83700Y57300D02*
G03*
X84716Y58316I0J1016D01*
G01*
X95000Y103500D02*
Y105600D01*
X92900Y103500D02*
X95000D01*
X97100D01*
X95000Y101400D02*
Y103500D01*
X74200Y98800D02*
Y100900D01*
X72100Y98800D02*
X74200D01*
X76300D01*
X74200Y96700D02*
Y98800D01*
X79700Y90200D02*
X81800D01*
X79700D02*
Y92300D01*
Y88100D02*
Y90200D01*
X77600D02*
X79700D01*
X75400Y86329D02*
X77500D01*
X73300D02*
X75400D01*
Y88429D01*
Y84229D02*
Y86329D01*
X63200Y102900D02*
X65300D01*
X61100D02*
X63200D01*
Y105000D01*
Y100800D02*
Y102900D01*
X64100Y94900D02*
X66200D01*
X64100Y92800D02*
Y94900D01*
Y97000D01*
X62000Y94900D02*
X64100D01*
X50100Y102300D02*
Y104400D01*
Y102300D02*
X52200D01*
X48000D02*
X50100D01*
Y100200D02*
Y102300D01*
X56700Y86500D02*
Y88600D01*
Y86500D02*
X58800D01*
X56700Y84400D02*
Y86500D01*
X54600D02*
X56700D01*
X41300Y85600D02*
Y87700D01*
Y83500D02*
Y85600D01*
X39200D02*
X41300D01*
X43400D01*
X44500Y78700D02*
Y80800D01*
Y78700D02*
X46600D01*
X42400D02*
X44500D01*
Y76600D02*
Y78700D01*
X90500Y49300D02*
Y51400D01*
Y49300D02*
X92600D01*
X88400D02*
X90500D01*
Y47200D02*
Y49300D01*
X88800Y42000D02*
X90900D01*
Y44100D01*
Y42000D02*
X93000D01*
X90900Y39900D02*
Y42000D01*
X74800Y48000D02*
X76900D01*
X74800D02*
Y50100D01*
Y45900D02*
Y48000D01*
X72700D02*
X74800D01*
X60600Y64400D02*
Y66500D01*
Y64400D02*
X62700D01*
X60600Y62300D02*
Y64400D01*
X58500D02*
X60600D01*
X61000Y48400D02*
X63100D01*
X61000D02*
Y50500D01*
X58900Y48400D02*
X61000D01*
X54224Y49500D02*
Y51600D01*
Y47400D02*
Y49500D01*
X56324D01*
X47200Y63800D02*
X49300D01*
X45100D02*
X47200D01*
Y65900D01*
Y61700D02*
Y63800D01*
X52124Y49500D02*
X54224D01*
X45000Y49400D02*
X47100D01*
X45000D02*
Y51500D01*
Y47300D02*
Y49400D01*
X42900D02*
X45000D01*
X61000Y46300D02*
Y48400D01*
X47900Y20500D02*
Y22600D01*
X45800Y20500D02*
X47900D01*
Y18400D02*
Y20500D01*
X36500Y100700D02*
X38600D01*
X36500D02*
Y102800D01*
Y98600D02*
Y100700D01*
X34400D02*
X36500D01*
X37000Y95100D02*
X39100D01*
X34900D02*
X37000D01*
Y97200D01*
Y93000D02*
Y95100D01*
X24000Y100300D02*
Y102400D01*
Y100300D02*
X26100D01*
X21900D02*
X24000D01*
Y98200D02*
Y100300D01*
X35900Y69400D02*
X38000D01*
X33800D02*
X35900D01*
Y67300D02*
Y69400D01*
Y71500D01*
X28000Y58400D02*
Y60500D01*
Y58400D02*
X30100D01*
X28000Y56300D02*
Y58400D01*
X25900D02*
X28000D01*
X20200Y84000D02*
Y86100D01*
Y81900D02*
Y84000D01*
X18100D02*
X20200D01*
X3400Y101400D02*
Y103500D01*
Y101400D02*
X5500D01*
X3400Y99300D02*
Y101400D01*
X18100Y69500D02*
X20200D01*
X18100D02*
Y71600D01*
X16000Y69500D02*
X18100D01*
Y67400D02*
Y69500D01*
X19500Y58100D02*
Y60200D01*
Y58100D02*
X21600D01*
X17400D02*
X19500D01*
X35400Y34200D02*
X37500D01*
X35400D02*
Y36300D01*
Y32100D02*
Y34200D01*
X33300D02*
X35400D01*
X23500Y37700D02*
X25600D01*
X23500D02*
Y39800D01*
Y35600D02*
Y37700D01*
X36000Y23100D02*
X38100D01*
X36000Y21000D02*
Y23100D01*
X33900D02*
X36000D01*
Y25200D01*
X34800Y14600D02*
X36900D01*
X35300Y3900D02*
X37400D01*
X35300D02*
Y6000D01*
X34800Y12500D02*
Y14600D01*
X35300Y1800D02*
Y3900D01*
X32700Y14600D02*
X34800D01*
Y16700D01*
X33200Y3900D02*
X35300D01*
X25300Y24800D02*
X27400D01*
X25300D02*
Y26900D01*
X23200Y24800D02*
X25300D01*
Y22700D02*
Y24800D01*
X20000Y17300D02*
X22100D01*
X4800Y39800D02*
X6900D01*
X2700D02*
X4800D01*
Y41900D01*
X17900Y17300D02*
X20000D01*
Y19400D01*
Y15200D02*
Y17300D01*
X2800Y14700D02*
X4900D01*
X7000D01*
X4900Y12600D02*
Y14700D01*
X3100Y2500D02*
Y4600D01*
Y2500D02*
X5200D01*
X56200Y57300D02*
X83700D01*
X84716Y58316D02*
Y60900D01*
X84737D01*
D14*
X84000Y55200D02*
G03*
X87500Y58700I0J3500D01*
G01*
X13600Y37600D02*
G03*
X17900Y41900I0J4300D01*
G01*
X15085Y24063D02*
G03*
X13700Y20720I3343J-3343D01*
G01*
X48000Y11396D02*
G03*
X46300Y15500I-5804J0D01*
G01*
X90523Y66908D02*
G03*
X92100Y63100I5385J0D01*
G01*
X95000Y56099D02*
G03*
X92100Y63100I-9901J0D01*
G01*
X94000Y37300D02*
G03*
X95000Y39714I-2414J2414D01*
G01*
X88206Y34900D02*
G03*
X94000Y37300I0J8194D01*
G01*
X54400Y34900D02*
G03*
X48767Y32567I0J-7967D01*
G01*
X44500Y28300D02*
G03*
X42800Y24196I4104J-4104D01*
G01*
Y21000D02*
G03*
X44214Y17586I4828J0D01*
G01*
X29571Y38371D02*
G03*
X32500Y45442I-7071J7071D01*
G01*
X37700Y55200D02*
G03*
X32500Y50000I0J-5200D01*
G01*
X20500Y51600D02*
G03*
X17419Y54681I-3081J0D01*
G01*
X23558Y51600D02*
G03*
X30629Y54529I0J10000D01*
G01*
X36935Y57300D02*
G03*
X30900Y54800I0J-8535D01*
G01*
X14400Y33000D02*
G03*
X20500Y39100I0J6100D01*
G01*
X13300Y57500D02*
G03*
X16119Y54681I2819J0D01*
G01*
X13400Y61400D02*
G03*
X13300Y61300I0J-100D01*
G01*
X7700Y37600D02*
G03*
X2700Y32600I0J-5000D01*
G01*
Y21200D02*
G03*
X5900Y18000I3200J0D01*
G01*
X43600Y97842D02*
G03*
X46529Y90771I10000J0D01*
G01*
X54500Y78658D02*
G03*
X51571Y85729I-10000J0D01*
G01*
X54500Y66000D02*
G03*
X61200Y59300I6700J0D01*
G01*
X8200Y33000D02*
G03*
X6800Y31600I0J-1400D01*
G01*
X40583Y29900D02*
G03*
X43100Y32417I0J2517D01*
G01*
X45900Y38000D02*
G03*
X43100Y35200I0J-2800D01*
G01*
X82300Y94500D02*
G03*
X87700Y89100I5400J0D01*
G01*
X90523Y86277D02*
G03*
X87700Y89100I-2823J0D01*
G01*
X27100Y91900D02*
G03*
X30700Y95500I0J3600D01*
G01*
X27100Y91900D02*
G03*
X23900Y88700I0J-3200D01*
G01*
X19700Y75100D02*
G03*
X23900Y79300I0J4200D01*
G01*
X16400Y75100D02*
G03*
X13400Y72100I0J-3000D01*
G01*
X25800Y75100D02*
G03*
X28400Y77700I0J2600D01*
G01*
X25800Y75100D02*
G03*
X23900Y73200I0J-1900D01*
G01*
X80700Y70309D02*
G03*
X75409Y75600I-5291J0D01*
G01*
X69500Y78400D02*
G03*
X72300Y75600I2800J0D01*
G01*
X77117Y62200D02*
G03*
X80700Y65783I0J3583D01*
G01*
X61600Y71500D02*
G03*
X67100Y66000I5500J0D01*
G01*
X56500Y93100D02*
G03*
X58800Y90800I2300J0D01*
G01*
X61600Y88000D02*
G03*
X58800Y90800I-2800J0D01*
G01*
X29900Y29900D02*
X40583D01*
X87500Y58700D02*
Y65805D01*
X61200Y59300D02*
X76500D01*
X37700Y55200D02*
X84000D01*
X7700Y37600D02*
X13600D01*
X17900Y41900D02*
Y49900D01*
X13700Y18000D02*
Y20720D01*
X15085Y24063D02*
X17561Y26539D01*
X48000Y9100D02*
Y11396D01*
X90523Y66908D02*
Y86277D01*
X95000Y39714D02*
Y56099D01*
X54400Y34900D02*
X88206D01*
X44500Y28300D02*
X48767Y32567D01*
X42800Y21000D02*
Y24196D01*
X44214Y17586D02*
X46300Y15500D01*
X17561Y26539D02*
X29571Y38371D01*
X5900Y18000D02*
X13700D01*
X32500Y45442D02*
Y50000D01*
X20500Y39100D02*
Y51600D01*
X23558D01*
X36935Y57300D02*
X56200D01*
X8200Y33000D02*
X14400D01*
X16119Y54681D02*
X17419D01*
X13400Y61400D02*
Y72100D01*
X13300Y57500D02*
Y61300D01*
X2700Y21200D02*
Y32600D01*
X43600Y97842D02*
Y103500D01*
X46529Y90771D02*
X51571Y85729D01*
X54500Y66000D02*
Y78658D01*
X45900Y38000D02*
X56300D01*
X67100D01*
X6800Y30000D02*
Y31600D01*
X43100Y32417D02*
Y35200D01*
X23800Y56300D02*
Y73100D01*
X23900Y73200D01*
X82300Y94500D02*
Y103500D01*
X23900Y79300D02*
Y88700D01*
X16400Y75100D02*
X19700D01*
X30700Y95500D02*
Y103500D01*
X28400Y77700D02*
Y89200D01*
X72300Y75600D02*
X75409D01*
X69500Y78400D02*
Y103500D01*
X80700Y65783D02*
Y70309D01*
X75500Y62200D02*
X77117D01*
X56500Y93100D02*
Y103500D01*
X67100Y66000D02*
X75500D01*
X61600Y71500D02*
Y88000D01*
D15*
X6900Y64331D02*
G03*
X6954Y64200I186J0D01*
G01*
D02*
G03*
X6900Y64069I131J-131D01*
G01*
X87500Y65805D02*
G03*
X83753Y64253I0J-5299D01*
G01*
X76500Y59300D02*
G03*
X80426Y60926I0J5553D01*
G01*
X83753Y64253D01*
X30629Y54529D02*
X30900Y54800D01*
D38*
X6954Y64200D02*
D03*
X29900Y29900D02*
D03*
X87500Y65805D02*
D03*
X17900Y49900D02*
D03*
X54900Y4800D02*
D03*
X55000Y10900D02*
D03*
X54600Y16900D02*
D03*
X56100Y22100D02*
D03*
X73700Y24300D02*
D03*
X70900Y29000D02*
D03*
X67300Y25500D02*
D03*
X78400Y23600D02*
D03*
X85700Y24000D02*
D03*
X77200Y29000D02*
D03*
X85700Y29300D02*
D03*
X94100Y29100D02*
D03*
Y23200D02*
D03*
Y18300D02*
D03*
X85600Y18100D02*
D03*
X78700Y17500D02*
D03*
X72800Y19100D02*
D03*
X70700Y14000D02*
D03*
X74000Y9600D02*
D03*
X68000Y9500D02*
D03*
X54224Y49500D02*
D03*
X45000Y49400D02*
D03*
X60600Y64400D02*
D03*
X3400Y101400D02*
D03*
X75400Y86329D02*
D03*
X64100Y94900D02*
D03*
X56700Y86500D02*
D03*
X41300Y85600D02*
D03*
X35900Y69400D02*
D03*
X18100Y69500D02*
D03*
X28000Y58400D02*
D03*
X35400Y34200D02*
D03*
X4800Y39800D02*
D03*
X19500Y58100D02*
D03*
X23500Y37700D02*
D03*
X4900Y14700D02*
D03*
X25300Y24800D02*
D03*
X36000Y23100D02*
D03*
X34800Y14600D02*
D03*
X35300Y3900D02*
D03*
X90900Y42000D02*
D03*
X74800Y48000D02*
D03*
X90500Y49300D02*
D03*
X47900Y20500D02*
D03*
X56300Y38000D02*
D03*
X64700Y32000D02*
D03*
X57100D02*
D03*
X6800Y30000D02*
D03*
X67100Y38000D02*
D03*
X23800Y56300D02*
D03*
X61000Y48400D02*
D03*
X47200Y63800D02*
D03*
X48000Y9100D02*
D03*
X84716Y60900D02*
D03*
X75500Y62200D02*
D03*
Y66000D02*
D03*
X28400Y89200D02*
D03*
X13400Y61400D02*
D03*
X13700Y18000D02*
D03*
X17700Y103500D02*
D03*
X30700D02*
D03*
X43600D02*
D03*
X56500D02*
D03*
X69500D02*
D03*
X82300D02*
D03*
X95000D02*
D03*
X79700Y90200D02*
D03*
X74200Y98800D02*
D03*
X63200Y102900D02*
D03*
X50100Y102300D02*
D03*
X36500Y100700D02*
D03*
X37000Y95100D02*
D03*
X24000Y100300D02*
D03*
X20200Y84000D02*
D03*
X20000Y17300D02*
D03*
X6900Y42600D02*
D03*
X3100Y2500D02*
D03*
X44500Y78700D02*
D03*
M02*
