G04 Layer_Color=32896*
%FSLAX25Y25*%
%MOIN*%
G70*
G01*
G75*
%ADD28C,0.00600*%
%ADD29C,0.01000*%
%ADD49C,0.00394*%
%ADD50C,0.00787*%
%ADD51C,0.00500*%
%ADD52C,0.00300*%
D28*
X128300Y110000D02*
G03*
X128300Y110000I-300J0D01*
G01*
X9756Y148634D02*
X12905D01*
X9756Y140366D02*
X12905D01*
X1094D02*
X4047D01*
X1094Y148634D02*
X4244D01*
X12905Y140366D02*
Y148634D01*
X1094Y140366D02*
Y148634D01*
X110406Y11366D02*
Y19634D01*
X98594Y11366D02*
Y19634D01*
X107256Y11366D02*
X110406D01*
X107453Y19634D02*
X110406D01*
X98594D02*
X101744D01*
X98594Y11366D02*
X101744D01*
X6095Y17866D02*
Y26134D01*
X17906Y17866D02*
Y26134D01*
X6095D02*
X9244D01*
X6095Y17866D02*
X9047D01*
X14756D02*
X17906D01*
X14756Y26134D02*
X17906D01*
X6095Y25866D02*
Y34134D01*
X17906Y25866D02*
Y34134D01*
X6095D02*
X9244D01*
X6095Y25866D02*
X9047D01*
X14756D02*
X17906D01*
X14756Y34134D02*
X17906D01*
X6095Y34366D02*
Y42634D01*
X17906Y34366D02*
Y42634D01*
X6095D02*
X9244D01*
X6095Y34366D02*
X9047D01*
X14756D02*
X17906D01*
X14756Y42634D02*
X17906D01*
X110406Y19866D02*
Y28134D01*
X98594Y19866D02*
Y28134D01*
X107256Y19866D02*
X110406D01*
X107453Y28134D02*
X110406D01*
X98594D02*
X101744D01*
X98594Y19866D02*
X101744D01*
X24905Y140366D02*
Y148634D01*
X13094Y140366D02*
Y148634D01*
X21756Y140366D02*
X24905D01*
X21953Y148634D02*
X24905D01*
X13094D02*
X16244D01*
X13094Y140366D02*
X16244D01*
X21406Y93366D02*
Y101634D01*
X9595Y93366D02*
Y101634D01*
X18256Y93366D02*
X21406D01*
X18453Y101634D02*
X21406D01*
X9595D02*
X12744D01*
X9595Y93366D02*
X12744D01*
X21406Y101866D02*
Y110134D01*
X9595Y101866D02*
Y110134D01*
X18256Y101866D02*
X21406D01*
X18453Y110134D02*
X21406D01*
X9595D02*
X12744D01*
X9595Y101866D02*
X12744D01*
X110406Y28366D02*
Y36634D01*
X98594Y28366D02*
Y36634D01*
X107256Y28366D02*
X110406D01*
X107453Y36634D02*
X110406D01*
X98594D02*
X101744D01*
X98594Y28366D02*
X101744D01*
X132595Y126866D02*
Y135134D01*
X144405Y126866D02*
Y135134D01*
X132595D02*
X135744D01*
X132595Y126866D02*
X135547D01*
X141256D02*
X144405D01*
X141256Y135134D02*
X144405D01*
X132595Y107866D02*
Y116134D01*
X144405Y107866D02*
Y116134D01*
X132595D02*
X135744D01*
X132595Y107866D02*
X135547D01*
X141256D02*
X144405D01*
X141256Y116134D02*
X144405D01*
X6095Y45366D02*
Y53634D01*
X17906Y45366D02*
Y53634D01*
X6095D02*
X9244D01*
X6095Y45366D02*
X9047D01*
X14756D02*
X17906D01*
X14756Y53634D02*
X17906D01*
X33500Y121310D02*
Y146000D01*
X116500Y73500D02*
Y98690D01*
Y121310D02*
Y146000D01*
X33500D02*
X116500D01*
X33500Y73500D02*
Y98690D01*
Y73500D02*
X116500D01*
X141256Y125634D02*
X144405D01*
X141256Y117366D02*
X144405D01*
X132595D02*
X135547D01*
X132595Y125634D02*
X135744D01*
X144405Y117366D02*
Y125634D01*
X132595Y117366D02*
Y125634D01*
X141256Y144634D02*
X144405D01*
X141256Y136366D02*
X144405D01*
X132595D02*
X135547D01*
X132595Y144634D02*
X135744D01*
X144405Y136366D02*
Y144634D01*
X132595Y136366D02*
Y144634D01*
D29*
X133500Y103500D02*
X143500D01*
X133500Y86500D02*
Y103500D01*
Y86500D02*
X143500D01*
Y103500D01*
X5500Y121500D02*
X19500D01*
X5500D02*
Y137500D01*
X19500D01*
Y121500D02*
Y137500D01*
D49*
X132697Y104500D02*
G03*
X132697Y104500I-197J0D01*
G01*
X20512Y120500D02*
G03*
X20512Y120500I-512J0D01*
G01*
D50*
X6398Y134126D02*
Y135602D01*
Y123398D02*
Y124874D01*
X18602Y134126D02*
Y135602D01*
Y123398D02*
Y124874D01*
X6398Y135602D02*
X6496D01*
X18504D02*
X18602D01*
X6398Y123398D02*
X6496D01*
X18504D02*
X18602D01*
D51*
X80705Y15813D02*
Y62913D01*
X77752D02*
X80705D01*
X25587D02*
X45272D01*
X25587Y11732D02*
Y62913D01*
X71205Y6813D02*
X72805D01*
X69805Y8213D02*
X71205Y6813D01*
X66286Y11732D02*
X69805Y8213D01*
X25587Y11732D02*
X66286D01*
D52*
X1834Y137167D02*
X1501Y137500D01*
Y138167D01*
X1834Y138500D01*
X3167D01*
X3500Y138167D01*
Y137500D01*
X3167Y137167D01*
X3500Y135168D02*
Y136501D01*
X2167Y135168D01*
X1834D01*
X1501Y135501D01*
Y136167D01*
X1834Y136501D01*
X1501Y133168D02*
Y134501D01*
X2500D01*
X2167Y133835D01*
Y133502D01*
X2500Y133168D01*
X3167D01*
X3500Y133502D01*
Y134168D01*
X3167Y134501D01*
X54167Y7999D02*
X54834D01*
X54500D01*
Y6333D01*
X54834Y6000D01*
X55167D01*
X55500Y6333D01*
X53501Y7666D02*
X53167Y7999D01*
X52501D01*
X52168Y7666D01*
Y7333D01*
X52501Y7000D01*
X52834D01*
X52501D01*
X52168Y6667D01*
Y6333D01*
X52501Y6000D01*
X53167D01*
X53501Y6333D01*
X131500Y102999D02*
Y101333D01*
X131167Y101000D01*
X130500D01*
X130167Y101333D01*
Y102999D01*
X129501D02*
X128168D01*
Y102666D01*
X129501Y101333D01*
Y101000D01*
X25000Y123999D02*
Y122333D01*
X24667Y122000D01*
X24000D01*
X23667Y122333D01*
Y123999D01*
X21668D02*
X22334Y123666D01*
X23001Y123000D01*
Y122333D01*
X22667Y122000D01*
X22001D01*
X21668Y122333D01*
Y122667D01*
X22001Y123000D01*
X23001D01*
X112000Y13000D02*
X113999D01*
Y14000D01*
X113666Y14333D01*
X113000D01*
X112666Y14000D01*
Y13000D01*
Y13667D02*
X112000Y14333D01*
Y14999D02*
Y15666D01*
Y15333D01*
X113999D01*
X113666Y14999D01*
Y16666D02*
X113999Y16999D01*
Y17665D01*
X113666Y17998D01*
X113333D01*
X113000Y17665D01*
X112666Y17998D01*
X112333D01*
X112000Y17665D01*
Y16999D01*
X112333Y16666D01*
X112666D01*
X113000Y16999D01*
X113333Y16666D01*
X113666D01*
X113000Y16999D02*
Y17665D01*
X19000Y18000D02*
X20999D01*
Y19000D01*
X20666Y19333D01*
X20000D01*
X19667Y19000D01*
Y18000D01*
Y18666D02*
X19000Y19333D01*
Y19999D02*
Y20666D01*
Y20333D01*
X20999D01*
X20666Y19999D01*
X20999Y21666D02*
Y22998D01*
X20666D01*
X19333Y21666D01*
X19000D01*
X24000Y26000D02*
Y27999D01*
X23000D01*
X22667Y27666D01*
Y27000D01*
X23000Y26666D01*
X24000D01*
X23334D02*
X22667Y26000D01*
X22001D02*
X21334D01*
X21667D01*
Y27999D01*
X22001Y27666D01*
X19002Y27999D02*
X19668Y27666D01*
X20335Y27000D01*
Y26333D01*
X20001Y26000D01*
X19335D01*
X19002Y26333D01*
Y26666D01*
X19335Y27000D01*
X20335D01*
X24000Y34500D02*
Y36499D01*
X23000D01*
X22667Y36166D01*
Y35500D01*
X23000Y35166D01*
X24000D01*
X23334D02*
X22667Y34500D01*
X22001D02*
X21334D01*
X21667D01*
Y36499D01*
X22001Y36166D01*
X19002Y36499D02*
X20335D01*
Y35500D01*
X19668Y35833D01*
X19335D01*
X19002Y35500D01*
Y34833D01*
X19335Y34500D01*
X20001D01*
X20335Y34833D01*
X112500Y22000D02*
X114499D01*
Y23000D01*
X114166Y23333D01*
X113500D01*
X113166Y23000D01*
Y22000D01*
Y22667D02*
X112500Y23333D01*
Y23999D02*
Y24666D01*
Y24333D01*
X114499D01*
X114166Y23999D01*
X112500Y26665D02*
X114499D01*
X113500Y25666D01*
Y26998D01*
X30500Y145000D02*
Y146999D01*
X29500D01*
X29167Y146666D01*
Y146000D01*
X29500Y145667D01*
X30500D01*
X29834D02*
X29167Y145000D01*
X28501D02*
X27834D01*
X28167D01*
Y146999D01*
X28501Y146666D01*
X26834Y145000D02*
X26168D01*
X26501D01*
Y146999D01*
X26834Y146666D01*
X18500Y89500D02*
Y91499D01*
X17500D01*
X17167Y91166D01*
Y90500D01*
X17500Y90166D01*
X18500D01*
X17833D02*
X17167Y89500D01*
X16501D02*
X15834D01*
X16167D01*
Y91499D01*
X16501Y91166D01*
X14834D02*
X14501Y91499D01*
X13835D01*
X13502Y91166D01*
Y89833D01*
X13835Y89500D01*
X14501D01*
X14834Y89833D01*
Y91166D01*
X7000Y108000D02*
X5001D01*
Y107000D01*
X5334Y106667D01*
X6000D01*
X6334Y107000D01*
Y108000D01*
Y107334D02*
X7000Y106667D01*
X6667Y106001D02*
X7000Y105667D01*
Y105001D01*
X6667Y104668D01*
X5334D01*
X5001Y105001D01*
Y105667D01*
X5334Y106001D01*
X5667D01*
X6000Y105667D01*
Y104668D01*
X112000Y31000D02*
X113999D01*
Y32000D01*
X113666Y32333D01*
X113000D01*
X112666Y32000D01*
Y31000D01*
Y31666D02*
X112000Y32333D01*
X113666Y32999D02*
X113999Y33333D01*
Y33999D01*
X113666Y34332D01*
X113333D01*
X113000Y33999D01*
X112666Y34332D01*
X112333D01*
X112000Y33999D01*
Y33333D01*
X112333Y32999D01*
X112666D01*
X113000Y33333D01*
X113333Y32999D01*
X113666D01*
X113000Y33333D02*
Y33999D01*
X146000Y129500D02*
X147999D01*
Y130500D01*
X147666Y130833D01*
X147000D01*
X146667Y130500D01*
Y129500D01*
Y130166D02*
X146000Y130833D01*
X147666Y131499D02*
X147999Y131833D01*
Y132499D01*
X147666Y132832D01*
X147333D01*
X147000Y132499D01*
Y132166D01*
Y132499D01*
X146667Y132832D01*
X146333D01*
X146000Y132499D01*
Y131833D01*
X146333Y131499D01*
X145500Y110500D02*
X147499D01*
Y111500D01*
X147166Y111833D01*
X146500D01*
X146167Y111500D01*
Y110500D01*
Y111167D02*
X145500Y111833D01*
Y113832D02*
Y112499D01*
X146833Y113832D01*
X147166D01*
X147499Y113499D01*
Y112833D01*
X147166Y112499D01*
X22250Y45500D02*
Y47499D01*
X21250D01*
X20917Y47166D01*
Y46500D01*
X21250Y46166D01*
X22250D01*
X21584D02*
X20917Y45500D01*
X20251D02*
X19584D01*
X19917D01*
Y47499D01*
X20251Y47166D01*
X121167Y81499D02*
X121834D01*
X121500D01*
Y79833D01*
X121834Y79500D01*
X122167D01*
X122500Y79833D01*
X119168Y79500D02*
X120501D01*
X119168Y80833D01*
Y81166D01*
X119501Y81499D01*
X120167D01*
X120501Y81166D01*
X147166Y120833D02*
X147499Y120500D01*
Y119833D01*
X147166Y119500D01*
X145833D01*
X145500Y119833D01*
Y120500D01*
X145833Y120833D01*
X145500Y121499D02*
Y122166D01*
Y121833D01*
X147499D01*
X147166Y121499D01*
X145500Y123166D02*
Y123832D01*
Y123499D01*
X147499D01*
X147166Y123166D01*
X147666Y139833D02*
X147999Y139500D01*
Y138833D01*
X147666Y138500D01*
X146333D01*
X146000Y138833D01*
Y139500D01*
X146333Y139833D01*
X146000Y140499D02*
Y141166D01*
Y140833D01*
X147999D01*
X147666Y140499D01*
Y142166D02*
X147999Y142499D01*
Y143165D01*
X147666Y143498D01*
X146333D01*
X146000Y143165D01*
Y142499D01*
X146333Y142166D01*
X147666D01*
M02*
