G04 Layer_Color=8388736*
%FSLAX25Y25*%
%MOIN*%
G70*
G01*
G75*
%ADD53R,0.01299X0.01772*%
%ADD54R,0.01772X0.01299*%
%ADD55R,0.03950X0.03950*%
%ADD56R,0.04147X0.06312*%
G04:AMPARAMS|DCode=57|XSize=33.59mil|YSize=55.24mil|CornerRadius=5.92mil|HoleSize=0mil|Usage=FLASHONLY|Rotation=0.000|XOffset=0mil|YOffset=0mil|HoleType=Round|Shape=RoundedRectangle|*
%AMROUNDEDRECTD57*
21,1,0.03359,0.04341,0,0,0.0*
21,1,0.02175,0.05524,0,0,0.0*
1,1,0.01184,0.01088,-0.02170*
1,1,0.01184,-0.01088,-0.02170*
1,1,0.01184,-0.01088,0.02170*
1,1,0.01184,0.01088,0.02170*
%
%ADD57ROUNDEDRECTD57*%
%ADD58R,0.06312X0.04147*%
G04:AMPARAMS|DCode=59|XSize=29.65mil|YSize=39.5mil|CornerRadius=5.95mil|HoleSize=0mil|Usage=FLASHONLY|Rotation=90.000|XOffset=0mil|YOffset=0mil|HoleType=Round|Shape=RoundedRectangle|*
%AMROUNDEDRECTD59*
21,1,0.02965,0.02760,0,0,90.0*
21,1,0.01776,0.03950,0,0,90.0*
1,1,0.01190,0.01380,0.00888*
1,1,0.01190,0.01380,-0.00888*
1,1,0.01190,-0.01380,-0.00888*
1,1,0.01190,-0.01380,0.00888*
%
%ADD59ROUNDEDRECTD59*%
%ADD60R,0.07493X0.03950*%
%ADD61R,0.04383X0.02414*%
%ADD62R,0.02414X0.04383*%
%ADD63R,0.09265X0.09265*%
%ADD64R,0.01981X0.03753*%
%ADD65R,0.03753X0.01981*%
G04:AMPARAMS|DCode=66|XSize=19.81mil|YSize=37.53mil|CornerRadius=6.95mil|HoleSize=0mil|Usage=FLASHONLY|Rotation=270.000|XOffset=0mil|YOffset=0mil|HoleType=Round|Shape=RoundedRectangle|*
%AMROUNDEDRECTD66*
21,1,0.01981,0.02362,0,0,270.0*
21,1,0.00591,0.03753,0,0,270.0*
1,1,0.01391,-0.01181,-0.00295*
1,1,0.01391,-0.01181,0.00295*
1,1,0.01391,0.01181,0.00295*
1,1,0.01391,0.01181,-0.00295*
%
%ADD66ROUNDEDRECTD66*%
%ADD67R,0.06115X0.02572*%
G04:AMPARAMS|DCode=68|XSize=58mil|YSize=58mil|CornerRadius=10.25mil|HoleSize=0mil|Usage=FLASHONLY|Rotation=180.000|XOffset=0mil|YOffset=0mil|HoleType=Round|Shape=RoundedRectangle|*
%AMROUNDEDRECTD68*
21,1,0.05800,0.03750,0,0,180.0*
21,1,0.03750,0.05800,0,0,180.0*
1,1,0.02050,-0.01875,0.01875*
1,1,0.02050,0.01875,0.01875*
1,1,0.02050,0.01875,-0.01875*
1,1,0.02050,-0.01875,-0.01875*
%
%ADD68ROUNDEDRECTD68*%
%ADD69R,0.03556X0.01981*%
%ADD70R,0.04737X0.07099*%
%ADD71R,0.03479X0.01600*%
%ADD72R,0.01600X0.03479*%
%ADD73C,0.04800*%
%ADD74R,0.05721X0.05721*%
%ADD75R,0.06706X0.06706*%
%ADD76C,0.15761*%
%ADD77C,0.03300*%
D53*
X98075Y123579D02*
D03*
X99768D02*
D03*
X101461D02*
D03*
X103154D02*
D03*
X104847D02*
D03*
X106539D02*
D03*
X108232D02*
D03*
X109925D02*
D03*
Y133421D02*
D03*
X108232D02*
D03*
X106539D02*
D03*
X104847D02*
D03*
X103154D02*
D03*
X101461D02*
D03*
X99768D02*
D03*
X98075D02*
D03*
D54*
Y125961D02*
D03*
Y127654D02*
D03*
Y129347D02*
D03*
X109925Y125961D02*
D03*
Y127654D02*
D03*
Y129347D02*
D03*
Y131039D02*
D03*
X98075D02*
D03*
D55*
X71850Y78740D02*
D03*
Y71260D02*
D03*
X78150D02*
D03*
Y78740D02*
D03*
D56*
X66055Y120500D02*
D03*
X72945D02*
D03*
X127945Y114000D02*
D03*
X121055D02*
D03*
X66055Y113000D02*
D03*
X72945D02*
D03*
X119390Y91000D02*
D03*
X112500D02*
D03*
X101445Y52000D02*
D03*
X94555D02*
D03*
X87555Y32000D02*
D03*
X94445D02*
D03*
X135945Y53500D02*
D03*
X129055D02*
D03*
Y63500D02*
D03*
X135945D02*
D03*
X82555Y52000D02*
D03*
X89445D02*
D03*
X135945Y73000D02*
D03*
X129055D02*
D03*
X87555Y6500D02*
D03*
X94445D02*
D03*
X46890D02*
D03*
X40000D02*
D03*
X32000D02*
D03*
X25110D02*
D03*
X38445Y89000D02*
D03*
X31555D02*
D03*
X38445Y107000D02*
D03*
X31555D02*
D03*
Y98000D02*
D03*
X38445D02*
D03*
X94445Y23500D02*
D03*
X87555D02*
D03*
X94390Y15000D02*
D03*
X87500D02*
D03*
X8555Y129000D02*
D03*
X15445D02*
D03*
X107555Y143500D02*
D03*
X114445D02*
D03*
X99945D02*
D03*
X93055D02*
D03*
X47390Y46500D02*
D03*
X40500D02*
D03*
X25445D02*
D03*
X32335D02*
D03*
X54055Y137000D02*
D03*
X60945D02*
D03*
D57*
X76740Y91693D02*
D03*
X69260D02*
D03*
Y103307D02*
D03*
X73000D02*
D03*
X76740D02*
D03*
D58*
X111945Y83445D02*
D03*
Y76555D02*
D03*
X120445Y83445D02*
D03*
Y76555D02*
D03*
X136000Y105000D02*
D03*
Y111890D02*
D03*
X41445Y54555D02*
D03*
Y61445D02*
D03*
X31445Y54555D02*
D03*
Y61445D02*
D03*
X7500Y137000D02*
D03*
Y143890D02*
D03*
X17000Y144000D02*
D03*
Y137110D02*
D03*
X108500Y117445D02*
D03*
Y110555D02*
D03*
X89500Y78445D02*
D03*
Y71555D02*
D03*
X100000Y117445D02*
D03*
Y110555D02*
D03*
D59*
X129500Y105000D02*
D03*
Y97520D02*
D03*
X119461D02*
D03*
Y101260D02*
D03*
Y105000D02*
D03*
D60*
X6000Y115193D02*
D03*
Y101807D02*
D03*
D61*
X102819Y8545D02*
D03*
Y11537D02*
D03*
Y14529D02*
D03*
Y17522D02*
D03*
Y20514D02*
D03*
X140181Y26577D02*
D03*
Y29569D02*
D03*
Y32561D02*
D03*
X103000Y23500D02*
D03*
X140181Y23577D02*
D03*
D62*
X107996Y40455D02*
D03*
X110988D02*
D03*
X113980D02*
D03*
X116972D02*
D03*
X119965D02*
D03*
X122957D02*
D03*
X125949D02*
D03*
X128941D02*
D03*
X131933D02*
D03*
X134925D02*
D03*
X137917D02*
D03*
X141000Y40500D02*
D03*
D63*
X36500Y28000D02*
D03*
D64*
X40339Y20815D02*
D03*
X37780D02*
D03*
X35221D02*
D03*
X32661D02*
D03*
Y35185D02*
D03*
X35221D02*
D03*
X37780D02*
D03*
X40339D02*
D03*
D65*
X29315Y24161D02*
D03*
Y26720D02*
D03*
Y29280D02*
D03*
Y31839D02*
D03*
X43685D02*
D03*
Y29280D02*
D03*
Y26720D02*
D03*
D66*
Y24161D02*
D03*
D67*
X19000Y75000D02*
D03*
Y77559D02*
D03*
Y80118D02*
D03*
Y72441D02*
D03*
Y69882D02*
D03*
D68*
X16250Y22000D02*
D03*
X8750D02*
D03*
X15750Y30000D02*
D03*
X8250D02*
D03*
X15750Y38500D02*
D03*
X8250D02*
D03*
Y49500D02*
D03*
X15750D02*
D03*
D69*
X35232Y136500D02*
D03*
Y133941D02*
D03*
Y131382D02*
D03*
X43500Y136500D02*
D03*
Y133941D02*
D03*
Y131382D02*
D03*
D70*
X39366Y133941D02*
D03*
D71*
X96735Y125935D02*
D03*
Y127628D02*
D03*
Y129321D02*
D03*
Y131014D02*
D03*
X111265Y131064D02*
D03*
Y129372D02*
D03*
Y127679D02*
D03*
Y125986D02*
D03*
D72*
X98050Y134761D02*
D03*
X99743D02*
D03*
X101435D02*
D03*
X103128D02*
D03*
X104821D02*
D03*
X106514D02*
D03*
X108207D02*
D03*
X109900D02*
D03*
X109950Y122239D02*
D03*
X108257D02*
D03*
X106565D02*
D03*
X104872D02*
D03*
X103179D02*
D03*
X101486D02*
D03*
X98100D02*
D03*
X99793D02*
D03*
D73*
X145000Y63000D02*
D03*
X22000Y133500D02*
D03*
X89500Y61000D02*
D03*
X97000Y66500D02*
D03*
X5000Y121500D02*
D03*
X129500Y90000D02*
D03*
X109500Y65500D02*
D03*
X111000Y57000D02*
D03*
X144500Y53500D02*
D03*
X120000Y61000D02*
D03*
X132500Y46500D02*
D03*
X122000Y69000D02*
D03*
X108000Y46000D02*
D03*
X146000Y41000D02*
D03*
X146500Y29500D02*
D03*
D74*
X19000Y65158D02*
D03*
Y84842D02*
D03*
D75*
X8370Y88779D02*
D03*
Y61221D02*
D03*
D76*
X11000Y9500D02*
D03*
X124500Y136500D02*
D03*
X36500Y75000D02*
D03*
D77*
X24000Y139500D02*
D03*
X4000Y133500D02*
D03*
X32500Y124500D02*
D03*
X31000Y130000D02*
D03*
X57000Y74000D02*
D03*
X25500Y97000D02*
D03*
X60500Y68000D02*
D03*
X60750Y64750D02*
D03*
X54000Y67500D02*
D03*
X126000Y45000D02*
D03*
X117000D02*
D03*
X146000Y18000D02*
D03*
Y9000D02*
D03*
X50000Y120000D02*
D03*
X97500Y31500D02*
D03*
X138500Y95000D02*
D03*
X89500Y87500D02*
D03*
X101500Y40500D02*
D03*
X64500Y56500D02*
D03*
X66000Y38000D02*
D03*
X64500Y9500D02*
D03*
X46000Y14500D02*
D03*
X36000Y51000D02*
D03*
X45500Y96500D02*
D03*
X101000Y94500D02*
D03*
X88000Y110500D02*
D03*
X62500Y98500D02*
D03*
X4500Y95500D02*
D03*
X103000Y76500D02*
D03*
X45000Y83500D02*
D03*
X51500Y11500D02*
D03*
X131000Y108500D02*
D03*
X14500Y112000D02*
D03*
X18500Y114500D02*
D03*
X30500Y14500D02*
D03*
X36500Y28000D02*
D03*
X47780Y29280D02*
D03*
X51500Y130500D02*
D03*
X5500Y69500D02*
D03*
X85500Y140000D02*
D03*
X68500Y137000D02*
D03*
X40500Y15500D02*
D03*
X82500Y21000D02*
D03*
X91000Y46000D02*
D03*
X79500Y52000D02*
D03*
X43500Y39500D02*
D03*
X82500Y31500D02*
D03*
X83500Y8500D02*
D03*
X21000Y49500D02*
D03*
X25500Y126500D02*
D03*
X49000Y142000D02*
D03*
X39500Y144000D02*
D03*
X29000Y143000D02*
D03*
X21000Y38500D02*
D03*
Y30000D02*
D03*
X3000Y22000D02*
D03*
X2500Y30000D02*
D03*
Y38500D02*
D03*
X141500Y73000D02*
D03*
X25850Y14421D02*
D03*
X144000Y80000D02*
D03*
X74500Y46000D02*
D03*
X22500Y12000D02*
D03*
X123500Y124500D02*
D03*
M02*
