M48
;Layer_Color=9474304
;FILE_FORMAT=2:5
INCH,LZ
;TYPE=PLATED
T1F00S00C0.00787
%
T01
X000374Y-0035138
X0003642Y-0030217
X00029Y-00187
X0012598Y-0019291
X0014173
Y-0020866
X0015748Y-0022441
X0017323
Y-0020866
X0018898Y-0022441
Y-0019291
X0020472
X0022047Y-0020866
X0023622
Y-0022441
X0025197
Y-0019291
X0023622
X0022047Y-0017717
Y-0016142
Y-0014567
X0018898
Y-0016142
X0014173
Y-0017717
Y-0014567
X0012598
Y-0012992
X0014173
X0015748
Y-0011417
X0017323Y-0012992
X0020472
Y-0011417
X0022047
X0023622Y-0012992
X0025197
Y-0011417
X0026083Y-000935
X002372
X0030118Y-0008563
X0031102Y-0001476
X0028248Y-0001476
X0025098Y-0002067
X0019685Y-0001476
X0016437
X0010925Y-000187
X00075Y-00089
X0003543Y-0007087
X0001575
Y-0005118
X0003543
X0015748Y-0014567
X0025197Y-0016142
X0029528Y-0018996
X0032776Y-0022146
X0037008
X0036614Y-0016142
Y-0011811
X0041043Y-0006299
M30
