G04 Layer_Physical_Order=3*
G04 Layer_Color=16440176*
%FSLAX25Y25*%
%MOIN*%
G70*
G01*
G75*
%ADD10C,0.01000*%
%ADD18C,0.01181*%
%ADD23C,0.00787*%
%ADD24C,0.00394*%
%ADD27C,0.01339*%
%ADD28C,0.01575*%
D10*
X5421Y-35138D02*
G03*
X5421Y-35138I-1681J0D01*
G01*
X5323Y-30217D02*
G03*
X5323Y-30217I-1681J0D01*
G01*
X4581Y-18700D02*
G03*
X4581Y-18700I-1681J0D01*
G01*
X12626Y-24923D02*
G03*
X13287Y-25106I662J1104D01*
G01*
X12626Y-24923D02*
G03*
X13287Y-25106I662J1104D01*
G01*
X10681Y-23227D02*
G03*
X12502Y-25047I146J-1675D01*
G01*
X12692Y-17810D02*
G03*
X11311Y-20030I-94J-1481D01*
G01*
X12915Y-16929D02*
G03*
X12692Y-17810I1258J-787D01*
G01*
X582Y-8294D02*
G03*
X2559Y-8301I993J1207D01*
G01*
X1609Y-14800D02*
G03*
X1929Y-15571I1091J0D01*
G01*
X1609Y-14800D02*
G03*
X1929Y-15571I1091J0D01*
G01*
X2877Y-16519D02*
G03*
X3648Y-16839I771J771D01*
G01*
X2877Y-16519D02*
G03*
X3648Y-16839I771J771D01*
G01*
X3791Y-13479D02*
G03*
X4381Y-12200I-1091J1279D01*
G01*
D02*
G03*
X1609Y-13479I-1681J0D01*
G01*
X2559Y-3904D02*
G03*
X592Y-3902I-984J-1214D01*
G01*
X2559Y-8301D02*
G03*
X5106Y-7087I984J1214D01*
G01*
X4406Y-3815D02*
G03*
X2559Y-3904I-863J-1303D01*
G01*
X5106Y-7087D02*
G03*
X4757Y-6102I-1563J0D01*
G01*
D02*
G03*
X5106Y-5118I-1214J984D01*
G01*
X9181Y-8900D02*
G03*
X9181Y-8900I-1681J0D01*
G01*
X11340Y-13780D02*
G03*
X11117Y-14658I1258J-787D01*
G01*
X13386Y-11734D02*
G03*
X11340Y-13780I-787J-1258D01*
G01*
X14267Y-11511D02*
G03*
X13386Y-11734I-94J-1481D01*
G01*
X16232Y-10014D02*
G03*
X14267Y-11511I-484J-1403D01*
G01*
X9259Y-2094D02*
G03*
X12606Y-1870I1666J224D01*
G01*
X9294Y-1465D02*
G03*
X9259Y-2094I1632J-405D01*
G01*
X9718Y-700D02*
G03*
X9294Y-1465I1207J-1170D01*
G01*
X12606Y-1870D02*
G03*
X12132Y-700I-1681J0D01*
G01*
X15657Y-20866D02*
G03*
X15431Y-20079I-1484J0D01*
G01*
X16337Y-19757D02*
G03*
X15842Y-20960I986J-1109D01*
G01*
X17323Y-25106D02*
G03*
X18608Y-23897I0J1287D01*
G01*
X17323Y-25106D02*
G03*
X18608Y-23897I0J1287D01*
G01*
X19185Y-23917D02*
G03*
X19562Y-24828I1287J0D01*
G01*
X18608Y-23897D02*
G03*
X19185Y-23897I290J1456D01*
G01*
X19660Y-24926D02*
G03*
X20571Y-25303I910J910D01*
G01*
X19185Y-23917D02*
G03*
X19562Y-24828I1287J0D01*
G01*
X24606Y-25303D02*
G03*
X25517Y-24926I0J1287D01*
G01*
X19660D02*
G03*
X20571Y-25303I910J910D01*
G01*
X24606D02*
G03*
X25517Y-24926I0J1287D01*
G01*
X26107Y-24336D02*
G03*
X26484Y-23425I-910J910D01*
G01*
X26107Y-24336D02*
G03*
X26484Y-23425I-910J910D01*
G01*
X34457Y-22146D02*
G03*
X34457Y-22146I-1681J0D01*
G01*
X26681Y-22441D02*
G03*
X25103Y-20960I-1484J0D01*
G01*
X26484Y-23180D02*
G03*
X26681Y-22441I-1287J739D01*
G01*
X15431Y-20079D02*
G03*
X15657Y-19291I-1258J787D01*
G01*
D02*
G03*
X15431Y-18504I-1484J0D01*
G01*
X16232Y-19291D02*
G03*
X16337Y-19757I1091J0D01*
G01*
X16232Y-19291D02*
G03*
X16337Y-19757I1091J0D01*
G01*
X25103Y-20773D02*
G03*
X26681Y-19291I94J1481D01*
G01*
D02*
G03*
X24409Y-18033I-1484J0D01*
G01*
X15431Y-18504D02*
G03*
X15657Y-17717I-1258J787D01*
G01*
D02*
G03*
X15431Y-16929I-1484J0D01*
G01*
X16552Y-17437D02*
G03*
X16232Y-18209I771J-771D01*
G01*
X16552Y-17437D02*
G03*
X16232Y-18209I771J-771D01*
G01*
X24409Y-18033D02*
G03*
X23529Y-17810I-787J-1258D01*
G01*
X23531Y-17717D02*
G03*
X23305Y-16929I-1484J0D01*
G01*
X31209Y-18996D02*
G03*
X31209Y-18996I-1681J0D01*
G01*
X38689Y-22146D02*
G03*
X38689Y-22146I-1681J0D01*
G01*
X38492Y-16142D02*
G03*
X38492Y-16142I-1878J0D01*
G01*
X15431Y-16929D02*
G03*
X15657Y-16142I-1258J787D01*
G01*
X17510Y-16669D02*
G03*
X17044Y-16945I305J-1047D01*
G01*
X17510Y-16669D02*
G03*
X17044Y-16945I305J-1047D01*
G01*
X23305Y-16929D02*
G03*
X23531Y-16142I-1258J787D01*
G01*
X17639Y-15354D02*
G03*
X17510Y-16669I1258J-787D01*
G01*
X15654Y-16048D02*
G03*
X17232Y-14567I94J1481D01*
G01*
X17416Y-14473D02*
G03*
X17639Y-15354I1481J-94D01*
G01*
X23531Y-16142D02*
G03*
X23305Y-15354I-1484J0D01*
G01*
D02*
G03*
X23531Y-14567I-1258J787D01*
G01*
X22145Y-9936D02*
G03*
X21786Y-9956I-97J-1481D01*
G01*
X26681Y-16142D02*
G03*
X26681Y-16142I-1484J0D01*
G01*
X23529Y-14473D02*
G03*
X24409Y-14250I94J1481D01*
G01*
X23531Y-11417D02*
G03*
X23475Y-11013I-1484J0D01*
G01*
X23764Y-11031D02*
G03*
X23716Y-11511I1433J-386D01*
G01*
X24409Y-14250D02*
G03*
X26681Y-12992I787J1258D01*
G01*
D02*
G03*
X26455Y-12205I-1484J0D01*
G01*
D02*
G03*
X26681Y-11417I-1258J787D01*
G01*
D02*
G03*
X26605Y-10948I-1484J0D01*
G01*
X24902Y-8154D02*
G03*
X23627Y-7672I-1181J-1196D01*
G01*
X26605Y-10948D02*
G03*
X27764Y-9350I-522J1598D01*
G01*
D02*
G03*
X24902Y-8154I-1681J0D01*
G01*
X31799Y-8563D02*
G03*
X31799Y-8563I-1681J0D01*
G01*
X30807Y-4535D02*
G03*
X31578Y-4216I0J1091D01*
G01*
X30807Y-4535D02*
G03*
X31578Y-4216I0J1091D01*
G01*
X38492Y-11811D02*
G03*
X38492Y-11811I-1878J0D01*
G01*
X42700Y-6014D02*
G03*
X42700Y-6585I-1657J-285D01*
G01*
X31972Y-3822D02*
G03*
X32291Y-3051I-771J771D01*
G01*
X31972Y-3822D02*
G03*
X32291Y-3051I-771J771D01*
G01*
Y-2665D02*
G03*
X32783Y-1476I-1189J1188D01*
G01*
D02*
G03*
X32594Y-700I-1681J0D01*
G01*
X501Y-42685D02*
X816Y-43000D01*
X502Y-41979D02*
X1523Y-43000D01*
X504Y-41274D02*
X2230Y-43000D01*
X507Y-39863D02*
X3645Y-43000D01*
X506Y-40568D02*
X2937Y-43000D01*
X509Y-39157D02*
X4352Y-43000D01*
X512Y-37747D02*
X5766Y-43000D01*
X511Y-38452D02*
X5059Y-43000D01*
X514Y-37041D02*
X6473Y-43000D01*
X517Y-35630D02*
X7887Y-43000D01*
X516Y-36336D02*
X7180Y-43000D01*
X511Y-38421D02*
X2579Y-36353D01*
X513Y-37712D02*
X2271Y-35954D01*
X514Y-37003D02*
X2085Y-35432D01*
X516Y-36295D02*
X2120Y-34691D01*
X521Y-34219D02*
X2291Y-35989D01*
X506Y-40547D02*
X4348Y-36705D01*
X508Y-39839D02*
X3539Y-36807D01*
X509Y-39130D02*
X2994Y-36645D01*
X518Y-35586D02*
X4373Y-31730D01*
X519Y-34925D02*
X8594Y-43000D01*
X519Y-34877D02*
X3504Y-31892D01*
X522Y-33514D02*
X2061Y-35053D01*
X3740Y-36319D02*
Y-35138D01*
X521Y-34168D02*
X2943Y-31746D01*
X524Y-32808D02*
X2194Y-34478D01*
X526Y-32103D02*
X2465Y-34042D01*
X2889Y-36587D02*
X9301Y-43000D01*
X3825Y-36817D02*
X10009Y-43000D01*
X3740Y-35138D02*
X4921D01*
X3740D02*
Y-33957D01*
X2559Y-35138D02*
X3740D01*
X523Y-33459D02*
X2517Y-31466D01*
X527Y-31398D02*
X2845Y-33715D01*
X524Y-32751D02*
X2198Y-31077D01*
X526Y-32042D02*
X1998Y-30570D01*
X528Y-31333D02*
X1998Y-29862D01*
X532Y-29281D02*
X2074Y-30822D01*
X529Y-30692D02*
X3342Y-33505D01*
X3642Y-31398D02*
Y-30217D01*
X2461D02*
X3642D01*
X531Y-29987D02*
X4025Y-33481D01*
X3642Y-30217D02*
Y-29035D01*
Y-30217D02*
X4823D01*
X534Y-28576D02*
X1973Y-30015D01*
X536Y-27870D02*
X2135Y-29470D01*
X500Y-43000D02*
X582Y-8294D01*
X537Y-27165D02*
X2427Y-29054D01*
X539Y-26459D02*
X2826Y-28747D01*
X541Y-25754D02*
X3348Y-28561D01*
X542Y-25049D02*
X4090Y-28596D01*
X544Y-24245D02*
X7951Y-16839D01*
X539Y-26372D02*
X10072Y-16839D01*
X541Y-25663D02*
X9365Y-16839D01*
X543Y-24954D02*
X8658Y-16839D01*
X553Y-20701D02*
X1551Y-19703D01*
X554Y-19993D02*
X1308Y-19239D01*
X557Y-18700D02*
X1525Y-19667D01*
X556Y-19284D02*
X1221Y-18619D01*
X559Y-17994D02*
X1220Y-18654D01*
X561Y-17289D02*
X1342Y-18069D01*
X548Y-22828D02*
X2997Y-20378D01*
X549Y-22119D02*
X2372Y-20296D01*
X551Y-21410D02*
X1906Y-20055D01*
X546Y-23537D02*
X7244Y-16839D01*
X558Y-18575D02*
X2745Y-16387D01*
X559Y-17866D02*
X2392Y-16034D01*
X5171Y-29518D02*
X9238Y-25451D01*
X3973Y-19994D02*
X9171Y-25192D01*
X4891Y-29091D02*
X9147Y-24835D01*
X4307Y-19620D02*
X9193Y-24507D01*
X3293Y-33517D02*
X10309Y-26501D01*
X5155Y-30948D02*
X9841Y-26263D01*
X5317Y-30079D02*
X9484Y-25913D01*
X3646Y-16839D02*
X10164Y-23357D01*
X4525Y-19131D02*
X9402Y-24009D01*
X4564Y-18464D02*
X9729Y-23628D01*
X1719Y-18700D02*
X2900D01*
Y-19881D02*
Y-18700D01*
X4081D01*
X563Y-16583D02*
X1606Y-17627D01*
X2900Y-18700D02*
Y-17519D01*
X564Y-15878D02*
X1980Y-17293D01*
X4256Y-17706D02*
X5123Y-16839D01*
X3903Y-17351D02*
X4416Y-16839D01*
X4353D02*
X10711Y-23197D01*
X4578Y-18797D02*
X6537Y-16839D01*
X4496Y-18172D02*
X5830Y-16839D01*
X3844Y-31885D02*
X14958Y-43000D01*
X4836Y-36413D02*
X11423Y-43000D01*
X544Y-24343D02*
X19201Y-43000D01*
X3036Y-31785D02*
X14251Y-43000D01*
X882D02*
X19344Y-24537D01*
X500Y-43000D02*
X42700D01*
X3710D02*
X21407Y-25303D01*
X3003Y-43000D02*
X20700Y-25303D01*
X882Y-43000D02*
X19344Y-24537D01*
X2296Y-43000D02*
X20087Y-25209D01*
X1589Y-43000D02*
X19662Y-24927D01*
X4388Y-31723D02*
X15665Y-43000D01*
X4804Y-31431D02*
X16373Y-43000D01*
X4400Y-36684D02*
X10716Y-43000D01*
X4035Y-33483D02*
X10939Y-26579D01*
X4955Y-33976D02*
X13826Y-25106D01*
X4557Y-33668D02*
X13128Y-25096D01*
X4417Y-43000D02*
X22114Y-25303D01*
X5124Y-43000D02*
X22821Y-25303D01*
X5112Y-31032D02*
X17080Y-43000D01*
X501Y-42674D02*
X19187Y-23988D01*
X502Y-41965D02*
X17362Y-25106D01*
X504Y-41256D02*
X16654Y-25106D01*
X5163Y-36033D02*
X12130Y-43000D01*
X5373Y-35536D02*
X12837Y-43000D01*
X5262Y-29768D02*
X18494Y-43000D01*
X5397Y-34853D02*
X13544Y-43000D01*
X5297Y-30510D02*
X17787Y-43000D01*
X6538D02*
X24235Y-25303D01*
X11222Y-26536D02*
X27686Y-43000D01*
X10537Y-26557D02*
X26979Y-43000D01*
X5831D02*
X23528Y-25303D01*
X13610Y-43000D02*
X32783Y-23827D01*
X7246Y-43000D02*
X25006Y-25240D01*
X5308Y-35746D02*
X15947Y-25106D01*
X5409Y-34937D02*
X15240Y-25106D01*
X13287D02*
X17323D01*
X5247Y-34392D02*
X14533Y-25106D01*
X11720Y-26326D02*
X28393Y-43000D01*
X12372Y-25564D02*
X29808Y-43000D01*
X12100Y-25999D02*
X29100Y-43000D01*
X13328Y-25106D02*
X31222Y-43000D01*
X14742Y-25106D02*
X32636Y-43000D01*
X14035Y-25106D02*
X31929Y-43000D01*
X546Y-23638D02*
X19908Y-43000D01*
X547Y-22932D02*
X20615Y-43000D01*
X529Y-30624D02*
X11248Y-19906D01*
X551Y-21521D02*
X22029Y-43000D01*
X549Y-22227D02*
X21322Y-43000D01*
X552Y-20816D02*
X22737Y-43000D01*
X3531Y-20258D02*
X26272Y-43000D01*
X2946Y-20380D02*
X25565Y-43000D01*
X554Y-20110D02*
X23444Y-43000D01*
X1933Y-20075D02*
X24858Y-43000D01*
X556Y-19405D02*
X24151Y-43000D01*
X3288Y-28573D02*
X11311Y-20550D01*
X4502Y-28773D02*
X11311Y-21964D01*
X3995Y-28573D02*
X11311Y-21257D01*
X531Y-29916D02*
X11115Y-19332D01*
X538Y-27080D02*
X10780Y-16839D01*
X5060D02*
X11065Y-22843D01*
X534Y-28498D02*
X12194Y-16839D01*
X536Y-27789D02*
X11487Y-16839D01*
X5768D02*
X11311Y-22382D01*
X6475Y-16839D02*
X11311Y-21675D01*
X7182Y-16839D02*
X11311Y-20968D01*
X7889Y-16839D02*
X11311Y-20261D01*
X11488Y-43000D02*
X31390Y-23098D01*
X10074Y-43000D02*
X31104Y-21970D01*
X10781Y-43000D02*
X31162Y-22619D01*
X10681Y-23227D02*
X11311Y-22597D01*
X12195Y-43000D02*
X31732Y-23463D01*
X14317Y-43000D02*
X35335Y-21982D01*
X12902Y-43000D02*
X32184Y-23719D01*
X7953Y-43000D02*
X34738Y-16215D01*
X9367Y-43000D02*
X35106Y-17261D01*
X8660Y-43000D02*
X34857Y-16803D01*
X8596Y-16839D02*
X11116Y-19358D01*
X11311Y-22597D02*
Y-20030D01*
X9303Y-16839D02*
X11216Y-18751D01*
X10010Y-16839D02*
X11483Y-18312D01*
X10717Y-16839D02*
X11874Y-17996D01*
X11424Y-16839D02*
X12405Y-17820D01*
X14173Y-19291D02*
X15157D01*
X13189Y-17717D02*
X14173D01*
X12132Y-16839D02*
X12718Y-17425D01*
X14173Y-17717D02*
X15157D01*
X564Y-15740D02*
X1609Y-14695D01*
X566Y-15031D02*
X1609Y-13988D01*
X568Y-14322D02*
X1506Y-13384D01*
X569Y-13613D02*
X1208Y-12975D01*
X573Y-12351D02*
X1221Y-12999D01*
X561Y-17157D02*
X2038Y-15680D01*
X566Y-15172D02*
X2469Y-17075D01*
X563Y-16449D02*
X1724Y-15287D01*
X568Y-14467D02*
X3136Y-17036D01*
X569Y-13761D02*
X1609Y-14802D01*
X571Y-13056D02*
X1609Y-14095D01*
X571Y-12905D02*
X1036Y-12440D01*
X573Y-12196D02*
X1108Y-11661D01*
X574Y-11645D02*
X1022Y-12093D01*
X576Y-10940D02*
X1161Y-11524D01*
X577Y-10234D02*
X1436Y-11092D01*
X580Y-9361D02*
X1313Y-8627D01*
X575Y-11487D02*
X3417Y-8644D01*
X579Y-9529D02*
X1819Y-10768D01*
X581Y-8823D02*
X2320Y-10562D01*
X576Y-10778D02*
X2861Y-8493D01*
X578Y-10070D02*
X2083Y-8565D01*
X1929Y-15571D02*
X2877Y-16519D01*
X2819Y-17021D02*
X3131Y-16708D01*
X1609Y-14800D02*
Y-13479D01*
X3439Y-17108D02*
X3708Y-16839D01*
X3791Y-14154D02*
X4294Y-14658D01*
X4352Y-11887D02*
X7122Y-14658D01*
X3808Y-13465D02*
X5001Y-14658D01*
X3791Y-14348D02*
X4100Y-14658D01*
X3791Y-14348D02*
Y-13479D01*
X1008Y-8543D02*
X3013Y-10548D01*
X2161Y-10608D02*
X4334Y-8435D01*
X4132Y-13081D02*
X5708Y-14658D01*
X4338Y-12580D02*
X6415Y-14658D01*
X4302Y-12709D02*
X6657Y-10354D01*
X3884Y-11006D02*
X5827Y-9063D01*
X4361Y-11943D02*
X6264Y-10040D01*
X4185Y-11412D02*
X5980Y-9618D01*
X3543Y-8150D02*
Y-7087D01*
X592Y-3902D02*
X600Y-700D01*
X598Y-1769D02*
X2658Y-3830D01*
X594Y-3180D02*
X1058Y-3643D01*
X3475Y-10708D02*
X5962Y-8221D01*
X3543Y-7087D02*
X4606D01*
X593Y-3691D02*
X3583Y-700D01*
X2527Y-3878D02*
X4406Y-1998D01*
X596Y-2474D02*
X1680Y-3559D01*
X599Y-1064D02*
X3143Y-3607D01*
X598Y-1564D02*
X1462Y-700D01*
X595Y-2982D02*
X2876Y-700D01*
X943D02*
X3823Y-3580D01*
X596Y-2273D02*
X2169Y-700D01*
X1429Y-3562D02*
X4291Y-700D01*
X2064Y-3634D02*
X4406Y-1291D01*
X3064Y-700D02*
X4406Y-2042D01*
X600Y-700D02*
X4406D01*
X1650D02*
X4406Y-3457D01*
X2357Y-700D02*
X4406Y-2750D01*
X4767Y-8059D02*
X5834Y-9127D01*
X4406Y-3815D02*
Y-2306D01*
X5021Y-5626D02*
X5654Y-4994D01*
X4832Y-6003D02*
X6431Y-7603D01*
X5018Y-7604D02*
X5877Y-8462D01*
X5103Y-6981D02*
X6096Y-7975D01*
X4950Y-6405D02*
X6361Y-4994D01*
X5054Y-5519D02*
X6875Y-7339D01*
X5101Y-6961D02*
X7068Y-4994D01*
X3557Y-3555D02*
X4406Y-2706D01*
X4144Y-3675D02*
X4406Y-3413D01*
Y-2706D02*
X4806Y-2306D01*
X3771Y-700D02*
X4406Y-1335D01*
X4458Y-2094D02*
X4670Y-2306D01*
X4406Y-2094D02*
Y-700D01*
X5872Y-2094D02*
X6084Y-2306D01*
X6579Y-2094D02*
X6792Y-2306D01*
X6220D02*
X6432Y-2094D01*
X4806Y-2306D02*
X5018Y-2094D01*
X5513Y-2306D02*
X5725Y-2094D01*
X5165D02*
X5377Y-2306D01*
X1804Y-8633D02*
X7829Y-14658D01*
X3934Y-14492D02*
X7891Y-10535D01*
X2332Y-8454D02*
X8536Y-14658D01*
X3901Y-8608D02*
X9950Y-14658D01*
X3196Y-8611D02*
X9243Y-14658D01*
X3648Y-16839D02*
X12863D01*
X4100Y-14658D02*
X11117D01*
X7273Y-10566D02*
X11122Y-14415D01*
X4396Y-8396D02*
X10658Y-14658D01*
X7304D02*
X16232Y-5729D01*
X6597Y-14658D02*
X16232Y-5022D01*
X3791Y-13928D02*
X7170Y-10548D01*
X6319Y-8900D02*
X7500D01*
X5236Y-4994D02*
X7462Y-7219D01*
X2940Y-10536D02*
X8482Y-4994D01*
X4891Y-7877D02*
X7775Y-4994D01*
X5943D02*
X8494Y-7544D01*
X7500Y-8900D02*
X8681D01*
X6821Y-7362D02*
X9189Y-4994D01*
X5101D02*
X9294D01*
X6650D02*
X13389Y-11732D01*
X7358Y-4994D02*
X13898Y-11534D01*
X10132Y-14658D02*
X11228Y-13562D01*
X10839Y-14658D02*
X11127Y-14369D01*
X8425Y-10304D02*
X11114Y-12993D01*
X9425Y-14658D02*
X11114Y-12968D01*
X8798Y-9969D02*
X11235Y-12406D01*
X7937Y-10523D02*
X11287Y-13872D01*
X8011Y-14658D02*
X16232Y-6436D01*
X8718Y-14658D02*
X16232Y-7143D01*
X9061Y-9525D02*
X11514Y-11979D01*
X9181Y-8938D02*
X11916Y-11674D01*
X13976Y-11521D02*
X14277Y-11220D01*
X7500Y-10081D02*
Y-8900D01*
X8856Y-7906D02*
X12464Y-11514D01*
X7500Y-8900D02*
Y-7719D01*
X12574Y-11508D02*
X16232Y-7850D01*
X13168Y-11621D02*
X16232Y-8557D01*
X8065Y-4994D02*
X14279Y-11208D01*
X8772Y-4994D02*
X14459Y-10681D01*
X9294Y-4809D02*
X14779Y-10293D01*
X8640Y-7664D02*
X12606Y-3698D01*
X8954Y-8057D02*
X12606Y-4405D01*
X7663Y-7227D02*
X11411Y-3480D01*
X8218Y-7380D02*
X12606Y-2991D01*
X9294Y-4182D02*
X10126Y-3349D01*
X4475Y-14658D02*
X14339Y-4794D01*
X9135Y-9290D02*
X13632Y-4794D01*
X9148Y-8570D02*
X12925Y-4794D01*
X5182Y-14658D02*
X15046Y-4794D01*
X5889Y-14658D02*
X15753Y-4794D01*
X9294Y-4101D02*
X15222Y-10029D01*
X7993Y-2094D02*
X8206Y-2306D01*
X8700Y-2094D02*
X8913Y-2306D01*
X8341D02*
X8554Y-2094D01*
X6927Y-2306D02*
X7140Y-2094D01*
X7634Y-2306D02*
X7847Y-2094D01*
X7286D02*
X7499Y-2306D01*
X4406D02*
X9294D01*
Y-3475D02*
X9723Y-3046D01*
X8913Y-2306D02*
X9294Y-2687D01*
X4406Y-2094D02*
X9259D01*
X9294Y-4889D02*
X10654Y-3529D01*
X11478Y-3458D02*
X12606Y-4586D01*
X9294Y-3394D02*
X15835Y-9936D01*
X9294Y-4994D02*
Y-2306D01*
X12606Y-4794D02*
Y-1870D01*
Y-4794D02*
X15994D01*
X12814D02*
X16232Y-8212D01*
X14229Y-4794D02*
X16232Y-6797D01*
X9294Y-2687D02*
X16232Y-9626D01*
X10864Y-3550D02*
X16232Y-8919D01*
X13522Y-4794D02*
X16232Y-7504D01*
X9744Y-1870D02*
X10925D01*
Y-3051D02*
Y-1870D01*
X12106D01*
X9294Y-1465D02*
Y-700D01*
X9718D01*
X11939Y-3211D02*
X12606Y-3878D01*
X12289Y-2854D02*
X12606Y-3171D01*
Y-1870D02*
Y-700D01*
X12256D02*
X12606Y-1050D01*
X12132Y-700D02*
X12606D01*
X15450Y-25106D02*
X33343Y-43000D01*
X16157Y-25106D02*
X34050Y-43000D01*
X15024D02*
X35397Y-22627D01*
X17550Y-25086D02*
X35465Y-43000D01*
X16864Y-25106D02*
X34757Y-43000D01*
X18052Y-24880D02*
X36172Y-43000D01*
X18596Y-24010D02*
X37586Y-43000D01*
X18401Y-24522D02*
X36879Y-43000D01*
X15731D02*
X35627Y-23104D01*
X17145Y-43000D02*
X36423Y-23722D01*
X16438Y-43000D02*
X35970Y-23468D01*
X15506Y-20213D02*
X15868Y-20574D01*
X15610Y-20493D02*
X16161Y-19942D01*
X15620Y-19621D02*
X16070Y-20070D01*
X17852Y-43000D02*
X37026Y-23827D01*
X18898Y-23425D02*
Y-22441D01*
X20571Y-25303D02*
X24606D01*
X25517Y-24926D02*
X26107Y-24336D01*
X26421Y-23825D02*
X29569Y-20677D01*
X26593Y-22946D02*
X28960Y-20579D01*
X26130Y-21287D02*
X27922Y-19495D01*
X26657Y-22174D02*
X28503Y-20329D01*
X26461Y-21663D02*
X28156Y-19968D01*
X29400Y-20672D02*
X31111Y-22384D01*
X34154Y-21184D02*
X35342Y-22372D01*
X30034Y-20599D02*
X31150Y-21715D01*
X30505Y-20363D02*
X31368Y-21226D01*
X30865Y-20015D02*
X31702Y-20852D01*
X31113Y-19556D02*
X32144Y-20588D01*
X15550Y-19847D02*
X16232Y-19164D01*
Y-19291D02*
Y-18209D01*
X15638Y-19051D02*
X16232Y-18457D01*
X25197Y-20276D02*
Y-19291D01*
X15604Y-18897D02*
X16265Y-19558D01*
X15586Y-18172D02*
X16232Y-18818D01*
X15645Y-17524D02*
X16236Y-18115D01*
X24470Y-17997D02*
X24876Y-17591D01*
X23923Y-17838D02*
X24380Y-17381D01*
X15449Y-18533D02*
X17462Y-16520D01*
X23387Y-16781D02*
X24558Y-17952D01*
X25674Y-21036D02*
X27852Y-18858D01*
X32600Y-20474D02*
X35455Y-17619D01*
X26557Y-13586D02*
X33737Y-20767D01*
X26681Y-13003D02*
X35385Y-21707D01*
X33249Y-20533D02*
X35902Y-17879D01*
X34093Y-21102D02*
X37309Y-17886D01*
X33728Y-20760D02*
X36474Y-18014D01*
X26504Y-12120D02*
X35605Y-21220D01*
X26672Y-11580D02*
X35939Y-20848D01*
X26709Y-10910D02*
X36384Y-20585D01*
X25197Y-19291D02*
X26181D01*
X25197D02*
Y-18307D01*
X25359Y-17816D02*
X25606Y-17568D01*
X26070Y-17342D02*
X27851Y-19123D01*
X26419Y-16984D02*
X27925Y-18490D01*
X26638Y-16496D02*
X28160Y-18018D01*
X31110Y-18428D02*
X35965Y-13573D01*
X31208Y-18945D02*
X32729Y-20465D01*
X31208Y-19037D02*
X34925Y-15320D01*
X26681Y-19322D02*
X34859Y-11144D01*
X27153Y-10647D02*
X36971Y-20465D01*
X30860Y-17971D02*
X35505Y-13326D01*
X22717Y-25303D02*
X40414Y-43000D01*
X23425Y-25303D02*
X41121Y-43000D01*
X20596Y-25303D02*
X38293Y-43000D01*
X22010Y-25303D02*
X39707Y-43000D01*
X21303Y-25303D02*
X39000Y-43000D01*
X24132Y-25303D02*
X41829Y-43000D01*
X25631D02*
X42700Y-25931D01*
X24821Y-25285D02*
X42535Y-43000D01*
X23509D02*
X42700Y-23809D01*
X24923Y-43000D02*
X42700Y-25223D01*
X24216Y-43000D02*
X42700Y-24516D01*
X25326Y-25083D02*
X42700Y-42458D01*
X27045Y-43000D02*
X42700Y-27345D01*
X26338Y-43000D02*
X42700Y-26638D01*
X25696Y-24746D02*
X42700Y-41750D01*
X26050Y-24393D02*
X42700Y-41043D01*
X26354Y-23990D02*
X42700Y-40336D01*
X29873Y-43000D02*
X42700Y-30173D01*
X31287Y-43000D02*
X42700Y-31587D01*
X30580Y-43000D02*
X42700Y-30880D01*
X27752Y-43000D02*
X42700Y-28052D01*
X29166Y-43000D02*
X42700Y-29466D01*
X28459Y-43000D02*
X42700Y-28759D01*
X40480Y-43000D02*
X42700Y-40780D01*
X41894Y-43000D02*
X42700Y-42194D01*
X34823Y-43000D02*
X42700Y-35123D01*
X39773Y-43000D02*
X42700Y-40073D01*
X35530Y-43000D02*
X42700Y-35830D01*
X36237Y-43000D02*
X42700Y-36537D01*
X37651Y-43000D02*
X42700Y-37951D01*
X36944Y-43000D02*
X42700Y-37244D01*
X32702Y-43000D02*
X42700Y-33002D01*
X34116Y-43000D02*
X42700Y-34416D01*
X33409Y-43000D02*
X42700Y-33709D01*
X33695Y-23553D02*
X42700Y-32558D01*
X36782Y-23811D02*
X42700Y-29730D01*
X37446Y-23769D02*
X42700Y-29022D01*
X34069Y-23220D02*
X42700Y-31851D01*
X37934Y-23549D02*
X42700Y-28315D01*
X38306Y-23214D02*
X42700Y-27608D01*
X38358Y-43000D02*
X42700Y-38658D01*
X41187Y-43000D02*
X42700Y-41487D01*
X39066Y-43000D02*
X42700Y-39366D01*
X31994Y-43000D02*
X42700Y-32294D01*
X32538Y-23810D02*
X42700Y-33972D01*
X33206Y-23771D02*
X42700Y-33265D01*
X26625Y-22847D02*
X42700Y-38922D01*
X26656Y-22171D02*
X42700Y-38215D01*
X19974Y-43000D02*
X42700Y-20274D01*
X25827Y-20635D02*
X42700Y-37508D01*
X26243Y-20344D02*
X42700Y-36801D01*
X21388Y-43000D02*
X42700Y-21688D01*
X22802Y-43000D02*
X42700Y-23102D01*
X22095Y-43000D02*
X42700Y-22395D01*
X18559Y-43000D02*
X42700Y-18859D01*
X20681Y-43000D02*
X42700Y-20981D01*
X19266Y-43000D02*
X42700Y-19567D01*
X26537Y-19930D02*
X42700Y-36094D01*
X34334Y-22777D02*
X42700Y-31144D01*
X34456Y-22193D02*
X42700Y-30437D01*
X25593Y-17572D02*
X42700Y-34679D01*
X27487Y-10274D02*
X38006Y-20793D01*
X26569Y-18726D02*
X39415Y-5881D01*
X26679Y-19366D02*
X42700Y-35386D01*
X34457Y-22153D02*
X42700Y-13910D01*
X34349Y-21553D02*
X42700Y-13203D01*
X25898Y-17983D02*
X42700Y-1182D01*
X26295Y-18293D02*
X42700Y-1889D01*
X25898Y-17983D02*
X42700Y-1182D01*
X38360Y-21147D02*
X42700Y-25487D01*
X38569Y-22770D02*
X42700Y-26901D01*
Y-43000D02*
Y-6585D01*
X35706Y-17785D02*
X42700Y-24780D01*
X36647Y-18019D02*
X42700Y-24073D01*
X38689Y-22183D02*
X42700Y-26194D01*
X38689Y-22163D02*
X42700Y-18152D01*
X37245Y-17910D02*
X42700Y-23366D01*
X37709Y-17668D02*
X42700Y-22658D01*
X38073Y-17324D02*
X42700Y-21951D01*
X38330Y-21108D02*
X42700Y-16738D01*
X38584Y-21561D02*
X42700Y-17445D01*
X38339Y-16883D02*
X42700Y-21244D01*
X37966Y-20765D02*
X42700Y-16031D01*
X38484Y-16321D02*
X42700Y-20537D01*
X36844Y-20472D02*
X42700Y-14617D01*
X37489Y-20535D02*
X42700Y-15324D01*
X38384Y-15514D02*
X42700Y-19830D01*
X37179Y-13602D02*
X42700Y-19123D01*
X37657Y-13373D02*
X42700Y-18416D01*
X38033Y-13041D02*
X42700Y-17709D01*
X15543Y-16714D02*
X16422Y-17594D01*
X16552Y-17437D02*
X17044Y-16945D01*
X15654Y-17621D02*
X17447Y-15828D01*
X16217Y-15975D02*
X17119Y-16877D01*
X23347Y-16999D02*
X23776Y-16570D01*
X15506Y-17062D02*
X17500Y-15067D01*
X16675Y-15726D02*
X17460Y-16510D01*
X17008Y-15351D02*
X17454Y-15797D01*
X17207Y-14843D02*
X17548Y-15184D01*
X22047Y-11417D02*
Y-10433D01*
X23332Y-15311D02*
X23766Y-15746D01*
X23400Y-15531D02*
X24587Y-14345D01*
X22047Y-11417D02*
X23031D01*
X23515Y-14787D02*
X23997Y-15269D01*
X23520Y-17533D02*
X24014Y-17039D01*
X23526Y-14699D02*
X23754Y-14470D01*
X23887Y-14452D02*
X24355Y-14920D01*
X24399Y-14257D02*
X24843Y-14700D01*
X26639Y-15789D02*
X28508Y-17659D01*
X25320Y-14471D02*
X25549Y-14700D01*
X25625Y-14721D02*
X30102Y-10244D01*
X25871Y-14314D02*
X28967Y-17411D01*
X26275Y-14012D02*
X29579Y-17316D01*
X25197Y-13976D02*
Y-12992D01*
X23622Y-13976D02*
Y-12992D01*
Y-12008D01*
X25197Y-12992D02*
X26181D01*
X26681Y-12958D02*
X29509Y-10130D01*
X15551Y-9946D02*
X16232Y-9264D01*
X21786Y-9956D02*
X22070Y-9672D01*
X16232Y-10014D02*
Y-4684D01*
X23630Y-7124D02*
X24266Y-7760D01*
X23630Y-6417D02*
X25159Y-7946D01*
X23630Y-5710D02*
X25647Y-7727D01*
X24139Y-7722D02*
X27325Y-4535D01*
X23870D02*
X28583Y-9249D01*
X24577Y-4535D02*
X28445Y-8403D01*
X24631Y-7937D02*
X28032Y-4535D01*
X14936Y-4794D02*
X16232Y-6090D01*
X15643Y-4794D02*
X16232Y-5383D01*
X15753Y-4794D02*
X15994Y-4553D01*
Y-4445D02*
X16232Y-4684D01*
X23630Y-7579D02*
Y-4535D01*
X15994Y-4794D02*
Y-4445D01*
X23630Y-5402D02*
X24497Y-4535D01*
X23630Y-5003D02*
X26313Y-7685D01*
X23630Y-6109D02*
X25204Y-4535D01*
X23630D02*
X30807D01*
X23630Y-7524D02*
X26618Y-4535D01*
X23630Y-6817D02*
X25911Y-4535D01*
X26083Y-9350D02*
X27264D01*
X26083D02*
Y-8169D01*
X27740Y-9070D02*
X28449Y-8361D01*
X26094Y-14959D02*
X31224Y-9829D01*
X26550Y-12382D02*
X29061Y-9870D01*
X26675Y-11549D02*
X28723Y-9501D01*
X27253Y-8143D02*
X30862Y-4534D01*
X27696Y-9821D02*
X28500Y-9018D01*
X26299Y-7683D02*
X29447Y-4535D01*
X26698D02*
X29273Y-7110D01*
X27406Y-4535D02*
X29785Y-6915D01*
X25284Y-4535D02*
X28597Y-7848D01*
X25502Y-7773D02*
X28740Y-4535D01*
X25991D02*
X28881Y-7425D01*
X26840Y-7849D02*
X30154Y-4535D01*
X28113D02*
X30504Y-6927D01*
X31578Y-4216D02*
X31972Y-3822D01*
X32291Y-3051D02*
Y-2665D01*
X29389Y-17321D02*
X34743Y-11967D01*
X30027Y-17391D02*
X34882Y-12536D01*
X27706Y-9786D02*
X34971Y-17050D01*
X27748Y-9121D02*
X34736Y-16109D01*
X29432Y-10098D02*
X34845Y-15511D01*
X30278Y-10237D02*
X35088Y-15047D01*
X30500Y-17625D02*
X35144Y-12980D01*
X35792Y-14453D02*
X36557Y-13688D01*
X30833Y-10084D02*
X35432Y-14683D01*
X31256Y-9800D02*
X35872Y-14416D01*
X37276Y-14384D02*
X42700Y-8960D01*
X31571Y-9408D02*
X35150Y-12987D01*
X35438Y-13275D02*
X36435Y-14272D01*
X31766Y-8896D02*
X34737Y-11867D01*
X28820Y-4535D02*
X35052Y-10768D01*
X31754Y-8177D02*
X34823Y-11246D01*
X29527Y-4535D02*
X35384Y-10392D01*
X36558Y-13688D02*
X37242Y-14372D01*
X36687Y-14265D02*
X37470Y-13483D01*
X35948Y-10055D02*
X39391Y-6611D01*
X37339Y-10079D02*
X39893Y-7525D01*
X36770Y-9940D02*
X39581Y-7129D01*
X37733Y-14634D02*
X42700Y-9667D01*
X38092Y-14983D02*
X42700Y-10374D01*
X38286Y-12667D02*
X42700Y-8253D01*
X38491Y-11754D02*
X42700Y-7546D01*
X38376Y-11162D02*
X41686Y-7853D01*
X38312Y-12614D02*
X42700Y-17002D01*
X38359Y-16837D02*
X42700Y-12495D01*
X38474Y-12069D02*
X42700Y-16294D01*
X38352Y-15429D02*
X42700Y-11081D01*
X38487Y-16001D02*
X42700Y-11788D01*
X38425Y-11312D02*
X42700Y-15587D01*
X37783Y-10341D02*
X40312Y-7813D01*
X38129Y-10702D02*
X40861Y-7970D01*
X41043Y-7480D02*
Y-6299D01*
X39862D02*
X41043D01*
Y-5118D01*
Y-6299D02*
X42224D01*
X40718Y-7948D02*
X42700Y-9930D01*
X41415Y-7939D02*
X42700Y-9223D01*
X41918Y-7735D02*
X42700Y-8516D01*
X42303Y-7412D02*
X42700Y-7809D01*
X42269Y-5148D02*
X42700Y-4717D01*
X30234Y-4535D02*
X35812Y-10113D01*
X30934Y-4528D02*
X36356Y-9951D01*
X26436Y-15324D02*
X41060Y-700D01*
X31443Y-4331D02*
X37113Y-10001D01*
X31384Y-9669D02*
X40353Y-700D01*
X31807Y-3987D02*
X42700Y-14880D01*
X32137Y-3610D02*
X42700Y-14173D01*
X32291Y-3057D02*
X42700Y-13466D01*
X26624Y-16551D02*
X42474Y-700D01*
X26646Y-15821D02*
X41767Y-700D01*
X32438Y-2497D02*
X42700Y-12759D01*
X27558Y-8545D02*
X35403Y-700D01*
X29916Y-6894D02*
X36110Y-700D01*
X32290Y-3106D02*
X34696Y-700D01*
X31685Y-7954D02*
X38939Y-700D01*
X31799Y-8547D02*
X39646Y-700D01*
X32594D02*
X42700D01*
X30573Y-6945D02*
X36818Y-700D01*
X31425Y-7506D02*
X38232Y-700D01*
X31056Y-7168D02*
X37525Y-700D01*
X35591D02*
X39930Y-5039D01*
X37712Y-700D02*
X41821Y-4809D01*
X33470Y-700D02*
X39394Y-6624D01*
X34177Y-700D02*
X39404Y-5927D01*
X34884Y-700D02*
X39608Y-5424D01*
X32687Y-2038D02*
X42700Y-12052D01*
X32783Y-1427D02*
X42700Y-11345D01*
X41873Y-4837D02*
X42700Y-4010D01*
X32763Y-700D02*
X42700Y-10638D01*
Y-6014D02*
Y-700D01*
X38419D02*
X42700Y-4981D01*
X36298Y-700D02*
X40361Y-4763D01*
X41356Y-4647D02*
X42700Y-3303D01*
X37005Y-700D02*
X40927Y-4622D01*
X32705Y-1984D02*
X33989Y-700D01*
X32764Y-1218D02*
X33282Y-700D01*
X39127D02*
X42700Y-4273D01*
X40625Y-4671D02*
X42700Y-2596D01*
X41248Y-700D02*
X42700Y-2152D01*
X39834Y-700D02*
X42700Y-3566D01*
X40541Y-700D02*
X42700Y-2859D01*
X41955Y-700D02*
X42700Y-1445D01*
D18*
X18898Y-22441D02*
D03*
X17323D02*
D03*
X14173Y-19291D02*
D03*
X12598D02*
D03*
X14173Y-17717D02*
D03*
Y-14567D02*
D03*
X23622Y-12992D02*
D03*
X20472D02*
D03*
X17323D02*
D03*
X22047Y-11417D02*
D03*
X25197Y-22441D02*
D03*
Y-19291D02*
D03*
Y-12992D02*
D03*
D23*
Y-23425D02*
Y-22441D01*
X20472Y-23917D02*
Y-20866D01*
X18898D02*
X20472D01*
X24606Y-24016D02*
X25197Y-23425D01*
X20472Y-23917D02*
X20571Y-24016D01*
X24606D01*
X12598Y-23130D02*
X13287Y-23819D01*
X17323D01*
Y-22441D01*
X10827Y-24902D02*
X12598Y-23130D01*
Y-19291D01*
X22343Y-7579D02*
Y-3445D01*
X18799Y-11122D02*
X22343Y-7579D01*
X18799Y-12992D02*
Y-11122D01*
Y-12992D02*
X20472D01*
X7503Y-17702D02*
X14173Y-17717D01*
X6492Y-18708D02*
X7503Y-17702D01*
X2900Y-18700D02*
X6492Y-18708D01*
D24*
X31201Y-3051D02*
Y-1476D01*
X17323Y-19291D02*
X18898Y-20866D01*
X17323Y-22536D02*
Y-22441D01*
X22245Y-2854D02*
X22343Y-2952D01*
Y-3445D02*
Y-2952D01*
X16437Y-3347D02*
Y-1476D01*
Y-3347D02*
X17323Y-4232D01*
X22343Y-3445D02*
X30807D01*
X31201Y-3051D01*
X17323Y-12992D02*
Y-4232D01*
X14173Y-14665D02*
Y-14567D01*
X17323Y-19291D02*
Y-18209D01*
X17815Y-17717D01*
X19882D01*
X20472Y-17126D01*
Y-12992D01*
X20472Y-12992D01*
X3648Y-15748D02*
X12992D01*
X14075Y-14665D01*
X2700Y-14800D02*
X3648Y-15748D01*
X2700Y-14800D02*
Y-12200D01*
D27*
X3543Y-7087D02*
D03*
D28*
X10827Y-24902D02*
D03*
X31102Y-1476D02*
D03*
X3740Y-35138D02*
D03*
X3642Y-30217D02*
D03*
X22245Y-2854D02*
D03*
X7500Y-8900D02*
D03*
X10925Y-1870D02*
D03*
X16437Y-1476D02*
D03*
X41043Y-6299D02*
D03*
X26083Y-9350D02*
D03*
X2700Y-12200D02*
D03*
X2900Y-18700D02*
D03*
M02*
