G04 Layer_Physical_Order=2*
G04 Layer_Color=36540*
%FSLAX25Y25*%
%MOIN*%
G70*
G01*
G75*
%ADD10C,0.01000*%
%ADD18C,0.01181*%
%ADD23C,0.00787*%
%ADD24C,0.00394*%
%ADD27C,0.01339*%
%ADD28C,0.01575*%
D10*
X5421Y-35138D02*
G03*
X5421Y-35138I-1681J0D01*
G01*
X5323Y-30217D02*
G03*
X5323Y-30217I-1681J0D01*
G01*
X2387Y-20301D02*
G03*
X4581Y-18700I513J1601D01*
G01*
X3125Y-25812D02*
G03*
X4035Y-26189I910J910D01*
G01*
X3125Y-25812D02*
G03*
X4035Y-26189I910J910D01*
G01*
X9746D02*
G03*
X12508Y-24902I1081J1287D01*
G01*
X10663Y-23228D02*
G03*
X9746Y-23614I164J-1673D01*
G01*
X10130Y-22244D02*
G03*
X10449Y-23015I1091J0D01*
G01*
X10130Y-22244D02*
G03*
X10449Y-23015I1091J0D01*
G01*
X15657Y-20866D02*
G03*
X15431Y-20079I-1484J0D01*
G01*
D02*
G03*
X15657Y-19291I-1258J787D01*
G01*
X17416Y-19385D02*
G03*
X15842Y-20960I-94J-1481D01*
G01*
X2052Y-14261D02*
G03*
X1142Y-14638I0J-1287D01*
G01*
X4381Y-12200D02*
G03*
X4381Y-12200I-1681J0D01*
G01*
X500Y-8222D02*
G03*
X2559Y-8301I1075J1135D01*
G01*
X2052Y-14261D02*
G03*
X1142Y-14638I0J-1287D01*
G01*
X4581Y-18700D02*
G03*
X2387Y-17099I-1681J0D01*
G01*
X2559Y-3904D02*
G03*
X500Y-3983I-984J-1214D01*
G01*
X2559Y-8301D02*
G03*
X5106Y-7087I984J1214D01*
G01*
X4406Y-3815D02*
G03*
X2559Y-3904I-863J-1303D01*
G01*
X5106Y-7087D02*
G03*
X4757Y-6102I-1563J0D01*
G01*
D02*
G03*
X5106Y-5118I-1214J984D01*
G01*
X8000Y-16835D02*
G03*
X8910Y-16458I0J1287D01*
G01*
X8000Y-16835D02*
G03*
X8910Y-16458I0J1287D01*
G01*
X15657Y-19291D02*
G03*
X15431Y-18504I-1484J0D01*
G01*
Y-18504D02*
G03*
X15657Y-17717I-1258J787D01*
G01*
D02*
G03*
X15431Y-16929I-1484J0D01*
G01*
X16232Y-16929D02*
G03*
X16552Y-17700I1091J0D01*
G01*
X16232Y-16929D02*
G03*
X16552Y-17700I1091J0D01*
G01*
X15431Y-16929D02*
G03*
X15657Y-16142I-1258J787D01*
G01*
X16857Y-10431D02*
G03*
X15264Y-10014I-1109J-986D01*
G01*
X8063Y-7316D02*
G03*
X8063Y-10484I-563J-1584D01*
G01*
X8353Y-4994D02*
G03*
X8063Y-5807I998J-813D01*
G01*
X8353Y-4994D02*
G03*
X8063Y-5807I998J-813D01*
G01*
X9259Y-2094D02*
G03*
X12606Y-1870I1666J224D01*
G01*
X9294Y-1465D02*
G03*
X9259Y-2094I1632J-405D01*
G01*
X10236Y-3634D02*
G03*
X9326Y-4011I0J-1287D01*
G01*
X10236Y-3634D02*
G03*
X9326Y-4011I0J-1287D01*
G01*
X9718Y-700D02*
G03*
X9294Y-1465I1207J-1170D01*
G01*
X12606Y-1870D02*
G03*
X12132Y-700I-1681J0D01*
G01*
X19685Y-24909D02*
G03*
X20456Y-24590I0J1091D01*
G01*
X19685Y-24909D02*
G03*
X20456Y-24590I0J1091D01*
G01*
X21670Y-24393D02*
G03*
X22441Y-24713I771J771D01*
G01*
X21670Y-24393D02*
G03*
X22441Y-24713I771J771D01*
G01*
X19480Y-21076D02*
G03*
X18804Y-20960I-583J-1365D01*
G01*
X18804Y-20773D02*
G03*
X19486Y-20654I94J1481D01*
G01*
X26681Y-22441D02*
G03*
X25103Y-20960I-1484J0D01*
G01*
Y-20773D02*
G03*
X26681Y-19291I94J1481D01*
G01*
X27854Y-24713D02*
G03*
X28626Y-24393I0J1091D01*
G01*
X27854Y-24713D02*
G03*
X28626Y-24393I0J1091D01*
G01*
X30200Y-22818D02*
G03*
X30520Y-22047I-771J771D01*
G01*
X30200Y-22818D02*
G03*
X30520Y-22047I-771J771D01*
G01*
X34457Y-22146D02*
G03*
X34457Y-22146I-1681J0D01*
G01*
X30520Y-20353D02*
G03*
X31209Y-18996I-992J1357D01*
G01*
X17556Y-18656D02*
G03*
X17416Y-19385I1341J-635D01*
G01*
X26681Y-19291D02*
G03*
X26538Y-18656I-1484J0D01*
G01*
X23445Y-16640D02*
G03*
X23531Y-16142I-1398J499D01*
G01*
X26584Y-15613D02*
G03*
X23794Y-16626I-1387J-529D01*
G01*
X23531Y-16142D02*
G03*
X23305Y-15354I-1484J0D01*
G01*
X27165Y-15445D02*
G03*
X26584Y-15613I0J-1091D01*
G01*
X23305Y-15354D02*
G03*
X23531Y-14567I-1258J787D01*
G01*
X27165Y-15445D02*
G03*
X26584Y-15613I0J-1091D01*
G01*
X28382Y-17766D02*
G03*
X28339Y-20185I1146J-1230D01*
G01*
X31209Y-18996D02*
G03*
X30673Y-17766I-1681J0D01*
G01*
D02*
G03*
X31209Y-16535I-1146J1230D01*
G01*
D02*
G03*
X28248Y-15445I-1681J0D01*
G01*
X38689Y-22146D02*
G03*
X38689Y-22146I-1681J0D01*
G01*
X38492Y-16142D02*
G03*
X38492Y-16142I-1878J0D01*
G01*
X23531Y-11417D02*
G03*
X23475Y-11013I-1484J0D01*
G01*
X19363Y-10431D02*
G03*
X18898Y-10327I-465J-986D01*
G01*
X21260Y-10159D02*
G03*
X19363Y-10431I-787J-1258D01*
G01*
X23529Y-14473D02*
G03*
X24409Y-14250I94J1481D01*
G01*
X23764Y-11031D02*
G03*
X23716Y-11511I1433J-386D01*
G01*
X17323Y-10327D02*
G03*
X16857Y-10431I0J-1091D01*
G01*
X17323Y-10327D02*
G03*
X16857Y-10431I0J-1091D01*
G01*
X19363Y-10431D02*
G03*
X18898Y-10327I-465J-986D01*
G01*
X22145Y-9936D02*
G03*
X21260Y-10159I-97J-1481D01*
G01*
X24409Y-14250D02*
G03*
X26681Y-12992I787J1258D01*
G01*
D02*
G03*
X26455Y-12205I-1484J0D01*
G01*
D02*
G03*
X26681Y-11417I-1258J787D01*
G01*
D02*
G03*
X26605Y-10948I-1484J0D01*
G01*
Y-10948D02*
G03*
X27764Y-9350I-522J1598D01*
G01*
X28508Y-8079D02*
G03*
X31799Y-8563I1610J-484D01*
G01*
D02*
G03*
X31728Y-8079I-1681J0D01*
G01*
X22621D02*
G03*
X22145Y-9936I1099J-1272D01*
G01*
X23204Y-5093D02*
G03*
X23581Y-4183I-910J910D01*
G01*
X23204Y-5093D02*
G03*
X23581Y-4183I-910J910D01*
G01*
Y-3875D02*
G03*
X23884Y-3229I-1336J1020D01*
G01*
D02*
G03*
X26767Y-2272I1214J1162D01*
G01*
X27764Y-9350D02*
G03*
X27182Y-8079I-1681J0D01*
G01*
X26767Y-2272D02*
G03*
X29675Y-2365I1481J795D01*
G01*
X32382Y-4224D02*
G03*
X31611Y-4544I0J-1091D01*
G01*
X32382Y-4224D02*
G03*
X31611Y-4544I0J-1091D01*
G01*
X38492Y-11811D02*
G03*
X38492Y-11811I-1878J0D01*
G01*
X31791Y-8079D02*
G03*
X34055Y-8351I1279J1091D01*
G01*
D02*
G03*
X36720Y-6988I984J1363D01*
G01*
X36130Y-5709D02*
G03*
X35811Y-4938I-1091J0D01*
G01*
X36130Y-5709D02*
G03*
X35811Y-4938I-1091J0D01*
G01*
X36720Y-6988D02*
G03*
X36130Y-5709I-1681J0D01*
G01*
X35417Y-4544D02*
G03*
X34646Y-4224I-771J-771D01*
G01*
X35417Y-4544D02*
G03*
X34646Y-4224I-771J-771D01*
G01*
X29675Y-2365D02*
G03*
X32783Y-1476I1427J888D01*
G01*
D02*
G03*
X32594Y-700I-1681J0D01*
G01*
X42700Y-6014D02*
G03*
X42700Y-6585I-1657J-285D01*
G01*
X500Y-41270D02*
X2230Y-43000D01*
X500Y-42684D02*
X816Y-43000D01*
X500Y-41977D02*
X1523Y-43000D01*
X500Y-39148D02*
X4352Y-43000D01*
X500Y-40562D02*
X2937Y-43000D01*
X500Y-39855D02*
X3645Y-43000D01*
X500Y-37027D02*
X6473Y-43000D01*
X500Y-38441D02*
X5059Y-43000D01*
X500Y-37734D02*
X5766Y-43000D01*
X500Y-34906D02*
X8594Y-43000D01*
X500Y-36320D02*
X7180Y-43000D01*
X500Y-35613D02*
X7887Y-43000D01*
X500Y-36310D02*
X2120Y-34691D01*
X500Y-37725D02*
X2271Y-35954D01*
X500Y-37018D02*
X2085Y-35432D01*
X500Y-32775D02*
X2198Y-31077D01*
X500Y-34199D02*
X2291Y-35989D01*
X500Y-33491D02*
X2061Y-35053D01*
X500Y-39139D02*
X2994Y-36645D01*
X500Y-40553D02*
X4348Y-36705D01*
X500Y-39846D02*
X3539Y-36807D01*
X500Y-31370D02*
X2845Y-33715D01*
X500Y-38432D02*
X2579Y-36353D01*
X500Y-35603D02*
X4373Y-31730D01*
X500Y-32077D02*
X2465Y-34042D01*
X2559Y-35138D02*
X3740D01*
X500Y-32784D02*
X2194Y-34478D01*
X500Y-30663D02*
X3342Y-33505D01*
X500Y-34896D02*
X3504Y-31892D01*
X500Y-34189D02*
X2943Y-31746D01*
X2889Y-36587D02*
X9301Y-43000D01*
X3825Y-36817D02*
X10009Y-43000D01*
X3740Y-35138D02*
X4921D01*
X3740Y-36319D02*
Y-35138D01*
Y-33957D01*
X500Y-31361D02*
X1998Y-29862D01*
X500Y-33482D02*
X2517Y-31466D01*
X500Y-32068D02*
X1998Y-30570D01*
X500Y-27835D02*
X2135Y-29470D01*
X500Y-29249D02*
X2074Y-30822D01*
X500Y-28542D02*
X1973Y-30015D01*
X2461Y-30217D02*
X3642D01*
Y-31398D02*
Y-30217D01*
X4823D01*
X500Y-29956D02*
X4025Y-33481D01*
X3642Y-30217D02*
Y-29035D01*
X500Y-27825D02*
X2819Y-25506D01*
X500Y-27127D02*
X2427Y-29054D01*
X500Y-26420D02*
X2826Y-28747D01*
X500Y-43000D02*
Y-23187D01*
Y-27118D02*
X2466Y-25152D01*
X500Y-26411D02*
X2112Y-24799D01*
X500Y-29239D02*
X3619Y-26120D01*
X500Y-30654D02*
X4965Y-26189D01*
X500Y-29947D02*
X4258Y-26189D01*
X500Y-25006D02*
X4090Y-28596D01*
X500Y-25713D02*
X3348Y-28561D01*
X500Y-28532D02*
X3174Y-25858D01*
X500Y-24290D02*
X1051Y-23738D01*
X500Y-25704D02*
X1759Y-24445D01*
X500Y-24997D02*
X1405Y-24092D01*
X500Y-23187D02*
X3125Y-25812D01*
X2387Y-21433D02*
Y-20301D01*
Y-20988D02*
X2997Y-20378D01*
X2387Y-20529D02*
X5472Y-23614D01*
X2387Y-21433D02*
X4569Y-23614D01*
X2387Y-21237D02*
X4765Y-23614D01*
X2872Y-21918D02*
X7954Y-16835D01*
X2519Y-21564D02*
X7247Y-16835D01*
X3288Y-28573D02*
X5672Y-26189D01*
X4502Y-28773D02*
X7086Y-26189D01*
X3995Y-28573D02*
X6379Y-26189D01*
X3531Y-20258D02*
X6886Y-23614D01*
X4891Y-29091D02*
X7793Y-26189D01*
X5155Y-30948D02*
X9841Y-26263D01*
X5171Y-29518D02*
X8500Y-26189D01*
X4035D02*
X9746D01*
X5317Y-30079D02*
X9207Y-26189D01*
X4307Y-19620D02*
X8301Y-23614D01*
X2946Y-20380D02*
X6179Y-23614D01*
X4569D02*
X9746D01*
X3973Y-19994D02*
X7593Y-23614D01*
X2900Y-19881D02*
Y-18700D01*
X4564Y-18464D02*
X9715Y-23614D01*
X4525Y-19131D02*
X9008Y-23614D01*
X4286Y-23332D02*
X10130Y-17488D01*
X7540Y-23614D02*
X10130Y-21024D01*
X4711Y-23614D02*
X10130Y-18195D01*
X3933Y-22978D02*
X10130Y-16781D01*
X5057Y-16835D02*
X10130Y-21908D01*
X6471Y-16835D02*
X10130Y-20494D01*
X7179Y-16835D02*
X10130Y-19787D01*
X3844Y-31885D02*
X14958Y-43000D01*
X5163Y-36033D02*
X12130Y-43000D01*
X4400Y-36684D02*
X10716Y-43000D01*
X3036Y-31785D02*
X14251Y-43000D01*
X5112Y-31032D02*
X17080Y-43000D01*
X4388Y-31723D02*
X15665Y-43000D01*
X500D02*
X42700D01*
X4511Y-26189D02*
X21322Y-43000D01*
X3778Y-26163D02*
X20615Y-43000D01*
X882D02*
X18972Y-24909D01*
X1589Y-43000D02*
X19679Y-24909D01*
X882Y-43000D02*
X18972Y-24909D01*
X3293Y-33517D02*
X10309Y-26501D01*
X4836Y-36413D02*
X11423Y-43000D01*
X4035Y-33483D02*
X10939Y-26579D01*
X4557Y-33668D02*
X13315Y-24909D01*
X5247Y-34392D02*
X14729Y-24909D01*
X4955Y-33976D02*
X14022Y-24909D01*
X4804Y-31431D02*
X16373Y-43000D01*
X5262Y-29768D02*
X18494Y-43000D01*
X5218Y-26189D02*
X22029Y-43000D01*
X500Y-41967D02*
X17558Y-24909D01*
X500Y-42674D02*
X18265Y-24909D01*
X500Y-41260D02*
X16851Y-24909D01*
X5297Y-30510D02*
X17787Y-43000D01*
X5397Y-34853D02*
X13544Y-43000D01*
X5373Y-35536D02*
X12837Y-43000D01*
X5926Y-26189D02*
X22737Y-43000D01*
X7340Y-26189D02*
X24151Y-43000D01*
X6633Y-26189D02*
X23444Y-43000D01*
X8754Y-26189D02*
X25565Y-43000D01*
X11222Y-26536D02*
X27686Y-43000D01*
X10537Y-26557D02*
X26979Y-43000D01*
X8047Y-26189D02*
X24858Y-43000D01*
X13838Y-24909D02*
X31929Y-43000D01*
X9461Y-26189D02*
X26272Y-43000D01*
X5409Y-34937D02*
X15437Y-24909D01*
X12100Y-25999D02*
X29100Y-43000D01*
X11720Y-26326D02*
X28393Y-43000D01*
X5308Y-35746D02*
X16144Y-24909D01*
X12795D02*
X19685D01*
X12372Y-25564D02*
X29808Y-43000D01*
X13131Y-24909D02*
X31222Y-43000D01*
X12506Y-24991D02*
X30515Y-43000D01*
X14546Y-24909D02*
X32636Y-43000D01*
X15960Y-24909D02*
X34050Y-43000D01*
X15253Y-24909D02*
X33343Y-43000D01*
X3003D02*
X21640Y-24363D01*
X4417Y-43000D02*
X22705Y-24713D01*
X3710Y-43000D02*
X22064Y-24646D01*
X500Y-24299D02*
X19201Y-43000D01*
X2296D02*
X21286Y-24010D01*
X500Y-23592D02*
X19908Y-43000D01*
X7246D02*
X25533Y-24713D01*
X8660Y-43000D02*
X26947Y-24713D01*
X7953Y-43000D02*
X26240Y-24713D01*
X5124Y-43000D02*
X23412Y-24713D01*
X6538Y-43000D02*
X24826Y-24713D01*
X5831Y-43000D02*
X24119Y-24713D01*
X6125Y-23614D02*
X10130Y-19610D01*
X8247Y-23614D02*
X10130Y-21731D01*
X6832Y-23614D02*
X10130Y-20317D01*
X3226Y-22271D02*
X10130Y-15367D01*
X5418Y-23614D02*
X10130Y-18902D01*
X5764Y-16835D02*
X10130Y-21201D01*
X8954Y-23614D02*
X10145Y-22423D01*
X9367Y-43000D02*
X27654Y-24713D01*
X9661Y-23614D02*
X10360Y-22915D01*
X3579Y-22625D02*
X10130Y-16074D01*
X3643Y-16835D02*
X10164Y-23357D01*
X4350Y-16835D02*
X10244Y-22729D01*
X12195Y-43000D02*
X31732Y-23463D01*
X11488Y-43000D02*
X31390Y-23098D01*
X10074Y-43000D02*
X31104Y-21970D01*
X10781Y-43000D02*
X31162Y-22619D01*
X10449Y-23015D02*
X10663Y-23228D01*
X12902Y-43000D02*
X32184Y-23719D01*
X16438Y-43000D02*
X35970Y-23468D01*
X13610Y-43000D02*
X32783Y-23827D01*
X14317Y-43000D02*
X35335Y-21982D01*
X15731Y-43000D02*
X35627Y-23104D01*
X15024Y-43000D02*
X35397Y-22627D01*
X15506Y-20213D02*
X15868Y-20574D01*
X10130Y-22244D02*
Y-15239D01*
X15610Y-20493D02*
X16161Y-19942D01*
X15620Y-19621D02*
X16070Y-20070D01*
X15550Y-19847D02*
X17124Y-18272D01*
X15586Y-18172D02*
X16868Y-19453D01*
X15604Y-18897D02*
X16406Y-19699D01*
X15645Y-17524D02*
X17413Y-19292D01*
X500Y-13683D02*
X1208Y-12975D01*
X500Y-15279D02*
X1142Y-14638D01*
X500Y-14400D02*
X940Y-14839D01*
X500Y-12269D02*
X1108Y-11661D01*
X500Y-12278D02*
X1221Y-12999D01*
X500Y-12976D02*
X1036Y-12440D01*
X500Y-15097D02*
X1912Y-13685D01*
X500Y-13692D02*
X1306Y-14499D01*
X500Y-14390D02*
X1506Y-13384D01*
X500Y-12985D02*
X1800Y-14286D01*
X500Y-10157D02*
X1436Y-11092D01*
X500Y-11571D02*
X1022Y-12093D01*
X500Y-10864D02*
X1161Y-11524D01*
X500Y-8733D02*
X793Y-8440D01*
X500Y-9450D02*
X1819Y-10768D01*
X500Y-9440D02*
X1313Y-8627D01*
X500Y-10147D02*
X2083Y-8565D01*
X500Y-11562D02*
X3417Y-8644D01*
X500Y-8743D02*
X2320Y-10562D01*
X500Y-10854D02*
X2861Y-8493D01*
X1008Y-8543D02*
X3013Y-10548D01*
X2900Y-18700D02*
Y-17519D01*
X3439Y-17108D02*
X3712Y-16835D01*
X2044Y-14261D02*
X2443Y-13861D01*
X3376Y-13739D02*
X3897Y-14261D01*
X2751D02*
X3209Y-13802D01*
X2900Y-18700D02*
X4081D01*
X3903Y-17351D02*
X4419Y-16835D01*
X4256Y-17706D02*
X5126Y-16835D01*
X4578Y-18797D02*
X6540Y-16835D01*
X4496Y-18172D02*
X5833Y-16835D01*
X1901Y-13679D02*
X2482Y-14261D01*
X3808Y-13465D02*
X4604Y-14261D01*
X2807Y-13878D02*
X3190Y-14261D01*
X2161Y-10608D02*
X4334Y-8435D01*
X4132Y-13081D02*
X5311Y-14261D01*
X3884Y-11006D02*
X5827Y-9063D01*
X3458Y-14261D02*
X7170Y-10548D01*
X4352Y-11887D02*
X6725Y-14261D01*
X4338Y-12580D02*
X6018Y-14261D01*
X4185Y-11412D02*
X5980Y-9618D01*
X4302Y-12709D02*
X6657Y-10354D01*
X4361Y-11943D02*
X6264Y-10040D01*
X500Y-3086D02*
X1058Y-3643D01*
X500Y-15279D02*
Y-8222D01*
Y-3783D02*
X3583Y-700D01*
X500Y-3983D02*
Y-700D01*
Y-1671D02*
X2658Y-3830D01*
X3475Y-10708D02*
X5962Y-8221D01*
X3543Y-7087D02*
X4606D01*
X2064Y-3634D02*
X4406Y-1291D01*
X2527Y-3878D02*
X4406Y-1998D01*
X500Y-1662D02*
X1462Y-700D01*
X500Y-965D02*
X3143Y-3607D01*
X500Y-2379D02*
X1680Y-3559D01*
X500Y-2369D02*
X2169Y-700D01*
X500Y-3076D02*
X2876Y-700D01*
X500Y-955D02*
X755Y-700D01*
X500D02*
X4406D01*
X1650D02*
X4406Y-3457D01*
X2357Y-700D02*
X4406Y-2750D01*
X943Y-700D02*
X3823Y-3580D01*
X1429Y-3562D02*
X4291Y-700D01*
X3064D02*
X4406Y-2042D01*
X3543Y-8150D02*
Y-7087D01*
X4767Y-8059D02*
X5834Y-9127D01*
X4406Y-3815D02*
Y-2306D01*
X5021Y-5626D02*
X5654Y-4994D01*
X4832Y-6003D02*
X6431Y-7603D01*
X5018Y-7604D02*
X5877Y-8462D01*
X5103Y-6981D02*
X6096Y-7975D01*
X4950Y-6405D02*
X6361Y-4994D01*
X5054Y-5519D02*
X6875Y-7339D01*
X5101Y-6961D02*
X7068Y-4994D01*
X3557Y-3555D02*
X4406Y-2706D01*
X4144Y-3675D02*
X4406Y-3413D01*
Y-2706D02*
X4806Y-2306D01*
X3771Y-700D02*
X4406Y-1335D01*
X4458Y-2094D02*
X4670Y-2306D01*
X4406Y-2094D02*
Y-700D01*
X6220Y-2306D02*
X6432Y-2094D01*
X6927Y-2306D02*
X7140Y-2094D01*
X6579D02*
X6792Y-2306D01*
X5165Y-2094D02*
X5377Y-2306D01*
X4806D02*
X5018Y-2094D01*
X5872D02*
X6084Y-2306D01*
X5513D02*
X5725Y-2094D01*
X2052Y-14261D02*
X7467D01*
X2585Y-16835D02*
X8000D01*
X4165Y-14261D02*
X7891Y-10535D01*
X5579Y-14261D02*
X8063Y-11777D01*
X4872Y-14261D02*
X8063Y-11070D01*
X7886Y-16835D02*
X10130Y-19080D01*
X8494Y-16737D02*
X10130Y-18372D01*
X8910Y-16458D02*
X10130Y-15239D01*
X8917Y-16452D02*
X10130Y-17665D01*
X9270Y-16098D02*
X10130Y-16958D01*
X6286Y-14261D02*
X8063Y-12484D01*
X7467Y-14261D02*
X8063Y-13664D01*
X7500Y-10081D02*
Y-8900D01*
X1804Y-8633D02*
X7432Y-14261D01*
X2332Y-8454D02*
X7803Y-13924D01*
X6319Y-8900D02*
X7500D01*
X6993Y-14261D02*
X8063Y-13191D01*
Y-13664D02*
Y-10484D01*
X7273Y-10566D02*
X8063Y-11356D01*
X3196Y-8611D02*
X8063Y-13477D01*
X3901Y-8608D02*
X8063Y-12770D01*
X4396Y-8396D02*
X8063Y-12063D01*
X14173Y-19291D02*
X15157D01*
X14173Y-17717D02*
X15157D01*
X15654Y-17621D02*
X16238Y-17037D01*
X15449Y-18533D02*
X16429Y-17553D01*
X15638Y-19051D02*
X16770Y-17919D01*
X16552Y-17700D02*
X17339Y-18488D01*
X15543Y-16714D02*
X17534Y-18705D01*
X15506Y-17062D02*
X16152Y-16415D01*
X15788Y-16051D02*
X16232Y-16495D01*
X9624Y-15745D02*
X10130Y-16251D01*
X15264Y-10014D02*
Y-9310D01*
Y-9364D02*
X15835Y-9936D01*
X16232Y-16929D02*
Y-16495D01*
X15590Y-8984D02*
X16986Y-10380D01*
X15944Y-8630D02*
X17640Y-10327D01*
X15551Y-9946D02*
X17418Y-8079D01*
X16297Y-8276D02*
X18348Y-10327D01*
X16200Y-10004D02*
X18125Y-8079D01*
X7500Y-8900D02*
Y-7719D01*
X6821Y-7362D02*
X8063Y-6120D01*
X4891Y-7877D02*
X7775Y-4994D01*
X8063Y-7316D02*
Y-5807D01*
X5236Y-4994D02*
X7462Y-7219D01*
X2940Y-10536D02*
X8161Y-5315D01*
X7663Y-7227D02*
X8063Y-6827D01*
X5943Y-4994D02*
X8063Y-7113D01*
X6650Y-4994D02*
X8063Y-6406D01*
X5101Y-4994D02*
X8353D01*
X7358D02*
X8067Y-5703D01*
X7286Y-2094D02*
X7499Y-2306D01*
X7634D02*
X7847Y-2094D01*
X8341Y-2306D02*
X8554Y-2094D01*
X7993D02*
X8206Y-2306D01*
X4406D02*
X9294D01*
X8913D02*
X9294Y-2687D01*
X4406Y-2094D02*
X9259D01*
X8700D02*
X8913Y-2306D01*
X9294Y-3394D02*
X9666Y-3767D01*
X9294Y-4043D02*
Y-2306D01*
X9744Y-3731D02*
X10126Y-3349D01*
X9294Y-2687D02*
X10240Y-3634D01*
X15264Y-9310D02*
X16495Y-8079D01*
X15264Y-9526D02*
X16711Y-8079D01*
X16495D02*
X22621D01*
X10236Y-3634D02*
X12606D01*
Y-1870D01*
X11939Y-3211D02*
X12362Y-3634D01*
X9294Y-3475D02*
X9723Y-3046D01*
X10925Y-3051D02*
Y-1870D01*
X9744D02*
X10925D01*
X9294Y-700D02*
X9718D01*
X9294Y-1465D02*
Y-700D01*
X10925Y-1870D02*
X12106D01*
X11963Y-3634D02*
X12606Y-2991D01*
X12289Y-2854D02*
X12606Y-3171D01*
X12132Y-700D02*
X12606D01*
Y-1870D02*
Y-700D01*
X12256D02*
X12606Y-1050D01*
X22441Y-24713D02*
X27854D01*
X20456Y-24590D02*
X21170Y-23876D01*
X16667Y-24909D02*
X34757Y-43000D01*
X18081Y-24909D02*
X36172Y-43000D01*
X17374Y-24909D02*
X35465Y-43000D01*
X17145D02*
X36423Y-23722D01*
X18788Y-24909D02*
X36879Y-43000D01*
X17852D02*
X37026Y-23827D01*
X21276Y-24000D02*
X21670Y-24393D01*
X18898Y-22441D02*
Y-21457D01*
X19480Y-21076D02*
Y-20768D01*
X25197Y-20276D02*
Y-19291D01*
X25827Y-20635D02*
X27563Y-22371D01*
X26243Y-20344D02*
X27917Y-22017D01*
X26130Y-21287D02*
X27922Y-19495D01*
X25197Y-19291D02*
X26181D01*
X26678Y-22532D02*
X27403D01*
X26656Y-22171D02*
X27017Y-22532D01*
X27403D02*
X28339Y-21596D01*
X27007Y-22532D02*
X28339Y-21200D01*
X28626Y-24393D02*
X30200Y-22818D01*
X30520Y-21792D02*
X31111Y-22384D01*
X34154Y-21184D02*
X35342Y-22372D01*
X26657Y-22174D02*
X28339Y-20493D01*
X30520Y-22047D02*
Y-20353D01*
X28339Y-21596D02*
Y-20185D01*
X26461Y-21663D02*
X28156Y-19968D01*
X26537Y-19930D02*
X28270Y-21664D01*
X26679Y-19366D02*
X28339Y-21025D01*
X30520Y-21085D02*
X31150Y-21715D01*
X30520Y-20378D02*
X31368Y-21226D01*
X30865Y-20015D02*
X31702Y-20852D01*
X31113Y-19556D02*
X32144Y-20588D01*
X31208Y-18945D02*
X32729Y-20465D01*
X26569Y-18726D02*
X27670Y-17626D01*
X26755Y-18488D02*
X27617Y-17626D01*
X25674Y-21036D02*
X27852Y-18858D01*
X26985Y-18258D02*
X27851Y-19123D01*
X27339Y-17904D02*
X27925Y-18490D01*
X26709Y-10910D02*
X36384Y-20585D01*
X27153Y-10647D02*
X36971Y-20465D01*
X27617Y-17626D02*
X28248D01*
X23332Y-15311D02*
X23766Y-15746D01*
X23400Y-15531D02*
X24587Y-14345D01*
X25871Y-14314D02*
X27012Y-15456D01*
X26275Y-14012D02*
X27708Y-15445D01*
X27165D02*
X28248D01*
X26436Y-15324D02*
X33091Y-8669D01*
X27012Y-15456D02*
X34091Y-8376D01*
X26557Y-13586D02*
X28328Y-15358D01*
X30520Y-21847D02*
X35106Y-17261D01*
X30705Y-17735D02*
X33737Y-20767D01*
X30520Y-21140D02*
X34857Y-16803D01*
X30520Y-20433D02*
X34738Y-16215D01*
X31208Y-19037D02*
X34925Y-15320D01*
X32600Y-20474D02*
X35455Y-17619D01*
X33728Y-20760D02*
X36474Y-18014D01*
X33249Y-20533D02*
X35902Y-17879D01*
X31009Y-17331D02*
X35385Y-21707D01*
X31187Y-16803D02*
X35605Y-21220D01*
X31135Y-16043D02*
X35939Y-20848D01*
X27768Y-17626D02*
X28160Y-18018D01*
X27730Y-15445D02*
X34572Y-8603D01*
X27748Y-9121D02*
X34736Y-16109D01*
X30860Y-17971D02*
X35505Y-13326D01*
X31110Y-18428D02*
X35965Y-13573D01*
X31150Y-16974D02*
X35144Y-12980D01*
X27706Y-9786D02*
X34971Y-17050D01*
X29432Y-10098D02*
X34845Y-15511D01*
X31182Y-16236D02*
X34882Y-12536D01*
X30995Y-15715D02*
X34743Y-11967D01*
X19495Y-24909D02*
X37586Y-43000D01*
X22834Y-24713D02*
X41121Y-43000D01*
X20114Y-24821D02*
X38293Y-43000D01*
X20523Y-24523D02*
X39000Y-43000D01*
X22057Y-24643D02*
X40414Y-43000D01*
X20877Y-24170D02*
X39707Y-43000D01*
X24248Y-24713D02*
X42535Y-43000D01*
X25631D02*
X42700Y-25931D01*
X24923Y-43000D02*
X42700Y-25223D01*
X23509Y-43000D02*
X42700Y-23809D01*
X24216Y-43000D02*
X42700Y-24516D01*
X23541Y-24713D02*
X41829Y-43000D01*
X26369Y-24713D02*
X42700Y-41043D01*
X27076Y-24713D02*
X42700Y-40336D01*
X27784Y-24713D02*
X42700Y-39629D01*
X28364Y-24586D02*
X42700Y-38922D01*
X28752Y-24267D02*
X42700Y-38215D01*
X29105Y-23913D02*
X42700Y-37508D01*
X27045Y-43000D02*
X42700Y-27345D01*
X28459Y-43000D02*
X42700Y-28759D01*
X27752Y-43000D02*
X42700Y-28052D01*
X24955Y-24713D02*
X42700Y-42458D01*
X26338Y-43000D02*
X42700Y-26638D01*
X25662Y-24713D02*
X42700Y-41750D01*
X31994Y-43000D02*
X42700Y-32294D01*
X40480Y-43000D02*
X42700Y-40780D01*
X36237Y-43000D02*
X42700Y-36537D01*
X29166Y-43000D02*
X42700Y-29466D01*
X31287Y-43000D02*
X42700Y-31587D01*
X30580Y-43000D02*
X42700Y-30880D01*
X34116Y-43000D02*
X42700Y-34416D01*
X35530Y-43000D02*
X42700Y-35830D01*
X34823Y-43000D02*
X42700Y-35123D01*
X29873Y-43000D02*
X42700Y-30173D01*
X33409Y-43000D02*
X42700Y-33709D01*
X32702Y-43000D02*
X42700Y-33002D01*
X32538Y-23810D02*
X42700Y-33972D01*
X37651Y-43000D02*
X42700Y-37951D01*
X36782Y-23811D02*
X42700Y-29730D01*
X29459Y-23560D02*
X42700Y-36801D01*
X33206Y-23771D02*
X42700Y-33265D01*
X37446Y-23769D02*
X42700Y-29022D01*
X39773Y-43000D02*
X42700Y-40073D01*
X41894Y-43000D02*
X42700Y-42194D01*
X41187Y-43000D02*
X42700Y-41487D01*
X36944Y-43000D02*
X42700Y-37244D01*
X39066Y-43000D02*
X42700Y-39366D01*
X38358Y-43000D02*
X42700Y-38658D01*
X29813Y-23206D02*
X42700Y-36094D01*
X33695Y-23553D02*
X42700Y-32558D01*
X34069Y-23220D02*
X42700Y-31851D01*
X19974Y-43000D02*
X42700Y-20274D01*
X30166Y-22852D02*
X42700Y-35386D01*
X30450Y-22430D02*
X42700Y-34679D01*
X21388Y-43000D02*
X42700Y-21688D01*
X22802Y-43000D02*
X42700Y-23102D01*
X22095Y-43000D02*
X42700Y-22395D01*
X18559Y-43000D02*
X42700Y-18859D01*
X20681Y-43000D02*
X42700Y-20981D01*
X19266Y-43000D02*
X42700Y-19567D01*
X34093Y-21102D02*
X37309Y-17886D01*
X36647Y-18019D02*
X42700Y-24073D01*
X27487Y-10274D02*
X38006Y-20793D01*
X35706Y-17785D02*
X42700Y-24780D01*
X34334Y-22777D02*
X42700Y-31144D01*
X34456Y-22193D02*
X42700Y-30437D01*
X36844Y-20472D02*
X42700Y-14617D01*
X34349Y-21553D02*
X42700Y-13203D01*
X34457Y-22153D02*
X42700Y-13910D01*
X37179Y-13602D02*
X42700Y-19123D01*
X37245Y-17910D02*
X42700Y-23366D01*
X37709Y-17668D02*
X42700Y-22658D01*
X38689Y-22163D02*
X42700Y-18152D01*
X38073Y-17324D02*
X42700Y-21951D01*
X38584Y-21561D02*
X42700Y-17445D01*
X38339Y-16883D02*
X42700Y-21244D01*
X37934Y-23549D02*
X42700Y-28315D01*
X38306Y-23214D02*
X42700Y-27608D01*
X38569Y-22770D02*
X42700Y-26901D01*
X38360Y-21147D02*
X42700Y-25487D01*
Y-43000D02*
Y-6585D01*
X38689Y-22183D02*
X42700Y-26194D01*
X38312Y-12614D02*
X42700Y-17002D01*
X38359Y-16837D02*
X42700Y-12495D01*
X38474Y-12069D02*
X42700Y-16294D01*
X38352Y-15429D02*
X42700Y-11081D01*
X38487Y-16001D02*
X42700Y-11788D01*
X38425Y-11312D02*
X42700Y-15587D01*
X37966Y-20765D02*
X42700Y-16031D01*
X38330Y-21108D02*
X42700Y-16738D01*
X38484Y-16321D02*
X42700Y-20537D01*
X37489Y-20535D02*
X42700Y-15324D01*
X37657Y-13373D02*
X42700Y-18416D01*
X38384Y-15514D02*
X42700Y-19830D01*
X38033Y-13041D02*
X42700Y-17709D01*
X22047Y-11417D02*
X23031D01*
X23622Y-12992D02*
Y-12008D01*
X22047Y-11417D02*
Y-10433D01*
X23515Y-14787D02*
X23997Y-15269D01*
X23887Y-14452D02*
X24355Y-14920D01*
X23526Y-14699D02*
X23754Y-14470D01*
X23622Y-13976D02*
Y-12992D01*
X17323Y-10327D02*
X18898D01*
X16663Y-10248D02*
X18832Y-8079D01*
X16807D02*
X19068Y-10340D01*
X17514Y-8079D02*
X19630Y-10195D01*
X21087Y-10066D02*
X22059Y-9095D01*
X17291Y-10327D02*
X19539Y-8079D01*
X20513Y-9934D02*
X22368Y-8079D01*
X21756D02*
X22237Y-8559D01*
X24399Y-14257D02*
X24843Y-14700D01*
X25320Y-14471D02*
X25549Y-14700D01*
X25197Y-13976D02*
Y-12992D01*
X26181D01*
X26504Y-12120D02*
X29260Y-14876D01*
X26681Y-13003D02*
X28732Y-15054D01*
X26672Y-11580D02*
X30020Y-14928D01*
X25625Y-14721D02*
X30102Y-10244D01*
X26094Y-14959D02*
X31224Y-9829D01*
X26681Y-12958D02*
X29509Y-10130D01*
X26083Y-9350D02*
X27264D01*
X27696Y-9821D02*
X28500Y-9018D01*
X27740Y-9070D02*
X28449Y-8361D01*
X26550Y-12382D02*
X29061Y-9870D01*
X26675Y-11549D02*
X28723Y-9501D01*
X31384Y-9669D02*
X32488Y-8565D01*
X31799Y-8547D02*
X32034Y-8312D01*
X18706Y-10327D02*
X20954Y-8079D01*
X19325Y-10414D02*
X21661Y-8079D01*
X19635D02*
X21569Y-10012D01*
X17998Y-10327D02*
X20246Y-8079D01*
X18221D02*
X20118Y-9976D01*
X18928Y-8079D02*
X20825Y-9975D01*
X20342Y-8079D02*
X22116Y-9853D01*
X21049Y-8079D02*
X22060Y-9089D01*
X23187Y-5110D02*
X31044D01*
X24289Y-3540D02*
X25859Y-5110D01*
X23215D02*
X24641Y-3684D01*
X23425Y-4797D02*
X23738Y-5110D01*
X23581Y-4183D02*
Y-3875D01*
Y-4037D02*
X24158Y-3460D01*
X23580Y-4245D02*
X24445Y-5110D01*
X25201Y-3745D02*
X26566Y-5110D01*
X23922D02*
X25296Y-3736D01*
X23714Y-3672D02*
X25152Y-5110D01*
X24629D02*
X27067Y-2673D01*
X27558Y-8545D02*
X28025Y-8079D01*
X28120D02*
X28445Y-8403D01*
X25336Y-5110D02*
X27477Y-2970D01*
X26043Y-5110D02*
X28013Y-3141D01*
X25771Y-3608D02*
X27273Y-5110D01*
X26750D02*
X28795Y-3066D01*
X27413Y-8079D02*
X28583Y-9249D01*
X27182Y-8079D02*
X28508D01*
X26528Y-2951D02*
X28687Y-5110D01*
X27458D02*
X29908Y-2660D01*
X26735Y-2451D02*
X29395Y-5110D01*
X26204Y-3334D02*
X27980Y-5110D01*
X28872D02*
X30845Y-3138D01*
X28146Y-3154D02*
X30102Y-5110D01*
X28772Y-3074D02*
X30809Y-5110D01*
X28165D02*
X30314Y-2961D01*
X31044Y-5110D02*
X31611Y-4544D01*
X29579Y-5110D02*
X31610Y-3079D01*
X29240Y-2834D02*
X31280Y-4874D01*
X29595Y-2482D02*
X31634Y-4521D01*
X30972Y-3152D02*
X32085Y-4265D01*
X30278Y-10237D02*
X35088Y-15047D01*
X30686Y-15317D02*
X34859Y-11144D01*
X30833Y-10084D02*
X35432Y-14683D01*
X28910Y-14972D02*
X35222Y-8659D01*
X28910Y-14972D02*
X35222Y-8659D01*
X31571Y-9408D02*
X35150Y-12987D01*
X35792Y-14453D02*
X36557Y-13688D01*
X35438Y-13275D02*
X36435Y-14272D01*
X30269Y-15027D02*
X39415Y-5881D01*
X31256Y-9800D02*
X35872Y-14416D01*
X36099Y-5451D02*
X42700Y-12052D01*
X31766Y-8896D02*
X34737Y-11867D01*
X32949Y-8665D02*
X35052Y-10768D01*
X33581Y-8590D02*
X35384Y-10392D01*
X31754Y-8177D02*
X34823Y-11246D01*
X34052Y-8353D02*
X35812Y-10113D01*
X35662Y-8550D02*
X37113Y-10001D01*
X35074Y-8669D02*
X36356Y-9951D01*
X35948Y-10055D02*
X39391Y-6611D01*
X36558Y-13688D02*
X37242Y-14372D01*
X38092Y-14983D02*
X42700Y-10374D01*
X36687Y-14265D02*
X37470Y-13483D01*
X36107Y-8287D02*
X42700Y-14880D01*
X37276Y-14384D02*
X42700Y-8960D01*
X38376Y-11162D02*
X41686Y-7853D01*
X36442Y-7915D02*
X42700Y-14173D01*
X37733Y-14634D02*
X42700Y-9667D01*
X38286Y-12667D02*
X42700Y-8253D01*
X36662Y-7428D02*
X42700Y-13466D01*
X36705Y-6764D02*
X42700Y-12759D01*
X38491Y-11754D02*
X42700Y-7546D01*
X37339Y-10079D02*
X39893Y-7525D01*
X38129Y-10702D02*
X40861Y-7970D01*
X37783Y-10341D02*
X40312Y-7813D01*
X36770Y-9940D02*
X39581Y-7129D01*
X39862Y-6299D02*
X41043D01*
X40718Y-7948D02*
X42700Y-9930D01*
X41415Y-7939D02*
X42700Y-9223D01*
X41918Y-7735D02*
X42700Y-8516D01*
X41043Y-6299D02*
X42224D01*
X41043D02*
Y-5118D01*
X42303Y-7412D02*
X42700Y-7809D01*
X41043Y-7480D02*
Y-6299D01*
X32687Y-2038D02*
X34904Y-4255D01*
X30286Y-5110D02*
X34696Y-700D01*
X30993Y-5110D02*
X35403Y-700D01*
X34706Y-4226D02*
X38232Y-700D01*
X29723Y-14866D02*
X42700Y-1889D01*
X32783Y-1427D02*
X42700Y-11345D01*
X34177Y-700D02*
X39404Y-5927D01*
X32763Y-700D02*
X42700Y-10638D01*
X33470Y-700D02*
X39394Y-6624D01*
X34884Y-700D02*
X39608Y-5424D01*
X32079Y-2845D02*
X33459Y-4224D01*
X31607Y-3080D02*
X32751Y-4224D01*
X32705Y-1984D02*
X33989Y-700D01*
X32764Y-1218D02*
X33282Y-700D01*
X32382Y-4224D02*
X34646D01*
X32586D02*
X36110Y-700D01*
X32438Y-2497D02*
X34166Y-4224D01*
X32594Y-700D02*
X42700D01*
X34000Y-4224D02*
X37525Y-700D01*
X33293Y-4224D02*
X36818Y-700D01*
X35417Y-4544D02*
X35811Y-4938D01*
X35948Y-5105D02*
X40353Y-700D01*
X35591D02*
X39930Y-5039D01*
X36127Y-5633D02*
X41060Y-700D01*
X36654Y-6520D02*
X42474Y-700D01*
X36428Y-6040D02*
X41767Y-700D01*
X36711Y-7171D02*
X42700Y-1182D01*
X42269Y-5148D02*
X42700Y-4717D01*
X36711Y-7171D02*
X42700Y-1182D01*
Y-6014D02*
Y-700D01*
X38419D02*
X42700Y-4981D01*
X37005Y-700D02*
X40927Y-4622D01*
X37712Y-700D02*
X41821Y-4809D01*
X41248Y-700D02*
X42700Y-2152D01*
X35239Y-4400D02*
X38939Y-700D01*
X36298D02*
X40361Y-4763D01*
X35609Y-4736D02*
X39646Y-700D01*
X40625Y-4671D02*
X42700Y-2596D01*
X41873Y-4837D02*
X42700Y-4010D01*
X41356Y-4647D02*
X42700Y-3303D01*
X39127Y-700D02*
X42700Y-4273D01*
X39834Y-700D02*
X42700Y-3566D01*
X40541Y-700D02*
X42700Y-2859D01*
X41955Y-700D02*
X42700Y-1445D01*
D18*
X18898Y-22441D02*
D03*
X15748Y-12992D02*
D03*
X22047Y-20866D02*
D03*
X23622Y-19291D02*
D03*
X14173D02*
D03*
X12598D02*
D03*
X14173Y-17717D02*
D03*
X12598Y-14567D02*
D03*
X23622Y-12992D02*
D03*
X20472D02*
D03*
X22047Y-11417D02*
D03*
X25197Y-19291D02*
D03*
Y-12992D02*
D03*
X20472Y-19291D02*
D03*
X12598Y-12992D02*
D03*
X14173D02*
D03*
X15748Y-14567D02*
D03*
D23*
X22294Y-2903D02*
X22343Y-2854D01*
X12598Y-19291D02*
Y-14567D01*
X4035Y-24902D02*
X10827D01*
X1100Y-21966D02*
X4035Y-24902D01*
X1100Y-21966D02*
Y-16500D01*
X2052Y-15548D01*
X8000D01*
X9350Y-14198D01*
Y-5807D01*
X10236Y-4921D01*
X21555D01*
X22294Y-4183D01*
Y-2903D01*
D24*
X29429Y-18996D02*
Y-18799D01*
Y-22047D02*
Y-18996D01*
X14173Y-12992D02*
Y-8858D01*
Y-13091D02*
Y-12992D01*
X35039Y-6988D02*
Y-5709D01*
Y-7087D02*
Y-6988D01*
X17323Y-19291D02*
X18898Y-20866D01*
X20472Y-19291D01*
X27854Y-23622D02*
X29429Y-22047D01*
X22441Y-23622D02*
X27854D01*
X22047Y-23228D02*
X22441Y-23622D01*
X22047Y-23228D02*
Y-20866D01*
X14173Y-19291D02*
X17323D01*
X23622D02*
Y-19196D01*
X18898Y-22441D02*
Y-20866D01*
X33071Y-6988D02*
X33169D01*
X14173Y-8858D02*
X16043Y-6988D01*
X33071D01*
X12598Y-12992D02*
Y-7579D01*
X13976Y-6201D01*
X31496D01*
X32382Y-5315D01*
X34646D01*
X35039Y-5709D01*
X27165Y-16535D02*
X29528D01*
X25984Y-17717D02*
X27165Y-16535D01*
X23622Y-17717D02*
X25984D01*
X22047Y-19291D02*
X23622Y-17717D01*
X20571Y-20768D02*
X22047Y-19291D01*
X20571Y-22933D02*
Y-20768D01*
X19685Y-23819D02*
X20571Y-22933D01*
X12795Y-23819D02*
X19685D01*
X11220Y-22244D02*
Y-7382D01*
Y-22244D02*
X12795Y-23819D01*
X18799Y-12992D02*
X20472D01*
X18799Y-12992D02*
X18799Y-12992D01*
X18799Y-12992D02*
Y-11516D01*
X18898Y-11417D01*
X17323D02*
X18898D01*
X15748Y-12992D02*
X17323Y-11417D01*
X17323Y-16929D02*
Y-16043D01*
Y-16929D02*
X18110Y-17717D01*
X20472D01*
X22047Y-19291D01*
Y-19291D02*
Y-19291D01*
X15748Y-14567D02*
X15846D01*
X17323Y-16043D01*
D27*
X3543Y-7087D02*
D03*
D28*
X10827Y-24902D02*
D03*
X3740Y-35138D02*
D03*
X3642Y-30217D02*
D03*
X22245Y-2854D02*
D03*
X29528Y-18996D02*
D03*
X7500Y-8900D02*
D03*
X10925Y-1870D02*
D03*
X33071Y-6988D02*
D03*
X41043Y-6299D02*
D03*
X35039Y-6988D02*
D03*
X29528Y-16535D02*
D03*
X26083Y-9350D02*
D03*
X11220Y-7382D02*
D03*
X2900Y-18700D02*
D03*
M02*
