G04 Layer_Color=8421504*
%FSLAX24Y24*%
%MOIN*%
G70*
G01*
G75*
%ADD16R,0.0287X0.0291*%
%ADD17C,0.0197*%
%ADD18C,0.0083*%
%ADD19R,0.0217X0.0217*%
%ADD20R,0.0205X0.0220*%
%ADD21R,0.0217X0.0217*%
%ADD22R,0.0220X0.0205*%
%ADD23R,0.0276X0.0118*%
%ADD24R,0.0394X0.0630*%
%ADD25R,0.0315X0.0315*%
G04:AMPARAMS|DCode=26|XSize=47.2mil|YSize=43.3mil|CornerRadius=0mil|HoleSize=0mil|Usage=FLASHONLY|Rotation=135.000|XOffset=0mil|YOffset=0mil|HoleType=Round|Shape=Rectangle|*
%AMROTATEDRECTD26*
4,1,4,0.0320,-0.0014,0.0014,-0.0320,-0.0320,0.0014,-0.0014,0.0320,0.0320,-0.0014,0.0*
%
%ADD26ROTATEDRECTD26*%

%ADD27R,0.0394X0.0197*%
%ADD28R,0.0283X0.0283*%
%ADD29R,0.0283X0.0283*%
%ADD30R,0.0276X0.0197*%
%ADD31R,0.0291X0.0287*%
%ADD32R,0.0787X0.0787*%
%ADD34R,0.1181X0.1968*%
%ADD35R,0.0256X0.0256*%
%ADD36R,0.0291X0.0591*%
%ADD46C,0.0142*%
D16*
X4795Y7590D02*
D03*
X5200D02*
D03*
X6097Y2670D02*
D03*
X6503D02*
D03*
D17*
X3320Y4300D02*
D03*
X4703Y4003D02*
D03*
X6990Y5510D02*
D03*
Y6580D02*
D03*
D18*
X5132Y5033D02*
D03*
X4975D02*
D03*
X4503D02*
D03*
X4188D02*
D03*
X5132Y5190D02*
D03*
X4975D02*
D03*
X4817D02*
D03*
X4188D02*
D03*
X5290Y5348D02*
D03*
X5132D02*
D03*
X4975D02*
D03*
X4817D02*
D03*
X4660D02*
D03*
X4503D02*
D03*
X4345D02*
D03*
X4188D02*
D03*
X5290Y5505D02*
D03*
X5132D02*
D03*
X4975D02*
D03*
X4817D02*
D03*
X4660D02*
D03*
X4503D02*
D03*
X4345D02*
D03*
X4188D02*
D03*
X5290Y5663D02*
D03*
X5132D02*
D03*
X4975D02*
D03*
X4817D02*
D03*
X4660D02*
D03*
X4503D02*
D03*
X4345D02*
D03*
X4975Y5820D02*
D03*
X4817D02*
D03*
X4660D02*
D03*
X4503D02*
D03*
X4345D02*
D03*
X4188D02*
D03*
X5132Y5977D02*
D03*
X4975D02*
D03*
X4817D02*
D03*
X4660D02*
D03*
X4503D02*
D03*
X4345D02*
D03*
X4188D02*
D03*
X5290Y6135D02*
D03*
X5132D02*
D03*
X4503D02*
D03*
X4345D02*
D03*
X4188D02*
D03*
X5290Y6292D02*
D03*
X5132D02*
D03*
X4975D02*
D03*
X4817D02*
D03*
X4503D02*
D03*
X4345D02*
D03*
X4188D02*
D03*
X4660D02*
D03*
X4975Y6135D02*
D03*
X4817D02*
D03*
X4660D02*
D03*
X5132Y5820D02*
D03*
X4660Y5190D02*
D03*
X4503D02*
D03*
D19*
X4458Y860D02*
D03*
X4143D02*
D03*
X1103Y2390D02*
D03*
X1417D02*
D03*
X1103Y3000D02*
D03*
X1417D02*
D03*
X1420Y3590D02*
D03*
X1105D02*
D03*
D20*
X8750Y6040D02*
D03*
Y5740D02*
D03*
X2480Y940D02*
D03*
Y640D02*
D03*
X3000Y940D02*
D03*
Y640D02*
D03*
X9340Y6040D02*
D03*
Y5740D02*
D03*
X6720Y7590D02*
D03*
Y7889D02*
D03*
X7290Y7590D02*
D03*
Y7889D02*
D03*
X3180Y7580D02*
D03*
Y7281D02*
D03*
X7540Y5130D02*
D03*
Y5430D02*
D03*
X3610Y7580D02*
D03*
Y7281D02*
D03*
D21*
X8770Y6910D02*
D03*
Y7225D02*
D03*
X9380D02*
D03*
Y6910D02*
D03*
X8230Y5963D02*
D03*
Y6277D02*
D03*
D22*
X4800Y8600D02*
D03*
X5099D02*
D03*
X4800Y8180D02*
D03*
X5099D02*
D03*
X1080Y7220D02*
D03*
X780D02*
D03*
X1080Y6790D02*
D03*
X780D02*
D03*
D23*
X847Y1176D02*
D03*
Y920D02*
D03*
Y664D02*
D03*
X1673Y1176D02*
D03*
Y920D02*
D03*
Y664D02*
D03*
D24*
X1260Y920D02*
D03*
D25*
X785Y5066D02*
D03*
Y5814D02*
D03*
X1415D02*
D03*
Y5066D02*
D03*
D26*
X3754Y3037D02*
D03*
X3280Y3510D02*
D03*
X3670Y3900D02*
D03*
X4143Y3427D02*
D03*
D27*
X6499Y6293D02*
D03*
Y5859D02*
D03*
D28*
X7990Y7984D02*
D03*
Y7590D02*
D03*
X6140Y7984D02*
D03*
Y7590D02*
D03*
X6097Y3201D02*
D03*
Y3595D02*
D03*
D29*
X5197Y9650D02*
D03*
X4803D02*
D03*
X5197Y9140D02*
D03*
X4803D02*
D03*
X6487Y2170D02*
D03*
X6093D02*
D03*
X7627Y6280D02*
D03*
X7233D02*
D03*
X7634Y5860D02*
D03*
X7240D02*
D03*
D30*
X4143Y1540D02*
D03*
X4560D02*
D03*
D31*
X6097Y1248D02*
D03*
Y1654D02*
D03*
D32*
X3074Y11500D02*
D03*
X9500D02*
D03*
X500D02*
D03*
X1787D02*
D03*
X5649D02*
D03*
X6936D02*
D03*
X4361D02*
D03*
X8223D02*
D03*
D34*
X9300Y8920D02*
D03*
X700Y8910D02*
D03*
D35*
X6100Y4537D02*
D03*
Y4143D02*
D03*
X3180Y8434D02*
D03*
Y8040D02*
D03*
D36*
X8240Y1250D02*
D03*
X9581D02*
D03*
D46*
X2588Y7838D02*
D03*
Y7642D02*
D03*
X2392Y7838D02*
D03*
Y7642D02*
D03*
M02*
