G04 Layer_Physical_Order=1*
G04 Layer_Color=255*
%FSLAX25Y25*%
%MOIN*%
G70*
G01*
G75*
%ADD10C,0.00500*%
%ADD11C,0.02000*%
%ADD12C,0.00750*%
%ADD13C,0.01000*%
%ADD14C,0.01500*%
%ADD15C,0.00600*%
%ADD16R,0.02559X0.02559*%
%ADD17R,0.02559X0.02559*%
%ADD18R,0.02835X0.02835*%
%ADD19R,0.11811X0.19685*%
%ADD20R,0.02835X0.02835*%
%ADD21O,0.00787X0.03150*%
%ADD22O,0.03150X0.00787*%
%ADD23R,0.22441X0.22441*%
%ADD24R,0.02913X0.05905*%
%ADD25R,0.02874X0.02913*%
%ADD26R,0.02756X0.01181*%
%ADD27R,0.03937X0.06299*%
%ADD28R,0.03150X0.03150*%
G04:AMPARAMS|DCode=29|XSize=47.24mil|YSize=43.31mil|CornerRadius=0mil|HoleSize=0mil|Usage=FLASHONLY|Rotation=45.000|XOffset=0mil|YOffset=0mil|HoleType=Round|Shape=Rectangle|*
%AMROTATEDRECTD29*
4,1,4,-0.00139,-0.03202,-0.03202,-0.00139,0.00139,0.03202,0.03202,0.00139,-0.00139,-0.03202,0.0*
%
%ADD29ROTATEDRECTD29*%

%ADD30R,0.01968X0.03937*%
%ADD31R,0.02756X0.01968*%
%ADD32R,0.02913X0.02874*%
%ADD33R,0.07874X0.07874*%
%ADD34C,0.01339*%
%ADD35C,0.01968*%
%ADD36C,0.02500*%
%ADD37R,0.01984X0.09600*%
%ADD38C,0.02200*%
G36*
X57600Y29958D02*
X57919Y30022D01*
X58348Y30308D01*
X58848Y30041D01*
Y26497D01*
Y22560D01*
X59234D01*
Y21325D01*
X58835D01*
Y17212D01*
X59234D01*
Y16286D01*
X58814D01*
Y12251D01*
X59234D01*
Y11141D01*
X58808D01*
Y7068D01*
Y3012D01*
X62922D01*
Y3418D01*
X77500D01*
Y1122D01*
X51054D01*
X50867Y1350D01*
Y11832D01*
X50801Y12164D01*
X50613Y12445D01*
X50397Y12725D01*
X50533Y13054D01*
X50798Y13692D01*
X50934Y14729D01*
X50918D01*
Y16599D01*
X50910Y16636D01*
X51079Y18353D01*
X51591Y20041D01*
X52422Y21596D01*
X53224Y22573D01*
X53571Y22929D01*
X54027Y22824D01*
X54097Y22793D01*
X54058Y22600D01*
X55600D01*
Y24142D01*
X55281Y24078D01*
X55009Y23897D01*
X54523Y24111D01*
X54499Y24157D01*
X55054Y25497D01*
X55249Y26980D01*
X55218D01*
Y30206D01*
X55718Y30398D01*
X56281Y30022D01*
X56600Y29958D01*
Y32000D01*
X57600D01*
Y29958D01*
D02*
G37*
G36*
X15266Y24957D02*
X15326Y24945D01*
X15426Y24935D01*
X15745Y24918D01*
X17245Y24900D01*
Y22900D01*
X15246Y22829D01*
Y24971D01*
X15266Y24957D01*
D02*
G37*
G36*
X25812Y10486D02*
X23788D01*
X23791Y10506D01*
X23793Y10566D01*
X23800Y12486D01*
X25800D01*
X25812Y10486D01*
D02*
G37*
G36*
X15271Y36971D02*
X13129D01*
X13143Y36991D01*
X13155Y37051D01*
X13165Y37151D01*
X13182Y37471D01*
X13200Y38971D01*
X15200D01*
X15271Y36971D01*
D02*
G37*
G36*
X49360Y95075D02*
X49291Y95015D01*
X49230Y94915D01*
X49177Y94775D01*
X49133Y94595D01*
X49096Y94375D01*
X49068Y94115D01*
X49063Y94018D01*
X49096Y93525D01*
X49133Y93305D01*
X49177Y93125D01*
X49230Y92985D01*
X49291Y92885D01*
X49360Y92825D01*
X49437Y92805D01*
X46626D01*
X46703Y92825D01*
X46772Y92885D01*
X46833Y92985D01*
X46886Y93125D01*
X46930Y93305D01*
X46967Y93525D01*
X46995Y93785D01*
X47000Y93882D01*
X46967Y94375D01*
X46930Y94595D01*
X46886Y94775D01*
X46833Y94915D01*
X46772Y95015D01*
X46703Y95075D01*
X46626Y95095D01*
X49437D01*
X49360Y95075D01*
D02*
G37*
G36*
X94046Y34387D02*
X94327Y34199D01*
X94658Y34133D01*
X98650D01*
X98878Y33946D01*
Y14500D01*
X77500D01*
Y6681D01*
X62922D01*
Y11141D01*
X62497D01*
Y11851D01*
X64268D01*
Y14268D01*
X64768D01*
Y14769D01*
X67186D01*
Y16686D01*
X67365Y16812D01*
X67365D01*
Y18768D01*
X64928D01*
Y19268D01*
X64428D01*
Y21725D01*
X62497D01*
Y22560D01*
X62883D01*
Y26497D01*
Y30109D01*
X63383Y30355D01*
X63881Y30022D01*
X64200Y29958D01*
Y32000D01*
X64700D01*
Y32500D01*
X66742D01*
X66728Y32571D01*
X66752Y32609D01*
X67171Y32903D01*
X67717Y32677D01*
X68419Y32585D01*
X68500Y32569D01*
X88600D01*
Y32561D01*
X90168Y32716D01*
X91676Y33173D01*
X93066Y33916D01*
X93702Y34438D01*
X94046Y34387D01*
D02*
G37*
%LPC*%
G36*
X56642Y16400D02*
X55100D01*
Y14858D01*
X55419Y14922D01*
X56114Y15386D01*
X56578Y16081D01*
X56642Y16400D01*
D02*
G37*
G36*
X55100Y18942D02*
Y17400D01*
X56642D01*
X56578Y17719D01*
X56114Y18414D01*
X55419Y18878D01*
X55100Y18942D01*
D02*
G37*
G36*
X54100D02*
X53781Y18878D01*
X53086Y18414D01*
X52622Y17719D01*
X52558Y17400D01*
X54100D01*
Y18942D01*
D02*
G37*
G36*
Y16400D02*
X52558D01*
X52622Y16081D01*
X53086Y15386D01*
X53781Y14922D01*
X54100Y14858D01*
Y16400D01*
D02*
G37*
G36*
X57042Y10400D02*
X55500D01*
Y8858D01*
X55819Y8922D01*
X56514Y9386D01*
X56978Y10081D01*
X57042Y10400D01*
D02*
G37*
G36*
X54500D02*
X52958D01*
X53022Y10081D01*
X53486Y9386D01*
X54181Y8922D01*
X54500Y8858D01*
Y10400D01*
D02*
G37*
G36*
X56942Y4300D02*
X55400D01*
Y2758D01*
X55719Y2822D01*
X56414Y3286D01*
X56878Y3981D01*
X56942Y4300D01*
D02*
G37*
G36*
X54400D02*
X52858D01*
X52922Y3981D01*
X53386Y3286D01*
X54081Y2822D01*
X54400Y2758D01*
Y4300D01*
D02*
G37*
G36*
Y6842D02*
X54081Y6778D01*
X53386Y6314D01*
X52922Y5619D01*
X52858Y5300D01*
X54400D01*
Y6842D01*
D02*
G37*
G36*
X55400D02*
Y5300D01*
X56942D01*
X56878Y5619D01*
X56414Y6314D01*
X55719Y6778D01*
X55400Y6842D01*
D02*
G37*
G36*
X55500Y12942D02*
Y11400D01*
X57042D01*
X56978Y11719D01*
X56514Y12414D01*
X55819Y12878D01*
X55500Y12942D01*
D02*
G37*
G36*
X54500D02*
X54181Y12878D01*
X53486Y12414D01*
X53022Y11719D01*
X52958Y11400D01*
X54500D01*
Y12942D01*
D02*
G37*
G36*
X55600Y21600D02*
X54058D01*
X54122Y21281D01*
X54586Y20586D01*
X55281Y20122D01*
X55600Y20058D01*
Y21600D01*
D02*
G37*
G36*
X58142D02*
X56600D01*
Y20058D01*
X56919Y20122D01*
X57614Y20586D01*
X58078Y21281D01*
X58142Y21600D01*
D02*
G37*
G36*
X56600Y24142D02*
Y22600D01*
X58142D01*
X58078Y22919D01*
X57614Y23614D01*
X56919Y24078D01*
X56600Y24142D01*
D02*
G37*
G36*
X93600Y17800D02*
X92058D01*
X92122Y17481D01*
X92586Y16786D01*
X93281Y16322D01*
X93600Y16258D01*
Y17800D01*
D02*
G37*
G36*
X72300Y18600D02*
X70758D01*
X70822Y18281D01*
X71286Y17586D01*
X71981Y17122D01*
X72300Y17058D01*
Y18600D01*
D02*
G37*
G36*
X96142Y17800D02*
X94600D01*
Y16258D01*
X94919Y16322D01*
X95614Y16786D01*
X96078Y17481D01*
X96142Y17800D01*
D02*
G37*
G36*
X78200Y17000D02*
X76658D01*
X76722Y16681D01*
X77186Y15986D01*
X77881Y15522D01*
X78200Y15458D01*
Y17000D01*
D02*
G37*
G36*
X80742D02*
X79200D01*
Y15458D01*
X79519Y15522D01*
X80214Y15986D01*
X80678Y16681D01*
X80742Y17000D01*
D02*
G37*
G36*
X87642Y17600D02*
X86100D01*
Y16058D01*
X86419Y16122D01*
X87114Y16586D01*
X87578Y17281D01*
X87642Y17600D01*
D02*
G37*
G36*
X85100D02*
X83558D01*
X83622Y17281D01*
X84086Y16586D01*
X84781Y16122D01*
X85100Y16058D01*
Y17600D01*
D02*
G37*
G36*
X74842Y18600D02*
X73300D01*
Y17058D01*
X73619Y17122D01*
X74314Y17586D01*
X74778Y18281D01*
X74842Y18600D01*
D02*
G37*
G36*
X93600Y20342D02*
X93281Y20278D01*
X92586Y19814D01*
X92122Y19119D01*
X92058Y18800D01*
X93600D01*
Y20342D01*
D02*
G37*
G36*
X86100Y20142D02*
Y18600D01*
X87642D01*
X87578Y18919D01*
X87114Y19614D01*
X86419Y20078D01*
X86100Y20142D01*
D02*
G37*
G36*
X94600Y20342D02*
Y18800D01*
X96142D01*
X96078Y19119D01*
X95614Y19814D01*
X94919Y20278D01*
X94600Y20342D01*
D02*
G37*
G36*
X73300Y21142D02*
Y19600D01*
X74842D01*
X74778Y19919D01*
X74314Y20614D01*
X73619Y21078D01*
X73300Y21142D01*
D02*
G37*
G36*
X72300D02*
X71981Y21078D01*
X71286Y20614D01*
X70822Y19919D01*
X70758Y19600D01*
X72300D01*
Y21142D01*
D02*
G37*
G36*
X78200Y19542D02*
X77881Y19478D01*
X77186Y19014D01*
X76722Y18319D01*
X76658Y18000D01*
X78200D01*
Y19542D01*
D02*
G37*
G36*
X85100Y20142D02*
X84781Y20078D01*
X84086Y19614D01*
X83622Y18919D01*
X83558Y18600D01*
X85100D01*
Y20142D01*
D02*
G37*
G36*
X79200Y19542D02*
Y18000D01*
X80742D01*
X80678Y18319D01*
X80214Y19014D01*
X79519Y19478D01*
X79200Y19542D01*
D02*
G37*
G36*
X73500Y9100D02*
X71958D01*
X72022Y8781D01*
X72486Y8086D01*
X73181Y7622D01*
X73500Y7558D01*
Y9100D01*
D02*
G37*
G36*
X70042Y9000D02*
X68500D01*
Y7458D01*
X68819Y7522D01*
X69514Y7986D01*
X69978Y8681D01*
X70042Y9000D01*
D02*
G37*
G36*
X76042Y9100D02*
X74500D01*
Y7558D01*
X74819Y7622D01*
X75514Y8086D01*
X75978Y8781D01*
X76042Y9100D01*
D02*
G37*
G36*
X67500Y9000D02*
X65958D01*
X66022Y8681D01*
X66486Y7986D01*
X67181Y7522D01*
X67500Y7458D01*
Y9000D01*
D02*
G37*
G36*
X70200Y13500D02*
X68658D01*
X68722Y13181D01*
X69186Y12486D01*
X69881Y12022D01*
X70200Y11958D01*
Y13500D01*
D02*
G37*
G36*
X72742D02*
X71200D01*
Y11958D01*
X71519Y12022D01*
X72214Y12486D01*
X72678Y13181D01*
X72742Y13500D01*
D02*
G37*
G36*
X71200Y16042D02*
Y14500D01*
X72742D01*
X72678Y14819D01*
X72214Y15514D01*
X71519Y15978D01*
X71200Y16042D01*
D02*
G37*
G36*
X70200D02*
X69881Y15978D01*
X69186Y15514D01*
X68722Y14819D01*
X68658Y14500D01*
X70200D01*
Y16042D01*
D02*
G37*
G36*
X68500Y11542D02*
Y10000D01*
X70042D01*
X69978Y10319D01*
X69514Y11014D01*
X68819Y11478D01*
X68500Y11542D01*
D02*
G37*
G36*
X67186Y13769D02*
X65268D01*
Y11851D01*
X66743D01*
X66745Y11851D01*
X66745Y11851D01*
X66839Y11851D01*
X66944Y11505D01*
D01*
Y11505D01*
X66667Y11135D01*
X66486Y11014D01*
X66022Y10319D01*
X65958Y10000D01*
X67500D01*
Y11721D01*
X67392Y11752D01*
X67392Y11752D01*
X67392Y11752D01*
Y11752D01*
X67186Y11989D01*
X67186Y12207D01*
Y13769D01*
D02*
G37*
G36*
X73500Y11642D02*
X73181Y11578D01*
X72486Y11114D01*
X72022Y10419D01*
X71958Y10100D01*
X73500D01*
Y11642D01*
D02*
G37*
G36*
X74500D02*
Y10100D01*
X76042D01*
X75978Y10419D01*
X75514Y11114D01*
X74819Y11578D01*
X74500Y11642D01*
D02*
G37*
G36*
X79242Y28500D02*
X77700D01*
Y26958D01*
X78019Y27022D01*
X78714Y27486D01*
X79178Y28181D01*
X79242Y28500D01*
D02*
G37*
G36*
X76700D02*
X75158D01*
X75222Y28181D01*
X75686Y27486D01*
X76381Y27022D01*
X76700Y26958D01*
Y28500D01*
D02*
G37*
G36*
X93600Y28600D02*
X92058D01*
X92122Y28281D01*
X92586Y27586D01*
X93281Y27122D01*
X93600Y27058D01*
Y28600D01*
D02*
G37*
G36*
X85200Y28800D02*
X83658D01*
X83722Y28481D01*
X84186Y27786D01*
X84881Y27322D01*
X85200Y27258D01*
Y28800D01*
D02*
G37*
G36*
X96142Y28600D02*
X94600D01*
Y27058D01*
X94919Y27122D01*
X95614Y27586D01*
X96078Y28281D01*
X96142Y28600D01*
D02*
G37*
G36*
X66800Y27542D02*
X66481Y27478D01*
X65786Y27014D01*
X65322Y26319D01*
X65258Y26000D01*
X66800D01*
Y27542D01*
D02*
G37*
G36*
X74200Y26342D02*
Y24800D01*
X75742D01*
X75678Y25119D01*
X75214Y25814D01*
X74519Y26278D01*
X74200Y26342D01*
D02*
G37*
G36*
X67800Y27542D02*
Y26000D01*
X69342D01*
X69278Y26319D01*
X68814Y27014D01*
X68119Y27478D01*
X67800Y27542D01*
D02*
G37*
G36*
X72942Y28500D02*
X71400D01*
Y26958D01*
X71719Y27022D01*
X72414Y27486D01*
X72878Y28181D01*
X72942Y28500D01*
D02*
G37*
G36*
X70400D02*
X68858D01*
X68922Y28181D01*
X69386Y27486D01*
X70081Y27022D01*
X70400Y26958D01*
Y28500D01*
D02*
G37*
G36*
X94600Y31142D02*
Y29600D01*
X96142D01*
X96078Y29919D01*
X95614Y30614D01*
X94919Y31078D01*
X94600Y31142D01*
D02*
G37*
G36*
X93600D02*
X93281Y31078D01*
X92586Y30614D01*
X92122Y29919D01*
X92058Y29600D01*
X93600D01*
Y31142D01*
D02*
G37*
G36*
X85200Y31342D02*
X84881Y31278D01*
X84186Y30814D01*
X83722Y30119D01*
X83658Y29800D01*
X85200D01*
Y31342D01*
D02*
G37*
G36*
X66742Y31500D02*
X65200D01*
Y29958D01*
X65519Y30022D01*
X66214Y30486D01*
X66678Y31181D01*
X66742Y31500D01*
D02*
G37*
G36*
X86200Y31342D02*
Y29800D01*
X87742D01*
X87678Y30119D01*
X87214Y30814D01*
X86519Y31278D01*
X86200Y31342D01*
D02*
G37*
G36*
X70400Y31042D02*
X70081Y30978D01*
X69386Y30514D01*
X68922Y29819D01*
X68858Y29500D01*
X70400D01*
Y31042D01*
D02*
G37*
G36*
X87742Y28800D02*
X86200D01*
Y27258D01*
X86519Y27322D01*
X87214Y27786D01*
X87678Y28481D01*
X87742Y28800D01*
D02*
G37*
G36*
X71400Y31042D02*
Y29500D01*
X72942D01*
X72878Y29819D01*
X72414Y30514D01*
X71719Y30978D01*
X71400Y31042D01*
D02*
G37*
G36*
X77700D02*
Y29500D01*
X79242D01*
X79178Y29819D01*
X78714Y30514D01*
X78019Y30978D01*
X77700Y31042D01*
D02*
G37*
G36*
X76700D02*
X76381Y30978D01*
X75686Y30514D01*
X75222Y29819D01*
X75158Y29500D01*
X76700D01*
Y31042D01*
D02*
G37*
G36*
X73200Y26342D02*
X72881Y26278D01*
X72186Y25814D01*
X71722Y25119D01*
X71658Y24800D01*
X73200D01*
Y26342D01*
D02*
G37*
G36*
X80442Y23100D02*
X78900D01*
Y21558D01*
X79219Y21622D01*
X79914Y22086D01*
X80378Y22781D01*
X80442Y23100D01*
D02*
G37*
G36*
X77900D02*
X76358D01*
X76422Y22781D01*
X76886Y22086D01*
X77581Y21622D01*
X77900Y21558D01*
Y23100D01*
D02*
G37*
G36*
X85200Y23500D02*
X83658D01*
X83722Y23181D01*
X84186Y22486D01*
X84881Y22022D01*
X85200Y21958D01*
Y23500D01*
D02*
G37*
G36*
X73200Y23800D02*
X71658D01*
X71722Y23481D01*
X72186Y22786D01*
X72881Y22322D01*
X73200Y22258D01*
Y23800D01*
D02*
G37*
G36*
X87742Y23500D02*
X86200D01*
Y21958D01*
X86519Y22022D01*
X87214Y22486D01*
X87678Y23181D01*
X87742Y23500D01*
D02*
G37*
G36*
X67365Y21725D02*
X65428D01*
Y19769D01*
X67365D01*
Y21725D01*
D02*
G37*
G36*
X96142Y22700D02*
X94600D01*
Y21158D01*
X94919Y21222D01*
X95614Y21686D01*
X96078Y22381D01*
X96142Y22700D01*
D02*
G37*
G36*
X93600D02*
X92058D01*
X92122Y22381D01*
X92586Y21686D01*
X93281Y21222D01*
X93600Y21158D01*
Y22700D01*
D02*
G37*
G36*
X77900Y25642D02*
X77581Y25578D01*
X76886Y25114D01*
X76422Y24419D01*
X76358Y24100D01*
X77900D01*
Y25642D01*
D02*
G37*
G36*
X94600Y25242D02*
Y23700D01*
X96142D01*
X96078Y24019D01*
X95614Y24714D01*
X94919Y25178D01*
X94600Y25242D01*
D02*
G37*
G36*
X78900Y25642D02*
Y24100D01*
X80442D01*
X80378Y24419D01*
X79914Y25114D01*
X79219Y25578D01*
X78900Y25642D01*
D02*
G37*
G36*
X86200Y26042D02*
Y24500D01*
X87742D01*
X87678Y24819D01*
X87214Y25514D01*
X86519Y25978D01*
X86200Y26042D01*
D02*
G37*
G36*
X85200D02*
X84881Y25978D01*
X84186Y25514D01*
X83722Y24819D01*
X83658Y24500D01*
X85200D01*
Y26042D01*
D02*
G37*
G36*
X75742Y23800D02*
X74200D01*
Y22258D01*
X74519Y22322D01*
X75214Y22786D01*
X75678Y23481D01*
X75742Y23800D01*
D02*
G37*
G36*
X66800Y25000D02*
X65258D01*
X65322Y24681D01*
X65786Y23986D01*
X66481Y23522D01*
X66800Y23458D01*
Y25000D01*
D02*
G37*
G36*
X93600Y25242D02*
X93281Y25178D01*
X92586Y24714D01*
X92122Y24019D01*
X92058Y23700D01*
X93600D01*
Y25242D01*
D02*
G37*
G36*
X69342Y25000D02*
X67800D01*
Y23458D01*
X68119Y23522D01*
X68814Y23986D01*
X69278Y24681D01*
X69342Y25000D01*
D02*
G37*
%LPD*%
D10*
X97350Y103500D02*
G03*
X96150Y105549I-2350J0D01*
G01*
X93850D02*
G03*
X97350Y103500I1150J-2049D01*
G01*
X81150Y105075D02*
G03*
X84250Y103500I1150J-1575D01*
G01*
D02*
G03*
X83450Y105075I-1950J0D01*
G01*
X65550Y102900D02*
G03*
X65550Y102900I-2350J0D01*
G01*
X71450Y103500D02*
G03*
X70650Y105075I-1950J0D01*
G01*
X68350D02*
G03*
X71450Y103500I1150J-1575D01*
G01*
X82050Y90200D02*
G03*
X82050Y90200I-2350J0D01*
G01*
X76550Y98800D02*
G03*
X76550Y98800I-2350J0D01*
G01*
X77750Y86329D02*
G03*
X77750Y86329I-2350J0D01*
G01*
X66450Y94900D02*
G03*
X66450Y94900I-2350J0D01*
G01*
X58450Y103500D02*
G03*
X57650Y105075I-1950J0D01*
G01*
X55350D02*
G03*
X58450Y103500I1150J-1575D01*
G01*
X52450Y102300D02*
G03*
X52450Y102300I-2350J0D01*
G01*
X45550Y103500D02*
G03*
X44750Y105075I-1950J0D01*
G01*
X42450D02*
G03*
X45550Y103500I1150J-1575D01*
G01*
X59050Y86500D02*
G03*
X54651Y87650I-2350J0D01*
G01*
Y85350D02*
G03*
X59050Y86500I2049J1150D01*
G01*
X46850Y78700D02*
G03*
X46657Y79633I-2350J0D01*
G01*
X46798Y78207D02*
G03*
X46850Y78700I-2298J493D01*
G01*
X42197Y89550D02*
G03*
X40608Y88892I0J-2247D01*
G01*
X42197Y93250D02*
G03*
X37992Y91508I0J-5947D01*
G01*
X36886Y91050D02*
G03*
X37989Y91505I0J1564D01*
G01*
X36886Y87350D02*
G03*
X40608Y88892I0J5264D01*
G01*
X43650Y85600D02*
G03*
X43650Y85600I-2350J0D01*
G01*
X45664Y80741D02*
G03*
X43567Y80857I-1164J-2041D01*
G01*
X96850Y72900D02*
G03*
X92000Y77750I-4850J0D01*
G01*
X93150Y72900D02*
G03*
X92000Y74050I-1150J0D01*
G01*
X89100Y64691D02*
G03*
X89450Y65805I-1600J1115D01*
G01*
D02*
G03*
X85900Y64691I-1950J0D01*
G01*
X75939Y64100D02*
G03*
X77450Y66000I-439J1900D01*
G01*
X72948Y67350D02*
G03*
X70545Y66355I0J-3399D01*
G01*
X77450Y66000D02*
G03*
X74093Y67350I-1950J0D01*
G01*
X91231Y47067D02*
G03*
X92850Y49300I-731J2233D01*
G01*
X94658Y35000D02*
G03*
X96850Y40600I-6058J5600D01*
G01*
X93150Y42678D02*
G03*
X90296Y44271I-2250J-678D01*
G01*
X85900Y62450D02*
G03*
X83761Y62600I-1184J-1550D01*
G01*
X81223D02*
G03*
X77426Y61896I0J-10589D01*
G01*
X83000Y55000D02*
G03*
X89100Y61100I0J6100D01*
G01*
X77450Y62200D02*
G03*
X75939Y64100I-1950J0D01*
G01*
X77426Y61896D02*
G03*
X77450Y62200I-1926J304D01*
G01*
X74093Y60850D02*
G03*
X74758Y60397I1407J1350D01*
G01*
X72045Y61545D02*
G03*
X73724Y60850I1679J1679D01*
G01*
X74758Y60397D02*
G03*
X73736Y59499I6466J-8386D01*
G01*
X80382Y54500D02*
G03*
X79300Y54800I-1082J-1800D01*
G01*
X79900Y55000D02*
G03*
X78257Y54800I0J-6850D01*
G01*
X92850Y49300D02*
G03*
X88272Y50047I-2350J0D01*
G01*
X88629Y42604D02*
G03*
X93150Y41322I2271J-604D01*
G01*
X88600Y36050D02*
G03*
X93150Y40600I0J4550D01*
G01*
X80382Y54500D02*
G03*
X79300Y54800I-1082J-1800D01*
G01*
X69998Y66095D02*
G03*
X70545Y66355I-89J896D01*
G01*
X70384Y71900D02*
G03*
X69537Y73664I-2884J-300D01*
G01*
X67216Y71300D02*
G03*
X70100Y68700I2884J300D01*
G01*
X70018Y66316D02*
G03*
X68774Y67559I-1244J0D01*
G01*
X70685Y62016D02*
G03*
X71392Y61816I707J1150D01*
G01*
X70018Y61591D02*
G03*
X69943Y62016I-1244J0D01*
G01*
X72045Y61545D02*
G03*
X71392Y61816I-654J-654D01*
G01*
X69737Y60804D02*
G03*
X70018Y61591I-963J787D01*
G01*
X69944Y59596D02*
G03*
X70018Y60017I-1170J421D01*
G01*
X69944Y57288D02*
G03*
X70418Y58442I-1170J1154D01*
G01*
D02*
G03*
X69944Y59596I-1644J0D01*
G01*
X70018Y60017D02*
G03*
X69737Y60804I-1244J0D01*
G01*
Y56080D02*
G03*
X70018Y56867I-963J787D01*
G01*
D02*
G03*
X69944Y57288I-1244J0D01*
G01*
X69946Y55709D02*
G03*
X69737Y56080I-1172J-416D01*
G01*
X68909Y44205D02*
G03*
X69200Y43318I2091J195D01*
G01*
X42493Y71650D02*
G03*
X42333Y71040I1084J-610D01*
G01*
X38250Y69400D02*
G03*
X36578Y71650I-2350J0D01*
G01*
X38853Y67559D02*
G03*
X37890Y65528I0J-1244D01*
G01*
D02*
G03*
X37684Y64316I963J-787D01*
G01*
X38379Y44693D02*
G03*
X38853Y44600I474J1150D01*
G01*
X37890Y51355D02*
G03*
X37684Y50143I963J-787D01*
G01*
X37890Y59229D02*
G03*
X37890Y57654I963J-787D01*
G01*
X37684Y60441D02*
G03*
X37890Y59229I1169J-425D01*
G01*
Y56080D02*
G03*
X37890Y54505I963J-787D01*
G01*
Y57654D02*
G03*
X37890Y56080I963J-787D01*
G01*
X36213Y64813D02*
G03*
X37413Y64316I1200J1200D01*
G01*
X37890Y52930D02*
G03*
X37890Y51355I963J-787D01*
G01*
Y54505D02*
G03*
X37890Y52930I963J-787D01*
G01*
X37265Y47843D02*
G03*
X37265Y46993I1588J-425D01*
G01*
X69050Y38000D02*
G03*
X65525Y39150I-1950J0D01*
G01*
X65200Y40645D02*
G03*
X65293Y41119I-1150J474D01*
G01*
X68950Y37384D02*
G03*
X69050Y38000I-1850J616D01*
G01*
X49002Y18424D02*
G03*
X48850Y16599I10899J-1825D01*
G01*
X45689Y21296D02*
G03*
X49002Y18424I2211J-796D01*
G01*
X48289Y13372D02*
G03*
X48850Y14729I-1362J1357D01*
G01*
X49910Y11740D02*
G03*
X49246Y10600I1845J-1840D01*
G01*
X49950Y9100D02*
G03*
X49246Y10600I-1950J0D01*
G01*
X46729Y7621D02*
G03*
X49950Y9100I1271J1479D01*
G01*
X48287Y13369D02*
G03*
X46920Y10723I3469J-3469D01*
G01*
X38850Y100700D02*
G03*
X38850Y100700I-2350J0D01*
G01*
X32650Y103500D02*
G03*
X31850Y105075I-1950J0D01*
G01*
X29550D02*
G03*
X32650Y103500I1150J-1575D01*
G01*
X39350Y95100D02*
G03*
X39350Y95100I-2350J0D01*
G01*
X29016Y91050D02*
G03*
X27784Y91050I-616J-1850D01*
G01*
X26350Y100300D02*
G03*
X26350Y100300I-2350J0D01*
G01*
X23066Y83549D02*
G03*
X22566Y82500I850J-1049D01*
G01*
X22550Y84000D02*
G03*
X22550Y84000I-2350J0D01*
G01*
X22566Y79081D02*
G03*
X22535Y77749I1350J-697D01*
G01*
D02*
G03*
X22082Y75850I1380J-1334D01*
G01*
X35222Y71650D02*
G03*
X38250Y69400I678J-2250D01*
G01*
X36213Y64813D02*
G03*
X34193Y65650I-2020J-2020D01*
G01*
X34100Y59991D02*
G03*
X35212Y60441I0J1600D01*
G01*
X30350Y58400D02*
G03*
X29729Y59991I-2350J0D01*
G01*
X23187Y73087D02*
G03*
X26656Y71650I3469J3469D01*
G01*
X23184Y73089D02*
G03*
X22069Y73550I-1116J-1121D01*
G01*
X22831Y63631D02*
G03*
X23894Y63191I1062J1062D01*
G01*
X22831Y63631D02*
G03*
X17596Y65800I-5235J-5235D01*
G01*
X20569Y61369D02*
G03*
X23894Y59991I3325J3325D01*
G01*
X26271D02*
G03*
X30350Y58400I1729J-1591D01*
G01*
X25750Y56300D02*
G03*
X22191Y55198I-1950J0D01*
G01*
X25409D02*
G03*
X25750Y56300I-1609J1102D01*
G01*
X16550Y105075D02*
G03*
X19650Y103500I1150J-1575D01*
G01*
D02*
G03*
X18850Y105075I-1950J0D01*
G01*
X20450Y69500D02*
G03*
X20450Y69500I-2350J0D01*
G01*
X6150Y105090D02*
G03*
X6513Y104213I1240J0D01*
G01*
X3850Y105090D02*
G03*
X4169Y103621I3540J0D01*
G01*
D02*
G03*
X1350Y102549I-769J-2221D01*
G01*
X8150Y100261D02*
G03*
X6513Y104213I-5588J0D01*
G01*
X4100Y75850D02*
G03*
X1350Y73100I0J-2750D01*
G01*
X4100Y73550D02*
G03*
X3650Y73100I0J-450D01*
G01*
X20565Y61372D02*
G03*
X17596Y62600I-2969J-2976D01*
G01*
X15250Y60784D02*
G03*
X15350Y61400I-1850J616D01*
G01*
D02*
G03*
X14937Y62600I-1950J0D01*
G01*
X11863D02*
G03*
X11550Y60784I1537J-1200D01*
G01*
X21850Y58100D02*
G03*
X21850Y58100I-2350J0D01*
G01*
X5104Y64816D02*
G03*
X5104Y63584I1850J-616D01*
G01*
X35700Y37150D02*
G03*
X31850Y33300I0J-3850D01*
G01*
X37750Y34200D02*
G03*
X37750Y34200I-2350J0D01*
G01*
X35700Y40850D02*
G03*
X28150Y33300I0J-7550D01*
G01*
X38350Y23100D02*
G03*
X38350Y23100I-2350J0D01*
G01*
X25850Y37700D02*
G03*
X25541Y38864I-2350J0D01*
G01*
X24133Y39963D02*
G03*
X25850Y37700I-633J-2263D01*
G01*
X27650Y24800D02*
G03*
X23251Y23649I-2350J0D01*
G01*
D02*
G03*
X17777Y25750I-5473J-6081D01*
G01*
X37150Y14600D02*
G03*
X37150Y14600I-2350J0D01*
G01*
X37650Y3900D02*
G03*
X37650Y3900I-2350J0D01*
G01*
X24091Y22785D02*
G03*
X27650Y24800I1209J2015D01*
G01*
X26650Y15900D02*
G03*
X24091Y22785I-10541J0D01*
G01*
X22950Y15900D02*
G03*
X20946Y20737I-6841J0D01*
G01*
X20943Y20741D02*
G03*
X17777Y22050I-3165J-3172D01*
G01*
X22350Y17300D02*
G03*
X17798Y16480I-2350J0D01*
G01*
X18254Y15727D02*
G03*
X22350Y17300I1746J1573D01*
G01*
X19850Y49900D02*
G03*
X16493Y51250I-1950J0D01*
G01*
Y48550D02*
G03*
X19850Y49900I1407J1350D01*
G01*
X16050Y40210D02*
G03*
X14808Y43208I-4240J0D01*
G01*
X12350Y40210D02*
G03*
X12192Y40592I-540J0D01*
G01*
X14808Y43208D02*
G03*
X11810Y44450I-2998J-2998D01*
G01*
X12192Y40592D02*
G03*
X11810Y40750I-382J-382D01*
G01*
X6990Y40652D02*
G03*
X7516Y40750I-90J1948D01*
G01*
Y44450D02*
G03*
X5005Y42141I-616J-1850D01*
G01*
X7150Y39800D02*
G03*
X6990Y40652I-2350J0D01*
G01*
X3650Y37751D02*
G03*
X7150Y39800I1150J2049D01*
G01*
X5005Y42141D02*
G03*
X3650Y41849I-205J-2341D01*
G01*
X7416Y31850D02*
G03*
X4950Y29384I-616J-1850D01*
G01*
X3650Y37266D02*
G03*
X3866Y37050I216J0D01*
G01*
X1350Y37266D02*
G03*
X1753Y35900I2516J0D01*
G01*
D02*
G03*
X1350Y34534I2113J-1366D01*
G01*
X17798Y16480D02*
G03*
X17500Y16816I-2913J-2280D01*
G01*
X18584Y14200D02*
G03*
X18254Y15727I-3700J0D01*
G01*
X15444Y18872D02*
G03*
X13293Y19907I-1744J-872D01*
G01*
X12213Y21337D02*
G03*
X13293Y19907I1487J0D01*
G01*
X10316Y17406D02*
G03*
X12866Y16217I3384J3931D01*
G01*
X19800Y11146D02*
G03*
X18962Y10945I0J-1850D01*
G01*
X19362Y7499D02*
G03*
X19800Y7446I438J1797D01*
G01*
X6616Y17526D02*
G03*
X6092Y18792I-1790J0D01*
G01*
X6616Y16305D02*
G03*
X3650Y16690I-1716J-1605D01*
G01*
X6238Y12768D02*
G03*
X6616Y13095I-1338J1932D01*
G01*
X3650Y12710D02*
G03*
X6238Y12768I1250J1990D01*
G01*
X4950Y21549D02*
G03*
X6092Y18792I3898J0D01*
G01*
X1987Y6287D02*
G03*
X3908Y5491I1921J1921D01*
G01*
X1350Y7824D02*
G03*
X1987Y6287I2174J0D01*
G01*
X5149Y1350D02*
G03*
X5450Y2500I-2049J1150D01*
G01*
D02*
G03*
X1350Y4068I-2350J0D01*
G01*
X19568Y9200D02*
G03*
X19800Y9296I0J328D01*
G01*
X87015Y117140D02*
X89713Y114443D01*
X96150Y108396D02*
X97467Y109713D01*
X89713Y110200D02*
X90200Y109713D01*
X87015Y111990D02*
X89713Y114687D01*
X87015Y115019D02*
X89713Y112321D01*
X87015Y112898D02*
X89713Y110200D01*
X96564Y109713D02*
X98650Y107627D01*
X96150Y109713D02*
X98650D01*
X96150Y106275D02*
X98650Y108775D01*
X96150Y105549D02*
Y109713D01*
X92321D02*
X93850Y108184D01*
X89713Y109713D02*
X93850D01*
X90200D02*
X93850Y106063D01*
X87627Y118650D02*
X89713Y116564D01*
X87015Y118354D02*
X87312Y118650D01*
X89713Y109713D02*
Y118650D01*
X87015Y116232D02*
X89433Y118650D01*
X87015D02*
X89713D01*
X87015Y110113D02*
Y118650D01*
X77442Y110113D02*
Y118650D01*
X87015Y114111D02*
X89713Y116808D01*
X83450Y110113D02*
X87015D01*
X83450Y106303D02*
X89713Y112566D01*
X83450Y108424D02*
X85139Y110113D01*
X77442D02*
X81150D01*
X77021Y118650D02*
X77442Y118229D01*
X79194Y110113D02*
X81150Y108157D01*
X96891Y104895D02*
X98650Y106654D01*
X96150Y108006D02*
X98650Y105506D01*
Y100293D02*
Y109713D01*
X96150Y105884D02*
X98650Y103384D01*
X88046Y100293D02*
X93850Y106096D01*
Y105549D02*
Y109713D01*
X85925Y100293D02*
X93850Y108218D01*
X97333Y103215D02*
X98650Y104532D01*
X97211Y102703D02*
X98650Y101263D01*
X87015Y110776D02*
X93022Y104769D01*
X83893Y104625D02*
X89713Y110445D01*
X85558Y110113D02*
X92714Y102957D01*
X84069Y102679D02*
X91103Y109713D01*
X83450Y105075D02*
Y110113D01*
X81150Y105075D02*
Y110113D01*
X83450Y110099D02*
X93257Y100293D01*
X83450Y105857D02*
X89014Y100293D01*
X84185Y103000D02*
X86893Y100293D01*
X90167D02*
X92738Y102863D01*
X83450Y107978D02*
X91135Y100293D01*
X74899Y118650D02*
X77442Y116108D01*
X74144Y118210D02*
X74584Y118650D01*
X74144Y116089D02*
X76705Y118650D01*
X74144Y110113D02*
Y118650D01*
Y117284D02*
X77442Y113986D01*
X74144Y118650D02*
X77442D01*
X74144Y113968D02*
X77442Y117265D01*
X74144Y111846D02*
X77442Y115144D01*
X74144Y115162D02*
X77442Y111865D01*
X74144Y113041D02*
X81150Y106035D01*
X70650Y106231D02*
X77442Y113022D01*
X70650Y110113D02*
X74144D01*
X70650Y108352D02*
X72411Y110113D01*
X70650Y105075D02*
Y110113D01*
X64293Y118650D02*
X64570Y118372D01*
X61273Y118650D02*
X64570D01*
Y110113D02*
Y118650D01*
X62171D02*
X64570Y116251D01*
X61273Y113824D02*
X64570Y117122D01*
X61273Y117427D02*
X64570Y114130D01*
X61273Y115306D02*
X64570Y112009D01*
X66466Y110113D02*
X68350Y108229D01*
X64570Y110113D02*
X68350D01*
Y105075D02*
Y110113D01*
X63303Y105248D02*
X68168Y110113D01*
X61273Y113185D02*
X68350Y106107D01*
X61273Y111703D02*
X64570Y115000D01*
X57650Y105959D02*
X64570Y112879D01*
X74144Y110920D02*
X80603Y104461D01*
X71122Y104582D02*
X77442Y110901D01*
X72830Y110113D02*
X85745Y97198D01*
X71191Y102530D02*
X78775Y110113D01*
X70708D02*
X85745Y95077D01*
X66353Y95569D02*
X80896Y110113D01*
X66047Y82536D02*
X93224Y109713D01*
X74050Y101145D02*
X81150Y108246D01*
X71399Y103058D02*
X73435Y101022D01*
X75664Y100638D02*
X81150Y106124D01*
X76487Y99340D02*
X80370Y103223D01*
X70650Y105929D02*
X85745Y90834D01*
X70650Y108050D02*
X85745Y92955D01*
X65526Y102567D02*
X77402Y90691D01*
X64799Y104622D02*
X68350Y108174D01*
X61273Y111063D02*
X67830Y104506D01*
X65527Y103229D02*
X68350Y106052D01*
X54636Y98702D02*
X66047Y110113D01*
X58224Y104411D02*
X64570Y110758D01*
X60102Y110113D02*
X71901Y98314D01*
X54636Y90217D02*
X67580Y103161D01*
X58439Y103291D02*
X64517Y97213D01*
X52333Y103033D02*
X72830Y82536D01*
X94457Y101214D02*
X95378Y100293D01*
X94410D02*
X95285Y101167D01*
X96531Y100293D02*
X98650Y102411D01*
X96269Y101522D02*
X97499Y100293D01*
X92289D02*
X93605Y101609D01*
X83261Y101803D02*
X85745Y99319D01*
Y100293D02*
X98650D01*
X81539Y91664D02*
X85745Y95869D01*
X82045Y90049D02*
X85745Y93748D01*
X80865Y82504D02*
X85745Y87384D01*
X80241Y92487D02*
X85745Y97991D01*
X78743Y82504D02*
X85745Y89505D01*
X82048Y90288D02*
X85745Y86592D01*
X76422Y98035D02*
X85745Y88713D01*
X77651Y85655D02*
X79851Y87855D01*
X77415Y87539D02*
X78236Y88361D01*
X81512Y88703D02*
X85745Y84470D01*
X77740Y86111D02*
X81346Y82504D01*
X77062Y84668D02*
X79225Y82504D01*
X76267Y88513D02*
X77413Y89659D01*
X77233Y82504D02*
X82567D01*
Y79964D02*
X85745Y83142D01*
X82567Y82086D02*
X85745Y85263D01*
Y78108D02*
Y100293D01*
X82567Y82086D02*
X85745Y85263D01*
X80191Y87902D02*
X85745Y82349D01*
X76067Y81950D02*
X85745Y91627D01*
Y78108D02*
X98650D01*
X88838Y77750D02*
X89196Y78108D01*
X90960Y77750D02*
X91317Y78108D01*
X89986D02*
X90343Y77750D01*
X82567D02*
X92000D01*
X82567Y81283D02*
X86101Y77750D01*
X84596D02*
X85745Y78899D01*
X82567Y77843D02*
X85745Y81020D01*
X82567Y77750D02*
Y82504D01*
X77233Y77750D02*
Y82504D01*
X76067Y81419D02*
X77233Y80254D01*
X75618Y83990D02*
X77233Y82375D01*
X76067Y77750D02*
Y82536D01*
X76110Y77750D02*
X77233Y78872D01*
X76067Y79298D02*
X77233Y78133D01*
X76067Y79828D02*
X77233Y80994D01*
X76067Y77750D02*
X77233D01*
X75496Y96840D02*
X79788Y92548D01*
X73714Y96501D02*
X78203Y92012D01*
X63299Y100552D02*
X75182Y88669D01*
X68168Y82536D02*
X85745Y100112D01*
X70733Y82536D02*
X76067D01*
X64823Y92664D02*
X74951Y82536D01*
X70506Y101830D02*
X72240Y100096D01*
X65471Y96809D02*
X70470Y101809D01*
X63767Y97226D02*
X68418Y101878D01*
X59018Y86114D02*
X71855Y98950D01*
X66413Y95317D02*
X73738Y87991D01*
X72411Y82536D02*
X74190Y84315D01*
X66038Y93570D02*
X73060Y86548D01*
X54636Y94366D02*
X66466Y82536D01*
X63894Y82504D02*
X83121Y101731D01*
X61773Y82504D02*
X81175Y101907D01*
X64797Y101175D02*
X85745Y80228D01*
X69967Y82214D02*
X73216Y85462D01*
X59651Y82504D02*
X73660Y96513D01*
X54636Y98608D02*
X70733Y82511D01*
X54536Y79510D02*
X72362Y97336D01*
X74532Y82536D02*
X76075Y84078D01*
X69967Y80092D02*
X70733Y80858D01*
X69967Y81155D02*
X70733Y80390D01*
X69967Y79034D02*
X70733Y78269D01*
X64633Y82536D02*
X69967D01*
X64067Y80556D02*
X64633Y81122D01*
X70733Y77750D02*
Y82536D01*
X54636Y96487D02*
X68587Y82536D01*
X54636Y92244D02*
X64633Y82248D01*
X64067Y80691D02*
X64633Y80126D01*
X69967Y77971D02*
X70733Y78736D01*
X64067Y78570D02*
X64633Y78005D01*
X64067Y78435D02*
X64633Y79000D01*
X64067Y77750D02*
X64633D01*
X61273Y115945D02*
X63977Y118650D01*
X61273Y118067D02*
X61856Y118650D01*
X57980Y110113D02*
X62867Y105226D01*
X61273Y110113D02*
Y118650D01*
X57650Y110113D02*
X61273D01*
X51699D02*
X55350D01*
X57650Y108080D02*
X59683Y110113D01*
X57650Y108322D02*
X61475Y104497D01*
X57650Y105075D02*
Y110113D01*
Y106201D02*
X60852Y102999D01*
X49974Y104647D02*
X55350Y110023D01*
X53738Y110113D02*
X55350Y108501D01*
X51577Y104128D02*
X55350Y107901D01*
X48401Y118650D02*
X51699D01*
X48401Y117923D02*
X49128Y118650D01*
X51699Y110113D02*
Y118650D01*
X49443D02*
X51699Y116395D01*
X48401Y117571D02*
X51699Y114273D01*
X48401Y115802D02*
X51249Y118650D01*
X48401Y110113D02*
Y118650D01*
Y115449D02*
X51699Y112152D01*
X48401Y113681D02*
X51699Y116978D01*
X52391Y102822D02*
X55350Y105780D01*
Y105075D02*
Y110113D01*
X48401Y113328D02*
X55350Y106379D01*
X48401Y111559D02*
X51699Y114857D01*
X48401Y111207D02*
X54939Y104669D01*
X57669Y101939D02*
X62770Y96838D01*
X52980Y99167D02*
X55589Y101776D01*
X54636Y96581D02*
X60852Y102797D01*
X55811Y101676D02*
X61864Y95623D01*
X54636Y94459D02*
X61478Y101301D01*
X54636Y92338D02*
X62871Y100573D01*
X54077Y99167D02*
X54636Y98608D01*
X49301Y99167D02*
X54636D01*
X54567Y88027D02*
X61774Y95233D01*
X50859Y99167D02*
X54632Y102941D01*
X52129Y101115D02*
X54077Y99167D01*
X54636Y94067D02*
Y99167D01*
X50995Y100127D02*
X51955Y99167D01*
X49301Y98767D02*
Y99167D01*
X48337Y98767D02*
X49578Y100009D01*
X44750Y105787D02*
X51699Y112735D01*
X45252Y110113D02*
X50832Y104533D01*
X47374Y110113D02*
X54676Y102811D01*
X45380Y104296D02*
X51699Y110614D01*
X44750Y110113D02*
X48401D01*
X41010D02*
X42450Y108673D01*
X44750Y107908D02*
X46955Y110113D01*
X44750Y108494D02*
X48915Y104329D01*
X44750Y105075D02*
Y110113D01*
Y106373D02*
X47927Y103196D01*
X38888Y110113D02*
X42450Y106551D01*
X38827Y110113D02*
X42450D01*
X37532Y102811D02*
X42450Y107729D01*
X35530Y118650D02*
X38827D01*
X35530Y117780D02*
X36400Y118650D01*
X38827Y110113D02*
Y118650D01*
X36715D02*
X38827Y116538D01*
X35530Y117714D02*
X38827Y114417D01*
X35530Y115658D02*
X38521Y118650D01*
X35530Y110113D02*
Y118650D01*
Y115593D02*
X38827Y112295D01*
X35530Y113537D02*
X38827Y116834D01*
X42450Y105075D02*
Y110113D01*
X35530Y111416D02*
X38827Y114713D01*
X35530Y111350D02*
X42116Y104764D01*
X35530Y113472D02*
X38827Y110174D01*
X35347Y102748D02*
X42450Y109851D01*
X45549Y103452D02*
X49834Y99167D01*
X44864Y102016D02*
X48113Y98767D01*
X43158Y101601D02*
X45992Y98767D01*
X39181Y95975D02*
X53319Y110113D01*
X38268Y102248D02*
X45764Y94752D01*
X36377Y91050D02*
X47753Y102426D01*
X45764Y98767D02*
X49301D01*
X46216D02*
X48272Y100823D01*
X45764Y98316D02*
X46216Y98767D01*
X45764Y95118D02*
Y98767D01*
X42820Y93250D02*
X45764Y96194D01*
Y94233D02*
Y95071D01*
X40430Y92981D02*
X45764Y98316D01*
X38599Y101757D02*
X42450Y105608D01*
X38591Y99628D02*
X41775Y102812D01*
X38648Y99747D02*
X45145Y93250D01*
X38203Y97119D02*
X42804Y101720D01*
X37633Y98641D02*
X43023Y93250D01*
X36310Y97346D02*
X37572Y98609D01*
X35639Y98514D02*
X36719Y97433D01*
X58627Y87844D02*
X63431Y92647D01*
X57404Y88742D02*
X62191Y93529D01*
X54636Y90123D02*
X56012Y88747D01*
X58733Y82504D02*
X64067D01*
X58947Y85812D02*
X62255Y82504D01*
X58056Y84581D02*
X60133Y82504D01*
X56338Y84178D02*
X58733Y81783D01*
X54536Y81631D02*
X57086Y84182D01*
X54562Y83833D02*
X58733Y79662D01*
X46108Y94233D02*
X46132Y93875D01*
X54636Y88733D02*
Y93833D01*
X54567Y88733D02*
Y89167D01*
X45764Y93667D02*
X46110D01*
X45764Y94233D02*
X46108D01*
X45764Y93250D02*
Y93667D01*
X54567Y88070D02*
X54781Y87857D01*
X54567Y87650D02*
Y88733D01*
Y83833D02*
Y85350D01*
X54536Y83833D02*
Y84567D01*
Y83753D02*
X55356Y84572D01*
X46150Y88767D02*
Y89133D01*
X58733Y77750D02*
Y82504D01*
X54897Y77750D02*
X58733Y81586D01*
X54536Y79233D02*
Y83833D01*
Y79616D02*
X56402Y77750D01*
X54258Y79233D02*
X54536Y79510D01*
X52798Y79233D02*
X53824Y78207D01*
X57018Y77750D02*
X58733Y79464D01*
X53233Y78207D02*
X54258Y79233D01*
X49201D02*
X54536D01*
X50234Y78207D02*
X54289D01*
X51111D02*
X52137Y79233D01*
X49201D02*
Y79633D01*
X48990Y78207D02*
X50016Y79233D01*
X48156Y79633D02*
X49582Y78207D01*
X46657Y79633D02*
X49201D01*
X46869Y78207D02*
X48294Y79633D01*
X49715Y78207D02*
X50234D01*
X49715D02*
X50234D01*
X50677Y79233D02*
X51703Y78207D01*
X46798D02*
X49715D01*
X46847Y78820D02*
X47460Y78207D01*
X44941Y93250D02*
X45924Y94233D01*
X44400Y93250D02*
X45764D01*
Y89133D02*
Y89550D01*
X44602D02*
X45696Y88456D01*
X42197Y89550D02*
X44400D01*
X42197Y93250D02*
X44400D01*
Y89550D02*
X45764D01*
X45696Y88767D02*
X46150D01*
X45764Y89133D02*
X46150D01*
X43650Y85595D02*
X45696Y87641D01*
X43075Y87141D02*
X45484Y89550D01*
X42481D02*
X45696Y86335D01*
X41724Y87911D02*
X43363Y89550D01*
X39333Y94819D02*
X41020Y93132D01*
X38627Y93404D02*
X39452Y92579D01*
X37154Y92755D02*
X38202Y91708D01*
X35900Y91050D02*
X36886D01*
X40826Y89083D02*
X42100Y87810D01*
X39652Y88136D02*
X40143Y87645D01*
X35900Y87350D02*
X36886D01*
X38160Y87507D02*
X39140Y86527D01*
X45696Y84233D02*
X46150D01*
X45696D02*
Y88767D01*
X45664Y84167D02*
X46150D01*
X43510Y86400D02*
X45742Y84167D01*
X42581Y82404D02*
X45696Y85519D01*
X43345Y84443D02*
X45664Y82124D01*
Y80741D02*
Y84167D01*
X45321Y80902D02*
X45664Y81245D01*
X43567Y81270D02*
X45664Y83366D01*
X43567Y82100D02*
X44620Y81047D01*
X42226Y83440D02*
X43263Y82404D01*
X43567Y82100D01*
X40459Y82404D02*
X41305Y83250D01*
X36196Y87350D02*
X41141Y82404D01*
X36217D02*
X38989Y85176D01*
X38338Y82404D02*
X39759Y83825D01*
X43567Y80857D02*
Y82404D01*
X38767D02*
X43567D01*
X38233D02*
X38767D01*
X38233D02*
X38767D01*
X95658Y76085D02*
X97681Y78108D01*
X94505Y77053D02*
X95560Y78108D01*
X96472Y74777D02*
X98650Y76955D01*
X96350Y78108D02*
X98650Y75807D01*
X94229Y78108D02*
X98650Y73686D01*
X92981Y77650D02*
X93438Y78108D01*
X96825Y73389D02*
X98650Y71565D01*
X96848Y73032D02*
X98650Y74834D01*
X96850Y70913D02*
X98650Y72713D01*
X92698Y71153D02*
X93150Y70701D01*
X91922Y74050D02*
X93150Y72822D01*
X92698Y71003D02*
X93150Y71455D01*
X92107Y78108D02*
X92489Y77725D01*
X90282Y72830D02*
X91502Y74050D01*
X89801D02*
X91021Y72830D01*
X88160D02*
X89381Y74050D01*
X87865Y78108D02*
X88222Y77750D01*
X86717D02*
X87074Y78108D01*
X85639Y72430D02*
X87260Y74050D01*
X92403Y72830D02*
X93015Y73441D01*
X87679Y74050D02*
X88900Y72830D01*
X87639D02*
X92698D01*
X87639Y72430D02*
Y72830D01*
X85558Y74050D02*
X87178Y72430D01*
X96850Y68791D02*
X98650Y70591D01*
X96850Y71243D02*
X98650Y69443D01*
Y35000D02*
Y78108D01*
X96850Y40600D02*
Y72900D01*
X92698Y69031D02*
X93150Y68579D01*
X92698Y68882D02*
X93150Y69334D01*
X96850Y69122D02*
X98650Y67322D01*
X96850Y67001D02*
X98650Y65201D01*
X96850Y66670D02*
X98650Y68470D01*
X96850Y64879D02*
X98650Y63079D01*
X96850Y64549D02*
X98650Y66349D01*
X89100Y63163D02*
X93150Y67213D01*
X91838Y67770D02*
X93150Y66458D01*
X89447Y65919D02*
X93150Y62215D01*
X87639Y67770D02*
Y68170D01*
X93150Y42678D02*
Y72900D01*
X92698Y67770D02*
Y72830D01*
X87639Y67770D02*
X92698D01*
X87195Y68170D02*
X87613Y67752D01*
X87320Y67747D02*
X87639Y68066D01*
X89716Y67770D02*
X93150Y64337D01*
X89442Y65626D02*
X91587Y67770D01*
X89100Y61100D02*
Y64691D01*
X88879Y67184D02*
X89465Y67770D01*
X89100Y61041D02*
X93150Y65091D01*
X82567Y79162D02*
X83979Y77750D01*
X82167Y73633D02*
Y74050D01*
X82988Y71900D02*
X85138Y74050D01*
X83437D02*
X85057Y72430D01*
X82167Y74050D02*
X92000D01*
X81101Y72134D02*
X83017Y74050D01*
X78980Y72134D02*
X80478Y73633D01*
X84102Y72430D02*
X87639D01*
X84102Y71900D02*
Y72430D01*
X81793Y71900D02*
X84102D01*
X81733Y73633D02*
X83465Y71900D01*
X77633Y73633D02*
X82167D01*
X79611D02*
X81110Y72134D01*
X77628D02*
X81793D01*
X75667Y74050D02*
X77633D01*
X75667Y73664D02*
Y74050D01*
X77073D02*
X78988Y72134D01*
X77633Y73633D02*
Y74050D01*
X75337Y73664D02*
X76867Y72134D01*
X74737D02*
X76653Y74050D01*
X70709D02*
X72859Y71900D01*
X76859Y72134D02*
X78357Y73633D01*
X73216Y73664D02*
X74746Y72134D01*
X73172D02*
X77337D01*
X72382Y71900D02*
X74146Y73664D01*
X71133D02*
X75667D01*
X72382Y71900D02*
X74146Y73664D01*
X70384Y71900D02*
X73172D01*
X84102Y68170D02*
Y68700D01*
X81793D02*
X84102D01*
X80536Y68466D02*
X85900Y63101D01*
X82423Y68700D02*
X85566Y65557D01*
X78414Y68466D02*
X84123Y62757D01*
X77628Y68466D02*
X81793D01*
X77448Y62117D02*
X84031Y68700D01*
X84102Y68170D02*
X87639D01*
X85074D02*
X86091Y67153D01*
X82174Y62600D02*
X85558Y65985D01*
X76293Y68466D02*
X82159Y62600D01*
X76833Y63623D02*
X81675Y68466D01*
X79979Y62527D02*
X85623Y68170D01*
X73172Y68466D02*
X77337D01*
X74547Y67701D02*
X75311Y68466D01*
X77421Y66333D02*
X79554Y68466D01*
X76586Y67619D02*
X77433Y68466D01*
X70100Y68700D02*
X73172D01*
X71816D02*
X73166Y67350D01*
X71912Y67188D02*
X73190Y68466D01*
X74172D02*
X74813Y67825D01*
X77325Y65313D02*
X80098Y62540D01*
X72948Y67350D02*
X74093D01*
X96850Y56063D02*
X98650Y57863D01*
X96850Y58515D02*
X98650Y56715D01*
X96850Y53942D02*
X98650Y55742D01*
X96850Y56394D02*
X98650Y54594D01*
X96850Y62758D02*
X98650Y60958D01*
X96850Y62427D02*
X98650Y64227D01*
X96850Y60306D02*
X98650Y62106D01*
X96850Y50030D02*
X98650Y48230D01*
X96850Y49699D02*
X98650Y51499D01*
X96850Y47909D02*
X98650Y46109D01*
X96850Y47578D02*
X98650Y49378D01*
X96850Y51821D02*
X98650Y53621D01*
X96850Y54273D02*
X98650Y52473D01*
X96850Y52151D02*
X98650Y50351D01*
X96850Y58185D02*
X98650Y59985D01*
X96850Y60637D02*
X98650Y58837D01*
X92779Y49872D02*
X93150Y50242D01*
X91942Y51156D02*
X93150Y52363D01*
X90307Y51642D02*
X93150Y54485D01*
X89100Y62023D02*
X93150Y57973D01*
X92481Y48035D02*
X93150Y47366D01*
X92784Y49854D02*
X93150Y49488D01*
X91001Y45972D02*
X93150Y48121D01*
X90569Y46404D02*
X91231Y47067D01*
X96850Y45788D02*
X98650Y43988D01*
X96850Y45457D02*
X98650Y47257D01*
X96850Y43666D02*
X98650Y41866D01*
X96850Y43335D02*
X98650Y45135D01*
X96850Y41545D02*
X98650Y39745D01*
X96850Y41214D02*
X98650Y43014D01*
X96677Y38920D02*
X98650Y40893D01*
X96358Y37794D02*
X98650Y35502D01*
X96776Y39498D02*
X98650Y37624D01*
X97000Y35000D02*
X98650Y36650D01*
X95675Y36356D02*
X97031Y35000D01*
X94658D02*
X98650D01*
X94879D02*
X98650Y38771D01*
X91438Y44287D02*
X93150Y45999D01*
X91303Y47092D02*
X93150Y45245D01*
X91149Y45124D02*
X93150Y43123D01*
X90296Y44271D02*
X91499Y45474D01*
X90569Y46404D02*
X91499Y45474D01*
X93150Y40600D02*
Y41322D01*
X92737Y43465D02*
X93150Y43878D01*
X92069Y39962D02*
X92905Y39126D01*
X90130Y39780D02*
X92153Y37757D01*
X89699Y36185D02*
X93015Y39501D01*
X85900Y62450D02*
Y64691D01*
X84536Y62842D02*
X85900Y64205D01*
X88350Y58170D02*
X93150Y62970D01*
X89100Y64144D02*
X93150Y60094D01*
X81223Y62600D02*
X83761D01*
X86801Y54500D02*
X93150Y60849D01*
X89000Y60001D02*
X93150Y55851D01*
X85132Y55385D02*
X86016Y54500D01*
X84680D02*
X85930Y55750D01*
X79900Y55000D02*
X83000D01*
X80437Y54500D02*
X80937Y55000D01*
X76296Y64220D02*
X78321Y62195D01*
X73255Y60897D02*
X74209Y59943D01*
X70015Y62016D02*
X73134Y58897D01*
X78257Y54800D02*
X79300D01*
X73724Y60850D02*
X74093D01*
X70016Y56807D02*
X74059Y60850D01*
X69946Y55709D02*
X73732Y59495D01*
X88000Y53577D02*
X93150Y58727D01*
X88473Y58407D02*
X93150Y53730D01*
X88000Y51456D02*
X93150Y56606D01*
X87630Y57129D02*
X93150Y51609D01*
X86520Y56118D02*
X91054Y51584D01*
X88000Y52516D02*
X89235Y51281D01*
X88000Y38728D02*
X89435Y40163D01*
X88000Y36607D02*
X91048Y39655D01*
X88000Y39788D02*
X91033Y36755D01*
X88000Y37667D02*
X89522Y36145D01*
X83383Y55012D02*
X83895Y54500D01*
X82559D02*
X83059Y55000D01*
X88000Y50395D02*
X88292Y50103D01*
X88000Y49775D02*
Y54500D01*
X80382D02*
X88000D01*
X81274Y55000D02*
X81774Y54500D01*
X88000Y41910D02*
X88680Y41230D01*
X88000Y40849D02*
X88613Y41462D01*
X88000Y36050D02*
X88600D01*
X88000Y41975D02*
X88629Y42604D01*
X88000Y49775D02*
X88272Y50047D01*
X88000Y41975D02*
X88000Y36050D01*
X69967Y77750D02*
X70733D01*
X69967D02*
Y82536D01*
X70371Y72010D02*
X72025Y73664D01*
X71133D02*
Y74050D01*
X69567D02*
X71133D01*
X69567Y73664D02*
Y74050D01*
X69713Y73474D02*
X70289Y74050D01*
X69723Y67120D02*
X71303Y68700D01*
X70306Y72331D02*
X70737Y71900D01*
X69661Y68733D02*
X71412Y66983D01*
X65293Y69054D02*
X67259Y71020D01*
X65293Y68678D02*
Y71040D01*
X66284Y67924D02*
X67981Y69620D01*
X65293Y68859D02*
X65602Y68550D01*
X65266Y71300D02*
X67216D01*
X64633Y77750D02*
Y82536D01*
X65293Y70980D02*
X68714Y67559D01*
X66412D02*
X68774D01*
X66284Y67868D02*
X66593Y67559D01*
X68041D02*
X69295Y68814D01*
X68041Y67559D02*
X69295Y68814D01*
X65602Y68550D02*
X66284Y67868D01*
X65287Y68550D02*
X66284D01*
Y67553D02*
Y68550D01*
X70251Y59163D02*
X72365Y61277D01*
X69943Y62016D02*
X70685D01*
X69752Y60785D02*
X70883Y61916D01*
X70012Y59898D02*
X72073Y57836D01*
X70187Y57601D02*
X71013Y56775D01*
X66284Y43609D02*
Y44205D01*
X66618Y44200D02*
X69200Y41618D01*
X66412Y44200D02*
X68774D01*
X65293Y41477D02*
X68016Y44200D01*
X69200Y43318D02*
X69200Y36050D01*
X65287Y43609D02*
X66284D01*
X65293Y41119D02*
Y43481D01*
Y43403D02*
X69200Y39496D01*
X54289Y77750D02*
X58733D01*
X54289D02*
Y78207D01*
X64067Y77750D02*
Y82504D01*
X54536Y81738D02*
X58523Y77750D01*
X36578Y71650D02*
X42493D01*
X38042Y67259D02*
X42433Y71650D01*
X41454Y68550D02*
X42333Y69429D01*
Y68678D02*
Y71040D01*
X41343Y68550D02*
X42340D01*
X41343Y67553D02*
Y68550D01*
X41289Y71650D02*
X42333Y70605D01*
X39168Y71650D02*
X42268Y68550D01*
X40464Y67559D02*
X41343Y68439D01*
X38243Y69581D02*
X40312Y71650D01*
X37582Y71041D02*
X38190Y71650D01*
X37046D02*
X41137Y67559D01*
X38072Y68503D02*
X39016Y67559D01*
X38853D02*
X41215D01*
X37230Y64326D02*
X37610Y64705D01*
X35881Y65098D02*
X37910Y67127D01*
X37084Y67370D02*
X37692Y66762D01*
X35164Y67168D02*
X37609Y64723D01*
X38619Y44622D02*
X42356Y40885D01*
X41343Y43609D02*
Y44606D01*
X37089Y40850D02*
X40839Y44600D01*
X36426Y44693D02*
X40269Y40850D01*
X41343Y43609D02*
X42340D01*
X41343Y44019D02*
X41753Y43609D01*
X42333Y41119D02*
Y43481D01*
X41753Y43609D02*
X42333Y43028D01*
X40762Y44600D02*
X41343Y44019D01*
X38853Y44600D02*
X41215D01*
X39210Y40850D02*
X41969Y43609D01*
X35212Y60441D02*
X37684D01*
X35527D02*
X37612Y58356D01*
X35775Y50143D02*
X37619Y51986D01*
X36868Y46993D02*
X37211Y47336D01*
X35398Y47843D02*
X36247Y46993D01*
X67856Y39797D02*
X69200Y41141D01*
X65293Y41282D02*
X66672Y39903D01*
X68909Y38729D02*
X69200Y39020D01*
X65200Y39262D02*
X69200Y43263D01*
X65200Y39250D02*
Y40645D01*
X68950Y36649D02*
X69200Y36899D01*
X68950Y36050D02*
Y37384D01*
X48110Y18159D02*
X48878Y17391D01*
X44974Y21296D02*
X45559Y20710D01*
X42853Y21296D02*
X48850Y15299D01*
X41332Y40850D02*
X42333Y41852D01*
X41332Y40850D02*
X42333Y41852D01*
X48850Y14729D02*
Y16599D01*
X43631Y11329D02*
X48850Y16549D01*
X45752Y11329D02*
X48821Y14399D01*
X42470Y11329D02*
X42792D01*
X42470D02*
X42792D01*
X46729D01*
X49257Y10591D02*
X50000Y11335D01*
Y1350D02*
Y11832D01*
X49259Y10647D02*
X50000Y9906D01*
X41510Y11329D02*
X48379Y18199D01*
X48459Y7205D02*
X50000Y5663D01*
X49678Y8107D02*
X50000Y7785D01*
X48501Y1350D02*
X50000Y2849D01*
X46767Y3859D02*
X50000Y7092D01*
X46767Y4653D02*
X50000Y1421D01*
X46767Y6775D02*
X50000Y3542D01*
X46379Y1350D02*
X50000Y4971D01*
X46729Y10579D02*
Y11329D01*
X46767Y5981D02*
X47938Y7151D01*
X46767Y2633D02*
Y7167D01*
X46729D02*
Y7621D01*
X46455Y11329D02*
X46729Y11055D01*
X43230Y2633D02*
X46767D01*
X44545D02*
X45828Y1350D01*
X44258D02*
X45541Y2633D01*
X46667D02*
X47949Y1350D01*
X42824Y2233D02*
X43707Y1350D01*
X43230Y2233D02*
Y2633D01*
X42137Y1350D02*
X43019Y2233D01*
X38373Y26000D02*
X40833D01*
X37608Y35005D02*
X38454Y35851D01*
X40833Y21296D02*
Y26000D01*
X38373D02*
X38465Y37150D01*
X35700Y40850D02*
X42077D01*
X35700Y37150D02*
X38465D01*
X37605D02*
X38458Y36297D01*
X38349Y23018D02*
X40833Y25502D01*
X40270Y26000D02*
X40833Y25437D01*
X38250Y23777D02*
X48460Y13567D01*
X40833Y21296D02*
X45689D01*
X36119Y16545D02*
X40869Y21296D01*
X37809Y24600D02*
X39209Y26000D01*
X37031Y15337D02*
X42990Y21296D01*
X36663Y36182D02*
X37632Y37150D01*
X35490Y37144D02*
X36239Y36395D01*
X37595Y35039D02*
X38440Y34193D01*
X36663Y36182D02*
X37632Y37150D01*
X37454Y33059D02*
X38423Y32089D01*
X36344Y32048D02*
X38406Y29986D01*
X36487Y25399D02*
X38383Y27295D01*
X38015Y21891D02*
X47524Y12382D01*
X38533Y11329D02*
X42470D01*
X39388D02*
X46601Y18542D01*
X36868Y20916D02*
X46455Y11329D01*
X37130Y14291D02*
X40091Y11329D01*
X37038Y11100D02*
X45677Y19739D01*
X38581Y2233D02*
X39464Y1350D01*
X40703Y2233D02*
X41585Y1350D01*
X40015D02*
X40898Y2233D01*
X37896D02*
X43230D01*
X37896Y2918D02*
X38581Y2233D01*
X37894Y1350D02*
X38777Y2233D01*
X36411Y12889D02*
X38199Y11100D01*
X37656Y7400D02*
X37896Y7161D01*
Y2233D02*
Y7400D01*
X37350Y5049D02*
X37896Y5594D01*
X35535Y7400D02*
X37896Y5040D01*
X36236Y6056D02*
X37580Y7400D01*
X37560Y3255D02*
X37896Y2918D01*
X37502Y3079D02*
X37896Y3473D01*
X36689Y2004D02*
X37343Y1350D01*
X35773D02*
X36121Y1698D01*
X32530Y104173D02*
X38827Y110470D01*
X31850Y105615D02*
X38827Y112592D01*
X32524Y110113D02*
X45764Y96873D01*
X34646Y110113D02*
X41701Y103058D01*
X31850Y110113D02*
X35530D01*
X31850Y107736D02*
X34227Y110113D01*
X31850Y108666D02*
X38048Y102468D01*
X32646Y103628D02*
X34441Y101833D01*
X32055Y102097D02*
X34313Y99839D01*
X31850Y106545D02*
X35547Y102848D01*
X31850Y109857D02*
X32106Y110113D01*
X28282D02*
X29550Y108845D01*
X31850Y105075D02*
Y110113D01*
X29550Y105075D02*
Y110113D01*
X25956D02*
X29550D01*
X23988Y118650D02*
X25956Y116682D01*
Y110113D02*
Y118650D01*
X24572Y102579D02*
X29550Y107557D01*
X26160Y110113D02*
X29550Y106723D01*
X25856Y101742D02*
X29550Y105436D01*
X26342Y100107D02*
X28926Y102690D01*
X34256Y91050D02*
X36125Y92919D01*
X32135Y91050D02*
X34981Y93897D01*
X27936Y91094D02*
X35443Y98601D01*
X30467Y101564D02*
X35304Y96727D01*
X31800Y91050D02*
X35900D01*
X33929Y84360D02*
X36920Y87350D01*
X33929Y86481D02*
X34799Y87350D01*
X34096Y82404D02*
X40290Y88599D01*
X34074Y87350D02*
X39020Y82404D01*
X33929Y85373D02*
X36899Y82404D01*
X33929Y87350D02*
X35900D01*
X33929Y82404D02*
X38233D01*
X26198Y99469D02*
X34617Y91050D01*
X25900D02*
X27784D01*
X30013D02*
X34754Y95790D01*
X25241Y98304D02*
X32496Y91050D01*
X23916D02*
X25884D01*
X25771D02*
X34389Y99668D01*
X33929Y82404D02*
Y83671D01*
Y83992D01*
Y83252D02*
X34777Y82404D01*
X33929Y83992D02*
Y87350D01*
X29016Y91050D02*
X31800D01*
X33929Y83671D02*
Y83992D01*
X22658Y111272D02*
X25956Y114570D01*
X22658Y115736D02*
X25956Y112439D01*
X22658Y111494D02*
X29297Y104855D01*
X22658Y113615D02*
X25956Y110318D01*
X19594Y103965D02*
X25956Y110327D01*
X18850Y105342D02*
X25956Y112448D01*
X21918Y110113D02*
X28764Y103267D01*
X19797Y110113D02*
X34655Y95254D01*
X21528Y91050D02*
X40591Y110113D01*
X17752Y101551D02*
X28167Y91136D01*
X13856Y93984D02*
X29550Y109679D01*
X13856Y96105D02*
X27863Y110113D01*
X7069D02*
X26132Y91050D01*
X22658Y118650D02*
X25956D01*
X22658Y117636D02*
X23672Y118650D01*
X22658Y115515D02*
X25793Y118650D01*
X22658Y110113D02*
Y118650D01*
Y113394D02*
X25956Y116691D01*
X22658Y117858D02*
X25956Y114560D01*
X18850Y110113D02*
X22658D01*
X18850Y106817D02*
X23169Y102498D01*
X19598Y103948D02*
X22005Y101541D01*
X17285Y91050D02*
X24193Y97958D01*
X6150Y108910D02*
X24010Y91050D01*
X13856D02*
X23900D01*
X13856Y99084D02*
X21889Y91050D01*
X23649D02*
X34452Y101853D01*
X23395Y98029D02*
X30374Y91050D01*
X23066Y83549D02*
Y87350D01*
X21346D02*
X23066Y85631D01*
X18850Y108938D02*
X36738Y91050D01*
X19407D02*
X30027Y101670D01*
X13856Y87350D02*
X23066D01*
X22505Y83542D02*
X23066Y84102D01*
X22550Y84025D02*
X23044Y83531D01*
X22566Y79081D02*
Y82500D01*
X22151Y85309D02*
X23066Y86224D01*
X16935Y75850D02*
X22566Y81481D01*
X15164Y91050D02*
X22558Y98444D01*
X20948Y86228D02*
X22071Y87350D01*
X13856Y86356D02*
X22500Y77711D01*
X13856Y84234D02*
X22030Y76060D01*
X13856Y84234D02*
X22030Y76060D01*
X21984Y82470D02*
X22566Y81888D01*
X20641Y81692D02*
X22566Y79767D01*
X21177Y75850D02*
X22016Y76689D01*
X19056Y75850D02*
X22566Y79360D01*
X32967Y70670D02*
X33948Y71650D01*
X32967Y68548D02*
X33564Y69145D01*
X32804Y71650D02*
X33870Y70584D01*
X27633Y71104D02*
X32967D01*
Y69365D02*
X33668Y68664D01*
X34309Y65648D02*
X35719Y67057D01*
X32967Y67244D02*
X34589Y65623D01*
X32967Y66427D02*
X34259Y67718D01*
X32567Y65650D02*
X34193D01*
X29729Y59991D02*
X34100D01*
X31281Y71104D02*
X31826Y71650D01*
X30682D02*
X31228Y71104D01*
X32967Y65770D02*
Y71104D01*
X29160D02*
X29705Y71650D01*
X28561D02*
X29107Y71104D01*
X32567Y65770D02*
X32967D01*
X28033Y63191D02*
Y65770D01*
X30144Y59361D02*
X30775Y59991D01*
X27633Y65770D02*
X28033D01*
X33856Y59991D02*
X37837Y56010D01*
X32714Y55567D02*
X37588Y60441D01*
X33329Y51940D02*
X37727Y56338D01*
X33329Y54061D02*
X37613Y58344D01*
X31734Y59991D02*
X37659Y54067D01*
X30592Y55567D02*
X35467Y60441D01*
X30043Y59562D02*
X37619Y51986D01*
X32930Y50143D02*
X37684D01*
X33329Y52032D02*
X35219Y50143D01*
X33654D02*
X37703Y54192D01*
X33329Y54154D02*
X37340Y50143D01*
X28271Y55567D02*
X33329D01*
X32930Y50507D02*
X33329D01*
X29829Y56925D02*
X32896Y59991D01*
X30112Y57371D02*
X31917Y55567D01*
X29059Y56302D02*
X29795Y55567D01*
X28471D02*
X29475Y56571D01*
X28271Y50507D02*
Y55567D01*
X33329Y50507D02*
Y55567D01*
X32930Y50143D02*
Y50507D01*
X28670Y50143D02*
Y50507D01*
X28271D02*
X28670D01*
X28271Y50727D02*
X28490Y50507D01*
X26656Y71650D02*
X35222D01*
X26435Y71655D02*
X27633Y70457D01*
X26435Y71655D02*
X27633Y70457D01*
X20297Y73550D02*
X27633Y66214D01*
X22470Y73498D02*
X27633Y68336D01*
X18176Y73550D02*
X28033Y63693D01*
X27610Y63191D02*
X28033Y63613D01*
X27633Y65770D02*
Y71104D01*
X25489Y63191D02*
X28033Y65735D01*
X23894Y63191D02*
X28033D01*
X22228Y64172D02*
X27633Y69577D01*
X20937Y65003D02*
X27584Y71650D01*
X23438Y63262D02*
X27633Y67456D01*
X20174Y70604D02*
X22890Y73320D01*
X20428Y69177D02*
X26413Y63191D01*
X20256Y68564D02*
X24075Y72384D01*
X13536Y73550D02*
X22069D01*
X4100Y75850D02*
X22069D01*
X19391Y65579D02*
X25582Y71769D01*
X23894Y59991D02*
X26271D01*
X25370D02*
X25902Y59460D01*
X21549Y59251D02*
X22500Y60202D01*
X19702Y67781D02*
X24292Y63191D01*
X25929Y55146D02*
X27039Y56256D01*
X25929Y53025D02*
X28271Y55366D01*
X26936Y56305D02*
X28271Y54970D01*
X25631Y56970D02*
X25937Y57275D01*
X25409Y55198D02*
X25929D01*
Y50904D02*
X28271Y53245D01*
X25929Y55190D02*
X28271Y52849D01*
X27290Y50143D02*
X28271Y51123D01*
X25929Y53068D02*
X28271Y50727D01*
X25929Y50947D02*
X26734Y50143D01*
X25929Y50939D02*
Y51261D01*
Y50143D02*
X28670D01*
X23197Y60043D02*
X25905Y57336D01*
X24613Y58073D02*
X25821Y59281D01*
X21704Y57285D02*
X24410Y59991D01*
X18655Y62464D02*
X23028Y58091D01*
X21707Y57291D02*
X21985Y57013D01*
X25929Y50939D02*
Y51261D01*
Y55198D01*
Y50143D02*
Y50939D01*
X21670Y55198D02*
X22191D01*
X21738D02*
X22027Y55487D01*
X25591Y55528D02*
X25921Y55198D01*
X18850Y109585D02*
X19378Y110113D01*
X15554D02*
X16550Y109117D01*
X18850Y107464D02*
X21499Y110113D01*
X18850Y105075D02*
Y110113D01*
X13433D02*
X16550Y106996D01*
X13084Y110113D02*
X16550D01*
X11179Y99792D02*
X16550Y105164D01*
X19186Y102238D02*
X21729Y99695D01*
X13856Y98227D02*
X17235Y101606D01*
X13856Y91863D02*
X21721Y99728D01*
X13856Y96962D02*
X19768Y91050D01*
X13856Y94841D02*
X17646Y91050D01*
X11260Y118650D02*
X13084Y116825D01*
X9887Y118650D02*
X13084D01*
Y110113D02*
Y118650D01*
X9887Y110113D02*
Y118650D01*
Y115471D02*
X13066Y118650D01*
X9887Y117593D02*
X10944Y118650D01*
X9887Y117901D02*
X13084Y114704D01*
X16550Y105075D02*
Y110113D01*
X13300Y99792D02*
X16019Y102512D01*
X13856Y92720D02*
X15525Y91050D01*
X13856D02*
Y99792D01*
X13084Y110461D02*
X13433Y110113D01*
X9887Y115780D02*
X13084Y112583D01*
X9887Y111537D02*
X16438Y104986D01*
X19225Y87350D02*
X20225Y86350D01*
X13856Y81256D02*
X19949Y87350D01*
X17104D02*
X18670Y85784D01*
X13856Y79135D02*
X17972Y83252D01*
X19083Y71635D02*
X20999Y73550D01*
X14813Y75850D02*
X20659Y81695D01*
X16753Y71425D02*
X18877Y73550D01*
X12692Y75850D02*
X18891Y82049D01*
X13856Y79992D02*
X17997Y75850D01*
X13856Y82113D02*
X20118Y75850D01*
X14982Y87350D02*
X17892Y84441D01*
X13856Y85499D02*
X15707Y87350D01*
X13856Y83377D02*
X17828Y87350D01*
X13856Y78408D02*
Y87350D01*
X11197Y78408D02*
X13755Y75850D01*
X10571D02*
X13128Y78408D01*
X13318D02*
X15876Y75850D01*
X16055Y73550D02*
X17777Y71828D01*
X13933Y73550D02*
X16381Y71102D01*
X13536Y70330D02*
X16756Y73550D01*
X13536Y72451D02*
X14635Y73550D01*
X13536Y70067D02*
Y73550D01*
X9887Y111229D02*
X13084Y114426D01*
X9887Y113350D02*
X13084Y116548D01*
X9190Y110113D02*
X15751Y103552D01*
X9887Y113659D02*
X13084Y110461D01*
X6150Y105370D02*
X13084Y112305D01*
X6150Y109613D02*
X6650Y110113D01*
X6802Y103901D02*
X13084Y110184D01*
X6150Y110113D02*
X9887D01*
X6150Y107492D02*
X8771Y110113D01*
X8106Y100962D02*
X16550Y109406D01*
X7632Y102610D02*
X15135Y110113D01*
X6150Y105090D02*
Y110113D01*
X2826D02*
X3850Y109089D01*
X1350Y110113D02*
X3850D01*
Y105090D02*
Y110113D01*
X1350Y109056D02*
X2407Y110113D01*
X1350Y106934D02*
X3850Y109434D01*
X1350Y109468D02*
X3850Y106968D01*
X1350Y102549D02*
Y110113D01*
Y107346D02*
X3859Y104837D01*
X1350Y104813D02*
X3850Y107313D01*
X1350Y105225D02*
X2883Y103692D01*
X1350Y102692D02*
X3850Y105192D01*
X1350Y103104D02*
X1574Y102880D01*
X8150Y99792D02*
X13856D01*
X8142Y100554D02*
X8904Y99792D01*
X9057D02*
X16550Y107285D01*
X8150Y99792D02*
Y100261D01*
X6280Y104538D02*
X11025Y99792D01*
X6150Y106789D02*
X13147Y99792D01*
X6954Y78408D02*
X9512Y75850D01*
X6328D02*
X8885Y78408D01*
X9076D02*
X11633Y75850D01*
X8449D02*
X11007Y78408D01*
X1350D02*
X13856D01*
X4207Y75850D02*
X6764Y78408D01*
X4833D02*
X7390Y75850D01*
X2712Y78408D02*
X5269Y75850D01*
X1350Y77236D02*
X2522Y78408D01*
X1350Y75115D02*
X4643Y78408D01*
X1350Y73100D02*
Y78408D01*
Y77648D02*
X3275Y75723D01*
X1350Y75526D02*
X2001Y74876D01*
X3664Y73212D02*
X4664Y72212D01*
X4100Y73550D02*
X4664D01*
Y69667D02*
Y73550D01*
X3657Y73179D02*
X4021Y73543D01*
X3650Y71051D02*
X4664Y72065D01*
X17491Y65800D02*
X19036Y67344D01*
X15370Y65800D02*
X16996Y67426D01*
X13536Y69705D02*
X17440Y65800D01*
X18209Y67153D02*
X19944Y65418D01*
X20433Y60257D02*
X21093Y60916D01*
X16398Y62600D02*
X18691Y60307D01*
X14937Y62600D02*
X17596D01*
X13536Y65800D02*
X17596D01*
X15739Y59805D02*
X18447Y62513D01*
X13536Y66087D02*
X15966Y68517D01*
X13536Y69133D02*
Y70067D01*
Y67583D02*
X15319Y65800D01*
X13536D02*
Y69133D01*
Y71826D02*
X15753Y69609D01*
X13536Y69133D02*
Y70067D01*
Y68209D02*
X16174Y70847D01*
X15346Y61533D02*
X16413Y62600D01*
X15250Y59805D02*
X15825D01*
X15250D02*
Y60784D01*
X11550Y59805D02*
Y60784D01*
X20760Y56116D02*
X21678Y55198D01*
X15825Y57770D02*
X19941Y61885D01*
X15825Y56809D02*
X21670Y50963D01*
Y50939D02*
Y51261D01*
Y55198D01*
X19569Y50908D02*
X21670Y53009D01*
Y50939D02*
Y51261D01*
X18340Y51800D02*
X21670Y55130D01*
X18937Y55818D02*
X21670Y53085D01*
X15825Y51406D02*
X20315Y55896D01*
X15825Y58930D02*
X17219Y57537D01*
X15825Y55648D02*
X17343Y57167D01*
X15825Y54956D02*
Y59805D01*
X15346Y61531D02*
X17516Y59360D01*
X10975Y55295D02*
X11314Y54956D01*
X14623Y52325D02*
X18349Y56051D01*
X15557Y54956D02*
X19008Y51505D01*
X15825Y51250D02*
X16493D01*
X15825D02*
Y52325D01*
X12501D02*
X15132Y54956D01*
X11314D02*
X13945Y52325D01*
X13436Y54956D02*
X16849Y51542D01*
X5104Y64816D02*
Y65133D01*
X8804Y62600D02*
X11863D01*
X10034D02*
X11464Y61170D01*
X4664Y65133D02*
X5104D01*
X3650Y64741D02*
X5104Y63287D01*
X10975Y59805D02*
X11550D01*
X8804Y61356D02*
X10049Y62600D01*
X9375Y59805D02*
X11533Y61963D01*
X9526Y57834D02*
X10975Y59284D01*
X8804Y59805D02*
X9526D01*
X8804D02*
Y62600D01*
Y61708D02*
X10975Y59537D01*
X3650Y68929D02*
X4664Y69943D01*
X3650Y71105D02*
X4664Y70091D01*
Y65133D02*
Y69533D01*
X3650Y68984D02*
X4664Y67970D01*
X3650Y66863D02*
X4664Y65848D01*
X3650Y66808D02*
X4664Y67822D01*
X3650Y64687D02*
X4664Y65701D01*
X3650Y62620D02*
X5104Y61166D01*
X3650Y62565D02*
X5022Y63937D01*
X5104Y59805D02*
Y63584D01*
X4676Y59805D02*
X5104D01*
X3650Y60444D02*
X5104Y61898D01*
X3650Y60499D02*
X4676Y59473D01*
X3650Y58323D02*
X4676Y59349D01*
X9526Y55713D02*
X10975Y57163D01*
X9526Y58866D02*
X10975Y57416D01*
Y54956D02*
Y59805D01*
X9526Y54956D02*
Y59805D01*
X8659Y52725D02*
X10975Y55041D01*
X9526Y56744D02*
X10975Y55295D01*
X9193Y54956D02*
X11824Y52325D01*
X10975D02*
X15825D01*
X10975Y54956D02*
X15825D01*
X9926Y51870D02*
X13011Y54956D01*
X9926Y52102D02*
X10975Y51052D01*
X4276Y52725D02*
X9926D01*
X4676Y54956D02*
X9526D01*
X9302Y52725D02*
X9926Y52102D01*
X4676Y54956D02*
Y59805D01*
X3650Y58377D02*
X4676Y57351D01*
X4950Y54956D02*
X7181Y52725D01*
X4676Y55230D02*
X4950Y54956D01*
X3650Y56256D02*
X4676Y55230D01*
X3650Y56201D02*
X4676Y57227D01*
X3650Y54080D02*
X4676Y55106D01*
X6537Y52725D02*
X8768Y54956D01*
X4416Y52725D02*
X6647Y54956D01*
X7072D02*
X9302Y52725D01*
X3650Y54135D02*
X5060Y52725D01*
X3650Y51959D02*
X4276Y52585D01*
X3650Y52013D02*
X4276Y51387D01*
X32930Y47843D02*
X37265D01*
X34747Y46993D02*
X35597Y47843D01*
X34305Y44693D02*
X38148Y40850D01*
X33276Y47843D02*
X34126Y46993D01*
X32930D02*
X37265D01*
X32930Y47297D02*
X33475Y47843D01*
X31699Y39703D02*
X36690Y44693D01*
X34928Y40810D02*
X38724Y44606D01*
X32183Y44693D02*
X36026Y40850D01*
X34843Y36483D02*
X35505Y37145D01*
X33841Y36672D02*
X34258Y36254D01*
X29067Y44693D02*
X38379D01*
X30062D02*
X34081Y40674D01*
X29467Y39592D02*
X34568Y44693D01*
X32930Y46993D02*
Y47843D01*
X29467Y43835D02*
X30326Y44693D01*
X29467Y41714D02*
X32447Y44693D01*
X29467Y38864D02*
Y44199D01*
X29067D02*
X29467D01*
X29067D02*
Y44693D01*
X29467Y43167D02*
X32497Y40137D01*
X29467Y41045D02*
X31172Y39341D01*
X28739Y38864D02*
X29467Y39592D01*
Y38924D02*
X30066Y38326D01*
X27406Y38864D02*
X29174Y37096D01*
X25821Y38067D02*
X26618Y38864D01*
X31980Y34290D02*
X38388Y27882D01*
X31850Y27126D02*
X38437Y33712D01*
X31850Y32299D02*
X40833Y23316D01*
X31850Y28056D02*
X34791Y25115D01*
X31850Y25935D02*
X33816Y23968D01*
X31850Y22883D02*
X38401Y29434D01*
X31850Y30177D02*
X36677Y25350D01*
X31850Y29247D02*
X34595Y31992D01*
X31850Y25004D02*
X38419Y31573D01*
X32690Y35701D02*
X33248Y35144D01*
X31855Y33495D02*
X33117Y34757D01*
X31850Y31368D02*
X33418Y32937D01*
X31850Y29900D02*
Y33300D01*
X28150Y31500D02*
Y33300D01*
X27739Y31500D02*
X28150Y31911D01*
X31850Y31368D02*
X33418Y32937D01*
X28150Y11636D02*
Y28300D01*
X27638Y25035D02*
X28150Y25547D01*
X31850Y11636D02*
Y29900D01*
X26952Y26471D02*
X28150Y27668D01*
X27363Y28300D02*
X28150Y27513D01*
X26952Y26471D02*
X28150Y27668D01*
X23511Y47002D02*
X24533Y45980D01*
X21670Y47002D02*
X24533D01*
Y44199D02*
Y47002D01*
X24133Y44199D02*
X24533D01*
X19542Y48849D02*
X24192Y44199D01*
X16069Y38922D02*
X24149Y47002D01*
X16330Y37061D02*
X24533Y45264D01*
X25541Y38864D02*
X29467D01*
X25741Y38408D02*
X28519Y35630D01*
X23560Y40049D02*
X24133Y40622D01*
X21670Y47002D02*
Y50939D01*
X19505Y51008D02*
X21670Y48842D01*
X15825Y48324D02*
X24133Y40016D01*
X18282Y47988D02*
X24133Y42137D01*
X15389Y42484D02*
X21670Y48766D01*
X14372Y43589D02*
X21670Y50887D01*
X14552Y47475D02*
X22304Y39723D01*
X24133Y39963D02*
Y44199D01*
X15983Y40958D02*
X22028Y47002D01*
X12431Y47475D02*
X21322Y38584D01*
X16330Y34940D02*
X24133Y42743D01*
X25523Y36504D02*
X28171Y33857D01*
X24384Y35522D02*
X28150Y31756D01*
X23496Y31500D02*
X29297Y37301D01*
X25618Y31500D02*
X28190Y34072D01*
X16330Y31500D02*
X28150D01*
X15518Y42267D02*
X26285Y31500D01*
X21375D02*
X28739Y38864D01*
X25242Y28300D02*
X28150Y25392D01*
X25502Y27141D02*
X26660Y28300D01*
X16330D02*
X28150D01*
X19254Y31500D02*
X23133Y35379D01*
X17132Y31500D02*
X21757Y36124D01*
X23121Y28300D02*
X24435Y26985D01*
X17746Y25750D02*
X20296Y28300D01*
X16050Y39613D02*
X24163Y31500D01*
X16050Y32539D02*
X21151Y37640D01*
X16330Y37212D02*
X22042Y31500D01*
X21226Y24987D02*
X24539Y28300D01*
X20999D02*
X23287Y26013D01*
X18878Y28300D02*
X23047Y24131D01*
X19650Y25533D02*
X22418Y28300D01*
X31850Y20762D02*
X33701Y22613D01*
X31850Y23813D02*
X44334Y11329D01*
X34361Y16909D02*
X40833Y23381D01*
X31850Y16519D02*
X36082Y20751D01*
X31850Y18641D02*
X34500Y21291D01*
X31850Y21692D02*
X42213Y11329D01*
X31850Y19571D02*
X34491Y16930D01*
X31850Y17449D02*
X33089Y16211D01*
X31850Y15328D02*
X32453Y14725D01*
X27485Y23935D02*
X28150Y23271D01*
X31850Y12276D02*
X32855Y13281D01*
X31850Y14398D02*
X32491Y15039D01*
X26650Y14164D02*
X28150Y12664D01*
X26667Y12491D02*
X26671Y11663D01*
X26994D02*
X28150Y12819D01*
X31850Y11636D02*
X32267D01*
X27733D02*
X28150D01*
X27067Y11146D02*
X27733D01*
X27067D02*
Y11663D01*
X26671D02*
X27067D01*
X26669Y12023D02*
X27029Y11663D01*
X27067Y11625D02*
X27547Y11146D01*
X34916Y11100D02*
X45112Y21296D01*
X34925Y12253D02*
X36078Y11100D01*
X32667Y4609D02*
X35459Y7400D01*
X32795Y11100D02*
X34063Y12369D01*
X32267Y11100D02*
X38533D01*
X31850Y13207D02*
X33956Y11100D01*
X32667Y7400D02*
X37896D01*
X33414D02*
X34655Y6160D01*
X35003Y1569D02*
X35221Y1350D01*
X33651D02*
X34151Y1850D01*
X32667Y6025D02*
X33404Y5289D01*
X32667Y6730D02*
X33338Y7400D01*
X32667Y3904D02*
X32969Y3603D01*
X32267Y11100D02*
Y11636D01*
X31530Y1350D02*
X33144Y2964D01*
X32667Y2764D02*
Y7400D01*
X27733Y11146D02*
Y11636D01*
X29565Y2764D02*
X30979Y1350D01*
X29409D02*
X30823Y2764D01*
X31686D02*
X33100Y1350D01*
X27333Y2764D02*
X32667D01*
X27443D02*
X28857Y1350D01*
X27287D02*
X28702Y2764D01*
X26513Y22787D02*
X28150Y21149D01*
X24663Y22060D02*
X25065Y22462D01*
X24631Y22547D02*
X28150Y19028D01*
X25470Y20746D02*
X28150Y23426D01*
X22564Y24204D02*
X22959Y24598D01*
X26643Y16293D02*
X28150Y14785D01*
X26650Y15562D02*
X28150Y17062D01*
X26650Y13441D02*
X28150Y14941D01*
X26650Y12573D02*
Y15900D01*
X26520Y17553D02*
X28150Y19183D01*
X26101Y19256D02*
X28150Y21304D01*
X26238Y18819D02*
X28150Y16907D01*
X20128Y19647D02*
X21081Y20599D01*
X20128Y19647D02*
X21081Y20599D01*
X21612Y19010D02*
X21993Y19390D01*
X18909Y21905D02*
X22516Y18298D01*
X22205Y16488D02*
X22950Y15743D01*
X22330Y17606D02*
X22645Y17921D01*
X22950Y12572D02*
Y15900D01*
X21257Y15314D02*
X22950Y13622D01*
X18962Y12116D02*
X22947Y16102D01*
X22930Y11663D02*
X22933Y12490D01*
X22533Y11663D02*
X22930D01*
X22533Y11445D02*
X22752Y11663D01*
X19430Y15020D02*
X22787Y11663D01*
X19800Y11146D02*
X22533D01*
X20113D02*
X22950Y13983D01*
X25295Y2792D02*
X26736Y1350D01*
X25166D02*
X26608Y2792D01*
X23173D02*
X24615Y1350D01*
X22133Y2792D02*
X27333D01*
X23045Y1350D02*
X24487Y2792D01*
X5149Y1350D02*
X50000D01*
X22533Y11146D02*
Y11663D01*
X22234Y11146D02*
X22533Y11445D01*
X22133Y2792D02*
Y7446D01*
X20640D02*
X22133Y5954D01*
X19800Y7446D02*
X22133D01*
X18584Y13745D02*
X21183Y11146D01*
X19362Y6152D02*
X20656Y7446D01*
X20923Y1350D02*
X22365Y2792D01*
X19362Y6603D02*
X22133Y3832D01*
X19043Y4800D02*
X22493Y1350D01*
X16681D02*
X22133Y6802D01*
X16922Y4800D02*
X20372Y1350D01*
X18802D02*
X22133Y4681D01*
X15825Y48550D02*
X16493D01*
X15825Y47475D02*
Y48550D01*
X12954Y44293D02*
X16892Y48230D01*
X10975Y47475D02*
X15825D01*
X9926Y47859D02*
X13867Y43918D01*
X16050Y39070D02*
Y40210D01*
X12350Y39059D02*
Y40210D01*
X10990Y44450D02*
X14016Y47475D01*
X10671Y40750D02*
X12350Y39071D01*
X9926Y49980D02*
X10975Y48931D01*
X9926Y49749D02*
X10975Y50799D01*
Y47475D02*
Y52325D01*
X9926Y47075D02*
Y52725D01*
Y47628D02*
X10975Y48677D01*
X9373Y47075D02*
X9926Y47628D01*
X8869Y44450D02*
X11894Y47475D01*
X8588Y47075D02*
X11213Y44450D01*
X12322Y38030D02*
X12333Y38981D01*
X8134Y38030D02*
X12071D01*
X7516Y40750D02*
X11810D01*
X7516Y44450D02*
X11810D01*
X16330Y33770D02*
Y38030D01*
X16066Y39001D02*
X16101Y38030D01*
X16330Y35091D02*
X19921Y31500D01*
X16050Y33249D02*
X17799Y31500D01*
X11286Y33770D02*
X12350Y32707D01*
X10934Y38030D02*
X12350Y39446D01*
X16050Y32129D02*
Y33770D01*
X16330Y27871D02*
Y28300D01*
Y31500D02*
Y32129D01*
X16757Y28300D02*
X19487Y25569D01*
X16430Y25776D02*
Y26129D01*
X16050Y26175D02*
X18175Y28300D01*
X16050Y26129D02*
Y27871D01*
Y26885D02*
X17168Y25768D01*
X8813Y38030D02*
X11533Y40750D01*
X8549D02*
X11270Y38030D01*
X12350Y32129D02*
Y33770D01*
X8134Y37050D02*
Y38030D01*
X7138Y40040D02*
X9149Y38030D01*
X7833Y37050D02*
X8134Y37350D01*
Y33770D02*
Y34750D01*
X9277Y32129D02*
X10917Y33770D01*
X9165D02*
X10806Y32129D01*
X11398D02*
X12350Y33082D01*
X8134Y32129D02*
X12071D01*
X8134Y33770D02*
X12071D01*
X7416Y31850D02*
X8134D01*
X6847Y44549D02*
X9373Y47075D01*
X4346D02*
X6871Y44550D01*
X6467Y47075D02*
X9092Y44450D01*
X4276Y47075D02*
X9926D01*
X3650Y43474D02*
X7252Y47075D01*
X3650Y45649D02*
X5424Y43875D01*
X3650Y47716D02*
X4276Y48342D01*
X3650Y49892D02*
X4276Y49266D01*
Y47075D02*
Y52725D01*
X3650Y41849D02*
Y73100D01*
Y49837D02*
X4276Y50463D01*
X1350Y37266D02*
Y73100D01*
Y37266D02*
Y73100D01*
X3650Y45595D02*
X5130Y47075D01*
X4416Y42118D02*
X4951Y42653D01*
X3650Y43528D02*
X4995Y42183D01*
X3650Y47771D02*
X4276Y47145D01*
X5712Y37050D02*
X9412Y40750D01*
X6674Y38382D02*
X8007Y37050D01*
X6064Y34750D02*
X8685Y32129D01*
X5406Y37530D02*
X5885Y37050D01*
X3866Y34750D02*
X8134D01*
X3866Y37050D02*
X8134D01*
X3650Y30746D02*
X7654Y34750D01*
X6968Y31943D02*
X8796Y33770D01*
X3943Y34750D02*
X6744Y31949D01*
X4950Y21549D02*
Y29384D01*
X3650Y32867D02*
X5533Y34750D01*
X3650Y32921D02*
X5312Y31260D01*
X3650Y26557D02*
X4950Y25258D01*
X3686Y37146D02*
X4098Y37557D01*
X3650Y37266D02*
Y37751D01*
X1350Y34534D02*
Y37266D01*
Y7824D02*
Y34534D01*
X3650Y30800D02*
X4903Y29547D01*
X3650Y28624D02*
X4857Y29831D01*
X3650Y16690D02*
Y34534D01*
Y26503D02*
X4950Y27803D01*
X3650Y28679D02*
X4950Y27379D01*
X1350Y7824D02*
Y34534D01*
X17344Y22050D02*
X17777D01*
X17334Y25750D02*
X17777D01*
X16680Y22013D02*
X19188Y19505D01*
X15322Y19083D02*
X18263Y22024D01*
X14701Y21870D02*
X18014Y18557D01*
X16338Y17978D02*
X19884Y21524D01*
X17399Y16917D02*
X17653Y17172D01*
X17399Y16917D02*
X17653Y17172D01*
X15177Y19273D02*
X17720Y16730D01*
X16430Y25776D02*
X17256Y25767D01*
X16050Y26129D02*
X16430D01*
Y22004D02*
X17276Y22034D01*
X14038Y19920D02*
X15988Y21870D01*
X12493D02*
X16430D01*
X12213Y21337D02*
Y21870D01*
X12580D02*
X14973Y19477D01*
X12481Y20485D02*
X13867Y21870D01*
X15444Y18872D02*
X17498Y16819D01*
X12866Y16217D02*
X14884Y14200D01*
X10316Y16198D02*
X11016Y16898D01*
X18962Y10945D02*
Y13200D01*
X19362Y4800D02*
Y7499D01*
X18584Y13860D02*
X19694Y14970D01*
X18584Y13200D02*
Y14200D01*
Y13200D02*
X18962D01*
X15819Y4800D02*
X19362D01*
X14800Y4800D02*
X18251Y1350D01*
X12679Y4800D02*
X16130Y1350D01*
X12438D02*
X15889Y4800D01*
X14559Y1350D02*
X18010Y4800D01*
X11397Y16689D02*
X14487Y13600D01*
X11960D02*
X13722Y15362D01*
X14081Y13600D02*
X14783Y14301D01*
X14081Y13600D02*
X14783Y14301D01*
X10316Y14077D02*
X12524Y16285D01*
X10316Y15649D02*
X12365Y13600D01*
X10316D02*
Y17406D01*
X14884Y13600D02*
Y14200D01*
X14106Y4800D02*
X15819D01*
X10558Y4800D02*
X14008Y1350D01*
X10317D02*
X13767Y4800D01*
X6391Y16516D02*
X6616Y16741D01*
X10316Y13600D02*
X14884D01*
X6616Y16305D02*
Y17526D01*
X3650Y20193D02*
X6616Y17227D01*
X4802Y17048D02*
X6298Y18544D01*
X6238Y11041D02*
Y12768D01*
X5838Y11041D02*
X6238D01*
X5119Y12360D02*
X6238Y11241D01*
X3650Y9532D02*
X6238Y12121D01*
X3650Y24436D02*
X4950Y23136D01*
X3650Y24382D02*
X4950Y25682D01*
X3650Y22260D02*
X4950Y23560D01*
X3650Y22315D02*
X4993Y20972D01*
X3650Y20139D02*
X4952Y21441D01*
X3650Y18018D02*
X5387Y19755D01*
X3650Y11708D02*
X5838Y9520D01*
X3650Y18072D02*
X4682Y17040D01*
X3650Y11654D02*
X4400Y12404D01*
X3650Y7880D02*
Y12710D01*
X4701Y4220D02*
X5973Y5491D01*
X4030Y7791D02*
X5838Y9599D01*
X5625Y5491D02*
X9766Y1350D01*
X4701Y4220D02*
X5973Y5491D01*
X3908D02*
X6238D01*
X3908Y7791D02*
X5838D01*
X3467Y5527D02*
X7644Y1350D01*
X9381Y4800D02*
X15819D01*
X9381D02*
Y5200D01*
X8037D02*
X11887Y1350D01*
X8196D02*
X11646Y4800D01*
X6238Y5200D02*
X9381D01*
X5427Y2825D02*
X7803Y5200D01*
X6074Y1350D02*
X9525Y4800D01*
X5838Y7791D02*
Y11041D01*
X3650Y9587D02*
X5446Y7791D01*
X1350Y5111D02*
X2275Y6036D01*
X1350Y5523D02*
X2201Y4671D01*
X1350Y4068D02*
Y7824D01*
X3208Y4848D02*
X3852Y5491D01*
X5271Y1602D02*
X5523Y1350D01*
X40700Y30700D02*
X43560D01*
X46727Y39500D02*
Y42300D01*
X45152Y39500D02*
Y42300D01*
X47900Y30800D02*
X50800D01*
X43500Y27900D02*
X43560D01*
X23900Y89200D02*
X23916D01*
X25884D02*
X25900D01*
X95000Y114800D02*
X95100Y114900D01*
X48300Y75800D02*
X48400Y75900D01*
X17700Y114729D02*
X17871Y114900D01*
X30700Y114857D02*
X30743Y114900D01*
X43600Y114886D02*
X43614Y114900D01*
X56486D02*
X56500Y114886D01*
X69357Y114900D02*
X69500Y114757D01*
X82228Y114900D02*
X82300Y114829D01*
D11*
X35700Y39000D02*
G03*
X30000Y33300I0J-5700D01*
G01*
X78242Y52700D02*
G03*
X73390Y50690I0J-6861D01*
G01*
X10363Y21337D02*
G03*
X13700Y18000I3337J0D01*
G01*
X42197Y91400D02*
G03*
X39300Y90200I0J-4097D01*
G01*
X36886Y89200D02*
G03*
X39300Y90200I0J3414D01*
G01*
X6800Y21549D02*
G03*
X7400Y20100I2049J0D01*
G01*
X8466Y17526D02*
G03*
X7400Y20100I-3640J0D01*
G01*
X67100Y35600D02*
G03*
X68500Y34200I1400J0D01*
G01*
X95000Y72900D02*
G03*
X92000Y75900I-3000J0D01*
G01*
X88600Y34200D02*
G03*
X95000Y40600I0J6400D01*
G01*
X16734Y14200D02*
G03*
X16192Y15508I-1850J0D01*
G01*
X24800Y15900D02*
G03*
X22254Y22046I-8691J0D01*
G01*
D02*
G03*
X17777Y23900I-4477J-4477D01*
G01*
X13500Y41900D02*
G03*
X11810Y42600I-1690J-1690D01*
G01*
X14200Y40210D02*
G03*
X13500Y41900I-2390J0D01*
G01*
X30000Y9396D02*
Y29900D01*
Y33300D01*
X6954Y64200D02*
Y71800D01*
Y57240D02*
Y64200D01*
X6900Y42600D02*
X11810D01*
X47900Y34200D02*
Y36668D01*
X28816Y75800D02*
X31800D01*
X13700Y18000D02*
X16192Y15508D01*
X10363Y21337D02*
Y24000D01*
X43560Y27900D02*
Y30700D01*
Y34200D02*
Y36600D01*
X31800Y75800D02*
Y81863D01*
X48000Y91400D02*
X48031D01*
X44400D02*
X48000D01*
X42197D02*
X44400D01*
X35900Y89200D02*
X36886D01*
X6800Y21549D02*
Y30000D01*
X8466Y12200D02*
Y17526D01*
X6800Y30000D02*
X10263D01*
X10300Y24000D02*
X10363D01*
X35700Y39000D02*
X42077D01*
X68500Y34200D02*
X88600D01*
X67100Y35600D02*
Y38000D01*
X79900Y75900D02*
X92000D01*
X95000Y40600D02*
Y72900D01*
X14200Y29934D02*
Y35900D01*
Y23900D02*
Y29934D01*
X19800Y9296D02*
X30000D01*
X28400Y89200D02*
X31800D01*
X25900D02*
X28400D01*
X30146Y9250D02*
X40663D01*
X13400Y57380D02*
Y61400D01*
X43560Y30700D02*
Y34200D01*
X47900Y30800D02*
Y34200D01*
Y28000D02*
Y30800D01*
X31800Y75800D02*
X36100D01*
X31800Y89200D02*
X35900D01*
X48000Y81900D02*
Y91400D01*
X16734Y12200D02*
Y14200D01*
X23916Y89200D02*
X25884D01*
X7000D02*
X23900D01*
X31800Y85800D02*
Y89200D01*
X24800Y9396D02*
Y15900D01*
X14200Y35900D02*
Y40210D01*
X14175Y23900D02*
X14200D01*
X60900Y28468D02*
Y32131D01*
X60865Y9104D02*
Y24577D01*
X36100Y75800D02*
X48300D01*
X48031Y91400D02*
Y96500D01*
X60865Y5049D02*
X82281D01*
X14200Y23900D02*
X17777D01*
X52002Y75900D02*
X79900D01*
D12*
X72158Y49458D02*
G03*
X72159Y49459I-1123J1125D01*
G01*
X71034Y48993D02*
G03*
X72158Y49458I0J1590D01*
G01*
X44906Y38906D02*
G03*
X45152Y39500I-594J594D01*
G01*
X46727D02*
G03*
X47099Y38601I1272J0D01*
G01*
X82538Y49462D02*
G03*
X82537Y49463I-231J-230D01*
G01*
X82633Y49233D02*
G03*
X82538Y49462I-325J0D01*
G01*
X71000Y46200D02*
G03*
X69782Y47418I-1218J0D01*
G01*
X67593Y48993D02*
X71034D01*
X72158Y49459D02*
X73390Y50690D01*
X72158Y49458D02*
X72158Y49459D01*
X71000Y44400D02*
Y44428D01*
X82537Y49463D02*
X82538Y49462D01*
X81797Y40597D02*
Y40603D01*
X67593Y47418D02*
X69782D01*
D13*
X47900Y36668D02*
G03*
X47099Y38601I-2734J0D01*
G01*
X44239Y38239D02*
G03*
X43560Y36600I1639J-1639D01*
G01*
X72948Y66000D02*
G03*
X71500Y65400I0J-2049D01*
G01*
X69909Y64741D02*
G03*
X71500Y65400I0J2250D01*
G01*
X73000Y62500D02*
G03*
X71392Y63166I-1608J-1608D01*
G01*
X73000Y62500D02*
G03*
X73724Y62200I724J724D01*
G01*
X89963Y114900D02*
X94900D01*
X95000Y101400D02*
Y103500D01*
X97100D01*
X92900D02*
X95000D01*
X63200Y102900D02*
X65300D01*
X92900Y89200D02*
Y100042D01*
X85994Y89200D02*
X92900D01*
X79700Y90200D02*
X81800D01*
X79700D02*
Y92300D01*
Y88100D02*
Y90200D01*
X77600D02*
X79700D01*
X92900Y78357D02*
Y89200D01*
X79900Y79837D02*
Y82254D01*
Y79837D02*
X82317D01*
X77483D02*
X79900D01*
X74200Y98800D02*
X76300D01*
X74200Y96700D02*
Y98800D01*
X75400Y86329D02*
X77500D01*
X75400D02*
Y88429D01*
Y84229D02*
Y86329D01*
X73300D02*
X75400D01*
X74200Y98800D02*
Y100900D01*
X72100Y98800D02*
X74200D01*
X64100Y94900D02*
X66200D01*
X62000D02*
X64100D01*
Y97000D01*
X73400Y79869D02*
Y82286D01*
Y79869D02*
X75817D01*
X70983D02*
X73400D01*
X67300D02*
Y82286D01*
Y79869D02*
X69717D01*
X64883D02*
X67300D01*
X61100Y102900D02*
X63200D01*
Y105000D01*
Y100800D02*
Y102900D01*
X64100Y92800D02*
Y94900D01*
X50100Y102300D02*
X52200D01*
X50100D02*
Y104400D01*
X48000Y102300D02*
X50100D01*
Y100200D02*
Y102300D01*
X51968Y96500D02*
X54386D01*
X51968D02*
Y98917D01*
X36500Y100700D02*
X38600D01*
X36500D02*
Y102800D01*
Y98600D02*
Y100700D01*
X37000Y95100D02*
Y97200D01*
Y93000D02*
Y95100D01*
X39100D01*
X56700Y84400D02*
Y86500D01*
Y88600D01*
Y86500D02*
X58800D01*
X51968Y91400D02*
X54386D01*
X51868Y81900D02*
X54286D01*
X61400Y79837D02*
X63817D01*
X61400D02*
Y82254D01*
X58983Y79837D02*
X61400D01*
X51868Y79483D02*
Y81900D01*
X41300Y85600D02*
X43400D01*
X39200D02*
X41300D01*
Y87700D01*
X44500Y78700D02*
X46600D01*
X44500D02*
Y80800D01*
X41300Y83500D02*
Y85600D01*
X40900Y79737D02*
Y82154D01*
X36100Y79737D02*
Y82154D01*
X90168Y70300D02*
X92448D01*
X90168D02*
Y72579D01*
Y68020D02*
Y70300D01*
X90500Y49300D02*
Y51400D01*
Y49300D02*
X92600D01*
X90500Y47200D02*
Y49300D01*
X90900Y42000D02*
Y44100D01*
Y39900D02*
Y42000D01*
X88800D02*
X90900D01*
X67593Y58442D02*
X70168D01*
X67593Y44450D02*
Y45843D01*
X35900Y69400D02*
X38000D01*
X35900Y67300D02*
Y69400D01*
X37459Y47418D02*
X40034D01*
X43500Y21546D02*
Y23963D01*
X45800Y20500D02*
X47900D01*
X41083Y23963D02*
X43500D01*
X47900Y18400D02*
Y20500D01*
X35400Y34200D02*
X37500D01*
X35400D02*
Y36300D01*
Y32100D02*
Y34200D01*
X36000Y23100D02*
X38100D01*
X36000D02*
Y25200D01*
Y21000D02*
Y23100D01*
X40563Y2483D02*
Y4900D01*
X38146D02*
X40563D01*
X35300Y3900D02*
Y6000D01*
Y3900D02*
X37400D01*
X35300Y1800D02*
Y3900D01*
X34400Y100700D02*
X36500D01*
X24000Y100300D02*
X26100D01*
X24000D02*
Y102400D01*
Y98200D02*
Y100300D01*
X34900Y95100D02*
X37000D01*
X21900Y100300D02*
X24000D01*
X22246Y76416D02*
X23916D01*
X20200Y84000D02*
X22300D01*
X33800Y69400D02*
X35900D01*
X30300Y68437D02*
X32717D01*
X30300D02*
Y70854D01*
X27883Y68437D02*
X30300D01*
X28000Y58400D02*
X30100D01*
X30800Y53037D02*
X33079D01*
X30800D02*
Y55317D01*
X28000Y56300D02*
Y58400D01*
X28521Y53037D02*
X30800D01*
X25900Y58400D02*
X28000D01*
X20200Y84000D02*
Y86100D01*
Y81900D02*
Y84000D01*
X18100D02*
X20200D01*
X10869Y71800D02*
X13286D01*
X3400Y101400D02*
Y103500D01*
X18100Y69500D02*
X20200D01*
X18100D02*
Y71600D01*
Y67400D02*
Y69500D01*
X16000D02*
X18100D01*
X19500Y58100D02*
X21600D01*
X19500D02*
Y60200D01*
X17400Y58100D02*
X19500D01*
Y56000D02*
Y58100D01*
X10869Y67400D02*
X13286D01*
X26800Y41532D02*
X29217D01*
X26800Y39114D02*
Y41532D01*
X33300Y34200D02*
X35400D01*
X24383Y41532D02*
X26800D01*
X23500Y37700D02*
X25600D01*
X23500D02*
Y39800D01*
Y35600D02*
Y37700D01*
X21400D02*
X23500D01*
X25300Y24800D02*
X27400D01*
X25300Y22700D02*
Y24800D01*
X23200D02*
X25300D01*
Y26900D01*
X33900Y23100D02*
X36000D01*
X34800Y14600D02*
X36900D01*
X34800D02*
Y16700D01*
Y12500D02*
Y14600D01*
X32700D02*
X34800D01*
X33200Y3900D02*
X35300D01*
X30000Y5432D02*
X32417D01*
X30000Y3014D02*
Y5432D01*
X20000Y17300D02*
X22100D01*
X22383Y5459D02*
X24800D01*
Y3042D02*
Y5459D01*
X7101Y49900D02*
X9676D01*
X7101D02*
Y52475D01*
Y47325D02*
Y49900D01*
X4526D02*
X7101D01*
X4800Y39800D02*
X6900D01*
X4800Y37700D02*
Y39800D01*
Y41900D01*
X20000Y17300D02*
Y19400D01*
X17900Y17300D02*
X20000D01*
Y15200D02*
Y17300D01*
X16734Y6641D02*
X19112D01*
X16734Y5050D02*
Y6641D01*
X12600Y9200D02*
Y13350D01*
Y5050D02*
Y9200D01*
X6088D02*
X8466D01*
X4900Y12600D02*
Y14700D01*
Y16800D01*
X3100Y2500D02*
X5200D01*
X3100D02*
Y4600D01*
X44239Y38239D02*
X44906Y38906D01*
X25884Y76416D02*
X28816Y75800D01*
X23800Y52650D02*
Y56300D01*
X73724Y62200D02*
X75500D01*
X72948Y66000D02*
X75500D01*
X13400Y49900D02*
X17900D01*
X25884Y78384D02*
Y82400D01*
X23916Y78384D02*
Y82500D01*
D14*
X83000Y56600D02*
G03*
X87500Y61100I0J4500D01*
G01*
X79900Y56600D02*
G03*
X73925Y54125I0J-8450D01*
G01*
X81223Y61000D02*
G03*
X74867Y58367I0J-8989D01*
G01*
X21700Y62500D02*
G03*
X17596Y64200I-4104J-4104D01*
G01*
X21700Y62500D02*
G03*
X23894Y61591I2194J2194D01*
G01*
X68800Y71600D02*
G03*
X70100Y70300I1300J0D01*
G01*
X68800Y71600D02*
G03*
X67500Y72900I-1300J0D01*
G01*
X29900Y29900D02*
X30000D01*
X14275D02*
X29900D01*
X6954Y64200D02*
X17596D01*
X79900Y56600D02*
X83000D01*
X81223Y61000D02*
X84475D01*
X70442Y53942D02*
X74867Y58367D01*
X71000Y44428D02*
Y46200D01*
X43500Y23963D02*
X47800D01*
X47900Y20500D02*
Y24063D01*
X79565Y70300D02*
X86200D01*
X23894Y61591D02*
X34100D01*
X87500Y61100D02*
Y65805D01*
X70100Y70300D02*
X75400D01*
X55300Y72900D02*
X67500D01*
D15*
X49100Y12556D02*
G03*
X48000Y9900I2656J-2656D01*
G01*
X52900Y23600D02*
G03*
X50000Y16599I7001J-7001D01*
G01*
X52900Y23600D02*
G03*
X54300Y26980I-3380J3380D01*
G01*
X49100Y12556D02*
G03*
X50000Y14729I-2173J2173D01*
G01*
X44600Y9200D02*
G03*
X44700Y9100I100J0D01*
G01*
X44500Y4900D02*
G03*
X44600Y5141I-241J241D01*
G01*
X88297Y44603D02*
G03*
X86530Y45335I-1767J-1767D01*
G01*
X84716Y60900D02*
G03*
X84475Y61000I-241J-241D01*
G01*
X69900Y53717D02*
G03*
X70442Y53942I0J766D01*
G01*
X47800Y23963D02*
G03*
X47900Y24063I0J100D01*
G01*
X54300Y38300D02*
G03*
X53000Y39600I-1300J0D01*
G01*
X48302Y40398D02*
G03*
X49100Y39600I798J0D01*
G01*
X58789Y37792D02*
G03*
X59325Y39160I-1480J1369D01*
G01*
X58789Y37792D02*
G03*
X57100Y33714I4078J-4078D01*
G01*
X64700Y34544D02*
G03*
X63600Y37200I-3756J0D01*
G01*
X62475Y39917D02*
G03*
X63600Y37200I3842J0D01*
G01*
X24000Y73900D02*
G03*
X22069Y74700I-1931J-1931D01*
G01*
X24000Y73900D02*
G03*
X26656Y72800I2656J2656D01*
G01*
X35400Y64000D02*
G03*
X34193Y64500I-1207J-1207D01*
G01*
X35400Y64000D02*
G03*
X37413Y63166I2013J2013D01*
G01*
X56800Y38000D02*
G03*
X57750Y38950I0J950D01*
G01*
X42077Y39000D02*
G03*
X43577Y40500I0J1500D01*
G01*
X45152Y47418D02*
G03*
X53813Y56080I0J8661D01*
G01*
X56176Y58442D02*
G03*
X53813Y56080I0J-2362D01*
G01*
X56176Y53717D02*
G03*
X53813Y56080I-2362J0D01*
G01*
X59325Y50568D02*
G03*
X53813Y56080I-5512J0D01*
G01*
X59325Y46907D02*
G03*
X62475Y45933I4488J8936D01*
G01*
X64050Y39250D02*
G03*
X65300Y38000I1250J0D01*
G01*
X14200Y29934D02*
G03*
X14275Y29900I75J66D01*
G01*
X14175Y30000D02*
G03*
X14200Y29934I100J0D01*
G01*
X70447Y52143D02*
G03*
X73000Y53200I0J3610D01*
G01*
X62475Y45933D02*
G03*
X63813Y45843I1339J9910D01*
G01*
X55300Y72900D02*
G03*
X54601Y72201I0J-699D01*
G01*
X53026Y74876D02*
G03*
X52002Y75900I-1024J0D01*
G01*
X46727Y72273D02*
G03*
X46200Y72800I-527J0D01*
G01*
X2800Y7100D02*
G03*
X3908Y6641I1108J1108D01*
G01*
X2500Y7824D02*
G03*
X2800Y7100I1024J0D01*
G01*
X7000Y100261D02*
G03*
X5700Y103400I-4439J0D01*
G01*
X5000Y105090D02*
G03*
X5700Y103400I2390J0D01*
G01*
X2500Y37266D02*
G03*
X3866Y35900I1366J0D01*
G01*
D02*
G03*
X2900Y35500I0J-1366D01*
G01*
D02*
G03*
X2500Y34534I966J-966D01*
G01*
X4100Y74700D02*
G03*
X2500Y73100I0J-1600D01*
G01*
X51900Y86500D02*
X56700D01*
X44700Y9100D02*
X48000D01*
Y9900D01*
X50000Y14729D02*
Y16599D01*
X54300Y26980D02*
Y38300D01*
X44600Y5141D02*
Y9200D01*
X88297Y44603D02*
X90900Y42000D01*
X67593Y53717D02*
X69900D01*
X74867Y58367D02*
Y58367D01*
X34100Y61591D02*
X40034D01*
X77900Y44500D02*
Y44900D01*
X90495Y49300D02*
X90500D01*
X48302Y40398D02*
Y42300D01*
X49100Y39600D02*
X53000D01*
X57100Y32000D02*
Y33714D01*
X56300Y38000D02*
X56800D01*
X64700Y32000D02*
Y34544D01*
X59325Y42300D02*
Y46907D01*
Y39160D02*
Y42300D01*
X62475D02*
Y45933D01*
Y39917D02*
Y42300D01*
X4100Y74700D02*
X22069D01*
X26656Y72800D02*
X46200D01*
X30300Y64500D02*
X34193D01*
X37413Y63166D02*
X40034D01*
X57750Y38950D02*
Y42300D01*
X56176D02*
Y53717D01*
X59325Y50568D02*
X67593D01*
X59325Y46907D02*
Y50568D01*
X65300Y38000D02*
X67100D01*
X64050Y39250D02*
Y42300D01*
X43577Y40500D02*
Y42300D01*
X43600Y103500D02*
Y114886D01*
X82300Y103500D02*
Y114829D01*
Y103400D02*
Y103500D01*
X30700D02*
Y114857D01*
Y103400D02*
Y103500D01*
X69500D02*
Y114757D01*
Y103400D02*
Y103500D01*
X56500D02*
Y114886D01*
Y103400D02*
Y103500D01*
X67593Y52143D02*
X70447D01*
X73000Y53200D02*
X73925Y54125D01*
X30000Y9396D02*
X30146Y9250D01*
X67593Y63166D02*
X71392D01*
X67593Y64741D02*
X69909D01*
X26800Y45843D02*
X40034D01*
X56176Y58442D02*
X67593D01*
X63813Y45843D02*
X67593D01*
X40034Y47418D02*
X45152D01*
X23900Y48993D02*
X40034D01*
X23900D02*
Y49000D01*
X54601Y69859D02*
Y72201D01*
X53026Y69859D02*
Y74876D01*
X46727Y69859D02*
Y72273D01*
X60900Y36068D02*
Y42300D01*
X16734Y9200D02*
X19568D01*
X3908Y6641D02*
X8466D01*
X2500Y7824D02*
Y34534D01*
X8466Y9200D02*
X12600D01*
Y7100D02*
Y9200D01*
Y7100D02*
X13059Y6641D01*
X16734D01*
X17700Y103400D02*
Y114729D01*
X95000Y103400D02*
Y114800D01*
X7000Y89200D02*
Y100261D01*
X5000Y105090D02*
Y115000D01*
X3866Y35900D02*
X10263D01*
X2500Y37266D02*
Y73100D01*
D16*
X40663Y9200D02*
D03*
X44600D02*
D03*
X86231Y70300D02*
D03*
X90168D02*
D03*
X14200Y35900D02*
D03*
X10263D02*
D03*
Y30000D02*
D03*
X14200D02*
D03*
X10363Y24000D02*
D03*
X14300D02*
D03*
D17*
X60900Y36068D02*
D03*
Y32131D02*
D03*
X31800Y85800D02*
D03*
Y81863D02*
D03*
X23800Y53069D02*
D03*
Y49132D02*
D03*
X30800Y49100D02*
D03*
Y53037D02*
D03*
D18*
X47963Y86500D02*
D03*
X51900D02*
D03*
X47932Y81900D02*
D03*
X51868D02*
D03*
X6932Y71800D02*
D03*
X10869D02*
D03*
X6932Y67400D02*
D03*
X10869D02*
D03*
X44500Y4900D02*
D03*
X40563D02*
D03*
X51968Y96500D02*
D03*
X48031D02*
D03*
X51968Y91400D02*
D03*
X48031D02*
D03*
X64768Y14268D02*
D03*
X60831D02*
D03*
D19*
X7100Y89100D02*
D03*
X92900Y89200D02*
D03*
D20*
X73400Y75932D02*
D03*
Y79869D02*
D03*
X67300Y75932D02*
D03*
Y79869D02*
D03*
X40900Y75800D02*
D03*
Y79737D02*
D03*
X30300Y64500D02*
D03*
Y68437D02*
D03*
X26800Y45469D02*
D03*
Y41532D02*
D03*
X24800Y9396D02*
D03*
Y5459D02*
D03*
X30000Y9369D02*
D03*
Y5432D02*
D03*
X36100Y75800D02*
D03*
Y79737D02*
D03*
X79900Y79837D02*
D03*
Y75900D02*
D03*
X61400Y79837D02*
D03*
Y75900D02*
D03*
X60865Y24577D02*
D03*
Y28514D02*
D03*
X43500Y23963D02*
D03*
Y27900D02*
D03*
X47900Y24063D02*
D03*
Y28000D02*
D03*
D21*
X43577Y69859D02*
D03*
X45152D02*
D03*
X46727D02*
D03*
X48302D02*
D03*
X49876D02*
D03*
X51451D02*
D03*
X53026D02*
D03*
X54601D02*
D03*
X56176D02*
D03*
X57750D02*
D03*
X59325D02*
D03*
X60900D02*
D03*
X62475D02*
D03*
X64050D02*
D03*
X43577Y42300D02*
D03*
X45152D02*
D03*
X46727D02*
D03*
X48302D02*
D03*
X49876D02*
D03*
X51451D02*
D03*
X53026D02*
D03*
X54601D02*
D03*
X56176D02*
D03*
X57750D02*
D03*
X59325D02*
D03*
X60900D02*
D03*
X62475D02*
D03*
X64050D02*
D03*
D22*
X67593Y45843D02*
D03*
Y47418D02*
D03*
Y48993D02*
D03*
Y50568D02*
D03*
Y52143D02*
D03*
Y53717D02*
D03*
Y55292D02*
D03*
Y56867D02*
D03*
Y58442D02*
D03*
Y60017D02*
D03*
Y61591D02*
D03*
Y63166D02*
D03*
Y64741D02*
D03*
Y66316D02*
D03*
X40034D02*
D03*
Y64741D02*
D03*
Y63166D02*
D03*
Y61591D02*
D03*
Y60017D02*
D03*
Y58442D02*
D03*
Y56867D02*
D03*
Y55292D02*
D03*
Y53717D02*
D03*
Y52143D02*
D03*
Y50568D02*
D03*
Y48993D02*
D03*
Y47418D02*
D03*
Y45843D02*
D03*
D23*
X53813Y56080D02*
D03*
D24*
X82300Y5068D02*
D03*
X95710D02*
D03*
D25*
X47947Y75900D02*
D03*
X52002D02*
D03*
X60872Y19268D02*
D03*
X64928D02*
D03*
D26*
X8466Y11759D02*
D03*
Y9200D02*
D03*
Y6641D02*
D03*
X16734Y11759D02*
D03*
Y9200D02*
D03*
Y6641D02*
D03*
D27*
X12600Y9200D02*
D03*
D28*
X7101Y49900D02*
D03*
Y57380D02*
D03*
X13400D02*
D03*
Y49900D02*
D03*
D29*
X77900Y44500D02*
D03*
X82633Y49233D02*
D03*
X86530Y45335D02*
D03*
X81797Y40603D02*
D03*
D30*
X43560Y34200D02*
D03*
X47900D02*
D03*
D31*
X79565Y70300D02*
D03*
X75400D02*
D03*
D32*
X60865Y5049D02*
D03*
Y9104D02*
D03*
D33*
X30743Y114900D02*
D03*
X94900D02*
D03*
X5100D02*
D03*
X17871D02*
D03*
X56486D02*
D03*
X69357D02*
D03*
X43614D02*
D03*
X82228D02*
D03*
D34*
X25884Y78384D02*
D03*
Y76416D02*
D03*
X23916Y78384D02*
D03*
Y76416D02*
D03*
D35*
X40700Y30700D02*
D03*
X50800Y30800D02*
D03*
X78300Y37100D02*
D03*
X79300Y52700D02*
D03*
D36*
X86530Y45335D02*
X90495Y49300D01*
X71000Y44400D02*
X78300Y37100D01*
X79300Y52700D02*
X82537Y49463D01*
X78242Y52700D02*
X79300D01*
X74800Y48000D02*
X77900Y44900D01*
X78300Y37100D02*
X81797Y40597D01*
D37*
X24908Y84400D02*
D03*
D38*
X6954Y64200D02*
D03*
X29900Y29900D02*
D03*
X87500Y65805D02*
D03*
X17900Y49900D02*
D03*
X54900Y4800D02*
D03*
X55000Y10900D02*
D03*
X54600Y16900D02*
D03*
X56100Y22100D02*
D03*
X73700Y24300D02*
D03*
X70900Y29000D02*
D03*
X67300Y25500D02*
D03*
X78400Y23600D02*
D03*
X85700Y24000D02*
D03*
X77200Y29000D02*
D03*
X85700Y29300D02*
D03*
X94100Y29100D02*
D03*
Y23200D02*
D03*
Y18300D02*
D03*
X85600Y18100D02*
D03*
X78700Y17500D02*
D03*
X72800Y19100D02*
D03*
X70700Y14000D02*
D03*
X74000Y9600D02*
D03*
X68000Y9500D02*
D03*
X54224Y49500D02*
D03*
X45000Y49400D02*
D03*
X60600Y64400D02*
D03*
X3400Y101400D02*
D03*
X75400Y86329D02*
D03*
X64100Y94900D02*
D03*
X56700Y86500D02*
D03*
X41300Y85600D02*
D03*
X35900Y69400D02*
D03*
X18100Y69500D02*
D03*
X28000Y58400D02*
D03*
X35400Y34200D02*
D03*
X4800Y39800D02*
D03*
X19500Y58100D02*
D03*
X23500Y37700D02*
D03*
X4900Y14700D02*
D03*
X25300Y24800D02*
D03*
X36000Y23100D02*
D03*
X34800Y14600D02*
D03*
X35300Y3900D02*
D03*
X90900Y42000D02*
D03*
X74800Y48000D02*
D03*
X90500Y49300D02*
D03*
X47900Y20500D02*
D03*
X56300Y38000D02*
D03*
X64700Y32000D02*
D03*
X57100D02*
D03*
X6800Y30000D02*
D03*
X67100Y38000D02*
D03*
X23800Y56300D02*
D03*
X61000Y48400D02*
D03*
X47200Y63800D02*
D03*
X48000Y9100D02*
D03*
X84716Y60900D02*
D03*
X75500Y62200D02*
D03*
Y66000D02*
D03*
X28400Y89200D02*
D03*
X13400Y61400D02*
D03*
X13700Y18000D02*
D03*
X17700Y103500D02*
D03*
X30700D02*
D03*
X43600D02*
D03*
X56500D02*
D03*
X69500D02*
D03*
X82300D02*
D03*
X95000D02*
D03*
X79700Y90200D02*
D03*
X74200Y98800D02*
D03*
X63200Y102900D02*
D03*
X50100Y102300D02*
D03*
X36500Y100700D02*
D03*
X37000Y95100D02*
D03*
X24000Y100300D02*
D03*
X20200Y84000D02*
D03*
X20000Y17300D02*
D03*
X6900Y42600D02*
D03*
X3100Y2500D02*
D03*
X44500Y78700D02*
D03*
M02*
