G04 Layer_Color=8421504*
%FSLAX25Y25*%
%MOIN*%
G70*
G01*
G75*
%ADD16R,0.02559X0.02559*%
%ADD17R,0.02559X0.02559*%
%ADD18R,0.02835X0.02835*%
%ADD19R,0.11811X0.19685*%
%ADD20R,0.02835X0.02835*%
%ADD21O,0.00787X0.03150*%
%ADD22O,0.03150X0.00787*%
%ADD24R,0.02913X0.05905*%
%ADD25R,0.02874X0.02913*%
%ADD26R,0.02756X0.01181*%
%ADD27R,0.03937X0.06299*%
%ADD28R,0.03150X0.03150*%
G04:AMPARAMS|DCode=29|XSize=47.24mil|YSize=43.31mil|CornerRadius=0mil|HoleSize=0mil|Usage=FLASHONLY|Rotation=45.000|XOffset=0mil|YOffset=0mil|HoleType=Round|Shape=Rectangle|*
%AMROTATEDRECTD29*
4,1,4,-0.00139,-0.03202,-0.03202,-0.00139,0.00139,0.03202,0.03202,0.00139,-0.00139,-0.03202,0.0*
%
%ADD29ROTATEDRECTD29*%

%ADD30R,0.01968X0.03937*%
%ADD31R,0.02756X0.01968*%
%ADD32R,0.02913X0.02874*%
%ADD33R,0.07874X0.07874*%
%ADD35C,0.01968*%
%ADD39C,0.01417*%
G36*
X63065Y46828D02*
X54798D01*
Y55095D01*
X63065D01*
Y46828D01*
D02*
G37*
G36*
X52829D02*
X44561D01*
Y55095D01*
X52829D01*
Y46828D01*
D02*
G37*
G36*
X63065Y57064D02*
X54798D01*
Y65332D01*
X63065D01*
Y57064D01*
D02*
G37*
G36*
X52829D02*
X44561D01*
Y65332D01*
X52829D01*
Y57064D01*
D02*
G37*
D16*
X40663Y9200D02*
D03*
X44600D02*
D03*
X86231Y70300D02*
D03*
X90168D02*
D03*
X14200Y35900D02*
D03*
X10263D02*
D03*
Y30000D02*
D03*
X14200D02*
D03*
X10363Y24000D02*
D03*
X14300D02*
D03*
D17*
X60900Y36068D02*
D03*
Y32131D02*
D03*
X31800Y85800D02*
D03*
Y81863D02*
D03*
X23800Y53069D02*
D03*
Y49132D02*
D03*
X30800Y49100D02*
D03*
Y53037D02*
D03*
D18*
X47963Y86500D02*
D03*
X51900D02*
D03*
X47932Y81900D02*
D03*
X51868D02*
D03*
X6932Y71800D02*
D03*
X10869D02*
D03*
X6932Y67400D02*
D03*
X10869D02*
D03*
X44500Y4900D02*
D03*
X40563D02*
D03*
X51968Y96500D02*
D03*
X48031D02*
D03*
X51968Y91400D02*
D03*
X48031D02*
D03*
X64768Y14268D02*
D03*
X60831D02*
D03*
D19*
X7100Y89100D02*
D03*
X92900Y89200D02*
D03*
D20*
X73400Y75932D02*
D03*
Y79869D02*
D03*
X67300Y75932D02*
D03*
Y79869D02*
D03*
X40900Y75800D02*
D03*
Y79737D02*
D03*
X30300Y64500D02*
D03*
Y68437D02*
D03*
X26800Y45469D02*
D03*
Y41532D02*
D03*
X24800Y9396D02*
D03*
Y5459D02*
D03*
X30000Y9369D02*
D03*
Y5432D02*
D03*
X36100Y75800D02*
D03*
Y79737D02*
D03*
X79900Y79837D02*
D03*
Y75900D02*
D03*
X61400Y79837D02*
D03*
Y75900D02*
D03*
X60865Y24577D02*
D03*
Y28514D02*
D03*
X43500Y23963D02*
D03*
Y27900D02*
D03*
X47900Y24063D02*
D03*
Y28000D02*
D03*
D21*
X43577Y69859D02*
D03*
X45152D02*
D03*
X46727D02*
D03*
X48302D02*
D03*
X49876D02*
D03*
X51451D02*
D03*
X53026D02*
D03*
X54601D02*
D03*
X56176D02*
D03*
X57750D02*
D03*
X59325D02*
D03*
X60900D02*
D03*
X62475D02*
D03*
X64050D02*
D03*
X43577Y42300D02*
D03*
X45152D02*
D03*
X46727D02*
D03*
X48302D02*
D03*
X49876D02*
D03*
X51451D02*
D03*
X53026D02*
D03*
X54601D02*
D03*
X56176D02*
D03*
X57750D02*
D03*
X59325D02*
D03*
X60900D02*
D03*
X62475D02*
D03*
X64050D02*
D03*
D22*
X67593Y45843D02*
D03*
Y47418D02*
D03*
Y48993D02*
D03*
Y50568D02*
D03*
Y52143D02*
D03*
Y53717D02*
D03*
Y55292D02*
D03*
Y56867D02*
D03*
Y58442D02*
D03*
Y60017D02*
D03*
Y61591D02*
D03*
Y63166D02*
D03*
Y64741D02*
D03*
Y66316D02*
D03*
X40034D02*
D03*
Y64741D02*
D03*
Y63166D02*
D03*
Y61591D02*
D03*
Y60017D02*
D03*
Y58442D02*
D03*
Y56867D02*
D03*
Y55292D02*
D03*
Y53717D02*
D03*
Y52143D02*
D03*
Y50568D02*
D03*
Y48993D02*
D03*
Y47418D02*
D03*
Y45843D02*
D03*
D24*
X82300Y5068D02*
D03*
X95710D02*
D03*
D25*
X47947Y75900D02*
D03*
X52002D02*
D03*
X60872Y19268D02*
D03*
X64928D02*
D03*
D26*
X8466Y11759D02*
D03*
Y9200D02*
D03*
Y6641D02*
D03*
X16734Y11759D02*
D03*
Y9200D02*
D03*
Y6641D02*
D03*
D27*
X12600Y9200D02*
D03*
D28*
X7101Y49900D02*
D03*
Y57380D02*
D03*
X13400D02*
D03*
Y49900D02*
D03*
D29*
X77900Y44500D02*
D03*
X82633Y49233D02*
D03*
X86530Y45335D02*
D03*
X81797Y40603D02*
D03*
D30*
X43560Y34200D02*
D03*
X47900D02*
D03*
D31*
X79565Y70300D02*
D03*
X75400D02*
D03*
D32*
X60865Y5049D02*
D03*
Y9104D02*
D03*
D33*
X30743Y114900D02*
D03*
X94900D02*
D03*
X5100D02*
D03*
X17871D02*
D03*
X56486D02*
D03*
X69357D02*
D03*
X43614D02*
D03*
X82228D02*
D03*
D35*
X40700Y30700D02*
D03*
X50800Y30800D02*
D03*
X78300Y37100D02*
D03*
X79300Y52700D02*
D03*
D39*
X25884Y78384D02*
D03*
Y76416D02*
D03*
X23916Y78384D02*
D03*
Y76416D02*
D03*
M02*
