M48
;Layer_Color=9474304
;FILE_FORMAT=2:5
INCH,TZ
;TYPE=PLATED
T1F00S00C0.03000
T2F00S00C0.04000
T3F00S00C0.09449
%
T01
X122500Y57500
X147000Y58000
X159000Y65000
X160500Y52500
X161000Y41000
X159500Y74500
X134500Y72500
X136500Y80500
X124000Y77000
X125500Y68500
X111500Y78000
X104000Y72500
X144000Y101500
X36500Y145000
X19500Y133000
T02
X88500Y13500
X98500
X108500
X118500
X128500
T03
X25500Y21000
X139000Y148000
X51000Y86500
M30
