G04 Layer_Color=65535*
%FSLAX25Y25*%
%MOIN*%
G70*
G01*
G75*
%ADD14C,0.01000*%
%ADD39C,0.00197*%
%ADD40C,0.00394*%
%ADD41C,0.01575*%
%ADD42C,0.00079*%
%ADD43C,0.00787*%
%ADD44C,0.00300*%
D14*
X82297Y35446D02*
G03*
X82297Y35446I-707J0D01*
G01*
X4553Y46140D02*
G03*
X4553Y46140I-1803J0D01*
G01*
X79300Y5068D02*
G03*
X79300Y5068I-500J0D01*
G01*
X1500Y106000D02*
X98700D01*
X40560Y34200D02*
X41560D01*
Y37200D02*
X50060D01*
Y31200D02*
Y37200D01*
X41560Y31200D02*
X50060D01*
X41560D02*
Y37200D01*
X73312Y44138D02*
X81444Y36006D01*
X90990Y45552D01*
X82858Y53684D02*
X90990Y45552D01*
X73312Y44138D02*
X82858Y53684D01*
X2750Y61140D02*
X17750D01*
X2750Y46140D02*
Y61140D01*
Y46140D02*
X17750D01*
Y61140D01*
X6100Y14200D02*
X19100D01*
X6100Y4200D02*
Y14200D01*
Y4200D02*
X19100D01*
Y14200D01*
X79800Y9069D02*
X98300D01*
Y1068D02*
Y9069D01*
X79800Y1068D02*
X98300D01*
X79800D02*
Y9069D01*
D39*
X27164Y79369D02*
G03*
X27164Y79369I-197J0D01*
G01*
D40*
X5297Y14700D02*
G03*
X5297Y14700I-197J0D01*
G01*
D41*
X44465Y37855D02*
G03*
X44465Y37855I-788J0D01*
G01*
X82912Y69316D02*
Y71284D01*
D42*
X22833Y79369D02*
X26967D01*
X22833Y75432D02*
Y79369D01*
Y75432D02*
X26967D01*
X26967Y79369D01*
D43*
X15750Y5066D02*
X16734D01*
X8466D02*
X9450D01*
X15750Y13334D02*
X16734D01*
X8466D02*
X9450D01*
X67790Y42103D02*
Y44465D01*
X41805Y42103D02*
X42199D01*
X39837Y44072D02*
X41805Y42103D01*
X39837Y44072D02*
Y44465D01*
Y67696D02*
Y70056D01*
X42197D01*
X65429D02*
X67790D01*
Y67696D02*
Y70056D01*
X65428Y42103D02*
X67790D01*
D44*
X23071Y83928D02*
Y82262D01*
X23404Y81928D01*
X24071D01*
X24404Y82262D01*
Y83928D01*
X26403Y81928D02*
X25070D01*
X26403Y83261D01*
Y83595D01*
X26070Y83928D01*
X25404D01*
X25070Y83595D01*
X52333Y24866D02*
X52000Y25199D01*
X51333D01*
X51000Y24866D01*
Y23533D01*
X51333Y23200D01*
X52000D01*
X52333Y23533D01*
X52999D02*
X53333Y23200D01*
X53999D01*
X54332Y23533D01*
Y24866D01*
X53999Y25199D01*
X53333D01*
X52999Y24866D01*
Y24533D01*
X53333Y24200D01*
X54332D01*
X38934Y25733D02*
X38601Y25400D01*
Y24733D01*
X38934Y24400D01*
X40267D01*
X40600Y24733D01*
Y25400D01*
X40267Y25733D01*
X38934Y26399D02*
X38601Y26733D01*
Y27399D01*
X38934Y27732D01*
X39267D01*
X39600Y27399D01*
X39934Y27732D01*
X40267D01*
X40600Y27399D01*
Y26733D01*
X40267Y26399D01*
X39934D01*
X39600Y26733D01*
X39267Y26399D01*
X38934D01*
X39600Y26733D02*
Y27399D01*
X68766Y14067D02*
X69099Y14400D01*
Y15067D01*
X68766Y15400D01*
X67433D01*
X67100Y15067D01*
Y14400D01*
X67433Y14067D01*
X69099Y13401D02*
Y12068D01*
X68766D01*
X67433Y13401D01*
X67100D01*
X65031Y26544D02*
X65364Y26877D01*
Y27544D01*
X65031Y27877D01*
X63698D01*
X63365Y27544D01*
Y26877D01*
X63698Y26544D01*
X65364Y24545D02*
X65031Y25211D01*
X64365Y25877D01*
X63698D01*
X63365Y25544D01*
Y24878D01*
X63698Y24545D01*
X64032D01*
X64365Y24878D01*
Y25877D01*
X78033Y56899D02*
X77366D01*
X77700D01*
Y55233D01*
X77366Y54900D01*
X77033D01*
X76700Y55233D01*
X78699Y54900D02*
X79366D01*
X79033D01*
Y56899D01*
X78699Y56566D01*
X81365Y54900D02*
Y56899D01*
X80366Y55900D01*
X81698D01*
X72233Y37699D02*
X71566D01*
X71900D01*
Y36033D01*
X71566Y35700D01*
X71233D01*
X70900Y36033D01*
X72899Y35700D02*
X73566D01*
X73233D01*
Y37699D01*
X72899Y37366D01*
X74566D02*
X74899Y37699D01*
X75565D01*
X75898Y37366D01*
Y37033D01*
X75565Y36700D01*
X75232D01*
X75565D01*
X75898Y36366D01*
Y36033D01*
X75565Y35700D01*
X74899D01*
X74566Y36033D01*
X53101Y28833D02*
Y28166D01*
Y28500D01*
X54767D01*
X55100Y28166D01*
Y27833D01*
X54767Y27500D01*
X55100Y29499D02*
Y30166D01*
Y29833D01*
X53101D01*
X53434Y29499D01*
X55100Y32498D02*
Y31166D01*
X53767Y32498D01*
X53434D01*
X53101Y32165D01*
Y31499D01*
X53434Y31166D01*
X35433Y31799D02*
X34766D01*
X35100D01*
Y30133D01*
X34766Y29800D01*
X34433D01*
X34100Y30133D01*
X36099Y29800D02*
X36766D01*
X36433D01*
Y31799D01*
X36099Y31466D01*
X37765Y29800D02*
X38432D01*
X38099D01*
Y31799D01*
X37765Y31466D01*
X6533Y102099D02*
X5866D01*
X6200D01*
Y100433D01*
X5866Y100100D01*
X5533D01*
X5200Y100433D01*
X7199Y101766D02*
X7533Y102099D01*
X8199D01*
X8532Y101766D01*
Y101433D01*
X8199Y101100D01*
X8532Y100766D01*
Y100433D01*
X8199Y100100D01*
X7533D01*
X7199Y100433D01*
Y100766D01*
X7533Y101100D01*
X7199Y101433D01*
Y101766D01*
X7533Y101100D02*
X8199D01*
X90033Y102299D02*
X89366D01*
X89700D01*
Y100633D01*
X89366Y100300D01*
X89033D01*
X88700Y100633D01*
X90699D02*
X91033Y100300D01*
X91699D01*
X92032Y100633D01*
Y101966D01*
X91699Y102299D01*
X91033D01*
X90699Y101966D01*
Y101633D01*
X91033Y101300D01*
X92032D01*
X82100Y109699D02*
X83433Y107700D01*
Y109699D02*
X82100Y107700D01*
X84099D02*
Y109699D01*
X85099D01*
X85432Y109366D01*
Y108700D01*
X85099Y108367D01*
X84099D01*
X84766D02*
X85432Y107700D01*
X87432Y109699D02*
X86099D01*
Y107700D01*
X87432D01*
X86099Y108700D02*
X86765D01*
X89431Y109366D02*
X89098Y109699D01*
X88431D01*
X88098Y109366D01*
Y109033D01*
X88431Y108700D01*
X89098D01*
X89431Y108367D01*
Y108033D01*
X89098Y107700D01*
X88431D01*
X88098Y108033D01*
X42333Y109366D02*
X42000Y109699D01*
X41333D01*
X41000Y109366D01*
Y109033D01*
X41333Y108700D01*
X42000D01*
X42333Y108367D01*
Y108033D01*
X42000Y107700D01*
X41333D01*
X41000Y108033D01*
X42999Y109699D02*
Y107700D01*
X43999D01*
X44332Y108033D01*
Y109366D01*
X43999Y109699D01*
X42999D01*
X44999Y107700D02*
Y109033D01*
X45665Y109699D01*
X46332Y109033D01*
Y107700D01*
Y108700D01*
X44999D01*
X65633Y109366D02*
X65300Y109699D01*
X64633D01*
X64300Y109366D01*
Y109033D01*
X64633Y108700D01*
X65300D01*
X65633Y108367D01*
Y108033D01*
X65300Y107700D01*
X64633D01*
X64300Y108033D01*
X66299Y109699D02*
Y107700D01*
X66966Y108367D01*
X67632Y107700D01*
Y109699D01*
X68299D02*
Y107700D01*
X69298D01*
X69632Y108033D01*
Y109366D01*
X69298Y109699D01*
X68299D01*
X70298Y107367D02*
X71631D01*
X72297Y109699D02*
Y107700D01*
X73297D01*
X73630Y108033D01*
Y109366D01*
X73297Y109699D01*
X72297D01*
X74297Y107700D02*
Y109033D01*
X74963Y109699D01*
X75630Y109033D01*
Y107700D01*
Y108700D01*
X74297D01*
X76296Y109699D02*
X77629D01*
X76963D01*
Y107700D01*
X78295D02*
Y109033D01*
X78962Y109699D01*
X79628Y109033D01*
Y107700D01*
Y108700D01*
X78295D01*
X50333Y109366D02*
X50000Y109699D01*
X49333D01*
X49000Y109366D01*
Y109033D01*
X49333Y108700D01*
X50000D01*
X50333Y108367D01*
Y108033D01*
X50000Y107700D01*
X49333D01*
X49000Y108033D01*
X50999Y109699D02*
Y107700D01*
X51666Y108367D01*
X52332Y107700D01*
Y109699D01*
X52999D02*
Y107700D01*
X53998D01*
X54332Y108033D01*
Y109366D01*
X53998Y109699D01*
X52999D01*
X54998Y107367D02*
X56331D01*
X58330Y109366D02*
X57997Y109699D01*
X57331D01*
X56997Y109366D01*
Y108033D01*
X57331Y107700D01*
X57997D01*
X58330Y108033D01*
X58997Y109699D02*
Y107700D01*
X60330D01*
X60996Y109699D02*
Y107700D01*
Y108367D01*
X62329Y109699D01*
X61329Y108700D01*
X62329Y107700D01*
X15500Y109699D02*
Y108367D01*
X16166Y107700D01*
X16833Y108367D01*
Y109699D01*
X18832Y109366D02*
X18499Y109699D01*
X17833D01*
X17499Y109366D01*
Y108033D01*
X17833Y107700D01*
X18499D01*
X18832Y108033D01*
X20832Y109366D02*
X20498Y109699D01*
X19832D01*
X19499Y109366D01*
Y108033D01*
X19832Y107700D01*
X20498D01*
X20832Y108033D01*
X1500Y109699D02*
Y108367D01*
X2166Y107700D01*
X2833Y108367D01*
Y109699D01*
X3499Y107367D02*
X4832D01*
X5499Y109699D02*
Y107700D01*
X6498D01*
X6832Y108033D01*
Y108367D01*
X6498Y108700D01*
X5499D01*
X6498D01*
X6832Y109033D01*
Y109366D01*
X6498Y109699D01*
X5499D01*
X7498Y107700D02*
Y109033D01*
X8164Y109699D01*
X8831Y109033D01*
Y107700D01*
Y108700D01*
X7498D01*
X9497Y109699D02*
X10830D01*
X10164D01*
Y107700D01*
X11497Y109699D02*
X12830D01*
X12163D01*
Y107700D01*
X93533Y109366D02*
X93200Y109699D01*
X92533D01*
X92200Y109366D01*
Y108033D01*
X92533Y107700D01*
X93200D01*
X93533Y108033D01*
Y108700D01*
X92866D01*
X94199Y107700D02*
Y109699D01*
X95532Y107700D01*
Y109699D01*
X96199D02*
Y107700D01*
X97198D01*
X97532Y108033D01*
Y109366D01*
X97198Y109699D01*
X96199D01*
X29933Y109366D02*
X29600Y109699D01*
X28933D01*
X28600Y109366D01*
Y109033D01*
X28933Y108700D01*
X29600D01*
X29933Y108367D01*
Y108033D01*
X29600Y107700D01*
X28933D01*
X28600Y108033D01*
X31932Y109366D02*
X31599Y109699D01*
X30933D01*
X30599Y109366D01*
Y108033D01*
X30933Y107700D01*
X31599D01*
X31932Y108033D01*
X32599Y109699D02*
Y107700D01*
X33932D01*
X64200Y5899D02*
Y3900D01*
X65533D01*
X66199Y5566D02*
X66533Y5899D01*
X67199D01*
X67532Y5566D01*
Y5233D01*
X67199Y4900D01*
X66866D01*
X67199D01*
X67532Y4566D01*
Y4233D01*
X67199Y3900D01*
X66533D01*
X66199Y4233D01*
X67900Y20199D02*
Y18200D01*
X69233D01*
X69899D02*
X70566D01*
X70233D01*
Y20199D01*
X69899Y19866D01*
X70000Y71599D02*
Y69600D01*
X71000D01*
X71333Y69933D01*
Y71266D01*
X71000Y71599D01*
X70000D01*
X71999Y69600D02*
X72666D01*
X72333D01*
Y71599D01*
X71999Y71266D01*
X55833Y92166D02*
X55500Y92499D01*
X54833D01*
X54500Y92166D01*
Y90833D01*
X54833Y90500D01*
X55500D01*
X55833Y90833D01*
X57832Y92499D02*
X56499D01*
Y91500D01*
X57166Y91833D01*
X57499D01*
X57832Y91500D01*
Y90833D01*
X57499Y90500D01*
X56833D01*
X56499Y90833D01*
X56033Y97266D02*
X55700Y97599D01*
X55033D01*
X54700Y97266D01*
Y95933D01*
X55033Y95600D01*
X55700D01*
X56033Y95933D01*
X57699Y95600D02*
Y97599D01*
X56699Y96600D01*
X58032D01*
X60734Y84433D02*
X60401Y84100D01*
Y83433D01*
X60734Y83100D01*
X62067D01*
X62400Y83433D01*
Y84100D01*
X62067Y84433D01*
X60734Y85099D02*
X60401Y85433D01*
Y86099D01*
X60734Y86432D01*
X61067D01*
X61400Y86099D01*
Y85766D01*
Y86099D01*
X61734Y86432D01*
X62067D01*
X62400Y86099D01*
Y85433D01*
X62067Y85099D01*
X79134Y84433D02*
X78801Y84100D01*
Y83433D01*
X79134Y83100D01*
X80467D01*
X80800Y83433D01*
Y84100D01*
X80467Y84433D01*
X80800Y86432D02*
Y85099D01*
X79467Y86432D01*
X79134D01*
X78801Y86099D01*
Y85433D01*
X79134Y85099D01*
X36300Y38699D02*
Y38366D01*
X36966Y37700D01*
X37633Y38366D01*
Y38699D01*
X36966Y37700D02*
Y36700D01*
X39299D02*
Y38699D01*
X38299Y37700D01*
X39632D01*
X86500Y38299D02*
Y37966D01*
X87166Y37300D01*
X87833Y37966D01*
Y38299D01*
X87166Y37300D02*
Y36300D01*
X88499Y37966D02*
X88833Y38299D01*
X89499D01*
X89832Y37966D01*
Y37633D01*
X89499Y37300D01*
X89166D01*
X89499D01*
X89832Y36966D01*
Y36633D01*
X89499Y36300D01*
X88833D01*
X88499Y36633D01*
X1750Y64539D02*
Y62873D01*
X2084Y62540D01*
X2750D01*
X3083Y62873D01*
Y64539D01*
X5083D02*
X4416Y64206D01*
X3750Y63540D01*
Y62873D01*
X4083Y62540D01*
X4749D01*
X5083Y62873D01*
Y63207D01*
X4749Y63540D01*
X3750D01*
X6100Y18099D02*
Y16433D01*
X6433Y16100D01*
X7100D01*
X7433Y16433D01*
Y18099D01*
X9099Y16100D02*
Y18099D01*
X8099Y17100D01*
X9432D01*
X54600Y77099D02*
Y75100D01*
X55933D01*
X57932D02*
X56599D01*
X57932Y76433D01*
Y76766D01*
X57599Y77099D01*
X56933D01*
X56599Y76766D01*
X88633Y12868D02*
X87300D01*
Y10869D01*
X88633D01*
X87300Y11868D02*
X87966D01*
X90632Y10869D02*
X89299D01*
X90632Y12201D01*
Y12535D01*
X90299Y12868D01*
X89633D01*
X89299Y12535D01*
X48733Y5566D02*
X48400Y5899D01*
X47733D01*
X47400Y5566D01*
Y4233D01*
X47733Y3900D01*
X48400D01*
X48733Y4233D01*
X50732Y3900D02*
X49399D01*
X50732Y5233D01*
Y5566D01*
X50399Y5899D01*
X49733D01*
X49399Y5566D01*
X51399Y3900D02*
X52065D01*
X51732D01*
Y5899D01*
X51399Y5566D01*
X35334Y83733D02*
X35001Y83400D01*
Y82733D01*
X35334Y82400D01*
X36667D01*
X37000Y82733D01*
Y83400D01*
X36667Y83733D01*
X37000Y84399D02*
Y85066D01*
Y84733D01*
X35001D01*
X35334Y84399D01*
X35001Y87398D02*
Y86066D01*
X36000D01*
X35667Y86732D01*
Y87065D01*
X36000Y87398D01*
X36667D01*
X37000Y87065D01*
Y86399D01*
X36667Y86066D01*
X14933Y66566D02*
X14600Y66899D01*
X13933D01*
X13600Y66566D01*
Y65233D01*
X13933Y64900D01*
X14600D01*
X14933Y65233D01*
X15599Y64900D02*
X16266D01*
X15933D01*
Y66899D01*
X15599Y66566D01*
X17266D02*
X17599Y66899D01*
X18265D01*
X18598Y66566D01*
Y66233D01*
X18265Y65900D01*
X18598Y65566D01*
Y65233D01*
X18265Y64900D01*
X17599D01*
X17266Y65233D01*
Y65566D01*
X17599Y65900D01*
X17266Y66233D01*
Y66566D01*
X17599Y65900D02*
X18265D01*
X29234Y13733D02*
X28901Y13400D01*
Y12733D01*
X29234Y12400D01*
X30567D01*
X30900Y12733D01*
Y13400D01*
X30567Y13733D01*
X30900Y14399D02*
Y15066D01*
Y14733D01*
X28901D01*
X29234Y14399D01*
X37600Y73599D02*
Y71933D01*
X37933Y71600D01*
X38600D01*
X38933Y71933D01*
Y73599D01*
X39599Y71600D02*
X40266D01*
X39933D01*
Y73599D01*
X39599Y73266D01*
X23834Y13733D02*
X23501Y13400D01*
Y12733D01*
X23834Y12400D01*
X25167D01*
X25500Y12733D01*
Y13400D01*
X25167Y13733D01*
X25500Y14399D02*
Y15066D01*
Y14733D01*
X23501D01*
X23834Y14399D01*
Y16066D02*
X23501Y16399D01*
Y17065D01*
X23834Y17398D01*
X25167D01*
X25500Y17065D01*
Y16399D01*
X25167Y16066D01*
X23834D01*
X43033Y83566D02*
X42700Y83899D01*
X42033D01*
X41700Y83566D01*
Y82233D01*
X42033Y81900D01*
X42700D01*
X43033Y82233D01*
X43699Y81900D02*
X44366D01*
X44033D01*
Y83899D01*
X43699Y83566D01*
X45366Y81900D02*
X46032D01*
X45699D01*
Y83899D01*
X45366Y83566D01*
X15033Y74166D02*
X14700Y74499D01*
X14033D01*
X13700Y74166D01*
Y72833D01*
X14033Y72500D01*
X14700D01*
X15033Y72833D01*
X15699Y72500D02*
X16366D01*
X16033D01*
Y74499D01*
X15699Y74166D01*
X18698Y72500D02*
X17366D01*
X18698Y73833D01*
Y74166D01*
X18365Y74499D01*
X17699D01*
X17366Y74166D01*
X66634Y84233D02*
X66301Y83900D01*
Y83233D01*
X66634Y82900D01*
X67967D01*
X68300Y83233D01*
Y83900D01*
X67967Y84233D01*
X68300Y84899D02*
Y85566D01*
Y85233D01*
X66301D01*
X66634Y84899D01*
Y86566D02*
X66301Y86899D01*
Y87565D01*
X66634Y87898D01*
X66967D01*
X67300Y87565D01*
Y87232D01*
Y87565D01*
X67634Y87898D01*
X67967D01*
X68300Y87565D01*
Y86899D01*
X67967Y86566D01*
X70934Y84633D02*
X70601Y84300D01*
Y83633D01*
X70934Y83300D01*
X72267D01*
X72600Y83633D01*
Y84300D01*
X72267Y84633D01*
X72600Y85299D02*
Y85966D01*
Y85633D01*
X70601D01*
X70934Y85299D01*
X72600Y87965D02*
X70601D01*
X71600Y86966D01*
Y88298D01*
X43334Y88133D02*
X43001Y87800D01*
Y87133D01*
X43334Y86800D01*
X44667D01*
X45000Y87133D01*
Y87800D01*
X44667Y88133D01*
X45000Y88799D02*
Y89466D01*
Y89133D01*
X43001D01*
X43334Y88799D01*
X43001Y91798D02*
X43334Y91132D01*
X44000Y90465D01*
X44667D01*
X45000Y90799D01*
Y91465D01*
X44667Y91798D01*
X44334D01*
X44000Y91465D01*
Y90465D01*
X55433Y82666D02*
X55100Y82999D01*
X54433D01*
X54100Y82666D01*
Y81333D01*
X54433Y81000D01*
X55100D01*
X55433Y81333D01*
X56099Y81000D02*
X56766D01*
X56433D01*
Y82999D01*
X56099Y82666D01*
X57766Y81333D02*
X58099Y81000D01*
X58765D01*
X59098Y81333D01*
Y82666D01*
X58765Y82999D01*
X58099D01*
X57766Y82666D01*
Y82333D01*
X58099Y82000D01*
X59098D01*
X31133Y44366D02*
X30800Y44699D01*
X30133D01*
X29800Y44366D01*
Y43033D01*
X30133Y42700D01*
X30800D01*
X31133Y43033D01*
X33132Y42700D02*
X31799D01*
X33132Y44033D01*
Y44366D01*
X32799Y44699D01*
X32133D01*
X31799Y44366D01*
X33799D02*
X34132Y44699D01*
X34798D01*
X35132Y44366D01*
Y43033D01*
X34798Y42700D01*
X34132D01*
X33799Y43033D01*
Y44366D01*
X25234Y65833D02*
X24901Y65500D01*
Y64833D01*
X25234Y64500D01*
X26567D01*
X26900Y64833D01*
Y65500D01*
X26567Y65833D01*
X26900Y67832D02*
Y66499D01*
X25567Y67832D01*
X25234D01*
X24901Y67499D01*
Y66833D01*
X25234Y66499D01*
X26900Y69832D02*
Y68499D01*
X25567Y69832D01*
X25234D01*
X24901Y69498D01*
Y68832D01*
X25234Y68499D01*
X17400Y29000D02*
Y30999D01*
X18400D01*
X18733Y30666D01*
Y30000D01*
X18400Y29666D01*
X17400D01*
X18067D02*
X18733Y29000D01*
X19399Y29333D02*
X19733Y29000D01*
X20399D01*
X20732Y29333D01*
Y30666D01*
X20399Y30999D01*
X19733D01*
X19399Y30666D01*
Y30333D01*
X19733Y30000D01*
X20732D01*
X17400Y22800D02*
Y24799D01*
X18400D01*
X18733Y24466D01*
Y23800D01*
X18400Y23467D01*
X17400D01*
X18067D02*
X18733Y22800D01*
X19399D02*
X20066D01*
X19733D01*
Y24799D01*
X19399Y24466D01*
X21066D02*
X21399Y24799D01*
X22065D01*
X22398Y24466D01*
Y23133D01*
X22065Y22800D01*
X21399D01*
X21066Y23133D01*
Y24466D01*
X17200Y34800D02*
Y36799D01*
X18200D01*
X18533Y36466D01*
Y35800D01*
X18200Y35466D01*
X17200D01*
X17866D02*
X18533Y34800D01*
X19199D02*
X19866D01*
X19533D01*
Y36799D01*
X19199Y36466D01*
X22198Y34800D02*
X20865D01*
X22198Y36133D01*
Y36466D01*
X21865Y36799D01*
X21199D01*
X20865Y36466D01*
X32900Y88600D02*
X30901D01*
Y89600D01*
X31234Y89933D01*
X31900D01*
X32234Y89600D01*
Y88600D01*
Y89266D02*
X32900Y89933D01*
Y90599D02*
Y91266D01*
Y90933D01*
X30901D01*
X31234Y90599D01*
Y92265D02*
X30901Y92599D01*
Y93265D01*
X31234Y93598D01*
X31567D01*
X31900Y93265D01*
Y92932D01*
Y93265D01*
X32234Y93598D01*
X32567D01*
X32900Y93265D01*
Y92599D01*
X32567Y92265D01*
X58600Y38200D02*
Y40199D01*
X59600D01*
X59933Y39866D01*
Y39200D01*
X59600Y38866D01*
X58600D01*
X59266D02*
X59933Y38200D01*
X60599D02*
X61266D01*
X60933D01*
Y40199D01*
X60599Y39866D01*
X63265Y38200D02*
Y40199D01*
X62265Y39200D01*
X63598D01*
X40300Y12300D02*
Y14299D01*
X41300D01*
X41633Y13966D01*
Y13300D01*
X41300Y12967D01*
X40300D01*
X40966D02*
X41633Y12300D01*
X42299D02*
X42966D01*
X42633D01*
Y14299D01*
X42299Y13966D01*
X45298Y14299D02*
X43966D01*
Y13300D01*
X44632Y13633D01*
X44965D01*
X45298Y13300D01*
Y12633D01*
X44965Y12300D01*
X44299D01*
X43966Y12633D01*
X21300Y42300D02*
X19301D01*
Y43300D01*
X19634Y43633D01*
X20300D01*
X20633Y43300D01*
Y42300D01*
Y42966D02*
X21300Y43633D01*
Y44299D02*
Y44966D01*
Y44633D01*
X19301D01*
X19634Y44299D01*
X19301Y47298D02*
X19634Y46632D01*
X20300Y45965D01*
X20967D01*
X21300Y46299D01*
Y46965D01*
X20967Y47298D01*
X20633D01*
X20300Y46965D01*
Y45965D01*
X93500Y69400D02*
Y71399D01*
X94500D01*
X94833Y71066D01*
Y70400D01*
X94500Y70066D01*
X93500D01*
X94166D02*
X94833Y69400D01*
X95499D02*
X96166D01*
X95833D01*
Y71399D01*
X95499Y71066D01*
X97166Y71399D02*
X98498D01*
Y71066D01*
X97166Y69733D01*
Y69400D01*
X31800Y55500D02*
X29801D01*
Y56500D01*
X30134Y56833D01*
X30800D01*
X31134Y56500D01*
Y55500D01*
Y56166D02*
X31800Y56833D01*
Y57499D02*
Y58166D01*
Y57833D01*
X29801D01*
X30134Y57499D01*
Y59166D02*
X29801Y59499D01*
Y60165D01*
X30134Y60498D01*
X30467D01*
X30800Y60165D01*
X31134Y60498D01*
X31467D01*
X31800Y60165D01*
Y59499D01*
X31467Y59166D01*
X31134D01*
X30800Y59499D01*
X30467Y59166D01*
X30134D01*
X30800Y59499D02*
Y60165D01*
M02*
