M48
;Layer_Color=9474304
;FILE_FORMAT=2:4
INCH,LZ
;TYPE=PLATED
T1F00S00C0.0120
%
T01
X00031Y00025
X00208Y00124
X00356Y00108
X00353Y0004
X00448Y00039
X00456Y001913
X00417Y00263
X00336Y00264
X00216Y00281
X00076Y003
X00079Y00426
X00175Y00425
X00221Y00518
X00287Y00583
X0031Y00617
X00252Y00643
X00276Y00674
X00183Y00647
X00141Y00658
X00079Y00648
X00202Y0084
X0024Y01003
X00177Y01035
X00307
X00365Y01007
X00387Y00933
X00436Y01035
X00501Y01023
X00565Y01035
X00632Y01029
X00695Y01035
X00742Y00988
X00823Y01035
X0095
X00797Y00902
X00762Y00825
X00665Y00829
X00677Y00907
X00578Y00869
X00572Y00759
Y00695
X00489Y00669
X0044Y00695
X00445Y00787
X004503Y004523
X00406Y00424
X00521Y00461
X005708Y005505
X00788Y00543
X00823Y0056
X00875Y00515
X00934Y00542
Y00634
X00969Y00758
X00853Y00763
X0077Y00694
X0079Y006579
X00336Y00538
X00137Y0018
M30
