M48
;Layer_Color=9474304
;FILE_FORMAT=2:5
INCH,LZ
;TYPE=PLATED
T1F00S00C0.01200
%
T01
X00031Y00025
X00353Y00039
X0048Y00091
X0055Y00109
X00549Y00048
X0068Y00095
X0074Y00096
X00707Y0014
X00728Y00191
X00737Y00243
X00784Y00236
X00787Y00175
X00856Y00181
X00857Y0024
Y00293
X00941Y00291
Y00232
Y00183
X00909Y0042
X00905Y00493
X00748Y0048
X0061Y00484
X0054224Y00495
X0045Y00494
X00472Y00638
X00606Y00644
X00755Y0066
Y00622
X0084716Y00609
X00875Y0065805
X0083Y00731
X00797Y00902
X00754Y0086329
X00742Y00988
X00695Y01035
X00632Y01029
X00565Y01035
X00501Y01023
X00436Y01035
X00365Y01007
X0037Y00951
X00413Y00856
X00445Y00787
X00359Y00694
X00181Y00695
X00134Y00614
X0006954Y00642
X00195Y00581
X00238Y00563
X0028Y00584
X00179Y00499
X00235Y00377
X00299Y00299
X00253Y00248
X0036Y00231
X00348Y00146
X002Y00173
X00137Y0018
X00049Y00147
X00068Y003
X00048Y00398
X00069Y00426
X00354Y00342
X00571Y0032
X00563Y0038
X00671
X00647Y0032
X00673Y00255
X00709Y0029
X00772
X00561Y00221
X00546Y00169
X00479Y00205
X00567Y00865
X00641Y00949
X00823Y01035
X0095
X00307
X0024Y01003
X00177Y01035
X00034Y01014
X00202Y0084
X00284Y00892
M30
