G04 Layer_Color=8388736*
%FSLAX24Y24*%
%MOIN*%
G70*
G01*
G75*
%ADD35C,0.0083*%
%ADD46C,0.0142*%
%ADD47R,0.0343X0.0343*%
%ADD48R,0.0316X0.0316*%
%ADD49R,0.0315X0.0614*%
%ADD50R,0.0343X0.0343*%
%ADD51R,0.1241X0.2029*%
%ADD52R,0.0847X0.0847*%
%ADD53R,0.0351X0.0347*%
%ADD54R,0.0347X0.0351*%
%ADD55R,0.0336X0.0257*%
%ADD56R,0.0472X0.0276*%
G04:AMPARAMS|DCode=57|XSize=51.2mil|YSize=47.2mil|CornerRadius=0mil|HoleSize=0mil|Usage=FLASHONLY|Rotation=135.000|XOffset=0mil|YOffset=0mil|HoleType=Round|Shape=Rectangle|*
%AMROTATEDRECTD57*
4,1,4,0.0348,-0.0014,0.0014,-0.0348,-0.0348,0.0014,-0.0014,0.0348,0.0348,-0.0014,0.0*
%
%ADD57ROTATEDRECTD57*%

%ADD58R,0.0375X0.0375*%
%ADD59R,0.0454X0.0690*%
%ADD60R,0.0336X0.0178*%
%ADD61R,0.0277X0.0277*%
%ADD62R,0.0277X0.0277*%
%ADD63R,0.0265X0.0280*%
%ADD64R,0.0280X0.0265*%
%ADD65C,0.0257*%
%ADD66C,0.0280*%
D35*
X4503Y5190D02*
D03*
X4660D02*
D03*
X5132Y5820D02*
D03*
X4660Y6135D02*
D03*
X4817D02*
D03*
X4975D02*
D03*
X4660Y6292D02*
D03*
X4188D02*
D03*
X4345D02*
D03*
X4503D02*
D03*
X4817D02*
D03*
X4975D02*
D03*
X5132D02*
D03*
X5290D02*
D03*
X4188Y6135D02*
D03*
X4345D02*
D03*
X4503D02*
D03*
X5132D02*
D03*
X5290D02*
D03*
X4188Y5977D02*
D03*
X4345D02*
D03*
X4503D02*
D03*
X4660D02*
D03*
X4817D02*
D03*
X4975D02*
D03*
X5132D02*
D03*
X4188Y5820D02*
D03*
X4345D02*
D03*
X4503D02*
D03*
X4660D02*
D03*
X4817D02*
D03*
X4975D02*
D03*
X4345Y5663D02*
D03*
X4503D02*
D03*
X4660D02*
D03*
X4817D02*
D03*
X4975D02*
D03*
X5132D02*
D03*
X5290D02*
D03*
X4188Y5505D02*
D03*
X4345D02*
D03*
X4503D02*
D03*
X4660D02*
D03*
X4817D02*
D03*
X4975D02*
D03*
X5132D02*
D03*
X5290D02*
D03*
X4188Y5348D02*
D03*
X4345D02*
D03*
X4503D02*
D03*
X4660D02*
D03*
X4817D02*
D03*
X4975D02*
D03*
X5132D02*
D03*
X5290D02*
D03*
X4188Y5190D02*
D03*
X4817D02*
D03*
X4975D02*
D03*
X5132D02*
D03*
X4188Y5033D02*
D03*
X4503D02*
D03*
X4975D02*
D03*
X5132D02*
D03*
D46*
X2392Y7642D02*
D03*
Y7838D02*
D03*
X2588Y7642D02*
D03*
Y7838D02*
D03*
D47*
X7240Y5860D02*
D03*
X7634D02*
D03*
X7233Y6280D02*
D03*
X7627D02*
D03*
X6093Y2170D02*
D03*
X6487D02*
D03*
X4803Y9140D02*
D03*
X5197D02*
D03*
X4803Y9650D02*
D03*
X5197D02*
D03*
D48*
X3180Y8040D02*
D03*
Y8434D02*
D03*
X6100Y4143D02*
D03*
Y4537D02*
D03*
D49*
X9581Y1250D02*
D03*
X8240D02*
D03*
D50*
X6097Y3595D02*
D03*
Y3201D02*
D03*
X6140Y7590D02*
D03*
Y7984D02*
D03*
X7990Y7590D02*
D03*
Y7984D02*
D03*
D51*
X700Y8910D02*
D03*
X9300Y8920D02*
D03*
D52*
X8223Y11500D02*
D03*
X4361D02*
D03*
X6936D02*
D03*
X5649D02*
D03*
X1787D02*
D03*
X500D02*
D03*
X9500D02*
D03*
X3074D02*
D03*
D53*
X6097Y1654D02*
D03*
Y1248D02*
D03*
D54*
X6503Y2670D02*
D03*
X6097D02*
D03*
X5200Y7590D02*
D03*
X4795D02*
D03*
D55*
X4560Y1540D02*
D03*
X4143D02*
D03*
D56*
X6499Y5859D02*
D03*
Y6293D02*
D03*
D57*
X4143Y3427D02*
D03*
X3670Y3900D02*
D03*
X3280Y3510D02*
D03*
X3754Y3037D02*
D03*
D58*
X1415Y5066D02*
D03*
Y5814D02*
D03*
X785D02*
D03*
Y5066D02*
D03*
D59*
X1260Y920D02*
D03*
D60*
X1673Y664D02*
D03*
Y920D02*
D03*
Y1176D02*
D03*
X847Y664D02*
D03*
Y920D02*
D03*
Y1176D02*
D03*
D61*
X8230Y6277D02*
D03*
Y5963D02*
D03*
X9380Y6910D02*
D03*
Y7225D02*
D03*
X8770D02*
D03*
Y6910D02*
D03*
D62*
X1105Y3590D02*
D03*
X1420D02*
D03*
X1417Y3000D02*
D03*
X1103D02*
D03*
X1417Y2390D02*
D03*
X1103D02*
D03*
X4143Y860D02*
D03*
X4458D02*
D03*
D63*
X3610Y7281D02*
D03*
Y7580D02*
D03*
X7540Y5430D02*
D03*
Y5130D02*
D03*
X3180Y7281D02*
D03*
Y7580D02*
D03*
X7290Y7889D02*
D03*
Y7590D02*
D03*
X6720Y7889D02*
D03*
Y7590D02*
D03*
X9340Y5740D02*
D03*
Y6040D02*
D03*
X3000Y640D02*
D03*
Y940D02*
D03*
X2480Y640D02*
D03*
Y940D02*
D03*
X8750Y5740D02*
D03*
Y6040D02*
D03*
D64*
X780Y6790D02*
D03*
X1080D02*
D03*
X780Y7220D02*
D03*
X1080D02*
D03*
X5099Y8180D02*
D03*
X4800D02*
D03*
X5099Y8600D02*
D03*
X4800D02*
D03*
D65*
X6990Y6580D02*
D03*
Y5510D02*
D03*
X4703Y4003D02*
D03*
X3320Y4300D02*
D03*
D66*
X4450Y7870D02*
D03*
X2160Y2810D02*
D03*
X3560Y1080D02*
D03*
X3530Y400D02*
D03*
X310Y250D02*
D03*
X9690Y7580D02*
D03*
X7900Y6579D02*
D03*
X760Y3000D02*
D03*
X4060Y4240D02*
D03*
X3360Y2640D02*
D03*
X4170Y2630D02*
D03*
X2870Y5830D02*
D03*
X2760Y6740D02*
D03*
X3100Y6170D02*
D03*
X1410Y6580D02*
D03*
X5720Y7590D02*
D03*
Y6950D02*
D03*
X4890Y6690D02*
D03*
X4400Y6950D02*
D03*
X5708Y5505D02*
D03*
X8530Y7630D02*
D03*
X9340Y6340D02*
D03*
X7880Y5430D02*
D03*
X6720Y4400D02*
D03*
X4480Y390D02*
D03*
X7440Y620D02*
D03*
X6820Y830D02*
D03*
X7270Y2340D02*
D03*
X7950Y3000D02*
D03*
X9450Y3360D02*
D03*
X8490Y2620D02*
D03*
X9420Y3940D02*
D03*
X9460Y2730D02*
D03*
X8710Y3620D02*
D03*
X9430Y4500D02*
D03*
X8800Y4470D02*
D03*
X7930Y4540D02*
D03*
X7330Y3960D02*
D03*
X6860Y3400D02*
D03*
X7530Y3450D02*
D03*
X8000Y3950D02*
D03*
X7140Y2890D02*
D03*
X7420Y1680D02*
D03*
X6820Y1670D02*
D03*
X5450Y1510D02*
D03*
X5490Y4130D02*
D03*
X5470Y3480D02*
D03*
X5480Y2750D02*
D03*
Y2140D02*
D03*
X5440Y910D02*
D03*
X5988Y754D02*
D03*
X6300Y370D02*
D03*
X6930D02*
D03*
X8750Y5150D02*
D03*
X5210Y4610D02*
D03*
X790Y4260D02*
D03*
X1750Y4250D02*
D03*
X2080Y1240D02*
D03*
X1830Y6470D02*
D03*
X2020Y8400D02*
D03*
X2400Y10030D02*
D03*
X3870Y9330D02*
D03*
X3650Y10070D02*
D03*
X5010Y10230D02*
D03*
X6320Y10290D02*
D03*
X7420Y9880D02*
D03*
X5780Y8690D02*
D03*
X6770Y9070D02*
D03*
X7970Y9020D02*
D03*
X6650Y8290D02*
D03*
X7620Y8250D02*
D03*
X9340Y5420D02*
D03*
X790Y6480D02*
D03*
X4560Y1913D02*
D03*
X9500Y10350D02*
D03*
X8230D02*
D03*
X6950D02*
D03*
X5650D02*
D03*
X4360D02*
D03*
X3070D02*
D03*
X1770D02*
D03*
X2210Y5180D02*
D03*
X5588Y416D02*
D03*
X1370Y1800D02*
D03*
X3360Y5380D02*
D03*
X2520Y6430D02*
D03*
X4503Y4523D02*
D03*
X8230Y5600D02*
D03*
X7700Y6940D02*
D03*
M02*
