G04 Layer_Color=65535*
%FSLAX24Y24*%
%MOIN*%
G70*
G01*
G75*
%ADD12C,0.0100*%
%ADD40C,0.0020*%
%ADD41C,0.0039*%
%ADD42C,0.0008*%
%ADD43C,0.0157*%
%ADD44C,0.0079*%
%ADD45C,0.0030*%
D12*
X7940Y1250D02*
G03*
X7940Y1250I-50J0D01*
G01*
X4730Y3406D02*
G03*
X4730Y3406I-71J0D01*
G01*
X530Y4690D02*
G03*
X530Y4690I-180J0D01*
G01*
X4089Y6463D02*
G03*
X4089Y6463I-50J0D01*
G01*
X7990Y1650D02*
X9840D01*
Y850D02*
Y1650D01*
X7990Y850D02*
X9840D01*
X7990D02*
Y1650D01*
X6499Y6493D02*
Y6593D01*
X6799Y5643D02*
Y6493D01*
X6199Y5643D02*
X6799D01*
X6199D02*
Y6493D01*
X6799D01*
X3790Y2578D02*
X4603Y3391D01*
X3648Y4346D02*
X4603Y3391D01*
X2835Y3533D02*
X3648Y4346D01*
X2835Y3533D02*
X3790Y2578D01*
X350Y6190D02*
X1850D01*
X350Y4690D02*
Y6190D01*
Y4690D02*
X1850D01*
Y6190D01*
X610Y1420D02*
X1910D01*
X610Y420D02*
Y1420D01*
Y420D02*
X1910D01*
Y1420D01*
X150Y10600D02*
X9870D01*
D40*
X2716Y7937D02*
G03*
X2716Y7937I-20J0D01*
G01*
D41*
X530Y1470D02*
G03*
X530Y1470I-20J0D01*
G01*
D42*
X2283Y7937D02*
X2697D01*
X2283Y7543D02*
Y7937D01*
Y7543D02*
X2697D01*
X2697Y7937D01*
D43*
X3809Y1442D02*
Y1638D01*
D44*
X1575Y507D02*
X1673D01*
X847D02*
X945D01*
X1575Y1333D02*
X1673D01*
X847D02*
X945D01*
X4041Y6415D02*
X4089Y6463D01*
X4041Y6437D02*
X5437D01*
Y4888D02*
Y6437D01*
X4041Y4888D02*
X5437D01*
X4041D02*
Y6415D01*
D45*
X8273Y5317D02*
X8240Y5350D01*
X8173D01*
X8140Y5317D01*
Y5183D01*
X8173Y5150D01*
X8240D01*
X8273Y5183D01*
X8340D02*
X8373Y5150D01*
X8440D01*
X8473Y5183D01*
Y5317D01*
X8440Y5350D01*
X8373D01*
X8340Y5317D01*
Y5283D01*
X8373Y5250D01*
X8473D01*
X7443Y6717D02*
X7410Y6750D01*
X7343D01*
X7310Y6717D01*
Y6583D01*
X7343Y6550D01*
X7410D01*
X7443Y6583D01*
X7510Y6717D02*
X7543Y6750D01*
X7610D01*
X7643Y6717D01*
Y6683D01*
X7610Y6650D01*
X7643Y6617D01*
Y6583D01*
X7610Y6550D01*
X7543D01*
X7510Y6583D01*
Y6617D01*
X7543Y6650D01*
X7510Y6683D01*
Y6717D01*
X7543Y6650D02*
X7610D01*
X6350Y4470D02*
X6550D01*
Y4370D01*
X6517Y4337D01*
X6450D01*
X6417Y4370D01*
Y4470D01*
Y4403D02*
X6350Y4337D01*
X6517Y4270D02*
X6550Y4237D01*
Y4170D01*
X6517Y4137D01*
X6483D01*
X6450Y4170D01*
X6417Y4137D01*
X6383D01*
X6350Y4170D01*
Y4237D01*
X6383Y4270D01*
X6417D01*
X6450Y4237D01*
X6483Y4270D01*
X6517D01*
X6450Y4237D02*
Y4170D01*
X3270Y8710D02*
X3070D01*
Y8810D01*
X3103Y8843D01*
X3170D01*
X3203Y8810D01*
Y8710D01*
Y8777D02*
X3270Y8843D01*
X3070Y9043D02*
X3103Y8977D01*
X3170Y8910D01*
X3237D01*
X3270Y8943D01*
Y9010D01*
X3237Y9043D01*
X3203D01*
X3170Y9010D01*
Y8910D01*
X6862Y2118D02*
X6829Y2151D01*
X6762D01*
X6729Y2118D01*
Y1985D01*
X6762Y1951D01*
X6829D01*
X6862Y1985D01*
X6929Y2151D02*
X7062D01*
Y2118D01*
X6929Y1985D01*
Y1951D01*
X6513Y3398D02*
X6546Y3431D01*
Y3498D01*
X6513Y3531D01*
X6380D01*
X6347Y3498D01*
Y3431D01*
X6380Y3398D01*
X6546Y3198D02*
X6513Y3264D01*
X6446Y3331D01*
X6380D01*
X6347Y3298D01*
Y3231D01*
X6380Y3198D01*
X6413D01*
X6446Y3231D01*
Y3331D01*
X3710Y6860D02*
Y6693D01*
X3743Y6660D01*
X3810D01*
X3843Y6693D01*
Y6860D01*
X3910D02*
X4043D01*
Y6827D01*
X3910Y6693D01*
Y6660D01*
X3023Y4690D02*
X2957D01*
X2990D01*
Y4523D01*
X2957Y4490D01*
X2923D01*
X2890Y4523D01*
X3090Y4490D02*
X3157D01*
X3123D01*
Y4690D01*
X3090Y4657D01*
X3357Y4490D02*
Y4690D01*
X3257Y4590D01*
X3390D01*
X4943Y3860D02*
X4877D01*
X4910D01*
Y3693D01*
X4877Y3660D01*
X4843D01*
X4810Y3693D01*
X5010Y3660D02*
X5077D01*
X5043D01*
Y3860D01*
X5010Y3827D01*
X5177D02*
X5210Y3860D01*
X5277D01*
X5310Y3827D01*
Y3793D01*
X5277Y3760D01*
X5243D01*
X5277D01*
X5310Y3727D01*
Y3693D01*
X5277Y3660D01*
X5210D01*
X5177Y3693D01*
X6843Y5320D02*
X6777D01*
X6810D01*
Y5153D01*
X6777Y5120D01*
X6743D01*
X6710Y5153D01*
X6910Y5120D02*
X6977D01*
X6943D01*
Y5320D01*
X6910Y5287D01*
X7210Y5120D02*
X7077D01*
X7210Y5253D01*
Y5287D01*
X7177Y5320D01*
X7110D01*
X7077Y5287D01*
X6913Y6980D02*
X6847D01*
X6880D01*
Y6813D01*
X6847Y6780D01*
X6813D01*
X6780Y6813D01*
X6980Y6780D02*
X7047D01*
X7013D01*
Y6980D01*
X6980Y6947D01*
X7147Y6780D02*
X7213D01*
X7180D01*
Y6980D01*
X7147Y6947D01*
X242Y10358D02*
X175D01*
X208D01*
Y10192D01*
X175Y10159D01*
X142D01*
X108Y10192D01*
X308Y10325D02*
X342Y10358D01*
X408D01*
X442Y10325D01*
Y10292D01*
X408Y10258D01*
X442Y10225D01*
Y10192D01*
X408Y10159D01*
X342D01*
X308Y10192D01*
Y10225D01*
X342Y10258D01*
X308Y10292D01*
Y10325D01*
X342Y10258D02*
X408D01*
X8842Y10368D02*
X8775D01*
X8808D01*
Y10202D01*
X8775Y10169D01*
X8742D01*
X8708Y10202D01*
X8908D02*
X8942Y10169D01*
X9008D01*
X9042Y10202D01*
Y10335D01*
X9008Y10368D01*
X8942D01*
X8908Y10335D01*
Y10302D01*
X8942Y10268D01*
X9042D01*
X1830Y7980D02*
Y7813D01*
X1863Y7780D01*
X1930D01*
X1963Y7813D01*
Y7980D01*
X2163D02*
X2030D01*
Y7880D01*
X2097Y7913D01*
X2130D01*
X2163Y7880D01*
Y7813D01*
X2130Y7780D01*
X2063D01*
X2030Y7813D01*
X8050Y10980D02*
X8183Y10780D01*
Y10980D02*
X8050Y10780D01*
X8250D02*
Y10980D01*
X8350D01*
X8383Y10947D01*
Y10880D01*
X8350Y10847D01*
X8250D01*
X8317D02*
X8383Y10780D01*
X8583Y10980D02*
X8450D01*
Y10780D01*
X8583D01*
X8450Y10880D02*
X8517D01*
X8783Y10947D02*
X8750Y10980D01*
X8683D01*
X8650Y10947D01*
Y10913D01*
X8683Y10880D01*
X8750D01*
X8783Y10847D01*
Y10813D01*
X8750Y10780D01*
X8683D01*
X8650Y10813D01*
X4233Y10947D02*
X4200Y10980D01*
X4133D01*
X4100Y10947D01*
Y10913D01*
X4133Y10880D01*
X4200D01*
X4233Y10847D01*
Y10813D01*
X4200Y10780D01*
X4133D01*
X4100Y10813D01*
X4300Y10980D02*
Y10780D01*
X4400D01*
X4433Y10813D01*
Y10947D01*
X4400Y10980D01*
X4300D01*
X4500Y10780D02*
Y10913D01*
X4567Y10980D01*
X4633Y10913D01*
Y10780D01*
Y10880D01*
X4500D01*
X6473Y10947D02*
X6440Y10980D01*
X6373D01*
X6340Y10947D01*
Y10913D01*
X6373Y10880D01*
X6440D01*
X6473Y10847D01*
Y10813D01*
X6440Y10780D01*
X6373D01*
X6340Y10813D01*
X6540Y10980D02*
Y10780D01*
X6607Y10847D01*
X6673Y10780D01*
Y10980D01*
X6740D02*
Y10780D01*
X6840D01*
X6873Y10813D01*
Y10947D01*
X6840Y10980D01*
X6740D01*
X6940Y10747D02*
X7073D01*
X7140Y10980D02*
Y10780D01*
X7240D01*
X7273Y10813D01*
Y10947D01*
X7240Y10980D01*
X7140D01*
X7340Y10780D02*
Y10913D01*
X7406Y10980D01*
X7473Y10913D01*
Y10780D01*
Y10880D01*
X7340D01*
X7540Y10980D02*
X7673D01*
X7606D01*
Y10780D01*
X7740D02*
Y10913D01*
X7806Y10980D01*
X7873Y10913D01*
Y10780D01*
Y10880D01*
X7740D01*
X5033Y10947D02*
X5000Y10980D01*
X4933D01*
X4900Y10947D01*
Y10913D01*
X4933Y10880D01*
X5000D01*
X5033Y10847D01*
Y10813D01*
X5000Y10780D01*
X4933D01*
X4900Y10813D01*
X5100Y10980D02*
Y10780D01*
X5167Y10847D01*
X5233Y10780D01*
Y10980D01*
X5300D02*
Y10780D01*
X5400D01*
X5433Y10813D01*
Y10947D01*
X5400Y10980D01*
X5300D01*
X5500Y10747D02*
X5633D01*
X5833Y10947D02*
X5800Y10980D01*
X5733D01*
X5700Y10947D01*
Y10813D01*
X5733Y10780D01*
X5800D01*
X5833Y10813D01*
X5900Y10980D02*
Y10780D01*
X6033D01*
X6100Y10980D02*
Y10780D01*
Y10847D01*
X6233Y10980D01*
X6133Y10880D01*
X6233Y10780D01*
X1550Y10980D02*
Y10847D01*
X1617Y10780D01*
X1683Y10847D01*
Y10980D01*
X1883Y10947D02*
X1850Y10980D01*
X1783D01*
X1750Y10947D01*
Y10813D01*
X1783Y10780D01*
X1850D01*
X1883Y10813D01*
X2083Y10947D02*
X2050Y10980D01*
X1983D01*
X1950Y10947D01*
Y10813D01*
X1983Y10780D01*
X2050D01*
X2083Y10813D01*
X140Y10980D02*
Y10847D01*
X207Y10780D01*
X273Y10847D01*
Y10980D01*
X340Y10747D02*
X473D01*
X540Y10980D02*
Y10780D01*
X640D01*
X673Y10813D01*
Y10847D01*
X640Y10880D01*
X540D01*
X640D01*
X673Y10913D01*
Y10947D01*
X640Y10980D01*
X540D01*
X740Y10780D02*
Y10913D01*
X806Y10980D01*
X873Y10913D01*
Y10780D01*
Y10880D01*
X740D01*
X940Y10980D02*
X1073D01*
X1006D01*
Y10780D01*
X1140Y10980D02*
X1273D01*
X1206D01*
Y10780D01*
X9363Y10947D02*
X9330Y10980D01*
X9263D01*
X9230Y10947D01*
Y10813D01*
X9263Y10780D01*
X9330D01*
X9363Y10813D01*
Y10880D01*
X9297D01*
X9430Y10780D02*
Y10980D01*
X9563Y10780D01*
Y10980D01*
X9630D02*
Y10780D01*
X9730D01*
X9763Y10813D01*
Y10947D01*
X9730Y10980D01*
X9630D01*
X2993Y10947D02*
X2960Y10980D01*
X2893D01*
X2860Y10947D01*
Y10913D01*
X2893Y10880D01*
X2960D01*
X2993Y10847D01*
Y10813D01*
X2960Y10780D01*
X2893D01*
X2860Y10813D01*
X3193Y10947D02*
X3160Y10980D01*
X3093D01*
X3060Y10947D01*
Y10813D01*
X3093Y10780D01*
X3160D01*
X3193Y10813D01*
X3260Y10980D02*
Y10780D01*
X3393D01*
X5866Y1621D02*
X5667D01*
Y1488D01*
X5833Y1421D02*
X5866Y1388D01*
Y1321D01*
X5833Y1288D01*
X5800D01*
X5766Y1321D01*
Y1354D01*
Y1321D01*
X5733Y1288D01*
X5700D01*
X5667Y1321D01*
Y1388D01*
X5700Y1421D01*
X6840Y2710D02*
Y2510D01*
X6973D01*
X7040D02*
X7107D01*
X7073D01*
Y2710D01*
X7040Y2677D01*
X3360Y1650D02*
Y1450D01*
X3460D01*
X3493Y1483D01*
Y1617D01*
X3460Y1650D01*
X3360D01*
X3560Y1450D02*
X3627D01*
X3593D01*
Y1650D01*
X3560Y1617D01*
X4293Y9237D02*
X4260Y9270D01*
X4193D01*
X4160Y9237D01*
Y9103D01*
X4193Y9070D01*
X4260D01*
X4293Y9103D01*
X4493Y9270D02*
X4360D01*
Y9170D01*
X4427Y9203D01*
X4460D01*
X4493Y9170D01*
Y9103D01*
X4460Y9070D01*
X4393D01*
X4360Y9103D01*
X4263Y9687D02*
X4230Y9720D01*
X4163D01*
X4130Y9687D01*
Y9553D01*
X4163Y9520D01*
X4230D01*
X4263Y9553D01*
X4430Y9520D02*
Y9720D01*
X4330Y9620D01*
X4463D01*
X5703Y8077D02*
X5670Y8110D01*
X5603D01*
X5570Y8077D01*
Y7943D01*
X5603Y7910D01*
X5670D01*
X5703Y7943D01*
X5770Y8077D02*
X5803Y8110D01*
X5870D01*
X5903Y8077D01*
Y8043D01*
X5870Y8010D01*
X5837D01*
X5870D01*
X5903Y7977D01*
Y7943D01*
X5870Y7910D01*
X5803D01*
X5770Y7943D01*
X8365Y7909D02*
X8332Y7942D01*
X8265D01*
X8232Y7909D01*
Y7775D01*
X8265Y7742D01*
X8332D01*
X8365Y7775D01*
X8565Y7742D02*
X8432D01*
X8565Y7875D01*
Y7909D01*
X8532Y7942D01*
X8465D01*
X8432Y7909D01*
X5690Y6212D02*
Y6179D01*
X5757Y6112D01*
X5823Y6179D01*
Y6212D01*
X5757Y6112D02*
Y6013D01*
X5990D02*
Y6212D01*
X5890Y6112D01*
X6023D01*
X2680Y3210D02*
Y3177D01*
X2747Y3110D01*
X2813Y3177D01*
Y3210D01*
X2747Y3110D02*
Y3010D01*
X2880Y3177D02*
X2913Y3210D01*
X2980D01*
X3013Y3177D01*
Y3143D01*
X2980Y3110D01*
X2947D01*
X2980D01*
X3013Y3077D01*
Y3043D01*
X2980Y3010D01*
X2913D01*
X2880Y3043D01*
X250Y6530D02*
Y6363D01*
X283Y6330D01*
X350D01*
X383Y6363D01*
Y6530D01*
X583D02*
X517Y6497D01*
X450Y6430D01*
Y6363D01*
X483Y6330D01*
X550D01*
X583Y6363D01*
Y6397D01*
X550Y6430D01*
X450D01*
X610Y1810D02*
Y1643D01*
X643Y1610D01*
X710D01*
X743Y1643D01*
Y1810D01*
X910Y1610D02*
Y1810D01*
X810Y1710D01*
X943D01*
X8160Y6910D02*
X8360D01*
Y6810D01*
X8327Y6777D01*
X8260D01*
X8227Y6810D01*
Y6910D01*
Y6843D02*
X8160Y6777D01*
Y6710D02*
Y6643D01*
Y6677D01*
X8360D01*
X8327Y6710D01*
X8160Y6543D02*
Y6477D01*
Y6510D01*
X8360D01*
X8327Y6543D01*
X1800Y3490D02*
Y3690D01*
X1900D01*
X1933Y3657D01*
Y3590D01*
X1900Y3557D01*
X1800D01*
X1867D02*
X1933Y3490D01*
X2000Y3690D02*
X2133D01*
Y3657D01*
X2000Y3523D01*
Y3490D01*
X1767Y2910D02*
Y3110D01*
X1867D01*
X1901Y3077D01*
Y3010D01*
X1867Y2977D01*
X1767D01*
X1834D02*
X1901Y2910D01*
X1967Y3077D02*
X2001Y3110D01*
X2067D01*
X2101Y3077D01*
Y3043D01*
X2067Y3010D01*
X2034D01*
X2067D01*
X2101Y2977D01*
Y2943D01*
X2067Y2910D01*
X2001D01*
X1967Y2943D01*
X1757Y2310D02*
Y2510D01*
X1857D01*
X1891Y2477D01*
Y2410D01*
X1857Y2377D01*
X1757D01*
X1824D02*
X1891Y2310D01*
X2091D02*
X1957D01*
X2091Y2443D01*
Y2477D01*
X2057Y2510D01*
X1991D01*
X1957Y2477D01*
X4850Y7350D02*
Y7150D01*
X4983D01*
X5183D02*
X5050D01*
X5183Y7283D01*
Y7317D01*
X5150Y7350D01*
X5083D01*
X5050Y7317D01*
X8873Y2030D02*
X8740D01*
Y1830D01*
X8873D01*
X8740Y1930D02*
X8807D01*
X9073Y1830D02*
X8940D01*
X9073Y1963D01*
Y1997D01*
X9040Y2030D01*
X8973D01*
X8940Y1997D01*
X3553Y7973D02*
X3520Y7940D01*
Y7873D01*
X3553Y7840D01*
X3687D01*
X3720Y7873D01*
Y7940D01*
X3687Y7973D01*
X3720Y8140D02*
X3520D01*
X3620Y8040D01*
Y8173D01*
X3720Y8373D02*
Y8240D01*
X3587Y8373D01*
X3553D01*
X3520Y8340D01*
Y8273D01*
X3553Y8240D01*
X1523Y6957D02*
X1490Y6990D01*
X1423D01*
X1390Y6957D01*
Y6823D01*
X1423Y6790D01*
X1490D01*
X1523Y6823D01*
X1690Y6790D02*
Y6990D01*
X1590Y6890D01*
X1723D01*
X1790Y6790D02*
X1857D01*
X1823D01*
Y6990D01*
X1790Y6957D01*
X1483Y7307D02*
X1450Y7340D01*
X1383D01*
X1350Y7307D01*
Y7173D01*
X1383Y7140D01*
X1450D01*
X1483Y7173D01*
X1650Y7140D02*
Y7340D01*
X1550Y7240D01*
X1683D01*
X1750Y7307D02*
X1783Y7340D01*
X1850D01*
X1883Y7307D01*
Y7173D01*
X1850Y7140D01*
X1783D01*
X1750Y7173D01*
Y7307D01*
X7383Y4867D02*
X7350Y4900D01*
X7283D01*
X7250Y4867D01*
Y4733D01*
X7283Y4700D01*
X7350D01*
X7383Y4733D01*
X7450Y4867D02*
X7483Y4900D01*
X7550D01*
X7583Y4867D01*
Y4833D01*
X7550Y4800D01*
X7517D01*
X7550D01*
X7583Y4767D01*
Y4733D01*
X7550Y4700D01*
X7483D01*
X7450Y4733D01*
X7783Y4900D02*
X7650D01*
Y4800D01*
X7717Y4833D01*
X7750D01*
X7783Y4800D01*
Y4733D01*
X7750Y4700D01*
X7683D01*
X7650Y4733D01*
X2573Y7267D02*
X2540Y7300D01*
X2473D01*
X2440Y7267D01*
Y7133D01*
X2473Y7100D01*
X2540D01*
X2573Y7133D01*
X2640Y7267D02*
X2673Y7300D01*
X2740D01*
X2773Y7267D01*
Y7233D01*
X2740Y7200D01*
X2707D01*
X2740D01*
X2773Y7167D01*
Y7133D01*
X2740Y7100D01*
X2673D01*
X2640Y7133D01*
X2940Y7100D02*
Y7300D01*
X2840Y7200D01*
X2973D01*
X4143Y8267D02*
X4110Y8300D01*
X4043D01*
X4010Y8267D01*
Y8133D01*
X4043Y8100D01*
X4110D01*
X4143Y8133D01*
X4343Y8100D02*
X4210D01*
X4343Y8233D01*
Y8267D01*
X4310Y8300D01*
X4243D01*
X4210Y8267D01*
X4409D02*
X4443Y8300D01*
X4509D01*
X4543Y8267D01*
Y8233D01*
X4509Y8200D01*
X4543Y8167D01*
Y8133D01*
X4509Y8100D01*
X4443D01*
X4409Y8133D01*
Y8167D01*
X4443Y8200D01*
X4409Y8233D01*
Y8267D01*
X4443Y8200D02*
X4509D01*
X4203Y8677D02*
X4170Y8710D01*
X4103D01*
X4070Y8677D01*
Y8543D01*
X4103Y8510D01*
X4170D01*
X4203Y8543D01*
X4403Y8510D02*
X4270D01*
X4403Y8643D01*
Y8677D01*
X4370Y8710D01*
X4303D01*
X4270Y8677D01*
X4469Y8710D02*
X4603D01*
Y8677D01*
X4469Y8543D01*
Y8510D01*
X7263Y7337D02*
X7230Y7370D01*
X7163D01*
X7130Y7337D01*
Y7203D01*
X7163Y7170D01*
X7230D01*
X7263Y7203D01*
X7463Y7170D02*
X7330D01*
X7463Y7303D01*
Y7337D01*
X7430Y7370D01*
X7363D01*
X7330Y7337D01*
X7530D02*
X7563Y7370D01*
X7630D01*
X7663Y7337D01*
Y7303D01*
X7630Y7270D01*
X7597D01*
X7630D01*
X7663Y7237D01*
Y7203D01*
X7630Y7170D01*
X7563D01*
X7530Y7203D01*
X6583Y7357D02*
X6550Y7390D01*
X6483D01*
X6450Y7357D01*
Y7223D01*
X6483Y7190D01*
X6550D01*
X6583Y7223D01*
X6783Y7190D02*
X6650D01*
X6783Y7323D01*
Y7357D01*
X6750Y7390D01*
X6683D01*
X6650Y7357D01*
X6850Y7190D02*
X6917D01*
X6883D01*
Y7390D01*
X6850Y7357D01*
X9613Y5763D02*
X9580Y5730D01*
Y5663D01*
X9613Y5630D01*
X9747D01*
X9780Y5663D01*
Y5730D01*
X9747Y5763D01*
X9780Y5830D02*
Y5897D01*
Y5863D01*
X9580D01*
X9613Y5830D01*
X9580Y6130D02*
Y5997D01*
X9680D01*
X9647Y6063D01*
Y6097D01*
X9680Y6130D01*
X9747D01*
X9780Y6097D01*
Y6030D01*
X9747Y5997D01*
X3097Y1537D02*
X3130Y1570D01*
Y1637D01*
X3097Y1670D01*
X2963D01*
X2930Y1637D01*
Y1570D01*
X2963Y1537D01*
X2930Y1470D02*
Y1403D01*
Y1437D01*
X3130D01*
X3097Y1470D01*
Y1303D02*
X3130Y1270D01*
Y1203D01*
X3097Y1170D01*
X3063D01*
X3030Y1203D01*
X2997Y1170D01*
X2963D01*
X2930Y1203D01*
Y1270D01*
X2963Y1303D01*
X2997D01*
X3030Y1270D01*
X3063Y1303D01*
X3097D01*
X3030Y1270D02*
Y1203D01*
X2517Y1547D02*
X2550Y1580D01*
Y1647D01*
X2517Y1680D01*
X2383D01*
X2350Y1647D01*
Y1580D01*
X2383Y1547D01*
X2350Y1480D02*
Y1413D01*
Y1447D01*
X2550D01*
X2517Y1480D01*
X2550Y1313D02*
Y1180D01*
X2517D01*
X2383Y1313D01*
X2350D01*
X9590Y7240D02*
X9790D01*
Y7140D01*
X9757Y7107D01*
X9690D01*
X9657Y7140D01*
Y7240D01*
Y7173D02*
X9590Y7107D01*
X9790Y6907D02*
Y7040D01*
X9690D01*
X9723Y6973D01*
Y6940D01*
X9690Y6907D01*
X9623D01*
X9590Y6940D01*
Y7007D01*
X9623Y7040D01*
X8260Y7200D02*
Y7400D01*
X8360D01*
X8393Y7367D01*
Y7300D01*
X8360Y7267D01*
X8260D01*
X8327D02*
X8393Y7200D01*
X8560D02*
Y7400D01*
X8460Y7300D01*
X8593D01*
X8660Y6423D02*
X8627Y6390D01*
Y6323D01*
X8660Y6290D01*
X8793D01*
X8826Y6323D01*
Y6390D01*
X8793Y6423D01*
X8826Y6490D02*
Y6557D01*
Y6523D01*
X8627D01*
X8660Y6490D01*
X3580Y770D02*
Y970D01*
X3680D01*
X3713Y937D01*
Y870D01*
X3680Y837D01*
X3580D01*
X3647D02*
X3713Y770D01*
X3780D02*
X3847D01*
X3813D01*
Y970D01*
X3780Y937D01*
M02*
