G04 Layer_Physical_Order=4*
G04 Layer_Color=16711680*
%FSLAX25Y25*%
%MOIN*%
G70*
G01*
G75*
%ADD31C,0.00800*%
%ADD38C,0.00984*%
%ADD39C,0.00787*%
D31*
X-20000Y-14000D02*
Y-9000D01*
Y-4500D01*
Y-500D01*
Y3500D01*
X-5045Y2919D02*
Y6069D01*
Y2919D02*
X-5045Y2919D01*
X-3471D01*
X-321D01*
X-3471Y-1700D02*
X-3365Y-1805D01*
X-321D01*
X-3471Y-3380D02*
Y-1700D01*
Y2919D01*
X-8195Y-3380D02*
Y2919D01*
X-5046D01*
X-5045Y2919D01*
X-12919Y2919D02*
Y6069D01*
Y2919D02*
X-8195D01*
X-8195Y2919D01*
X-20000Y3500D02*
X-17424D01*
X-16843Y2919D01*
X-12919D01*
X9000Y-24000D02*
X13500D01*
Y-31000D02*
Y-24000D01*
Y-32742D02*
Y-31000D01*
Y-32742D02*
X14314Y-33555D01*
X26232D01*
X27500Y-32288D01*
Y-29500D01*
X-20000Y-19948D02*
X-15948Y-24000D01*
X-20000Y-19948D02*
Y-14000D01*
X-3500Y-23974D02*
Y-19500D01*
X-15948Y-24000D02*
X-3474D01*
X-20000Y3500D02*
Y7259D01*
X-23241Y10500D02*
X-20000Y7259D01*
X-33000Y10500D02*
X-23241D01*
X-3500Y-23974D02*
X-3474Y-24000D01*
X9000D01*
D38*
X-8195Y-3380D02*
X-8195Y-3380D01*
D39*
X-42745Y-12830D02*
D03*
X-321Y2919D02*
D03*
X-5045Y6069D02*
D03*
X-8195Y-3380D02*
D03*
X-3471Y-3380D02*
D03*
X-12919Y6069D02*
D03*
X-321Y-1805D02*
D03*
X-20000Y-4500D02*
D03*
Y-500D02*
D03*
Y-9000D02*
D03*
Y3500D02*
D03*
Y-14000D02*
D03*
X-3500Y-19500D02*
D03*
X9000Y-24000D02*
D03*
X13500D02*
D03*
Y-31000D02*
D03*
X27500Y-29500D02*
D03*
X-33000Y10500D02*
D03*
M02*
