G04 Layer_Color=16711935*
%FSLAX24Y24*%
%MOIN*%
G70*
G01*
G75*
%ADD68C,0.0280*%
D68*
X5710Y6950D02*
D03*
Y7590D02*
D03*
X4450Y7870D02*
D03*
X2160Y2810D02*
D03*
X3560Y1080D02*
D03*
X3530Y400D02*
D03*
X310Y250D02*
D03*
X9690Y7580D02*
D03*
X7900Y6579D02*
D03*
X760Y3000D02*
D03*
X4060Y4240D02*
D03*
X3360Y2640D02*
D03*
X4170Y2630D02*
D03*
X2870Y5830D02*
D03*
X2760Y6740D02*
D03*
X3100Y6170D02*
D03*
X1410Y6580D02*
D03*
X4890Y6690D02*
D03*
X4400Y6950D02*
D03*
X5708Y5505D02*
D03*
X8530Y7630D02*
D03*
X9340Y6340D02*
D03*
X7880Y5430D02*
D03*
X4480Y390D02*
D03*
X8750Y5150D02*
D03*
X5210Y4610D02*
D03*
X790Y4260D02*
D03*
X1750Y4250D02*
D03*
X2080Y1240D02*
D03*
X1830Y6470D02*
D03*
X2020Y8400D02*
D03*
X2400Y10030D02*
D03*
X3870Y9330D02*
D03*
X3650Y10070D02*
D03*
X5010Y10230D02*
D03*
X6320Y10290D02*
D03*
X7420Y9880D02*
D03*
X5780Y8690D02*
D03*
X6770Y9070D02*
D03*
X7970Y9020D02*
D03*
X6650Y8290D02*
D03*
X7620Y8250D02*
D03*
X9340Y5420D02*
D03*
X790Y6480D02*
D03*
X4560Y1913D02*
D03*
X9500Y10350D02*
D03*
X8230D02*
D03*
X6950D02*
D03*
X5650D02*
D03*
X4360D02*
D03*
X3070D02*
D03*
X1770D02*
D03*
X2210Y5180D02*
D03*
X1370Y1800D02*
D03*
X3360Y5380D02*
D03*
X2520Y6430D02*
D03*
X4503Y4523D02*
D03*
X8230Y5600D02*
D03*
M02*
