G04 Layer_Color=8421504*
%FSLAX24Y24*%
%MOIN*%
G70*
G01*
G75*
%ADD17R,0.0283X0.0283*%
%ADD18R,0.0287X0.0291*%
%ADD19R,0.0256X0.0256*%
%ADD20R,0.0291X0.0591*%
%ADD21R,0.0283X0.0283*%
%ADD22R,0.1181X0.1968*%
%ADD24R,0.0787X0.0787*%
%ADD25R,0.0291X0.0287*%
%ADD26R,0.0276X0.0197*%
%ADD27R,0.0394X0.0197*%
G04:AMPARAMS|DCode=28|XSize=47.2mil|YSize=43.3mil|CornerRadius=0mil|HoleSize=0mil|Usage=FLASHONLY|Rotation=135.000|XOffset=0mil|YOffset=0mil|HoleType=Round|Shape=Rectangle|*
%AMROTATEDRECTD28*
4,1,4,0.0320,-0.0014,0.0014,-0.0320,-0.0320,0.0014,-0.0014,0.0320,0.0320,-0.0014,0.0*
%
%ADD28ROTATEDRECTD28*%

%ADD29R,0.0315X0.0315*%
%ADD30R,0.0394X0.0630*%
%ADD31R,0.0276X0.0118*%
%ADD32R,0.0217X0.0217*%
%ADD33R,0.0217X0.0217*%
%ADD34R,0.0205X0.0220*%
%ADD35R,0.0220X0.0205*%
%ADD36C,0.0083*%
%ADD37C,0.0197*%
%ADD38C,0.0600*%
%ADD47C,0.0142*%
D17*
X7240Y6300D02*
D03*
X7634D02*
D03*
X7240Y5860D02*
D03*
X7634D02*
D03*
X6256Y2170D02*
D03*
X6650D02*
D03*
X4803Y9140D02*
D03*
X5197D02*
D03*
X4803Y9650D02*
D03*
X5197D02*
D03*
D18*
X4795Y7590D02*
D03*
X5200D02*
D03*
X6660Y2670D02*
D03*
X6254D02*
D03*
D19*
X3180Y8040D02*
D03*
Y8434D02*
D03*
X6100Y4143D02*
D03*
Y4537D02*
D03*
D20*
X9581Y1250D02*
D03*
X8240D02*
D03*
D21*
X6097Y3595D02*
D03*
Y3201D02*
D03*
X6140Y7590D02*
D03*
Y7984D02*
D03*
X7990Y7590D02*
D03*
Y7984D02*
D03*
D22*
X700Y8910D02*
D03*
X9300Y8920D02*
D03*
D24*
X8223Y11500D02*
D03*
X4361D02*
D03*
X6936D02*
D03*
X5649D02*
D03*
X1787D02*
D03*
X500D02*
D03*
X9500D02*
D03*
X3074D02*
D03*
D25*
X6100Y1813D02*
D03*
Y1407D02*
D03*
D26*
X4560Y1540D02*
D03*
X4143D02*
D03*
D27*
X6499Y5859D02*
D03*
Y6293D02*
D03*
D28*
X4143Y3427D02*
D03*
X3670Y3900D02*
D03*
X3280Y3510D02*
D03*
X3754Y3037D02*
D03*
D29*
X1415Y5066D02*
D03*
Y5814D02*
D03*
X785D02*
D03*
Y5066D02*
D03*
D30*
X1260Y920D02*
D03*
D31*
X1673Y664D02*
D03*
Y920D02*
D03*
Y1176D02*
D03*
X847Y664D02*
D03*
Y920D02*
D03*
Y1176D02*
D03*
D32*
X8230Y6277D02*
D03*
Y5963D02*
D03*
X9380Y6910D02*
D03*
Y7225D02*
D03*
X8770D02*
D03*
Y6910D02*
D03*
D33*
X1105Y3590D02*
D03*
X1420D02*
D03*
X1417Y3000D02*
D03*
X1103D02*
D03*
X1417Y2390D02*
D03*
X1103D02*
D03*
X4143Y860D02*
D03*
X4458D02*
D03*
D34*
X3610Y7281D02*
D03*
Y7580D02*
D03*
X7540Y5430D02*
D03*
Y5130D02*
D03*
X3180Y7281D02*
D03*
Y7580D02*
D03*
X7290Y7889D02*
D03*
Y7590D02*
D03*
X6720Y7889D02*
D03*
Y7590D02*
D03*
X9340Y5740D02*
D03*
Y6040D02*
D03*
X3000Y640D02*
D03*
Y940D02*
D03*
X2480Y640D02*
D03*
Y940D02*
D03*
X8750Y5740D02*
D03*
Y6040D02*
D03*
D35*
X780Y6790D02*
D03*
X1080D02*
D03*
X780Y7220D02*
D03*
X1080D02*
D03*
X5099Y8180D02*
D03*
X4800D02*
D03*
X5099Y8600D02*
D03*
X4800D02*
D03*
D36*
X4503Y5190D02*
D03*
X4660D02*
D03*
X5132Y5820D02*
D03*
X4660Y6135D02*
D03*
X4817D02*
D03*
X4975D02*
D03*
X4660Y6292D02*
D03*
X4188D02*
D03*
X4345D02*
D03*
X4503D02*
D03*
X4817D02*
D03*
X4975D02*
D03*
X5132D02*
D03*
X5290D02*
D03*
X4188Y6135D02*
D03*
X4345D02*
D03*
X4503D02*
D03*
X5132D02*
D03*
X5290D02*
D03*
X4188Y5977D02*
D03*
X4345D02*
D03*
X4503D02*
D03*
X4660D02*
D03*
X4817D02*
D03*
X4975D02*
D03*
X5132D02*
D03*
X4188Y5820D02*
D03*
X4345D02*
D03*
X4503D02*
D03*
X4660D02*
D03*
X4817D02*
D03*
X4975D02*
D03*
X4345Y5663D02*
D03*
X4503D02*
D03*
X4660D02*
D03*
X4817D02*
D03*
X4975D02*
D03*
X5132D02*
D03*
X5290D02*
D03*
X4188Y5505D02*
D03*
X4345D02*
D03*
X4503D02*
D03*
X4660D02*
D03*
X4817D02*
D03*
X4975D02*
D03*
X5132D02*
D03*
X5290D02*
D03*
X4188Y5348D02*
D03*
X4345D02*
D03*
X4503D02*
D03*
X4660D02*
D03*
X4817D02*
D03*
X4975D02*
D03*
X5132D02*
D03*
X5290D02*
D03*
X4188Y5190D02*
D03*
X4817D02*
D03*
X4975D02*
D03*
X5132D02*
D03*
X4188Y5033D02*
D03*
X4503D02*
D03*
X4975D02*
D03*
X5132D02*
D03*
D37*
X6990Y6580D02*
D03*
Y5510D02*
D03*
X4703Y4003D02*
D03*
X3320Y4300D02*
D03*
D38*
X5580Y600D02*
D03*
X6770Y4350D02*
D03*
D47*
X2392Y7642D02*
D03*
Y7838D02*
D03*
X2588Y7642D02*
D03*
Y7838D02*
D03*
M02*
