G04 Layer_Physical_Order=1*
G04 Layer_Color=255*
%FSLAX25Y25*%
%MOIN*%
G70*
G01*
G75*
%ADD10R,0.00906X0.01378*%
%ADD11R,0.01378X0.00906*%
%ADD12R,0.03150X0.03150*%
%ADD13R,0.03347X0.05512*%
G04:AMPARAMS|DCode=14|XSize=25.59mil|YSize=47.24mil|CornerRadius=1.92mil|HoleSize=0mil|Usage=FLASHONLY|Rotation=0.000|XOffset=0mil|YOffset=0mil|HoleType=Round|Shape=RoundedRectangle|*
%AMROUNDEDRECTD14*
21,1,0.02559,0.04341,0,0,0.0*
21,1,0.02175,0.04724,0,0,0.0*
1,1,0.00384,0.01088,-0.02170*
1,1,0.00384,-0.01088,-0.02170*
1,1,0.00384,-0.01088,0.02170*
1,1,0.00384,0.01088,0.02170*
%
%ADD14ROUNDEDRECTD14*%
%ADD15R,0.05512X0.03347*%
G04:AMPARAMS|DCode=16|XSize=21.65mil|YSize=31.5mil|CornerRadius=1.95mil|HoleSize=0mil|Usage=FLASHONLY|Rotation=90.000|XOffset=0mil|YOffset=0mil|HoleType=Round|Shape=RoundedRectangle|*
%AMROUNDEDRECTD16*
21,1,0.02165,0.02760,0,0,90.0*
21,1,0.01776,0.03150,0,0,90.0*
1,1,0.00390,0.01380,0.00888*
1,1,0.00390,0.01380,-0.00888*
1,1,0.00390,-0.01380,-0.00888*
1,1,0.00390,-0.01380,0.00888*
%
%ADD16ROUNDEDRECTD16*%
%ADD17R,0.06693X0.03150*%
%ADD18R,0.03583X0.01614*%
%ADD19R,0.01614X0.03583*%
%ADD20R,0.08465X0.08465*%
%ADD21R,0.01181X0.02953*%
%ADD22R,0.02953X0.01181*%
G04:AMPARAMS|DCode=23|XSize=11.81mil|YSize=29.53mil|CornerRadius=2.95mil|HoleSize=0mil|Usage=FLASHONLY|Rotation=270.000|XOffset=0mil|YOffset=0mil|HoleType=Round|Shape=RoundedRectangle|*
%AMROUNDEDRECTD23*
21,1,0.01181,0.02362,0,0,270.0*
21,1,0.00591,0.02953,0,0,270.0*
1,1,0.00591,-0.01181,-0.00295*
1,1,0.00591,-0.01181,0.00295*
1,1,0.00591,0.01181,0.00295*
1,1,0.00591,0.01181,-0.00295*
%
%ADD23ROUNDEDRECTD23*%
%ADD24R,0.05315X0.01772*%
G04:AMPARAMS|DCode=25|XSize=50mil|YSize=50mil|CornerRadius=6.25mil|HoleSize=0mil|Usage=FLASHONLY|Rotation=180.000|XOffset=0mil|YOffset=0mil|HoleType=Round|Shape=RoundedRectangle|*
%AMROUNDEDRECTD25*
21,1,0.05000,0.03750,0,0,180.0*
21,1,0.03750,0.05000,0,0,180.0*
1,1,0.01250,-0.01875,0.01875*
1,1,0.01250,0.01875,0.01875*
1,1,0.01250,0.01875,-0.01875*
1,1,0.01250,-0.01875,-0.01875*
%
%ADD25ROUNDEDRECTD25*%
%ADD26R,0.02756X0.01181*%
%ADD27R,0.03937X0.06299*%
%ADD28C,0.01000*%
%ADD29C,0.00600*%
%ADD30C,0.01500*%
%ADD31R,0.00800X0.02679*%
%ADD32R,0.02679X0.00800*%
%ADD33C,0.04000*%
%ADD34R,0.04921X0.04921*%
%ADD35R,0.05905X0.05905*%
%ADD36C,0.14961*%
%ADD37C,0.02500*%
G36*
X5126Y28125D02*
X5221Y27647D01*
X5492Y27242D01*
X5897Y26971D01*
X6375Y26876D01*
X10125D01*
X10603Y26971D01*
X10646Y27000D01*
X13354D01*
X13397Y26971D01*
X13875Y26876D01*
X17625D01*
X18103Y26971D01*
X18508Y27242D01*
X18779Y27647D01*
X18874Y28125D01*
Y28826D01*
X19474Y28954D01*
X19666Y28666D01*
X20278Y28257D01*
X21000Y28114D01*
X21722Y28257D01*
X21999Y28442D01*
X22599Y28122D01*
Y16780D01*
X22599Y16780D01*
X22684Y16350D01*
X22927Y15987D01*
X23937Y14977D01*
X23860Y14464D01*
X23327Y14130D01*
X23000Y14195D01*
Y12000D01*
X22000D01*
Y14195D01*
X21622Y14119D01*
X21447Y14002D01*
X20918Y14285D01*
Y21000D01*
X20848Y21351D01*
X20649Y21649D01*
X19649Y22649D01*
X19374Y22832D01*
Y23875D01*
X19279Y24353D01*
X19008Y24758D01*
X18603Y25029D01*
X18125Y25124D01*
X14375D01*
X13897Y25029D01*
X13854Y25000D01*
X11146D01*
X11103Y25029D01*
X10625Y25124D01*
X6875D01*
X6397Y25029D01*
X5992Y24758D01*
X5721Y24353D01*
X5626Y23875D01*
Y22918D01*
X4612D01*
X4334Y23334D01*
X3722Y23743D01*
X3000Y23886D01*
X2278Y23743D01*
X1722Y23371D01*
X1459Y23434D01*
X1122Y23599D01*
Y27975D01*
X1722Y28295D01*
X1778Y28257D01*
X2500Y28114D01*
X3222Y28257D01*
X3834Y28666D01*
X4112Y29082D01*
X5126D01*
Y28125D01*
D02*
G37*
G36*
X37931Y144982D02*
X37757Y144722D01*
X37614Y144000D01*
X37757Y143278D01*
X38166Y142666D01*
X38582Y142388D01*
Y142000D01*
X38652Y141649D01*
X38851Y141351D01*
X39851Y140351D01*
X40149Y140152D01*
X40500Y140082D01*
X46120D01*
X46582Y139620D01*
Y137880D01*
X46120Y137418D01*
X45478D01*
Y137691D01*
X42335D01*
Y138091D01*
X39866D01*
Y133941D01*
Y129791D01*
X43000D01*
Y131382D01*
X43500D01*
Y131882D01*
X45878D01*
Y132819D01*
X46941D01*
X46941Y132819D01*
X47370Y132905D01*
X47734Y133148D01*
X50465Y135878D01*
X51782D01*
Y133644D01*
X52934D01*
Y132970D01*
X52399Y132633D01*
X52334Y132628D01*
X52000Y132695D01*
Y130500D01*
Y128305D01*
X52378Y128381D01*
X53122Y128878D01*
X53619Y129622D01*
X53756Y130309D01*
X54346Y130568D01*
X56148Y128766D01*
X56156Y128755D01*
X56209Y128096D01*
X56165Y127963D01*
X53620Y125418D01*
X34112D01*
X33834Y125834D01*
X33222Y126243D01*
X32500Y126386D01*
X31778Y126243D01*
X31166Y125834D01*
X30757Y125222D01*
X30614Y124500D01*
X30757Y123778D01*
X31166Y123166D01*
X31582Y122888D01*
Y119564D01*
X31433Y119443D01*
X31014Y119284D01*
X28918Y121380D01*
Y128069D01*
X29518Y128284D01*
X30122Y127881D01*
X30500Y127805D01*
Y130000D01*
X31500D01*
Y127805D01*
X31878Y127881D01*
X32622Y128378D01*
X33119Y129122D01*
X33294Y130000D01*
X33451Y130191D01*
X36398D01*
Y129791D01*
X38866D01*
Y133941D01*
Y138091D01*
X36398D01*
Y137691D01*
X33254D01*
Y137418D01*
X28918D01*
Y139120D01*
X29649Y139851D01*
X29848Y140149D01*
X29918Y140500D01*
Y141388D01*
X30334Y141666D01*
X30743Y142278D01*
X30886Y143000D01*
X30789Y143491D01*
X32880Y145582D01*
X37611D01*
X37931Y144982D01*
D02*
G37*
G36*
X27239Y27911D02*
Y25530D01*
X27239D01*
Y25352D01*
X27239D01*
Y22971D01*
X31071D01*
Y21315D01*
X32661D01*
Y20815D01*
X33161D01*
Y18339D01*
X34252D01*
Y18739D01*
X36411D01*
Y18739D01*
X36589D01*
Y18739D01*
X38970D01*
Y18739D01*
X38982D01*
X39582Y18339D01*
Y17112D01*
X39166Y16834D01*
X38757Y16222D01*
X38614Y15500D01*
X38757Y14778D01*
X39166Y14166D01*
X39778Y13757D01*
X40500Y13614D01*
X41222Y13757D01*
X41834Y14166D01*
X42243Y14778D01*
X42386Y15500D01*
X42243Y16222D01*
X41834Y16834D01*
X41418Y17112D01*
Y18739D01*
X41529D01*
Y22233D01*
X41732Y22768D01*
X42332Y22987D01*
X42504Y22953D01*
X44866D01*
X45215Y23023D01*
X45241Y23040D01*
X50378D01*
Y12976D01*
X50166Y12834D01*
X50024Y12622D01*
X48173D01*
X47852Y13221D01*
X48120Y13622D01*
X48195Y14000D01*
X43805D01*
X43881Y13622D01*
X44148Y13221D01*
X43828Y12622D01*
X32673D01*
X32352Y13221D01*
X32620Y13622D01*
X32695Y14000D01*
X30500D01*
Y14500D01*
X30000D01*
Y16695D01*
X29622Y16620D01*
X28878Y16122D01*
X28381Y15378D01*
X28269Y14818D01*
X27657D01*
X27593Y15143D01*
X27184Y15755D01*
X26572Y16164D01*
X25850Y16307D01*
X25791Y16295D01*
X24842Y17244D01*
Y28158D01*
X26741D01*
X27239Y27911D01*
D02*
G37*
G36*
X148878Y72703D02*
X148324Y72474D01*
X147149Y73649D01*
X146851Y73848D01*
X146500Y73918D01*
X143112D01*
X142834Y74334D01*
X142222Y74743D01*
X141500Y74886D01*
X140778Y74743D01*
X140166Y74334D01*
X139888Y73918D01*
X138218D01*
Y76356D01*
X133672D01*
Y69644D01*
X138218D01*
Y72082D01*
X139888D01*
X140166Y71666D01*
X140778Y71257D01*
X141500Y71114D01*
X142222Y71257D01*
X142834Y71666D01*
X143112Y72082D01*
X146120D01*
X147682Y70520D01*
Y64761D01*
X147082Y64557D01*
X146854Y64854D01*
X146311Y65271D01*
X145679Y65533D01*
X145000Y65622D01*
X144321Y65533D01*
X143689Y65271D01*
X143146Y64854D01*
X142729Y64311D01*
X142566Y63918D01*
X138218D01*
Y66856D01*
X133672D01*
Y60144D01*
X138218D01*
Y62082D01*
X142566D01*
X142729Y61689D01*
X143146Y61146D01*
X143689Y60729D01*
X144321Y60467D01*
X145000Y60378D01*
X145679Y60467D01*
X146072Y60630D01*
X146482Y60220D01*
Y56012D01*
X145882Y55717D01*
X145811Y55771D01*
X145179Y56033D01*
X144500Y56122D01*
X143821Y56033D01*
X143189Y55771D01*
X142646Y55354D01*
X142229Y54811D01*
X142066Y54418D01*
X138218D01*
Y56856D01*
X133672D01*
Y50144D01*
X135582D01*
Y47420D01*
X134982Y47301D01*
X134771Y47811D01*
X134354Y48354D01*
X133811Y48771D01*
X133179Y49033D01*
X132500Y49122D01*
X131821Y49033D01*
X131189Y48771D01*
X130777Y48455D01*
X130335Y48599D01*
X130177Y48724D01*
Y50144D01*
X131328D01*
Y56856D01*
X130177D01*
Y60144D01*
X131328D01*
Y66856D01*
X130177D01*
Y69644D01*
X131328D01*
Y76356D01*
X130177D01*
Y81590D01*
X131465Y82878D01*
X141000D01*
X141000Y82878D01*
X141429Y82964D01*
X141793Y83207D01*
X146293Y87707D01*
X146293Y87707D01*
X146536Y88071D01*
X146622Y88500D01*
X146622Y88500D01*
Y120000D01*
Y141000D01*
X146536Y141429D01*
X146293Y141793D01*
X146293Y141793D01*
X139808Y148278D01*
X140056Y148878D01*
X148878D01*
Y72703D01*
D02*
G37*
G36*
X49182Y106520D02*
Y88980D01*
X45491Y85289D01*
X45000Y85386D01*
X44278Y85243D01*
X43666Y84834D01*
X43257Y84222D01*
X43114Y83500D01*
X43257Y82778D01*
X43666Y82166D01*
X44278Y81757D01*
X45000Y81614D01*
X45722Y81757D01*
X46334Y82166D01*
X46743Y82778D01*
X46886Y83500D01*
X46789Y83991D01*
X49824Y87026D01*
X50378Y86797D01*
Y61000D01*
Y50725D01*
X50063Y50256D01*
X49778Y50256D01*
X47890D01*
Y46500D01*
Y42744D01*
X49778D01*
X50063Y42744D01*
X50378Y42275D01*
Y38703D01*
X49824Y38474D01*
X48149Y40149D01*
X47851Y40348D01*
X47500Y40418D01*
X45112D01*
X44834Y40834D01*
X44222Y41243D01*
X43500Y41386D01*
X42778Y41243D01*
X42166Y40834D01*
X41757Y40222D01*
X41614Y39500D01*
X41757Y38778D01*
X42166Y38166D01*
X42778Y37757D01*
X43500Y37614D01*
X44222Y37757D01*
X44834Y38166D01*
X45112Y38582D01*
X47120D01*
X49182Y36520D01*
Y31680D01*
X48830Y31491D01*
X48582Y31414D01*
X48280Y31474D01*
Y29280D01*
X47280D01*
Y31474D01*
X46902Y31399D01*
X46361Y31038D01*
X45761Y31307D01*
Y33029D01*
X41732D01*
Y33232D01*
X41529D01*
Y37261D01*
X39148D01*
X38697Y37622D01*
Y39399D01*
X41149Y41851D01*
X41348Y42149D01*
X41418Y42500D01*
Y43144D01*
X42773D01*
Y49856D01*
X42002D01*
X41754Y50456D01*
X42094Y50796D01*
X42293Y51094D01*
X42362Y51445D01*
Y52282D01*
X44801D01*
Y56828D01*
X38089D01*
Y52977D01*
X37953Y52874D01*
X37489Y52711D01*
X36878Y53119D01*
X36500Y53195D01*
Y51000D01*
Y48805D01*
X36878Y48880D01*
X37622Y49378D01*
X37627Y49385D01*
X38227Y49203D01*
Y43144D01*
X38998D01*
X39246Y42544D01*
X37131Y40428D01*
X36932Y40131D01*
X36862Y39779D01*
Y38036D01*
X36284Y37656D01*
X36083Y37749D01*
Y39835D01*
X36013Y40186D01*
X35814Y40483D01*
X33754Y42544D01*
X34002Y43144D01*
X34608D01*
Y48606D01*
X34745Y48679D01*
X35208Y48864D01*
X35500Y48805D01*
Y51000D01*
Y53195D01*
X35401Y53175D01*
X34801Y53571D01*
Y56828D01*
X28089D01*
Y52282D01*
X30527D01*
Y51555D01*
X30597Y51204D01*
X30796Y50906D01*
X31246Y50456D01*
X31005Y49856D01*
X30061D01*
Y43144D01*
X31417D01*
Y42665D01*
X31487Y42314D01*
X31686Y42017D01*
X34248Y39455D01*
Y38442D01*
X33935Y38343D01*
X33648Y38342D01*
X33454Y38632D01*
X31955Y40132D01*
X31591Y40375D01*
X31161Y40460D01*
X31161Y40460D01*
X24839D01*
X24839Y40460D01*
X24409Y40375D01*
X24046Y40132D01*
X24046Y40132D01*
X23300Y39386D01*
X23249Y39371D01*
X22560Y39495D01*
X22334Y39834D01*
X21722Y40243D01*
X21000Y40386D01*
X20278Y40243D01*
X19666Y39834D01*
X19474Y39546D01*
X18874Y39674D01*
Y40375D01*
X18779Y40853D01*
X18508Y41258D01*
X18103Y41529D01*
X17625Y41624D01*
X13875D01*
X13397Y41529D01*
X13354Y41500D01*
X10646D01*
X10603Y41529D01*
X10125Y41624D01*
X6375D01*
X5897Y41529D01*
X5492Y41258D01*
X5221Y40853D01*
X5126Y40375D01*
Y39418D01*
X4112D01*
X3834Y39834D01*
X3222Y40243D01*
X2500Y40386D01*
X1778Y40243D01*
X1722Y40205D01*
X1122Y40525D01*
Y49583D01*
X1722Y49832D01*
X3027Y48527D01*
X3473Y48228D01*
X4000Y48124D01*
X5126D01*
Y47625D01*
X5221Y47147D01*
X5492Y46742D01*
X5897Y46471D01*
X6375Y46376D01*
X10125D01*
X10603Y46471D01*
X10646Y46500D01*
X13354D01*
X13397Y46471D01*
X13875Y46376D01*
X17625D01*
X18103Y46471D01*
X18508Y46742D01*
X18779Y47147D01*
X18874Y47625D01*
Y48326D01*
X19474Y48454D01*
X19666Y48166D01*
X20278Y47757D01*
X21000Y47614D01*
X21722Y47757D01*
X22172Y48058D01*
X22703Y47850D01*
X22772Y47792D01*
Y47000D01*
X24945D01*
Y50256D01*
X22772D01*
X22417Y50709D01*
X22334Y50834D01*
X21722Y51243D01*
X21000Y51386D01*
X20278Y51243D01*
X19666Y50834D01*
X19474Y50546D01*
X18874Y50674D01*
Y51375D01*
X18779Y51853D01*
X18508Y52258D01*
X18103Y52529D01*
X17625Y52624D01*
X13875D01*
X13397Y52529D01*
X13354Y52500D01*
X10646D01*
X10603Y52529D01*
X10125Y52624D01*
X6375D01*
X5897Y52529D01*
X5492Y52258D01*
X5221Y51853D01*
X5126Y51375D01*
Y50983D01*
X4526Y50921D01*
X3876Y51570D01*
Y67157D01*
X4476Y67478D01*
X4622Y67381D01*
X5000Y67305D01*
Y69500D01*
Y71695D01*
X4622Y71619D01*
X4476Y71522D01*
X3876Y71843D01*
Y76430D01*
X6188Y78742D01*
X15743D01*
Y76073D01*
Y71768D01*
X15342D01*
Y70382D01*
X19000D01*
X22658D01*
Y71768D01*
X22257D01*
Y74082D01*
X23120D01*
X23582Y73620D01*
Y63000D01*
X23652Y62649D01*
X23851Y62351D01*
X25406Y60796D01*
X25704Y60597D01*
X26055Y60527D01*
X28089D01*
Y59172D01*
X34801D01*
Y63718D01*
X35250Y64082D01*
X37640D01*
X38089Y63718D01*
Y59172D01*
X44801D01*
Y63718D01*
X42330D01*
X42293Y63906D01*
X42094Y64204D01*
X40649Y65649D01*
X40351Y65848D01*
X40000Y65918D01*
X28380D01*
X26918Y67380D01*
Y76000D01*
X26848Y76351D01*
X26649Y76649D01*
X25156Y78142D01*
X25199Y78415D01*
X25371Y78742D01*
X26118D01*
X26645Y78846D01*
X27091Y79145D01*
X32473Y84527D01*
X32772Y84973D01*
X32876Y85500D01*
Y85644D01*
X33828D01*
Y92356D01*
X32876D01*
Y94644D01*
X33828D01*
Y101356D01*
X32876D01*
Y103644D01*
X33828D01*
Y110282D01*
X35772D01*
Y107500D01*
X38445D01*
X41118D01*
Y110282D01*
X45420D01*
X49182Y106520D01*
D02*
G37*
G36*
X148878Y48797D02*
Y42413D01*
X148278Y42294D01*
X148271Y42311D01*
X147854Y42854D01*
X147311Y43271D01*
X146679Y43533D01*
X146000Y43622D01*
X145321Y43533D01*
X144689Y43271D01*
X144146Y42854D01*
X143729Y42311D01*
X143467Y41679D01*
X143378Y41000D01*
X143467Y40321D01*
X143729Y39689D01*
X144146Y39146D01*
X144689Y38729D01*
X145082Y38566D01*
Y33880D01*
X144681Y33479D01*
X142572D01*
Y33968D01*
X137790D01*
Y31154D01*
X137790D01*
Y30976D01*
X137790D01*
Y28584D01*
X137790Y28162D01*
X137790Y27562D01*
Y25584D01*
X137790Y25170D01*
X137790Y24570D01*
Y22170D01*
X139263D01*
Y21500D01*
X113500D01*
X114000Y21000D01*
Y2500D01*
X141000D01*
Y14418D01*
X141554Y14648D01*
X145035Y11168D01*
X144997Y10555D01*
X144666Y10334D01*
X144257Y9722D01*
X144114Y9000D01*
X144257Y8278D01*
X144666Y7666D01*
X145278Y7257D01*
X146000Y7114D01*
X146722Y7257D01*
X147334Y7666D01*
X147743Y8278D01*
X147886Y9000D01*
X147743Y9722D01*
X147334Y10334D01*
X146918Y10612D01*
Y11500D01*
X146848Y11851D01*
X146649Y12149D01*
X141099Y17699D01*
Y22170D01*
X142572D01*
X142572Y25235D01*
X142997Y25659D01*
X144043D01*
X145082Y24620D01*
Y19612D01*
X144666Y19334D01*
X144257Y18722D01*
X144114Y18000D01*
X144257Y17278D01*
X144666Y16666D01*
X145278Y16257D01*
X146000Y16114D01*
X146722Y16257D01*
X147334Y16666D01*
X147743Y17278D01*
X147886Y18000D01*
X147743Y18722D01*
X147334Y19334D01*
X146918Y19612D01*
Y25000D01*
X146848Y25351D01*
X146649Y25649D01*
X145953Y26344D01*
X146234Y26913D01*
X146500Y26878D01*
X147179Y26967D01*
X147811Y27229D01*
X148278Y27587D01*
X148579Y27516D01*
X148878Y27343D01*
Y1122D01*
X103703D01*
X103474Y1676D01*
X110149Y8351D01*
X110348Y8649D01*
X110418Y9000D01*
Y31120D01*
X114629Y35331D01*
X114828Y35629D01*
X114898Y35980D01*
Y37797D01*
X115387Y38063D01*
X115565D01*
Y38063D01*
X118157D01*
Y37663D01*
X119465D01*
Y40455D01*
X120465D01*
Y37663D01*
X121772D01*
Y38063D01*
X124364D01*
Y38063D01*
X124542D01*
Y38063D01*
X127356D01*
Y38063D01*
X127534D01*
Y38063D01*
X130348D01*
Y38063D01*
X130526D01*
Y38063D01*
X133340D01*
Y38063D01*
X133518D01*
Y38063D01*
X136332D01*
Y38063D01*
X136510D01*
Y38063D01*
X139012D01*
X139324Y38063D01*
X139324Y38063D01*
X139593Y38109D01*
Y38109D01*
X142407D01*
Y42891D01*
X142407Y42891D01*
X142407D01*
X142675Y43377D01*
X148324Y49026D01*
X148878Y48797D01*
D02*
G37*
G36*
X86680Y131022D02*
X86450Y130468D01*
X57618D01*
X55177Y132909D01*
Y133644D01*
X56328D01*
Y140356D01*
X55177D01*
Y141445D01*
X55177Y141445D01*
X55091Y141874D01*
X54848Y142238D01*
X54848Y142238D01*
X54293Y142793D01*
X53929Y143036D01*
X53500Y143122D01*
X53500Y143122D01*
X50476D01*
X50334Y143334D01*
X49722Y143743D01*
X49000Y143886D01*
X48278Y143743D01*
X47666Y143334D01*
X47257Y142722D01*
X47183Y142347D01*
X47134Y142274D01*
X46593Y141921D01*
X46531Y141911D01*
X46500Y141918D01*
X40880D01*
X40845Y141952D01*
X40834Y142666D01*
X41243Y143278D01*
X41386Y144000D01*
X41243Y144722D01*
X41069Y144982D01*
X41389Y145582D01*
X72120D01*
X86680Y131022D01*
D02*
G37*
G36*
X93595Y126182D02*
X93207Y125793D01*
X92964Y125429D01*
X92878Y125000D01*
X92878Y125000D01*
Y117575D01*
X92964Y117146D01*
X93207Y116782D01*
X93571Y116539D01*
X94000Y116453D01*
X96644D01*
Y115172D01*
X103356D01*
Y116453D01*
X105144D01*
Y115172D01*
X111856D01*
Y116453D01*
X117575D01*
X117575Y116453D01*
X118004Y116539D01*
X118182Y116657D01*
X118782Y116404D01*
Y110644D01*
X120138D01*
Y109935D01*
X118812Y108609D01*
X118613Y108312D01*
X118543Y107961D01*
Y106698D01*
X118081D01*
X117771Y106637D01*
X117508Y106461D01*
X117332Y106198D01*
X117270Y105888D01*
Y104112D01*
X117332Y103802D01*
X117508Y103539D01*
X117621Y103463D01*
X117657Y103326D01*
Y102934D01*
X117621Y102797D01*
X117508Y102721D01*
X117332Y102458D01*
X117276Y102178D01*
X113760D01*
X113409Y102108D01*
X113111Y101909D01*
X111851Y100649D01*
X111652Y100351D01*
X111582Y100000D01*
Y94356D01*
X110227D01*
Y87644D01*
X111582D01*
Y85718D01*
X108589D01*
Y81172D01*
X115301D01*
Y85718D01*
X113418D01*
Y87644D01*
X114773D01*
Y94356D01*
X113418D01*
Y99620D01*
X114140Y100342D01*
X116875D01*
X117250Y99840D01*
X117219Y99269D01*
X116955Y98874D01*
X116862Y98408D01*
Y98020D01*
X119461D01*
X122059D01*
Y98408D01*
X121966Y98874D01*
X121702Y99269D01*
X121701Y99269D01*
X121653Y99357D01*
X121578Y100044D01*
X121589Y100062D01*
X121651Y100372D01*
Y102148D01*
X121589Y102458D01*
X121414Y102721D01*
X121300Y102797D01*
X121264Y102934D01*
Y103326D01*
X121300Y103463D01*
X121414Y103539D01*
X121589Y103802D01*
X121651Y104112D01*
Y105888D01*
X121589Y106198D01*
X121414Y106461D01*
X121151Y106637D01*
X120841Y106698D01*
X120378D01*
Y107580D01*
X121704Y108906D01*
X121903Y109204D01*
X121973Y109555D01*
Y110644D01*
X123328D01*
Y117356D01*
X119726D01*
X119496Y117910D01*
X120465Y118878D01*
X133797D01*
X134026Y118324D01*
X130818Y115116D01*
X130218Y115364D01*
Y117356D01*
X125672D01*
Y110644D01*
X129799D01*
X129981Y110044D01*
X129666Y109834D01*
X129257Y109222D01*
X129114Y108500D01*
X129257Y107778D01*
X129578Y107298D01*
X129417Y106837D01*
X129312Y106698D01*
X128120D01*
X127810Y106637D01*
X127547Y106461D01*
X127371Y106198D01*
X127310Y105888D01*
Y104112D01*
X127371Y103802D01*
X127547Y103539D01*
X127810Y103363D01*
X128120Y103302D01*
X130880D01*
X131190Y103363D01*
X131453Y103539D01*
X131629Y103802D01*
X131684Y104082D01*
X132644D01*
Y102727D01*
X139356D01*
Y107273D01*
X133418D01*
Y108000D01*
X133348Y108351D01*
X133170Y108616D01*
X133198Y108749D01*
X133430Y109216D01*
X135500D01*
Y111890D01*
Y114563D01*
X133645D01*
X133415Y115117D01*
X135980Y117682D01*
X141020D01*
X143082Y115620D01*
Y101880D01*
X139640Y98437D01*
X131684D01*
X131629Y98718D01*
X131453Y98981D01*
X131190Y99156D01*
X130880Y99218D01*
X128120D01*
X127810Y99156D01*
X127547Y98981D01*
X127371Y98718D01*
X127310Y98408D01*
Y96632D01*
X127371Y96322D01*
X127547Y96059D01*
X127810Y95883D01*
X128120Y95821D01*
X128582D01*
Y92434D01*
X128189Y92271D01*
X127646Y91854D01*
X127229Y91311D01*
X126967Y90679D01*
X126878Y90000D01*
X126967Y89321D01*
X127229Y88689D01*
X127646Y88146D01*
X128189Y87729D01*
X128821Y87467D01*
X129500Y87378D01*
X130179Y87467D01*
X130811Y87729D01*
X131354Y88146D01*
X131771Y88689D01*
X132033Y89321D01*
X132122Y90000D01*
X132033Y90679D01*
X131771Y91311D01*
X131354Y91854D01*
X130811Y92271D01*
X130418Y92434D01*
Y95821D01*
X130880D01*
X131190Y95883D01*
X131453Y96059D01*
X131629Y96322D01*
X131684Y96602D01*
X136228D01*
X136511Y96073D01*
X136381Y95878D01*
X136305Y95500D01*
X140695D01*
X140620Y95878D01*
X140483Y96082D01*
X140371Y96672D01*
X140669Y96871D01*
X143824Y100026D01*
X144378Y99797D01*
Y88965D01*
X140535Y85122D01*
X131000D01*
X131000Y85122D01*
X130571Y85036D01*
X130207Y84793D01*
X130207Y84793D01*
X128262Y82848D01*
X128019Y82484D01*
X127934Y82055D01*
X127934Y82055D01*
Y76356D01*
X126782D01*
Y69644D01*
X127934D01*
Y66856D01*
X126866D01*
Y67551D01*
X126797Y67902D01*
X126598Y68200D01*
X125149Y69649D01*
X124851Y69848D01*
X124500Y69918D01*
X124434D01*
X124271Y70311D01*
X123854Y70854D01*
X123311Y71271D01*
X122679Y71533D01*
X122000Y71622D01*
X121321Y71533D01*
X120689Y71271D01*
X120146Y70854D01*
X119729Y70311D01*
X119566Y69918D01*
X105500D01*
X105149Y69848D01*
X104851Y69649D01*
X100796Y65594D01*
X100597Y65296D01*
X100527Y64945D01*
Y55356D01*
X99172D01*
Y48644D01*
X103718D01*
Y55356D01*
X102363D01*
Y64565D01*
X105880Y68082D01*
X107019D01*
X107240Y67482D01*
X106879Y67013D01*
X106577Y66283D01*
X106540Y66000D01*
X109500D01*
Y65500D01*
X110000D01*
Y62540D01*
X110283Y62577D01*
X111013Y62880D01*
X111640Y63360D01*
X112120Y63987D01*
X112367Y64582D01*
X114620D01*
X115082Y64120D01*
Y58000D01*
X115152Y57649D01*
X115351Y57351D01*
X119047Y53655D01*
Y46346D01*
X118447Y46164D01*
X118334Y46334D01*
X117722Y46743D01*
X117000Y46886D01*
X116996Y46885D01*
X116972Y46890D01*
X116621Y46820D01*
X116601Y46807D01*
X116278Y46743D01*
X115666Y46334D01*
X115257Y45722D01*
X115114Y45000D01*
X115257Y44278D01*
X115666Y43666D01*
X115680Y43626D01*
X115624Y42973D01*
X115430Y42846D01*
X115387D01*
Y42846D01*
X112330Y42846D01*
X111906Y43270D01*
Y54561D01*
X112311Y54729D01*
X112854Y55146D01*
X113271Y55689D01*
X113533Y56321D01*
X113622Y57000D01*
X113533Y57679D01*
X113271Y58311D01*
X112854Y58854D01*
X112311Y59271D01*
X111679Y59533D01*
X111000Y59622D01*
X110321Y59533D01*
X109689Y59271D01*
X109146Y58854D01*
X108729Y58311D01*
X108467Y57679D01*
X108378Y57000D01*
X108467Y56321D01*
X108729Y55689D01*
X109146Y55146D01*
X109689Y54729D01*
X110071Y54571D01*
Y48445D01*
X109471Y48149D01*
X109311Y48271D01*
X108679Y48533D01*
X108000Y48622D01*
X107321Y48533D01*
X106689Y48271D01*
X106146Y47854D01*
X105729Y47311D01*
X105467Y46679D01*
X105378Y46000D01*
X105467Y45321D01*
X105729Y44689D01*
X106146Y44146D01*
X106689Y43729D01*
X107078Y43567D01*
Y42846D01*
X106589D01*
Y38063D01*
X109403D01*
Y38063D01*
X109581D01*
Y38063D01*
X112638Y38063D01*
X113063Y37639D01*
Y36360D01*
X108851Y32149D01*
X108652Y31851D01*
X108582Y31500D01*
Y9380D01*
X106210Y7008D01*
X105610Y7256D01*
Y8045D01*
X103319D01*
Y6738D01*
X105092D01*
X105341Y6138D01*
X101520Y2318D01*
X97537D01*
X97118Y2744D01*
X97118Y2918D01*
Y6000D01*
X91772D01*
Y2918D01*
X91772Y2744D01*
X91353Y2318D01*
X49982D01*
X49563Y2744D01*
X49563Y2918D01*
Y6000D01*
X46890D01*
X44216D01*
Y2918D01*
X44216Y2744D01*
X43798Y2318D01*
X28202D01*
X27784Y2744D01*
Y6000D01*
X25110D01*
Y7000D01*
X27784D01*
Y9956D01*
X27818Y10017D01*
X28318Y10415D01*
X28500Y10378D01*
X28500Y10378D01*
X29540D01*
X29727Y9856D01*
X29727D01*
Y3144D01*
X34273D01*
Y5378D01*
X37727D01*
Y3144D01*
X42273D01*
Y9856D01*
X42273D01*
X42460Y10378D01*
X43667D01*
X44216Y10256D01*
X44216Y9778D01*
Y7000D01*
X46890D01*
X49563D01*
X49563Y9989D01*
X50163Y10171D01*
X50166Y10166D01*
X50778Y9757D01*
X51500Y9614D01*
X52222Y9757D01*
X52834Y10166D01*
X53243Y10778D01*
X53386Y11500D01*
X53243Y12222D01*
X52834Y12834D01*
X52622Y12976D01*
Y24161D01*
Y59878D01*
X87150D01*
X87229Y59689D01*
X87646Y59146D01*
X88189Y58729D01*
X88378Y58650D01*
Y55356D01*
X87172D01*
Y48644D01*
X91718D01*
Y48644D01*
X92282D01*
Y48644D01*
X93323D01*
Y46966D01*
X92768Y46743D01*
X92723Y46751D01*
X92334Y47334D01*
X91722Y47743D01*
X91000Y47886D01*
X90278Y47743D01*
X89666Y47334D01*
X89388Y46918D01*
X76112D01*
X75834Y47334D01*
X75222Y47743D01*
X74500Y47886D01*
X73778Y47743D01*
X73166Y47334D01*
X72757Y46722D01*
X72614Y46000D01*
X72757Y45278D01*
X73166Y44666D01*
X73778Y44257D01*
X74500Y44114D01*
X75222Y44257D01*
X75834Y44666D01*
X76112Y45082D01*
X89388D01*
X89666Y44666D01*
X90278Y44257D01*
X91000Y44114D01*
X91722Y44257D01*
X92334Y44666D01*
X92723Y45249D01*
X92768Y45257D01*
X93323Y45034D01*
Y35356D01*
X92172D01*
Y28644D01*
X93323D01*
Y26856D01*
X92172D01*
Y20144D01*
X93323D01*
Y18356D01*
X92116D01*
Y11644D01*
X96663D01*
Y18356D01*
X95566D01*
Y19392D01*
X100098D01*
X100427Y18929D01*
X100428Y18507D01*
Y16537D01*
X100427Y16115D01*
X100428Y15515D01*
Y13544D01*
X100427Y13122D01*
X100428Y12522D01*
Y10352D01*
X100028D01*
Y9045D01*
X102819D01*
X105610D01*
Y10352D01*
X105210D01*
Y12522D01*
X105210Y12945D01*
X105210Y13544D01*
Y15515D01*
X105210Y15937D01*
X105210Y16537D01*
Y18507D01*
X105210Y18929D01*
X105210Y19529D01*
Y21568D01*
X105391Y22093D01*
X105391Y22446D01*
Y24907D01*
X100609D01*
Y22446D01*
X100427Y21921D01*
X99917Y21635D01*
X96718D01*
Y26856D01*
X95566D01*
Y28644D01*
X96718D01*
Y29158D01*
X97318Y29650D01*
X97500Y29614D01*
X98222Y29757D01*
X98834Y30166D01*
X99243Y30778D01*
X99386Y31500D01*
X99243Y32222D01*
X98834Y32834D01*
X98222Y33243D01*
X97500Y33386D01*
X97318Y33350D01*
X96718Y33843D01*
Y35356D01*
X95566D01*
Y48644D01*
X96828D01*
Y55356D01*
X92282D01*
Y55356D01*
X91718D01*
Y55356D01*
X90622D01*
Y58650D01*
X90811Y58729D01*
X91354Y59146D01*
X91771Y59689D01*
X92033Y60321D01*
X92122Y61000D01*
X92033Y61679D01*
X91771Y62311D01*
X91354Y62854D01*
X90811Y63271D01*
X90179Y63533D01*
X89500Y63622D01*
X88821Y63533D01*
X88189Y63271D01*
X87646Y62854D01*
X87229Y62311D01*
X87150Y62122D01*
X79271D01*
Y69085D01*
X80324D01*
Y70138D01*
X86144D01*
Y69282D01*
X92856D01*
Y73828D01*
X86144D01*
Y72381D01*
X80324D01*
Y73435D01*
X75975D01*
Y69085D01*
X77028D01*
Y62122D01*
X69203D01*
X68974Y62676D01*
X72499Y66202D01*
X72698Y66499D01*
X72768Y66850D01*
Y69085D01*
X74025D01*
Y73435D01*
X69676D01*
Y69085D01*
X70933D01*
Y67230D01*
X67220Y63518D01*
X63106D01*
X62918Y64047D01*
X62915Y64118D01*
X64649Y65851D01*
X64848Y66149D01*
X64918Y66500D01*
Y77120D01*
X65620Y77823D01*
X69676D01*
Y76565D01*
X74025D01*
Y80915D01*
X69676D01*
Y79658D01*
X65240D01*
X64889Y79588D01*
X64591Y79389D01*
X63351Y78149D01*
X63152Y77851D01*
X63082Y77500D01*
Y66880D01*
X62606Y66404D01*
X62387Y66486D01*
X62189Y67197D01*
X62243Y67278D01*
X62386Y68000D01*
X62243Y68722D01*
X61834Y69334D01*
X61418Y69612D01*
Y87120D01*
X65073Y90775D01*
X67365D01*
Y89523D01*
X67426Y89214D01*
X67601Y88952D01*
X67863Y88777D01*
X68172Y88715D01*
X70347D01*
X70656Y88777D01*
X70918Y88952D01*
X71093Y89214D01*
X71155Y89523D01*
Y93863D01*
X71093Y94172D01*
X70918Y94434D01*
X70656Y94609D01*
X70347Y94671D01*
X68172D01*
X67863Y94609D01*
X67601Y94434D01*
X67426Y94172D01*
X67365Y93863D01*
Y92611D01*
X64693D01*
X64342Y92541D01*
X64044Y92342D01*
X59851Y88149D01*
X59652Y87851D01*
X59582Y87500D01*
Y69612D01*
X59166Y69334D01*
X58757Y68722D01*
X58614Y68000D01*
X58757Y67278D01*
X59166Y66666D01*
X59051Y66095D01*
X59034Y66075D01*
X58253Y66045D01*
X57418Y66880D01*
Y69197D01*
X57348Y69548D01*
X57149Y69846D01*
X55018Y71977D01*
Y72557D01*
X55618Y72739D01*
X55666Y72666D01*
X56278Y72257D01*
X57000Y72114D01*
X57722Y72257D01*
X58334Y72666D01*
X58743Y73278D01*
X58886Y74000D01*
X58743Y74722D01*
X58334Y75334D01*
X57918Y75612D01*
Y103120D01*
X61880Y107082D01*
X67349D01*
X67531Y106482D01*
X67313Y106337D01*
X67049Y105942D01*
X66957Y105477D01*
Y103807D01*
X69260D01*
Y103307D01*
X69760D01*
Y99922D01*
X70347D01*
X70812Y100014D01*
X71207Y100277D01*
X71382Y100539D01*
X71603Y100391D01*
X71912Y100329D01*
X74088D01*
X74397Y100391D01*
X74659Y100566D01*
X75082D01*
X75344Y100391D01*
X75653Y100329D01*
X77828D01*
X78137Y100391D01*
X78399Y100566D01*
X78574Y100828D01*
X78635Y101137D01*
Y105114D01*
X79180Y105351D01*
X79582Y105030D01*
Y93470D01*
X79180Y93149D01*
X78635Y93386D01*
Y93863D01*
X78574Y94172D01*
X78399Y94434D01*
X78137Y94609D01*
X77828Y94671D01*
X75653D01*
X75344Y94609D01*
X75082Y94434D01*
X74907Y94172D01*
X74845Y93863D01*
Y89523D01*
X74907Y89214D01*
X75082Y88952D01*
X75344Y88777D01*
X75653Y88715D01*
X77828D01*
X78137Y88777D01*
X78399Y88952D01*
X78574Y89214D01*
X78635Y89523D01*
Y90775D01*
X79193D01*
X79544Y90845D01*
X79842Y91044D01*
X81149Y92351D01*
X81348Y92649D01*
X81418Y93000D01*
Y105500D01*
X81348Y105851D01*
X81149Y106149D01*
X78649Y108649D01*
X78351Y108848D01*
X78000Y108918D01*
X73918D01*
Y109644D01*
X75218D01*
Y116356D01*
X73862D01*
Y117144D01*
X75218D01*
Y123856D01*
X70672D01*
Y117144D01*
X72027D01*
Y116356D01*
X70672D01*
Y109644D01*
X72082D01*
Y108918D01*
X69193D01*
X68728Y109244D01*
X68728Y109518D01*
Y112500D01*
X63382D01*
Y109518D01*
X63382Y109244D01*
X62917Y108918D01*
X61500D01*
X61149Y108848D01*
X60851Y108649D01*
X56351Y104149D01*
X56152Y103851D01*
X56082Y103500D01*
Y75612D01*
X55666Y75334D01*
X55618Y75261D01*
X55018Y75443D01*
Y108577D01*
X54948Y108928D01*
X54749Y109226D01*
X47826Y116149D01*
X47528Y116348D01*
X47177Y116418D01*
X36880D01*
X33418Y119880D01*
Y122888D01*
X33834Y123166D01*
X34112Y123582D01*
X54000D01*
X54351Y123652D01*
X54649Y123851D01*
X57534Y126736D01*
X93366D01*
X93595Y126182D01*
D02*
G37*
G36*
X144378Y140535D02*
Y121122D01*
X120000D01*
X120000Y121122D01*
X119571Y121036D01*
X119207Y120793D01*
X119207Y120793D01*
X117110Y118696D01*
X111856D01*
Y119718D01*
X110633D01*
X110513Y120318D01*
X110810Y120441D01*
X111000Y120900D01*
Y123579D01*
X110978Y123632D01*
Y124508D01*
X111614D01*
Y124936D01*
X112604D01*
X113063Y125127D01*
X113136Y125303D01*
X113149Y125312D01*
X113348Y125610D01*
X113418Y125961D01*
Y127654D01*
Y132082D01*
X114120D01*
X114582Y131620D01*
Y126000D01*
X114652Y125649D01*
X114851Y125351D01*
X116351Y123851D01*
X116649Y123652D01*
X117000Y123582D01*
X121407D01*
X121878Y122878D01*
X122622Y122380D01*
X123000Y122305D01*
Y124500D01*
Y126695D01*
X122622Y126620D01*
X121878Y126122D01*
X121407Y125418D01*
X117380D01*
X116418Y126380D01*
Y132000D01*
X116348Y132351D01*
X116149Y132649D01*
X115149Y133649D01*
X114851Y133848D01*
X114500Y133918D01*
X113418D01*
Y136000D01*
X113348Y136351D01*
X113149Y136649D01*
X112851Y136848D01*
X112500Y136918D01*
X106539D01*
X106364Y136883D01*
X105885Y137161D01*
X105764Y137286D01*
Y140144D01*
X109828D01*
Y146856D01*
X110419Y146878D01*
X111772D01*
Y144000D01*
X117118D01*
Y146878D01*
X138035D01*
X144378Y140535D01*
D02*
G37*
G36*
X97672Y146856D02*
Y140144D01*
X98850D01*
Y138020D01*
X98296Y137790D01*
X97793Y138293D01*
X97429Y138536D01*
X97000Y138622D01*
X97000Y138622D01*
X87945D01*
X87639Y139222D01*
X87695Y139500D01*
X85500D01*
Y140000D01*
X85000D01*
Y142195D01*
X84622Y142120D01*
X83878Y141622D01*
X83777Y141471D01*
X83177Y141653D01*
Y146878D01*
X90382D01*
Y144000D01*
X93055D01*
X95728D01*
Y146878D01*
X97081D01*
X97672Y146856D01*
D02*
G37*
G36*
X25057Y143857D02*
X25229Y143685D01*
Y142052D01*
X24628Y141669D01*
X24500Y141695D01*
Y139500D01*
X24000D01*
Y139000D01*
X21805D01*
X21881Y138622D01*
X21924Y138557D01*
X21641Y138028D01*
X20756D01*
Y139784D01*
X17500D01*
Y137110D01*
Y134437D01*
X18976D01*
X19422Y133837D01*
X19378Y133500D01*
X19467Y132821D01*
X19729Y132189D01*
X20146Y131646D01*
X20689Y131229D01*
X21124Y131049D01*
Y109500D01*
X21228Y108973D01*
X21527Y108527D01*
X24027Y106027D01*
X24027Y106027D01*
X24473Y105728D01*
X25000Y105624D01*
X29282D01*
Y103644D01*
X30124D01*
Y101356D01*
X29282D01*
Y94644D01*
X30124D01*
Y92356D01*
X29282D01*
Y85644D01*
X29282D01*
X29404Y85350D01*
X25548Y81495D01*
X22542D01*
X22228Y81682D01*
X22061Y82122D01*
Y87903D01*
X15939D01*
Y82122D01*
X15772Y81682D01*
X15458Y81495D01*
X5618D01*
X5091Y81390D01*
X4645Y81091D01*
X4645Y81091D01*
X1722Y78168D01*
X1122Y78417D01*
Y128508D01*
X1676Y128738D01*
X3207Y127207D01*
X3207Y127207D01*
X3571Y126964D01*
X4000Y126878D01*
X6282D01*
Y125644D01*
X7434D01*
Y123585D01*
X6931Y123385D01*
X6834Y123370D01*
X6311Y123771D01*
X5679Y124033D01*
X5000Y124122D01*
X4321Y124033D01*
X3689Y123771D01*
X3146Y123354D01*
X2729Y122811D01*
X2467Y122179D01*
X2378Y121500D01*
X2467Y120821D01*
X2729Y120189D01*
X3146Y119646D01*
X3689Y119229D01*
X4321Y118967D01*
X5000Y118878D01*
X5679Y118967D01*
X6311Y119229D01*
X6854Y119646D01*
X7271Y120189D01*
X7533Y120821D01*
X7616Y121449D01*
X7765Y121553D01*
X8199Y121714D01*
X13378Y116535D01*
Y114055D01*
X13266Y114012D01*
X12778Y113955D01*
X12649Y114149D01*
X10956Y115842D01*
X10658Y116041D01*
X10307Y116111D01*
X9946D01*
Y117368D01*
X2053D01*
Y113018D01*
X9946D01*
Y113472D01*
X10501Y113701D01*
X11082Y113120D01*
Y109000D01*
X11152Y108649D01*
X11351Y108351D01*
X12351Y107351D01*
X12649Y107152D01*
X13000Y107082D01*
X16798D01*
X17149Y107152D01*
X17447Y107351D01*
X19149Y109053D01*
X19348Y109351D01*
X19418Y109702D01*
Y112888D01*
X19834Y113166D01*
X20243Y113778D01*
X20386Y114500D01*
X20243Y115222D01*
X19834Y115834D01*
X19222Y116243D01*
X18500Y116386D01*
X17778Y116243D01*
X17166Y115834D01*
X16757Y115222D01*
X16614Y114500D01*
X16757Y113778D01*
X17166Y113166D01*
X17582Y112888D01*
Y110082D01*
X16418Y108918D01*
X13380D01*
X12918Y109380D01*
Y110111D01*
X13518Y110431D01*
X13778Y110257D01*
X14500Y110114D01*
X15222Y110257D01*
X15834Y110666D01*
X16243Y111278D01*
X16386Y112000D01*
X16243Y112722D01*
X15834Y113334D01*
X15621Y113476D01*
Y117000D01*
X15622Y117000D01*
X15536Y117429D01*
X15293Y117793D01*
X9677Y123409D01*
Y125644D01*
X10828D01*
Y132356D01*
X6632D01*
X6593Y132376D01*
X6177Y132913D01*
X6195Y133000D01*
X4000D01*
Y134000D01*
X6334D01*
X6602Y134327D01*
X7000D01*
Y136500D01*
X3744D01*
Y136020D01*
X3232Y135803D01*
X2722Y136126D01*
Y141635D01*
X3544Y142458D01*
X4144Y142209D01*
Y141616D01*
X10856D01*
Y142878D01*
X13644D01*
Y141727D01*
X20356D01*
Y143878D01*
X25043D01*
X25057Y143857D01*
D02*
G37*
%LPC*%
G36*
X51000Y130000D02*
X49305D01*
X49380Y129622D01*
X49878Y128878D01*
X50622Y128381D01*
X51000Y128305D01*
Y130000D01*
D02*
G37*
G36*
X45878Y130882D02*
X44000D01*
Y129791D01*
X45878D01*
Y130882D01*
D02*
G37*
G36*
X51000Y132695D02*
X50622Y132620D01*
X49878Y132122D01*
X49380Y131378D01*
X49305Y131000D01*
X51000D01*
Y132695D01*
D02*
G37*
G36*
X32161Y20315D02*
X31071D01*
Y18339D01*
X32161D01*
Y20315D01*
D02*
G37*
G36*
X45500Y16695D02*
X45122Y16620D01*
X44378Y16122D01*
X43881Y15378D01*
X43805Y15000D01*
X45500D01*
Y16695D01*
D02*
G37*
G36*
X46500D02*
Y15000D01*
X48195D01*
X48120Y15378D01*
X47622Y16122D01*
X46878Y16620D01*
X46500Y16695D01*
D02*
G37*
G36*
X31000D02*
Y15000D01*
X32695D01*
X32620Y15378D01*
X32122Y16122D01*
X31378Y16620D01*
X31000Y16695D01*
D02*
G37*
G36*
X146195Y79500D02*
X144500D01*
Y77805D01*
X144878Y77881D01*
X145622Y78378D01*
X146119Y79122D01*
X146195Y79500D01*
D02*
G37*
G36*
X143500Y82195D02*
X143122Y82119D01*
X142378Y81622D01*
X141881Y80878D01*
X141805Y80500D01*
X143500D01*
Y82195D01*
D02*
G37*
G36*
Y79500D02*
X141805D01*
X141881Y79122D01*
X142378Y78378D01*
X143122Y77881D01*
X143500Y77805D01*
Y79500D01*
D02*
G37*
G36*
X144500Y82195D02*
Y80500D01*
X146195D01*
X146119Y80878D01*
X145622Y81622D01*
X144878Y82119D01*
X144500Y82195D01*
D02*
G37*
G36*
X36500Y83119D02*
X34916Y82963D01*
X33393Y82501D01*
X31989Y81751D01*
X30759Y80741D01*
X29749Y79511D01*
X28999Y78107D01*
X28537Y76584D01*
X28381Y75000D01*
X28537Y73416D01*
X28999Y71893D01*
X29749Y70489D01*
X30759Y69259D01*
X31989Y68249D01*
X33393Y67499D01*
X34916Y67037D01*
X36500Y66881D01*
X38084Y67037D01*
X39607Y67499D01*
X41011Y68249D01*
X42241Y69259D01*
X43251Y70489D01*
X44001Y71893D01*
X44463Y73416D01*
X44619Y75000D01*
X44463Y76584D01*
X44001Y78107D01*
X43251Y79511D01*
X42241Y80741D01*
X41011Y81751D01*
X39607Y82501D01*
X38084Y82963D01*
X36500Y83119D01*
D02*
G37*
G36*
X6000Y71695D02*
Y70000D01*
X7695D01*
X7620Y70378D01*
X7122Y71122D01*
X6378Y71619D01*
X6000Y71695D01*
D02*
G37*
G36*
X7695Y69000D02*
X6000D01*
Y67305D01*
X6378Y67381D01*
X7122Y67878D01*
X7620Y68622D01*
X7695Y69000D01*
D02*
G37*
G36*
X41118Y92756D02*
X38945D01*
Y89500D01*
X41118D01*
Y92756D01*
D02*
G37*
G36*
Y88500D02*
X38945D01*
Y85244D01*
X41118D01*
Y88500D01*
D02*
G37*
G36*
X37945Y92756D02*
X35772D01*
Y89500D01*
X37945D01*
Y92756D01*
D02*
G37*
G36*
Y88500D02*
X35772D01*
Y85244D01*
X37945D01*
Y88500D01*
D02*
G37*
G36*
X25945Y50256D02*
Y47000D01*
X28118D01*
Y50256D01*
X25945D01*
D02*
G37*
G36*
X22658Y69382D02*
X19000D01*
X15342D01*
Y67996D01*
X15939D01*
Y62097D01*
X22061D01*
Y67996D01*
X22658D01*
Y69382D01*
D02*
G37*
G36*
X11923Y64773D02*
X4817D01*
Y57668D01*
X11923D01*
Y64773D01*
D02*
G37*
G36*
X28118Y46000D02*
X25945D01*
Y42744D01*
X28118D01*
Y46000D01*
D02*
G37*
G36*
X46890Y50256D02*
X44717D01*
Y47000D01*
X46890D01*
Y50256D01*
D02*
G37*
G36*
Y46000D02*
X44717D01*
Y42744D01*
X46890D01*
Y46000D01*
D02*
G37*
G36*
X24945D02*
X22772D01*
Y42744D01*
X24945D01*
Y46000D01*
D02*
G37*
G36*
X45000Y98695D02*
X44622Y98619D01*
X43878Y98122D01*
X43380Y97378D01*
X43305Y97000D01*
X45000D01*
Y98695D01*
D02*
G37*
G36*
Y96000D02*
X43305D01*
X43380Y95622D01*
X43878Y94878D01*
X44622Y94381D01*
X45000Y94305D01*
Y96000D01*
D02*
G37*
G36*
X47695D02*
X46000D01*
Y94305D01*
X46378Y94381D01*
X47122Y94878D01*
X47620Y95622D01*
X47695Y96000D01*
D02*
G37*
G36*
X37945Y97500D02*
X35772D01*
Y94244D01*
X37945D01*
Y97500D01*
D02*
G37*
G36*
X41118D02*
X38945D01*
Y94244D01*
X41118D01*
Y97500D01*
D02*
G37*
G36*
X46000Y98695D02*
Y97000D01*
X47695D01*
X47620Y97378D01*
X47122Y98122D01*
X46378Y98619D01*
X46000Y98695D01*
D02*
G37*
G36*
X37945Y101756D02*
X35772D01*
Y98500D01*
X37945D01*
Y101756D01*
D02*
G37*
G36*
X41118D02*
X38945D01*
Y98500D01*
X41118D01*
Y101756D01*
D02*
G37*
G36*
X37945Y106500D02*
X35772D01*
Y103244D01*
X37945D01*
Y106500D01*
D02*
G37*
G36*
X41118D02*
X38945D01*
Y103244D01*
X41118D01*
Y106500D01*
D02*
G37*
G36*
X60445Y136500D02*
X58272D01*
Y133244D01*
X60445D01*
Y136500D01*
D02*
G37*
G36*
X69000Y139195D02*
Y137500D01*
X70695D01*
X70619Y137878D01*
X70122Y138622D01*
X69378Y139120D01*
X69000Y139195D01*
D02*
G37*
G36*
X68000Y136500D02*
X66305D01*
X66381Y136122D01*
X66878Y135378D01*
X67622Y134880D01*
X68000Y134805D01*
Y136500D01*
D02*
G37*
G36*
X63618D02*
X61445D01*
Y133244D01*
X63618D01*
Y136500D01*
D02*
G37*
G36*
X70695D02*
X69000D01*
Y134805D01*
X69378Y134880D01*
X70122Y135378D01*
X70619Y136122D01*
X70695Y136500D01*
D02*
G37*
G36*
X63618Y140756D02*
X61445D01*
Y137500D01*
X63618D01*
Y140756D01*
D02*
G37*
G36*
X68000Y139195D02*
X67622Y139120D01*
X66878Y138622D01*
X66381Y137878D01*
X66305Y137500D01*
X68000D01*
Y139195D01*
D02*
G37*
G36*
X60445Y140756D02*
X58272D01*
Y137500D01*
X60445D01*
Y140756D01*
D02*
G37*
G36*
X93256Y81118D02*
X90000D01*
Y78945D01*
X93256D01*
Y81118D01*
D02*
G37*
G36*
X89000D02*
X85744D01*
Y78945D01*
X89000D01*
Y81118D01*
D02*
G37*
G36*
X80724Y81315D02*
X78650D01*
Y79240D01*
X80724D01*
Y81315D01*
D02*
G37*
G36*
X77650D02*
X75575D01*
Y79240D01*
X77650D01*
Y81315D01*
D02*
G37*
G36*
X97000Y69122D02*
X96321Y69033D01*
X95689Y68771D01*
X95146Y68354D01*
X94729Y67811D01*
X94467Y67179D01*
X94378Y66500D01*
X94467Y65821D01*
X94729Y65189D01*
X95146Y64646D01*
X95689Y64229D01*
X96321Y63967D01*
X97000Y63878D01*
X97679Y63967D01*
X98311Y64229D01*
X98854Y64646D01*
X99271Y65189D01*
X99533Y65821D01*
X99622Y66500D01*
X99533Y67179D01*
X99271Y67811D01*
X98854Y68354D01*
X98311Y68771D01*
X97679Y69033D01*
X97000Y69122D01*
D02*
G37*
G36*
X93256Y77945D02*
X90000D01*
Y75772D01*
X93256D01*
Y77945D01*
D02*
G37*
G36*
X77650Y78240D02*
X75575D01*
Y76165D01*
X77650D01*
Y78240D01*
D02*
G37*
G36*
X89000Y77945D02*
X85744D01*
Y75772D01*
X89000D01*
Y77945D01*
D02*
G37*
G36*
X80724Y78240D02*
X78650D01*
Y76165D01*
X80724D01*
Y78240D01*
D02*
G37*
G36*
X123801Y78828D02*
X117089D01*
Y77473D01*
X115301D01*
Y78828D01*
X108589D01*
Y77418D01*
X104612D01*
X104334Y77834D01*
X103722Y78243D01*
X103000Y78386D01*
X102278Y78243D01*
X101666Y77834D01*
X101257Y77222D01*
X101114Y76500D01*
X101257Y75778D01*
X101666Y75166D01*
X102278Y74757D01*
X103000Y74614D01*
X103722Y74757D01*
X104334Y75166D01*
X104612Y75582D01*
X108589D01*
Y74282D01*
X115301D01*
Y75638D01*
X117089D01*
Y74282D01*
X123801D01*
Y78828D01*
D02*
G37*
G36*
X89000Y87000D02*
X87305D01*
X87381Y86622D01*
X87878Y85878D01*
X88622Y85381D01*
X89000Y85305D01*
Y87000D01*
D02*
G37*
G36*
X91695D02*
X90000D01*
Y85305D01*
X90378Y85381D01*
X91122Y85878D01*
X91619Y86622D01*
X91695Y87000D01*
D02*
G37*
G36*
X118890Y90500D02*
X116717D01*
Y87244D01*
X118890D01*
Y90500D01*
D02*
G37*
G36*
X89000Y89695D02*
X88622Y89619D01*
X87878Y89122D01*
X87381Y88378D01*
X87305Y88000D01*
X89000D01*
Y89695D01*
D02*
G37*
G36*
X90000D02*
Y88000D01*
X91695D01*
X91619Y88378D01*
X91122Y89122D01*
X90378Y89619D01*
X90000Y89695D01*
D02*
G37*
G36*
X122063Y90500D02*
X119890D01*
Y87244D01*
X122063D01*
Y90500D01*
D02*
G37*
G36*
X124201Y82945D02*
X120945D01*
Y80772D01*
X124201D01*
Y82945D01*
D02*
G37*
G36*
X122063Y94756D02*
X119890D01*
Y91500D01*
X122063D01*
Y94756D01*
D02*
G37*
G36*
X119945Y82945D02*
X116689D01*
Y80772D01*
X119945D01*
Y82945D01*
D02*
G37*
G36*
Y86118D02*
X116689D01*
Y83945D01*
X119945D01*
Y86118D01*
D02*
G37*
G36*
X118890Y94756D02*
X116717D01*
Y91500D01*
X118890D01*
Y94756D01*
D02*
G37*
G36*
X124201Y86118D02*
X120945D01*
Y83945D01*
X124201D01*
Y86118D01*
D02*
G37*
G36*
X90228Y23000D02*
X87555D01*
X84882D01*
Y21584D01*
X84282Y21525D01*
X84243Y21722D01*
X83834Y22334D01*
X83222Y22743D01*
X82500Y22886D01*
X81778Y22743D01*
X81166Y22334D01*
X80757Y21722D01*
X80614Y21000D01*
X80757Y20278D01*
X81166Y19666D01*
X81582Y19388D01*
Y15000D01*
X81652Y14649D01*
X81851Y14351D01*
X82582Y13620D01*
Y10112D01*
X82166Y9834D01*
X81757Y9222D01*
X81614Y8500D01*
X81757Y7778D01*
X82166Y7166D01*
X82778Y6757D01*
X83500Y6614D01*
X84222Y6757D01*
X84682Y7065D01*
X85191Y6873D01*
X85282Y6799D01*
Y3144D01*
X89828D01*
Y9856D01*
X85282D01*
X85282Y9856D01*
X84708Y9918D01*
X84418Y10112D01*
Y10814D01*
X84827Y11244D01*
X85018Y11244D01*
X87000D01*
Y15000D01*
X87500D01*
Y15500D01*
X90173D01*
Y18756D01*
X88473D01*
Y19744D01*
X90228D01*
Y23000D01*
D02*
G37*
G36*
X87055Y27256D02*
X84882D01*
Y24000D01*
X87055D01*
Y27256D01*
D02*
G37*
G36*
X65500Y37500D02*
X63805D01*
X63881Y37122D01*
X64378Y36378D01*
X65122Y35881D01*
X65500Y35805D01*
Y37500D01*
D02*
G37*
G36*
X68195D02*
X66500D01*
Y35805D01*
X66878Y35881D01*
X67622Y36378D01*
X68119Y37122D01*
X68195Y37500D01*
D02*
G37*
G36*
X90228Y27256D02*
X88055D01*
Y24000D01*
X90228D01*
Y27256D01*
D02*
G37*
G36*
X89828Y35356D02*
X85282D01*
Y32418D01*
X84112D01*
X83834Y32834D01*
X83222Y33243D01*
X82500Y33386D01*
X81778Y33243D01*
X81166Y32834D01*
X80757Y32222D01*
X80614Y31500D01*
X80757Y30778D01*
X81166Y30166D01*
X81778Y29757D01*
X82500Y29614D01*
X83222Y29757D01*
X83834Y30166D01*
X84112Y30582D01*
X85282D01*
Y28644D01*
X87190D01*
X87500Y28582D01*
X87810Y28644D01*
X89828D01*
Y35356D01*
D02*
G37*
G36*
X97118Y10256D02*
X94945D01*
Y7000D01*
X97118D01*
Y10256D01*
D02*
G37*
G36*
X64000Y9000D02*
X62305D01*
X62381Y8622D01*
X62878Y7878D01*
X63622Y7380D01*
X64000Y7305D01*
Y9000D01*
D02*
G37*
G36*
X102319Y8045D02*
X100028D01*
Y6738D01*
X102319D01*
Y8045D01*
D02*
G37*
G36*
X93945Y10256D02*
X91772D01*
Y7000D01*
X93945D01*
Y10256D01*
D02*
G37*
G36*
X66695Y9000D02*
X65000D01*
Y7305D01*
X65378Y7380D01*
X66122Y7878D01*
X66619Y8622D01*
X66695Y9000D01*
D02*
G37*
G36*
X90173Y14500D02*
X88000D01*
Y11244D01*
X90173D01*
Y14500D01*
D02*
G37*
G36*
X64000Y11695D02*
X63622Y11620D01*
X62878Y11122D01*
X62381Y10378D01*
X62305Y10000D01*
X64000D01*
Y11695D01*
D02*
G37*
G36*
X65000D02*
Y10000D01*
X66695D01*
X66619Y10378D01*
X66122Y11122D01*
X65378Y11620D01*
X65000Y11695D01*
D02*
G37*
G36*
X101000Y40000D02*
X99305D01*
X99381Y39622D01*
X99878Y38878D01*
X100622Y38381D01*
X101000Y38305D01*
Y40000D01*
D02*
G37*
G36*
X64000Y56000D02*
X62305D01*
X62381Y55622D01*
X62878Y54878D01*
X63622Y54381D01*
X64000Y54305D01*
Y56000D01*
D02*
G37*
G36*
X66695D02*
X65000D01*
Y54305D01*
X65378Y54381D01*
X66122Y54878D01*
X66619Y55622D01*
X66695Y56000D01*
D02*
G37*
G36*
X84828Y55356D02*
X80282D01*
Y54343D01*
X79682Y53850D01*
X79500Y53886D01*
X78778Y53743D01*
X78166Y53334D01*
X77757Y52722D01*
X77614Y52000D01*
X77757Y51278D01*
X78166Y50666D01*
X78778Y50257D01*
X79500Y50114D01*
X79682Y50150D01*
X80282Y49657D01*
Y48644D01*
X84828D01*
Y55356D01*
D02*
G37*
G36*
X64000Y58695D02*
X63622Y58619D01*
X62878Y58122D01*
X62381Y57378D01*
X62305Y57000D01*
X64000D01*
Y58695D01*
D02*
G37*
G36*
X109000Y65000D02*
X106540D01*
X106577Y64717D01*
X106879Y63987D01*
X107360Y63360D01*
X107987Y62880D01*
X108717Y62577D01*
X109000Y62540D01*
Y65000D01*
D02*
G37*
G36*
X65000Y58695D02*
Y57000D01*
X66695D01*
X66619Y57378D01*
X66122Y58122D01*
X65378Y58619D01*
X65000Y58695D01*
D02*
G37*
G36*
X66500Y40195D02*
Y38500D01*
X68195D01*
X68119Y38878D01*
X67622Y39622D01*
X66878Y40119D01*
X66500Y40195D01*
D02*
G37*
G36*
X101000Y42695D02*
X100622Y42619D01*
X99878Y42122D01*
X99381Y41378D01*
X99305Y41000D01*
X101000D01*
Y42695D01*
D02*
G37*
G36*
X103695Y40000D02*
X102000D01*
Y38305D01*
X102378Y38381D01*
X103122Y38878D01*
X103620Y39622D01*
X103695Y40000D01*
D02*
G37*
G36*
X65500Y40195D02*
X65122Y40119D01*
X64378Y39622D01*
X63881Y38878D01*
X63805Y38500D01*
X65500D01*
Y40195D01*
D02*
G37*
G36*
X102000Y42695D02*
Y41000D01*
X103695D01*
X103620Y41378D01*
X103122Y42122D01*
X102378Y42619D01*
X102000Y42695D01*
D02*
G37*
G36*
X68728Y120000D02*
X66055D01*
X63382D01*
Y116744D01*
Y113500D01*
X68728D01*
Y116744D01*
Y120000D01*
D02*
G37*
G36*
X49500Y119500D02*
X47805D01*
X47881Y119122D01*
X48378Y118378D01*
X49122Y117880D01*
X49500Y117805D01*
Y119500D01*
D02*
G37*
G36*
X112256Y113228D02*
X109000D01*
Y111055D01*
X112256D01*
Y113228D01*
D02*
G37*
G36*
X139756Y114563D02*
X136500D01*
Y112390D01*
X139756D01*
Y114563D01*
D02*
G37*
G36*
X52195Y119500D02*
X50500D01*
Y117805D01*
X50878Y117880D01*
X51622Y118378D01*
X52119Y119122D01*
X52195Y119500D01*
D02*
G37*
G36*
X65555Y124256D02*
X63382D01*
Y121000D01*
X65555D01*
Y124256D01*
D02*
G37*
G36*
X68728D02*
X66555D01*
Y121000D01*
X68728D01*
Y124256D01*
D02*
G37*
G36*
X49500Y122195D02*
X49122Y122119D01*
X48378Y121622D01*
X47881Y120878D01*
X47805Y120500D01*
X49500D01*
Y122195D01*
D02*
G37*
G36*
X50500D02*
Y120500D01*
X52195D01*
X52119Y120878D01*
X51622Y121622D01*
X50878Y122119D01*
X50500Y122195D01*
D02*
G37*
G36*
X103756Y113228D02*
X100500D01*
Y111055D01*
X103756D01*
Y113228D01*
D02*
G37*
G36*
X118961Y97020D02*
X116862D01*
Y96632D01*
X116955Y96166D01*
X117219Y95770D01*
X117614Y95506D01*
X118081Y95414D01*
X118961D01*
Y97020D01*
D02*
G37*
G36*
X100500Y96695D02*
X100122Y96619D01*
X99378Y96122D01*
X98881Y95378D01*
X98805Y95000D01*
X100500D01*
Y96695D01*
D02*
G37*
G36*
X101500D02*
Y95000D01*
X103195D01*
X103120Y95378D01*
X102622Y96122D01*
X101878Y96619D01*
X101500Y96695D01*
D02*
G37*
G36*
X122059Y97020D02*
X119961D01*
Y95414D01*
X120841D01*
X121307Y95506D01*
X121702Y95770D01*
X121966Y96166D01*
X122059Y96632D01*
Y97020D01*
D02*
G37*
G36*
X64695Y98000D02*
X63000D01*
Y96305D01*
X63378Y96381D01*
X64122Y96878D01*
X64619Y97622D01*
X64695Y98000D01*
D02*
G37*
G36*
X62000D02*
X60305D01*
X60381Y97622D01*
X60878Y96878D01*
X61622Y96381D01*
X62000Y96305D01*
Y98000D01*
D02*
G37*
G36*
X138000Y94500D02*
X136305D01*
X136381Y94122D01*
X136878Y93378D01*
X137622Y92881D01*
X138000Y92805D01*
Y94500D01*
D02*
G37*
G36*
X140695D02*
X139000D01*
Y92805D01*
X139378Y92881D01*
X140122Y93378D01*
X140620Y94122D01*
X140695Y94500D01*
D02*
G37*
G36*
X100500Y94000D02*
X98805D01*
X98881Y93622D01*
X99378Y92878D01*
X100122Y92381D01*
X100500Y92305D01*
Y94000D01*
D02*
G37*
G36*
X103195D02*
X101500D01*
Y92305D01*
X101878Y92381D01*
X102622Y92878D01*
X103120Y93622D01*
X103195Y94000D01*
D02*
G37*
G36*
X87500Y110000D02*
X85805D01*
X85881Y109622D01*
X86378Y108878D01*
X87122Y108380D01*
X87500Y108305D01*
Y110000D01*
D02*
G37*
G36*
X90195D02*
X88500D01*
Y108305D01*
X88878Y108380D01*
X89622Y108878D01*
X90119Y109622D01*
X90195Y110000D01*
D02*
G37*
G36*
X108000Y110055D02*
X104744D01*
Y107882D01*
X108000D01*
Y110055D01*
D02*
G37*
G36*
X112256D02*
X109000D01*
Y107882D01*
X112256D01*
Y110055D01*
D02*
G37*
G36*
X139756Y111390D02*
X136500D01*
Y109216D01*
X139756D01*
Y111390D01*
D02*
G37*
G36*
X99500Y113228D02*
X96244D01*
Y111055D01*
X99500D01*
Y113228D01*
D02*
G37*
G36*
X108000D02*
X104744D01*
Y111055D01*
X108000D01*
Y113228D01*
D02*
G37*
G36*
X87500Y112695D02*
X87122Y112619D01*
X86378Y112122D01*
X85881Y111378D01*
X85805Y111000D01*
X87500D01*
Y112695D01*
D02*
G37*
G36*
X88500D02*
Y111000D01*
X90195D01*
X90119Y111378D01*
X89622Y112122D01*
X88878Y112619D01*
X88500Y112695D01*
D02*
G37*
G36*
X62000Y100695D02*
X61622Y100619D01*
X60878Y100122D01*
X60381Y99378D01*
X60305Y99000D01*
X62000D01*
Y100695D01*
D02*
G37*
G36*
X63000D02*
Y99000D01*
X64695D01*
X64619Y99378D01*
X64122Y100122D01*
X63378Y100619D01*
X63000Y100695D01*
D02*
G37*
G36*
X68760Y102807D02*
X66957D01*
Y101137D01*
X67049Y100672D01*
X67313Y100277D01*
X67707Y100014D01*
X68172Y99922D01*
X68760D01*
Y102807D01*
D02*
G37*
G36*
X99500Y110055D02*
X96244D01*
Y107882D01*
X99500D01*
Y110055D01*
D02*
G37*
G36*
X103756D02*
X100500D01*
Y107882D01*
X103756D01*
Y110055D01*
D02*
G37*
G36*
X125695Y124000D02*
X124000D01*
Y122305D01*
X124378Y122380D01*
X125122Y122878D01*
X125619Y123622D01*
X125695Y124000D01*
D02*
G37*
G36*
X124000Y126695D02*
Y125000D01*
X125695D01*
X125619Y125378D01*
X125122Y126122D01*
X124378Y126620D01*
X124000Y126695D01*
D02*
G37*
G36*
X124500Y144619D02*
X122916Y144463D01*
X121393Y144001D01*
X119989Y143251D01*
X118759Y142241D01*
X117749Y141011D01*
X117700Y140920D01*
X117118Y141065D01*
Y143000D01*
X114945D01*
Y139744D01*
X116413D01*
X116858Y139144D01*
X116537Y138084D01*
X116381Y136500D01*
X116537Y134916D01*
X116999Y133393D01*
X117749Y131989D01*
X118759Y130759D01*
X119989Y129749D01*
X121393Y128999D01*
X122916Y128537D01*
X124500Y128381D01*
X126084Y128537D01*
X127607Y128999D01*
X129011Y129749D01*
X130241Y130759D01*
X131251Y131989D01*
X132001Y133393D01*
X132463Y134916D01*
X132619Y136500D01*
X132463Y138084D01*
X132001Y139607D01*
X131251Y141011D01*
X130241Y142241D01*
X129011Y143251D01*
X127607Y144001D01*
X126084Y144463D01*
X124500Y144619D01*
D02*
G37*
G36*
X113945Y143000D02*
X111772D01*
Y139744D01*
X113945D01*
Y143000D01*
D02*
G37*
G36*
X92555D02*
X90382D01*
Y139744D01*
X92555D01*
Y143000D01*
D02*
G37*
G36*
X95728D02*
X93555D01*
Y139744D01*
X95728D01*
Y143000D01*
D02*
G37*
G36*
X86000Y142195D02*
Y140500D01*
X87695D01*
X87619Y140878D01*
X87122Y141622D01*
X86378Y142120D01*
X86000Y142195D01*
D02*
G37*
G36*
X11923Y92332D02*
X4817D01*
Y85227D01*
X11923D01*
Y92332D01*
D02*
G37*
G36*
X14945Y128500D02*
X12772D01*
Y125244D01*
X14945D01*
Y128500D01*
D02*
G37*
G36*
X18118D02*
X15945D01*
Y125244D01*
X18118D01*
Y128500D01*
D02*
G37*
G36*
X14945Y132756D02*
X12772D01*
Y129500D01*
X14945D01*
Y132756D01*
D02*
G37*
G36*
X18118D02*
X15945D01*
Y129500D01*
X18118D01*
Y132756D01*
D02*
G37*
G36*
X16500Y139784D02*
X13244D01*
Y137610D01*
X16500D01*
Y139784D01*
D02*
G37*
G36*
X11256Y139673D02*
X8000D01*
Y137500D01*
X11256D01*
Y139673D01*
D02*
G37*
G36*
X23500Y141695D02*
X23122Y141620D01*
X22378Y141122D01*
X21881Y140378D01*
X21805Y140000D01*
X23500D01*
Y141695D01*
D02*
G37*
G36*
X16500Y136610D02*
X13244D01*
Y134437D01*
X16500D01*
Y136610D01*
D02*
G37*
G36*
X11256Y136500D02*
X8000D01*
Y134327D01*
X11256D01*
Y136500D01*
D02*
G37*
G36*
X7000Y139673D02*
X3744D01*
Y137500D01*
X7000D01*
Y139673D01*
D02*
G37*
G36*
X9946Y103982D02*
X2053D01*
Y99632D01*
X5082D01*
Y98290D01*
X5000Y98163D01*
Y95500D01*
Y93305D01*
X5378Y93381D01*
X6122Y93878D01*
X6620Y94622D01*
X6755Y95301D01*
X7348Y95556D01*
X7561Y95344D01*
X7858Y95145D01*
X8209Y95075D01*
X8561Y95145D01*
X8858Y95344D01*
X9597Y96082D01*
X23888D01*
X24166Y95666D01*
X24778Y95257D01*
X25500Y95114D01*
X26222Y95257D01*
X26834Y95666D01*
X27243Y96278D01*
X27386Y97000D01*
X27243Y97722D01*
X26834Y98334D01*
X26222Y98743D01*
X25500Y98886D01*
X24778Y98743D01*
X24166Y98334D01*
X23888Y97918D01*
X9217D01*
X8865Y97848D01*
X8568Y97649D01*
X8209Y97290D01*
X6918Y98582D01*
Y99632D01*
X9946D01*
Y103982D01*
D02*
G37*
G36*
X4000Y97695D02*
X3622Y97619D01*
X2878Y97122D01*
X2380Y96378D01*
X2305Y96000D01*
X4000D01*
Y97695D01*
D02*
G37*
G36*
Y95000D02*
X2305D01*
X2380Y94622D01*
X2878Y93878D01*
X3622Y93381D01*
X4000Y93305D01*
Y95000D01*
D02*
G37*
%LPD*%
D10*
X98075Y133421D02*
D03*
X99768D02*
D03*
X101461D02*
D03*
X103154D02*
D03*
X104847D02*
D03*
X106539D02*
D03*
X108232D02*
D03*
X109925D02*
D03*
Y123579D02*
D03*
X108232D02*
D03*
X106539D02*
D03*
X104847D02*
D03*
X103154D02*
D03*
X101461D02*
D03*
X99768D02*
D03*
X98075D02*
D03*
D11*
Y131039D02*
D03*
X109925D02*
D03*
Y129347D02*
D03*
Y127654D02*
D03*
Y125961D02*
D03*
X98075Y129347D02*
D03*
Y127654D02*
D03*
Y125961D02*
D03*
D12*
X71850Y78740D02*
D03*
Y71260D02*
D03*
X78150D02*
D03*
Y78740D02*
D03*
D13*
X66055Y120500D02*
D03*
X72945D02*
D03*
X127945Y114000D02*
D03*
X121055D02*
D03*
X66055Y113000D02*
D03*
X72945D02*
D03*
X119390Y91000D02*
D03*
X112500D02*
D03*
X101445Y52000D02*
D03*
X94555D02*
D03*
X87555Y32000D02*
D03*
X94445D02*
D03*
X135945Y53500D02*
D03*
X129055D02*
D03*
Y63500D02*
D03*
X135945D02*
D03*
X82555Y52000D02*
D03*
X89445D02*
D03*
X135945Y73000D02*
D03*
X129055D02*
D03*
X87555Y6500D02*
D03*
X94445D02*
D03*
X46890D02*
D03*
X40000D02*
D03*
X32000D02*
D03*
X25110D02*
D03*
X38445Y89000D02*
D03*
X31555D02*
D03*
X38445Y107000D02*
D03*
X31555D02*
D03*
Y98000D02*
D03*
X38445D02*
D03*
X94445Y23500D02*
D03*
X87555D02*
D03*
X94390Y15000D02*
D03*
X87500D02*
D03*
X8555Y129000D02*
D03*
X15445D02*
D03*
X107555Y143500D02*
D03*
X114445D02*
D03*
X99945D02*
D03*
X93055D02*
D03*
X47390Y46500D02*
D03*
X40500D02*
D03*
X25445D02*
D03*
X32335D02*
D03*
X54055Y137000D02*
D03*
X60945D02*
D03*
D14*
X76740Y91693D02*
D03*
X69260D02*
D03*
Y103307D02*
D03*
X73000D02*
D03*
X76740D02*
D03*
D15*
X111945Y83445D02*
D03*
Y76555D02*
D03*
X120445Y83445D02*
D03*
Y76555D02*
D03*
X136000Y105000D02*
D03*
Y111890D02*
D03*
X41445Y54555D02*
D03*
Y61445D02*
D03*
X31445Y54555D02*
D03*
Y61445D02*
D03*
X7500Y137000D02*
D03*
Y143890D02*
D03*
X17000Y144000D02*
D03*
Y137110D02*
D03*
X108500Y117445D02*
D03*
Y110555D02*
D03*
X89500Y78445D02*
D03*
Y71555D02*
D03*
X100000Y117445D02*
D03*
Y110555D02*
D03*
D16*
X129500Y105000D02*
D03*
Y97520D02*
D03*
X119461D02*
D03*
Y101260D02*
D03*
Y105000D02*
D03*
D17*
X6000Y115193D02*
D03*
Y101807D02*
D03*
D18*
X102819Y8545D02*
D03*
Y11537D02*
D03*
Y14529D02*
D03*
Y17522D02*
D03*
Y20514D02*
D03*
X140181Y26577D02*
D03*
Y29569D02*
D03*
Y32561D02*
D03*
X103000Y23500D02*
D03*
X140181Y23577D02*
D03*
D19*
X107996Y40455D02*
D03*
X110988D02*
D03*
X113980D02*
D03*
X116972D02*
D03*
X119965D02*
D03*
X122957D02*
D03*
X125949D02*
D03*
X128941D02*
D03*
X131933D02*
D03*
X134925D02*
D03*
X137917D02*
D03*
X141000Y40500D02*
D03*
D20*
X36500Y28000D02*
D03*
D21*
X40339Y20815D02*
D03*
X37780D02*
D03*
X35221D02*
D03*
X32661D02*
D03*
Y35185D02*
D03*
X35221D02*
D03*
X37780D02*
D03*
X40339D02*
D03*
D22*
X29315Y24161D02*
D03*
Y26720D02*
D03*
Y29280D02*
D03*
Y31839D02*
D03*
X43685D02*
D03*
Y29280D02*
D03*
Y26720D02*
D03*
D23*
Y24161D02*
D03*
D24*
X19000Y75000D02*
D03*
Y77559D02*
D03*
Y80118D02*
D03*
Y72441D02*
D03*
Y69882D02*
D03*
D25*
X16250Y22000D02*
D03*
X8750D02*
D03*
X15750Y30000D02*
D03*
X8250D02*
D03*
X15750Y38500D02*
D03*
X8250D02*
D03*
Y49500D02*
D03*
X15750D02*
D03*
D26*
X35232Y136500D02*
D03*
Y133941D02*
D03*
Y131382D02*
D03*
X43500Y136500D02*
D03*
Y133941D02*
D03*
Y131382D02*
D03*
D27*
X39366Y133941D02*
D03*
D28*
X94000Y117575D02*
X117575D01*
X94445Y31500D02*
X97500D01*
X89500Y52000D02*
Y61000D01*
X4000Y128000D02*
X8555D01*
X25500Y126500D02*
X26350Y127350D01*
Y144150D01*
X25850Y144650D02*
X26350Y144150D01*
X25850Y144650D02*
Y145000D01*
X18000D02*
X25850D01*
X29200Y148000D02*
X82055D01*
X25850Y144650D02*
X29200Y148000D01*
X98075Y121075D02*
Y123579D01*
X17000Y144000D02*
X18000Y145000D01*
X1600Y142100D02*
X3390Y143890D01*
X1600Y130400D02*
Y142100D01*
Y130400D02*
X4000Y128000D01*
X8555Y122945D02*
Y128000D01*
X51500Y61000D02*
Y107500D01*
Y24161D02*
Y61000D01*
X78150D01*
X89500D01*
X78150D02*
Y71260D01*
X141000Y84000D02*
X145500Y88500D01*
X131000Y84000D02*
X141000D01*
X145500Y88500D02*
Y120000D01*
X129055Y63500D02*
Y73000D01*
Y53500D02*
Y63500D01*
Y40569D02*
Y53500D01*
X95000Y126000D02*
X98035D01*
X94000Y125000D02*
X95000Y126000D01*
X94000Y117575D02*
Y125000D01*
X129055Y73000D02*
Y82055D01*
X145500Y120000D02*
Y141000D01*
X117575Y117575D02*
X120000Y120000D01*
X145500D01*
X57153Y129347D02*
X95500D01*
X54055Y132445D02*
X57153Y129347D01*
X54055Y132445D02*
Y137000D01*
X53500Y142000D02*
X54055Y141445D01*
Y137000D02*
Y141445D01*
X50000Y137000D02*
X54055D01*
X46941Y133941D02*
X50000Y137000D01*
X43500Y133941D02*
X46941D01*
X49000Y142000D02*
X53500D01*
X46400Y112600D02*
X51500Y107500D01*
X36000Y11500D02*
X51500D01*
Y24161D01*
X43685D02*
X51500D01*
X33400Y112600D02*
X46400D01*
X25500Y120500D02*
X33400Y112600D01*
X138500Y148000D02*
X145500Y141000D01*
X103154Y148000D02*
X138500D01*
X129055Y82055D02*
X131000Y84000D01*
X94075Y121075D02*
X98075D01*
X14500Y112000D02*
Y117000D01*
X8555Y122945D02*
X14500Y117000D01*
X84000Y137500D02*
X97000D01*
X82055Y139445D02*
X84000Y137500D01*
X82055Y139445D02*
Y148000D01*
X36000Y6500D02*
Y11500D01*
X28500D02*
X36000D01*
X89500Y52000D02*
X94555D01*
X94445Y51890D02*
X94555Y52000D01*
X23720Y16780D02*
Y29280D01*
X94445Y23500D02*
Y29445D01*
Y20500D02*
Y23500D01*
X94390Y29500D02*
X94445Y29445D01*
X103154Y136500D02*
Y148000D01*
X82055D02*
X103154D01*
X32661Y35185D02*
Y37839D01*
X31161Y39339D02*
X32661Y37839D01*
X24839Y39339D02*
X31161D01*
X23720Y29280D02*
Y38221D01*
X24839Y39339D01*
X97000Y137500D02*
X98075Y136425D01*
X23720Y29280D02*
X29315D01*
X32000Y6500D02*
X36000D01*
X40000D01*
X94459Y20514D02*
X102819D01*
X94445Y20500D02*
X94459Y20514D01*
X94445Y15500D02*
Y20500D01*
X128941Y40455D02*
X129055Y40569D01*
X7500Y143890D02*
X7610Y144000D01*
X17000D01*
X3390Y143890D02*
X7500D01*
X78150Y71260D02*
X88205D01*
X88500Y71555D01*
X25850Y14150D02*
X28500Y11500D01*
X25850Y14421D02*
Y14650D01*
Y14150D02*
Y14421D01*
X23720Y16780D02*
X25850Y14650D01*
X94445Y31500D02*
Y32000D01*
Y51890D01*
X25500Y120500D02*
Y126500D01*
X98075Y133421D02*
Y136425D01*
X103154Y133421D02*
Y136500D01*
X101461Y133421D02*
Y136461D01*
X101500Y136500D01*
X103154D01*
D29*
X135945Y62500D02*
X136445Y63000D01*
X136500Y52555D02*
X137445Y53500D01*
X24000Y138000D02*
Y139500D01*
X23110Y137110D02*
X24000Y138000D01*
X17000Y137110D02*
X23110D01*
X72945Y113055D02*
X73000Y113000D01*
Y108000D02*
Y113000D01*
X54000Y124500D02*
X57153Y127654D01*
X32500Y124500D02*
X54000D01*
X32500Y119500D02*
Y124500D01*
X31000Y130000D02*
Y133500D01*
X31441Y133941D01*
X35232D01*
X29000Y140500D02*
Y143000D01*
X28000Y139500D02*
X29000Y140500D01*
X28000Y136500D02*
Y139500D01*
Y136500D02*
X35232D01*
X28000Y121000D02*
Y136500D01*
Y121000D02*
X35000Y114000D01*
X57153Y127654D02*
X98075D01*
X47500Y39500D02*
X50100Y36900D01*
Y27600D02*
Y36900D01*
X49220Y26720D02*
X50100Y27600D01*
X43685Y26720D02*
X49220D01*
X72500Y146500D02*
X87961Y131039D01*
X32500Y146500D02*
X72500D01*
X29000Y143000D02*
X32500Y146500D01*
X57000Y74000D02*
Y103500D01*
X64000Y77500D02*
X65240Y78740D01*
X64000Y66500D02*
Y77500D01*
X62250Y64750D02*
X64000Y66500D01*
X60750Y64750D02*
X62250D01*
X58250D02*
X60750D01*
X56500Y66500D02*
X58250Y64750D01*
X56500Y66500D02*
Y69197D01*
X9217Y97000D02*
X25500D01*
X8209Y95993D02*
X9217Y97000D01*
X64693Y91693D02*
X69260D01*
X60500Y87500D02*
X64693Y91693D01*
X60500Y68000D02*
Y87500D01*
X67600Y62600D02*
X71850Y66850D01*
X54000Y64500D02*
X55900Y62600D01*
X67600D01*
X57000Y103500D02*
X61500Y108000D01*
X54100Y71597D02*
X56500Y69197D01*
X54100Y71597D02*
Y108577D01*
X54000Y64500D02*
Y67500D01*
Y70000D01*
X137917Y42417D02*
X147400Y51900D01*
X137917Y40455D02*
Y42417D01*
X147400Y51900D02*
Y60600D01*
X125949Y40455D02*
Y67551D01*
X146000Y33500D02*
Y41000D01*
X119965Y40455D02*
Y54035D01*
X116000Y58000D02*
X119965Y54035D01*
X116000Y58000D02*
Y64500D01*
X115000Y65500D02*
X116000Y64500D01*
X110000Y65500D02*
X115000D01*
X110988Y56988D02*
X111000Y57000D01*
X110988Y40455D02*
Y56988D01*
X120000Y58000D02*
Y61000D01*
Y58000D02*
X122957Y55043D01*
Y40455D02*
Y55043D01*
X124500Y69000D02*
X125949Y67551D01*
X122000Y69000D02*
X124500D01*
X105500D02*
X122000D01*
X101445Y64945D02*
X105500Y69000D01*
X101445Y52000D02*
Y64945D01*
X136500Y45000D02*
Y52555D01*
X134925Y43425D02*
X136500Y45000D01*
X148600Y50600D02*
Y70900D01*
X141000Y43000D02*
X148600Y50600D01*
X141000Y40500D02*
Y43000D01*
X145000Y63000D02*
X147400Y60600D01*
X146500Y73000D02*
X148600Y70900D01*
X136445Y63000D02*
X145000D01*
X141500Y73000D02*
X146500D01*
X116972Y40455D02*
Y45972D01*
X83500Y8500D02*
X87555D01*
X117000Y45000D02*
Y45945D01*
X116972Y45972D02*
X117000Y45945D01*
X132000Y40522D02*
Y46000D01*
X131933Y40455D02*
X132000Y40522D01*
X134925Y40455D02*
Y43425D01*
X137445Y53500D02*
X144500D01*
X145061Y32561D02*
X146000Y33500D01*
X140181Y32561D02*
X145061D01*
X146000Y18000D02*
Y25000D01*
Y9000D02*
Y11500D01*
X140181Y17319D02*
X146000Y11500D01*
X140181Y17319D02*
Y23577D01*
X35165Y35185D02*
Y39835D01*
X144423Y26577D02*
X146000Y25000D01*
X140181Y26577D02*
X144423D01*
X140181Y29569D02*
X145431D01*
X72945Y113055D02*
Y120500D01*
X50100Y88600D02*
Y106900D01*
X45800Y111200D02*
X50100Y106900D01*
X32200Y111200D02*
X45800D01*
X45000Y83500D02*
X50100Y88600D01*
X65240Y78740D02*
X71850D01*
X107555Y143500D02*
X108055D01*
X105500D02*
X107555D01*
X101900Y1400D02*
X109500Y9000D01*
X23600Y1400D02*
X101900D01*
X20000Y5000D02*
X23600Y1400D01*
X19000Y22000D02*
X20000Y21000D01*
Y5000D02*
Y21000D01*
X141400Y118600D02*
X144000Y116000D01*
X135600Y118600D02*
X141400D01*
X131000Y114000D02*
X135600Y118600D01*
X144000Y101500D02*
Y116000D01*
X140020Y97520D02*
X144000Y101500D01*
X129500Y97520D02*
X140020D01*
X127945Y114000D02*
X131000D01*
X6000Y98202D02*
X8209Y95993D01*
X6000Y98202D02*
Y101807D01*
X10307Y115193D02*
X12000Y113500D01*
Y109000D02*
Y113500D01*
Y109000D02*
X13000Y108000D01*
X18500Y109702D02*
Y114500D01*
X16798Y108000D02*
X18500Y109702D01*
X13000Y108000D02*
X16798D01*
X6000Y115193D02*
X10307D01*
X95500Y129347D02*
X98075D01*
X111890Y76500D02*
X111945Y76555D01*
X103000Y76500D02*
X111890D01*
X52900Y71100D02*
X54000Y70000D01*
X52900Y71100D02*
Y108080D01*
X31555Y110555D02*
X32200Y111200D01*
X31555Y107000D02*
Y110555D01*
X61500Y108000D02*
X73000D01*
Y103307D02*
Y108000D01*
X78000D02*
X80500Y105500D01*
X73000Y108000D02*
X78000D01*
X47177Y115500D02*
X54100Y108577D01*
X36500Y115500D02*
X47177D01*
X46980Y114000D02*
X52900Y108080D01*
X35000Y114000D02*
X46980D01*
X129500Y90000D02*
Y97520D01*
X71850Y66850D02*
Y71260D01*
X112500Y91000D02*
Y100000D01*
X113760Y101260D01*
X119461D01*
X132500Y105000D02*
Y108000D01*
X132000Y108500D02*
X132500Y108000D01*
X131000Y108500D02*
X132000D01*
X132500Y105000D02*
X136000D01*
X129500D02*
X132500D01*
X121055Y109555D02*
Y114000D01*
X119461Y107961D02*
X121055Y109555D01*
X119461Y105000D02*
Y107961D01*
X80500Y93000D02*
Y105500D01*
X79193Y91693D02*
X80500Y93000D01*
X76740Y91693D02*
X79193D01*
X32500Y119500D02*
X36500Y115500D01*
X111945Y76555D02*
X120445D01*
X111945Y83445D02*
X112500Y84000D01*
Y91000D01*
X36500Y28000D02*
X37780Y29280D01*
X43685D02*
X47780D01*
X87961Y131039D02*
X98075D01*
X40500Y15500D02*
Y20653D01*
X109500Y9000D02*
Y31500D01*
X113980Y35980D01*
Y40455D01*
X43500Y39500D02*
X47500D01*
X82500Y15000D02*
Y21000D01*
Y15000D02*
X83500Y14000D01*
Y8500D02*
Y14000D01*
X79500Y52000D02*
X82555D01*
X82500Y31500D02*
X87500D01*
X87555Y15500D02*
Y22500D01*
X15750Y49500D02*
X21000D01*
X39500Y142000D02*
Y144000D01*
Y142000D02*
X40500Y141000D01*
X46500D01*
X47500Y140000D01*
Y137500D02*
Y140000D01*
X46500Y136500D02*
X47500Y137500D01*
X43500Y136500D02*
X46500D01*
X15750Y38500D02*
X21000D01*
X15750Y30000D02*
X21000D01*
X8250Y38500D02*
X8750D01*
X2500D02*
X8250D01*
Y30000D02*
X8750D01*
X2500D02*
X8250D01*
X8750Y22000D02*
X9250D01*
X107996Y45996D02*
X108000Y46000D01*
X107996Y40455D02*
Y45996D01*
X113980Y40455D02*
X114000Y40474D01*
X109925Y133421D02*
Y136000D01*
X106539Y133421D02*
Y136000D01*
X108232Y133421D02*
Y136000D01*
X106539D02*
X108232D01*
X109925D01*
X112500Y129347D02*
Y131039D01*
X109925Y129347D02*
X112500D01*
Y127654D02*
Y129347D01*
X109925Y125961D02*
X112500D01*
Y127654D01*
X109925D02*
X112500D01*
X109925Y136000D02*
X112500D01*
X109925Y131039D02*
X112500D01*
X37780Y35185D02*
Y39779D01*
X40500Y42500D01*
Y46500D01*
X32335Y42665D02*
Y46500D01*
Y42665D02*
X35165Y39835D01*
X40500Y46500D02*
Y50500D01*
X41445Y51445D01*
Y54555D01*
X31445Y51555D02*
Y54555D01*
Y51555D02*
X32335Y50665D01*
Y46500D02*
Y50665D01*
X40339Y20815D02*
X40500Y20653D01*
X135945Y73000D02*
X141500D01*
X87500Y29500D02*
Y31500D01*
X99768Y133421D02*
Y141823D01*
X99945Y142000D01*
X104847Y133421D02*
Y142847D01*
X105500Y143500D01*
X3000Y22000D02*
X8750D01*
X19000Y77559D02*
X24441D01*
X26000Y76000D01*
X19000Y75000D02*
X23500D01*
X24500Y74000D01*
Y63000D02*
Y74000D01*
Y63000D02*
X26055Y61445D01*
X31445D01*
X41445D02*
Y63555D01*
X40000Y65000D02*
X41445Y63555D01*
X26000Y67000D02*
Y76000D01*
Y67000D02*
X28000Y65000D01*
X40000D01*
X16250Y22000D02*
X19000D01*
X74500Y46000D02*
X91000D01*
X25110Y6500D02*
Y11390D01*
X24500Y12000D02*
X25110Y11390D01*
X22500Y12000D02*
X24500D01*
X112500Y133000D02*
X114500D01*
X115500Y132000D01*
Y126000D02*
Y132000D01*
Y126000D02*
X117000Y124500D01*
X123500D01*
X112500Y131039D02*
Y133000D01*
Y136000D01*
D30*
X22500Y109500D02*
Y133500D01*
X31500Y85500D02*
Y107000D01*
X22500Y109500D02*
X25000Y107000D01*
X26118Y80118D02*
X31500Y85500D01*
X19000Y80118D02*
X26118D01*
X5618D02*
X19000D01*
X2500Y77000D02*
X5618Y80118D01*
X4000Y49500D02*
X8250D01*
X2500Y51000D02*
X4000Y49500D01*
X2500Y51000D02*
Y77000D01*
X25000Y107000D02*
X31500D01*
X31555D01*
D31*
X99793Y122239D02*
D03*
X98100D02*
D03*
X101486D02*
D03*
X103179D02*
D03*
X104872D02*
D03*
X106565D02*
D03*
X108257D02*
D03*
X109950D02*
D03*
X109900Y134761D02*
D03*
X108207D02*
D03*
X106514D02*
D03*
X104821D02*
D03*
X103128D02*
D03*
X101435D02*
D03*
X99743D02*
D03*
X98050D02*
D03*
D32*
X111265Y125986D02*
D03*
Y127679D02*
D03*
Y129372D02*
D03*
Y131064D02*
D03*
X96735Y131014D02*
D03*
Y129321D02*
D03*
Y127628D02*
D03*
Y125935D02*
D03*
D33*
X145000Y63000D02*
D03*
X22000Y133500D02*
D03*
X89500Y61000D02*
D03*
X97000Y66500D02*
D03*
X5000Y121500D02*
D03*
X129500Y90000D02*
D03*
X109500Y65500D02*
D03*
X111000Y57000D02*
D03*
X144500Y53500D02*
D03*
X120000Y61000D02*
D03*
X132500Y46500D02*
D03*
X122000Y69000D02*
D03*
X108000Y46000D02*
D03*
X146000Y41000D02*
D03*
X146500Y29500D02*
D03*
D34*
X19000Y65158D02*
D03*
Y84842D02*
D03*
D35*
X8370Y88779D02*
D03*
Y61221D02*
D03*
D36*
X11000Y9500D02*
D03*
X124500Y136500D02*
D03*
X36500Y75000D02*
D03*
D37*
X24000Y139500D02*
D03*
X4000Y133500D02*
D03*
X32500Y124500D02*
D03*
X31000Y130000D02*
D03*
X57000Y74000D02*
D03*
X25500Y97000D02*
D03*
X60500Y68000D02*
D03*
X60750Y64750D02*
D03*
X54000Y67500D02*
D03*
X126000Y45000D02*
D03*
X117000D02*
D03*
X146000Y18000D02*
D03*
Y9000D02*
D03*
X50000Y120000D02*
D03*
X97500Y31500D02*
D03*
X138500Y95000D02*
D03*
X89500Y87500D02*
D03*
X101500Y40500D02*
D03*
X64500Y56500D02*
D03*
X66000Y38000D02*
D03*
X64500Y9500D02*
D03*
X46000Y14500D02*
D03*
X36000Y51000D02*
D03*
X45500Y96500D02*
D03*
X101000Y94500D02*
D03*
X88000Y110500D02*
D03*
X62500Y98500D02*
D03*
X4500Y95500D02*
D03*
X103000Y76500D02*
D03*
X45000Y83500D02*
D03*
X51500Y11500D02*
D03*
X131000Y108500D02*
D03*
X14500Y112000D02*
D03*
X18500Y114500D02*
D03*
X30500Y14500D02*
D03*
X36500Y28000D02*
D03*
X47780Y29280D02*
D03*
X51500Y130500D02*
D03*
X5500Y69500D02*
D03*
X85500Y140000D02*
D03*
X68500Y137000D02*
D03*
X40500Y15500D02*
D03*
X82500Y21000D02*
D03*
X91000Y46000D02*
D03*
X79500Y52000D02*
D03*
X43500Y39500D02*
D03*
X82500Y31500D02*
D03*
X83500Y8500D02*
D03*
X21000Y49500D02*
D03*
X25500Y126500D02*
D03*
X49000Y142000D02*
D03*
X39500Y144000D02*
D03*
X29000Y143000D02*
D03*
X21000Y38500D02*
D03*
Y30000D02*
D03*
X3000Y22000D02*
D03*
X2500Y30000D02*
D03*
Y38500D02*
D03*
X141500Y73000D02*
D03*
X25850Y14421D02*
D03*
X144000Y80000D02*
D03*
X74500Y46000D02*
D03*
X22500Y12000D02*
D03*
X123500Y124500D02*
D03*
M02*
