G04 Layer_Color=128*
%FSLAX25Y25*%
%MOIN*%
G70*
G01*
G75*
%ADD13R,0.03347X0.05512*%
%ADD38R,0.07087X0.05512*%
%ADD39R,0.05512X0.07480*%
%ADD40R,0.03150X0.05905*%
%ADD41R,0.05748X0.05354*%
%ADD42R,0.01181X0.02953*%
%ADD43R,0.09370X0.06496*%
%ADD44R,0.00984X0.02756*%
%ADD45C,0.70000*%
%ADD46R,0.10000X0.20000*%
D13*
X10445Y144500D02*
D03*
X3555D02*
D03*
X107945Y15500D02*
D03*
X101055D02*
D03*
X8555Y22000D02*
D03*
X15445D02*
D03*
X8555Y30000D02*
D03*
X15445D02*
D03*
X8555Y38500D02*
D03*
X15445D02*
D03*
X107945Y24000D02*
D03*
X101055D02*
D03*
X22445Y144500D02*
D03*
X15555D02*
D03*
X18945Y97500D02*
D03*
X12055D02*
D03*
X18945Y106000D02*
D03*
X12055D02*
D03*
X107945Y32500D02*
D03*
X101055D02*
D03*
X135055Y131000D02*
D03*
X141945D02*
D03*
X135055Y112000D02*
D03*
X141945D02*
D03*
X8555Y49500D02*
D03*
X15445D02*
D03*
X141945Y121500D02*
D03*
X135055D02*
D03*
X141945Y140500D02*
D03*
X135055D02*
D03*
D38*
X50193Y61339D02*
D03*
X72634D02*
D03*
D39*
X27161Y5630D02*
D03*
X78441Y9567D02*
D03*
D40*
X75823Y20787D02*
D03*
X71492D02*
D03*
X67108Y19887D02*
D03*
X62831Y20787D02*
D03*
X58500Y20000D02*
D03*
X54169Y20787D02*
D03*
X49839Y22362D02*
D03*
X45508Y20787D02*
D03*
D41*
X138500Y95000D02*
D03*
D42*
X135547Y100906D02*
D03*
X137516D02*
D03*
X139484D02*
D03*
X141453D02*
D03*
Y89095D02*
D03*
X139484D02*
D03*
X137516D02*
D03*
X135547D02*
D03*
D43*
X12500Y129500D02*
D03*
D44*
X8563Y135110D02*
D03*
X10531D02*
D03*
X12500D02*
D03*
X14469D02*
D03*
X16437D02*
D03*
X8563Y123890D02*
D03*
X10531D02*
D03*
X12500D02*
D03*
X14469D02*
D03*
X16437D02*
D03*
D45*
X75000Y110000D02*
D03*
D46*
X30000Y110500D02*
D03*
X120000D02*
D03*
M02*
