M48
;Layer_Color=9474304
;FILE_FORMAT=2:5
INCH,LZ
;TYPE=PLATED
T1F00S00C0.01200
T2F00S00C0.02000
T3F00S00C0.03543
T4F00S00C0.04528
T5F00S00C0.09449
%
T01
X0003Y0022
X00025Y003
Y00385
X0021
Y003
X00365Y0028
X004778Y002928
X00435Y00395
X0036Y0051
X0021Y00495
X00225Y0012
X002585Y0014421
X00305Y00145
X00405Y00155
X0046Y00145
X00515Y00115
X00645Y00095
X00835Y00085
X00825Y0021
Y00315
X00975
X01015Y00405
X0091Y0046
X00745
X00795Y0052
X0066Y0038
X0117Y0045
X0126
X0146Y0018
Y0009
X01415Y0073
X0144Y008
X01385Y0095
X0131Y01085
X01235Y01245
X0088Y01105
X00895Y00875
X0101Y00945
X0103Y00765
X0057Y0074
X00605Y0068
X006075Y006475
X00645Y00565
X00625Y00985
X00685Y0137
X00855Y014
X0049Y0142
X00395Y0144
X0029Y0143
X0024Y01395
X00255Y01265
X00325Y01245
X0031Y013
X00515Y01305
X005Y012
X00455Y00965
X0045Y00835
X0054Y00675
X00055Y00695
X00045Y00955
X00255Y0097
X00185Y01145
X00145Y0112
X0004Y01335
T02
X0108Y0046
X01325Y00465
X01445Y00535
X0146Y0041
X01465Y00295
X0145Y0063
X012Y0061
X0122Y0069
X01095Y00655
X0111Y0057
X0097Y00665
X00895Y0061
X01295Y009
X0022Y01335
X0005Y01215
T03
X0019Y0065158
Y0084842
T04
X000837Y0061221
Y0088779
T05
X0011Y00095
X01245Y01365
X00365Y0075
M30
